<svg width="60" height="59" viewBox="0 0 60 59" fill="none" xmlns="http://www.w3.org/2000/svg">
<path d="M33.2947 14.3606C49.3997 24.9749 59.0564 51.6782 60 58.2862H58.3958C48.5032 52.9388 30.6839 40.2721 20.2408 31.5309C5.18961 18.9324 2.46875 6.86811 0.109619 0C4.4609 0.364218 17.1897 3.74624 33.2947 14.3606Z" fill="#43606C"/>
<path fill-rule="evenodd" clip-rule="evenodd" d="M43.7823 48.6963L56.616 53.7763L56.4323 54.2403L43.5986 49.1603L43.7823 48.6963Z" fill="#173E4F"/>
<path fill-rule="evenodd" clip-rule="evenodd" d="M32.0073 39.8691L50.7231 46.2859L50.5612 46.758L31.8455 40.3412L32.0073 39.8691Z" fill="#173E4F"/>
<path fill-rule="evenodd" clip-rule="evenodd" d="M21.0321 31.3093L43.7584 37.7261L43.6228 38.2064L20.8965 31.7896L21.0321 31.3093Z" fill="#173E4F"/>
<path fill-rule="evenodd" clip-rule="evenodd" d="M10.8728 21.4167L36.2727 28.6357L36.1363 29.1158L10.7363 21.8968L10.8728 21.4167Z" fill="#173E4F"/>
<path fill-rule="evenodd" clip-rule="evenodd" d="M6.0623 13.3964L26.917 19.5459L26.7758 20.0246L5.92114 13.8751L6.0623 13.3964Z" fill="#173E4F"/>
<path fill-rule="evenodd" clip-rule="evenodd" d="M2.06368 5.64661L17.3036 10.994L17.1384 11.4649L1.89844 6.11754L2.06368 5.64661Z" fill="#173E4F"/>
<path fill-rule="evenodd" clip-rule="evenodd" d="M49.5914 33.9764L50.6608 46.8101L51.1582 46.7687L50.0887 33.935L49.5914 33.9764Z" fill="#173E4F"/>
<path fill-rule="evenodd" clip-rule="evenodd" d="M43.1738 24.5978V37.6989H43.6729V24.5978H43.1738Z" fill="#173E4F"/>
<path fill-rule="evenodd" clip-rule="evenodd" d="M35.6879 16.5927L36.49 29.159L36.988 29.1272L36.1859 16.5609L35.6879 16.5927Z" fill="#173E4F"/>
<path fill-rule="evenodd" clip-rule="evenodd" d="M26.5978 10.716L27.4 20.0739L27.8972 20.0313L27.0951 10.6734L26.5978 10.716Z" fill="#173E4F"/>
<path fill-rule="evenodd" clip-rule="evenodd" d="M14.3202 4.9159L16.9939 10.798L17.4482 10.5915L14.7746 4.70938L14.3202 4.9159Z" fill="#173E4F"/>
<path fill-rule="evenodd" clip-rule="evenodd" d="M55.4737 46.2795L56.2759 54.3005L56.7725 54.2509L55.9704 46.2298L55.4737 46.2795Z" fill="#173E4F"/>
<path fill-rule="evenodd" clip-rule="evenodd" d="M35.4871 28.5113C24.2691 16.492 11.9941 6.35535 0 0.491554L0.219204 0.0431824C12.2882 5.94357 24.6111 16.1269 35.852 28.1707C42.9057 35.7283 55.2976 51.4514 59.6716 57.8784L59.259 58.1592C54.8989 51.7526 42.5228 36.0495 35.4871 28.5113Z" fill="#173E4F"/>
</svg>
