<svg width="120" height="81" viewBox="0 0 120 81" fill="none" xmlns="http://www.w3.org/2000/svg">
<path d="M110.416 80.5113H18.4026C9.96807 80.5113 0.00016718 77.1375 0 69.7765C-0.000187199 61.5336 7.66775 61.342 13.8019 60.5752C8.81791 56.7413 3.42766e-09 56.1279 0 47.54C0 38.9521 12.2684 39.8723 18.4026 41.4058C13.2907 39.8723 3.52709 34.6582 5.36735 26.0703C7.20761 17.4825 14.8243 22.4921 18.4026 26.0703C15.3355 21.9809 11.0416 12.4217 18.4026 6.90097C25.7636 1.3802 31.6934 12.2684 33.7381 18.4026C32.2045 12.2684 31.4378 0 40.6391 0C49.8404 0 52.1407 9.20129 52.1407 13.8019C52.6519 9.20129 55.2842 0 63.2587 0C71.2331 0 74.7603 6.90097 73.6102 14.5687C77.444 6.90097 83.5782 1.15016 90.0958 4.60065C96.6134 8.05113 100.064 15.7189 93.5463 23.3866C101.214 18.4026 106.965 20.7029 108.882 26.0703C110.799 31.4378 108.882 37.5719 103.515 41.4058C110.416 39.1055 117.519 44.2356 118.85 50.2237C120.383 57.1247 113.099 62.1087 110.416 65.1758C115.016 65.1758 120 67.8595 120 72.0768C120 76.2941 115.783 80.5113 110.416 80.5113Z" fill="#43606C"/>
<circle cx="76.294" cy="31.8212" r="3.45048" fill="#FFD12D"/>
<circle cx="34.1214" cy="62.4921" r="3.45048" fill="#FFD12D"/>
<circle cx="37.1885" cy="35.655" r="3.45048" fill="#FFD12D"/>
<circle cx="59.4251" cy="50.9905" r="3.45048" fill="#FFD12D"/>
<circle cx="89.3291" cy="62.4921" r="3.45048" fill="#FFD12D"/>
</svg>
