<svg width="60" height="81" viewBox="0 0 60 81" fill="none" xmlns="http://www.w3.org/2000/svg">
<path d="M48.0233 67.2159C50.722 74.7952 32.5056 76.2672 21.2201 80.4641C10.4252 71.3605 -4.25784 65.6116 1.16392 57.6216C5.82532 50.7522 12.94 58.8483 18.3374 64.4911C15.3934 57.6216 0.0119514 42.5756 5.82532 34.3146C10.4868 27.6905 16.3747 38.7307 22.7535 45.3548C20.5455 37.0133 8.508 22.1144 13.9214 16.1597C19.3349 10.2049 24.9616 18.3677 29.8683 27.4452C28.5801 18.6131 26.0044 7.30135 29.8683 2.91147C35.5384 -3.53058 45.5698 1.43945 43.791 10.7622C49.7406 2.91147 57.9594 2.91147 59.7995 12.7249C61.2715 20.5757 50.1698 25.7278 43.791 30.4154C50.1698 30.4154 57.7069 24.9918 59.7994 32.1066C62.2528 40.448 41.4607 44.1019 37.7191 50.7522C43.1165 50.7522 55.874 43.8828 55.874 50.7522C55.874 57.6216 38.3936 58.8483 32.5056 67.2159C38.3936 67.2159 45.5456 60.2576 48.0233 67.2159Z" fill="#43606C"/>
<path fill-rule="evenodd" clip-rule="evenodd" d="M43.577 10.4539C38.0964 23.7056 25.9039 56.1568 20.9922 79.9293L21.4819 80.0304C26.3837 56.3057 38.5613 23.8898 44.0391 10.645L43.577 10.4539Z" fill="#173E4F"/>
<path fill-rule="evenodd" clip-rule="evenodd" d="M18.1046 64.6883C19.8035 66.6299 21.7513 69.795 22.722 72.2219L23.1863 72.0362C22.1943 69.5564 20.2167 66.3428 18.4809 64.359L18.1046 64.6883Z" fill="#173E4F"/>
<path fill-rule="evenodd" clip-rule="evenodd" d="M22.5134 45.5435C24.4594 47.9759 25.9212 50.6541 27.8855 54.3371L28.3267 54.1018C26.3655 50.4247 24.8833 47.7055 22.9039 45.2312L22.5134 45.5435Z" fill="#173E4F"/>
<path fill-rule="evenodd" clip-rule="evenodd" d="M30.981 30.5638C31.9799 32.9183 33.1339 35.6386 33.7708 36.9124L34.218 36.6888C33.5871 35.427 32.4497 32.7455 31.456 30.4026C30.908 29.1108 30.4037 27.922 30.0521 27.1309L29.5952 27.334C29.9386 28.1065 30.4368 29.2808 30.981 30.5638Z" fill="#173E4F"/>
<path fill-rule="evenodd" clip-rule="evenodd" d="M39.2107 33.03C37.313 34.1319 35.3685 35.4095 34.1616 36.4957L33.8271 36.124C35.0736 35.0022 37.0546 33.7037 38.9596 32.5976C40.8648 31.4914 42.7191 30.5631 43.7201 30.1877L43.8957 30.6558C42.9341 31.0165 41.1083 31.9282 39.2107 33.03Z" fill="#173E4F"/>
<path fill-rule="evenodd" clip-rule="evenodd" d="M37.7153 51.0313C34.7929 51.5184 30.4263 52.9369 27.9916 54.4325L27.7299 54.0065C30.2348 52.4677 34.6675 51.0324 37.6331 50.5381L37.7153 51.0313Z" fill="#173E4F"/>
<path fill-rule="evenodd" clip-rule="evenodd" d="M27.963 69.1065C26.1906 69.901 24.4402 70.8699 23.3654 71.8253L23.0332 71.4516C24.1664 70.4443 25.9734 69.4504 27.7584 68.6502C29.5463 67.8488 31.3418 67.2285 32.4679 66.9783L32.5763 67.4664C31.4944 67.7068 29.7325 68.3133 27.963 69.1065Z" fill="#173E4F"/>
</svg>
