<svg width="60" height="59" viewBox="0 0 60 59" fill="none" xmlns="http://www.w3.org/2000/svg">
<path d="M26.7053 14.3606C10.6003 24.9749 0.943634 51.6782 -1.90735e-05 58.2862H1.60419C11.4968 52.9388 29.3161 40.2721 39.7592 31.5309C54.8104 18.9324 57.5313 6.86811 59.8904 0C55.5391 0.364218 42.8103 3.74624 26.7053 14.3606Z" fill="#43606C"/>
<path fill-rule="evenodd" clip-rule="evenodd" d="M16.2177 48.6963L3.38402 53.7763L3.56771 54.2403L16.4014 49.1603L16.2177 48.6963Z" fill="#173E4F"/>
<path fill-rule="evenodd" clip-rule="evenodd" d="M27.9927 39.8691L9.27692 46.2859L9.43879 46.758L28.1545 40.3412L27.9927 39.8691Z" fill="#173E4F"/>
<path fill-rule="evenodd" clip-rule="evenodd" d="M38.9679 31.3093L16.2416 37.7261L16.3772 38.2064L39.1035 31.7896L38.9679 31.3093Z" fill="#173E4F"/>
<path fill-rule="evenodd" clip-rule="evenodd" d="M49.1272 21.4167L23.7273 28.6357L23.8637 29.1158L49.2637 21.8968L49.1272 21.4167Z" fill="#173E4F"/>
<path fill-rule="evenodd" clip-rule="evenodd" d="M53.9377 13.3964L33.083 19.5459L33.2242 20.0246L54.0789 13.8751L53.9377 13.3964Z" fill="#173E4F"/>
<path fill-rule="evenodd" clip-rule="evenodd" d="M57.9363 5.64661L42.6964 10.994L42.8616 11.4649L58.1016 6.11754L57.9363 5.64661Z" fill="#173E4F"/>
<path fill-rule="evenodd" clip-rule="evenodd" d="M10.4086 33.9764L9.33916 46.8101L8.8418 46.7687L9.91127 33.935L10.4086 33.9764Z" fill="#173E4F"/>
<path fill-rule="evenodd" clip-rule="evenodd" d="M16.8262 24.5978V37.6989H16.3271V24.5978H16.8262Z" fill="#173E4F"/>
<path fill-rule="evenodd" clip-rule="evenodd" d="M24.3121 16.5927L23.51 29.159L23.012 29.1272L23.8141 16.5609L24.3121 16.5927Z" fill="#173E4F"/>
<path fill-rule="evenodd" clip-rule="evenodd" d="M33.4022 10.716L32.6 20.0739L32.1028 20.0313L32.9049 10.6734L33.4022 10.716Z" fill="#173E4F"/>
<path fill-rule="evenodd" clip-rule="evenodd" d="M45.6798 4.9159L43.0061 10.798L42.5518 10.5915L45.2254 4.70938L45.6798 4.9159Z" fill="#173E4F"/>
<path fill-rule="evenodd" clip-rule="evenodd" d="M4.52625 46.2795L3.72415 54.3005L3.22754 54.2509L4.02964 46.2298L4.52625 46.2795Z" fill="#173E4F"/>
<path fill-rule="evenodd" clip-rule="evenodd" d="M24.5129 28.5113C35.7309 16.492 48.0059 6.35535 60 0.491554L59.7808 0.0431824C47.7118 5.94357 35.3889 16.1269 24.148 28.1707C17.0943 35.7283 4.70238 51.4514 0.328434 57.8784L0.741035 58.1592C5.1011 51.7526 17.4772 36.0495 24.5129 28.5113Z" fill="#173E4F"/>
</svg>
