<svg width="60" height="81" viewBox="0 0 60 81" fill="none" xmlns="http://www.w3.org/2000/svg">
<path d="M11.9767 67.2159C9.27804 74.7952 27.4944 76.2672 38.7799 80.4641C49.5748 71.3605 64.2578 65.6116 58.8361 57.6216C54.1747 50.7522 47.06 58.8483 41.6626 64.4911C44.6066 57.6216 59.988 42.5756 54.1747 34.3146C49.5132 27.6905 43.6253 38.7307 37.2465 45.3548C39.4545 37.0133 51.492 22.1144 46.0786 16.1597C40.6651 10.2049 35.0384 18.3677 30.1317 27.4452C31.4199 18.6131 33.9956 7.30135 30.1317 2.91147C24.4616 -3.53058 14.4302 1.43945 16.209 10.7622C10.2594 2.91147 2.04056 2.91147 0.200534 12.7249C-1.27149 20.5757 9.83019 25.7278 16.209 30.4154C9.83019 30.4154 2.29315 24.9918 0.200569 32.1066C-2.2528 40.448 18.5393 44.1019 22.2809 50.7522C16.8835 50.7522 4.12596 43.8828 4.12596 50.7522C4.12596 57.6216 21.6064 58.8483 27.4944 67.2159C21.6064 67.2159 14.4544 60.2576 11.9767 67.2159Z" fill="#43606C"/>
<path fill-rule="evenodd" clip-rule="evenodd" d="M16.423 10.4539C21.9036 23.7056 34.0961 56.1568 39.0078 79.9293L38.5181 80.0304C33.6163 56.3057 21.4387 23.8898 15.9609 10.645L16.423 10.4539Z" fill="#173E4F"/>
<path fill-rule="evenodd" clip-rule="evenodd" d="M41.8954 64.6883C40.1965 66.6299 38.2487 69.795 37.278 72.2219L36.8137 72.0362C37.8057 69.5564 39.7833 66.3428 41.5191 64.359L41.8954 64.6883Z" fill="#173E4F"/>
<path fill-rule="evenodd" clip-rule="evenodd" d="M37.4866 45.5435C35.5406 47.9759 34.0788 50.6541 32.1145 54.3371L31.6733 54.1018C33.6345 50.4247 35.1167 47.7055 37.0961 45.2312L37.4866 45.5435Z" fill="#173E4F"/>
<path fill-rule="evenodd" clip-rule="evenodd" d="M29.019 30.5638C28.0201 32.9183 26.8661 35.6386 26.2292 36.9124L25.782 36.6888C26.4129 35.427 27.5503 32.7455 28.544 30.4026C29.092 29.1108 29.5963 27.922 29.9479 27.1309L30.4048 27.334C30.0614 28.1065 29.5632 29.2808 29.019 30.5638Z" fill="#173E4F"/>
<path fill-rule="evenodd" clip-rule="evenodd" d="M20.7893 33.03C22.687 34.1319 24.6315 35.4095 25.8384 36.4957L26.1729 36.124C24.9264 35.0022 22.9454 33.7037 21.0404 32.5976C19.1352 31.4914 17.2809 30.5631 16.2799 30.1877L16.1043 30.6558C17.0659 31.0165 18.8917 31.9282 20.7893 33.03Z" fill="#173E4F"/>
<path fill-rule="evenodd" clip-rule="evenodd" d="M22.2847 51.0313C25.2071 51.5184 29.5737 52.9369 32.0084 54.4325L32.2701 54.0065C29.7652 52.4677 25.3325 51.0324 22.3669 50.5381L22.2847 51.0313Z" fill="#173E4F"/>
<path fill-rule="evenodd" clip-rule="evenodd" d="M32.037 69.1065C33.8094 69.901 35.5598 70.8699 36.6346 71.8253L36.9668 71.4516C35.8336 70.4443 34.0266 69.4504 32.2416 68.6502C30.4537 67.8488 28.6582 67.2285 27.5321 66.9783L27.4237 67.4664C28.5056 67.7068 30.2675 68.3133 32.037 69.1065Z" fill="#173E4F"/>
</svg>
