<svg width="60" height="59" viewBox="0 0 60 59" fill="none" xmlns="http://www.w3.org/2000/svg">
<path d="M26.7053 14.3606C10.6003 24.9749 0.943634 51.6782 -1.90735e-05 58.2862H1.60419C11.4968 52.9388 29.3161 40.2721 39.7592 31.5309C54.8104 18.9324 57.5313 6.86811 59.8904 0C55.5391 0.364218 42.8103 3.74624 26.7053 14.3606Z" fill="url(#paint0_linear)"/>
<path fill-rule="evenodd" clip-rule="evenodd" d="M23.985 29.0813L49.2637 21.8968L49.1272 21.4167L24.6386 28.3767C27.4233 25.3987 30.2727 22.5371 33.1663 19.8285L33.2242 20.0246L54.0789 13.8751L53.9377 13.3964L33.6482 19.3792C36.6939 16.5509 39.7872 13.8937 42.9045 11.4498L58.1016 6.11754L57.9363 5.64661L44.1546 10.4823C49.4151 6.4634 54.7346 3.06575 60 0.491554L59.7808 0.0431824C54.2138 2.76485 48.5927 6.39779 43.0487 10.7043L45.6798 4.9159L45.2254 4.70938L42.5518 10.5915L42.9569 10.7756C39.4755 13.485 36.0248 16.4596 32.6372 19.6404L33.4021 10.716L32.9049 10.6734L32.1028 20.0313L32.2124 20.0407C29.4763 22.6277 26.7825 25.3481 24.148 28.1707C23.9465 28.3867 23.7405 28.6094 23.5305 28.8383L24.3121 16.5927L23.8141 16.5609L23.012 29.1272L23.2524 29.1425C21.3479 31.233 19.132 33.8076 16.8262 36.5769V24.5978H16.3271V37.1777C14.0288 39.9503 11.6576 42.894 9.42945 45.7266L10.4086 33.9764L9.91127 33.935L8.86916 46.4404C7.04696 48.7667 5.33514 51.0006 3.85598 52.9822L4.52625 46.2795L4.02964 46.2298L3.27644 53.7618C2.09725 55.3549 1.09099 56.7579 0.328434 57.8784L0.741035 58.1592C1.46489 57.0956 2.40969 55.7757 3.51432 54.2795L3.72415 54.3005L3.73686 54.1734L16.4014 49.1603L16.2177 48.6963L4.09679 53.4941C5.59819 51.4783 7.35076 49.1889 9.2212 46.8003L9.33916 46.8101L9.35412 46.6306C9.36362 46.6185 9.37312 46.6064 9.38263 46.5942L9.43879 46.758L28.1545 40.3412L27.9927 39.8691L9.75279 46.1228C11.8698 43.4301 14.1188 40.6337 16.3127 37.9779L16.3773 38.2064L39.1035 31.7896L38.9679 31.3093L16.8262 37.561V37.3576C19.4138 34.2392 21.9037 31.345 23.985 29.0813Z" fill="#173E4F"/>
<defs>
<linearGradient id="paint0_linear" x1="54" y1="7.5" x2="1.9407e-06" y2="61" gradientUnits="userSpaceOnUse">
<stop stop-color="#618493"/>
<stop offset="1" stop-color="#43606C"/>
</linearGradient>
</defs>
</svg>
