<svg width="60" height="81" viewBox="0 0 60 81" fill="none" xmlns="http://www.w3.org/2000/svg">
<path d="M11.9767 67.2159C9.27804 74.7952 27.4944 76.2672 38.7799 80.4641C49.5748 71.3605 64.2578 65.6116 58.8361 57.6216C54.1747 50.7522 47.06 58.8483 41.6626 64.4911C44.6066 57.6216 59.988 42.5756 54.1747 34.3146C49.5132 27.6905 43.6253 38.7307 37.2465 45.3548C39.4545 37.0133 51.492 22.1144 46.0786 16.1597C40.6651 10.2049 35.0384 18.3677 30.1317 27.4452C31.4199 18.6131 33.9956 7.30135 30.1317 2.91147C24.4616 -3.53058 14.4302 1.43945 16.209 10.7622C10.2594 2.91147 2.04056 2.91147 0.200534 12.7249C-1.27149 20.5757 9.83019 25.7278 16.209 30.4154C9.83019 30.4154 2.29315 24.9918 0.200569 32.1066C-2.2528 40.448 18.5393 44.1019 22.2809 50.7522C16.8835 50.7522 4.12596 43.8828 4.12596 50.7522C4.12596 57.6216 21.6064 58.8483 27.4944 67.2159C21.6064 67.2159 14.4544 60.2576 11.9767 67.2159Z" fill="#80886F"/>
</svg>
