<svg width="60" height="59" viewBox="0 0 60 59" fill="none" xmlns="http://www.w3.org/2000/svg">
<path d="M33.2947 14.3606C49.3997 24.9749 59.0564 51.6782 60 58.2862H58.3958C48.5032 52.9388 30.6839 40.2721 20.2408 31.5309C5.18961 18.9324 2.46875 6.86811 0.109619 0C4.4609 0.364218 17.1897 3.74624 33.2947 14.3606Z" fill="url(#paint0_linear)"/>
<path fill-rule="evenodd" clip-rule="evenodd" d="M36.015 29.0813L10.7363 21.8968L10.8728 21.4167L35.3614 28.3767C32.5767 25.3987 29.7273 22.5371 26.8337 19.8285L26.7758 20.0246L5.92114 13.8751L6.0623 13.3964L26.3518 19.3792C23.3061 16.5509 20.2128 13.8937 17.0955 11.4498L1.89844 6.11754L2.06368 5.64661L15.8454 10.4823C10.5849 6.4634 5.2654 3.06575 0 0.491554L0.219204 0.0431824C5.78624 2.76485 11.4073 6.39779 16.9513 10.7043L14.3202 4.9159L14.7746 4.70938L17.4482 10.5915L17.0431 10.7756C20.5245 13.485 23.9752 16.4596 27.3628 19.6404L26.5979 10.716L27.0951 10.6734L27.8972 20.0313L27.7876 20.0407C30.5237 22.6277 33.2175 25.3481 35.852 28.1707C36.0535 28.3867 36.2595 28.6094 36.4695 28.8383L35.6879 16.5927L36.1859 16.5609L36.988 29.1272L36.7476 29.1425C38.6521 31.233 40.868 33.8076 43.1738 36.5769V24.5978H43.6729V37.1777C45.9712 39.9503 48.3424 42.894 50.5705 45.7266L49.5914 33.9764L50.0887 33.935L51.1308 46.4404C52.953 48.7667 54.6649 51.0006 56.144 52.9822L55.4737 46.2795L55.9704 46.2298L56.7236 53.7618C57.9027 55.3549 58.909 56.7579 59.6716 57.8784L59.259 58.1592C58.5351 57.0956 57.5903 55.7757 56.4857 54.2795L56.2759 54.3005L56.2631 54.1734L43.5986 49.1603L43.7823 48.6963L55.9032 53.4941C54.4018 51.4783 52.6492 49.1889 50.7788 46.8003L50.6608 46.8101L50.6459 46.6306C50.6364 46.6185 50.6269 46.6064 50.6174 46.5942L50.5612 46.758L31.8455 40.3412L32.0073 39.8691L50.2472 46.1228C48.1302 43.4301 45.8812 40.6337 43.6873 37.9779L43.6227 38.2064L20.8965 31.7896L21.0321 31.3093L43.1738 37.561V37.3576C40.5862 34.2392 38.0963 31.345 36.015 29.0813Z" fill="#173E4F"/>
<defs>
<linearGradient id="paint0_linear" x1="3" y1="-7.47341e-07" x2="56" y2="58" gradientUnits="userSpaceOnUse">
<stop stop-color="#618493"/>
<stop offset="1" stop-color="#43606C"/>
</linearGradient>
</defs>
</svg>
