<svg width="40" height="109" viewBox="0 0 40 109" fill="none" xmlns="http://www.w3.org/2000/svg">
<path fill-rule="evenodd" clip-rule="evenodd" d="M28.083 23.8444C28.6361 21.7583 29.1736 19.7311 29.6741 17.6249L27.3849 17.0809C26.8958 19.139 26.3659 21.1371 25.8172 23.2055C23.7451 31.0175 21.407 39.8326 20.0041 56.667C18.745 71.7762 19.2259 84.5089 19.6435 95.5644C19.813 100.051 19.9721 104.262 20.0001 108.244L22.353 108.227C22.3241 104.132 22.1624 99.8552 21.9912 95.3274C21.5748 84.3162 21.1023 71.8222 22.3489 56.8624C23.7334 40.249 26.017 31.6362 28.083 23.8444Z" fill="#43606C"/>
<path fill-rule="evenodd" clip-rule="evenodd" d="M10.2017 36.6019C10.2016 36.6017 10.2015 36.6014 9.11762 37.0589C8.03372 37.5163 8.03366 37.5162 8.03361 37.516L8.03389 37.5167L8.03572 37.5211L8.0443 37.5417C8.05218 37.5606 8.06434 37.5901 8.0806 37.63C8.11312 37.7096 8.16201 37.8308 8.2257 37.9926C8.35308 38.316 8.53967 38.8017 8.77294 39.4422C9.23949 40.7231 9.89269 42.6228 10.6324 45.0816C12.112 49.9996 13.9371 57.1518 15.3078 66.0613C15.5737 67.7896 15.8309 69.4478 16.0788 71.0457C18.4087 86.0645 19.9122 95.7558 20.0001 108.244L22.353 108.227C22.2638 95.558 20.7333 85.6949 18.4076 70.7078C18.1584 69.1018 17.9 67.437 17.6334 65.7035C16.2439 56.6718 14.3924 49.4122 12.8856 44.4037C12.1321 41.8993 11.4646 39.9571 10.9838 38.6369C10.7434 37.9768 10.5496 37.4722 10.415 37.1305C10.3477 36.9596 10.2952 36.8294 10.2591 36.741C10.2411 36.6967 10.2271 36.6629 10.2175 36.6396L10.2062 36.6126L10.203 36.605L10.2017 36.6019Z" fill="#43606C"/>
<path fill-rule="evenodd" clip-rule="evenodd" d="M35.4543 50.545L34.4117 50C33.3691 49.455 33.369 49.4551 33.3689 49.4553L33.3635 49.4658L33.3482 49.4952C33.3348 49.521 33.3151 49.559 33.2895 49.6087C33.2382 49.7081 33.163 49.8545 33.0666 50.0441C32.8737 50.4235 32.5956 50.9763 32.253 51.673C31.568 53.0662 30.6243 55.0368 29.5881 57.3499C27.5203 61.9654 25.0646 67.9869 23.5701 73.5166C20.5892 84.546 19.9017 94.2741 20.0001 108.244L22.353 108.227C22.2553 94.3534 22.9401 84.8658 25.8416 74.1305C27.2882 68.7779 29.6854 62.8876 31.7354 58.3119C32.7579 56.0294 33.6893 54.0846 34.3645 52.7112C34.7021 52.0247 34.9755 51.4814 35.164 51.1105C35.2583 50.9251 35.3313 50.7828 35.3806 50.6874C35.4052 50.6396 35.4239 50.6036 35.4363 50.5797L35.4501 50.5531L35.4543 50.545Z" fill="#43606C"/>
<ellipse rx="5.29412" ry="5.58824" transform="matrix(-1 0 0 1 34.7059 50.2942)" fill="#69D8E8"/>
<circle r="2.64706" transform="matrix(-1 0 0 1 34.4118 50.2942)" fill="#2C8E9C"/>
<ellipse rx="7.94118" ry="8.23529" transform="matrix(-1 0 0 1 7.94115 31.7647)" fill="#69D8E8"/>
<circle r="4.11765" transform="matrix(-1 0 0 1 7.647 31.7647)" fill="#2C8E9C"/>
<ellipse rx="10" ry="10.2941" transform="matrix(-1 0 0 1 30 10.2941)" fill="#69D8E8"/>
<circle r="5" transform="matrix(-1 0 0 1 29.7058 10.2941)" fill="#2C8E9C"/>
</svg>
