<svg width="60" height="81" viewBox="0 0 60 81" fill="none" xmlns="http://www.w3.org/2000/svg">
<path d="M48.0233 67.2159C50.722 74.7952 32.5056 76.2672 21.2201 80.4641C10.4252 71.3605 -4.25784 65.6116 1.16392 57.6216C5.82532 50.7522 12.94 58.8483 18.3374 64.4911C15.3934 57.6216 0.0119514 42.5756 5.82532 34.3146C10.4868 27.6905 16.3747 38.7307 22.7535 45.3548C20.5455 37.0133 8.508 22.1144 13.9214 16.1597C19.3349 10.2049 24.9616 18.3677 29.8683 27.4452C28.5801 18.6131 26.0044 7.30135 29.8683 2.91147C35.5384 -3.53058 45.5698 1.43945 43.791 10.7622C49.7406 2.91147 57.9594 2.91147 59.7995 12.7249C61.2715 20.5757 50.1698 25.7278 43.791 30.4154C50.1698 30.4154 57.7069 24.9918 59.7994 32.1066C62.2528 40.448 41.4607 44.1019 37.7191 50.7522C43.1165 50.7522 55.874 43.8828 55.874 50.7522C55.874 57.6216 38.3936 58.8483 32.5056 67.2159C38.3936 67.2159 45.5456 60.2576 48.0233 67.2159Z" fill="#80886F"/>
</svg>
