<svg width="40" height="109" viewBox="0 0 40 109" fill="none" xmlns="http://www.w3.org/2000/svg">
<path fill-rule="evenodd" clip-rule="evenodd" d="M11.917 23.8444C11.3639 21.7583 10.8264 19.7311 10.3259 17.6249L12.6151 17.0809C13.1042 19.139 13.6341 21.1371 14.1828 23.2055C16.2549 31.0175 18.593 39.8326 19.9959 56.667C21.255 71.7762 20.7741 84.5089 20.3565 95.5644C20.187 100.051 20.0279 104.262 19.9999 108.244L17.647 108.227C17.6759 104.132 17.8376 99.8552 18.0088 95.3274C18.4252 84.3162 18.8977 71.8222 17.6511 56.8624C16.2666 40.249 13.983 31.6362 11.917 23.8444Z" fill="#43606C"/>
<path fill-rule="evenodd" clip-rule="evenodd" d="M29.7983 36.6019C29.7984 36.6017 29.7985 36.6014 30.8824 37.0589C31.9663 37.5163 31.9663 37.5162 31.9664 37.516L31.9661 37.5167L31.9643 37.5211L31.9557 37.5417C31.9478 37.5606 31.9357 37.5901 31.9194 37.63C31.8869 37.7096 31.838 37.8308 31.7743 37.9926C31.6469 38.316 31.4603 38.8017 31.2271 39.4422C30.7605 40.7231 30.1073 42.6228 29.3676 45.0816C27.888 49.9996 26.0629 57.1518 24.6922 66.0613C24.4263 67.7896 24.1691 69.4478 23.9212 71.0457C21.5913 86.0645 20.0878 95.7558 19.9999 108.244L17.647 108.227C17.7362 95.558 19.2667 85.6949 21.5924 70.7078C21.8416 69.1018 22.1 67.437 22.3666 65.7035C23.7561 56.6718 25.6076 49.4122 27.1144 44.4037C27.8679 41.8993 28.5354 39.9571 29.0162 38.6369C29.2566 37.9768 29.4504 37.4722 29.585 37.1305C29.6523 36.9596 29.7048 36.8294 29.7409 36.741C29.7589 36.6967 29.7729 36.6629 29.7825 36.6396L29.7938 36.6126L29.797 36.605L29.7983 36.6019Z" fill="#43606C"/>
<path fill-rule="evenodd" clip-rule="evenodd" d="M4.54565 50.545L5.58828 50C6.6309 49.455 6.63097 49.4551 6.63107 49.4553L6.63653 49.4658L6.65184 49.4952C6.66522 49.521 6.68489 49.559 6.71053 49.6087C6.76181 49.7081 6.83696 49.8545 6.93341 50.0441C7.12629 50.4235 7.40439 50.9763 7.74698 51.673C8.432 53.0662 9.37568 55.0368 10.4119 57.3499C12.4797 61.9654 14.9354 67.9869 16.4299 73.5166C19.4108 84.546 20.0983 94.2741 19.9999 108.244L17.647 108.227C17.7447 94.3534 17.0599 84.8658 14.1584 74.1305C12.7118 68.7779 10.3146 62.8876 8.26463 58.3119C7.24206 56.0294 6.31074 54.0846 5.63547 52.7112C5.29791 52.0247 5.02454 51.4814 4.83599 51.1105C4.74172 50.9251 4.66867 50.7828 4.61942 50.6874C4.59479 50.6396 4.57612 50.6036 4.56372 50.5797L4.54986 50.5531L4.54565 50.545Z" fill="#43606C"/>
<ellipse cx="5.29412" cy="50.2942" rx="5.29412" ry="5.58824" fill="#FFD12D"/>
<circle cx="5.58822" cy="50.2942" r="2.64706" fill="#EF961E"/>
<ellipse cx="32.0589" cy="31.7647" rx="7.94118" ry="8.23529" fill="#FFD12D"/>
<circle cx="32.353" cy="31.7647" r="4.11765" fill="#E67315"/>
<ellipse cx="10" cy="10.2941" rx="10" ry="10.2941" fill="#FFD12D"/>
<circle cx="10.2942" cy="10.2941" r="5" fill="#E67315"/>
</svg>
