<svg width="81" height="49" viewBox="0 0 81 49" fill="none" xmlns="http://www.w3.org/2000/svg">
<path d="M17.5 48.5H0C10 40.5 13 31.5 13 19H21.5C17.5 30 20 38 17.5 48.5Z" fill="url(#paint0_linear)"/>
<path d="M35 19C31.6667 12.6667 28 0 18 0C8 0 3.83333 12.6667 1 19H35Z" fill="#67A4AE"/>
<path d="M40 36H26C26.8333 34 29.4 30 33 30C36.6 30 39.1667 34 40 36Z" fill="#67A4AE"/>
<path d="M36.5 48H28.5L31 36H34.5L36.5 48Z" fill="url(#paint1_linear)"/>
<path d="M59.5 49H44.5C44.5 49 45.6923 44 48 36.5C50.3077 29 50.5 21.5 50.5 21.5H56C56 21.5 53 31.5 55.5 37.5C58 43.5 59.5 49 59.5 49Z" fill="url(#paint2_linear)"/>
<path d="M78 48.5791H68C65.6 44.1791 69 35.4124 71 31.5791H75C75.1667 32.4124 75.7 35.1791 76.5 39.5791C77.3 43.9791 77.8334 47.4124 78 48.5791Z" fill="url(#paint3_linear)"/>
<path d="M80.5 31.5791H66C67.1667 28.7458 70.4 23.2791 74 24.0791C77.6 24.8791 79.8333 29.4124 80.5 31.5791Z" fill="#67A4AE"/>
<path d="M65 21.5H41.5C43.8333 18.1667 46 12 53 12C60 12 63.5 18.5 65 21.5Z" fill="#67A4AE"/>
<defs>
<linearGradient id="paint0_linear" x1="10.75" y1="19" x2="10.75" y2="48.5" gradientUnits="userSpaceOnUse">
<stop stop-color="#8AD6E2"/>
<stop offset="1" stop-color="#67A4AE"/>
</linearGradient>
<linearGradient id="paint1_linear" x1="32.5" y1="36" x2="32.5" y2="48" gradientUnits="userSpaceOnUse">
<stop stop-color="#80C6D1"/>
<stop offset="1" stop-color="#67A4AE"/>
</linearGradient>
<linearGradient id="paint2_linear" x1="52" y1="21.5" x2="52" y2="49" gradientUnits="userSpaceOnUse">
<stop stop-color="#80C6D1"/>
<stop offset="1" stop-color="#67A4AE"/>
</linearGradient>
<linearGradient id="paint3_linear" x1="72.5873" y1="31.5791" x2="72.5873" y2="48.5791" gradientUnits="userSpaceOnUse">
<stop stop-color="#67A4AE"/>
<stop offset="0.0001" stop-color="#80C6D1"/>
<stop offset="1" stop-color="#67A4AE"/>
</linearGradient>
</defs>
</svg>
