<svg width="30" height="27" viewBox="0 0 30 27" fill="none" xmlns="http://www.w3.org/2000/svg">
<path d="M23 14.5H30C30 12.1667 29.3 7.59999 26.5 7.99999C23.7 8.39999 23 12.5 23 14.5Z" fill="#67A4AE"/>
<path d="M12 13.5247H19C19 11.1913 18.3 6.62465 15.5 7.02465C12.7 7.42465 12 11.5247 12 13.5247Z" fill="#67A4AE"/>
<path d="M4 10.5247H11C11 8.19132 10.3 3.62465 7.5 4.02465C4.7 4.42465 4 8.52465 4 10.5247Z" fill="#67A4AE"/>
<path d="M0 16H5C5 14.2119 4.5 10.7124 2.5 11.0189C0.5 11.3254 0 14.4674 0 16Z" fill="#67A4AE"/>
<path d="M18 6.52465H25C25 4.19132 24.3 -0.375347 21.5 0.0246531C18.7 0.424653 18 4.52465 18 6.52465Z" fill="#67A4AE"/>
<path fill-rule="evenodd" clip-rule="evenodd" d="M26.2086 16.9805C26.766 15.9949 27.1434 14.9688 26.9948 13.9293L26.0049 14.0707C26.1064 14.7812 25.8588 15.5676 25.3381 16.4882C24.8894 17.2815 24.2768 18.1105 23.6082 19.0152C23.5016 19.1594 23.3936 19.3056 23.2846 19.4538C21.7333 21.5636 19.9999 24.0639 19.9999 27H20.9999C20.9999 24.4361 22.5165 22.1864 24.0902 20.0462C24.1959 19.9025 24.302 19.759 24.4078 19.616C25.0727 18.7167 25.7272 17.8316 26.2086 16.9805Z" fill="#67A4AE"/>
<path fill-rule="evenodd" clip-rule="evenodd" d="M20.4155 18.2089C21.362 15.1173 22.2534 11.5552 21.9993 6.47503L21.0006 6.52497C21.2466 11.4448 20.388 14.8827 19.4593 17.9161C19.327 18.3482 19.1926 18.774 19.0592 19.1963C18.2593 21.7289 17.4998 24.1335 17.4997 27L18.4997 27C18.4998 24.2991 19.2077 22.0532 20.0071 19.5175C20.1416 19.0907 20.2787 18.6557 20.4155 18.2089Z" fill="#67A4AE"/>
<path fill-rule="evenodd" clip-rule="evenodd" d="M16 27V13.5H15V27H16Z" fill="#67A4AE"/>
<path fill-rule="evenodd" clip-rule="evenodd" d="M8.89887 15.5569C8.36465 14.2807 8.0002 12.691 8.00024 10.5L7.00024 10.5C7.00019 12.809 7.38568 14.5318 7.97643 15.9431C8.56489 17.3489 9.34855 18.4229 10.1001 19.425C10.1421 19.481 10.184 19.5367 10.2257 19.5923C10.9367 20.5388 11.6023 21.4249 12.1087 22.522C12.6392 23.6713 13.0002 25.0681 13.0002 27L14.0002 27C14.0002 24.9319 13.6112 23.3912 13.0167 22.103C12.4642 20.906 11.7388 19.9409 11.0385 19.0092C10.9923 18.9477 10.9461 18.8863 10.9001 18.825C10.1517 17.8271 9.43537 16.8386 8.89887 15.5569Z" fill="#67A4AE"/>
<path fill-rule="evenodd" clip-rule="evenodd" d="M4.50793 18.813C3.77607 17.8964 3.39251 16.9951 3.49694 16.0552L2.50306 15.9448C2.35749 17.2549 2.91143 18.4161 3.72645 19.437C4.53885 20.4545 5.65818 21.3919 6.75015 22.2654C6.93779 22.4155 7.1244 22.5636 7.30888 22.71C8.21701 23.4306 9.07353 24.1103 9.74637 24.7894C10.567 25.6177 11 26.3364 11 27H12C12 25.9136 11.308 24.9448 10.4568 24.0856C9.7377 23.3598 8.8233 22.6346 7.91533 21.9145C7.73438 21.771 7.55369 21.6276 7.37485 21.4846C6.27932 20.6081 5.2424 19.733 4.50793 18.813Z" fill="#67A4AE"/>
</svg>
