<svg width="80" height="13" viewBox="0 0 80 13" fill="none" xmlns="http://www.w3.org/2000/svg">
<path d="M4.86487 12.1621H71.3514C71.3514 12.1621 72.4326 9.18916 74.5947 7.02699C77.2974 4.32429 78.6488 2.16216 80 0.540541C75.4056 2.16216 71.2614 5.31529 70.5407 7.02699C70.7209 4.77473 70.0001 3.78378 69.1893 0C66.7569 3.51351 64.6847 4.32429 64.3244 7.02699C64.2343 4.32429 63.2435 2.70273 61.892 0C60.0002 2.43246 57.7478 4.32429 57.027 7.02699C57.027 4.32429 55.6759 4.05408 53.7839 0C51.6219 3.24327 49.6398 4.32429 49.4596 7.02699C49.3695 4.32429 47.0273 5.40544 45.9461 0.540541C43.784 4.05408 40.8109 5.13513 40.0001 7.83783C40.8109 4.5946 40.0001 5.13514 36.7569 1.35135C34.0542 3.51352 32.7028 5.76573 31.3515 7.02699C32.5227 4.77474 30.8109 4.32429 28.6488 0.540541C24.5947 4.32429 25.6758 5.58558 23.5136 7.83783C25.2254 5.13513 22.1624 5.13517 20.8109 1.35135C15.6759 6.75675 16.7568 5.49546 16.4865 7.02699C16.6667 4.86483 14.5947 2.7027 11.6216 0.540538C10.8109 4.32429 10.4506 5.49549 10.5407 7.83783C8.37863 5.67566 9.45959 5.40541 7.29743 3.24324C5.13527 1.08108 1.71172 3.42339 0 4.32429C0.900902 4.50447 3.13514 5.29726 4.86487 7.02699C6.5946 8.75672 5.58559 11.1711 4.86487 12.1621Z" fill="#67A4AE"/>
</svg>
