<svg width="80" height="13" viewBox="0 0 80 13" fill="none" xmlns="http://www.w3.org/2000/svg">
<path d="M75.1351 12.1621H8.64862C8.64862 12.1621 7.56744 9.18916 5.40527 7.02699C2.70257 4.32429 1.35122 2.16216 0 0.540541C4.59444 2.16216 8.73861 5.31529 9.45933 7.02699C9.27915 4.77473 9.99987 3.78378 10.8107 0C13.2431 3.51351 15.3153 4.32429 15.6756 7.02699C15.7657 4.32429 16.7565 2.70273 18.108 0C19.9998 2.43246 22.2522 4.32429 22.973 7.02699C22.973 4.32429 24.3241 4.05408 26.2161 0C28.3781 3.24327 30.3602 4.32429 30.5404 7.02699C30.6305 4.32429 32.9727 5.40544 34.0539 0.540541C36.216 4.05408 39.1891 5.13513 39.9999 7.83783C39.1891 4.5946 39.9999 5.13514 43.2431 1.35135C45.9458 3.51352 47.2972 5.76573 48.6485 7.02699C47.4773 4.77474 49.1891 4.32429 51.3512 0.540541C55.4053 4.32429 54.3242 5.58558 56.4864 7.83783C54.7746 5.13513 57.8376 5.13517 59.1891 1.35135C64.3241 6.75675 63.2432 5.49546 63.5135 7.02699C63.3333 4.86483 65.4053 2.7027 68.3784 0.540538C69.1891 4.32429 69.5494 5.49549 69.4593 7.83783C71.6214 5.67566 70.5404 5.40541 72.7026 3.24324C74.8647 1.08108 78.2883 3.42339 80 4.32429C79.0991 4.50447 76.8649 5.29726 75.1351 7.02699C73.4054 8.75672 74.4144 11.1711 75.1351 12.1621Z" fill="#947627"/>
</svg>
