<svg width="81" height="49" viewBox="0 0 81 49" fill="none" xmlns="http://www.w3.org/2000/svg">
<path d="M63 48.5H80.5C70.5 40.5 67.5 31.5 67.5 19H59C63 30 60.5 38 63 48.5Z" fill="url(#paint0_linear)"/>
<path d="M45.5 19C48.8333 12.6667 52.5 0 62.5 0C72.5 0 76.6667 12.6667 79.5 19H45.5Z" fill="#67A4AE"/>
<path d="M40.5 36H54.5C53.6667 34 51.1 30 47.5 30C43.9 30 41.3333 34 40.5 36Z" fill="#67A4AE"/>
<path d="M44 48H52L49.5 36H46L44 48Z" fill="url(#paint1_linear)"/>
<path d="M21 49H36C36 49 34.8077 44 32.5 36.5C30.1923 29 30 21.5 30 21.5H24.5C24.5 21.5 27.5 31.5 25 37.5C22.5 43.5 21 49 21 49Z" fill="url(#paint2_linear)"/>
<path d="M2.49997 48.5791H12.5C14.9 44.1791 11.5 35.4124 9.49997 31.5791H5.49997C5.33331 32.4124 4.79997 35.1791 3.99997 39.5791C3.19997 43.9791 2.66664 47.4124 2.49997 48.5791Z" fill="url(#paint3_linear)"/>
<path d="M0 31.5791H14.5C13.3333 28.7458 10.1 23.2791 6.5 24.0791C2.9 24.8791 0.666667 29.4124 0 31.5791Z" fill="#67A4AE"/>
<path d="M15.5 21.5H39C36.6667 18.1667 34.5 12 27.5 12C20.5 12 17 18.5 15.5 21.5Z" fill="#67A4AE"/>
<defs>
<linearGradient id="paint0_linear" x1="69.75" y1="19" x2="69.75" y2="48.5" gradientUnits="userSpaceOnUse">
<stop stop-color="#8AD6E2"/>
<stop offset="1" stop-color="#67A4AE"/>
</linearGradient>
<linearGradient id="paint1_linear" x1="48" y1="36" x2="48" y2="48" gradientUnits="userSpaceOnUse">
<stop stop-color="#80C6D1"/>
<stop offset="1" stop-color="#67A4AE"/>
</linearGradient>
<linearGradient id="paint2_linear" x1="28.5" y1="21.5" x2="28.5" y2="49" gradientUnits="userSpaceOnUse">
<stop stop-color="#80C6D1"/>
<stop offset="1" stop-color="#67A4AE"/>
</linearGradient>
<linearGradient id="paint3_linear" x1="7.91271" y1="31.5791" x2="7.91271" y2="48.5791" gradientUnits="userSpaceOnUse">
<stop stop-color="#67A4AE"/>
<stop offset="0.0001" stop-color="#80C6D1"/>
<stop offset="1" stop-color="#67A4AE"/>
</linearGradient>
</defs>
</svg>
