<svg width="60" height="41" viewBox="0 0 60 41" fill="none" xmlns="http://www.w3.org/2000/svg">
<path d="M55.2078 40.2557H9.2013C4.98403 40.2557 8.35898e-05 38.5688 0 34.8882C-9.35995e-05 30.7668 3.83387 30.671 6.90097 30.2876C4.40895 28.3707 1.71383e-09 28.0639 0 23.77C0 19.4761 6.1342 19.9361 9.2013 20.7029C6.64537 19.9361 1.76354 17.3291 2.68367 13.0352C3.6038 8.74123 7.41215 11.246 9.2013 13.0352C7.66775 10.9904 5.52078 6.21087 9.2013 3.45049C12.8818 0.690101 15.8467 6.1342 16.869 9.20129C16.1023 6.13419 15.7189 0 20.3195 0C24.9202 0 26.0703 4.60065 26.0703 6.90097C26.3259 4.60065 27.6421 0 31.6293 0C35.6166 0 37.3802 3.45049 36.8051 7.28436C38.722 3.45049 41.7891 0.575081 45.0479 2.30032C48.3067 4.02557 50.0319 7.85944 46.7731 11.6933C50.607 9.20129 53.4825 10.3515 54.4409 13.0352C55.3993 15.7189 54.4409 18.786 51.7573 20.7029C55.2078 19.5527 58.7596 22.1178 59.4249 25.1119C60.1917 28.5623 56.5495 31.0544 55.2078 32.5879C57.508 32.5879 60 33.9298 60 36.0384C60 38.147 57.8914 40.2557 55.2078 40.2557Z" fill="#4D563B"/>
<circle cx="38.1471" cy="15.9106" r="1.72524" fill="#FFD12D"/>
<circle cx="17.0607" cy="31.2461" r="1.72524" fill="#FFD12D"/>
<circle cx="18.5944" cy="17.8275" r="1.72524" fill="#FFD12D"/>
<circle cx="29.7125" cy="25.4952" r="1.72524" fill="#FFD12D"/>
<circle cx="44.6647" cy="31.2461" r="1.72524" fill="#FFD12D"/>
</svg>
