<svg width="30" height="27" viewBox="0 0 30 27" fill="none" xmlns="http://www.w3.org/2000/svg">
<path d="M7 14.5H0C0 12.1667 0.7 7.59999 3.5 7.99999C6.3 8.39999 7 12.5 7 14.5Z" fill="#967727"/>
<path d="M18 13.5247H11C11 11.1913 11.7 6.62465 14.5 7.02465C17.3 7.42465 18 11.5247 18 13.5247Z" fill="#967727"/>
<path d="M26 10.5247H19C19 8.19132 19.7 3.62465 22.5 4.02465C25.3 4.42465 26 8.52465 26 10.5247Z" fill="#967727"/>
<path d="M30 16H25C25 14.2119 25.5 10.7124 27.5 11.0189C29.5 11.3254 30 14.4674 30 16Z" fill="#967727"/>
<path d="M12 6.52465H5C5 4.19132 5.7 -0.375347 8.5 0.0246531C11.3 0.424653 12 4.52465 12 6.52465Z" fill="#967727"/>
<path fill-rule="evenodd" clip-rule="evenodd" d="M3.79145 16.9805C3.23401 15.9949 2.85664 14.9688 3.00517 13.9293L3.99511 14.0707C3.8936 14.7812 4.1412 15.5676 4.66188 16.4882C5.11056 17.2815 5.72322 18.1105 6.39181 19.0152C6.49841 19.1594 6.60643 19.3056 6.71543 19.4538C8.26674 21.5636 10.0001 24.0639 10.0001 27H9.00014C9.00014 24.4361 7.48349 22.1864 5.90978 20.0462C5.80411 19.9025 5.69804 19.759 5.59224 19.616C4.92728 18.7167 4.27277 17.8316 3.79145 16.9805Z" fill="url(#paint0_linear)"/>
<path fill-rule="evenodd" clip-rule="evenodd" d="M9.58448 18.2089C8.63804 15.1173 7.74663 11.5552 8.00066 6.47503L8.99941 6.52497C8.7534 11.4448 9.61203 14.8827 10.5407 17.9161C10.673 18.3482 10.8074 18.774 10.9408 19.1963C11.7407 21.7289 12.5002 24.1335 12.5003 27L11.5003 27C11.5002 24.2991 10.7923 22.0532 9.99294 19.5175C9.8584 19.0907 9.72127 18.6557 9.58448 18.2089Z" fill="url(#paint1_linear)"/>
<path fill-rule="evenodd" clip-rule="evenodd" d="M14 27V13.5H15V27H14Z" fill="url(#paint2_linear)"/>
<path fill-rule="evenodd" clip-rule="evenodd" d="M21.1011 15.5569C21.6354 14.2807 21.9998 12.691 21.9998 10.5L22.9998 10.5C22.9998 12.809 22.6143 14.5318 22.0236 15.9431C21.4351 17.3489 20.6515 18.4229 19.8999 19.425C19.8579 19.481 19.816 19.5367 19.7743 19.5923C19.0633 20.5388 18.3977 21.4249 17.8913 22.522C17.3608 23.6713 16.9998 25.0681 16.9998 27L15.9998 27C15.9998 24.9319 16.3888 23.3912 16.9833 22.103C17.5358 20.906 18.2612 19.9409 18.9615 19.0092C19.0077 18.9477 19.0539 18.8863 19.0999 18.825C19.8483 17.8271 20.5646 16.8386 21.1011 15.5569Z" fill="url(#paint3_linear)"/>
<path fill-rule="evenodd" clip-rule="evenodd" d="M25.4921 18.813C26.2239 17.8964 26.6075 16.9951 26.5031 16.0552L27.4969 15.9448C27.6425 17.2549 27.0886 18.4161 26.2736 19.437C25.4611 20.4545 24.3418 21.3919 23.2498 22.2654C23.0622 22.4155 22.8756 22.5636 22.6911 22.71C21.783 23.4306 20.9265 24.1103 20.2536 24.7894C19.433 25.6177 19 26.3364 19 27H18C18 25.9136 18.692 24.9448 19.5432 24.0856C20.2623 23.3598 21.1767 22.6346 22.0847 21.9145C22.2656 21.771 22.4463 21.6276 22.6252 21.4846C23.7207 20.6081 24.7576 19.733 25.4921 18.813Z" fill="url(#paint4_linear)"/>
<defs>
<linearGradient id="paint0_linear" x1="6.4864" y1="13.9293" x2="6.4864" y2="27" gradientUnits="userSpaceOnUse">
<stop stop-color="#967727"/>
<stop offset="1" stop-color="#677D3A"/>
</linearGradient>
<linearGradient id="paint1_linear" x1="10.2285" y1="6.47503" x2="10.2285" y2="27" gradientUnits="userSpaceOnUse">
<stop stop-color="#957828"/>
<stop offset="1" stop-color="#687E3B"/>
</linearGradient>
<linearGradient id="paint2_linear" x1="14.5" y1="13.5" x2="14.5" y2="27" gradientUnits="userSpaceOnUse">
<stop stop-color="#967727"/>
<stop offset="1" stop-color="#6A7E3B"/>
</linearGradient>
<linearGradient id="paint3_linear" x1="19.4998" y1="10.5" x2="19.4998" y2="27" gradientUnits="userSpaceOnUse">
<stop stop-color="#967727"/>
<stop offset="1" stop-color="#6C7E3B"/>
</linearGradient>
<linearGradient id="paint4_linear" x1="22.7601" y1="15.9448" x2="22.7601" y2="27" gradientUnits="userSpaceOnUse">
<stop stop-color="#967727"/>
<stop offset="1" stop-color="#6D7F3B"/>
</linearGradient>
</defs>
</svg>
