<svg width="280" height="400" viewBox="0 0 280 400" fill="none" xmlns="http://www.w3.org/2000/svg">
<rect width="279.501" height="399.888" fill="url(#paint0_radial)"/>
<path d="M279.501 0V43.9877C268.021 63.9821 251.551 82.4769 203.636 82.4769C126.487 82.4769 114.629 23.4934 110.802 0H279.501Z" fill="#47559F"/>
<path d="M168.699 0V43.9877C157.219 63.9821 140.749 82.4769 92.8342 82.4769C15.6852 82.4769 3.8265 23.4934 0 0H168.699Z" fill="#47559F"/>
<path d="M179.18 399.888H148.734L161.711 0H196.649L179.18 399.888Z" fill="#776CF2"/>
<path d="M279.501 180.949L50.9092 0H60.8914L279.501 168.953V180.949Z" fill="#9CE7FF" fill-opacity="0.14"/>
<path d="M62.3887 399.888H30.9448L62.3887 0H95.3298L62.3887 399.888Z" fill="#776CF2"/>
<path d="M279.819 291.418L0 68.9806V58.9834L279.819 280.921V291.418Z" fill="#9CE7FF" fill-opacity="0.14"/>
<path d="M137.255 399.888H119.786L138.253 0H154.724L137.255 399.888Z" fill="#3B40B0"/>
<path d="M151.23 398.888L0 214.44V195.445L197.647 398.888H151.23Z" fill="#9CE7FF" fill-opacity="0.14"/>
<path d="M123.28 0.5H85.3475L77.8608 399.388H123.28V0.5Z" fill="#5D418A"/>
<path d="M216.613 0.5H180.677L205.633 399.388H250.053L216.613 0.5Z" fill="#5D418A"/>
<path d="M280 399.888L194.153 399.388C204.302 387.725 225.996 358.3 231.587 333.907C237.177 309.513 236.245 243.432 235.08 213.44L176.185 157.956L159.715 122.966L163.209 114.468L184.171 139.461L235.08 169.453L224.599 0H279.002L280 399.888Z" fill="url(#paint1_linear)"/>
<path d="M182.48 279.359C184.616 278.137 186.446 279.359 187.666 281.802C186.446 281.558 183.395 283.33 181.26 285.468C180.345 282.719 179.654 280.976 182.48 279.359Z" fill="#9A6721"/>
<path fill-rule="evenodd" clip-rule="evenodd" d="M273.986 400H154.724C155.036 398.069 155.316 396.11 155.6 394.115C157.126 383.404 158.799 371.664 166.571 357.839C164.373 356.751 162.578 354.507 161.434 350.841C159.909 345.953 164.121 341.093 168.45 336.789C172.612 332.649 176.385 328.021 181.823 319.522C180.547 310.821 176.19 304.256 174.245 301.658C167.611 292.8 188.886 274.165 197.426 283.33C198.171 284.129 199.38 285.631 200.989 287.629C207.425 295.622 220.248 311.549 235.249 322.125C273.376 349.008 273.986 378.006 273.986 400Z" fill="url(#paint2_linear)"/>
<path fill-rule="evenodd" clip-rule="evenodd" d="M214.543 326.874C211.281 326.075 207.545 325.791 204.1 326.9C199.774 328.292 196.549 333.073 196.012 337.994C195.742 340.458 196.146 342.967 197.429 345.113C198.713 347.26 200.874 349.035 204.101 350.038C206.7 350.846 212.957 352.374 219.44 353.738C225.92 355.102 232.64 356.305 236.159 356.459C243.054 356.759 248.361 354.08 251.02 349.883C253.68 345.683 253.671 339.991 249.99 334.308L249.79 334.438C253.429 340.057 253.42 345.647 250.818 349.755C248.215 353.864 242.999 356.517 236.169 356.22C232.673 356.068 225.972 354.869 219.489 353.505C213.007 352.141 206.759 350.614 204.172 349.81C200.995 348.822 198.885 347.082 197.634 344.99C196.382 342.896 195.984 340.442 196.249 338.02C196.779 333.167 199.959 328.484 204.173 327.127C207.561 326.037 211.248 326.313 214.487 327.106C217.725 327.9 220.505 329.209 222.071 330.17L222.195 329.966C220.609 328.993 217.807 327.674 214.543 326.874Z" fill="black"/>
<path d="M200.477 279.664C200.477 284.73 199.562 282.414 198.646 287.301C197.121 283.941 192.241 282.108 191.021 283.025C189.191 281.192 188.886 278.931 190.106 275.999C191.631 272.333 200.477 274.598 200.477 279.664Z" fill="#9A6721"/>
<path d="M180.955 290.356H175.77L173.635 293.716L175.77 295.549L180.955 290.356Z" fill="black"/>
<path fill-rule="evenodd" clip-rule="evenodd" d="M176.348 297.387C176.52 297.848 176.704 298.298 176.883 298.657C177.246 299.383 177.909 299.821 178.721 300.032C179.532 300.243 180.498 300.232 181.491 300.058C183.473 299.711 185.594 298.709 186.835 297.466L186.666 297.297C185.467 298.498 183.394 299.482 181.449 299.823C180.478 299.993 179.548 300 178.781 299.801C178.016 299.602 177.42 299.199 177.097 298.55C176.614 297.584 176.088 295.923 175.885 295.211L175.654 295.271C175.672 295.347 175.691 295.429 175.712 295.518C175.934 296.443 176.307 298.004 176.261 299.287C176.236 299.991 176.085 300.584 175.741 300.946C175.406 301.298 174.86 301.46 173.969 301.237L173.911 301.469C174.85 301.704 175.498 301.548 175.914 301.111C176.319 300.684 176.473 300.016 176.499 299.295C176.521 298.687 176.451 298.019 176.348 297.387Z" fill="black"/>
<path d="M180.65 290.356L184.006 283.357C184.006 283.357 181.87 284.25 179.735 286.412C177.6 288.575 176.075 290.356 176.075 290.356H180.65Z" fill="#C68731"/>
<path d="M184.921 284.552C184.921 285.058 185.33 285.469 185.836 285.469C186.341 285.469 186.751 285.058 186.751 284.552C186.751 284.046 186.341 283.635 185.836 283.635C185.33 283.635 184.921 284.046 184.921 284.552Z" fill="black"/>
<path fill-rule="evenodd" clip-rule="evenodd" d="M165.478 340.239C171.012 335.412 177.395 326.801 181.974 318.853L181.767 318.733C177.195 326.67 170.828 335.256 165.321 340.059C160.547 344.223 160.391 349.707 162.511 353.722C164.626 357.728 169.029 360.298 173.374 358.589C181.933 355.221 188.351 350.323 193.848 345.123C195.347 343.706 195.968 341.409 195.798 339.021C195.627 336.63 194.663 334.126 192.961 332.277C191.257 330.426 188.815 329.233 185.702 329.47C182.593 329.708 178.829 331.371 174.471 335.199L174.629 335.379C178.964 331.57 182.681 329.941 185.72 329.709C188.755 329.477 191.127 330.637 192.786 332.439C194.447 334.244 195.393 336.695 195.56 339.038C195.727 341.383 195.113 343.598 193.684 344.95C188.201 350.136 181.808 355.014 173.286 358.366C169.091 360.017 164.801 357.547 162.722 353.61C160.648 349.683 160.796 344.323 165.478 340.239Z" fill="black"/>
<path fill-rule="evenodd" clip-rule="evenodd" d="M258.536 399.662C255.785 394.355 247.538 382.405 236.538 374.571L236.4 374.765C247.242 382.487 255.406 394.231 258.233 399.598H196.02V387.804C196.02 386.242 196.819 384.648 198.285 383.251C199.751 381.854 201.878 380.659 204.513 379.9C209.782 378.381 217.073 378.606 225.132 382.413L225.234 382.197C217.127 378.368 209.777 378.134 204.447 379.67C201.782 380.438 199.62 381.649 198.121 383.078C196.623 384.506 195.782 386.158 195.782 387.804V399.837H258.626L258.536 399.662Z" fill="black"/>
<path fill-rule="evenodd" clip-rule="evenodd" d="M195.546 356.032C196.457 353.601 198.565 351.348 202.36 349.448L202.254 349.234C198.423 351.152 196.261 353.443 195.323 355.948C194.385 358.452 194.678 361.147 195.714 363.856C197.783 369.267 202.834 374.782 207.103 379.057L207.271 378.888C203 374.61 197.985 369.127 195.937 363.77C194.914 361.095 194.635 358.463 195.546 356.032Z" fill="black"/>
<path fill-rule="evenodd" clip-rule="evenodd" d="M193.959 350.049C192.766 349.013 191.367 348.305 190.106 348.305L190.106 348.544C191.285 348.544 192.631 349.211 193.802 350.23C194.972 351.246 195.949 352.597 196.398 353.934L196.624 353.857C196.159 352.473 195.153 351.088 193.959 350.049Z" fill="black"/>
<path fill-rule="evenodd" clip-rule="evenodd" d="M190.382 376.873C195.126 376.49 199.989 377.394 205.929 379.363L206.004 379.137C200.049 377.162 195.152 376.248 190.363 376.635C185.574 377.022 180.905 378.711 175.405 381.924C170.948 384.527 169.556 385.934 168.557 386.943C168.491 387.009 168.428 387.073 168.365 387.136L168.534 387.305C168.597 387.242 168.661 387.177 168.726 387.111C169.715 386.112 171.094 384.719 175.525 382.13C181.006 378.928 185.64 377.257 190.382 376.873Z" fill="black"/>
<path fill-rule="evenodd" clip-rule="evenodd" d="M200.071 370.965L196.106 377.074L196.306 377.205L200.271 371.095L200.071 370.965Z" fill="black"/>
<path d="M193.156 280.887C194.317 281.263 196.105 282.72 196.816 283.636C196.816 281.803 198.646 279.693 195.291 277.554C191.564 275.179 190.411 279.998 193.156 280.887Z" fill="#FBAB7E"/>
<path fill-rule="evenodd" clip-rule="evenodd" d="M197.13 275.094C199.168 276.228 200.801 278.254 200.653 280.48C200.525 282.41 199.645 284.719 199.143 285.624L199.351 285.74C199.866 284.811 200.76 282.468 200.891 280.496C201.048 278.14 199.326 276.042 197.246 274.885C196.203 274.305 195.06 273.955 193.998 273.925C192.936 273.896 191.948 274.189 191.232 274.905C188.995 277.146 189.168 280.163 189.691 281.42L189.911 281.328C189.417 280.141 189.246 277.233 191.401 275.074C192.058 274.416 192.976 274.136 193.992 274.164C195.008 274.192 196.114 274.529 197.13 275.094Z" fill="#111111"/>
<path fill-rule="evenodd" clip-rule="evenodd" d="M184.958 279.314C185.838 279.592 186.671 280.261 187.254 281.428L187.468 281.321C186.859 280.102 185.977 279.386 185.029 279.086C184.083 278.787 183.081 278.907 182.235 279.344C181.388 279.78 180.695 280.534 180.368 281.508C180.041 282.483 180.085 283.668 180.696 284.962L180.912 284.86C180.324 283.615 180.289 282.494 180.594 281.584C180.9 280.673 181.549 279.966 182.344 279.556C183.138 279.146 184.076 279.036 184.958 279.314Z" fill="black"/>
<path d="M92.3351 0.5H0V399.888H126.275C119.453 388.391 73.6631 351.757 69.3761 333.407C32.9412 177.45 34.9376 50.486 92.3351 0.5Z" fill="url(#paint3_linear)"/>
<path d="M212.223 399.888L0 127.964V94.9734L279.819 343.404V399.888H212.223Z" fill="#9CE7FF" fill-opacity="0.14"/>
<path d="M279.501 247.431L0 30.9914V9.99731L279.501 221.938V247.431Z" fill="#9CE7FF" fill-opacity="0.14"/>
<path d="M279.501 125.965L113.298 0.5H127.273L279.501 102.971V125.965Z" fill="#9CE7FF" fill-opacity="0.14"/>
<path d="M0 49.4861V0H156.72C156.72 45.9871 69.3761 90.9745 0 49.4861Z" fill="#43606C"/>
<path d="M279.501 31.4912V0H100.82C100.82 31.4912 203.636 77.9782 279.501 31.4912Z" fill="#43606C"/>
<defs>
<radialGradient id="paint0_radial" cx="0" cy="0" r="1" gradientUnits="userSpaceOnUse" gradientTransform="translate(139.75) rotate(90) scale(199.944 139.75)">
<stop stop-color="#256C76"/>
<stop offset="1" stop-color="#1F3367"/>
</radialGradient>
<linearGradient id="paint1_linear" x1="219.857" y1="0" x2="219.857" y2="399.888" gradientUnits="userSpaceOnUse">
<stop stop-color="#603156"/>
<stop offset="1" stop-color="#352F5C"/>
</linearGradient>
<linearGradient id="paint2_linear" x1="214.355" y1="280.859" x2="214.355" y2="400" gradientUnits="userSpaceOnUse">
<stop stop-color="#9A6721"/>
<stop offset="1" stop-color="#6F134F"/>
</linearGradient>
<linearGradient id="paint3_linear" x1="63.1373" y1="0.5" x2="63.1373" y2="399.888" gradientUnits="userSpaceOnUse">
<stop stop-color="#603156"/>
<stop offset="1" stop-color="#352F5C"/>
</linearGradient>
</defs>
</svg>
