<svg width="280" height="400" viewBox="0 0 280 400" fill="none" xmlns="http://www.w3.org/2000/svg">
<rect width="279.681" height="399.888" fill="#FFD7AC"/>
<path d="M279.681 0V43.9877C268.194 63.9821 251.713 82.4769 203.768 82.4769C126.569 82.4769 114.703 23.4934 110.874 0H279.681Z" fill="#B56949"/>
<path d="M168.808 0V43.9877C157.321 63.9821 140.839 82.4769 92.8941 82.4769C15.6953 82.4769 3.82897 23.4934 0 0H168.808Z" fill="#B56949"/>
<path d="M179.296 399.888H148.83L161.816 0H196.776L179.296 399.888Z" fill="#F2946C"/>
<path d="M279.681 180.949L50.9419 0H60.9305L279.681 168.953V180.949Z" fill="#FFEF9C" fill-opacity="0.14"/>
<path d="M62.4287 399.888H30.9646L62.4287 0H95.3912L62.4287 399.888Z" fill="#F2946C"/>
<path d="M280 291.418L0 68.9807V58.9835L280 280.921V291.418Z" fill="#FFEF9C" fill-opacity="0.14"/>
<path d="M137.343 399.888H119.863L138.342 0H154.823L137.343 399.888Z" fill="#DD756E"/>
<path d="M151.328 398.888L0 214.44V195.445L197.775 398.888H151.328Z" fill="#FFEF9C" fill-opacity="0.14"/>
<path d="M123.359 0.5H85.4026L77.9111 399.388H123.359V0.5Z" fill="#8A4152"/>
<path d="M216.753 0.5H180.794L205.765 399.388H250.215L216.753 0.5Z" fill="#8A4152"/>
<path d="M279.681 399.888L194.279 399.388C204.434 387.725 226.142 358.3 231.736 333.907C237.33 309.513 236.397 243.432 235.232 213.44L176.299 157.956L159.818 122.966L163.314 114.468L184.29 139.461L235.232 169.453L224.744 0H279.681V399.888Z" fill="url(#paint0_linear)"/>
<path d="M182.598 279.359C184.735 278.137 186.566 279.359 187.787 281.802C186.566 281.558 183.514 283.33 181.377 285.468C180.462 282.719 179.77 280.976 182.598 279.359Z" fill="#9A6721"/>
<path fill-rule="evenodd" clip-rule="evenodd" d="M274.163 400H154.824C155.136 398.069 155.416 396.11 155.7 394.115C157.227 383.404 158.901 371.664 166.678 357.839C164.479 356.751 162.683 354.507 161.538 350.841C160.012 345.953 164.227 341.093 168.558 336.789C172.723 332.649 176.499 328.021 181.94 319.522C180.663 310.821 176.304 304.256 174.357 301.658C167.719 292.8 189.008 274.165 197.554 283.33C198.299 284.129 199.509 285.631 201.119 287.629C207.558 295.622 220.391 311.549 235.401 322.125C273.553 349.008 274.163 378.006 274.163 400Z" fill="url(#paint1_linear)"/>
<path fill-rule="evenodd" clip-rule="evenodd" d="M214.682 326.874C211.417 326.075 207.679 325.791 204.232 326.9C199.903 328.292 196.676 333.073 196.138 337.994C195.869 340.458 196.272 342.967 197.556 345.113C198.842 347.26 201.003 349.035 204.233 350.038C206.833 350.846 213.095 352.374 219.581 353.738C226.066 355.102 232.79 356.305 236.311 356.459C243.211 356.759 248.522 354.08 251.182 349.882C253.844 345.683 253.834 339.991 250.151 334.307L249.951 334.437C253.593 340.057 253.584 345.647 250.98 349.754C248.376 353.864 243.156 356.517 236.322 356.22C232.823 356.068 226.118 354.869 219.63 353.505C213.145 352.141 206.893 350.614 204.304 349.81C201.124 348.822 199.013 347.082 197.761 344.99C196.508 342.896 196.111 340.442 196.375 338.02C196.906 333.167 200.088 328.484 204.305 327.127C207.695 326.036 211.384 326.312 214.625 327.106C217.866 327.9 220.647 329.209 222.214 330.17L222.339 329.966C220.752 328.993 217.948 327.674 214.682 326.874Z" fill="black"/>
<path d="M200.606 279.664C200.606 284.73 199.69 282.414 198.775 287.301C197.249 283.941 192.365 282.108 191.144 283.024C189.313 281.192 189.008 278.931 190.229 275.999C191.755 272.333 200.606 274.598 200.606 279.664Z" fill="#9A6721"/>
<path d="M181.072 290.356H175.883L173.747 293.716L175.883 295.549L181.072 290.356Z" fill="black"/>
<path fill-rule="evenodd" clip-rule="evenodd" d="M176.462 297.387C176.634 297.848 176.818 298.298 176.997 298.657C177.36 299.383 178.023 299.821 178.836 300.032C179.647 300.243 180.615 300.231 181.607 300.058C183.591 299.711 185.714 298.709 186.955 297.466L186.787 297.297C185.587 298.498 183.512 299.482 181.566 299.823C180.594 299.993 179.664 300 178.896 299.801C178.131 299.602 177.535 299.199 177.211 298.55C176.728 297.584 176.201 295.923 175.998 295.211L175.767 295.271C175.785 295.347 175.805 295.429 175.826 295.518C176.047 296.443 176.42 298.003 176.374 299.287C176.349 299.991 176.198 300.584 175.854 300.946C175.519 301.298 174.972 301.46 174.081 301.237L174.023 301.469C174.963 301.704 175.611 301.548 176.027 301.111C176.433 300.684 176.587 300.016 176.613 299.295C176.635 298.687 176.565 298.019 176.462 297.387Z" fill="black"/>
<path d="M180.767 290.356L184.124 283.357C184.124 283.357 181.988 284.25 179.851 286.412C177.715 288.575 176.189 290.356 176.189 290.356H180.767Z" fill="#C68731"/>
<path d="M185.04 284.552C185.04 285.058 185.45 285.469 185.955 285.469C186.461 285.469 186.871 285.058 186.871 284.552C186.871 284.046 186.461 283.635 185.955 283.635C185.45 283.635 185.04 284.046 185.04 284.552Z" fill="black"/>
<path fill-rule="evenodd" clip-rule="evenodd" d="M165.585 340.239C171.122 335.412 177.509 326.801 182.091 318.853L181.884 318.733C177.309 326.67 170.938 335.256 165.428 340.059C160.651 344.223 160.494 349.707 162.616 353.722C164.732 357.728 169.138 360.298 173.485 358.589C182.05 355.221 188.472 350.323 193.973 345.123C195.473 343.706 196.094 341.409 195.924 339.021C195.753 336.63 194.788 334.126 193.086 332.277C191.38 330.426 188.936 329.233 185.821 329.47C182.711 329.708 178.944 331.371 174.584 335.199L174.741 335.379C179.079 331.57 182.798 329.941 185.839 329.709C188.876 329.477 191.25 330.637 192.91 332.439C194.572 334.244 195.518 336.695 195.686 339.038C195.853 341.383 195.239 343.598 193.809 344.95C188.322 350.136 181.925 355.014 173.398 358.366C169.2 360.017 164.907 357.547 162.827 353.61C160.751 349.683 160.9 344.323 165.585 340.239Z" fill="black"/>
<path fill-rule="evenodd" clip-rule="evenodd" d="M258.703 399.662C255.95 394.355 247.698 382.404 236.691 374.571L236.552 374.765C247.402 382.487 255.571 394.231 258.4 399.598H196.147V387.803C196.147 386.242 196.946 384.648 198.413 383.251C199.88 381.853 202.008 380.659 204.645 379.899C209.917 378.381 217.213 378.605 225.278 382.413L225.379 382.197C217.268 378.367 209.913 378.134 204.579 379.67C201.913 380.438 199.748 381.649 198.249 383.078C196.75 384.505 195.908 386.158 195.908 387.803V399.837H258.793L258.703 399.662Z" fill="black"/>
<path fill-rule="evenodd" clip-rule="evenodd" d="M195.672 356.032C196.584 353.601 198.693 351.348 202.491 349.448L202.384 349.234C198.551 351.152 196.388 353.443 195.449 355.948C194.51 358.452 194.804 361.147 195.84 363.856C197.911 369.267 202.965 374.782 207.237 379.057L207.405 378.888C203.131 374.61 198.113 369.127 196.063 363.77C195.039 361.095 194.761 358.463 195.672 356.032Z" fill="black"/>
<path fill-rule="evenodd" clip-rule="evenodd" d="M194.084 350.049C192.891 349.012 191.49 348.305 190.229 348.305L190.229 348.544C191.409 348.544 192.756 349.211 193.928 350.23C195.098 351.246 196.076 352.597 196.525 353.934L196.751 353.857C196.286 352.473 195.28 351.088 194.084 350.049Z" fill="black"/>
<path fill-rule="evenodd" clip-rule="evenodd" d="M190.505 376.873C195.252 376.49 200.118 377.394 206.062 379.363L206.137 379.137C200.178 377.163 195.278 376.248 190.486 376.635C185.694 377.022 181.022 378.711 175.518 381.924C171.059 384.527 169.666 385.934 168.666 386.943C168.6 387.009 168.537 387.073 168.474 387.136L168.643 387.305C168.706 387.242 168.77 387.177 168.835 387.111C169.825 386.112 171.204 384.719 175.638 382.13C181.123 378.929 185.76 377.257 190.505 376.873Z" fill="black"/>
<path fill-rule="evenodd" clip-rule="evenodd" d="M200.201 370.965L196.233 377.074L196.433 377.205L200.401 371.095L200.201 370.965Z" fill="black"/>
<path d="M193.281 280.887C194.442 281.263 196.231 282.72 196.943 283.636C196.943 281.803 198.775 279.693 195.417 277.554C191.688 275.179 190.534 279.998 193.281 280.887Z" fill="#FBAB7E"/>
<path fill-rule="evenodd" clip-rule="evenodd" d="M197.257 275.094C199.297 276.228 200.931 278.254 200.783 280.48C200.654 282.41 199.774 284.719 199.271 285.624L199.48 285.74C199.995 284.811 200.889 282.468 201.021 280.496C201.178 278.14 199.454 276.042 197.373 274.885C196.33 274.305 195.186 273.955 194.124 273.925C193.061 273.896 192.072 274.189 191.356 274.905C189.117 277.146 189.29 280.163 189.813 281.42L190.034 281.328C189.54 280.141 189.368 277.233 191.524 275.074C192.182 274.416 193.1 274.136 194.117 274.164C195.134 274.192 196.241 274.529 197.257 275.094Z" fill="#111111"/>
<path fill-rule="evenodd" clip-rule="evenodd" d="M185.077 279.314C185.957 279.592 186.792 280.261 187.375 281.428L187.588 281.321C186.979 280.102 186.097 279.386 185.149 279.086C184.202 278.787 183.199 278.907 182.352 279.344C181.505 279.78 180.811 280.534 180.485 281.508C180.157 282.483 180.201 283.669 180.813 284.962L181.028 284.86C180.44 283.616 180.406 282.494 180.711 281.584C181.017 280.673 181.666 279.966 182.461 279.556C183.257 279.146 184.195 279.036 185.077 279.314Z" fill="black"/>
<path d="M92.3947 0.5H0V399.888H126.356C119.53 388.391 73.7106 351.757 69.4209 333.407C32.9624 177.45 34.9602 50.486 92.3947 0.5Z" fill="url(#paint2_linear)"/>
<path d="M212.36 399.888L0 127.964V94.9734L279.681 343.404V399.888H212.36Z" fill="#FFEF9C" fill-opacity="0.14"/>
<path d="M279.681 247.431L0 30.9913V9.99719L279.681 221.938V247.431Z" fill="#FFEF9C" fill-opacity="0.14"/>
<path d="M279.681 125.965L113.371 0.5H127.355L279.681 102.971V125.965Z" fill="#FFEF9C" fill-opacity="0.14"/>
<path d="M0 49.4861V0H156.821C156.821 45.9871 69.4209 90.9745 0 49.4861Z" fill="#43606C"/>
<path d="M279.681 31.4912V0H100.885C100.885 31.4912 203.768 77.9782 279.681 31.4912Z" fill="#43606C"/>
<defs>
<linearGradient id="paint0_linear" x1="219.75" y1="0" x2="219.75" y2="399.888" gradientUnits="userSpaceOnUse">
<stop stop-color="#603156"/>
<stop offset="1" stop-color="#352F5C"/>
</linearGradient>
<linearGradient id="paint1_linear" x1="214.493" y1="280.859" x2="214.493" y2="400" gradientUnits="userSpaceOnUse">
<stop stop-color="#9A6721"/>
<stop offset="1" stop-color="#7E270B"/>
</linearGradient>
<linearGradient id="paint2_linear" x1="63.178" y1="0.5" x2="63.178" y2="399.888" gradientUnits="userSpaceOnUse">
<stop stop-color="#603156"/>
<stop offset="1" stop-color="#352F5C"/>
</linearGradient>
</defs>
</svg>
