<svg width="280" height="400" viewBox="0 0 280 400" fill="none" xmlns="http://www.w3.org/2000/svg">
<rect width="280" height="400" fill="url(#paint0_radial)"/>
<path d="M280 0V44C268.5 64 252 82.5 204 82.5C126.713 82.5 114.833 23.5 111 0H280Z" fill="#47559F"/>
<path d="M169 0V44C157.5 64 141 82.5 93 82.5C15.7132 82.5 3.83333 23.5 0 0H169Z" fill="#47559F"/>
<path d="M179.5 400H149L162 0H197L179.5 400Z" fill="#776CF2"/>
<path d="M159.277 270.963L106 400H230.638L182.249 270.963H159.277Z" fill="#1C0E4C"/>
<path d="M161.965 267.053L162.698 271.207L159.032 273.162L156.1 268.763L156.588 266.075L160.254 264.853L161.965 267.053Z" fill="#1C0E4C"/>
<path d="M179.561 267.053L178.828 271.207L182.494 273.162L185.426 268.763L184.937 266.075L181.272 264.853L179.561 267.053Z" fill="#1C0E4C"/>
<path d="M172.229 276.339H168.319L166.364 282.693H174.184L172.229 276.339Z" fill="#1A2E75"/>
<circle cx="176.384" cy="277.317" r="0.977554" fill="#00F3F3"/>
<circle cx="164.165" cy="277.317" r="0.977554" fill="#00F3F3"/>
<path d="M172.963 331.816C175.053 325.355 187.626 324.973 187.626 324.973C187.626 324.973 180.909 326.39 178.584 331.816C174.604 341.102 176.629 347.701 176.629 347.701C176.629 347.701 170.274 340.125 172.963 331.816Z" fill="#1A2E75"/>
<path d="M166.12 331.816C164.03 325.355 151.456 324.973 151.456 324.973C151.456 324.973 158.174 326.39 160.499 331.816C164.479 341.102 162.454 347.701 162.454 347.701C162.454 347.701 168.809 340.125 166.12 331.816Z" fill="#1A2E75"/>
<path d="M280 181L51 0H61L280 169V181Z" fill="#9CE7FF" fill-opacity="0.14"/>
<path d="M62.5 400H31L62.5 0H95.5L62.5 400Z" fill="#776CF2"/>
<path d="M280 291.5L0 69V59L280 281V291.5Z" fill="#9CE7FF" fill-opacity="0.14"/>
<path d="M137.5 400H120L138.5 0H155L137.5 400Z" fill="#3B40B0"/>
<path d="M151.5 399L0 214.5V195.5L198 399H151.5Z" fill="#9CE7FF" fill-opacity="0.14"/>
<path d="M123.5 0.5H85.5L78 399.5H123.5V0.5Z" fill="#5D418A"/>
<path d="M217 0.5H181L206 399.5H250.5L217 0.5Z" fill="#5D418A"/>
<path d="M280 400L194.5 399.5C204.667 387.833 226.4 358.4 232 334C237.6 309.6 236.667 243.5 235.5 213.5L176.5 158L160 123L163.5 114.5L184.5 139.5L235.5 169.5L225 0H280V400Z" fill="url(#paint1_linear)"/>
<path d="M92.5 0.5H0V400H126.5C119.667 388.5 73.7947 351.855 69.5 333.5C33 177.5 35 50.5 92.5 0.5Z" fill="url(#paint2_linear)"/>
<path d="M212.602 400L0 128V95L280 343.5V400H212.602Z" fill="#9CE7FF" fill-opacity="0.14"/>
<path d="M280 247.5L0 31V10L280 222V247.5Z" fill="#9CE7FF" fill-opacity="0.14"/>
<path d="M280 126L113.5 0.5H127.5L280 103V126Z" fill="#9CE7FF" fill-opacity="0.14"/>
<path d="M0 49.5V0H157C157 46 69.5 91 0 49.5Z" fill="#43606C"/>
<path d="M280 31.5V0H101C101 31.5 204 78 280 31.5Z" fill="#43606C"/>
<defs>
<radialGradient id="paint0_radial" cx="0" cy="0" r="1" gradientUnits="userSpaceOnUse" gradientTransform="translate(140) rotate(90) scale(200 140)">
<stop stop-color="#256C76"/>
<stop offset="1" stop-color="#1F3367"/>
</radialGradient>
<linearGradient id="paint1_linear" x1="220" y1="0" x2="220" y2="400" gradientUnits="userSpaceOnUse">
<stop stop-color="#603156"/>
<stop offset="1" stop-color="#352F5C"/>
</linearGradient>
<linearGradient id="paint2_linear" x1="63.25" y1="0.5" x2="63.25" y2="400" gradientUnits="userSpaceOnUse">
<stop stop-color="#603156"/>
<stop offset="1" stop-color="#352F5C"/>
</linearGradient>
</defs>
</svg>
