<svg width="480" height="600" viewBox="0 0 480 600" fill="none" xmlns="http://www.w3.org/2000/svg">
<rect x="0.998047" width="479.002" height="600" fill="url(#paint0_radial)"/>
<path d="M480 0V65.6C462.752 95.4182 436.009 123 364.017 123C248.099 123 230.282 35.0364 224.532 0H480Z" fill="#47559F"/>
<path d="M253.472 0V65.6C236.224 95.4182 211.477 123 139.485 123C23.5672 123 5.74936 35.0364 0 0H253.472Z" fill="#47559F"/>
<path d="M311.102 600H257.464L284.907 0H337.298L311.102 600Z" fill="#776CF2"/>
<path d="M279.972 353.178L178.628 599.147H415.718L323.671 353.178H279.972Z" fill="#1C0E4C"/>
<path d="M285.086 345.724L286.481 353.643L279.507 357.37L273.929 348.985L274.858 343.861L281.832 341.531L285.086 345.724Z" fill="#1C0E4C"/>
<path d="M318.557 345.724L317.163 353.643L324.136 357.37L329.714 348.985L328.785 343.861L321.811 341.531L318.557 345.724Z" fill="#1C0E4C"/>
<path d="M304.611 363.426H297.173L293.454 375.538H308.33L304.611 363.426Z" fill="#1A2E75"/>
<ellipse cx="312.514" cy="365.29" rx="1.85953" ry="1.8634" fill="#00F3F3"/>
<ellipse cx="289.27" cy="365.29" rx="1.85953" ry="1.8634" fill="#00F3F3"/>
<path d="M306.006 469.174C309.982 456.859 333.899 456.13 333.899 456.13C333.899 456.13 321.122 458.832 316.698 469.174C309.128 486.877 312.98 499.454 312.98 499.454C312.98 499.454 300.892 485.013 306.006 469.174Z" fill="#1A2E75"/>
<path d="M292.99 469.174C289.014 456.859 265.096 456.13 265.096 456.13C265.096 456.13 277.874 458.832 282.297 469.174C289.868 486.877 286.016 499.454 286.016 499.454C286.016 499.454 298.104 485.013 292.99 469.174Z" fill="#1A2E75"/>
<path d="M480 253L83.8252 0H103.784L480 231V253Z" fill="#9CE7FF" fill-opacity="0.14"/>
<path d="M99.1657 600H51.8921L99.1657 0H148.69L99.1657 600Z" fill="#776CF2"/>
<path d="M480 436L0 81V59L480 415V436Z" fill="#9CE7FF" fill-opacity="0.14"/>
<path d="M244.491 600H205.572L238.503 0H268.441L244.491 600Z" fill="#3B40B0"/>
<path d="M203.576 1H146.903L135.717 600H203.576V1Z" fill="#5D418A"/>
<path d="M378.083 1H324.324L361.657 599H428.108L378.083 1Z" fill="#5D418A"/>
<path d="M480 600H352.943C368.14 582.507 400.627 537.376 408.997 500.791C417.368 464.206 415.973 365.098 414.229 320.116L326.036 236.901L287.159 175.745L292.391 163L337.995 209.163L414.229 254.144L398.534 0H480V600Z" fill="url(#paint1_linear)"/>
<path d="M137.914 1H0V600H188.607C178.419 582.757 110.025 527.813 103.622 500.292C49.2018 266.389 52.1838 75.9687 137.914 1Z" fill="url(#paint2_linear)"/>
<path d="M480 168L203.576 0H235.509L480 127V168Z" fill="#9CE7FF" fill-opacity="0.14"/>
<path d="M480 361.5L0.998047 31V3L480 320V361.5Z" fill="#9CE7FF" fill-opacity="0.14"/>
<path d="M411.426 600L0 170V125L480 482V600H411.426Z" fill="#9CE7FF" fill-opacity="0.14"/>
<path d="M0 74.3708V0H235.509C235.509 69.1123 104.254 136.722 0 74.3708Z" fill="#43606C"/>
<path d="M480 47.4118V0H211.559C211.559 47.4118 366.025 117.401 480 47.4118Z" fill="#43606C"/>
<defs>
<radialGradient id="paint0_radial" cx="0" cy="0" r="1" gradientUnits="userSpaceOnUse" gradientTransform="translate(240.499) rotate(90) scale(245 244.491)">
<stop stop-color="#256C76"/>
<stop offset="1" stop-color="#1F3367"/>
</radialGradient>
<linearGradient id="paint1_linear" x1="383.58" y1="0" x2="383.58" y2="600" gradientUnits="userSpaceOnUse">
<stop stop-color="#603156"/>
<stop offset="1" stop-color="#352F5C"/>
</linearGradient>
<linearGradient id="paint2_linear" x1="94.3035" y1="1" x2="94.3035" y2="600" gradientUnits="userSpaceOnUse">
<stop stop-color="#603156"/>
<stop offset="1" stop-color="#352F5C"/>
</linearGradient>
</defs>
</svg>
