<svg width="480" height="600" viewBox="0 0 480 600" fill="none" xmlns="http://www.w3.org/2000/svg">
<rect width="480" height="600" fill="#FFD7AC"/>
<path d="M479 0V65.6C461.716 95.4182 436.917 123 364.775 123C248.616 123 230.761 35.0364 225 0H479Z" fill="#B56949"/>
<path d="M254 0V65.6C236.716 95.4182 211.917 123 139.775 123C23.6163 123 5.76134 35.0364 0 0H254Z" fill="#B56949"/>
<path d="M311.75 600H258L285.5 0H338L311.75 600Z" fill="#F2946C"/>
<path d="M480 253L84 0H104L480 231V253Z" fill="#FFEF9C" fill-opacity="0.14"/>
<path d="M99.3721 600H52L99.3721 0H149L99.3721 600Z" fill="#F2946C"/>
<path d="M480 436L0 81V59L480 415V436Z" fill="#FFEF9C" fill-opacity="0.14"/>
<path d="M245 600H206L239 0H269L245 600Z" fill="#DD756E"/>
<path d="M204 1H147.209L136 600H204V1Z" fill="#8A4152"/>
<path d="M378.871 1H325L362.41 599H429L378.871 1Z" fill="#8A4152"/>
<path d="M480 600H352.678C367.907 582.507 400.461 537.376 408.849 500.791C417.238 464.206 415.84 365.098 414.092 320.116L325.716 236.901L286.757 175.745L292 163L337.699 209.163L414.092 254.144L398.364 0H480V600Z" fill="url(#paint0_linear)"/>
<path d="M312.023 398.101C315.603 396.055 318.672 398.101 320.718 402.193C318.672 401.784 313.557 404.751 309.977 408.331C308.442 403.728 307.283 400.81 312.023 398.101Z" fill="#9A6721"/>
<path fill-rule="evenodd" clip-rule="evenodd" d="M465.476 600H265.476C266 596.767 266.468 593.595 266.945 590.255C269.504 572.321 272.309 552.663 285.342 529.513C281.658 527.69 278.647 523.934 276.729 517.794C274.171 509.61 281.235 501.472 288.493 494.265C295.474 487.333 301.801 479.584 310.92 465.352C308.78 450.784 301.474 439.79 298.212 435.441C287.087 420.607 322.765 389.405 337.087 404.751C338.335 406.088 340.364 408.604 343.061 411.949C353.853 425.333 375.359 452.003 400.514 469.712C464.453 514.725 465.476 563.171 465.476 600Z" fill="url(#paint1_linear)"/>
<path fill-rule="evenodd" clip-rule="evenodd" d="M365.792 477.664C360.32 476.325 354.056 475.849 348.279 477.706C341.024 480.038 335.616 488.043 334.714 496.282C334.263 500.409 334.939 504.609 337.091 508.203C339.245 511.799 342.868 514.771 348.281 516.451C352.638 517.803 363.132 520.362 374.002 522.646C384.869 524.93 396.138 526.945 402.04 527.201C413.604 527.704 422.503 523.218 426.962 516.19C431.422 509.158 431.407 499.627 425.234 490.11L424.898 490.328C431.002 499.737 430.986 509.098 426.624 515.976C422.258 522.857 413.511 527.3 402.057 526.802C396.194 526.547 384.957 524.54 374.085 522.255C363.216 519.971 352.738 517.415 348.399 516.069C343.071 514.415 339.532 511.5 337.434 507.997C335.335 504.492 334.668 500.382 335.112 496.326C336.001 488.201 341.334 480.359 348.401 478.087C354.082 476.261 360.265 476.723 365.697 478.052C371.127 479.381 375.789 481.573 378.415 483.182L378.624 482.841C375.964 481.211 371.265 479.003 365.792 477.664Z" fill="black"/>
<path d="M342.202 398.613C342.202 407.096 340.667 403.216 339.133 411.4C336.575 405.774 328.391 402.705 326.345 404.239C323.276 401.17 322.764 397.385 324.81 392.475C327.368 386.337 342.202 390.13 342.202 398.613Z" fill="#9A6721"/>
<path d="M309.465 416.515H300.769L297.189 422.142L300.769 425.211L309.465 416.515Z" fill="black"/>
<path fill-rule="evenodd" clip-rule="evenodd" d="M301.74 428.288C302.027 429.061 302.336 429.815 302.637 430.416C303.245 431.631 304.356 432.364 305.718 432.718C307.078 433.071 308.699 433.052 310.363 432.761C313.687 432.18 317.244 430.503 319.325 428.422L319.042 428.139C317.031 430.15 313.555 431.797 310.294 432.367C308.665 432.652 307.105 432.665 305.819 432.33C304.536 431.997 303.537 431.323 302.994 430.237C302.185 428.618 301.303 425.837 300.962 424.645L300.575 424.745C300.605 424.873 300.638 425.011 300.673 425.159C301.044 426.709 301.669 429.321 301.593 431.47C301.55 432.65 301.297 433.642 300.72 434.248C300.159 434.838 299.243 435.109 297.749 434.736L297.652 435.124C299.227 435.518 300.314 435.256 301.01 434.524C301.691 433.809 301.949 432.691 301.992 431.484C302.029 430.465 301.912 429.348 301.74 428.288Z" fill="black"/>
<path d="M308.953 416.515L314.58 404.797C314.58 404.797 311 406.291 307.419 409.912C303.838 413.533 301.281 416.515 301.281 416.515H308.953Z" fill="#C68731"/>
<path d="M316.115 406.797C316.115 407.644 316.802 408.331 317.649 408.331C318.497 408.331 319.184 407.644 319.184 406.797C319.184 405.949 318.497 405.262 317.649 405.262C316.802 405.262 316.115 405.949 316.115 406.797Z" fill="black"/>
<path fill-rule="evenodd" clip-rule="evenodd" d="M283.509 500.042C292.79 491.959 303.494 477.541 311.172 464.232L310.826 464.032C303.159 477.322 292.48 491.698 283.246 499.741C275.241 506.713 274.978 515.897 278.534 522.619C282.081 529.326 289.464 533.631 296.75 530.768C311.104 525.129 321.867 516.927 331.086 508.221C333.598 505.848 334.64 502.002 334.354 498.003C334.069 494 332.451 489.807 329.598 486.711C326.74 483.61 322.644 481.613 317.424 482.011C312.211 482.408 305.899 485.193 298.591 491.603L298.855 491.904C306.125 485.527 312.358 482.798 317.454 482.41C322.544 482.022 326.523 483.965 329.304 486.982C332.089 490.005 333.675 494.108 333.955 498.031C334.236 501.958 333.207 505.667 330.811 507.93C321.615 516.615 310.895 524.781 296.604 530.396C289.568 533.16 282.373 529.024 278.887 522.432C275.409 515.855 275.658 506.88 283.509 500.042Z" fill="black"/>
<path fill-rule="evenodd" clip-rule="evenodd" d="M439.566 599.543C434.952 590.657 421.122 570.646 402.676 557.529L402.444 557.855C420.626 570.785 434.318 590.449 439.058 599.436H334.729V579.687C334.729 577.072 336.068 574.403 338.527 572.063C340.985 569.724 344.552 567.724 348.971 566.452C357.807 563.909 370.033 564.285 383.549 570.661L383.719 570.299C370.125 563.886 357.799 563.495 348.86 566.067C344.392 567.353 340.765 569.381 338.252 571.773C335.739 574.164 334.329 576.931 334.329 579.687V599.836H439.718L439.566 599.543Z" fill="black"/>
<path fill-rule="evenodd" clip-rule="evenodd" d="M333.933 526.487C335.461 522.416 338.996 518.644 345.361 515.462L345.182 515.104C338.759 518.316 335.133 522.152 333.559 526.346C331.986 530.539 332.478 535.052 334.215 539.587C337.685 548.648 346.156 557.883 353.314 565.041L353.597 564.758C346.433 557.594 338.024 548.415 334.588 539.444C332.873 534.965 332.406 530.558 333.933 526.487Z" fill="black"/>
<path fill-rule="evenodd" clip-rule="evenodd" d="M331.271 516.469C329.272 514.733 326.925 513.549 324.81 513.549L324.81 513.949C326.788 513.949 329.045 515.066 331.009 516.771C332.97 518.473 334.609 520.735 335.363 522.973L335.742 522.846C334.961 520.527 333.275 518.208 331.271 516.469Z" fill="black"/>
<path fill-rule="evenodd" clip-rule="evenodd" d="M325.275 561.385C333.229 560.742 341.385 562.257 351.346 565.554L351.472 565.175C341.485 561.869 333.272 560.338 325.242 560.986C317.211 561.634 309.381 564.461 300.158 569.842C292.684 574.201 290.349 576.556 288.673 578.246C288.564 578.356 288.457 578.464 288.352 578.569L288.635 578.852C288.741 578.746 288.848 578.638 288.958 578.527C290.616 576.855 292.928 574.522 300.359 570.187C309.55 564.826 317.321 562.027 325.275 561.385Z" fill="black"/>
<path fill-rule="evenodd" clip-rule="evenodd" d="M341.523 551.491L334.873 561.721L335.209 561.939L341.858 551.709L341.523 551.491Z" fill="black"/>
<path d="M329.926 400.659C331.873 401.288 334.87 403.728 336.064 405.262C336.064 402.193 339.133 398.659 333.506 395.078C327.257 391.101 325.322 399.171 329.926 400.659Z" fill="#FBAB7E"/>
<path fill-rule="evenodd" clip-rule="evenodd" d="M336.59 390.961C340.008 392.859 342.746 396.252 342.498 399.98C342.282 403.21 340.807 407.077 339.965 408.591L340.315 408.786C341.178 407.231 342.677 403.308 342.897 400.006C343.16 396.061 340.272 392.548 336.784 390.611C335.035 389.639 333.118 389.052 331.338 389.003C329.557 388.954 327.899 389.444 326.699 390.644C322.948 394.396 323.238 399.448 324.115 401.553L324.484 401.399C323.656 399.412 323.368 394.541 326.982 390.927C328.084 389.825 329.623 389.356 331.327 389.403C333.031 389.45 334.886 390.014 336.59 390.961Z" fill="#111111"/>
<path fill-rule="evenodd" clip-rule="evenodd" d="M316.177 398.027C317.652 398.492 319.051 399.612 320.028 401.566L320.386 401.387C319.365 399.346 317.887 398.146 316.297 397.645C314.711 397.145 313.03 397.345 311.61 398.076C310.191 398.807 309.028 400.07 308.481 401.7C307.932 403.332 308.005 405.318 309.03 407.484L309.392 407.313C308.406 405.229 308.348 403.351 308.86 401.827C309.372 400.302 310.461 399.118 311.793 398.432C313.126 397.746 314.699 397.56 316.177 398.027Z" fill="black"/>
<path d="M138.202 1H0V600H189C178.791 582.757 110.254 527.813 103.838 500.292C49.3043 266.389 52.2925 75.9687 138.202 1Z" fill="url(#paint2_linear)"/>
<path d="M480 169L209 1H241L480 128V169Z" fill="#FFEF9C" fill-opacity="0.14"/>
<path d="M480 361.5L1 31V3L480 320V361.5Z" fill="#FFEF9C" fill-opacity="0.14"/>
<path d="M412.283 600L0 170V125L480 482V600H412.283Z" fill="#FFEF9C" fill-opacity="0.14"/>
<path d="M0 74.3708V0H236C236 69.1123 104.471 136.722 0 74.3708Z" fill="#43606C"/>
<path d="M480 47.4118V0H210C210 47.4118 365.788 117.401 480 47.4118Z" fill="#43606C"/>
<defs>
<linearGradient id="paint0_linear" x1="383.379" y1="0" x2="383.379" y2="600" gradientUnits="userSpaceOnUse">
<stop stop-color="#603156"/>
<stop offset="1" stop-color="#352F5C"/>
</linearGradient>
<linearGradient id="paint1_linear" x1="365.476" y1="400.613" x2="365.476" y2="600.109" gradientUnits="userSpaceOnUse">
<stop stop-color="#9A6721"/>
<stop offset="1" stop-color="#7E270B"/>
</linearGradient>
<linearGradient id="paint2_linear" x1="94.5" y1="1" x2="94.5" y2="600" gradientUnits="userSpaceOnUse">
<stop stop-color="#603156"/>
<stop offset="1" stop-color="#352F5C"/>
</linearGradient>
</defs>
</svg>
