<svg width="280" height="401" viewBox="0 0 280 401" fill="none" xmlns="http://www.w3.org/2000/svg">
<rect width="280" height="400" fill="url(#paint0_radial)"/>
<path d="M279.495 0V32C277.999 52 268.499 70.4747 222.499 62C184.503 55 169 14 178.5 0H279.495Z" fill="#47559F"/>
<path d="M116.5 1V10C114 36.5 89.2109 62.2139 47.5 57C7.5 52 1 25 1 1H116.5Z" fill="#47559F"/>
<path d="M249 0H211L216 400H249V0Z" fill="#776CF2"/>
<path d="M280 201L21 0H50L280 170V201Z" fill="#9CE7FF" fill-opacity="0.14"/>
<path d="M62.5 0H40.5L32 400H65L62.5 0Z" fill="#776CF2"/>
<path d="M110.5 399.5L0 186.5V155L155 399.5H110.5Z" fill="#9CE7FF" fill-opacity="0.14"/>
<path d="M103.5 400H71L81.5 0H118L103.5 400Z" fill="#3B40B0"/>
<path d="M15.5 400H0V0H36.5L15.5 400Z" fill="#5D418A"/>
<path d="M280 297L0 34V13L280 271.5V297Z" fill="#9CE7FF" fill-opacity="0.14"/>
<path d="M280 400H255L262.5 0H280V400Z" fill="#3B40B0"/>
<path fill-rule="evenodd" clip-rule="evenodd" d="M238.5 399.5H77C86.1667 355.333 102 257.016 102 213C102 182.595 96.5004 145.59 89.5494 108.329L0 52V37L46 66L83.1374 75.5224C81.5308 67.5783 79.9121 59.7091 78.3219 51.9782L78.3208 51.9729C74.5375 33.5801 70.9153 15.9707 68 0H106.375H144.75H183.125H203L202.932 0.682331V0.682409V0.682487C200.812 22.0646 198.697 43.3899 197.117 65.1882L213.5 54L243 0.5H257L227 68L194.775 111.598C194.128 137.089 194.62 163.64 197 192C200.55 234.298 224.667 349.333 238.5 399.5Z" fill="url(#paint1_linear)"/>
<path fill-rule="evenodd" clip-rule="evenodd" d="M254 173.5V45H256V173.5H254Z" fill="#4D513E"/>
<path fill-rule="evenodd" clip-rule="evenodd" d="M22.3924 79.1755C31.4094 97.0854 46.7574 111.765 71.03 112.501C92.5477 113.153 108.32 106.732 118.763 92.8314C129.256 78.8621 134.5 57.1713 134.5 27.0001H136.5C136.5 57.329 131.243 79.5473 120.362 94.0326C109.429 108.586 92.952 115.166 70.9695 114.5C45.7417 113.735 29.8395 98.4148 20.6061 80.0748C11.39 61.7693 8.737 40.3289 10.0029 26.9062L11.9941 27.094C10.7607 40.1714 13.3582 61.231 22.3924 79.1755Z" fill="#4D563B"/>
<path fill-rule="evenodd" clip-rule="evenodd" d="M186.042 62.5048C175.523 53.0868 169.781 39.7758 171.494 24.1086L169.506 23.8911C167.72 40.2238 173.727 54.1629 184.708 63.9949C195.671 73.8106 211.547 79.4998 229.5 79.4998C247.572 79.4998 259.988 71.7789 267.671 61.9514C275.321 52.1664 278.282 40.2905 277.495 31.9065L275.504 32.0932C276.24 39.9377 273.451 51.3118 266.096 60.7196C258.773 70.085 246.928 77.4998 229.5 77.4998C211.953 77.4998 196.579 71.9391 186.042 62.5048Z" fill="#4D563B"/>
<path fill-rule="evenodd" clip-rule="evenodd" d="M25.5 24C25.5002 44.8911 44.4939 65.5 72.5 65.5C84.1361 65.5 94.8895 59.1886 102.769 50.7548C110.666 42.3027 115.5 31.9099 115.5 24H117.5C117.5 32.5901 112.334 43.4474 104.231 52.1202C96.1105 60.8114 84.8639 67.5 72.5 67.5C43.5061 67.5 23.5002 46.109 23.5 24L25.5 24Z" fill="#4D563B"/>
<path d="M198 257C198 281.853 177.853 302 153 302C128.147 302 108 281.853 108 257C108 232.147 128.147 212 153 212C177.853 212 198 232.147 198 257Z" fill="url(#paint2_radial)"/>
<path d="M178.133 151.545L147.026 135.018C146.287 134.625 145.381 134.736 144.755 135.295L117.177 159.964C116.751 160.345 116.508 160.889 116.508 161.46L116.508 192.645C116.508 193.388 116.92 194.069 117.577 194.413L152.575 212.723C153.315 213.111 154.219 212.995 154.84 212.434L182.308 187.659C182.79 187.225 183.032 186.584 182.958 185.941L179.178 153.079C179.103 152.426 178.713 151.853 178.133 151.545Z" fill="#2F1E3A"/>
<path d="M280 49.5806V0H175C175 41.5 236 65 280 49.5806Z" fill="#43606C"/>
<path d="M0 22V0H115C115 27.5 31.5 48.5 0 22Z" fill="#43606C"/>
<path d="M85.5 0H203C203 11.5 183.5 32.5 144.5 32.5C105.5 32.5 85.5 12.5 85.5 0Z" fill="#43606C"/>
<path d="M134.378 257.604L143.959 229.098C144.435 227.681 146.24 227.268 147.285 228.336L169.133 250.679C169.664 251.221 169.842 252.018 169.592 252.735L159.438 281.86C158.941 283.284 157.107 283.667 156.082 282.561L134.807 259.6C134.309 259.064 134.145 258.298 134.378 257.604Z" fill="#D9E6E8"/>
<path d="M202.92 278.693L201.687 282.534L197.481 282.534L197.068 277.356L198.773 275.282L202.504 275.987L202.92 278.693Z" fill="#1C0E4C"/>
<path d="M215.993 278.282L216.54 282.391L220.554 283.133L221.994 278.142L220.737 275.77L216.941 275.714L215.993 278.282Z" fill="#1C0E4C"/>
<path d="M197.365 282.164L175.276 399.815H268.437L219.935 282.164H197.365Z" fill="#1C0E4C"/>
<path d="M204.808 288.406H202.647L199.766 294.409H204.808V288.406Z" fill="#1A2E75"/>
<path d="M176.716 329.705L193.523 305.934V340.029L188.961 352.995L170.953 355.636L157.507 340.029L176.716 329.705Z" fill="#1C0E4C"/>
<path d="M217.054 328.744V309.536L223.296 332.106L198.806 337.868L206.009 351.794H198.806L193.043 335.467L217.054 328.744Z" fill="#1A2E75"/>
<path d="M208.89 287.686C208.89 288.084 208.567 288.406 208.17 288.406C207.772 288.406 207.449 288.084 207.449 287.686C207.449 287.288 207.772 286.966 208.17 286.966C208.567 286.966 208.89 287.288 208.89 287.686Z" fill="#00F3F3"/>
<path d="M201.207 287.686C201.207 288.084 200.884 288.406 200.486 288.406C200.089 288.406 199.766 288.084 199.766 287.686C199.766 287.288 200.089 286.966 200.486 286.966C200.884 286.966 201.207 287.288 201.207 287.686Z" fill="#00F3F3"/>
<path d="M139.74 372.443L183.679 358.757L190.882 399.815H153.186L139.74 372.443Z" fill="#1C0E4C"/>
<path d="M209.13 399.815H202.167L195.204 375.325L216.093 363.319L199.766 376.525L209.13 399.815Z" fill="#1A2E75"/>
<path fill-rule="evenodd" clip-rule="evenodd" d="M150.337 338.681C148.683 334.149 144.018 330.54 138.034 331.719C131.178 333.069 121.28 334.665 110.047 334.673C107.401 337.84 104.28 341.997 103.211 345.53C102.674 347.307 102.667 348.886 103.455 350.101C104.242 351.316 105.857 352.222 108.692 352.566C115.513 353.396 122.236 353.948 128.38 353.833C134.525 353.718 140.08 352.936 144.569 351.104C147.612 349.862 149.46 347.883 150.347 345.66C151.235 343.434 151.164 340.947 150.337 338.681ZM150.69 345.797C149.762 348.121 147.835 350.169 144.708 351.445C140.159 353.302 134.554 354.087 128.387 354.202C122.218 354.318 115.476 353.763 108.647 352.933C105.764 352.582 104.018 351.65 103.145 350.302C102.272 348.954 102.307 347.245 102.858 345.423C103.959 341.784 107.165 337.54 109.82 334.37L109.875 334.304H109.961C121.196 334.304 131.101 332.708 137.963 331.357C144.152 330.137 148.977 333.879 150.684 338.555C151.538 340.894 151.616 343.476 150.69 345.797Z" fill="#111111"/>
<path d="M104.308 283.166C103.386 277.447 114.269 280.03 113.346 289.622C112.608 293.311 104.308 287.224 104.308 283.166Z" fill="#9A6721"/>
<path d="M105.637 283.863C105.005 280.084 112.465 281.791 111.833 288.13C111.327 290.568 105.637 286.545 105.637 283.863Z" fill="#FBAB7E"/>
<path d="M97.4836 283.35C93.4256 272.836 81.4359 285.01 90.2898 289.437C93.6099 290.728 98.5904 286.855 97.4836 283.35Z" fill="#9A6721"/>
<path d="M95.5393 283.769C92.9817 277.125 85.425 284.819 91.0053 287.616C93.0979 288.433 96.2369 285.984 95.5393 283.769Z" fill="#FBAB7E"/>
<path fill-rule="evenodd" clip-rule="evenodd" d="M23.1768 399.926L139.539 399.926C143.228 384.063 132.743 369.626 123.491 356.948C122.724 355.897 121.994 354.878 121.299 353.889C130.241 354.339 138.438 353.805 144.639 351.274C156.977 346.238 150.172 329.14 137.998 331.538C136.027 331.926 133.804 332.335 131.371 332.72C129.586 325.872 121.623 321.039 109.958 325.684C110.328 323.889 111.03 322.235 111.981 320.61C123.405 301.098 117.702 294.209 112.589 288.033L112.586 288.029C112.383 287.784 112.181 287.54 111.981 287.297C106.743 280.914 92.9391 282.177 91.107 287.297C89.7682 291.038 87.9679 293.987 85.5494 297.948C84.6581 299.408 83.6828 301.006 82.6157 302.832C76.824 311.756 57.6406 337.396 37.152 352.968C19.0373 367.514 20.2874 390.334 23.1768 399.926Z" fill="url(#paint3_linear)"/>
<path fill-rule="evenodd" clip-rule="evenodd" d="M58.3024 335.626C60.3514 331.114 63.7457 326.204 68.441 321.221L68.7095 321.474C64.0347 326.435 60.6666 331.312 58.6383 335.778C56.609 340.246 55.9268 344.289 56.6014 347.589C57.274 350.879 59.2991 353.451 62.7335 354.987C66.1762 356.527 71.0435 357.028 77.3894 356.143C81.1211 355.623 84.638 355.442 88.3314 355.252C96.5876 354.827 105.726 354.357 120.117 349.947C128.699 347.317 132.286 339.888 131.241 333.681C130.719 330.578 129.039 327.782 126.247 326.031C123.455 324.281 119.529 323.565 114.493 324.664C100.588 327.698 88.4403 332.492 82.0441 335.017C80.9503 335.448 80.0248 335.814 79.2874 336.092L79.1569 335.747C79.8909 335.47 80.8134 335.106 81.9046 334.675C88.2973 332.152 100.477 327.344 114.414 324.303C119.523 323.189 123.551 323.907 126.443 325.719C129.334 327.531 131.067 330.424 131.605 333.62C132.681 340.011 128.983 347.616 120.225 350.299C105.791 354.723 96.5767 355.198 88.303 355.624C84.6217 355.814 81.1265 355.994 77.4404 356.509C71.0572 357.399 66.1124 356.902 62.5828 355.324C59.0449 353.741 56.9374 351.075 56.2399 347.663C55.5443 344.26 56.2543 340.135 58.3024 335.626Z" fill="black"/>
<path fill-rule="evenodd" clip-rule="evenodd" d="M94.788 356.748C85.5716 355.678 65.3771 354.801 47.4248 368.795L47.198 368.504C65.2664 354.419 85.5833 355.308 94.8306 356.382C101.789 357.19 107.538 361.992 110.012 368.248C112.487 374.511 111.679 382.228 105.539 388.856L105.268 388.605C111.312 382.082 112.092 374.516 109.668 368.384C107.242 362.245 101.602 357.539 94.788 356.748ZM85.2194 382.294C81.5639 385.498 71.5019 393.538 60.4719 400.085L60.2836 399.768C71.2898 393.235 81.3335 385.21 84.9762 382.016L85.2194 382.294Z" fill="black"/>
<path fill-rule="evenodd" clip-rule="evenodd" d="M106.232 388.499C104.023 389.411 101.749 390.35 99.3939 391.248L99.2625 390.903C101.595 390.014 103.858 389.08 106.063 388.17C110.204 386.461 114.141 384.836 117.948 383.751C123.795 382.085 129.381 381.678 135.016 384.181C136.906 385.019 138.182 386.137 139.022 387.421C139.86 388.703 140.254 390.141 140.396 391.611C140.538 393.08 140.43 394.587 140.257 396.013C140.179 396.663 140.088 397.29 140.001 397.889C139.896 398.616 139.797 399.303 139.732 399.945L139.365 399.908C139.43 399.267 139.532 398.561 139.638 397.821C139.725 397.22 139.815 396.596 139.891 395.968C140.062 394.552 140.167 393.076 140.029 391.647C139.891 390.218 139.51 388.842 138.713 387.622C137.917 386.404 136.698 385.331 134.867 384.518C129.34 382.064 123.851 382.453 118.049 384.106C114.261 385.185 110.359 386.796 106.232 388.499Z" fill="black"/>
<path fill-rule="evenodd" clip-rule="evenodd" d="M82.218 334.509C83.3143 333.23 84.9658 330.662 86.6298 328.073L86.9402 328.273L86.9303 328.288C85.2774 330.859 83.6131 333.448 82.4981 334.749L82.218 334.509Z" fill="black"/>
<path fill-rule="evenodd" clip-rule="evenodd" d="M93.4337 279.061C95.0732 279.344 96.6257 280.615 97.6556 283.284L97.3114 283.417C96.3123 280.828 94.8443 279.679 93.3711 279.425C91.8879 279.17 90.3416 279.811 89.1718 280.924C88.0023 282.038 87.2368 283.598 87.2921 285.133C87.347 286.656 88.2096 288.191 90.3722 289.272L90.2072 289.602C87.9428 288.47 86.9839 286.824 86.9235 285.147C86.8635 283.483 87.689 281.827 88.9174 280.657C90.1456 279.488 91.8042 278.781 93.4337 279.061Z" fill="black"/>
<path fill-rule="evenodd" clip-rule="evenodd" d="M105.451 280.251C104.481 280.779 103.935 281.891 104.125 283.555L104.492 283.513C104.313 281.95 104.827 281.01 105.627 280.575C106.443 280.131 107.617 280.177 108.82 280.728C111.213 281.824 113.617 284.884 113.163 289.604L113.53 289.639C113.999 284.767 111.514 281.556 108.973 280.392C107.709 279.813 106.404 279.732 105.451 280.251Z" fill="black"/>
<path d="M113.346 296.262L117.773 294.971C117.773 294.971 116.759 292.204 115.006 289.991C113.254 287.777 109.473 285.01 109.473 285.01L113.346 296.262Z" fill="#C68731"/>
<path d="M106.337 289.253C106.337 289.864 105.842 290.359 105.23 290.359C104.619 290.359 104.124 289.864 104.124 289.253C104.124 288.641 104.619 288.146 105.23 288.146C105.842 288.146 106.337 288.641 106.337 289.253Z" fill="#111111"/>
<path fill-rule="evenodd" clip-rule="evenodd" d="M77.7092 310.208C69.4097 321.151 54.2454 339.676 42.8121 348.425C32.2281 356.524 26.353 364.749 23.6694 373.236C20.9854 381.724 21.4871 390.495 23.696 399.699L23.3373 399.785C21.1193 390.543 20.6064 381.698 23.3177 373.124C26.0294 364.549 31.9594 356.265 42.5879 348.132C53.9765 339.417 69.1137 320.93 77.4152 309.985L77.7092 310.208Z" fill="black"/>
<path fill-rule="evenodd" clip-rule="evenodd" d="M105.362 357.601C104.745 359.314 105.123 361.329 107.207 363.459L106.944 363.717C104.786 361.512 104.339 359.354 105.015 357.476C105.684 355.617 107.436 354.083 109.572 353.069C111.712 352.053 114.265 351.544 116.579 351.758C118.892 351.972 120.991 352.912 122.173 354.822C122.813 355.855 123.805 357.267 125.006 358.977C125.411 359.553 125.839 360.163 126.286 360.803C128.056 363.341 130.107 366.353 132.086 369.632C136.04 376.182 139.72 383.818 140.277 390.873L139.909 390.902C139.359 383.938 135.719 376.364 131.77 369.822C129.798 366.554 127.752 363.55 125.983 361.014C125.54 360.379 125.114 359.772 124.711 359.198C123.507 357.484 122.506 356.059 121.86 355.016C120.758 353.236 118.787 352.332 116.545 352.125C114.303 351.918 111.816 352.412 109.73 353.402C107.641 354.394 105.985 355.869 105.362 357.601Z" fill="black"/>
<path fill-rule="evenodd" clip-rule="evenodd" d="M109.487 384.081C109.36 383.802 109.197 383.596 109.009 383.483L109.199 383.167C109.473 383.331 109.678 383.609 109.823 383.929C109.968 384.251 110.059 384.629 110.095 385.014C110.166 385.775 110.029 386.615 109.617 387.13L109.329 386.899C109.655 386.491 109.795 385.764 109.728 385.049C109.694 384.696 109.612 384.359 109.487 384.081Z" fill="black"/>
<path d="M117.404 294.971L112.977 296.262L117.404 299.582C118.327 299.582 119.323 299.287 118.88 297.369C118.437 295.45 117.712 294.971 117.404 294.971Z" fill="black"/>
<path fill-rule="evenodd" clip-rule="evenodd" d="M112.206 304.918C111.233 304.567 110.112 303.934 108.816 303.055L109.023 302.75C110.309 303.623 111.401 304.235 112.331 304.57C113.261 304.906 114.009 304.957 114.621 304.735C115.231 304.514 115.742 304.01 116.173 303.156C116.605 302.301 116.947 301.111 117.223 299.55L117.586 299.614C117.049 302.655 117.01 304.607 117.228 305.583C117.282 305.825 117.349 305.995 117.42 306.103C117.49 306.211 117.551 306.241 117.593 306.248C117.637 306.255 117.709 306.243 117.814 306.163C117.92 306.084 118.041 305.949 118.173 305.751L118.48 305.956C118.336 306.173 118.187 306.344 118.036 306.458C117.886 306.571 117.715 306.64 117.536 306.612C117.356 306.584 117.215 306.465 117.111 306.304C117.007 306.145 116.927 305.928 116.868 305.663C116.724 305.02 116.688 304.017 116.804 302.639C116.709 302.885 116.609 303.113 116.503 303.323C116.046 304.227 115.474 304.818 114.747 305.082C114.022 305.344 113.178 305.268 112.206 304.918Z" fill="black"/>
<path fill-rule="evenodd" clip-rule="evenodd" d="M108.523 334.303C110.374 339.244 115.449 344.909 123.782 348.949L123.795 348.956L123.795 348.955C137.713 355.225 148.474 357.532 157.062 357.414C165.66 357.295 172.048 354.745 177.212 351.355C180.692 349.071 183.623 346.397 186.285 343.853C187.716 344.89 189.195 346.119 190.692 347.445C192.341 348.904 193.992 350.462 195.617 351.995C196.538 352.864 197.45 353.724 198.348 354.555C200.816 356.834 203.177 358.883 205.249 360.138C206.285 360.766 207.28 361.216 208.204 361.385C209.14 361.556 210.027 361.442 210.787 360.909C211.508 360.405 212.14 359.548 212.67 358.499C213.206 357.441 213.659 356.144 214.001 354.71C214.686 351.842 214.941 348.373 214.494 345.058C214.049 341.748 212.896 338.54 210.721 336.249C208.526 333.94 205.34 332.615 200.955 333.002C196.519 333.393 192.939 336.197 189.26 339.626C188.464 340.368 187.662 341.141 186.843 341.93C186.626 342.139 186.407 342.349 186.188 342.56C185.355 341.987 184.535 341.479 183.733 341.057L183.267 341.942C183.977 342.316 184.706 342.762 185.45 343.267C182.843 345.754 180.02 348.315 176.663 350.519C171.639 353.817 165.434 356.298 157.048 356.414C148.652 356.53 138.041 354.275 124.212 348.047C116.049 344.087 111.198 338.592 109.46 333.952C108.59 331.63 108.514 329.567 109.127 328.015C109.73 326.489 111.028 325.382 113.093 324.991L112.907 324.008C110.544 324.455 108.94 325.767 108.197 327.648C107.464 329.503 107.599 331.835 108.523 334.303ZM187.018 343.15C187.204 342.972 187.388 342.794 187.572 342.617C188.381 341.838 189.168 341.079 189.942 340.358C193.622 336.927 196.98 334.356 201.043 333.998C205.158 333.635 208.033 334.873 209.996 336.938C211.976 339.023 213.074 342.002 213.503 345.192C213.932 348.376 213.687 351.72 213.029 354.477C212.7 355.855 212.27 357.075 211.778 358.048C211.282 359.029 210.742 359.72 210.213 360.09C209.724 360.433 209.126 360.537 208.384 360.402C207.63 360.264 206.755 359.882 205.767 359.283C203.792 358.086 201.497 356.103 199.027 353.82C198.145 353.005 197.24 352.151 196.322 351.286C194.688 349.744 193.013 348.164 191.355 346.696C189.901 345.409 188.445 344.195 187.018 343.15Z" fill="#FFD12D"/>
<path fill-rule="evenodd" clip-rule="evenodd" d="M175.658 274.526C186.442 278.12 192.02 290.393 190.495 301.071C187.488 322.115 165.224 346.03 130.941 341.997L131.058 341.003C164.776 344.97 186.571 321.463 189.505 300.929C190.98 290.607 185.558 278.88 175.342 275.474L175.658 274.526Z" fill="#FFD12D"/>
<path fill-rule="evenodd" clip-rule="evenodd" d="M126.773 299.054C126.681 292.778 128.525 286.768 132.646 282.646L133.354 283.354C129.475 287.232 127.684 292.951 127.773 299.039C127.863 305.125 129.833 311.528 133.411 316.716C138.31 323.819 147.622 328.152 157.416 331.591C160.558 332.694 163.725 333.697 166.8 334.671C168.512 335.214 170.194 335.747 171.828 336.283C176.376 337.775 180.53 339.287 183.742 341.062L183.258 341.938C180.137 340.213 176.062 338.725 171.516 337.233C169.903 336.704 168.23 336.173 166.522 335.632C163.436 334.655 160.239 333.642 157.084 332.534C147.295 329.098 137.69 324.681 132.588 317.284C128.895 311.93 126.866 305.333 126.773 299.054Z" fill="#FFD12D"/>
<path d="M225 400L0 93V69L280 343.5V400H225Z" fill="#9CE7FF" fill-opacity="0.14"/>
<defs>
<radialGradient id="paint0_radial" cx="0" cy="0" r="1" gradientUnits="userSpaceOnUse" gradientTransform="translate(140) rotate(90) scale(200 140)">
<stop stop-color="#256C76"/>
<stop offset="1" stop-color="#1F3367"/>
</radialGradient>
<linearGradient id="paint1_linear" x1="157.112" y1="0.499375" x2="157.112" y2="399.5" gradientUnits="userSpaceOnUse">
<stop stop-color="#5B3157"/>
<stop offset="1" stop-color="#36305D"/>
</linearGradient>
<radialGradient id="paint2_radial" cx="0" cy="0" r="1" gradientUnits="userSpaceOnUse" gradientTransform="translate(153 257) rotate(90) scale(45)">
<stop stop-color="#43606C" stop-opacity="0.65"/>
<stop offset="1" stop-color="#43606C" stop-opacity="0"/>
</radialGradient>
<linearGradient id="paint3_linear" x1="86.3287" y1="282.97" x2="86.3287" y2="399.926" gradientUnits="userSpaceOnUse">
<stop stop-color="#9A6721"/>
<stop offset="1" stop-color="#6F134F"/>
</linearGradient>
</defs>
</svg>
