<svg width="480" height="600" viewBox="0 0 480 600" fill="none" xmlns="http://www.w3.org/2000/svg">
<rect width="480" height="600" fill="url(#paint0_radial)"/>
<path d="M419 0V47.9172C416.75 77.8655 402.461 105.53 333.275 92.8396C276.127 82.3577 252.809 20.9638 267.098 0H419Z" fill="#47559F"/>
<path d="M175 1V14.4972C171.234 54.2389 133.889 92.8016 71.0519 84.9825C10.7922 77.484 1 36.9925 1 1H175Z" fill="#47559F"/>
<path d="M411 0H354L361.5 599H411V0Z" fill="#776CF2"/>
<path d="M478.987 346.423L72.9438 1H116.5L478.987 300V346.423Z" fill="#9CE7FF" fill-opacity="0.14"/>
<path d="M478.991 227.423L229.444 0.5H273L478.991 181V227.423Z" fill="#9CE7FF" fill-opacity="0.14"/>
<path d="M128 0H79L57 599H121L128 0Z" fill="#776CF2"/>
<path d="M480 450.75L0 35.5V4L480 383V450.75Z" fill="#9CE7FF" fill-opacity="0.14"/>
<path d="M165.394 599L0 279.282V232L232 599H165.394Z" fill="#9CE7FF" fill-opacity="0.14"/>
<path d="M180.096 599H131L146.862 0H202L180.096 599Z" fill="#3B40B0"/>
<path d="M43 599H0V0H66L43 599Z" fill="#5D418A"/>
<path d="M480 599H420L431.4 0H480V599Z" fill="#3B40B0"/>
<path fill-rule="evenodd" clip-rule="evenodd" d="M394.343 598.568H152.369C166.103 532.393 189.826 385.086 189.826 319.136C189.826 273.544 181.573 218.048 171.146 162.176L0.5 50.9744V28.5L105.921 98.8873L161.564 113.155C159.156 101.249 156.731 89.4562 154.347 77.8706C148.679 50.3127 143.252 23.9287 138.884 0H196.381H253.878H311.375H341.153L341.052 1.02212C337.875 33.0589 334.706 65.0106 332.339 97.671L356.885 80.9078L401.085 0.749146H422.061L377.112 101.884L328.83 167.207C327.861 205.399 328.598 245.18 332.164 287.672C337.482 351.048 373.616 523.404 394.343 598.568Z" fill="url(#paint1_linear)"/>
<path d="M419 67V260" stroke="#4D513E" stroke-width="2"/>
<path d="M203 40C203 130.877 171.532 171.912 106.348 169.932C32.173 167.679 12.6925 79.8057 16.4377 40" stroke="#4D563B" stroke-width="2"/>
<path d="M255.456 36C250.227 84.1468 290.566 118 343.604 118C396.642 118 416.097 72.4538 413.823 48.0367" stroke="#4D563B" stroke-width="2"/>
<path d="M177 26.5C177 51.3471 145 100 109 100C66.25 100 37.0003 68.3765 37 36" stroke="#4D563B" stroke-width="2"/>
<ellipse cx="269.5" cy="378" rx="67.5" ry="67" fill="url(#paint2_radial)"/>
<path d="M304.356 227.303L256.675 201.97C255.936 201.577 255.029 201.688 254.404 202.248L212.232 239.971C211.806 240.352 211.562 240.896 211.562 241.467L211.562 289.241C211.562 289.984 211.974 290.665 212.632 291.009L266.215 319.043C266.955 319.43 267.859 319.315 268.48 318.754L310.534 280.823C311.015 280.389 311.257 279.748 311.183 279.105L305.401 228.838C305.326 228.185 304.936 227.611 304.356 227.303Z" fill="#2F1E3A"/>
<path d="M480 73.9062V0H322C322 61.8611 413.79 96.8909 480 73.9062Z" fill="#43606C"/>
<path d="M0 37.3171V0H196C196 46.6464 53.687 82.2673 0 37.3171Z" fill="#43606C"/>
<path d="M159 0H346C346 18.7538 314.966 53 252.898 53C190.83 53 159 20.3846 159 0Z" fill="#43606C"/>
<path d="M239.382 386.686L254.459 342.08C254.936 340.668 256.735 340.255 257.78 341.318L292.126 376.242C292.661 376.786 292.84 377.586 292.588 378.306L276.609 423.878C276.111 425.297 274.284 425.68 273.259 424.579L239.814 388.69C239.312 388.152 239.147 387.383 239.382 386.686Z" fill="#D9E6E8"/>
<path d="M343.86 417.564L342.013 423.318L335.71 423.318L335.092 415.56L337.647 412.454L343.236 413.509L343.86 417.564Z" fill="#1C0E4C"/>
<path d="M363.446 416.948L364.266 423.104L370.28 424.216L372.437 416.739L370.555 413.184L364.868 413.101L363.446 416.948Z" fill="#1C0E4C"/>
<path d="M335.537 422.764L302.44 599.04H442.022L369.353 422.764H335.537Z" fill="#1C0E4C"/>
<path d="M346.689 432.117H343.451L339.134 441.111H346.689V432.117Z" fill="#1A2E75"/>
<path d="M304.598 493.994L329.781 458.379V509.463L322.945 528.89L295.964 532.847L275.818 509.463L304.598 493.994Z" fill="#1C0E4C"/>
<path d="M365.036 492.555V463.775L374.389 497.591L337.695 506.225L348.487 527.091H337.695L329.061 502.628L365.036 492.555Z" fill="#1A2E75"/>
<circle cx="351.725" cy="431.038" r="1.07925" fill="#00F3F3"/>
<circle cx="340.214" cy="431.038" r="1.07925" fill="#00F3F3"/>
<path d="M249.197 558.029L315.031 537.523L325.824 599.04H269.343L249.197 558.029Z" fill="#1C0E4C"/>
<path d="M353.165 599.04H342.732L332.299 562.346L363.597 544.359L339.135 564.145L353.165 599.04Z" fill="#1A2E75"/>
<path fill-rule="evenodd" clip-rule="evenodd" d="M265.075 507.271C262.597 500.479 255.607 495.072 246.641 496.838C236.369 498.862 221.539 501.253 204.709 501.265C200.744 506.01 196.068 512.239 194.467 517.532C193.662 520.194 193.652 522.561 194.831 524.381C196.01 526.202 198.431 527.558 202.679 528.075C212.899 529.318 222.972 530.145 232.177 529.973C241.385 529.801 249.706 528.628 256.433 525.883C260.991 524.022 263.761 521.058 265.09 517.727C266.42 514.392 266.314 510.665 265.075 507.271ZM265.603 517.932C264.214 521.415 261.326 524.482 256.641 526.394C249.826 529.176 241.427 530.353 232.187 530.526C222.945 530.699 212.843 529.868 202.612 528.623C198.292 528.098 195.676 526.701 194.367 524.682C193.06 522.663 193.112 520.102 193.938 517.372C195.587 511.92 200.391 505.561 204.368 500.811L204.451 500.712H204.58C221.413 500.712 236.253 498.321 246.534 496.296C255.809 494.469 263.037 500.075 265.595 507.081C266.874 510.586 266.991 514.454 265.603 517.932Z" fill="#111111"/>
<path d="M196.11 424.092C194.728 415.524 211.034 419.394 209.652 433.765C208.547 439.292 196.11 430.172 196.11 424.092Z" fill="#9A6721"/>
<path d="M198.101 425.137C197.154 419.475 208.331 422.032 207.384 431.529C206.626 435.182 198.101 429.155 198.101 425.137Z" fill="#FBAB7E"/>
<path d="M185.885 424.369C179.805 408.616 161.841 426.856 175.107 433.489C180.081 435.423 187.544 429.62 185.885 424.369Z" fill="#9A6721"/>
<path d="M182.972 424.997C179.14 415.041 167.818 426.569 176.179 430.761C179.314 431.983 184.017 428.315 182.972 424.997Z" fill="#FBAB7E"/>
<path fill-rule="evenodd" clip-rule="evenodd" d="M74.5518 599.033L248.896 599.033C254.424 575.265 238.714 553.635 224.852 534.639C223.703 533.064 222.608 531.537 221.567 530.056C234.966 530.731 247.247 529.931 256.537 526.139C275.024 518.593 264.828 492.975 246.588 496.567C243.635 497.149 240.305 497.761 236.659 498.338C233.984 488.079 222.053 480.838 204.576 487.797C205.13 485.107 206.182 482.629 207.607 480.195C224.723 450.96 216.178 440.638 208.517 431.384L208.517 431.383C208.211 431.015 207.908 430.648 207.607 430.281C199.758 420.718 179.076 422.611 176.331 430.281C174.325 435.886 171.628 440.305 168.004 446.241C166.669 448.428 165.208 450.822 163.609 453.557C154.931 466.929 126.189 505.344 95.4908 528.676C68.3496 550.471 70.2227 584.662 74.5518 599.033Z" fill="url(#paint3_linear)"/>
<path fill-rule="evenodd" clip-rule="evenodd" d="M127.181 502.693C130.251 495.933 135.336 488.576 142.371 481.111L142.774 481.49C135.769 488.922 130.723 496.23 127.684 502.921C124.644 509.616 123.621 515.673 124.632 520.617C125.64 525.547 128.674 529.4 133.82 531.701C138.978 534.008 146.271 534.76 155.779 533.434C161.37 532.654 166.639 532.383 172.173 532.098C184.543 531.462 198.235 530.757 219.797 524.15C232.655 520.209 238.03 509.079 236.464 499.779C235.682 495.13 233.165 490.94 228.981 488.317C224.798 485.695 218.916 484.622 211.37 486.269C190.537 490.814 172.336 497.998 162.753 501.78C161.114 502.427 159.727 502.974 158.622 503.392L158.427 502.875C159.527 502.459 160.909 501.914 162.544 501.268C172.122 497.488 190.37 490.285 211.252 485.729C218.906 484.059 224.943 485.134 229.275 487.849C233.606 490.564 236.203 494.899 237.009 499.688C238.622 509.263 233.08 520.657 219.959 524.678C198.332 531.306 184.527 532.017 172.13 532.657C166.615 532.941 161.378 533.211 155.855 533.981C146.291 535.315 138.882 534.571 133.594 532.206C128.293 529.835 125.136 525.84 124.091 520.728C123.048 515.629 124.112 509.449 127.181 502.693Z" fill="black"/>
<path fill-rule="evenodd" clip-rule="evenodd" d="M181.847 534.34C168.038 532.736 137.781 531.422 110.883 552.389L110.543 551.953C137.615 530.85 168.055 532.182 181.91 533.791C192.337 535.001 200.951 542.197 204.656 551.57C208.366 560.955 207.155 572.516 197.955 582.446L197.549 582.071C206.604 572.297 207.774 560.961 204.142 551.773C200.506 542.575 192.056 535.525 181.847 534.34ZM167.51 572.615C162.033 577.416 146.957 589.462 130.431 599.271L130.149 598.796C146.64 589.008 161.688 576.983 167.146 572.199L167.51 572.615Z" fill="black"/>
<path fill-rule="evenodd" clip-rule="evenodd" d="M198.994 581.913C195.683 583.279 192.276 584.686 188.748 586.031L188.551 585.514C192.045 584.182 195.436 582.783 198.74 581.419C204.945 578.858 210.844 576.424 216.547 574.799C225.308 572.303 233.677 571.693 242.121 575.442C244.951 576.699 246.864 578.373 248.122 580.296C249.377 582.218 249.968 584.372 250.181 586.575C250.394 588.776 250.231 591.034 249.973 593.17C249.855 594.145 249.719 595.084 249.59 595.981C249.432 597.071 249.283 598.1 249.186 599.061L248.636 599.005C248.733 598.046 248.886 596.988 249.046 595.879C249.176 594.978 249.311 594.044 249.424 593.103C249.681 590.982 249.838 588.77 249.631 586.628C249.424 584.488 248.853 582.426 247.659 580.599C246.466 578.774 244.641 577.166 241.896 575.947C233.616 572.27 225.392 572.854 216.699 575.33C211.023 576.947 205.177 579.361 198.994 581.913Z" fill="black"/>
<path fill-rule="evenodd" clip-rule="evenodd" d="M163.013 501.019C164.655 499.103 167.13 495.255 169.623 491.376L170.088 491.675L170.073 491.698C167.596 495.551 165.103 499.43 163.432 501.379L163.013 501.019Z" fill="black"/>
<path fill-rule="evenodd" clip-rule="evenodd" d="M179.817 417.943C182.274 418.366 184.6 420.271 186.143 424.269L185.627 424.468C184.13 420.589 181.931 418.867 179.724 418.487C177.501 418.105 175.185 419.066 173.432 420.734C171.68 422.402 170.533 424.739 170.616 427.04C170.698 429.321 171.99 431.621 175.23 433.241L174.983 433.736C171.59 432.039 170.154 429.573 170.063 427.06C169.973 424.568 171.21 422.086 173.051 420.334C174.891 418.582 177.376 417.522 179.817 417.943Z" fill="black"/>
<path fill-rule="evenodd" clip-rule="evenodd" d="M197.822 419.725C196.369 420.516 195.551 422.182 195.836 424.676L196.385 424.613C196.117 422.27 196.888 420.862 198.086 420.211C199.309 419.546 201.068 419.614 202.87 420.439C206.456 422.081 210.057 426.666 209.377 433.738L209.927 433.791C210.629 426.492 206.907 421.68 203.1 419.937C201.205 419.069 199.251 418.948 197.822 419.725Z" fill="black"/>
<path d="M209.652 443.714L216.285 441.78C216.285 441.78 214.765 437.634 212.139 434.318C209.514 431.001 203.848 426.856 203.848 426.856L209.652 443.714Z" fill="#C68731"/>
<path d="M199.15 433.212C199.15 434.128 198.408 434.87 197.492 434.87C196.576 434.87 195.833 434.128 195.833 433.212C195.833 432.296 196.576 431.554 197.492 431.554C198.408 431.554 199.15 432.296 199.15 433.212Z" fill="#111111"/>
<path fill-rule="evenodd" clip-rule="evenodd" d="M156.257 464.609C143.822 481.004 121.102 508.761 103.971 521.869C88.1134 534.004 79.3107 546.328 75.2899 559.043C71.2685 571.761 72.0202 584.902 75.3298 598.692L74.7923 598.821C71.4691 584.974 70.7006 571.723 74.7629 558.876C78.8259 546.028 87.7108 533.616 103.635 521.43C120.699 508.373 143.379 480.675 155.817 464.275L156.257 464.609Z" fill="black"/>
<path fill-rule="evenodd" clip-rule="evenodd" d="M197.688 535.618C196.765 538.185 197.33 541.204 200.454 544.395L200.059 544.782C196.826 541.478 196.156 538.244 197.168 535.431C198.171 532.645 200.797 530.347 203.997 528.828C207.203 527.306 211.028 526.543 214.495 526.863C217.961 527.183 221.106 528.592 222.877 531.453C223.836 533.002 225.322 535.117 227.122 537.679C227.728 538.542 228.37 539.456 229.039 540.415C231.691 544.218 234.764 548.732 237.729 553.643C243.654 563.458 249.167 574.899 250.002 585.469L249.451 585.512C248.627 575.078 243.172 563.73 237.256 553.929C234.301 549.033 231.235 544.531 228.586 540.732C227.922 539.78 227.283 538.871 226.679 538.011C224.875 535.443 223.375 533.308 222.407 531.744C220.757 529.079 217.803 527.724 214.444 527.414C211.086 527.103 207.359 527.843 204.234 529.327C201.104 530.813 198.622 533.023 197.688 535.618Z" fill="black"/>
<path fill-rule="evenodd" clip-rule="evenodd" d="M203.869 575.293C203.68 574.874 203.435 574.566 203.154 574.397L203.438 573.923C203.848 574.169 204.156 574.586 204.373 575.065C204.591 575.547 204.726 576.114 204.78 576.691C204.887 577.83 204.681 579.09 204.065 579.86L203.633 579.515C204.122 578.903 204.33 577.814 204.23 576.742C204.18 576.214 204.057 575.709 203.869 575.293Z" fill="black"/>
<path d="M215.731 441.78L209.099 443.714L215.731 448.689C217.113 448.689 218.606 448.247 217.942 445.372C217.279 442.498 216.192 441.78 215.731 441.78Z" fill="black"/>
<path fill-rule="evenodd" clip-rule="evenodd" d="M207.944 456.683C206.486 456.157 204.806 455.21 202.864 453.892L203.175 453.435C205.102 454.742 206.738 455.66 208.131 456.163C209.524 456.665 210.644 456.741 211.562 456.409C212.475 456.078 213.242 455.323 213.888 454.044C214.535 452.762 215.048 450.979 215.46 448.641L216.005 448.737C215.201 453.293 215.141 456.217 215.468 457.68C215.549 458.043 215.65 458.297 215.756 458.459C215.86 458.62 215.952 458.666 216.015 458.676C216.081 458.686 216.188 458.668 216.346 458.549C216.504 458.43 216.686 458.229 216.884 457.932L217.344 458.238C217.128 458.563 216.905 458.82 216.679 458.99C216.453 459.16 216.197 459.264 215.93 459.222C215.66 459.18 215.449 459.001 215.292 458.761C215.137 458.521 215.017 458.197 214.928 457.8C214.713 456.836 214.659 455.333 214.833 453.268C214.691 453.637 214.54 453.978 214.381 454.293C213.697 455.648 212.84 456.534 211.75 456.929C210.664 457.322 209.4 457.208 207.944 456.683Z" fill="black"/>
<path d="M314.746 511.645C328.997 519.188 347.75 545.587 355.25 540.307C362.749 535.028 366.498 497.314 340.997 499.577C315.496 501.84 308.746 559.918 225.489 522.205C200.736 510.136 195.701 488.528 208.987 486" stroke="#FFD12D"/>
<path d="M235.826 511.335C286.903 517.31 319.999 481.891 324.46 450.838C326.714 435.153 318.451 417.228 302.677 412" stroke="#FFD12D"/>
<path d="M239.386 424C227.435 436.034 228.524 459.287 239.386 475.145C254.325 496.957 295.904 501.47 314.826 512" stroke="#FFD12D"/>
<path d="M391.5 599L0 138.964V103L480 514.335V599H391.5Z" fill="#9CE7FF" fill-opacity="0.14"/>
<defs>
<radialGradient id="paint0_radial" cx="0" cy="0" r="1" gradientUnits="userSpaceOnUse" gradientTransform="translate(240) rotate(90) scale(245)">
<stop stop-color="#256C76"/>
<stop offset="1" stop-color="#1F3367"/>
</radialGradient>
<linearGradient id="paint1_linear" x1="258.213" y1="0.74821" x2="258.213" y2="598.568" gradientUnits="userSpaceOnUse">
<stop stop-color="#5B3157"/>
<stop offset="1" stop-color="#36305D"/>
</linearGradient>
<radialGradient id="paint2_radial" cx="0" cy="0" r="1" gradientUnits="userSpaceOnUse" gradientTransform="translate(269.5 378) rotate(90) scale(67 67.5)">
<stop stop-color="#43606C" stop-opacity="0.65"/>
<stop offset="1" stop-color="#43606C" stop-opacity="0"/>
</radialGradient>
<linearGradient id="paint3_linear" x1="169.172" y1="423.799" x2="169.172" y2="599.033" gradientUnits="userSpaceOnUse">
<stop stop-color="#9A6721"/>
<stop offset="1" stop-color="#6F134F"/>
</linearGradient>
</defs>
</svg>
