<svg width="480" height="600" viewBox="0 0 480 600" fill="none" xmlns="http://www.w3.org/2000/svg">
<rect width="480" height="599.492" fill="#FFD7AC"/>
<path d="M419 0V47.8767C416.75 77.7996 402.461 105.44 333.275 92.761C276.127 82.288 252.809 20.946 267.098 0H419Z" fill="#B56949"/>
<path d="M175 1V14.4858C171.234 54.1938 133.889 92.7239 71.0519 84.9114C10.7922 77.4193 1 36.962 1 1H175Z" fill="#B56949"/>
<path d="M411 0H354L361.5 598.493H411V0Z" fill="#F2946C"/>
<path d="M478.987 346.131L72.9438 1H116.5L478.987 299.747V346.131Z" fill="#FFEF9C" fill-opacity="0.14"/>
<path d="M478.991 227.231L229.444 0.5H273L478.991 180.847V227.231Z" fill="#FFEF9C" fill-opacity="0.14"/>
<path d="M135 0H99L49 598.493H113L135 0Z" fill="#F2946C"/>
<path d="M165.394 598.493L0 279.046V231.804L232 598.493H165.394Z" fill="#FFEF9C" fill-opacity="0.14"/>
<path d="M180.096 598.493H131L146.862 0H202L180.096 598.493Z" fill="#DD756E"/>
<path d="M43 598.493H0V0H66L43 598.493Z" fill="#8A4152"/>
<path d="M480 598.493H420L431.4 0H480V598.493Z" fill="#DD756E"/>
<path d="M480 455.372L0 40.4733V9L480 387.679V455.372Z" fill="#FFEF9C" fill-opacity="0.14"/>
<path fill-rule="evenodd" clip-rule="evenodd" d="M394.343 599.492H152.369C166.103 533.374 189.826 384.76 189.826 318.866C189.826 273.312 181.573 217.863 171.146 162.039L0.5 50.9312V28.4759L105.921 98.8036L161.564 113.059C159.156 101.164 156.731 89.3805 154.347 77.8047C148.679 50.2702 143.252 23.9085 138.884 0H196.381H253.878H311.375H341.153L341.052 1.02187L341.052 1.02236C337.875 33.0319 334.706 64.9564 332.339 97.589L356.885 80.8399L401.085 0.749146H422.061L377.112 101.798L328.83 167.066C327.861 205.226 328.598 244.973 332.164 287.429C337.482 350.751 373.616 524.391 394.343 599.492Z" fill="url(#paint0_linear)"/>
<path d="M419 66.9433V259.78" stroke="#4D513E" stroke-width="2"/>
<path d="M203 39.9662C203 130.766 171.532 171.766 106.348 169.788C32.173 167.537 12.6925 79.7381 16.4377 39.9662" stroke="#4D563B" stroke-width="2"/>
<path d="M255.456 35.9695C250.227 84.0756 290.566 117.9 343.604 117.9C396.642 117.9 416.097 72.3925 413.823 47.9961" stroke="#4D563B" stroke-width="2"/>
<path d="M175 35.9695C175 60.7956 145 99.9154 109 99.9154C66.25 99.9154 37.0003 68.3186 37 35.9695" stroke="#4D563B" stroke-width="2"/>
<ellipse cx="269.5" cy="377.68" rx="67.5" ry="66.9433" fill="url(#paint1_radial)"/>
<path d="M304.355 227.111L256.674 201.799C255.935 201.407 255.03 201.517 254.405 202.076L212.232 239.768C211.806 240.148 211.562 240.692 211.562 241.263L211.562 288.994C211.562 289.738 211.975 290.419 212.633 290.763L266.215 318.773C266.955 319.16 267.858 319.044 268.48 318.484L310.533 280.586C311.015 280.152 311.257 279.511 311.183 278.867L305.401 228.645C305.326 227.992 304.935 227.418 304.355 227.111Z" fill="#2F1E3A"/>
<path d="M480 73.8436V0H322C322 61.8087 413.79 96.8088 480 73.8436Z" fill="#43606C"/>
<path d="M0 37.2855V0H196C196 46.6069 53.687 82.1976 0 37.2855Z" fill="#43606C"/>
<path d="M159 0H346C346 18.738 314.966 52.9551 252.898 52.9551C190.83 52.9551 159 20.3674 159 0Z" fill="#43606C"/>
<path d="M239.383 386.357L254.459 341.79C254.936 340.379 256.734 339.967 257.779 341.028L292.125 375.923C292.661 376.466 292.84 377.268 292.587 377.988L276.609 423.519C276.111 424.938 274.285 425.32 273.259 424.221L239.815 388.362C239.313 387.824 239.147 387.054 239.383 386.357Z" fill="#D9E6E8"/>
<path d="M343.859 418.68L342.014 424.431L335.713 424.43L335.094 416.676L337.647 413.572L343.235 414.628L343.859 418.68Z" fill="#1C0E4C"/>
<path d="M363.446 418.065L364.265 424.216L370.278 425.326L372.436 417.854L370.555 414.302L364.868 414.22L363.446 418.065Z" fill="#1C0E4C"/>
<path d="M335.537 423.872L302.44 600H442.022L369.353 423.872H335.537Z" fill="#1C0E4C"/>
<path d="M346.689 433.218H343.451L339.134 442.204H346.689V433.218Z" fill="#1A2E75"/>
<path d="M304.598 495.042L329.781 459.457V510.498L322.945 529.908L295.964 533.862L275.818 510.498L304.598 495.042Z" fill="#1C0E4C"/>
<path d="M365.036 493.604V464.849L374.389 498.637L337.695 507.263L348.487 528.111H337.695L329.061 503.669L365.036 493.604Z" fill="#1A2E75"/>
<ellipse cx="351.725" cy="432.14" rx="1.07925" ry="1.07833" fill="#00F3F3"/>
<ellipse cx="340.214" cy="432.14" rx="1.07925" ry="1.07833" fill="#00F3F3"/>
<path d="M249.197 559.023L315.031 538.535L325.824 600H269.343L249.197 559.023Z" fill="#1C0E4C"/>
<path d="M353.165 600H342.732L332.299 563.337L363.597 545.365L339.135 565.134L353.165 600Z" fill="#1A2E75"/>
<path fill-rule="evenodd" clip-rule="evenodd" d="M265.075 507.99C262.597 501.204 255.607 495.802 246.641 497.566C236.369 499.588 221.539 501.977 204.709 501.989C200.744 506.73 196.068 512.954 194.467 518.243C193.662 520.902 193.652 523.267 194.831 525.086C196.01 526.905 198.431 528.26 202.679 528.776C212.899 530.018 222.972 530.845 232.177 530.673C241.385 530.501 249.706 529.329 256.433 526.586C260.991 524.727 263.761 521.765 265.09 518.437C266.42 515.105 266.314 511.381 265.075 507.99ZM265.603 518.642C264.214 522.122 261.326 525.187 256.641 527.097C249.826 529.877 241.427 531.052 232.187 531.225C222.945 531.398 212.843 530.568 202.612 529.324C198.292 528.799 195.676 527.404 194.367 525.386C193.06 523.369 193.112 520.81 193.938 518.083C195.587 512.635 200.391 506.282 204.368 501.536L204.451 501.437H204.58C221.413 501.437 236.253 499.048 246.534 497.025C255.809 495.199 263.037 500.801 265.595 507.801C266.874 511.302 266.991 515.167 265.603 518.642Z" fill="#111111"/>
<path d="M196.11 424.881C194.728 416.321 211.034 420.187 209.652 434.546C208.547 440.069 196.11 430.956 196.11 424.881Z" fill="#9A6721"/>
<path d="M198.101 425.926C197.154 420.269 208.331 422.823 207.384 432.313C206.626 435.962 198.101 429.94 198.101 425.926Z" fill="#FBAB7E"/>
<path d="M185.885 425.158C179.805 409.418 161.841 427.643 175.107 434.27C180.081 436.203 187.544 430.405 185.885 425.158Z" fill="#9A6721"/>
<path d="M182.972 425.785C179.14 415.838 167.818 427.356 176.179 431.544C179.314 432.766 184.017 429.101 182.972 425.785Z" fill="#FBAB7E"/>
<path fill-rule="evenodd" clip-rule="evenodd" d="M74.5518 599.674L248.896 599.674C254.424 575.927 238.714 554.315 224.852 535.335C223.703 533.761 222.608 532.236 221.567 530.756C234.966 531.43 247.248 530.63 256.538 526.842C275.024 519.303 264.829 493.706 246.588 497.296C243.635 497.877 240.305 498.488 236.659 499.065C233.984 488.814 222.053 481.579 204.576 488.532C205.13 485.845 206.182 483.369 207.607 480.937C224.723 451.726 216.178 441.413 208.517 432.167L208.517 432.166C208.211 431.798 207.908 431.431 207.607 431.065C199.758 421.51 179.076 423.401 176.331 431.065C174.325 436.666 171.628 441.081 168.004 447.011C166.669 449.197 165.208 451.589 163.609 454.322C154.931 467.682 126.189 506.065 95.4908 529.377C68.3496 551.153 70.2227 585.315 74.5518 599.674Z" fill="url(#paint2_linear)"/>
<path fill-rule="evenodd" clip-rule="evenodd" d="M127.181 503.416C130.251 496.662 135.336 489.311 142.371 481.852L142.774 482.231C135.769 489.657 130.723 496.958 127.684 503.644C124.644 510.333 123.621 516.385 124.632 521.325C125.64 526.251 128.674 530.1 133.82 532.4C138.978 534.705 146.271 535.456 155.779 534.131C161.37 533.352 166.639 533.081 172.173 532.796C184.543 532.16 198.235 531.457 219.797 524.854C232.655 520.918 238.03 509.797 236.464 500.505C235.682 495.859 233.165 491.673 228.981 489.053C224.798 486.433 218.916 485.36 211.37 487.005C190.537 491.547 172.336 498.725 162.753 502.504C161.114 503.15 159.727 503.697 158.622 504.114L158.427 503.598C159.527 503.182 160.909 502.637 162.544 501.992C172.122 498.215 190.37 491.018 211.252 486.466C218.906 484.797 224.943 485.872 229.275 488.585C233.606 491.297 236.203 495.629 237.009 500.413C238.622 509.981 233.08 521.365 219.959 525.382C198.332 532.004 184.527 532.716 172.13 533.354C166.615 533.638 161.378 533.908 155.855 534.678C146.291 536.011 138.882 535.267 133.594 532.904C128.293 530.535 125.136 526.543 124.091 521.435C123.048 516.341 124.112 510.166 127.181 503.416Z" fill="black"/>
<path fill-rule="evenodd" clip-rule="evenodd" d="M181.847 535.036C168.038 533.433 137.781 532.121 110.883 553.07L110.543 552.634C137.615 531.55 168.055 532.88 181.91 534.487C192.337 535.697 200.951 542.886 204.656 552.252C208.366 561.628 207.155 573.18 197.955 583.102L197.549 582.727C206.604 572.961 207.774 561.634 204.142 552.455C200.506 543.264 192.056 536.22 181.847 535.036ZM167.51 573.279C162.033 578.076 146.957 590.111 130.431 599.912L130.149 599.437C146.64 589.658 161.688 577.644 167.146 572.863L167.51 573.279Z" fill="black"/>
<path fill-rule="evenodd" clip-rule="evenodd" d="M198.994 582.569C195.683 583.934 192.276 585.339 188.748 586.683L188.551 586.167C192.045 584.836 195.436 583.438 198.74 582.076C204.945 579.517 210.844 577.084 216.547 575.461C225.308 572.967 233.677 572.357 242.121 576.103C244.951 577.359 246.864 579.032 248.122 580.954C249.377 582.874 249.968 585.026 250.181 587.227C250.394 589.426 250.231 591.682 249.973 593.816C249.855 594.79 249.719 595.728 249.59 596.625C249.432 597.714 249.283 598.743 249.186 599.703L248.636 599.647C248.733 598.688 248.886 597.631 249.046 596.523C249.176 595.623 249.311 594.69 249.424 593.75C249.681 591.63 249.838 589.42 249.631 587.28C249.424 585.141 248.853 583.082 247.659 581.256C246.466 579.432 244.641 577.826 241.896 576.608C233.616 572.934 225.392 573.517 216.699 575.992C211.023 577.607 205.177 580.019 198.994 582.569Z" fill="black"/>
<path fill-rule="evenodd" clip-rule="evenodd" d="M163.013 501.743C164.655 499.829 167.13 495.984 169.623 492.109L170.088 492.408L170.073 492.431C167.596 496.28 165.103 500.155 163.432 502.103L163.013 501.743Z" fill="black"/>
<path fill-rule="evenodd" clip-rule="evenodd" d="M179.817 418.737C182.274 419.16 184.6 421.064 186.143 425.058L185.627 425.257C184.13 421.382 181.931 419.661 179.724 419.282C177.501 418.899 175.185 419.859 173.432 421.526C171.68 423.193 170.533 425.528 170.616 427.827C170.698 430.106 171.99 432.404 175.23 434.023L174.983 434.517C171.59 432.822 170.154 430.357 170.063 427.847C169.973 425.357 171.21 422.877 173.051 421.126C174.891 419.376 177.376 418.317 179.817 418.737Z" fill="black"/>
<path fill-rule="evenodd" clip-rule="evenodd" d="M197.822 420.518C196.369 421.308 195.551 422.973 195.836 425.465L196.385 425.402C196.117 423.062 196.888 421.655 198.086 421.004C199.309 420.339 201.068 420.408 202.87 421.232C206.456 422.873 210.057 427.454 209.377 434.52L209.927 434.572C210.629 427.28 206.907 422.472 203.1 420.73C201.205 419.863 199.251 419.742 197.822 420.518Z" fill="black"/>
<path d="M209.652 444.487L216.285 442.554C216.285 442.554 214.765 438.412 212.139 435.098C209.514 431.785 203.848 427.643 203.848 427.643L209.652 444.487Z" fill="#C68731"/>
<path d="M199.15 433.994C199.15 434.909 198.408 435.651 197.492 435.651C196.576 435.651 195.833 434.909 195.833 433.994C195.833 433.079 196.576 432.337 197.492 432.337C198.408 432.337 199.15 433.079 199.15 433.994Z" fill="#111111"/>
<path fill-rule="evenodd" clip-rule="evenodd" d="M156.257 465.364C143.822 481.746 121.102 509.479 103.971 522.576C88.1134 534.701 79.3107 547.014 75.2899 559.718C71.2685 572.425 72.0202 585.556 75.3298 599.334L74.7923 599.463C71.4691 585.628 70.7006 572.388 74.7629 559.552C78.8259 546.714 87.7108 534.313 103.635 522.138C120.699 509.091 143.379 481.416 155.817 465.03L156.257 465.364Z" fill="black"/>
<path fill-rule="evenodd" clip-rule="evenodd" d="M197.688 536.313C196.765 538.878 197.33 541.894 200.454 545.083L200.059 545.469C196.826 542.169 196.156 538.937 197.168 536.126C198.171 533.343 200.797 531.046 203.997 529.528C207.203 528.008 211.028 527.246 214.495 527.566C217.961 527.886 221.106 529.293 222.877 532.152C223.836 533.699 225.322 535.813 227.122 538.373C227.728 539.235 228.37 540.148 229.039 541.107C231.691 544.906 234.764 549.416 237.729 554.323C243.654 564.13 249.167 575.561 250.002 586.122L249.451 586.165C248.627 575.74 243.172 564.402 237.256 554.609C234.301 549.717 231.235 545.219 228.586 541.422C227.922 540.471 227.283 539.563 226.679 538.704C224.875 536.138 223.375 534.005 222.407 532.443C220.757 529.779 217.803 528.426 214.444 528.116C211.086 527.806 207.359 528.545 204.234 530.027C201.104 531.512 198.622 533.72 197.688 536.313Z" fill="black"/>
<path fill-rule="evenodd" clip-rule="evenodd" d="M203.869 575.955C203.68 575.536 203.435 575.228 203.154 575.059L203.438 574.586C203.848 574.832 204.156 575.248 204.373 575.727C204.591 576.209 204.726 576.775 204.78 577.351C204.887 578.49 204.681 579.748 204.065 580.518L203.633 580.173C204.122 579.562 204.33 578.473 204.23 577.403C204.18 576.875 204.057 576.37 203.869 575.955Z" fill="black"/>
<path d="M215.731 442.554L209.099 444.487L215.731 449.457C217.113 449.457 218.606 449.016 217.942 446.144C217.279 443.272 216.192 442.554 215.731 442.554Z" fill="black"/>
<path fill-rule="evenodd" clip-rule="evenodd" d="M207.944 457.445C206.486 456.92 204.806 455.973 202.864 454.656L203.175 454.199C205.102 455.506 206.738 456.423 208.131 456.925C209.524 457.427 210.644 457.503 211.562 457.171C212.475 456.841 213.242 456.086 213.888 454.808C214.535 453.528 215.048 451.746 215.46 449.409L216.005 449.505C215.201 454.057 215.141 456.979 215.468 458.441C215.549 458.804 215.65 459.057 215.756 459.22C215.86 459.38 215.952 459.426 216.015 459.436C216.081 459.446 216.188 459.429 216.346 459.309C216.504 459.191 216.686 458.99 216.884 458.693L217.344 458.999C217.128 459.324 216.905 459.58 216.679 459.75C216.453 459.92 216.197 460.023 215.93 459.982C215.66 459.94 215.449 459.761 215.292 459.521C215.137 459.282 215.017 458.957 214.928 458.561C214.713 457.598 214.659 456.096 214.833 454.033C214.691 454.401 214.54 454.743 214.381 455.057C213.697 456.411 212.84 457.296 211.75 457.69C210.664 458.083 209.4 457.97 207.944 457.445Z" fill="black"/>
<path d="M314.746 511.212C328.997 518.749 347.75 545.126 355.25 539.85C362.749 534.575 366.498 496.893 340.997 499.154C315.496 501.415 308.746 559.444 225.489 521.763C200.736 509.705 195.701 488.114 208.987 485.589" stroke="#FFD12D"/>
<path d="M235.826 510.902C286.903 516.872 319.999 481.483 324.46 450.456C326.714 434.785 318.451 416.875 302.677 411.651" stroke="#FFD12D"/>
<path d="M239.386 423.641C227.435 435.665 228.524 458.898 239.386 474.743C254.325 496.537 295.904 501.046 314.826 511.567" stroke="#FFD12D"/>
<path d="M391.5 598.493L0 138.846V102.913L480 513.9V598.493H391.5Z" fill="#FFEF9C" fill-opacity="0.14"/>
<defs>
<linearGradient id="paint0_linear" x1="258.213" y1="0.749365" x2="258.213" y2="599.492" gradientUnits="userSpaceOnUse">
<stop stop-color="#5B3157"/>
<stop offset="1" stop-color="#36305D"/>
</linearGradient>
<radialGradient id="paint1_radial" cx="0" cy="0" r="1" gradientUnits="userSpaceOnUse" gradientTransform="translate(269.5 377.68) rotate(90) scale(66.9433 67.5)">
<stop stop-color="#43606C" stop-opacity="0.65"/>
<stop offset="1" stop-color="#43606C" stop-opacity="0"/>
</radialGradient>
<linearGradient id="paint2_linear" x1="169.172" y1="424.589" x2="169.172" y2="599.674" gradientUnits="userSpaceOnUse">
<stop stop-color="#9A6721"/>
<stop offset="1" stop-color="#822D0E"/>
</linearGradient>
</defs>
</svg>
