<svg width="280" height="401" viewBox="0 0 280 401" fill="none" xmlns="http://www.w3.org/2000/svg">
<path d="M0 0H279.681V400H0V0Z" fill="#FFD7AC"/>
<path d="M279.177 0V32C277.682 52 268.193 70.4747 222.245 62C184.293 55 168.808 14 178.297 0H279.177Z" fill="#B56949"/>
<path d="M116.367 1V10C113.87 36.5 89.1093 62.2139 47.4458 57C7.49138 52 0.998779 25 0.998779 1H116.367Z" fill="#B56949"/>
<path d="M248.717 0H210.76L215.754 400H248.717V0Z" fill="#F2946C"/>
<path d="M279.681 201L20.9761 0H49.9431L279.681 170V201Z" fill="#FFEF9C" fill-opacity="0.14"/>
<path d="M67.9226 0H50.9419L26.9692 400H59.9317L67.9226 0Z" fill="#F2946C"/>
<path d="M110.374 399.5L0 186.5V155L154.824 399.5H110.374Z" fill="#FFEF9C" fill-opacity="0.14"/>
<path d="M103.382 400H70.9192L81.4072 0H117.866L103.382 400Z" fill="#DD756E"/>
<path d="M15.4824 400.5H0V0H36.4584L15.4824 400.5Z" fill="#8A4152"/>
<path d="M279.681 400H254.71L262.201 0H279.681V400Z" fill="#DD756E"/>
<path fill-rule="evenodd" clip-rule="evenodd" d="M238.229 400H76.9123C86.0686 355.833 101.884 257.016 101.884 213C101.884 182.595 96.3905 145.59 89.4474 108.329L0 52V37L45.9476 66L83.0427 75.5224C81.4379 67.5783 79.8211 59.7091 78.2327 51.9782L78.2316 51.9729C74.4526 33.5801 70.8346 15.9707 67.9226 0H106.254H144.585H182.917H202.769L202.701 0.682331C200.583 22.0645 198.471 43.3899 196.893 65.1882L213.257 54L242.723 0.5H256.707L226.742 68L194.554 111.598C193.907 137.089 194.399 163.64 196.776 192C200.321 234.298 224.411 349.833 238.229 400Z" fill="url(#paint0_linear)"/>
<path d="M176.794 144.106L145.722 127.579C144.984 127.186 144.079 127.297 143.454 127.857L115.907 152.526C115.482 152.906 115.239 153.451 115.239 154.021L115.239 185.206C115.239 185.95 115.65 186.631 116.307 186.975L151.265 205.285C152.004 205.672 152.907 205.557 153.528 204.996L180.965 180.221C181.446 179.786 181.688 179.146 181.614 178.502L177.838 145.641C177.763 144.988 177.373 144.414 176.794 144.106Z" fill="#2F1E3A"/>
<path d="M279.681 287L0 24V3L279.681 261.5V287Z" fill="#FFEF9C" fill-opacity="0.14"/>
<path fill-rule="evenodd" clip-rule="evenodd" d="M253.711 173.5V45H255.709V173.5H253.711Z" fill="#4D513E"/>
<path fill-rule="evenodd" clip-rule="evenodd" d="M22.367 79.1753C31.3737 97.0853 46.7043 111.765 70.9492 112.5C92.4424 113.153 108.197 106.732 118.628 92.8312C129.109 78.862 134.347 57.1712 134.347 27H136.344C136.344 57.3288 131.094 79.5472 120.225 94.0324C109.305 108.586 92.8462 115.166 70.8887 114.5C45.6897 113.735 29.8056 98.4147 20.5827 80.0747C11.3771 61.7692 8.72711 40.3288 9.9916 26.9061L11.9805 27.0939C10.7485 40.1712 13.343 61.2309 22.367 79.1753Z" fill="#4D563B"/>
<path fill-rule="evenodd" clip-rule="evenodd" d="M185.83 62.505C175.324 53.0869 169.587 39.776 171.299 24.1087L169.313 23.8912C167.529 40.224 173.529 54.163 184.498 63.995C195.448 73.8107 211.306 79.5 229.239 79.5C247.29 79.5 259.692 71.7791 267.367 61.9516C275.008 52.1665 277.965 40.2906 277.18 31.9066L275.191 32.0933C275.926 39.9378 273.14 51.3119 265.793 60.7197C258.479 70.0851 246.647 77.5 229.239 77.5C211.712 77.5 196.355 71.9392 185.83 62.505Z" fill="#4D563B"/>
<path fill-rule="evenodd" clip-rule="evenodd" d="M25.4709 24C25.4711 44.8911 44.4431 65.5 72.4174 65.5C84.0402 65.5 94.7814 59.1886 102.652 50.7548C110.54 42.3027 115.368 31.9099 115.368 24H117.366C117.366 32.5901 112.206 43.4474 104.112 52.1202C96.0009 60.8114 84.7672 67.5 72.4174 67.5C43.4565 67.5 23.4734 46.109 23.4731 24L25.4709 24Z" fill="#4D563B"/>
<path d="M197.774 257C197.774 281.853 177.65 302 152.826 302C128.001 302 107.877 281.853 107.877 257C107.877 232.147 128.001 212 152.826 212C177.65 212 197.774 232.147 197.774 257Z" fill="url(#paint1_radial)"/>
<path d="M279.681 49.5806V0H174.801C174.801 41.5 235.731 65 279.681 49.5806Z" fill="#43606C"/>
<path d="M0 22V0H114.869C114.869 27.5 31.4641 48.5 0 22Z" fill="#43606C"/>
<path d="M85.4026 0H202.769C202.769 11.5 183.291 32.5 144.335 32.5C105.38 32.5 85.4026 12.5 85.4026 0Z" fill="#43606C"/>
<path d="M134.225 257.604L143.795 229.097C144.271 227.681 146.073 227.268 147.117 228.336L168.941 250.678C169.471 251.221 169.648 252.018 169.399 252.735L159.256 281.859C158.76 283.283 156.928 283.667 155.905 282.56L134.654 259.6C134.157 259.063 133.992 258.298 134.225 257.604Z" fill="#D9E6E8"/>
<path d="M202.689 278.693L201.458 282.534L197.256 282.534L196.844 277.356L198.547 275.282L202.273 275.987L202.689 278.693Z" fill="#1C0E4C"/>
<path d="M215.747 278.282L216.293 282.391L220.303 283.133L221.741 278.142L220.486 275.77L216.694 275.714L215.747 278.282Z" fill="#1C0E4C"/>
<path d="M197.141 282.164L175.076 399.815L268.131 400L219.685 282.164H197.141Z" fill="#1C0E4C"/>
<path d="M204.575 288.406H202.417L199.539 294.409H204.575V288.406Z" fill="#1A2E75"/>
<path d="M176.515 329.705L193.303 305.934V340.029L188.746 352.995L170.759 355.636L157.328 340.029L176.515 329.705Z" fill="#1C0E4C"/>
<path d="M216.806 328.744V309.536L223.042 332.106L198.579 337.868L205.774 351.794H198.579L192.823 335.467L216.806 328.744Z" fill="#1A2E75"/>
<path d="M208.652 287.686C208.652 288.084 208.33 288.406 207.933 288.406C207.535 288.406 207.213 288.084 207.213 287.686C207.213 287.288 207.535 286.966 207.933 286.966C208.33 286.966 208.652 287.288 208.652 287.686Z" fill="#00F3F3"/>
<path d="M200.978 287.686C200.978 288.084 200.655 288.406 200.258 288.406C199.861 288.406 199.539 288.084 199.539 287.686C199.539 287.288 199.861 286.966 200.258 286.966C200.655 286.966 200.978 287.288 200.978 287.686Z" fill="#00F3F3"/>
<path d="M139.581 372.443L183.47 358.757L190.665 399.815H153.011L139.581 372.443Z" fill="#1C0E4C"/>
<path d="M208.892 399.815H201.937L194.982 375.325L215.847 363.319L199.539 376.525L208.892 399.815Z" fill="#1A2E75"/>
<path fill-rule="evenodd" clip-rule="evenodd" d="M150.166 338.681C148.514 334.149 143.854 330.54 137.877 331.719C131.028 333.069 121.142 334.665 109.922 334.673C107.278 337.84 104.161 341.997 103.094 345.53C102.557 347.307 102.551 348.886 103.337 350.101C104.123 351.316 105.736 352.222 108.568 352.566C115.382 353.396 122.097 353.948 128.234 353.833C134.372 353.719 139.92 352.936 144.404 351.104C147.444 349.862 149.29 347.883 150.176 345.66C151.063 343.434 150.992 340.947 150.166 338.681ZM150.518 345.797C149.592 348.122 147.667 350.169 144.544 351.445C140 353.302 134.401 354.087 128.241 354.202C122.079 354.318 115.345 353.763 108.524 352.933C105.644 352.582 103.9 351.65 103.028 350.302C102.156 348.954 102.191 347.245 102.741 345.423C103.84 341.784 107.043 337.54 109.694 334.37L109.75 334.304H109.836C121.058 334.304 130.951 332.708 137.805 331.357C143.988 330.137 148.808 333.879 150.512 338.555C151.365 340.894 151.443 343.476 150.518 345.797Z" fill="#111111"/>
<path d="M104.189 283.166C103.268 277.447 114.139 280.03 113.217 289.622C112.48 293.311 104.189 287.224 104.189 283.166Z" fill="#9A6721"/>
<path d="M105.517 283.863C104.885 280.084 112.337 281.791 111.705 288.13C111.2 290.567 105.517 286.545 105.517 283.863Z" fill="#FBAB7E"/>
<path d="M97.3727 283.35C93.3193 272.836 81.3432 285.01 90.187 289.437C93.5034 290.728 98.4782 286.855 97.3727 283.35Z" fill="#9A6721"/>
<path d="M95.4305 283.769C92.8758 277.124 85.3278 284.819 90.9017 287.616C92.9919 288.432 96.1273 285.984 95.4305 283.769Z" fill="#FBAB7E"/>
<path fill-rule="evenodd" clip-rule="evenodd" d="M23.1504 399.926L139.38 399.926C143.065 384.063 132.592 369.626 123.351 356.948C122.584 355.897 121.855 354.877 121.161 353.889C130.093 354.339 138.281 353.805 144.474 351.274C156.799 346.238 150.001 329.14 137.841 331.538C135.872 331.926 133.652 332.334 131.222 332.72C129.439 325.872 121.485 321.039 109.833 325.684C110.203 323.889 110.904 322.235 111.854 320.61C123.264 301.098 117.568 294.209 112.461 288.033L112.458 288.029C112.255 287.784 112.054 287.54 111.854 287.297C106.621 280.914 92.8334 282.177 91.0033 287.297C89.6661 291.037 87.8678 293.987 85.4521 297.948C84.5618 299.408 83.5876 301.006 82.5217 302.832C76.7366 311.756 57.5751 337.396 37.1097 352.968C19.0156 367.514 20.2643 390.334 23.1504 399.926Z" fill="url(#paint2_linear)"/>
<path fill-rule="evenodd" clip-rule="evenodd" d="M58.236 335.626C60.2827 331.114 63.6731 326.204 68.3631 321.221L68.6313 321.475C63.9618 326.435 60.5976 331.312 58.5715 335.778C56.5446 340.246 55.8631 344.289 56.5369 347.589C57.2088 350.879 59.2316 353.451 62.662 354.987C66.1008 356.527 70.9626 357.028 77.3013 356.143C81.0288 355.623 84.5417 355.442 88.2309 355.252C96.4777 354.827 105.605 354.357 119.981 349.947C128.552 347.317 132.136 339.888 131.092 333.681C130.57 330.578 128.893 327.782 126.103 326.031C123.314 324.281 119.393 323.565 114.362 324.664C100.473 327.698 88.3396 332.492 81.9507 335.017C80.8582 335.448 79.9337 335.814 79.1971 336.093L79.0668 335.747C79.7999 335.47 80.7214 335.106 81.8113 334.675C88.1967 332.152 100.362 327.344 114.284 324.304C119.386 323.189 123.411 323.907 126.299 325.719C129.187 327.531 130.918 330.424 131.455 333.62C132.53 340.011 128.836 347.616 120.089 350.299C105.67 354.723 96.4667 355.198 88.2025 355.625C84.5253 355.814 81.0341 355.995 77.3522 356.509C70.9763 357.399 66.0372 356.902 62.5116 355.324C58.9777 353.741 56.8726 351.075 56.1759 347.663C55.4811 344.26 56.1903 340.135 58.236 335.626Z" fill="black"/>
<path fill-rule="evenodd" clip-rule="evenodd" d="M94.6801 356.748C85.4742 355.678 65.3027 354.8 47.3708 368.794L47.1443 368.504C65.1921 354.419 85.4859 355.307 94.7226 356.381C101.673 357.19 107.416 361.992 109.886 368.248C112.359 374.511 111.552 382.228 105.419 388.856L105.148 388.605C111.185 382.082 111.965 374.516 109.544 368.384C107.12 362.244 101.486 357.539 94.6801 356.748ZM85.1224 382.294C81.471 385.498 71.4205 393.538 60.4031 400.085L60.215 399.767C71.2087 393.235 81.2409 385.209 84.8795 382.016L85.1224 382.294Z" fill="black"/>
<path fill-rule="evenodd" clip-rule="evenodd" d="M106.111 388.5C103.904 389.412 101.633 390.35 99.2807 391.248L99.1494 390.903C101.479 390.014 103.739 389.08 105.942 388.17C110.079 386.461 114.011 384.836 117.814 383.751C123.654 382.085 129.233 381.678 134.863 384.181C136.75 385.019 138.025 386.137 138.863 387.421C139.701 388.703 140.094 390.141 140.236 391.611C140.378 393.08 140.27 394.587 140.098 396.013C140.019 396.663 139.929 397.29 139.842 397.889C139.737 398.616 139.638 399.303 139.573 399.945L139.206 399.908C139.271 399.267 139.373 398.561 139.479 397.821C139.566 397.22 139.656 396.596 139.732 395.968C139.903 394.552 140.008 393.076 139.87 391.647C139.732 390.218 139.351 388.842 138.555 387.622C137.76 386.404 136.543 385.331 134.713 384.518C129.193 382.064 123.71 382.453 117.915 384.106C114.131 385.185 110.233 386.796 106.111 388.5Z" fill="black"/>
<path fill-rule="evenodd" clip-rule="evenodd" d="M82.1245 334.509C83.2195 333.23 84.8692 330.662 86.5313 328.073L86.8413 328.273L86.8315 328.288C85.1804 330.859 83.518 333.448 82.4043 334.749L82.1245 334.509Z" fill="black"/>
<path fill-rule="evenodd" clip-rule="evenodd" d="M93.3274 279.061C94.9651 279.344 96.5158 280.615 97.5445 283.284L97.2007 283.417C96.2027 280.828 94.7364 279.679 93.2649 279.425C91.7834 279.17 90.2388 279.811 89.0704 280.924C87.9022 282.038 87.1376 283.598 87.1928 285.133C87.2476 286.656 88.1093 288.191 90.2694 289.272L90.1046 289.602C87.8427 288.47 86.8849 286.824 86.8246 285.147C86.7647 283.483 87.5893 281.827 88.8163 280.657C90.043 279.488 91.6997 278.781 93.3274 279.061Z" fill="black"/>
<path fill-rule="evenodd" clip-rule="evenodd" d="M105.331 280.251C104.362 280.779 103.816 281.891 104.006 283.555L104.372 283.514C104.194 281.95 104.708 281.01 105.507 280.575C106.322 280.131 107.495 280.177 108.696 280.728C111.086 281.824 113.487 284.884 113.034 289.604L113.401 289.639C113.869 284.768 111.387 281.556 108.849 280.392C107.586 279.813 106.283 279.732 105.331 280.251Z" fill="black"/>
<path d="M113.217 296.262L117.639 294.971C117.639 294.971 116.626 292.204 114.876 289.99C113.125 287.777 109.348 285.01 109.348 285.01L113.217 296.262Z" fill="#C68731"/>
<path d="M106.216 289.253C106.216 289.864 105.721 290.359 105.11 290.359C104.5 290.359 104.005 289.864 104.005 289.253C104.005 288.641 104.5 288.146 105.11 288.146C105.721 288.146 106.216 288.641 106.216 289.253Z" fill="#111111"/>
<path fill-rule="evenodd" clip-rule="evenodd" d="M77.6207 310.208C69.3307 321.151 54.1837 339.676 42.7634 348.425C32.1915 356.524 26.323 364.749 23.6425 373.236C20.9615 381.724 21.4627 390.495 23.6691 399.699L23.3108 399.785C21.0953 390.543 20.583 381.699 23.2912 373.124C25.9998 364.549 31.9231 356.265 42.5395 348.132C53.9151 339.417 69.035 320.93 77.3271 309.985L77.6207 310.208Z" fill="black"/>
<path fill-rule="evenodd" clip-rule="evenodd" d="M105.242 357.601C104.626 359.314 105.003 361.329 107.085 363.459L106.822 363.717C104.667 361.512 104.22 359.354 104.895 357.476C105.563 355.617 107.314 354.083 109.448 353.069C111.585 352.053 114.135 351.544 116.446 351.758C118.757 351.972 120.853 352.912 122.034 354.822C122.673 355.855 123.664 357.267 124.864 358.977C125.268 359.553 125.696 360.163 126.142 360.803C127.91 363.341 129.959 366.353 131.936 369.632C135.885 376.182 139.561 383.818 140.117 390.873L139.75 390.902C139.201 383.938 135.564 376.364 131.62 369.822C129.65 366.554 127.606 363.55 125.84 361.014C125.397 360.379 124.972 359.772 124.569 359.198C123.366 357.484 122.366 356.059 121.721 355.016C120.621 353.236 118.652 352.332 116.412 352.125C114.173 351.918 111.689 352.412 109.606 353.402C107.519 354.394 105.864 355.869 105.242 357.601Z" fill="black"/>
<path fill-rule="evenodd" clip-rule="evenodd" d="M109.362 384.081C109.236 383.802 109.072 383.596 108.885 383.483L109.075 383.167C109.348 383.331 109.553 383.609 109.698 383.929C109.843 384.251 109.934 384.629 109.97 385.014C110.041 385.775 109.903 386.615 109.492 387.129L109.205 386.899C109.531 386.491 109.67 385.764 109.603 385.049C109.57 384.696 109.487 384.359 109.362 384.081Z" fill="black"/>
<path d="M117.271 294.971L112.849 296.262L117.271 299.582C118.192 299.582 119.187 299.287 118.744 297.369C118.302 295.45 117.578 294.971 117.271 294.971Z" fill="black"/>
<path fill-rule="evenodd" clip-rule="evenodd" d="M112.078 304.918C111.107 304.567 109.987 303.934 108.692 303.055L108.899 302.75C110.184 303.623 111.275 304.235 112.203 304.571C113.132 304.906 113.879 304.957 114.491 304.735C115.1 304.514 115.611 304.01 116.041 303.156C116.473 302.301 116.814 301.111 117.089 299.55L117.452 299.614C116.916 302.655 116.877 304.607 117.094 305.583C117.148 305.825 117.216 305.995 117.286 306.103C117.356 306.211 117.417 306.241 117.459 306.248C117.503 306.255 117.575 306.243 117.68 306.163C117.785 306.084 117.907 305.95 118.039 305.751L118.345 305.956C118.201 306.173 118.053 306.344 117.902 306.458C117.752 306.571 117.581 306.64 117.403 306.612C117.223 306.584 117.082 306.465 116.978 306.305C116.874 306.145 116.794 305.928 116.735 305.663C116.591 305.02 116.555 304.017 116.671 302.639C116.576 302.885 116.476 303.113 116.37 303.323C115.914 304.227 115.343 304.818 114.616 305.082C113.892 305.344 113.05 305.268 112.078 304.918Z" fill="black"/>
<path fill-rule="evenodd" clip-rule="evenodd" d="M108.4 334.303C110.248 339.244 115.317 344.909 123.641 348.95L123.654 348.956L123.654 348.956C137.556 355.225 148.305 357.532 156.883 357.414C165.471 357.295 171.852 354.745 177.01 351.355C180.486 349.071 183.414 346.397 186.073 343.854C187.502 344.89 188.979 346.119 190.475 347.445C192.122 348.904 193.771 350.462 195.394 351.995C196.314 352.864 197.225 353.724 198.123 354.555C200.587 356.834 202.946 358.883 205.015 360.139C206.05 360.767 207.044 361.217 207.967 361.385C208.902 361.556 209.788 361.442 210.547 360.91C211.267 360.405 211.898 359.549 212.428 358.499C212.963 357.441 213.416 356.144 213.758 354.71C214.442 351.842 214.696 348.374 214.25 345.058C213.805 341.748 212.654 338.54 210.481 336.249C208.289 333.94 205.106 332.615 200.726 333.002C196.295 333.393 192.719 336.198 189.045 339.626C188.249 340.369 187.448 341.141 186.63 341.93C186.413 342.139 186.195 342.349 185.976 342.56C185.144 341.987 184.325 341.48 183.524 341.057L183.059 341.942C183.767 342.316 184.496 342.762 185.239 343.267C182.635 345.754 179.816 348.315 176.462 350.519C171.444 353.817 165.246 356.298 156.869 356.414C148.483 356.53 137.884 354.275 124.071 348.047C115.917 344.087 111.071 338.592 109.335 333.953C108.466 331.63 108.391 329.567 109.003 328.015C109.605 326.489 110.902 325.382 112.964 324.991L112.779 324.008C110.418 324.455 108.816 325.767 108.074 327.648C107.342 329.503 107.476 331.835 108.4 334.303ZM186.805 343.15C186.991 342.972 187.175 342.794 187.358 342.617C188.166 341.838 188.953 341.079 189.726 340.358C193.402 336.927 196.755 334.357 200.814 333.998C204.924 333.635 207.797 334.873 209.757 336.938C211.735 339.023 212.831 342.002 213.26 345.192C213.689 348.376 213.444 351.72 212.786 354.478C212.458 355.856 212.028 357.075 211.537 358.048C211.041 359.029 210.502 359.72 209.974 360.09C209.485 360.433 208.888 360.537 208.147 360.402C207.394 360.264 206.519 359.882 205.533 359.283C203.56 358.086 201.268 356.103 198.801 353.82C197.919 353.005 197.016 352.151 196.099 351.286C194.466 349.744 192.794 348.164 191.137 346.696C189.685 345.409 188.231 344.195 186.805 343.15Z" fill="#FFD12D"/>
<path fill-rule="evenodd" clip-rule="evenodd" d="M175.458 274.526C186.229 278.12 191.801 290.393 190.278 301.071C187.275 322.115 165.036 346.03 130.792 341.997L130.909 341.003C164.588 344.97 186.359 321.463 189.289 300.929C190.762 290.607 185.347 278.88 175.142 275.474L175.458 274.526Z" fill="#FFD12D"/>
<path fill-rule="evenodd" clip-rule="evenodd" d="M126.629 299.054C126.537 292.778 128.379 286.768 132.495 282.646L133.202 283.354C129.327 287.232 127.538 292.951 127.628 299.039C127.717 305.125 129.686 311.528 133.259 316.716C138.153 323.819 147.454 328.152 157.237 331.591C160.375 332.694 163.539 333.697 166.61 334.671C168.32 335.214 170.001 335.747 171.632 336.283C176.175 337.775 180.325 339.287 183.533 341.062L183.05 341.938C179.932 340.213 175.862 338.725 171.321 337.233C169.71 336.704 168.038 336.173 166.332 335.632C163.25 334.655 160.056 333.642 156.906 332.534C147.128 329.098 137.533 324.681 132.437 317.284C128.749 311.93 126.721 305.333 126.629 299.054Z" fill="#FFD12D"/>
<path d="M224.744 400L0 93V69L280 343.5V400H224.744Z" fill="#FFEF9C" fill-opacity="0.14"/>
<defs>
<linearGradient id="paint0_linear" x1="156.933" y1="0.499375" x2="156.933" y2="399.5" gradientUnits="userSpaceOnUse">
<stop stop-color="#5B3157"/>
<stop offset="1" stop-color="#36305D"/>
</linearGradient>
<radialGradient id="paint1_radial" cx="0" cy="0" r="1" gradientUnits="userSpaceOnUse" gradientTransform="translate(152.826 257) rotate(90) scale(45 44.9488)">
<stop stop-color="#43606C" stop-opacity="0.65"/>
<stop offset="1" stop-color="#43606C" stop-opacity="0"/>
</radialGradient>
<linearGradient id="paint2_linear" x1="86.2305" y1="282.97" x2="86.2305" y2="399.926" gradientUnits="userSpaceOnUse">
<stop stop-color="#9A6721"/>
<stop offset="1" stop-color="#822D0E"/>
</linearGradient>
</defs>
</svg>
