<svg width="480" height="600" viewBox="0 0 480 600" fill="none" xmlns="http://www.w3.org/2000/svg">
<rect width="480" height="600" fill="url(#paint0_radial)"/>
<path d="M366 37.9919L388 599.874H300.615L287 37.9919H366Z" fill="#3B40B0"/>
<path d="M331.017 292.923L295.047 308.657L291.823 428.53L287.783 599.848H465V502.271V428.53L331.017 292.923Z" fill="#1C0E4D"/>
<path d="M298.78 300.773C302.046 301.548 303.919 308.029 303.919 308.029L296.263 315.517C296.263 315.517 290.396 313.285 289.79 310.424C289.183 307.562 289.495 305.502 291.681 303.65C293.866 301.797 295.514 299.998 298.78 300.773Z" fill="#1C0E4C"/>
<path d="M324.533 318.807L331.9 321.78L313.041 328.832L315.567 322.583L324.533 318.807Z" fill="#301D70"/>
<path d="M322.717 291.631C321.352 293.994 324.291 300.823 324.291 300.823L333.957 300.298C333.957 300.298 335.513 293.206 334.631 291.631C333.749 290.055 332.816 288.479 329.011 288.216C325.207 287.954 324.083 289.267 322.717 291.631Z" fill="#1C0E4C"/>
<ellipse cx="306.674" cy="318.994" rx="1.56829" ry="2.37048" fill="#00F3F3"/>
<ellipse cx="327.845" cy="310.303" rx="2.35244" ry="1.58032" fill="#00F3F3"/>
<path d="M140.892 40.9915L91 597.875H148.123L185 40.9915H140.892Z" fill="#3B40B0"/>
<path d="M480 552.875L0 145.008V120.965L480 518.528V552.875Z" fill="#9CE7FF" fill-opacity="0.14"/>
<path d="M480 379.265L0 14.9974V2.5L480 344.928V379.265Z" fill="#9CE7FF" fill-opacity="0.14"/>
<path d="M82.3158 64.9863L51 599.874H87.8421L121 64.9863H82.3158Z" fill="#776CF2"/>
<path d="M101.291 312.665L50.5455 416.263L39 600H236.133L177.125 396.287L135.415 313.826L101.291 312.665Z" fill="#1C0E4C"/>
<path d="M116.278 336.358L110.514 341.004L129.189 342.165L125.27 337.287L116.278 336.358Z" fill="#301D70"/>
<path d="M128.729 308.253L126.192 318.706L132.879 323.119L142.793 313.595L137.721 306.395L128.729 308.253Z" fill="#1C0E4C"/>
<path d="M107.517 307.322L110.053 317.775L103.366 322.188L93.4521 312.665L98.5245 305.464L107.517 307.322Z" fill="#1C0E4C"/>
<ellipse rx="1.84646" ry="1.85673" transform="matrix(0.928057 0.372438 -0.367692 0.929948 108.453 330.393)" fill="#00F3F3"/>
<ellipse rx="1.84646" ry="1.85673" transform="matrix(0.928057 0.372438 -0.367692 0.929948 129.175 330.708)" fill="#00F3F3"/>
<path d="M390.761 63.9866L366 599.874H406.783L433 63.9866H390.761Z" fill="#776CF2"/>
<path d="M169.506 445.514C167.376 466.362 140.212 570.472 119.572 599.874H327.595C303.627 528.373 274 404.706 274 355.925C274 332.252 279.78 36.5097 282 7.99841L231.77 7.99844L174 7.99829C172.003 61.0115 171.637 424.665 169.506 445.514Z" fill="#5D418A"/>
<path d="M209.039 371.851L115 599.615H335L249.588 371.851H209.039Z" fill="#1C0E4C"/>
<path d="M213.785 364.949L215.079 372.282L208.608 375.733L203.432 367.968L204.294 363.223L210.765 361.066L213.785 364.949Z" fill="#1C0E4C"/>
<path d="M244.843 364.949L243.549 372.282L250.02 375.733L255.196 367.968L254.334 363.223L247.863 361.066L244.843 364.949Z" fill="#1C0E4C"/>
<path d="M231.903 381.341H225.001L221.55 392.557H235.354L231.903 381.341Z" fill="#1A2E75"/>
<circle cx="239.235" cy="383.066" r="1.72549" fill="#00F3F3"/>
<circle cx="217.667" cy="383.066" r="1.72549" fill="#00F3F3"/>
<path d="M233.196 479.263C236.885 467.859 259.079 467.184 259.079 467.184C259.079 467.184 247.222 469.686 243.118 479.263C236.093 495.655 239.667 507.302 239.667 507.302C239.667 507.302 228.451 493.929 233.196 479.263Z" fill="#1A2E75"/>
<path d="M221.12 479.263C217.43 467.859 195.237 467.184 195.237 467.184C195.237 467.184 207.093 469.686 211.197 479.263C218.223 495.655 214.648 507.302 214.648 507.302C214.648 507.302 225.865 493.929 221.12 479.263Z" fill="#1A2E75"/>
<path d="M54.2286 480.099L86.9143 599.874H0V381.285V193.388V1H98.8L104 60.8874L54.2286 111.792V480.099Z" fill="url(#paint1_linear)"/>
<path d="M417.494 344.062L351.56 599.874H480V384.204V198.817V8.99805L320 18.5998L349.358 73.9944L432.294 90.2435L417.494 344.062Z" fill="url(#paint2_linear)"/>
<path d="M423.772 340.002L445.108 321.257L473.953 338.88L472.14 367.762L440.363 387.273L421.386 369.933L423.772 340.002Z" fill="#2F1E3A"/>
<path d="M479.5 487.99L0 99.0361V50.9893L479.5 409.914V487.99Z" fill="#9CE7FF" fill-opacity="0.14"/>
<path d="M480 290.94L88 8.2489L111.802 3L480 257.947V290.94Z" fill="#9CE7FF" fill-opacity="0.14"/>
<path d="M480 128.474L225.681 0H248.001L480 95.4806V128.474Z" fill="#9CE7FF" fill-opacity="0.14"/>
<path d="M330 599.874L0 231.112V159.966L480 564.881V599.874H330Z" fill="#9CE7FF" fill-opacity="0.14"/>
<path d="M337.161 74.9843C415.005 74.9843 459.594 42.083 480 22.9544V0H152C190.04 25.2498 259.318 74.9843 337.161 74.9843Z" fill="#43606C"/>
<path d="M133.174 68.4186C64.844 71.9093 22.312 58.6445 0 46.0778V0H304C268.905 23.0389 201.505 64.9278 133.174 68.4186Z" fill="#43606C"/>
<defs>
<radialGradient id="paint0_radial" cx="0" cy="0" r="1" gradientUnits="userSpaceOnUse" gradientTransform="translate(240) rotate(90) scale(245)">
<stop stop-color="#256C76"/>
<stop offset="1" stop-color="#1F3367"/>
</radialGradient>
<linearGradient id="paint1_linear" x1="133.172" y1="-72.3334" x2="-63.7971" y2="615.437" gradientUnits="userSpaceOnUse">
<stop stop-color="#6E3154"/>
<stop offset="0.992286" stop-color="#302E5C"/>
</linearGradient>
<linearGradient id="paint2_linear" x1="348.426" y1="-63.356" x2="542.537" y2="615.37" gradientUnits="userSpaceOnUse">
<stop stop-color="#6E3154"/>
<stop offset="0.992286" stop-color="#302E5C"/>
</linearGradient>
</defs>
</svg>
