<svg width="280" height="400" viewBox="0 0 280 400" fill="none" xmlns="http://www.w3.org/2000/svg">
<rect y="0.00012207" width="277.443" height="399.5" fill="#FFD7AC"/>
<path d="M211.176 12.9839L222.075 398.003H176.869L167.456 12.9839H211.176Z" fill="#DD756E"/>
<path d="M195.268 201.748L172.542 211.693L170.504 287.468L167.952 395.763H279.92V334.082V287.468L195.268 201.748Z" fill="#1C0E4D"/>
<path d="M174.9 206.71C176.963 207.2 178.147 211.297 178.147 211.297L173.309 216.03C173.309 216.03 169.603 214.619 169.219 212.81C168.836 211.002 169.033 209.699 170.414 208.528C171.795 207.358 172.836 206.22 174.9 206.71Z" fill="#1C0E4C"/>
<path d="M191.171 218.11L195.825 219.989L183.91 224.447L185.506 220.497L191.171 218.11Z" fill="#301D70"/>
<path d="M190.024 200.931C189.161 202.425 191.018 206.742 191.018 206.742L197.125 206.41C197.125 206.41 198.109 201.927 197.551 200.931C196.994 199.935 196.404 198.939 194.001 198.773C191.597 198.607 190.887 199.437 190.024 200.931Z" fill="#1C0E4C"/>
<ellipse cx="179.887" cy="218.227" rx="0.99115" ry="1.49813" fill="#00F3F3"/>
<ellipse cx="193.264" cy="212.734" rx="1.48673" ry="0.998751" fill="#00F3F3"/>
<path d="M85.215 15.9801L51.03 398.003H90.1693L115.436 15.9801H85.215Z" fill="#DD756E"/>
<path d="M279.425 352.06L0.495605 114.857V100.874L279.425 332.085V352.06Z" fill="#FFEF9C" fill-opacity="0.14"/>
<path d="M279.425 244.195L0.495605 6.99201V0.500122L279.425 224.22V244.195Z" fill="#FFEF9C" fill-opacity="0.14"/>
<path d="M50.0389 31.7654L33.1941 399.001H53.0115L70.8471 31.7654H50.0389Z" fill="#F2946C"/>
<path d="M54.5537 216.326L22.2196 282.369L14.863 399.501H140.472L102.874 269.635L76.2965 217.066L54.5537 216.326Z" fill="#1C0E4C"/>
<path d="M64.103 231.43L60.4302 234.392L72.33 235.132L69.8325 232.022L64.103 231.43Z" fill="#301D70"/>
<path d="M72.0359 213.513L70.4199 220.177L74.6803 222.99L80.9975 216.919L77.7655 212.328L72.0359 213.513Z" fill="#1C0E4C"/>
<path d="M58.5202 212.92L60.1362 219.584L55.8758 222.397L49.5586 216.326L52.7907 211.735L58.5202 212.92Z" fill="#1C0E4C"/>
<ellipse rx="1.17686" ry="1.18341" transform="matrix(0.927994 0.372596 -0.367535 0.93001 59.1176 227.628)" fill="#00F3F3"/>
<ellipse rx="1.17686" ry="1.18341" transform="matrix(0.927994 0.372596 -0.367535 0.93001 72.3212 227.829)" fill="#00F3F3"/>
<path d="M223.936 31.7654L207.092 399.001H234.836L252.672 31.7654H223.936Z" fill="#F2946C"/>
<path d="M101.561 293.702C100.103 307.991 81.5076 379.347 67.3789 399.499H194.706C178.298 350.493 163.493 265.644 163.493 232.21C163.493 215.985 161.974 19.5415 163.493 0.000102154H137.731L104.638 0C103.27 36.3348 103.02 279.412 101.561 293.702Z" fill="#8A4152"/>
<path fill-rule="evenodd" clip-rule="evenodd" d="M119.213 261.564C118.293 262.048 117.599 262.616 117.191 263.269C116.359 264.599 116.048 266.15 115.712 268.317C115.667 268.609 115.621 268.913 115.573 269.228C115.269 271.245 114.892 273.748 114.083 276.972C112.211 284.429 108.033 295.735 97.1135 313.863C86.2091 331.966 80.239 353.364 77.8226 370.238C76.6144 378.675 76.2954 385.976 76.6906 391.164C76.8882 393.759 77.2641 395.818 77.7927 397.225C78.057 397.929 78.3569 398.462 78.6857 398.817C79.0128 399.17 79.3636 399.343 79.737 399.343H194.941C194.94 399.332 194.939 399.321 194.937 399.308C194.926 399.199 194.908 399.036 194.883 398.822C194.834 398.394 194.759 397.762 194.656 396.946C194.45 395.314 194.13 392.946 193.677 390.003C192.771 384.119 191.331 375.937 189.194 366.748C184.919 348.367 177.861 325.97 166.726 309.868C155.572 293.741 151.043 283.376 148.908 276.419C147.926 273.22 147.451 270.743 147.072 268.764C147.039 268.592 147.007 268.424 146.975 268.259C146.577 266.196 146.251 264.719 145.477 263.505C145.099 262.912 144.431 262.372 143.531 261.895C142.633 261.419 141.513 261.009 140.242 260.673C137.699 259.999 134.564 259.617 131.419 259.559C128.274 259.5 125.125 259.764 122.555 260.379C121.269 260.687 120.132 261.081 119.213 261.564ZM195.071 399.461C195.187 399.449 195.187 399.449 195.187 399.448L195.187 399.446L195.183 399.407C195.18 399.379 195.176 399.337 195.17 399.282C195.158 399.173 195.14 399.009 195.115 398.795C195.066 398.366 194.991 397.733 194.888 396.916C194.681 395.282 194.361 392.912 193.908 389.967C193.001 384.078 191.56 375.89 189.421 366.694C185.145 348.306 178.078 325.873 166.917 309.734C155.774 293.621 151.257 283.278 149.131 276.35C148.153 273.163 147.68 270.697 147.301 268.719C147.268 268.547 147.236 268.379 147.204 268.214C146.807 266.159 146.476 264.636 145.674 263.378C145.264 262.736 144.557 262.173 143.64 261.687C142.721 261.199 141.583 260.785 140.301 260.445C137.736 259.766 134.582 259.382 131.424 259.323C128.265 259.264 125.096 259.53 122.501 260.15C121.203 260.461 120.046 260.86 119.105 261.355C118.164 261.85 117.432 262.443 116.993 263.144C116.133 264.52 115.817 266.117 115.481 268.281C115.436 268.574 115.39 268.878 115.342 269.193C115.038 271.21 114.663 273.702 113.856 276.915C111.992 284.343 107.824 295.628 96.914 313.741C85.9889 331.878 80.011 353.309 77.5915 370.205C76.3818 378.653 76.0609 385.972 76.4578 391.182C76.6561 393.786 77.0342 395.871 77.5743 397.308C77.8443 398.027 78.1575 398.591 78.515 398.977C78.8741 399.365 79.2829 399.579 79.737 399.579H195.201L195.187 399.449L195.071 399.461Z" fill="black"/>
<path d="M142.741 254.87C141.195 254.625 138.158 257.312 138.484 260.1C138.903 260.508 140.136 261.606 141.724 262.736C143.311 263.865 145.249 263.951 146.019 263.853C147.636 263.477 149.427 259.818 148.657 258.473C147.604 256.637 144.674 255.177 142.741 254.87Z" fill="#B57A29"/>
<path d="M142.765 257.323C141.645 257.511 140.158 259.48 140.08 260.382C140.921 260.382 143.933 262.03 145.333 262.853C145.761 262.422 146.431 261.465 146.617 260.147C146.851 258.5 144.166 257.088 142.765 257.323Z" fill="#FBAB7E"/>
<path d="M121.031 253.921C122.963 253.613 125.587 257.007 125.26 259.796C124.842 260.204 123.633 260.658 122.045 261.789C120.458 262.919 118.521 263.006 117.751 262.908C116.135 262.532 114.345 258.872 115.116 257.527C116.169 255.689 119.098 254.228 121.031 253.921Z" fill="#B57A29"/>
<path d="M121.753 256.853C122.874 257.041 123.543 259.363 123.621 260.265C122.78 260.265 120.249 261.114 118.848 261.938C118.42 261.507 118.204 260.053 118.017 258.735C117.784 257.088 120.352 256.617 121.753 256.853Z" fill="#FBAB7E"/>
<path d="M117.093 263.206C113.708 268.619 118.844 277.561 97.0147 313.802C75.1852 350.042 73.1185 399.461 79.7379 399.461H195.072C195.072 399.461 189.119 342.041 166.822 309.801C144.526 277.561 148.728 268.384 145.577 263.442C142.425 258.5 120.479 257.794 117.093 263.206Z" fill="url(#paint0_linear)"/>
<path d="M135.142 307.605C134.287 307.875 133.562 308.052 134.204 306.396C134.361 305.993 135.095 304.857 136.784 303.538C138.472 302.218 140.458 301.815 141.24 301.779C143.946 301.233 144.487 303.538 141.24 303.142C139.499 302.93 142.106 304.204 140.698 305.324C139.291 306.444 138.534 304.779 137.181 305.626C135.802 306.49 137.181 306.961 135.142 307.605Z" fill="#FBAB2E"/>
<path d="M129.604 308.325C130.145 310.234 131.321 309.416 130.686 307.779C130.53 307.376 129.478 305.366 127.836 304.083C126.148 302.764 124.986 302.32 123.922 302.051C121.757 301.506 123.056 303.187 125.275 303.688C126.103 303.875 124.463 305.052 125.545 306.143C126.898 307.506 127.626 306.114 128.522 306.415C129.334 306.688 129.296 307.238 129.604 308.325Z" fill="#FBAB2E"/>
<path fill-rule="evenodd" clip-rule="evenodd" d="M173.164 336.021C171.217 336.605 168.532 336.213 165.723 335.21L165.801 334.988C168.595 335.986 171.222 336.358 173.097 335.795C174.031 335.515 174.775 335.004 175.267 334.225C175.759 333.445 176.005 332.383 175.918 330.988L176.151 330.973C176.24 332.402 175.989 333.517 175.464 334.351C174.937 335.186 174.142 335.727 173.164 336.021Z" fill="black"/>
<path fill-rule="evenodd" clip-rule="evenodd" d="M98.0712 337.361C99.9088 337.118 101.912 336.383 103.854 335.2L103.733 334.998C101.814 336.168 99.8415 336.889 98.0408 337.128C96.2393 337.366 94.6178 337.12 93.3912 336.366C92.1684 335.615 91.3246 334.35 91.0877 332.519C90.8502 330.684 91.2227 328.279 92.4441 325.26L92.2279 325.171C90.9979 328.211 90.6116 330.66 90.8562 332.549C91.1013 334.444 91.9804 335.775 93.2696 336.567C94.555 337.357 96.2345 337.604 98.0712 337.361Z" fill="black"/>
<path d="M125.255 281.562C125.83 280.385 126.249 279.444 127.356 279.444C128.874 279.444 129.466 278.15 130.633 278.973C131.801 279.797 133.065 279.619 133.66 278.62C134.71 276.855 136.695 277.208 137.162 278.62C137.629 280.032 139.112 278.879 140.322 281.091C141.481 283.209 140.547 284.503 138.796 284.503C137.045 284.503 136.304 283.999 134.71 285.209C132.851 286.621 132.034 285.798 130.633 285.209C129.233 284.621 128.097 284.181 126.656 284.503C125.605 284.739 123.621 284.066 123.621 283.209C123.621 282.353 124.522 283.062 125.255 281.562Z" fill="url(#paint1_linear)"/>
<path fill-rule="evenodd" clip-rule="evenodd" d="M135.645 277.194C136.422 277.244 137.119 277.745 137.383 278.546C137.482 278.845 137.625 278.99 137.796 279.085C137.95 279.171 138.125 279.219 138.348 279.28C138.405 279.295 138.464 279.311 138.527 279.329C138.826 279.414 139.17 279.53 139.518 279.778C139.868 280.027 140.21 280.398 140.527 280.978C141.125 282.07 141.217 283.013 140.857 283.701C140.495 284.394 139.723 284.739 138.796 284.739C138.353 284.739 137.973 284.707 137.635 284.679L137.624 284.678C137.281 284.649 136.989 284.626 136.704 284.638C136.154 284.661 135.615 284.817 134.851 285.397C133.888 286.129 133.155 286.308 132.462 286.191C132.126 286.135 131.812 286.011 131.504 285.87C131.385 285.816 131.269 285.761 131.153 285.705C130.958 285.612 130.762 285.518 130.544 285.426C129.14 284.837 128.068 284.428 126.706 284.733C126.121 284.864 125.313 284.741 124.66 284.485C124.33 284.356 124.022 284.186 123.793 283.982C123.566 283.781 123.387 283.519 123.387 283.209C123.387 282.948 123.459 282.753 123.627 282.618C123.701 282.558 123.783 282.519 123.857 282.489C123.903 282.47 123.957 282.451 124.008 282.433C124.034 282.424 124.059 282.414 124.082 282.406C124.23 282.352 124.383 282.284 124.541 282.151C124.699 282.018 124.874 281.809 125.046 281.458C125.067 281.415 125.088 281.371 125.109 281.328C125.367 280.798 125.615 280.29 125.926 279.911C126.277 279.486 126.72 279.209 127.356 279.209C127.938 279.209 128.361 279.005 128.782 278.802C128.865 278.763 128.947 278.723 129.03 278.685C129.278 278.572 129.545 278.471 129.837 278.464C130.138 278.457 130.442 278.551 130.767 278.78C131.313 279.165 131.864 279.305 132.333 279.247C132.798 279.189 133.199 278.936 133.46 278.499C134.025 277.55 134.862 277.144 135.645 277.194ZM135.615 277.664C135.026 277.626 134.346 277.925 133.86 278.741C133.526 279.303 132.998 279.638 132.39 279.714C131.786 279.788 131.121 279.605 130.5 279.166C130.242 278.984 130.034 278.93 129.848 278.935C129.653 278.939 129.458 279.007 129.222 279.114C129.152 279.146 129.079 279.182 129.002 279.219C128.579 279.424 128.053 279.679 127.356 279.679C126.885 279.679 126.565 279.872 126.286 280.212C126.011 280.545 125.787 281.004 125.519 281.553C125.501 281.59 125.483 281.628 125.464 281.666C125.269 282.065 125.057 282.33 124.84 282.512C124.623 282.695 124.413 282.785 124.243 282.848C124.207 282.861 124.176 282.872 124.148 282.882C124.106 282.897 124.069 282.91 124.032 282.925C123.974 282.949 123.941 282.968 123.919 282.985C123.895 283.004 123.854 283.042 123.854 283.209C123.854 283.327 123.923 283.471 124.102 283.629C124.277 283.785 124.531 283.93 124.829 284.046C125.43 284.282 126.14 284.378 126.605 284.274C128.127 283.933 129.326 284.405 130.723 284.992C130.949 285.087 131.167 285.191 131.371 285.288C131.484 285.343 131.593 285.395 131.696 285.442C131.994 285.577 132.263 285.681 132.539 285.727C133.069 285.816 133.674 285.702 134.57 285.021C135.399 284.392 136.028 284.195 136.685 284.167C137.003 284.154 137.325 284.181 137.662 284.209L137.669 284.209C138.008 284.238 138.372 284.268 138.796 284.268C139.621 284.268 140.191 283.966 140.444 283.482C140.699 282.993 140.679 282.231 140.118 281.205C139.83 280.678 139.533 280.364 139.249 280.163C138.965 279.96 138.681 279.862 138.4 279.782C138.352 279.768 138.302 279.755 138.251 279.741C138.023 279.679 137.778 279.613 137.569 279.497C137.293 279.342 137.075 279.101 136.94 278.695C136.738 278.083 136.21 277.702 135.615 277.664Z" fill="#FFD12D"/>
<path d="M138.338 273.561H125.964L130.106 278.571C131.006 279.659 132.648 279.706 133.607 278.67L138.338 273.561Z" fill="black"/>
<path d="M125.847 273.443C126.742 271.129 128.065 265.677 131.684 265.677C135.887 265.677 137.599 270.894 138.221 273.443H125.847Z" fill="#C68731"/>
<path d="M126.423 266.736C126.423 267.646 125.691 268.384 124.788 268.384C123.885 268.384 123.153 267.646 123.153 266.736C123.153 265.827 123.885 265.089 124.788 265.089C125.691 265.089 126.423 265.827 126.423 266.736Z" fill="black"/>
<path d="M125.956 266.266C125.956 266.526 125.747 266.736 125.489 266.736C125.231 266.736 125.022 266.526 125.022 266.266C125.022 266.006 125.231 265.795 125.489 265.795C125.747 265.795 125.956 266.006 125.956 266.266Z" fill="white"/>
<path d="M140.899 266.736C140.899 267.646 140.167 268.384 139.264 268.384C138.361 268.384 137.629 267.646 137.629 266.736C137.629 265.827 138.361 265.089 139.264 265.089C140.167 265.089 140.899 265.827 140.899 266.736Z" fill="black"/>
<path d="M140.198 266.266C140.198 266.526 139.989 266.736 139.731 266.736C139.473 266.736 139.264 266.526 139.264 266.266C139.264 266.006 139.473 265.795 139.731 265.795C139.989 265.795 140.198 266.006 140.198 266.266Z" fill="white"/>
<path fill-rule="evenodd" clip-rule="evenodd" d="M130.097 282.652C128.897 283.19 127.346 283.187 125.921 282.612L126.007 282.394C127.383 282.949 128.868 282.946 130.002 282.437C131.131 281.931 131.918 280.923 131.918 279.444H132.151C132.151 280.925 132.91 281.885 133.951 282.367C134.999 282.852 136.337 282.854 137.477 282.394L137.564 282.612C136.37 283.094 134.965 283.096 133.853 282.581C132.983 282.178 132.295 281.459 132.033 280.416C131.76 281.477 131.037 282.23 130.097 282.652Z" fill="black"/>
<path fill-rule="evenodd" clip-rule="evenodd" d="M118.186 255.009C119.335 254.487 120.572 254.165 121.532 254.104C121.887 254.081 122.328 254.233 122.788 254.533C123.246 254.831 123.712 255.268 124.113 255.794C124.916 256.849 125.445 258.241 125.163 259.568L125.392 259.617C125.693 258.198 125.126 256.737 124.298 255.65C123.883 255.106 123.398 254.65 122.915 254.335C122.435 254.022 121.943 253.841 121.517 253.869C120.525 253.932 119.26 254.263 118.09 254.794C116.922 255.325 115.833 256.064 115.207 256.954C114.962 257.303 114.886 257.811 114.921 258.366C114.957 258.924 115.106 259.547 115.333 260.144C115.559 260.741 115.864 261.317 116.215 261.779C116.564 262.238 116.968 262.596 117.393 262.738L117.467 262.515C117.105 262.394 116.737 262.078 116.401 261.635C116.066 261.195 115.771 260.64 115.551 260.06C115.331 259.48 115.188 258.88 115.154 258.35C115.12 257.817 115.198 257.374 115.398 257.09C115.989 256.249 117.035 255.532 118.186 255.009Z" fill="black"/>
<path fill-rule="evenodd" clip-rule="evenodd" d="M122.085 330.624C116.763 329.342 109.911 331.555 101.743 336.494L101.623 336.292C109.798 331.348 116.721 329.09 122.139 330.396C127.573 331.705 131.444 336.585 133.549 345.78C135.238 353.157 133.321 362.322 130.253 370.768C127.303 378.887 123.283 386.36 120.345 390.974C123.342 388.781 125.9 387.898 127.945 387.827C130.108 387.752 131.692 388.59 132.593 389.74C133.049 390.322 133.355 391.115 133.54 391.997C133.725 392.88 133.791 393.86 133.76 394.823C133.73 395.785 133.604 396.733 133.404 397.553C133.205 398.371 132.929 399.071 132.595 399.531L132.407 399.391C132.715 398.968 132.981 398.302 133.177 397.497C133.373 396.695 133.497 395.763 133.527 394.815C133.557 393.867 133.492 392.907 133.311 392.046C133.13 391.183 132.835 390.429 132.41 389.885C131.559 388.8 130.05 387.99 127.953 388.062C125.854 388.135 123.162 389.092 119.965 391.553L119.796 391.395C122.749 386.852 126.971 379.118 130.034 370.687C133.098 362.252 134.994 353.141 133.321 345.833C131.224 336.672 127.39 331.903 122.085 330.624Z" fill="black"/>
<path fill-rule="evenodd" clip-rule="evenodd" d="M147.273 330.624C152.594 329.342 159.446 331.555 167.614 336.494L167.734 336.292C159.559 331.348 152.636 329.09 147.218 330.396C141.785 331.705 137.914 336.585 135.808 345.78C134.119 353.157 136.036 362.322 139.104 370.768C142.08 378.959 146.146 386.493 149.09 391.097C146.728 389.702 144.163 388.734 141.82 388.343C139.337 387.929 137.082 388.161 135.585 389.246C134.978 389.687 134.563 390.45 134.284 391.352C134.004 392.257 133.856 393.318 133.796 394.376C133.675 396.489 133.902 398.613 134.14 399.492L134.365 399.43C134.136 398.583 133.909 396.486 134.029 394.389C134.088 393.342 134.234 392.302 134.506 391.422C134.779 390.54 135.175 389.834 135.722 389.437C137.144 388.405 139.324 388.166 141.782 388.576C144.236 388.985 146.944 390.037 149.402 391.56L149.561 391.395C146.608 386.852 142.386 379.118 139.324 370.687C136.259 362.252 134.363 353.141 136.036 345.833C138.133 336.672 141.967 331.903 147.273 330.624Z" fill="black"/>
<path fill-rule="evenodd" clip-rule="evenodd" d="M112.119 307.339C108.44 310.741 105.025 314.972 103.182 317.866L102.986 317.739C104.84 314.828 108.268 310.581 111.961 307.165C113.808 305.457 115.724 303.954 117.546 302.929C119.365 301.906 121.106 301.351 122.595 301.566C127.142 302.221 130.092 305.407 131.328 309.295C132.564 313.179 132.094 317.776 129.797 321.279C126.141 326.854 121.935 329.315 120.634 329.911L120.537 329.697C121.804 329.117 125.974 326.683 129.602 321.15C131.858 317.711 132.322 313.189 131.106 309.366C129.891 305.547 127.004 302.438 122.562 301.799C121.148 301.595 119.463 302.121 117.66 303.135C115.859 304.147 113.958 305.638 112.119 307.339Z" fill="black"/>
<path fill-rule="evenodd" clip-rule="evenodd" d="M152.026 307.339C155.705 310.741 159.12 314.972 160.963 317.866L161.159 317.739C159.305 314.828 155.877 310.581 152.184 307.165C150.337 305.457 148.421 303.954 146.599 302.929C144.78 301.906 143.039 301.351 141.55 301.566C137.003 302.221 134.053 305.407 132.817 309.295C131.581 313.179 132.051 317.776 134.348 321.279C136.177 324.068 138.411 326.312 140.349 327.933C142.285 329.551 143.93 330.553 144.584 330.852L144.681 330.638C144.052 330.35 142.424 329.362 140.498 327.751C138.573 326.142 136.356 323.915 134.543 321.15C132.287 317.711 131.823 313.189 133.039 309.366C134.254 305.547 137.141 302.438 141.583 301.799C142.997 301.595 144.682 302.121 146.486 303.135C148.286 304.147 150.187 305.638 152.026 307.339Z" fill="black"/>
<path d="M135.075 288.74H129.622C128.967 288.74 128.359 289.086 128.021 289.652L124.571 295.439C124.241 295.991 124.215 296.675 124.501 297.251L127.466 303.23C127.782 303.868 128.429 304.271 129.136 304.271H135.05C135.739 304.271 136.372 303.889 136.697 303.276L139.903 297.235C140.203 296.668 140.197 295.987 139.885 295.427L136.704 289.702C136.374 289.108 135.751 288.74 135.075 288.74Z" fill="url(#paint2_linear)"/>
<path fill-rule="evenodd" clip-rule="evenodd" d="M127.921 289.592C128.279 288.99 128.925 288.622 129.621 288.622H135.074C135.792 288.622 136.455 289.013 136.806 289.645L139.987 295.369C140.317 295.964 140.324 296.688 140.005 297.29L136.8 303.332C136.454 303.982 135.782 304.389 135.05 304.389H129.136C128.384 304.389 127.697 303.961 127.361 303.283L124.396 297.303C124.092 296.691 124.12 295.965 124.47 295.379L127.921 289.592ZM129.621 288.857C129.007 288.857 128.437 289.182 128.121 289.713L124.67 295.5C124.361 296.017 124.337 296.658 124.604 297.198L127.569 303.177C127.866 303.776 128.472 304.153 129.136 304.153H135.05C135.696 304.153 136.289 303.795 136.594 303.221L139.799 297.179C140.081 296.648 140.075 296.009 139.783 295.484L136.602 289.76C136.292 289.202 135.708 288.857 135.074 288.857H129.621Z" fill="white"/>
<path d="M133.9 291.233L130.738 293.676C130.633 293.758 130.519 293.828 130.399 293.885L126.944 295.528C125.994 295.98 125.6 297.133 126.074 298.079L128.069 302.06C128.386 302.694 129.031 303.094 129.736 303.094H134.491C135.177 303.094 135.808 302.715 136.134 302.107L138.727 297.269C139.032 296.699 139.026 296.011 138.709 295.447L136.662 291.8C136.103 290.805 134.801 290.537 133.9 291.233Z" fill="url(#paint3_linear)"/>
<path fill-rule="evenodd" clip-rule="evenodd" d="M136.357 291.974C135.903 291.165 134.845 290.948 134.113 291.513L130.951 293.956C130.826 294.053 130.691 294.136 130.548 294.204L127.094 295.847C126.321 296.214 126.002 297.151 126.387 297.92L128.381 301.901C128.639 302.416 129.163 302.741 129.736 302.741H134.49C135.048 302.741 135.561 302.433 135.826 301.939L138.419 297.101C138.667 296.638 138.661 296.079 138.404 295.621L136.357 291.974ZM133.687 290.953C134.756 290.127 136.303 290.444 136.967 291.626L139.014 295.273C139.39 295.942 139.398 296.76 139.035 297.436L136.442 302.274C136.055 302.997 135.305 303.447 134.49 303.447H129.736C128.899 303.447 128.133 302.972 127.756 302.219L125.761 298.238C125.199 297.115 125.666 295.745 126.795 295.208L130.249 293.566C130.347 293.519 130.439 293.462 130.525 293.396L133.687 290.953Z" fill="url(#paint4_linear)"/>
<path d="M136.533 303.565L125.677 293.681L126.727 291.799L137.817 301.212L136.533 303.565Z" fill="#F9F6F1" fill-opacity="0.4"/>
<path d="M138.284 300.27L127.195 291.093L127.428 290.622L138.518 299.8L138.284 300.27Z" fill="#F9F6F1" fill-opacity="0.4"/>
<path d="M140.035 296.27L130.929 288.74L136.066 288.975L140.035 295.682V296.27Z" fill="#F9F6F1" fill-opacity="0.4"/>
<path fill-rule="evenodd" clip-rule="evenodd" d="M148.265 304.301L146.981 299.477L147.206 299.416L148.491 304.24L148.265 304.301Z" fill="black"/>
<path fill-rule="evenodd" clip-rule="evenodd" d="M115.104 304.772L116.388 299.948L116.163 299.887L114.878 304.711L115.104 304.772Z" fill="black"/>
<path fill-rule="evenodd" clip-rule="evenodd" d="M145.97 256.204C144.874 255.576 143.672 255.14 142.722 254.989C142.371 254.933 141.918 255.043 141.432 255.298C140.948 255.552 140.445 255.943 139.997 256.429C139.1 257.404 138.445 258.741 138.603 260.089L138.371 260.116C138.202 258.675 138.901 257.274 139.826 256.269C140.289 255.766 140.814 255.357 141.324 255.089C141.831 254.823 142.337 254.689 142.759 254.756C143.741 254.912 144.97 255.36 146.085 255.999C147.199 256.637 148.215 257.475 148.756 258.42C148.969 258.791 148.997 259.304 148.911 259.853C148.824 260.405 148.618 261.012 148.337 261.585C148.056 262.158 147.699 262.703 147.307 263.13C146.917 263.554 146.483 263.873 146.046 263.974L145.994 263.745C146.365 263.659 146.76 263.379 147.136 262.97C147.51 262.562 147.855 262.037 148.128 261.481C148.4 260.924 148.598 260.34 148.68 259.816C148.763 259.288 148.727 258.839 148.554 258.537C148.043 257.644 147.067 256.833 145.97 256.204Z" fill="black"/>
<path d="M237.727 226.542L193.219 399.501H279.92V253.683V128.34V0.00012207L171.916 6.492L191.733 43.9452L247.717 54.9314L237.727 226.542Z" fill="url(#paint5_linear)"/>
<path d="M242.63 218.364L255.867 206.73L273.763 217.667L272.638 235.591L252.923 247.699L241.15 236.938L242.63 218.364Z" fill="#2F1E3A"/>
<path d="M36.1667 319.601L57.9659 399.501H3.8147e-05V253.683V128.34V0.00012207H65.8928L69.3608 39.9502L36.1667 73.9077V319.601Z" fill="url(#paint6_linear)"/>
<path d="M279.425 313.608L0.495605 64.919V32.9589L279.425 261.673V313.608Z" fill="#FFEF9C" fill-opacity="0.14"/>
<path d="M279.425 168.789L58.9568 4.4945L74.8107 0.998871L279.425 146.817V168.789Z" fill="#FFEF9C" fill-opacity="0.14"/>
<path d="M279.425 78.9015L155.567 0.998871H170.43L279.425 56.9289V78.9015Z" fill="#FFEF9C" fill-opacity="0.14"/>
<path d="M213.037 400L0.495605 180.774V133.333L279.921 385.019V400H213.037Z" fill="#FFEF9C" fill-opacity="0.14"/>
<path d="M186.363 48.9389C237.393 48.9389 266.623 27.4658 280 14.9814V0.00012207H64.9814C89.9183 16.4795 135.333 48.9389 186.363 48.9389Z" fill="#43606C"/>
<path d="M94.6279 48.9389C46.0753 51.4358 15.8538 41.9477 -7.62939e-05 32.9589V0.00012207H216.009C191.072 16.4795 143.18 46.4421 94.6279 48.9389Z" fill="#43606C"/>
<defs>
<linearGradient id="paint0_linear" x1="135.743" y1="259.433" x2="135.743" y2="399.461" gradientUnits="userSpaceOnUse">
<stop stop-color="#B57A29"/>
<stop offset="0.586458" stop-color="#804E0A"/>
<stop offset="1" stop-color="#7D260A"/>
</linearGradient>
<linearGradient id="paint1_linear" x1="132.228" y1="277.425" x2="132.228" y2="285.989" gradientUnits="userSpaceOnUse">
<stop stop-color="#FDB646"/>
<stop offset="1" stop-color="#FAA929"/>
</linearGradient>
<linearGradient id="paint2_linear" x1="130.112" y1="288.74" x2="132.246" y2="301.677" gradientUnits="userSpaceOnUse">
<stop stop-color="white"/>
<stop offset="0.0001" stop-color="#DCE9EB" stop-opacity="0.88"/>
<stop offset="1" stop-color="#C4D2D3" stop-opacity="0.73"/>
</linearGradient>
<linearGradient id="paint3_linear" x1="133.498" y1="289.092" x2="132.193" y2="303.092" gradientUnits="userSpaceOnUse">
<stop offset="0.383333" stop-color="#FEBF5A"/>
<stop offset="1" stop-color="#E67315"/>
</linearGradient>
<linearGradient id="paint4_linear" x1="132.213" y1="289.916" x2="132.213" y2="303.094" gradientUnits="userSpaceOnUse">
<stop stop-color="#FFEEB0"/>
<stop offset="1" stop-color="#FFD12D"/>
</linearGradient>
<linearGradient id="paint5_linear" x1="191.104" y1="-48.9196" x2="322.525" y2="409.866" gradientUnits="userSpaceOnUse">
<stop stop-color="#6E3154"/>
<stop offset="0.992286" stop-color="#302E5C"/>
</linearGradient>
<linearGradient id="paint6_linear" x1="88.8165" y1="-48.9195" x2="-42.6046" y2="409.866" gradientUnits="userSpaceOnUse">
<stop stop-color="#6E3154"/>
<stop offset="0.992286" stop-color="#302E5C"/>
</linearGradient>
</defs>
</svg>
