<svg width="280" height="400" viewBox="0 0 280 400" fill="none" xmlns="http://www.w3.org/2000/svg">
<rect width="277.522" height="399.5" fill="url(#paint0_radial)"/>
<path d="M211.237 12.9839L222.139 398.003H176.92L167.504 12.9839H211.237Z" fill="#3B40B0"/>
<path d="M195.323 201.748L172.59 211.694L170.552 287.469L168 395.764H279.999V334.083V287.469L195.323 201.748Z" fill="#1C0E4D"/>
<path d="M174.95 206.71C177.014 207.2 178.197 211.297 178.197 211.297L173.359 216.03C173.359 216.03 169.651 214.619 169.267 212.811C168.884 211.002 169.082 209.699 170.463 208.528C171.844 207.358 172.885 206.22 174.95 206.71Z" fill="#1C0E4C"/>
<path d="M191.225 218.11L195.881 219.989L183.962 224.447L185.558 220.497L191.225 218.11Z" fill="#301D70"/>
<path d="M190.078 200.931C189.215 202.425 191.073 206.742 191.073 206.742L197.181 206.41C197.181 206.41 198.165 201.927 197.607 200.931C197.05 199.935 196.46 198.939 194.056 198.773C191.651 198.607 190.941 199.437 190.078 200.931Z" fill="#1C0E4C"/>
<ellipse cx="179.938" cy="218.227" rx="0.99115" ry="1.49813" fill="#00F3F3"/>
<ellipse cx="193.318" cy="212.734" rx="1.48673" ry="0.998751" fill="#00F3F3"/>
<path d="M85.2391 15.9802L51.0444 398.003H90.1949L115.469 15.9802H85.2391Z" fill="#3B40B0"/>
<path d="M279.504 352.06L0.495605 114.857V100.874L279.504 332.085V352.06Z" fill="#9CE7FF" fill-opacity="0.14"/>
<path d="M279.504 244.195L0.495605 6.99188V0.5L279.504 224.22V244.195Z" fill="#9CE7FF" fill-opacity="0.14"/>
<path d="M50.0532 31.7654L33.2036 399.001H53.0266L70.8673 31.7654H50.0532Z" fill="#776CF2"/>
<path d="M54.5691 216.326L22.2258 282.37L14.8672 399.501H140.512L102.903 269.635L76.3182 217.066L54.5691 216.326Z" fill="#1C0E4C"/>
<path d="M64.1211 231.43L60.4473 234.392L72.3505 235.132L69.8523 232.022L64.1211 231.43Z" fill="#301D70"/>
<path d="M72.0564 213.513L70.4399 220.177L74.7016 222.99L81.0205 216.919L77.7876 212.328L72.0564 213.513Z" fill="#1C0E4C"/>
<path d="M58.5368 212.92L60.1533 219.584L55.8917 222.397L49.5727 216.326L52.8057 211.735L58.5368 212.92Z" fill="#1C0E4C"/>
<ellipse rx="1.17686" ry="1.18341" transform="matrix(0.92803 0.372505 -0.367625 0.929974 59.1342 227.628)" fill="#00F3F3"/>
<ellipse rx="1.17686" ry="1.18341" transform="matrix(0.92803 0.372505 -0.367625 0.929974 72.3417 227.828)" fill="#00F3F3"/>
<path d="M224 31.7654L207.15 399.001H234.903L252.743 31.7654H224Z" fill="#776CF2"/>
<path d="M101.59 293.702C100.131 307.991 81.531 379.347 67.3982 399.499H194.761C178.349 350.493 163.54 265.644 163.54 232.21C163.54 215.985 162.02 19.5415 163.54 0.000102154H137.77L104.668 0C103.3 36.3348 103.049 279.412 101.59 293.702Z" fill="#5D418A"/>
<path fill-rule="evenodd" clip-rule="evenodd" d="M119.247 261.564C118.327 262.047 117.633 262.616 117.224 263.269C116.392 264.599 116.081 266.149 115.745 268.317C115.7 268.609 115.654 268.912 115.606 269.227C115.302 271.245 114.925 273.748 114.115 276.972C112.243 284.429 108.063 295.735 97.1412 313.863C86.2337 331.966 80.2618 353.364 77.8448 370.238C76.6362 378.675 76.3171 385.976 76.7124 391.164C76.9101 393.759 77.2861 395.818 77.8148 397.225C78.0793 397.928 78.3792 398.461 78.7081 398.817C79.0353 399.17 79.3862 399.343 79.7597 399.343H194.997C194.996 399.332 194.994 399.32 194.993 399.308C194.981 399.199 194.963 399.036 194.938 398.822C194.889 398.394 194.815 397.761 194.712 396.945C194.505 395.313 194.186 392.946 193.732 390.003C192.826 384.119 191.385 375.937 189.248 366.748C184.972 348.366 177.911 325.969 166.773 309.868C155.617 293.741 151.086 283.376 148.95 276.419C147.968 273.219 147.493 270.743 147.114 268.764C147.081 268.592 147.049 268.423 147.017 268.259C146.618 266.196 146.293 264.718 145.519 263.505C145.14 262.911 144.472 262.372 143.572 261.895C142.674 261.418 141.553 261.009 140.282 260.672C137.738 259.999 134.603 259.617 131.457 259.558C128.311 259.5 125.161 259.764 122.59 260.379C121.304 260.686 120.166 261.081 119.247 261.564ZM195.127 399.461C195.243 399.449 195.243 399.448 195.243 399.448L195.243 399.446L195.239 399.407C195.236 399.379 195.231 399.337 195.225 399.282C195.213 399.172 195.195 399.009 195.17 398.795C195.121 398.366 195.046 397.733 194.943 396.916C194.737 395.282 194.417 392.912 193.963 389.967C193.056 384.078 191.614 375.89 189.475 366.694C185.198 348.305 178.129 325.873 166.965 309.734C155.818 293.621 151.3 283.277 149.173 276.35C148.195 273.163 147.722 270.697 147.343 268.719C147.31 268.547 147.278 268.378 147.246 268.214C146.849 266.159 146.518 264.635 145.715 263.378C145.306 262.736 144.598 262.173 143.681 261.686C142.762 261.199 141.624 260.785 140.341 260.445C137.776 259.765 134.621 259.382 131.461 259.323C128.301 259.264 125.131 259.529 122.536 260.15C121.238 260.46 120.08 260.86 119.139 261.355C118.198 261.85 117.465 262.443 117.027 263.143C116.166 264.52 115.85 266.117 115.514 268.281C115.469 268.574 115.423 268.877 115.375 269.193C115.071 271.21 114.695 273.702 113.889 276.915C112.024 284.343 107.855 295.627 96.9416 313.74C86.0134 331.878 80.0338 353.309 77.6136 370.205C76.4035 378.652 76.0826 385.971 76.4795 391.182C76.6779 393.786 77.0562 395.871 77.5964 397.308C77.8665 398.027 78.1797 398.591 78.5373 398.977C78.8966 399.365 79.3055 399.578 79.7597 399.578H195.256L195.243 399.449L195.127 399.461Z" fill="black"/>
<path d="M142.782 254.87C141.235 254.625 138.197 257.312 138.524 260.1C138.942 260.508 140.176 261.606 141.764 262.736C143.352 263.865 145.29 263.951 146.061 263.853C147.678 263.477 149.47 259.818 148.699 258.473C147.646 256.636 144.715 255.177 142.782 254.87Z" fill="#B57A29"/>
<path d="M142.806 257.323C141.685 257.511 140.198 259.48 140.12 260.382C140.961 260.382 143.973 262.029 145.375 262.853C145.803 262.422 146.472 261.465 146.659 260.147C146.893 258.499 144.207 257.088 142.806 257.323Z" fill="#FBAB7E"/>
<path d="M121.065 253.92C122.998 253.613 125.623 257.007 125.296 259.796C124.878 260.204 123.668 260.658 122.08 261.789C120.492 262.919 118.555 263.006 117.785 262.908C116.168 262.532 114.378 258.872 115.149 257.527C116.202 255.689 119.132 254.228 121.065 253.92Z" fill="#B57A29"/>
<path d="M121.787 256.852C122.908 257.041 123.578 259.363 123.656 260.265C122.815 260.265 120.283 261.114 118.881 261.938C118.453 261.507 118.238 260.053 118.051 258.735C117.817 257.088 120.386 256.617 121.787 256.852Z" fill="#FBAB7E"/>
<path d="M117.126 263.206C113.74 268.619 118.878 277.561 97.0423 313.802C75.2066 350.042 73.1393 399.461 79.7606 399.461H195.128C195.128 399.461 189.173 342.041 166.87 309.801C144.567 277.561 148.771 268.383 145.618 263.441C142.465 258.5 120.513 257.794 117.126 263.206Z" fill="url(#paint1_linear)"/>
<path d="M135.181 307.605C134.325 307.875 133.6 308.052 134.242 306.396C134.399 305.992 135.134 304.856 136.823 303.537C138.512 302.218 140.498 301.815 141.28 301.778C143.986 301.233 144.528 303.537 141.28 303.142C139.538 302.93 142.146 304.204 140.738 305.324C139.331 306.444 138.573 304.779 137.22 305.626C135.84 306.49 137.22 306.961 135.181 307.605Z" fill="#FBAB2E"/>
<path d="M129.641 308.324C130.182 310.234 131.358 309.415 130.724 307.779C130.567 307.376 129.515 305.365 127.872 304.083C126.183 302.764 125.022 302.319 123.957 302.051C121.791 301.506 123.091 303.187 125.31 303.688C126.139 303.875 124.498 305.051 125.581 306.142C126.934 307.506 127.662 306.114 128.558 306.415C129.37 306.688 129.333 307.238 129.641 308.324Z" fill="#FBAB2E"/>
<path fill-rule="evenodd" clip-rule="evenodd" d="M173.213 336.02C171.265 336.605 168.58 336.212 165.77 335.21L165.848 334.988C168.643 335.985 171.271 336.358 173.147 335.795C174.081 335.515 174.825 335.004 175.316 334.225C175.809 333.444 176.055 332.383 175.968 330.988L176.201 330.973C176.29 332.402 176.039 333.517 175.514 334.351C174.987 335.186 174.191 335.727 173.213 336.02Z" fill="black"/>
<path fill-rule="evenodd" clip-rule="evenodd" d="M98.0991 337.361C99.9373 337.118 101.941 336.383 103.883 335.2L103.762 334.998C101.843 336.168 99.8699 336.889 98.0687 337.128C96.2666 337.366 94.6447 337.12 93.4178 336.366C92.1947 335.614 91.3506 334.35 91.1136 332.519C90.876 330.684 91.2487 328.279 92.4704 325.26L92.2541 325.171C91.0237 328.211 90.6374 330.66 90.882 332.549C91.1272 334.443 92.0066 335.775 93.2962 336.567C94.5819 337.357 96.2619 337.604 98.0991 337.361Z" fill="black"/>
<path d="M125.291 281.562C125.866 280.385 126.285 279.444 127.392 279.444C128.91 279.444 129.503 278.15 130.671 278.973C131.838 279.797 133.103 279.619 133.698 278.62C134.749 276.855 136.734 277.208 137.201 278.62C137.668 280.032 139.152 278.879 140.362 281.091C141.521 283.209 140.587 284.503 138.836 284.503C137.084 284.503 136.342 283.999 134.749 285.209C132.889 286.621 132.072 285.797 130.671 285.209C129.269 284.621 128.134 284.18 126.692 284.503C125.641 284.738 123.656 284.065 123.656 283.209C123.656 282.353 124.557 283.062 125.291 281.562Z" fill="url(#paint2_linear)"/>
<path fill-rule="evenodd" clip-rule="evenodd" d="M135.683 277.194C136.461 277.244 137.158 277.745 137.423 278.546C137.522 278.845 137.665 278.99 137.835 279.085C137.989 279.171 138.164 279.219 138.388 279.279C138.444 279.295 138.503 279.311 138.566 279.329C138.866 279.414 139.209 279.53 139.558 279.778C139.908 280.026 140.25 280.398 140.567 280.977C141.165 282.07 141.257 283.013 140.897 283.701C140.535 284.394 139.763 284.738 138.836 284.738C138.392 284.738 138.012 284.707 137.675 284.679L137.663 284.678C137.32 284.649 137.028 284.626 136.743 284.638C136.193 284.661 135.654 284.817 134.889 285.397C133.926 286.129 133.193 286.308 132.499 286.191C132.163 286.135 131.85 286.011 131.541 285.87C131.422 285.816 131.307 285.761 131.19 285.705C130.996 285.612 130.799 285.518 130.581 285.426C129.177 284.837 128.104 284.428 126.743 284.733C126.157 284.864 125.349 284.741 124.695 284.485C124.365 284.356 124.058 284.186 123.828 283.982C123.601 283.781 123.422 283.519 123.422 283.209C123.422 282.948 123.494 282.753 123.662 282.618C123.736 282.558 123.819 282.519 123.893 282.489C123.938 282.47 123.992 282.451 124.043 282.433C124.069 282.423 124.095 282.414 124.118 282.406C124.265 282.351 124.418 282.284 124.576 282.151C124.735 282.018 124.91 281.808 125.081 281.458C125.102 281.414 125.123 281.371 125.144 281.328C125.403 280.798 125.65 280.29 125.962 279.911C126.313 279.486 126.756 279.208 127.392 279.208C127.974 279.208 128.398 279.005 128.819 278.802C128.901 278.763 128.983 278.723 129.067 278.685C129.315 278.572 129.582 278.471 129.874 278.464C130.175 278.457 130.479 278.55 130.805 278.78C131.35 279.165 131.902 279.304 132.371 279.246C132.836 279.189 133.237 278.936 133.498 278.499C134.063 277.55 134.9 277.143 135.683 277.194ZM135.654 277.664C135.065 277.626 134.384 277.925 133.898 278.741C133.564 279.303 133.035 279.638 132.428 279.714C131.824 279.788 131.159 279.605 130.537 279.166C130.279 278.984 130.071 278.93 129.885 278.934C129.69 278.939 129.495 279.007 129.259 279.114C129.189 279.146 129.116 279.182 129.039 279.219C128.616 279.424 128.089 279.679 127.392 279.679C126.921 279.679 126.601 279.872 126.321 280.212C126.047 280.545 125.823 281.003 125.555 281.553C125.537 281.59 125.519 281.628 125.5 281.666C125.305 282.065 125.092 282.33 124.876 282.512C124.658 282.695 124.449 282.785 124.279 282.848C124.243 282.861 124.212 282.872 124.184 282.882C124.141 282.897 124.105 282.91 124.067 282.925C124.01 282.949 123.976 282.967 123.954 282.985C123.93 283.004 123.889 283.042 123.889 283.209C123.889 283.327 123.959 283.471 124.137 283.629C124.312 283.785 124.567 283.929 124.864 284.046C125.466 284.282 126.176 284.378 126.641 284.273C128.163 283.933 129.362 284.405 130.761 284.992C130.986 285.087 131.205 285.191 131.408 285.288C131.522 285.343 131.631 285.395 131.734 285.441C132.031 285.577 132.301 285.681 132.576 285.727C133.107 285.816 133.712 285.701 134.608 285.021C135.438 284.391 136.066 284.195 136.723 284.167C137.042 284.154 137.364 284.181 137.702 284.209L137.708 284.209C138.047 284.238 138.411 284.268 138.836 284.268C139.66 284.268 140.231 283.965 140.484 283.482C140.739 282.993 140.719 282.23 140.158 281.205C139.87 280.678 139.573 280.364 139.289 280.162C139.004 279.96 138.721 279.862 138.44 279.782C138.391 279.768 138.341 279.755 138.291 279.741C138.062 279.679 137.817 279.613 137.609 279.496C137.332 279.342 137.114 279.101 136.979 278.694C136.777 278.083 136.248 277.702 135.654 277.664Z" fill="#FFD12D"/>
<path d="M138.377 273.561H126L130.144 278.571C131.043 279.659 132.686 279.705 133.645 278.67L138.377 273.561Z" fill="black"/>
<path d="M125.883 273.443C126.779 271.129 128.102 265.677 131.722 265.677C135.925 265.677 137.638 270.894 138.261 273.443H125.883Z" fill="#C68731"/>
<path d="M126.458 266.736C126.458 267.646 125.726 268.383 124.823 268.383C123.92 268.383 123.188 267.646 123.188 266.736C123.188 265.826 123.92 265.089 124.823 265.089C125.726 265.089 126.458 265.826 126.458 266.736Z" fill="black"/>
<path d="M125.992 266.266C125.992 266.526 125.783 266.736 125.525 266.736C125.267 266.736 125.058 266.526 125.058 266.266C125.058 266.006 125.267 265.795 125.525 265.795C125.783 265.795 125.992 266.006 125.992 266.266Z" fill="white"/>
<path d="M140.938 266.736C140.938 267.646 140.206 268.383 139.303 268.383C138.4 268.383 137.668 267.646 137.668 266.736C137.668 265.826 138.4 265.089 139.303 265.089C140.206 265.089 140.938 265.826 140.938 266.736Z" fill="black"/>
<path d="M140.237 266.266C140.237 266.526 140.028 266.736 139.77 266.736C139.512 266.736 139.303 266.526 139.303 266.266C139.303 266.006 139.512 265.795 139.77 265.795C140.028 265.795 140.237 266.006 140.237 266.266Z" fill="white"/>
<path fill-rule="evenodd" clip-rule="evenodd" d="M130.134 282.652C128.934 283.19 127.383 283.187 125.957 282.612L126.043 282.394C127.419 282.949 128.904 282.946 130.039 282.437C131.169 281.93 131.955 280.923 131.955 279.444H132.189C132.189 280.925 132.947 281.885 133.989 282.367C135.037 282.852 136.376 282.854 137.517 282.394L137.603 282.612C136.409 283.094 135.004 283.095 133.891 282.581C133.021 282.178 132.333 281.459 132.07 280.416C131.797 281.476 131.075 282.23 130.134 282.652Z" fill="black"/>
<path fill-rule="evenodd" clip-rule="evenodd" d="M118.22 255.009C119.369 254.486 120.606 254.165 121.566 254.103C121.922 254.081 122.363 254.233 122.823 254.532C123.282 254.831 123.747 255.268 124.148 255.794C124.952 256.849 125.481 258.24 125.199 259.568L125.427 259.617C125.728 258.198 125.161 256.737 124.333 255.65C123.918 255.105 123.433 254.649 122.95 254.335C122.469 254.022 121.978 253.841 121.552 253.868C120.559 253.932 119.294 254.262 118.124 254.794C116.955 255.325 115.866 256.063 115.24 256.953C114.994 257.303 114.918 257.811 114.954 258.365C114.989 258.923 115.139 259.547 115.365 260.144C115.592 260.741 115.897 261.317 116.248 261.778C116.598 262.238 117.001 262.596 117.427 262.738L117.5 262.514C117.138 262.394 116.771 262.078 116.434 261.635C116.099 261.195 115.804 260.64 115.584 260.06C115.363 259.48 115.221 258.88 115.187 258.35C115.153 257.817 115.231 257.374 115.431 257.089C116.022 256.248 117.069 255.532 118.22 255.009Z" fill="black"/>
<path fill-rule="evenodd" clip-rule="evenodd" d="M122.119 330.624C116.796 329.342 109.942 331.554 101.772 336.494L101.652 336.292C109.829 331.348 116.754 329.09 122.174 330.395C127.609 331.705 131.481 336.584 133.587 345.78C135.276 353.156 133.359 362.322 130.29 370.768C127.339 378.887 123.318 386.36 120.379 390.974C123.377 388.781 125.936 387.897 127.981 387.827C130.145 387.752 131.729 388.589 132.63 389.739C133.087 390.322 133.392 391.115 133.578 391.997C133.763 392.88 133.829 393.86 133.798 394.822C133.768 395.785 133.642 396.733 133.442 397.553C133.243 398.371 132.967 399.071 132.633 399.53L132.445 399.391C132.753 398.968 133.019 398.302 133.215 397.497C133.411 396.694 133.535 395.763 133.565 394.815C133.595 393.867 133.53 392.907 133.349 392.046C133.168 391.183 132.873 390.429 132.447 389.885C131.597 388.8 130.087 387.99 127.989 388.062C125.889 388.135 123.197 389.092 119.999 391.553L119.83 391.395C122.784 386.852 127.007 379.118 130.07 370.687C133.136 362.252 135.033 353.14 133.359 345.833C131.261 336.672 127.427 331.903 122.119 330.624Z" fill="black"/>
<path fill-rule="evenodd" clip-rule="evenodd" d="M147.314 330.624C152.638 329.342 159.492 331.554 167.662 336.494L167.782 336.292C159.604 331.348 152.679 329.09 147.26 330.395C141.825 331.705 137.953 336.584 135.847 345.78C134.158 353.156 136.075 362.322 139.144 370.768C142.12 378.959 146.188 386.493 149.132 391.097C146.769 389.701 144.204 388.734 141.86 388.343C139.377 387.929 137.12 388.16 135.624 389.246C135.016 389.687 134.601 390.45 134.322 391.352C134.042 392.257 133.894 393.318 133.834 394.376C133.713 396.489 133.94 398.613 134.178 399.492L134.403 399.43C134.174 398.583 133.947 396.485 134.067 394.389C134.127 393.342 134.272 392.302 134.545 391.422C134.818 390.54 135.213 389.834 135.76 389.437C137.183 388.405 139.364 388.166 141.822 388.575C144.277 388.984 146.986 390.037 149.445 391.56L149.603 391.395C146.65 386.852 142.427 379.118 139.363 370.687C136.298 362.252 134.401 353.14 136.074 345.833C138.172 336.672 142.007 331.903 147.314 330.624Z" fill="black"/>
<path fill-rule="evenodd" clip-rule="evenodd" d="M112.151 307.339C108.471 310.741 105.055 314.972 103.212 317.866L103.015 317.739C104.87 314.828 108.299 310.581 111.993 307.165C113.84 305.457 115.757 303.954 117.579 302.929C119.399 301.906 121.14 301.351 122.63 301.566C127.178 302.22 130.129 305.406 131.366 309.294C132.602 313.179 132.132 317.776 129.834 321.279C126.177 326.854 121.97 329.315 120.668 329.911L120.572 329.697C121.839 329.116 126.01 326.682 129.639 321.15C131.895 317.71 132.359 313.188 131.143 309.366C129.928 305.547 127.04 302.438 122.597 301.799C121.183 301.595 119.497 302.12 117.693 303.135C115.892 304.147 113.99 305.637 112.151 307.339Z" fill="black"/>
<path fill-rule="evenodd" clip-rule="evenodd" d="M152.069 307.339C155.749 310.741 159.165 314.972 161.009 317.866L161.205 317.739C159.351 314.828 155.921 310.581 152.227 307.165C150.38 305.457 148.463 303.954 146.641 302.929C144.822 301.906 143.08 301.351 141.59 301.566C137.042 302.22 134.091 305.406 132.854 309.294C131.618 313.179 132.088 317.776 134.386 321.279C136.216 324.068 138.451 326.312 140.389 327.932C142.325 329.551 143.971 330.552 144.626 330.852L144.722 330.638C144.093 330.35 142.465 329.362 140.538 327.751C138.613 326.142 136.395 323.914 134.581 321.15C132.325 317.71 131.861 313.188 133.077 309.366C134.292 305.547 137.18 302.438 141.623 301.799C143.037 301.595 144.723 302.12 146.527 303.135C148.328 304.147 150.23 305.637 152.069 307.339Z" fill="black"/>
<path d="M135.113 288.74H129.659C129.003 288.74 128.396 289.086 128.058 289.652L124.606 295.439C124.277 295.991 124.25 296.675 124.536 297.251L127.502 303.23C127.818 303.868 128.465 304.271 129.173 304.271H135.089C135.778 304.271 136.411 303.889 136.736 303.276L139.943 297.234C140.243 296.668 140.237 295.987 139.925 295.427L136.743 289.702C136.413 289.108 135.79 288.74 135.113 288.74Z" fill="url(#paint3_linear)"/>
<path fill-rule="evenodd" clip-rule="evenodd" d="M127.957 289.591C128.316 288.99 128.962 288.622 129.658 288.622H135.113C135.831 288.622 136.494 289.013 136.845 289.644L140.026 295.369C140.357 295.964 140.364 296.688 140.045 297.29L136.839 303.332C136.493 303.982 135.82 304.389 135.088 304.389H129.173C128.421 304.389 127.733 303.96 127.397 303.283L124.431 297.303C124.127 296.691 124.155 295.965 124.505 295.378L127.957 289.591ZM129.658 288.857C129.044 288.857 128.474 289.182 128.157 289.713L124.706 295.5C124.397 296.017 124.372 296.658 124.64 297.198L127.606 303.177C127.902 303.775 128.509 304.153 129.173 304.153H135.088C135.734 304.153 136.328 303.795 136.633 303.221L139.839 297.179C140.121 296.648 140.115 296.009 139.823 295.484L136.641 289.759C136.331 289.202 135.747 288.857 135.113 288.857H129.658Z" fill="white"/>
<path d="M133.938 291.233L130.775 293.676C130.669 293.758 130.556 293.828 130.435 293.885L126.98 295.528C126.029 295.98 125.636 297.133 126.11 298.079L128.105 302.06C128.422 302.694 129.067 303.094 129.772 303.094H134.529C135.215 303.094 135.846 302.715 136.172 302.106L138.766 297.269C139.072 296.699 139.065 296.01 138.748 295.447L136.701 291.8C136.142 290.805 134.839 290.537 133.938 291.233Z" fill="url(#paint4_linear)"/>
<path fill-rule="evenodd" clip-rule="evenodd" d="M136.396 291.974C135.941 291.165 134.883 290.948 134.151 291.513L130.988 293.956C130.863 294.053 130.727 294.136 130.585 294.204L127.129 295.847C126.357 296.214 126.037 297.151 126.422 297.92L128.417 301.901C128.675 302.416 129.199 302.741 129.772 302.741H134.528C135.086 302.741 135.599 302.433 135.864 301.939L138.458 297.101C138.706 296.638 138.7 296.079 138.443 295.62L136.396 291.974ZM133.725 290.953C134.794 290.126 136.342 290.444 137.005 291.626L139.053 295.273C139.429 295.942 139.437 296.76 139.074 297.436L136.48 302.274C136.093 302.997 135.343 303.447 134.528 303.447H129.772C128.935 303.447 128.169 302.972 127.792 302.219L125.797 298.238C125.234 297.115 125.701 295.745 126.831 295.208L130.286 293.565C130.383 293.519 130.476 293.462 130.561 293.396L133.725 290.953Z" fill="url(#paint5_linear)"/>
<path d="M136.571 303.565L125.712 293.681L126.763 291.799L137.856 301.212L136.571 303.565Z" fill="#F9F6F1" fill-opacity="0.4"/>
<path d="M138.323 300.27L127.23 291.092L127.464 290.622L138.557 299.8L138.323 300.27Z" fill="#F9F6F1" fill-opacity="0.4"/>
<path d="M140.075 296.27L130.967 288.74L136.105 288.975L140.075 295.682V296.27Z" fill="#F9F6F1" fill-opacity="0.4"/>
<path fill-rule="evenodd" clip-rule="evenodd" d="M148.307 304.301L147.022 299.477L147.248 299.416L148.532 304.24L148.307 304.301Z" fill="black"/>
<path fill-rule="evenodd" clip-rule="evenodd" d="M115.137 304.772L116.421 299.948L116.196 299.887L114.911 304.711L115.137 304.772Z" fill="black"/>
<path fill-rule="evenodd" clip-rule="evenodd" d="M146.012 256.204C144.916 255.576 143.713 255.139 142.763 254.988C142.411 254.932 141.958 255.042 141.472 255.298C140.988 255.552 140.484 255.943 140.037 256.429C139.139 257.404 138.484 258.741 138.642 260.089L138.41 260.116C138.241 258.675 138.941 257.274 139.866 256.269C140.329 255.766 140.854 255.357 141.364 255.089C141.871 254.823 142.377 254.689 142.799 254.756C143.782 254.912 145.011 255.36 146.127 255.999C147.241 256.637 148.257 257.475 148.798 258.42C149.011 258.79 149.04 259.304 148.953 259.852C148.866 260.405 148.66 261.012 148.379 261.585C148.099 262.158 147.741 262.703 147.349 263.129C146.959 263.554 146.525 263.873 146.088 263.974L146.035 263.745C146.406 263.659 146.802 263.379 147.178 262.969C147.552 262.562 147.897 262.037 148.17 261.48C148.443 260.923 148.64 260.339 148.723 259.815C148.806 259.288 148.769 258.839 148.596 258.537C148.085 257.644 147.109 256.832 146.012 256.204Z" fill="black"/>
<path d="M237.794 226.542L193.274 399.5H280V253.683V128.34V0L171.965 6.49188L191.788 43.9451L247.788 54.9313L237.794 226.542Z" fill="url(#paint6_linear)"/>
<path d="M242.699 218.364L255.94 206.73L273.841 217.667L272.716 235.591L252.995 247.699L241.218 236.938L242.699 218.364Z" fill="#2F1E3A"/>
<path d="M36.1771 319.6L57.9824 399.5H8.39233e-05V253.683V128.34V0H65.9116L69.3806 39.9501L36.1771 73.9076V319.6Z" fill="url(#paint7_linear)"/>
<path d="M280 168.789L58.9736 4.49441L74.832 0.998779L280 146.816V168.789Z" fill="#9CE7FF" fill-opacity="0.14"/>
<path d="M280 78.9014L155.611 0.998779H170.478L280 56.9288V78.9014Z" fill="#9CE7FF" fill-opacity="0.14"/>
<path d="M213.097 400L0.495605 180.774V133.333L280 385.019V400H213.097Z" fill="#9CE7FF" fill-opacity="0.14"/>
<path d="M185.841 48.9388C236.885 48.9388 266.619 27.4657 280 14.9813V0H64.4248C89.3688 16.4794 134.796 48.9388 185.841 48.9388Z" fill="#43606C"/>
<path d="M94.6549 48.9388C46.0885 51.4357 15.8584 41.9476 0 32.9588V0H216.071C191.127 16.4794 143.221 46.4419 94.6549 48.9388Z" fill="#43606C"/>
<defs>
<radialGradient id="paint0_radial" cx="0" cy="0" r="1" gradientUnits="userSpaceOnUse" gradientTransform="translate(138.761 19.4999) rotate(90) scale(119 82.6661)">
<stop stop-color="#256C76"/>
<stop offset="1" stop-color="#1F3367"/>
</radialGradient>
<linearGradient id="paint1_linear" x1="135.782" y1="259.433" x2="135.782" y2="399.461" gradientUnits="userSpaceOnUse">
<stop stop-color="#B57A29"/>
<stop offset="0.586458" stop-color="#804E0A"/>
<stop offset="1" stop-color="#7D260A"/>
</linearGradient>
<linearGradient id="paint2_linear" x1="132.265" y1="277.425" x2="132.265" y2="285.989" gradientUnits="userSpaceOnUse">
<stop stop-color="#FDB646"/>
<stop offset="1" stop-color="#FAA929"/>
</linearGradient>
<linearGradient id="paint3_linear" x1="130.149" y1="288.74" x2="132.283" y2="301.677" gradientUnits="userSpaceOnUse">
<stop stop-color="white"/>
<stop offset="0.0001" stop-color="#DCE9EB" stop-opacity="0.88"/>
<stop offset="1" stop-color="#C4D2D3" stop-opacity="0.73"/>
</linearGradient>
<linearGradient id="paint4_linear" x1="133.535" y1="289.092" x2="132.231" y2="303.092" gradientUnits="userSpaceOnUse">
<stop offset="0.383333" stop-color="#FEBF5A"/>
<stop offset="1" stop-color="#E67315"/>
</linearGradient>
<linearGradient id="paint5_linear" x1="132.251" y1="289.916" x2="132.251" y2="303.094" gradientUnits="userSpaceOnUse">
<stop stop-color="#FFEEB0"/>
<stop offset="1" stop-color="#FFD12D"/>
</linearGradient>
<linearGradient id="paint6_linear" x1="191.158" y1="-48.9197" x2="322.548" y2="409.886" gradientUnits="userSpaceOnUse">
<stop stop-color="#6E3154"/>
<stop offset="0.992286" stop-color="#302E5C"/>
</linearGradient>
<linearGradient id="paint7_linear" x1="88.8419" y1="-48.9197" x2="-42.5476" y2="409.886" gradientUnits="userSpaceOnUse">
<stop stop-color="#6E3154"/>
<stop offset="0.992286" stop-color="#302E5C"/>
</linearGradient>
</defs>
</svg>
