<svg width="480" height="600" viewBox="0 0 480 600" fill="none" xmlns="http://www.w3.org/2000/svg">
<rect width="480" height="599.874" fill="url(#paint0_radial)"/>
<path d="M366 37.9919L388 599.874H300.615L287 37.9919H366Z" fill="#3B40B0"/>
<path d="M331.017 292.923L295.047 308.656L291.823 428.53L287.783 599.848H465V502.271V428.53L331.017 292.923Z" fill="#1C0E4D"/>
<path d="M298.78 300.773C302.046 301.548 303.919 308.029 303.919 308.029L296.263 315.517C296.263 315.517 290.396 313.285 289.79 310.424C289.183 307.562 289.495 305.502 291.681 303.65C293.866 301.797 295.514 299.998 298.78 300.773Z" fill="#1C0E4C"/>
<path d="M324.533 318.807L331.9 321.779L313.041 328.832L315.567 322.583L324.533 318.807Z" fill="#301D70"/>
<path d="M322.717 291.631C321.352 293.994 324.291 300.823 324.291 300.823L333.957 300.298C333.957 300.298 335.513 293.206 334.631 291.631C333.749 290.055 332.816 288.479 329.011 288.216C325.207 287.954 324.083 289.267 322.717 291.631Z" fill="#1C0E4C"/>
<ellipse cx="306.674" cy="318.993" rx="1.56829" ry="2.37048" fill="#00F3F3"/>
<ellipse cx="327.845" cy="310.303" rx="2.35244" ry="1.58032" fill="#00F3F3"/>
<path d="M140.892 40.9915L91 597.875H148.123L185 40.9915H140.892Z" fill="#3B40B0"/>
<path d="M480 511L0 158.5V140.5L480 485V511Z" fill="#9CE7FF" fill-opacity="0.14"/>
<path d="M480 379.265L0 14.9974V2.5L480 344.928V379.265Z" fill="#9CE7FF" fill-opacity="0.14"/>
<path d="M82.3158 64.9863L51 599.874H87.8421L121 64.9863H82.3158Z" fill="#776CF2"/>
<path d="M101.291 312.665L50.5455 416.263L39 600H236.133L177.125 396.287L135.415 313.826L101.291 312.665Z" fill="#1C0E4C"/>
<path d="M116.278 336.358L110.514 341.004L129.189 342.165L125.27 337.287L116.278 336.358Z" fill="#301D70"/>
<path d="M128.729 308.253L126.192 318.705L132.879 323.119L142.793 313.595L137.721 306.394L128.729 308.253Z" fill="#1C0E4C"/>
<path d="M107.517 307.322L110.053 317.775L103.366 322.188L93.4521 312.665L98.5245 305.464L107.517 307.322Z" fill="#1C0E4C"/>
<ellipse rx="1.84646" ry="1.85673" transform="matrix(0.928057 0.372438 -0.367692 0.929948 108.453 330.393)" fill="#00F3F3"/>
<ellipse rx="1.84646" ry="1.85673" transform="matrix(0.928057 0.372438 -0.367692 0.929948 129.175 330.709)" fill="#00F3F3"/>
<path d="M390.761 63.9866L366 599.874H406.783L433 63.9866H390.761Z" fill="#776CF2"/>
<path d="M179.506 445.514C177.376 466.362 150.212 570.472 129.572 599.874H337.595C313.627 528.373 284 404.706 284 355.925C284 332.252 289.78 36.5097 292 7.99841L241.77 7.99844L184 7.99829C182.003 61.0115 181.637 424.665 179.506 445.514Z" fill="#5D418A"/>
<path fill-rule="evenodd" clip-rule="evenodd" d="M204.186 367.855C202.639 368.668 201.472 369.624 200.785 370.721C199.386 372.957 198.862 375.564 198.297 379.208C198.221 379.699 198.144 380.209 198.065 380.739C197.553 384.131 196.918 388.339 195.557 393.759C192.41 406.295 185.381 425.304 167.015 455.779C148.673 486.214 138.631 522.189 134.567 550.558C132.535 564.742 131.998 577.016 132.663 585.738C132.995 590.101 133.627 593.563 134.516 595.928C134.961 597.11 135.465 598.006 136.018 598.604C136.569 599.198 137.159 599.489 137.787 599.489H331.563C331.561 599.47 331.559 599.451 331.557 599.43C331.537 599.246 331.507 598.972 331.465 598.612C331.383 597.892 331.257 596.83 331.084 595.458C330.737 592.714 330.199 588.733 329.437 583.787C327.913 573.893 325.49 560.138 321.896 544.689C314.706 513.787 302.834 476.133 284.104 449.064C265.344 421.951 257.725 404.525 254.134 392.83C252.482 387.45 251.684 383.286 251.046 379.959C250.99 379.67 250.936 379.387 250.883 379.11C250.213 375.642 249.665 373.158 248.364 371.118C247.727 370.12 246.603 369.213 245.09 368.411C243.58 367.61 241.696 366.923 239.557 366.356C235.281 365.224 230.008 364.582 224.718 364.484C219.428 364.385 214.131 364.829 209.807 365.863C207.645 366.38 205.732 367.043 204.186 367.855ZM331.782 599.687C331.977 599.666 331.977 599.666 331.977 599.665L331.977 599.661L331.97 599.595C331.965 599.549 331.957 599.479 331.947 599.386C331.927 599.202 331.897 598.927 331.856 598.567C331.773 597.846 331.647 596.781 331.473 595.408C331.126 592.661 330.588 588.676 329.825 583.726C328.3 573.825 325.875 560.06 322.278 544.599C315.086 513.684 303.2 475.97 284.426 448.838C265.683 421.749 258.085 404.36 254.509 392.713C252.864 387.355 252.069 383.209 251.431 379.883C251.376 379.594 251.322 379.312 251.268 379.035C250.601 375.579 250.043 373.019 248.694 370.905C248.006 369.826 246.816 368.878 245.273 368.061C243.728 367.242 241.814 366.545 239.657 365.974C235.343 364.831 230.038 364.187 224.725 364.088C219.412 363.989 214.081 364.435 209.717 365.478C207.534 366 205.588 366.672 204.005 367.504C202.423 368.335 201.19 369.333 200.453 370.51C199.005 372.824 198.474 375.509 197.909 379.147C197.833 379.64 197.756 380.151 197.676 380.681C197.165 384.072 196.533 388.262 195.176 393.662C192.041 406.15 185.031 425.122 166.679 455.574C148.303 486.066 138.248 522.096 134.178 550.501C132.143 564.704 131.603 577.008 132.271 585.768C132.605 590.146 133.241 593.651 134.149 596.068C134.603 597.276 135.13 598.224 135.731 598.874C136.335 599.526 137.023 599.884 137.787 599.884H332L331.977 599.666L331.782 599.687Z" fill="black"/>
<path d="M243.761 356.602C241.16 356.189 236.054 360.707 236.602 365.394C237.306 366.08 239.381 367.927 242.051 369.826C244.721 371.725 247.98 371.87 249.276 371.705C251.995 371.073 255.008 364.921 253.712 362.661C251.941 359.572 247.013 357.118 243.761 356.602Z" fill="#B57A29"/>
<path d="M243.801 360.725C241.916 361.042 239.416 364.352 239.285 365.868C240.699 365.868 245.765 368.638 248.121 370.022C248.841 369.297 249.967 367.688 250.281 365.473C250.674 362.703 246.157 360.33 243.801 360.725Z" fill="#FBAB7E"/>
<path d="M207.244 355.005C210.495 354.488 214.908 360.195 214.358 364.883C213.655 365.57 211.62 366.333 208.95 368.234C206.281 370.135 203.023 370.281 201.728 370.116C199.01 369.485 196 363.331 197.296 361.069C199.067 357.979 203.994 355.522 207.244 355.005Z" fill="#B57A29"/>
<path d="M208.458 359.934C210.343 360.25 211.469 364.154 211.6 365.671C210.186 365.671 205.928 367.099 203.571 368.484C202.851 367.758 202.489 365.314 202.175 363.099C201.782 360.329 206.102 359.538 208.458 359.934Z" fill="#FBAB7E"/>
<path d="M200.62 370.616C194.926 379.716 203.565 394.75 166.848 455.677C130.13 516.604 126.654 599.687 137.788 599.687H331.783C331.783 599.687 321.769 503.153 284.266 448.951C246.763 394.75 253.831 379.32 248.53 371.012C243.228 362.703 206.314 361.516 200.62 370.616Z" fill="url(#paint1_linear)"/>
<path d="M230.979 445.259C229.54 445.714 228.321 446.01 229.402 443.226C229.664 442.548 230.9 440.638 233.741 438.421C236.581 436.203 239.92 435.525 241.235 435.464C245.787 434.546 246.697 438.421 241.235 437.756C238.307 437.4 242.692 439.541 240.325 441.425C237.958 443.308 236.684 440.507 234.408 441.932C232.089 443.384 234.408 444.176 230.979 445.259Z" fill="#FBAB2E"/>
<path d="M221.664 446.468C222.575 449.678 224.552 448.302 223.485 445.551C223.222 444.874 221.452 441.494 218.691 439.337C215.851 437.12 213.897 436.373 212.106 435.922C208.465 435.005 210.65 437.831 214.382 438.673C215.776 438.988 213.017 440.966 214.837 442.8C217.113 445.093 218.337 442.752 219.844 443.258C221.209 443.717 221.146 444.642 221.664 446.468Z" fill="#FBAB2E"/>
<path fill-rule="evenodd" clip-rule="evenodd" d="M294.934 493.031C291.658 494.013 287.142 493.353 282.418 491.668L282.549 491.295C287.249 492.972 291.668 493.598 294.822 492.652C296.393 492.181 297.645 491.322 298.471 490.012C299.298 488.7 299.712 486.915 299.566 484.57L299.958 484.545C300.107 486.948 299.687 488.822 298.802 490.224C297.916 491.628 296.579 492.538 294.934 493.031Z" fill="black"/>
<path fill-rule="evenodd" clip-rule="evenodd" d="M168.625 495.285C171.716 494.876 175.085 493.641 178.352 491.651L178.148 491.312C174.921 493.279 171.603 494.492 168.574 494.892C165.544 495.293 162.816 494.88 160.753 493.612C158.697 492.348 157.277 490.222 156.879 487.144C156.479 484.059 157.106 480.015 159.16 474.94L158.797 474.79C156.728 479.902 156.078 484.018 156.489 487.195C156.902 490.38 158.38 492.618 160.549 493.95C162.711 495.279 165.536 495.693 168.625 495.285Z" fill="black"/>
<path d="M214.349 401.475C215.316 399.497 216.02 397.914 217.883 397.914C220.435 397.914 221.432 395.739 223.395 397.123C225.359 398.508 227.486 398.209 228.486 396.529C230.253 393.562 233.591 394.156 234.376 396.529C235.162 398.903 237.657 396.964 239.693 400.684C241.641 404.244 240.071 406.42 237.125 406.42C234.18 406.42 232.933 405.573 230.253 407.607C227.126 409.981 225.752 408.596 223.395 407.607C221.039 406.618 219.129 405.878 216.705 406.42C214.938 406.816 211.6 405.684 211.6 404.244C211.6 402.805 213.116 403.997 214.349 401.475Z" fill="url(#paint2_linear)"/>
<path fill-rule="evenodd" clip-rule="evenodd" d="M231.824 394.132C233.131 394.216 234.304 395.059 234.749 396.404C234.916 396.908 235.156 397.151 235.443 397.311C235.701 397.456 235.996 397.536 236.372 397.638C236.467 397.664 236.566 397.691 236.672 397.721C237.176 397.864 237.754 398.06 238.34 398.476C238.928 398.894 239.503 399.519 240.037 400.493C241.042 402.329 241.197 403.915 240.592 405.072C239.983 406.237 238.684 406.816 237.125 406.816C236.379 406.816 235.74 406.763 235.173 406.716L235.154 406.714C234.576 406.666 234.085 406.626 233.606 406.646C232.681 406.685 231.774 406.948 230.489 407.923C228.869 409.153 227.637 409.455 226.471 409.259C225.905 409.163 225.378 408.955 224.86 408.719C224.659 408.628 224.465 408.535 224.269 408.441C223.942 408.284 223.611 408.126 223.245 407.972C220.883 406.981 219.08 406.294 216.79 406.807C215.805 407.027 214.446 406.82 213.347 406.389C212.793 406.172 212.275 405.887 211.889 405.544C211.508 405.206 211.207 404.766 211.207 404.245C211.207 403.806 211.328 403.478 211.611 403.25C211.735 403.15 211.873 403.084 211.998 403.034C212.074 403.003 212.165 402.97 212.251 402.94C212.295 402.924 212.338 402.909 212.377 402.894C212.624 402.803 212.881 402.69 213.147 402.466C213.414 402.241 213.708 401.89 213.996 401.3C214.032 401.228 214.067 401.155 214.103 401.083C214.537 400.191 214.953 399.337 215.478 398.7C216.067 397.985 216.813 397.519 217.883 397.519C218.861 397.519 219.573 397.177 220.282 396.836C220.42 396.769 220.558 396.703 220.698 396.639C221.116 396.449 221.564 396.278 222.056 396.267C222.562 396.256 223.073 396.413 223.621 396.799C224.538 397.446 225.466 397.68 226.254 397.583C227.036 397.486 227.711 397.061 228.149 396.326C229.099 394.731 230.507 394.047 231.824 394.132ZM231.774 394.922C230.784 394.858 229.64 395.361 228.823 396.733C228.26 397.677 227.372 398.242 226.35 398.368C225.334 398.494 224.216 398.185 223.17 397.447C222.737 397.142 222.387 397.051 222.074 397.058C221.747 397.066 221.418 397.18 221.022 397.36C220.904 397.414 220.781 397.474 220.652 397.536C219.941 397.881 219.054 398.31 217.883 398.31C217.09 398.31 216.553 398.635 216.082 399.206C215.62 399.766 215.244 400.537 214.793 401.461C214.763 401.523 214.732 401.586 214.701 401.65C214.373 402.322 214.015 402.767 213.651 403.073C213.286 403.38 212.933 403.532 212.647 403.637C212.587 403.66 212.535 403.678 212.487 403.695C212.415 403.72 212.354 403.742 212.291 403.768C212.194 403.807 212.138 403.838 212.101 403.868C212.061 403.9 211.992 403.963 211.992 404.245C211.992 404.443 212.109 404.685 212.409 404.951C212.703 405.213 213.131 405.456 213.632 405.652C214.644 406.048 215.837 406.209 216.62 406.034C219.179 405.462 221.195 406.255 223.547 407.242C223.926 407.401 224.294 407.577 224.636 407.74C224.827 407.831 225.01 407.919 225.183 407.998C225.683 408.225 226.136 408.4 226.6 408.478C227.492 408.628 228.51 408.435 230.017 407.291C231.412 406.233 232.468 405.902 233.573 405.856C234.109 405.833 234.65 405.878 235.218 405.925L235.229 405.926C235.8 405.974 236.412 406.025 237.125 406.025C238.512 406.025 239.472 405.516 239.897 404.703C240.326 403.882 240.293 402.599 239.349 400.875C238.864 399.99 238.364 399.462 237.887 399.123C237.409 398.783 236.932 398.617 236.459 398.483C236.378 398.46 236.294 398.437 236.209 398.414C235.824 398.31 235.413 398.199 235.062 398.003C234.596 397.743 234.23 397.338 234.004 396.655C233.664 395.626 232.775 394.986 231.774 394.922Z" fill="#FFD12D"/>
<path d="M236.356 388.024H215.543L222.51 396.447C224.023 398.276 226.786 398.354 228.398 396.614L236.356 388.024Z" fill="black"/>
<path d="M215.346 387.826C216.851 383.935 219.076 374.77 225.163 374.77C232.232 374.77 235.112 383.54 236.159 387.826H215.346Z" fill="#C68731"/>
<path d="M216.312 376.551C216.312 378.08 215.082 379.32 213.563 379.32C212.045 379.32 210.814 378.08 210.814 376.551C210.814 375.021 212.045 373.781 213.563 373.781C215.082 373.781 216.312 375.021 216.312 376.551Z" fill="black"/>
<path d="M215.528 375.759C215.528 376.197 215.176 376.551 214.742 376.551C214.309 376.551 213.957 376.197 213.957 375.759C213.957 375.322 214.309 374.968 214.742 374.968C215.176 374.968 215.528 375.322 215.528 375.759Z" fill="white"/>
<path d="M240.661 376.551C240.661 378.08 239.43 379.32 237.912 379.32C236.394 379.32 235.163 378.08 235.163 376.551C235.163 375.021 236.394 373.781 237.912 373.781C239.43 373.781 240.661 375.021 240.661 376.551Z" fill="black"/>
<path d="M239.483 375.759C239.483 376.197 239.131 376.551 238.698 376.551C238.264 376.551 237.912 376.197 237.912 375.759C237.912 375.322 238.264 374.968 238.698 374.968C239.131 374.968 239.483 375.322 239.483 375.759Z" fill="white"/>
<path fill-rule="evenodd" clip-rule="evenodd" d="M222.494 403.308C220.475 404.213 217.867 404.208 215.469 403.241L215.615 402.874C217.929 403.807 220.426 403.802 222.334 402.946C224.233 402.095 225.556 400.401 225.556 397.915H225.948C225.948 400.404 227.224 402.018 228.976 402.829C230.738 403.644 232.989 403.647 234.908 402.874L235.053 403.241C233.045 404.051 230.682 404.054 228.812 403.188C227.348 402.511 226.191 401.302 225.749 399.549C225.291 401.332 224.075 402.599 222.494 403.308Z" fill="black"/>
<path fill-rule="evenodd" clip-rule="evenodd" d="M202.458 356.835C204.391 355.957 206.472 355.416 208.086 355.313C208.683 355.274 209.425 355.53 210.2 356.034C210.97 356.535 211.753 357.27 212.427 358.154C213.778 359.928 214.667 362.268 214.194 364.499L214.578 364.582C215.084 362.197 214.131 359.74 212.738 357.913C212.04 356.997 211.225 356.23 210.413 355.702C209.605 355.176 208.778 354.872 208.062 354.918C206.392 355.024 204.265 355.58 202.297 356.474C200.333 357.367 198.502 358.609 197.449 360.105C197.035 360.692 196.908 361.547 196.967 362.479C197.027 363.417 197.278 364.465 197.659 365.469C198.04 366.473 198.553 367.441 199.144 368.217C199.731 368.989 200.409 369.591 201.125 369.83L201.248 369.454C200.64 369.251 200.021 368.721 199.455 367.976C198.892 367.236 198.396 366.302 198.026 365.327C197.656 364.352 197.415 363.343 197.359 362.453C197.302 361.557 197.432 360.812 197.769 360.334C198.764 358.92 200.523 357.714 202.458 356.835Z" fill="black"/>
<path fill-rule="evenodd" clip-rule="evenodd" d="M209.016 483.959C200.065 481.803 188.54 485.523 174.802 493.827L174.6 493.488C188.351 485.176 199.995 481.379 209.108 483.574C218.248 485.776 224.759 493.979 228.3 509.438C231.14 521.84 227.916 537.249 222.756 551.448C217.794 565.098 211.032 577.661 206.091 585.419C211.132 581.732 215.435 580.246 218.873 580.128C222.512 580.002 225.176 581.41 226.692 583.343C227.458 584.322 227.973 585.656 228.284 587.138C228.596 588.623 228.706 590.271 228.656 591.889C228.605 593.507 228.393 595.101 228.056 596.48C227.721 597.855 227.258 599.032 226.696 599.804L226.379 599.57C226.897 598.858 227.345 597.739 227.675 596.385C228.004 595.036 228.213 593.469 228.263 591.876C228.313 590.283 228.204 588.668 227.9 587.22C227.596 585.771 227.099 584.502 226.383 583.588C224.953 581.763 222.414 580.402 218.886 580.523C215.356 580.645 210.829 582.255 205.451 586.393L205.167 586.127C210.134 578.489 217.235 565.486 222.387 551.312C227.541 537.131 230.731 521.813 227.917 509.527C224.389 494.127 217.941 486.109 209.016 483.959Z" fill="black"/>
<path fill-rule="evenodd" clip-rule="evenodd" d="M251.384 483.959C260.335 481.803 271.86 485.523 285.599 493.827L285.801 493.488C272.05 485.176 260.405 481.379 251.293 483.574C242.153 485.776 235.642 493.979 232.101 509.438C229.26 521.84 232.484 537.249 237.645 551.448C242.65 565.219 249.489 577.885 254.441 585.625C250.467 583.279 246.154 581.652 242.213 580.996C238.037 580.3 234.242 580.689 231.726 582.514C230.704 583.255 230.005 584.537 229.536 586.054C229.065 587.575 228.817 589.359 228.715 591.138C228.513 594.69 228.895 598.262 229.295 599.739L229.674 599.635C229.288 598.211 228.907 594.685 229.108 591.16C229.208 589.4 229.453 587.651 229.911 586.172C230.37 584.688 231.035 583.503 231.955 582.835C234.347 581.1 238.014 580.697 242.149 581.386C246.276 582.074 250.832 583.844 254.966 586.404L255.233 586.127C250.266 578.489 243.165 565.486 238.014 551.312C232.859 537.131 229.669 521.813 232.483 509.527C236.011 494.127 242.459 486.109 251.384 483.959Z" fill="black"/>
<path fill-rule="evenodd" clip-rule="evenodd" d="M192.254 444.811C186.066 450.531 180.322 457.645 177.222 462.51L176.892 462.296C180.01 457.402 185.776 450.262 191.988 444.52C195.094 441.649 198.317 439.121 201.382 437.398C204.441 435.679 207.369 434.745 209.875 435.106C217.523 436.207 222.484 441.563 224.565 448.1C226.643 454.631 225.853 462.359 221.989 468.248C215.84 477.62 208.765 481.758 206.576 482.76L206.414 482.4C208.545 481.424 215.558 477.332 221.661 468.03C225.455 462.249 226.236 454.646 224.191 448.22C222.147 441.8 217.291 436.573 209.82 435.498C207.442 435.156 204.606 436.039 201.573 437.744C198.545 439.446 195.347 441.952 192.254 444.811Z" fill="black"/>
<path fill-rule="evenodd" clip-rule="evenodd" d="M259.378 444.811C265.566 450.531 271.31 457.645 274.41 462.51L274.74 462.296C271.622 457.402 265.855 450.262 259.644 444.52C256.538 441.649 253.315 439.121 250.25 437.398C247.191 435.679 244.262 434.745 241.757 435.106C234.109 436.207 229.147 441.563 227.067 448.1C224.989 454.631 225.779 462.359 229.643 468.248C232.719 472.937 236.478 476.71 239.737 479.434C242.993 482.155 245.76 483.838 246.861 484.343L247.024 483.982C245.965 483.498 243.228 481.838 239.987 479.129C236.75 476.423 233.02 472.678 229.971 468.03C226.177 462.249 225.396 454.646 227.441 448.22C229.484 441.8 234.341 436.573 241.812 435.498C244.19 435.156 247.026 436.039 250.059 437.744C253.087 439.446 256.285 441.952 259.378 444.811Z" fill="black"/>
<path d="M230.866 413.542H221.695C220.592 413.542 219.57 414.125 219.002 415.077L213.198 424.806C212.644 425.734 212.6 426.883 213.08 427.852L218.068 437.904C218.6 438.977 219.688 439.654 220.878 439.654H230.825C231.984 439.654 233.049 439.011 233.595 437.982L238.987 427.824C239.492 426.872 239.481 425.727 238.958 424.785L233.607 415.161C233.052 414.161 232.003 413.542 230.866 413.542Z" fill="url(#paint3_linear)"/>
<path fill-rule="evenodd" clip-rule="evenodd" d="M218.833 414.975C219.436 413.963 220.522 413.344 221.694 413.344H230.866C232.074 413.344 233.187 414.002 233.778 415.064L239.128 424.688C239.685 425.688 239.696 426.906 239.159 427.917L233.768 438.075C233.187 439.169 232.056 439.852 230.824 439.852H220.877C219.612 439.852 218.456 439.132 217.891 437.992L212.904 427.94C212.393 426.911 212.44 425.69 213.029 424.704L218.833 414.975ZM221.694 413.74C220.66 413.74 219.702 414.286 219.169 415.179L213.365 424.908C212.846 425.778 212.805 426.855 213.255 427.763L218.242 437.815C218.741 438.821 219.761 439.456 220.877 439.456H230.824C231.911 439.456 232.909 438.853 233.421 437.888L238.813 427.73C239.287 426.838 239.276 425.764 238.786 424.881L233.435 415.257C232.914 414.32 231.931 413.74 230.866 413.74H221.694Z" fill="white"/>
<path d="M228.89 417.735L223.571 421.843C223.394 421.98 223.203 422.097 223.001 422.193L217.19 424.955C215.592 425.715 214.93 427.654 215.727 429.244L219.081 435.938C219.616 437.004 220.7 437.676 221.886 437.676H229.883C231.038 437.676 232.099 437.039 232.648 436.016L237.009 427.882C237.523 426.924 237.511 425.767 236.979 424.819L233.536 418.688C232.596 417.015 230.405 416.565 228.89 417.735Z" fill="url(#paint4_linear)"/>
<path fill-rule="evenodd" clip-rule="evenodd" d="M233.023 418.98C232.259 417.621 230.478 417.255 229.248 418.206L223.929 422.314C223.718 422.476 223.491 422.616 223.251 422.73L217.441 425.492C216.142 426.109 215.604 427.685 216.252 428.976L219.606 435.67C220.041 436.536 220.922 437.083 221.885 437.083H229.883C230.821 437.083 231.683 436.565 232.129 435.733L236.49 427.6C236.907 426.821 236.898 425.881 236.466 425.111L233.023 418.98ZM228.531 417.264C230.33 415.875 232.932 416.409 234.048 418.396L237.491 424.527C238.123 425.652 238.137 427.026 237.526 428.164L233.165 436.297C232.514 437.512 231.253 438.27 229.883 438.27H221.885C220.477 438.27 219.189 437.471 218.555 436.205L215.2 429.511C214.254 427.623 215.04 425.321 216.938 424.418L222.749 421.656C222.913 421.578 223.068 421.483 223.212 421.372L228.531 417.264Z" fill="url(#paint5_linear)"/>
<path d="M233.318 438.467L215.058 421.85L216.825 418.685L235.478 434.51L233.318 438.467Z" fill="#F9F6F1" fill-opacity="0.4"/>
<path d="M236.264 432.929L217.61 417.499L218.003 416.708L236.656 432.137L236.264 432.929Z" fill="#F9F6F1" fill-opacity="0.4"/>
<path d="M239.209 426.203L223.894 413.542L232.533 413.938L239.209 425.214V426.203Z" fill="#F9F6F1" fill-opacity="0.4"/>
<path fill-rule="evenodd" clip-rule="evenodd" d="M253.052 439.705L250.893 431.594L251.272 431.492L253.432 439.602L253.052 439.705Z" fill="black"/>
<path fill-rule="evenodd" clip-rule="evenodd" d="M197.276 440.496L199.436 432.386L199.056 432.283L196.896 440.394L197.276 440.496Z" fill="black"/>
<path fill-rule="evenodd" clip-rule="evenodd" d="M249.192 358.844C247.349 357.789 245.327 357.055 243.73 356.801C243.139 356.707 242.377 356.891 241.559 357.321C240.746 357.748 239.899 358.406 239.146 359.223C237.637 360.862 236.536 363.109 236.801 365.375L236.412 365.421C236.127 362.999 237.303 360.642 238.858 358.954C239.638 358.107 240.52 357.42 241.377 356.97C242.231 356.522 243.082 356.297 243.791 356.41C245.443 356.673 247.51 357.426 249.386 358.5C251.259 359.573 252.968 360.982 253.878 362.57C254.235 363.194 254.284 364.057 254.139 364.979C253.992 365.908 253.645 366.928 253.174 367.892C252.702 368.856 252.101 369.771 251.442 370.489C250.786 371.203 250.056 371.738 249.321 371.909L249.233 371.523C249.857 371.378 250.522 370.908 251.154 370.22C251.783 369.535 252.363 368.652 252.822 367.716C253.28 366.78 253.612 365.798 253.751 364.917C253.891 364.029 253.829 363.275 253.538 362.768C252.678 361.267 251.038 359.901 249.192 358.844Z" fill="black"/>
<path d="M54.2286 480.099L86.9143 599.874H0V381.285V193.388V1H98.8L104 60.8874L54.2286 111.792V480.099Z" fill="url(#paint6_linear)"/>
<path d="M417.494 344.062L351.56 599.874H480V384.204V198.817V8.99805L320 18.5998L349.358 73.9944L432.294 90.2435L417.494 344.062Z" fill="url(#paint7_linear)"/>
<path d="M480 290.94L88 8.2489L111.802 3L480 257.947V290.94Z" fill="#9CE7FF" fill-opacity="0.14"/>
<path d="M479 128.474L233 3H255.32L479 95.4806V128.474Z" fill="#9CE7FF" fill-opacity="0.14"/>
<path d="M348 599.874L0 244V188.119L480 544V599.874H348Z" fill="#9CE7FF" fill-opacity="0.14"/>
<path d="M337.161 74.9843C415.005 74.9843 459.594 42.083 480 22.9544V0H152C190.04 25.2498 259.318 74.9843 337.161 74.9843Z" fill="#43606C"/>
<path d="M133.174 68.4186C64.844 71.9093 22.312 58.6445 0 46.0778V0H304C268.905 23.0389 201.505 64.9278 133.174 68.4186Z" fill="#43606C"/>
<defs>
<radialGradient id="paint0_radial" cx="0" cy="0" r="1" gradientUnits="userSpaceOnUse" gradientTransform="translate(240 30.5) rotate(90) scale(229.5)">
<stop stop-color="#256C76"/>
<stop offset="0.992708" stop-color="#1F3367"/>
</radialGradient>
<linearGradient id="paint1_linear" x1="231.99" y1="364.272" x2="231.99" y2="599.687" gradientUnits="userSpaceOnUse">
<stop stop-color="#B57A29"/>
<stop offset="0.586458" stop-color="#804E0A"/>
<stop offset="1" stop-color="#6F3030"/>
</linearGradient>
<linearGradient id="paint2_linear" x1="226.077" y1="394.521" x2="226.077" y2="408.918" gradientUnits="userSpaceOnUse">
<stop stop-color="#FDB646"/>
<stop offset="1" stop-color="#FAA929"/>
</linearGradient>
<linearGradient id="paint3_linear" x1="222.519" y1="413.542" x2="226.105" y2="435.294" gradientUnits="userSpaceOnUse">
<stop stop-color="white"/>
<stop offset="0.0001" stop-color="#DCE9EB" stop-opacity="0.88"/>
<stop offset="1" stop-color="#C4D2D3" stop-opacity="0.73"/>
</linearGradient>
<linearGradient id="paint4_linear" x1="228.213" y1="414.136" x2="226.021" y2="437.673" gradientUnits="userSpaceOnUse">
<stop offset="0.383333" stop-color="#FEBF5A"/>
<stop offset="1" stop-color="#E67315"/>
</linearGradient>
<linearGradient id="paint5_linear" x1="226.053" y1="415.521" x2="226.053" y2="437.676" gradientUnits="userSpaceOnUse">
<stop stop-color="#FFEEB0"/>
<stop offset="1" stop-color="#FFD12D"/>
</linearGradient>
<linearGradient id="paint6_linear" x1="133.172" y1="-72.3334" x2="-63.7971" y2="615.437" gradientUnits="userSpaceOnUse">
<stop stop-color="#6E3154"/>
<stop offset="0.992286" stop-color="#302E5C"/>
</linearGradient>
<linearGradient id="paint7_linear" x1="348.426" y1="-63.356" x2="542.537" y2="615.37" gradientUnits="userSpaceOnUse">
<stop stop-color="#6E3154"/>
<stop offset="0.992286" stop-color="#302E5C"/>
</linearGradient>
</defs>
</svg>
