<svg width="480" height="600" viewBox="0 0 480 600" fill="none" xmlns="http://www.w3.org/2000/svg">
<rect width="480" height="599.874" fill="#FFD7AC"/>
<path d="M366 37.992L388 599.874H300.615L287 37.992H366Z" fill="#DD756E"/>
<path d="M331.017 292.923L295.047 308.657L291.823 428.53L287.783 599.848H465V502.271V428.53L331.017 292.923Z" fill="#1C0E4D"/>
<path d="M298.78 300.773C302.046 301.548 303.919 308.029 303.919 308.029L296.263 315.517C296.263 315.517 290.396 313.285 289.79 310.424C289.183 307.562 289.495 305.502 291.681 303.65C293.866 301.798 295.514 299.998 298.78 300.773Z" fill="#1C0E4C"/>
<path d="M324.533 318.807L331.9 321.78L313.041 328.832L315.567 322.583L324.533 318.807Z" fill="#301D70"/>
<path d="M322.717 291.631C321.352 293.994 324.291 300.823 324.291 300.823L333.957 300.298C333.957 300.298 335.513 293.207 334.631 291.631C333.749 290.055 332.816 288.479 329.011 288.216C325.207 287.954 324.083 289.267 322.717 291.631Z" fill="#1C0E4C"/>
<ellipse cx="306.674" cy="318.994" rx="1.56829" ry="2.37048" fill="#00F3F3"/>
<ellipse cx="327.845" cy="310.303" rx="2.35244" ry="1.58032" fill="#00F3F3"/>
<path d="M140.892 40.9914L91 597.875H148.123L185 40.9914H140.892Z" fill="#DD756E"/>
<path d="M480 597.875L0 190.008V165.965L480 563.528V597.875Z" fill="#FFEF9C" fill-opacity="0.14"/>
<path d="M480 379.265L0 14.9974V2.5L480 344.928V379.265Z" fill="#FFEF9C" fill-opacity="0.14"/>
<path d="M82.3158 64.9864L51 599.874H87.8421L121 64.9864H82.3158Z" fill="#F2946C"/>
<path d="M101.291 312.664L50.5455 416.263L39 600H236.133L177.125 396.287L135.415 313.826L101.291 312.664Z" fill="#1C0E4C"/>
<path d="M116.278 336.358L110.514 341.003L129.189 342.165L125.27 337.287L116.278 336.358Z" fill="#301D70"/>
<path d="M128.729 308.252L126.192 318.705L132.879 323.119L142.793 313.595L137.721 306.394L128.729 308.252Z" fill="#1C0E4C"/>
<path d="M107.517 307.322L110.053 317.775L103.366 322.188L93.4521 312.665L98.5245 305.464L107.517 307.322Z" fill="#1C0E4C"/>
<ellipse rx="1.84646" ry="1.85673" transform="matrix(0.928057 0.372438 -0.367692 0.929948 108.453 330.393)" fill="#00F3F3"/>
<ellipse rx="1.84646" ry="1.85673" transform="matrix(0.928057 0.372438 -0.367692 0.929948 129.175 330.708)" fill="#00F3F3"/>
<path d="M390.761 63.9866L366 599.874H406.783L433 63.9866H390.761Z" fill="#F2946C"/>
<path d="M179.506 445.513C177.376 466.362 150.212 570.472 129.572 599.874H337.595C313.627 528.373 284 404.706 284 355.925C284 332.252 289.78 36.5096 292 7.99832L241.77 7.99835L184 7.9982C182.003 61.0114 181.637 424.665 179.506 445.513Z" fill="#8A4152"/>
<path fill-rule="evenodd" clip-rule="evenodd" d="M204.186 365.855C202.639 366.668 201.472 367.624 200.785 368.722C199.386 370.957 198.862 373.564 198.297 377.208C198.221 377.7 198.144 378.209 198.065 378.739C197.553 382.131 196.918 386.339 195.557 391.76C192.41 404.295 185.381 423.304 167.015 453.78C148.673 484.214 138.631 520.19 134.567 548.558C132.535 562.742 131.998 575.016 132.663 583.738C132.995 588.101 133.627 591.563 134.516 593.928C134.961 595.111 135.465 596.007 136.018 596.604C136.569 597.198 137.159 597.489 137.787 597.489H331.563C331.561 597.47 331.559 597.451 331.557 597.43C331.537 597.246 331.507 596.972 331.465 596.612C331.383 595.893 331.257 594.83 331.084 593.458C330.737 590.714 330.199 586.733 329.437 581.787C327.913 571.894 325.49 558.138 321.896 542.69C314.706 511.787 302.834 474.133 284.104 447.064C265.344 419.952 257.725 402.525 254.134 390.83C252.482 385.451 251.684 381.286 251.046 377.96C250.99 377.67 250.936 377.387 250.883 377.111C250.213 373.642 249.665 371.159 248.364 369.119C247.727 368.121 246.603 367.213 245.09 366.411C243.58 365.611 241.696 364.923 239.557 364.357C235.281 363.224 230.008 362.582 224.718 362.484C219.428 362.385 214.131 362.829 209.807 363.863C207.645 364.38 205.732 365.043 204.186 365.855ZM331.782 597.687C331.977 597.666 331.977 597.666 331.977 597.665L331.977 597.662L331.97 597.596C331.965 597.549 331.957 597.479 331.947 597.387C331.927 597.202 331.897 596.927 331.856 596.567C331.773 595.846 331.647 594.782 331.473 593.408C331.126 590.661 330.588 586.677 329.825 581.726C328.3 571.825 325.875 558.06 322.278 542.599C315.086 511.685 303.2 473.971 284.426 446.838C265.683 419.749 258.085 402.36 254.509 390.713C252.864 385.355 252.069 381.209 251.431 377.884C251.376 377.595 251.322 377.312 251.268 377.035C250.601 373.58 250.043 371.019 248.694 368.905C248.006 367.826 246.816 366.879 245.273 366.061C243.728 365.242 241.814 364.545 239.657 363.974C235.343 362.832 230.038 362.187 224.725 362.088C219.412 361.989 214.081 362.435 209.717 363.478C207.534 364 205.588 364.672 204.005 365.504C202.423 366.336 201.19 367.333 200.453 368.511C199.005 370.825 198.474 373.509 197.909 377.147C197.833 377.64 197.756 378.151 197.676 378.681C197.165 382.072 196.533 386.262 195.176 391.663C192.041 404.151 185.031 423.123 166.679 453.574C148.303 484.067 138.248 520.096 134.178 548.501C132.143 562.704 131.603 575.008 132.271 583.768C132.605 588.146 133.241 591.651 134.149 594.068C134.603 595.276 135.13 596.224 135.731 596.874C136.335 597.526 137.023 597.885 137.787 597.885H332L331.977 597.666L331.782 597.687Z" fill="black"/>
<path d="M243.761 354.602C241.16 354.19 236.054 358.708 236.602 363.394C237.306 364.08 239.381 365.927 242.051 367.826C244.721 369.726 247.98 369.871 249.276 369.706C251.995 369.074 255.008 362.921 253.712 360.661C251.941 357.572 247.013 355.118 243.761 354.602Z" fill="#B57A29"/>
<path d="M243.801 358.725C241.916 359.042 239.416 362.352 239.285 363.868C240.699 363.868 245.765 366.638 248.121 368.023C248.841 367.297 249.967 365.688 250.281 363.473C250.674 360.703 246.157 358.33 243.801 358.725Z" fill="#FBAB7E"/>
<path d="M207.244 353.005C210.495 352.488 214.908 358.195 214.358 362.883C213.655 363.57 211.62 364.333 208.95 366.234C206.281 368.135 203.023 368.281 201.728 368.116C199.01 367.485 196 361.331 197.296 359.069C199.067 355.979 203.994 353.522 207.244 353.005Z" fill="#B57A29"/>
<path d="M208.458 357.934C210.343 358.251 211.469 362.154 211.6 363.671C210.186 363.671 205.928 365.099 203.571 366.484C202.851 365.758 202.489 363.315 202.175 361.099C201.782 358.33 206.102 357.538 208.458 357.934Z" fill="#FBAB7E"/>
<path d="M200.62 368.616C194.926 377.716 203.565 392.75 166.848 453.677C130.13 514.604 126.654 597.687 137.788 597.687H331.783C331.783 597.687 321.769 501.153 284.266 446.951C246.763 392.75 253.831 377.32 248.53 369.012C243.228 360.704 206.314 359.517 200.62 368.616Z" fill="url(#paint0_linear)"/>
<path d="M230.979 443.259C229.54 443.714 228.321 444.01 229.402 441.226C229.664 440.548 230.9 438.639 233.741 436.421C236.581 434.203 239.92 433.525 241.235 433.464C245.787 432.547 246.697 436.421 241.235 435.756C238.307 435.4 242.692 437.541 240.325 439.425C237.958 441.308 236.684 438.508 234.408 439.932C232.089 441.384 234.408 442.176 230.979 443.259Z" fill="#FBAB2E"/>
<path d="M221.664 444.468C222.575 447.678 224.552 446.303 223.485 443.551C223.222 442.874 221.452 439.494 218.691 437.338C215.851 435.12 213.897 434.373 212.106 433.922C208.465 433.005 210.65 435.831 214.382 436.673C215.776 436.988 213.017 438.966 214.837 440.8C217.113 443.093 218.337 440.753 219.844 441.259C221.209 441.717 221.146 442.642 221.664 444.468Z" fill="#FBAB2E"/>
<path fill-rule="evenodd" clip-rule="evenodd" d="M294.934 491.031C291.658 492.014 287.142 491.354 282.418 489.668L282.549 489.295C287.249 490.972 291.668 491.598 294.822 490.652C296.393 490.181 297.645 489.322 298.471 488.012C299.298 486.7 299.712 484.915 299.566 482.57L299.958 482.546C300.107 484.948 299.687 486.823 298.802 488.224C297.916 489.629 296.579 490.538 294.934 491.031Z" fill="black"/>
<path fill-rule="evenodd" clip-rule="evenodd" d="M168.625 493.285C171.716 492.876 175.085 491.641 178.352 489.651L178.148 489.312C174.921 491.279 171.603 492.492 168.574 492.893C165.544 493.294 162.816 492.88 160.753 491.612C158.697 490.349 157.277 488.222 156.879 485.144C156.479 482.059 157.106 478.016 159.16 472.94L158.797 472.79C156.728 477.902 156.078 482.018 156.489 485.196C156.902 488.38 158.38 490.618 160.549 491.95C162.711 493.279 165.536 493.694 168.625 493.285Z" fill="black"/>
<path d="M214.349 399.475C215.316 397.497 216.02 395.915 217.883 395.915C220.435 395.915 221.432 393.739 223.395 395.123C225.359 396.508 227.486 396.209 228.486 394.53C230.253 391.563 233.591 392.156 234.376 394.53C235.162 396.903 237.657 394.965 239.693 398.684C241.641 402.245 240.071 404.42 237.125 404.42C234.18 404.42 232.933 403.573 230.253 405.607C227.126 407.981 225.752 406.596 223.395 405.607C221.039 404.618 219.129 403.878 216.705 404.42C214.938 404.816 211.6 403.685 211.6 402.245C211.6 400.805 213.116 401.997 214.349 399.475Z" fill="url(#paint1_linear)"/>
<path fill-rule="evenodd" clip-rule="evenodd" d="M231.824 392.132C233.131 392.216 234.304 393.059 234.749 394.405C234.916 394.908 235.156 395.151 235.443 395.311C235.701 395.456 235.996 395.536 236.372 395.638C236.467 395.664 236.566 395.691 236.672 395.721C237.176 395.864 237.754 396.06 238.34 396.476C238.928 396.894 239.503 397.519 240.037 398.493C241.042 400.329 241.197 401.915 240.592 403.072C239.983 404.237 238.684 404.816 237.125 404.816C236.379 404.816 235.74 404.763 235.173 404.716L235.154 404.714C234.576 404.666 234.085 404.626 233.606 404.646C232.681 404.685 231.774 404.948 230.489 405.923C228.869 407.153 227.637 407.455 226.471 407.259C225.905 407.164 225.378 406.955 224.86 406.719C224.659 406.628 224.465 406.535 224.269 406.441C223.942 406.285 223.611 406.127 223.245 405.973C220.883 404.981 219.08 404.294 216.79 404.807C215.805 405.027 214.446 404.82 213.347 404.39C212.793 404.172 212.275 403.887 211.889 403.545C211.508 403.206 211.207 402.766 211.207 402.245C211.207 401.806 211.328 401.478 211.611 401.25C211.735 401.15 211.873 401.084 211.998 401.034C212.074 401.003 212.165 400.97 212.251 400.94C212.295 400.924 212.338 400.909 212.377 400.895C212.624 400.803 212.881 400.69 213.147 400.466C213.414 400.242 213.708 399.89 213.996 399.301C214.032 399.228 214.067 399.155 214.103 399.083C214.537 398.191 214.953 397.337 215.478 396.7C216.067 395.985 216.813 395.519 217.883 395.519C218.861 395.519 219.573 395.177 220.282 394.836C220.42 394.77 220.558 394.703 220.698 394.639C221.116 394.449 221.564 394.279 222.056 394.267C222.562 394.256 223.073 394.413 223.621 394.799C224.538 395.446 225.466 395.68 226.254 395.583C227.036 395.486 227.711 395.061 228.149 394.326C229.099 392.731 230.507 392.047 231.824 392.132ZM231.774 392.922C230.784 392.858 229.64 393.361 228.823 394.733C228.26 395.678 227.372 396.242 226.35 396.368C225.334 396.494 224.216 396.185 223.17 395.448C222.737 395.142 222.387 395.051 222.074 395.058C221.747 395.066 221.418 395.18 221.022 395.36C220.904 395.414 220.781 395.474 220.652 395.536C219.941 395.881 219.054 396.31 217.883 396.31C217.09 396.31 216.553 396.635 216.082 397.206C215.62 397.766 215.244 398.537 214.793 399.461C214.763 399.524 214.732 399.586 214.701 399.65C214.373 400.322 214.015 400.767 213.651 401.073C213.286 401.38 212.933 401.532 212.647 401.637C212.587 401.66 212.535 401.678 212.487 401.695C212.415 401.721 212.354 401.742 212.291 401.768C212.194 401.807 212.138 401.839 212.101 401.868C212.061 401.901 211.992 401.963 211.992 402.245C211.992 402.443 212.109 402.685 212.409 402.951C212.703 403.213 213.131 403.456 213.632 403.652C214.644 404.048 215.837 404.209 216.62 404.034C219.179 403.462 221.195 404.255 223.547 405.242C223.926 405.402 224.294 405.577 224.636 405.74C224.827 405.832 225.01 405.919 225.183 405.998C225.683 406.226 226.136 406.4 226.6 406.478C227.492 406.628 228.51 406.435 230.017 405.291C231.412 404.233 232.468 403.902 233.573 403.856C234.109 403.833 234.65 403.878 235.218 403.926L235.229 403.926C235.8 403.974 236.412 404.025 237.125 404.025C238.512 404.025 239.472 403.516 239.897 402.703C240.326 401.882 240.293 400.6 239.349 398.875C238.864 397.99 238.364 397.462 237.887 397.123C237.409 396.783 236.932 396.617 236.459 396.483C236.378 396.46 236.294 396.437 236.209 396.414C235.824 396.31 235.413 396.199 235.062 396.003C234.596 395.743 234.23 395.338 234.004 394.655C233.664 393.627 232.775 392.986 231.774 392.922Z" fill="#FFD12D"/>
<path d="M236.356 386.024H215.543L222.51 394.447C224.023 396.276 226.786 396.354 228.398 394.614L236.356 386.024Z" fill="black"/>
<path d="M215.346 385.826C216.851 381.936 219.076 372.77 225.163 372.77C232.232 372.77 235.112 381.54 236.159 385.826H215.346Z" fill="#C68731"/>
<path d="M216.312 374.551C216.312 376.08 215.082 377.32 213.563 377.32C212.045 377.32 210.814 376.08 210.814 374.551C210.814 373.021 212.045 371.781 213.563 371.781C215.082 371.781 216.312 373.021 216.312 374.551Z" fill="black"/>
<path d="M215.528 373.759C215.528 374.197 215.176 374.551 214.742 374.551C214.309 374.551 213.957 374.197 213.957 373.759C213.957 373.322 214.309 372.968 214.742 372.968C215.176 372.968 215.528 373.322 215.528 373.759Z" fill="white"/>
<path d="M240.661 374.551C240.661 376.08 239.43 377.32 237.912 377.32C236.394 377.32 235.163 376.08 235.163 374.551C235.163 373.021 236.394 371.781 237.912 371.781C239.43 371.781 240.661 373.021 240.661 374.551Z" fill="black"/>
<path d="M239.483 373.759C239.483 374.197 239.131 374.551 238.698 374.551C238.264 374.551 237.912 374.197 237.912 373.759C237.912 373.322 238.264 372.968 238.698 372.968C239.131 372.968 239.483 373.322 239.483 373.759Z" fill="white"/>
<path fill-rule="evenodd" clip-rule="evenodd" d="M222.494 401.308C220.475 402.213 217.867 402.208 215.469 401.242L215.615 400.874C217.929 401.807 220.426 401.802 222.334 400.946C224.233 400.095 225.556 398.401 225.556 395.915H225.948C225.948 398.404 227.224 400.018 228.976 400.829C230.738 401.645 232.989 401.647 234.908 400.874L235.053 401.242C233.045 402.051 230.682 402.054 228.812 401.188C227.348 400.511 226.191 399.302 225.749 397.549C225.291 399.332 224.075 400.599 222.494 401.308Z" fill="black"/>
<path fill-rule="evenodd" clip-rule="evenodd" d="M202.458 354.835C204.391 353.957 206.472 353.416 208.086 353.313C208.683 353.275 209.425 353.53 210.2 354.034C210.97 354.536 211.753 355.27 212.427 356.155C213.778 357.928 214.667 360.268 214.194 362.499L214.578 362.582C215.084 360.197 214.131 357.74 212.738 355.913C212.04 354.997 211.225 354.231 210.413 353.702C209.605 353.176 208.778 352.872 208.062 352.918C206.392 353.025 204.265 353.58 202.297 354.474C200.333 355.367 198.502 356.609 197.449 358.105C197.035 358.692 196.908 359.547 196.967 360.479C197.027 361.417 197.278 362.465 197.659 363.469C198.04 364.473 198.553 365.441 199.144 366.217C199.731 366.989 200.409 367.591 201.125 367.83L201.248 367.454C200.64 367.252 200.021 366.721 199.455 365.976C198.892 365.236 198.396 364.303 198.026 363.328C197.656 362.352 197.415 361.344 197.359 360.453C197.302 359.557 197.432 358.812 197.769 358.334C198.764 356.92 200.523 355.714 202.458 354.835Z" fill="black"/>
<path fill-rule="evenodd" clip-rule="evenodd" d="M209.016 481.959C200.065 479.803 188.54 483.523 174.802 491.827L174.6 491.488C188.351 483.176 199.995 479.379 209.108 481.575C218.248 483.776 224.759 491.98 228.3 507.438C231.14 519.84 227.916 535.249 222.756 549.448C217.794 563.098 211.032 575.661 206.091 583.419C211.132 579.732 215.435 578.247 218.873 578.128C222.512 578.002 225.176 579.41 226.692 581.343C227.458 582.322 227.973 583.656 228.284 585.139C228.596 586.624 228.706 588.271 228.656 589.889C228.605 591.507 228.393 593.101 228.056 594.48C227.721 595.855 227.258 597.032 226.696 597.804L226.379 597.57C226.897 596.858 227.345 595.739 227.675 594.386C228.004 593.036 228.213 591.47 228.263 589.876C228.313 588.283 228.204 586.668 227.9 585.221C227.596 583.771 227.099 582.502 226.383 581.589C224.953 579.764 222.414 578.402 218.886 578.523C215.356 578.645 210.829 580.255 205.451 584.393L205.167 584.127C210.134 576.489 217.235 563.486 222.387 549.312C227.541 535.131 230.731 519.813 227.917 507.527C224.389 492.127 217.941 484.109 209.016 481.959Z" fill="black"/>
<path fill-rule="evenodd" clip-rule="evenodd" d="M251.384 481.959C260.335 479.803 271.86 483.523 285.599 491.827L285.801 491.488C272.05 483.176 260.405 479.379 251.293 481.575C242.153 483.776 235.642 491.98 232.101 507.438C229.26 519.84 232.484 535.249 237.645 549.448C242.65 563.219 249.489 575.885 254.441 583.625C250.467 581.28 246.154 579.653 242.213 578.996C238.037 578.3 234.242 578.689 231.726 580.514C230.704 581.255 230.005 582.537 229.536 584.054C229.065 585.576 228.817 587.36 228.715 589.138C228.513 592.69 228.895 596.262 229.295 597.739L229.674 597.635C229.288 596.211 228.907 592.685 229.108 589.161C229.208 587.4 229.453 585.651 229.911 584.172C230.37 582.689 231.035 581.503 231.955 580.835C234.347 579.1 238.014 578.697 242.149 579.386C246.276 580.074 250.832 581.844 254.966 584.404L255.233 584.127C250.266 576.489 243.165 563.486 238.014 549.312C232.859 535.131 229.669 519.813 232.483 507.527C236.011 492.127 242.459 484.109 251.384 481.959Z" fill="black"/>
<path fill-rule="evenodd" clip-rule="evenodd" d="M192.254 442.811C186.066 448.531 180.322 455.645 177.222 460.51L176.892 460.296C180.01 455.402 185.776 448.262 191.988 442.52C195.094 439.649 198.317 437.121 201.382 435.398C204.441 433.679 207.369 432.746 209.875 433.106C217.523 434.207 222.484 439.563 224.565 446.1C226.643 452.631 225.853 460.359 221.989 466.249C215.84 475.62 208.765 479.758 206.576 480.76L206.414 480.4C208.545 479.424 215.558 475.332 221.661 466.03C225.455 460.249 226.236 452.646 224.191 446.221C222.147 439.8 217.291 434.573 209.82 433.498C207.442 433.156 204.606 434.039 201.573 435.744C198.545 437.446 195.347 439.952 192.254 442.811Z" fill="black"/>
<path fill-rule="evenodd" clip-rule="evenodd" d="M259.378 442.811C265.566 448.531 271.31 455.645 274.41 460.51L274.74 460.296C271.622 455.402 265.855 448.262 259.644 442.52C256.538 439.649 253.315 437.121 250.25 435.398C247.191 433.679 244.262 432.746 241.757 433.106C234.109 434.207 229.147 439.563 227.067 446.1C224.989 452.631 225.779 460.359 229.643 466.249C232.719 470.937 236.478 474.71 239.737 477.434C242.993 480.155 245.76 481.838 246.861 482.343L247.024 481.983C245.965 481.498 243.228 479.838 239.987 477.129C236.75 474.423 233.02 470.679 229.971 466.03C226.177 460.249 225.396 452.646 227.441 446.221C229.484 439.8 234.341 434.573 241.812 433.498C244.19 433.156 247.026 434.039 250.059 435.744C253.087 437.446 256.285 439.952 259.378 442.811Z" fill="black"/>
<path d="M230.866 411.543H221.695C220.592 411.543 219.57 412.125 219.002 413.077L213.198 422.806C212.644 423.734 212.6 424.883 213.08 425.852L218.068 435.904C218.6 436.977 219.688 437.654 220.878 437.654H230.825C231.984 437.654 233.049 437.011 233.595 435.982L238.987 425.824C239.492 424.872 239.481 423.727 238.958 422.785L233.607 413.161C233.052 412.162 232.003 411.543 230.866 411.543Z" fill="url(#paint2_linear)"/>
<path fill-rule="evenodd" clip-rule="evenodd" d="M218.833 412.975C219.436 411.963 220.522 411.344 221.694 411.344H230.866C232.074 411.344 233.187 412.002 233.778 413.064L239.128 422.688C239.685 423.688 239.696 424.906 239.159 425.917L233.768 436.075C233.187 437.169 232.056 437.852 230.824 437.852H220.877C219.612 437.852 218.456 437.132 217.891 435.992L212.904 425.94C212.393 424.911 212.44 423.69 213.029 422.704L218.833 412.975ZM221.694 411.74C220.66 411.74 219.702 412.286 219.169 413.179L213.365 422.908C212.846 423.778 212.805 424.855 213.255 425.763L218.242 435.815C218.741 436.821 219.761 437.456 220.877 437.456H230.824C231.911 437.456 232.909 436.853 233.421 435.888L238.813 425.73C239.287 424.838 239.276 423.764 238.786 422.881L233.435 413.257C232.914 412.32 231.931 411.74 230.866 411.74H221.694Z" fill="white"/>
<path d="M228.89 415.735L223.571 419.843C223.394 419.98 223.203 420.097 223.001 420.193L217.19 422.955C215.592 423.715 214.93 425.654 215.727 427.244L219.081 433.938C219.616 435.004 220.7 435.676 221.886 435.676H229.883C231.038 435.676 232.099 435.039 232.648 434.016L237.009 425.882C237.523 424.924 237.511 423.767 236.979 422.819L233.536 416.688C232.596 415.015 230.405 414.565 228.89 415.735Z" fill="url(#paint3_linear)"/>
<path fill-rule="evenodd" clip-rule="evenodd" d="M233.023 416.98C232.259 415.621 230.478 415.256 229.248 416.206L223.929 420.314C223.718 420.476 223.491 420.616 223.251 420.73L217.441 423.492C216.142 424.109 215.604 425.685 216.252 426.977L219.606 433.67C220.041 434.537 220.922 435.083 221.885 435.083H229.883C230.821 435.083 231.683 434.565 232.129 433.733L236.49 425.6C236.907 424.822 236.898 423.882 236.466 423.111L233.023 416.98ZM228.531 415.264C230.33 413.875 232.932 414.409 234.048 416.396L237.491 422.527C238.123 423.652 238.137 425.026 237.526 426.164L233.165 434.298C232.514 435.513 231.253 436.27 229.883 436.27H221.885C220.477 436.27 219.189 435.471 218.555 434.205L215.2 427.512C214.254 425.624 215.04 423.321 216.938 422.418L222.749 419.657C222.913 419.579 223.068 419.483 223.212 419.372L228.531 415.264Z" fill="url(#paint4_linear)"/>
<path d="M233.318 436.467L215.058 419.85L216.825 416.685L235.478 432.511L233.318 436.467Z" fill="#F9F6F1" fill-opacity="0.4"/>
<path d="M236.264 430.929L217.61 415.499L218.003 414.708L236.656 430.137L236.264 430.929Z" fill="#F9F6F1" fill-opacity="0.4"/>
<path d="M239.209 424.203L223.894 411.543L232.533 411.938L239.209 423.214V424.203Z" fill="#F9F6F1" fill-opacity="0.4"/>
<path fill-rule="evenodd" clip-rule="evenodd" d="M253.052 437.705L250.893 429.595L251.272 429.492L253.432 437.603L253.052 437.705Z" fill="black"/>
<path fill-rule="evenodd" clip-rule="evenodd" d="M197.276 438.496L199.436 430.386L199.056 430.283L196.896 438.394L197.276 438.496Z" fill="black"/>
<path fill-rule="evenodd" clip-rule="evenodd" d="M249.192 356.845C247.349 355.789 245.327 355.055 243.73 354.801C243.139 354.707 242.377 354.892 241.559 355.321C240.746 355.748 239.899 356.406 239.146 357.223C237.637 358.863 236.536 361.109 236.801 363.375L236.412 363.422C236.127 360.999 237.303 358.643 238.858 356.954C239.638 356.108 240.52 355.42 241.377 354.97C242.231 354.522 243.082 354.297 243.791 354.41C245.443 354.673 247.51 355.426 249.386 356.5C251.259 357.574 252.968 358.982 253.878 360.57C254.235 361.194 254.284 362.057 254.139 362.979C253.992 363.908 253.645 364.928 253.174 365.892C252.702 366.856 252.101 367.772 251.442 368.489C250.786 369.203 250.056 369.739 249.321 369.909L249.233 369.523C249.857 369.379 250.522 368.908 251.154 368.22C251.783 367.535 252.363 366.653 252.822 365.717C253.28 364.78 253.612 363.798 253.751 362.917C253.891 362.03 253.829 361.276 253.538 360.768C252.678 359.267 251.038 357.902 249.192 356.845Z" fill="black"/>
<path d="M54.2286 480.099L86.9143 599.874H0V381.285V193.388V1H98.8L104 60.8874L54.2286 111.792V480.099Z" fill="url(#paint5_linear)"/>
<path d="M417.494 344.062L351.56 599.874H480V384.204V198.817V8.99811L320 18.5998L349.358 73.9945L432.294 90.2436L417.494 344.062Z" fill="url(#paint6_linear)"/>
<path d="M480 487.99L0 99.0362V50.9893L480 409.914V487.99Z" fill="#FFEF9C" fill-opacity="0.14"/>
<path d="M480 290.94L88 8.2489L111.802 3L480 257.947V290.94Z" fill="#FFEF9C" fill-opacity="0.14"/>
<path d="M480 128.474L233 3H255.32L480 95.4806V128.474Z" fill="#FFEF9C" fill-opacity="0.14"/>
<path d="M330 599.874L0 231.113V159.966L480 564.881V599.874H330Z" fill="#FFEF9C" fill-opacity="0.14"/>
<path d="M337.161 74.9843C415.005 74.9843 459.594 42.083 480 22.9544V0H152C190.04 25.2498 259.318 74.9843 337.161 74.9843Z" fill="#43606C"/>
<path d="M133.174 68.4186C64.844 71.9093 22.312 58.6445 0 46.0778V0H304C268.905 23.0389 201.505 64.9278 133.174 68.4186Z" fill="#43606C"/>
<defs>
<linearGradient id="paint0_linear" x1="231.99" y1="362.273" x2="231.99" y2="597.687" gradientUnits="userSpaceOnUse">
<stop stop-color="#B57A29"/>
<stop offset="0.586458" stop-color="#804E0A"/>
<stop offset="1" stop-color="#7D260A"/>
</linearGradient>
<linearGradient id="paint1_linear" x1="226.077" y1="392.521" x2="226.077" y2="406.918" gradientUnits="userSpaceOnUse">
<stop stop-color="#FDB646"/>
<stop offset="1" stop-color="#FAA929"/>
</linearGradient>
<linearGradient id="paint2_linear" x1="222.519" y1="411.543" x2="226.105" y2="433.294" gradientUnits="userSpaceOnUse">
<stop stop-color="white"/>
<stop offset="0.0001" stop-color="#DCE9EB" stop-opacity="0.88"/>
<stop offset="1" stop-color="#C4D2D3" stop-opacity="0.73"/>
</linearGradient>
<linearGradient id="paint3_linear" x1="228.213" y1="412.136" x2="226.021" y2="435.673" gradientUnits="userSpaceOnUse">
<stop offset="0.383333" stop-color="#FEBF5A"/>
<stop offset="1" stop-color="#E67315"/>
</linearGradient>
<linearGradient id="paint4_linear" x1="226.053" y1="413.521" x2="226.053" y2="435.676" gradientUnits="userSpaceOnUse">
<stop stop-color="#FFEEB0"/>
<stop offset="1" stop-color="#FFD12D"/>
</linearGradient>
<linearGradient id="paint5_linear" x1="133.172" y1="-72.3334" x2="-63.7971" y2="615.437" gradientUnits="userSpaceOnUse">
<stop stop-color="#6E3154"/>
<stop offset="0.992286" stop-color="#302E5C"/>
</linearGradient>
<linearGradient id="paint6_linear" x1="348.426" y1="-63.356" x2="542.537" y2="615.37" gradientUnits="userSpaceOnUse">
<stop stop-color="#6E3154"/>
<stop offset="0.992286" stop-color="#302E5C"/>
</linearGradient>
</defs>
</svg>
