<svg width="513" height="601" viewBox="0 0 513 601" fill="none" xmlns="http://www.w3.org/2000/svg">
<rect x="10" width="480" height="600" fill="#FFD7AC"/>
<path d="M489 0V65.6C471.716 95.4182 446.917 123 374.775 123C258.616 123 240.761 35.0364 235 0H489Z" fill="#B56949"/>
<path d="M264 0V65.6C246.716 95.4182 221.917 123 149.775 123C33.6163 123 15.7613 35.0364 10 0H264Z" fill="#B56949"/>
<path d="M321.75 600H268L295.5 0H348L321.75 600Z" fill="#F2946C"/>
<path d="M490 253L94 0H114L490 231V253Z" fill="#FFEF9C" fill-opacity="0.14"/>
<path d="M109.372 600H62L109.372 0H159L109.372 600Z" fill="#F2946C"/>
<path d="M490 436L10 81V59L490 415V436Z" fill="#FFEF9C" fill-opacity="0.14"/>
<path d="M255 600H216L249 0H279L255 600Z" fill="#DD756E"/>
<path d="M214 1H157.209L146 600H214V1Z" fill="#8A4152"/>
<path d="M388.871 1H335L372.41 599H439L388.871 1Z" fill="#8A4152"/>
<path d="M490 600H362.678C377.907 582.507 410.461 537.376 418.849 500.791C427.238 464.206 425.84 365.098 424.092 320.116L335.716 236.901L296.757 175.745L302 163L347.699 209.163L424.092 254.144L408.364 0H490V600Z" fill="url(#paint0_linear)"/>
<path d="M322.023 398.101C325.603 396.055 328.672 398.101 330.718 402.193C328.672 401.784 323.557 404.751 319.977 408.331C318.442 403.728 317.283 400.81 322.023 398.101Z" fill="#9A6721"/>
<path fill-rule="evenodd" clip-rule="evenodd" d="M475.476 600H275.476C276 596.767 276.468 593.596 276.945 590.255C279.504 572.321 282.309 552.663 295.342 529.513C291.658 527.69 288.647 523.934 286.729 517.794C284.171 509.61 291.235 501.472 298.493 494.265C305.474 487.333 311.801 479.584 320.92 465.352C318.78 450.784 311.474 439.79 308.212 435.441C297.087 420.607 332.765 389.405 347.087 404.751C348.335 406.088 350.364 408.604 353.061 411.949C363.853 425.333 385.359 452.003 410.514 469.712C474.453 514.725 475.476 563.171 475.476 600Z" fill="url(#paint1_linear)"/>
<path fill-rule="evenodd" clip-rule="evenodd" d="M375.792 477.664C370.32 476.325 364.056 475.849 358.279 477.706C351.024 480.038 345.616 488.043 344.714 496.282C344.263 500.409 344.939 504.609 347.091 508.203C349.245 511.799 352.868 514.771 358.281 516.451C362.638 517.803 373.132 520.362 384.002 522.646C394.869 524.93 406.138 526.944 412.04 527.201C423.604 527.704 432.503 523.218 436.962 516.19C441.422 509.158 441.407 499.627 435.234 490.11L434.898 490.328C441.002 499.737 440.986 509.098 436.624 515.976C432.258 522.857 423.511 527.299 412.057 526.801C406.194 526.547 394.957 524.54 384.085 522.255C373.216 519.971 362.738 517.415 358.399 516.069C353.071 514.415 349.532 511.5 347.434 507.997C345.335 504.492 344.668 500.382 345.112 496.326C346.001 488.201 351.334 480.359 358.401 478.087C364.082 476.261 370.265 476.723 375.697 478.052C381.127 479.381 385.789 481.573 388.415 483.182L388.624 482.841C385.964 481.211 381.265 479.003 375.792 477.664Z" fill="black"/>
<path d="M352.202 398.613C352.202 407.096 350.667 403.216 349.133 411.401C346.575 405.774 338.391 402.705 336.345 404.24C333.276 401.171 332.764 397.385 334.81 392.475C337.368 386.337 352.202 390.13 352.202 398.613Z" fill="#9A6721"/>
<path d="M319.465 416.515H310.769L307.189 422.142L310.769 425.211L319.465 416.515Z" fill="black"/>
<path fill-rule="evenodd" clip-rule="evenodd" d="M311.74 428.288C312.027 429.061 312.336 429.815 312.637 430.416C313.245 431.631 314.356 432.364 315.718 432.718C317.078 433.071 318.699 433.052 320.363 432.761C323.687 432.18 327.244 430.502 329.325 428.421L329.042 428.139C327.031 430.15 323.555 431.797 320.294 432.367C318.665 432.652 317.105 432.665 315.819 432.33C314.536 431.997 313.537 431.323 312.994 430.237C312.185 428.618 311.303 425.837 310.962 424.645L310.575 424.745C310.605 424.872 310.638 425.011 310.673 425.158C311.044 426.709 311.669 429.321 311.593 431.47C311.55 432.65 311.297 433.642 310.72 434.248C310.159 434.838 309.243 435.109 307.749 434.736L307.652 435.124C309.227 435.517 310.314 435.256 311.01 434.524C311.691 433.809 311.949 432.691 311.992 431.484C312.029 430.465 311.912 429.348 311.74 428.288Z" fill="black"/>
<path d="M318.953 416.515L324.58 404.797C324.58 404.797 321 406.291 317.419 409.912C313.838 413.533 311.281 416.515 311.281 416.515H318.953Z" fill="#C68731"/>
<path d="M326.115 406.797C326.115 407.644 326.802 408.331 327.649 408.331C328.497 408.331 329.184 407.644 329.184 406.797C329.184 405.949 328.497 405.262 327.649 405.262C326.802 405.262 326.115 405.949 326.115 406.797Z" fill="black"/>
<path fill-rule="evenodd" clip-rule="evenodd" d="M293.509 500.042C302.79 491.959 313.494 477.541 321.172 464.232L320.826 464.032C313.159 477.322 302.48 491.698 293.246 499.741C285.241 506.713 284.978 515.897 288.534 522.619C292.081 529.326 299.464 533.631 306.75 530.768C321.104 525.129 331.867 516.927 341.086 508.221C343.598 505.848 344.64 502.002 344.354 498.003C344.069 494 342.451 489.807 339.598 486.711C336.74 483.61 332.644 481.613 327.424 482.011C322.211 482.408 315.899 485.193 308.591 491.603L308.855 491.904C316.125 485.527 322.358 482.798 327.454 482.41C332.544 482.022 336.523 483.965 339.304 486.982C342.089 490.005 343.675 494.108 343.955 498.031C344.236 501.958 343.207 505.667 340.811 507.93C331.615 516.615 320.895 524.781 306.604 530.396C299.568 533.16 292.373 529.024 288.887 522.432C285.409 515.855 285.658 506.88 293.509 500.042Z" fill="black"/>
<path fill-rule="evenodd" clip-rule="evenodd" d="M449.566 599.543C444.952 590.657 431.122 570.646 412.676 557.529L412.444 557.855C430.626 570.785 444.318 590.449 449.058 599.436H344.729V579.687C344.729 577.072 346.068 574.403 348.527 572.063C350.985 569.724 354.552 567.723 358.971 566.452C367.807 563.909 380.033 564.285 393.549 570.66L393.719 570.299C380.125 563.886 367.799 563.495 358.86 566.067C354.392 567.353 350.765 569.381 348.252 571.773C345.739 574.164 344.329 576.931 344.329 579.687V599.836H449.718L449.566 599.543Z" fill="black"/>
<path fill-rule="evenodd" clip-rule="evenodd" d="M343.933 526.486C345.461 522.416 348.996 518.644 355.361 515.462L355.182 515.104C348.759 518.316 345.133 522.152 343.559 526.346C341.986 530.539 342.478 535.051 344.215 539.587C347.685 548.648 356.156 557.882 363.314 565.041L363.597 564.758C356.433 557.594 348.024 548.414 344.588 539.444C342.873 534.964 342.406 530.558 343.933 526.486Z" fill="black"/>
<path fill-rule="evenodd" clip-rule="evenodd" d="M341.271 516.469C339.272 514.733 336.925 513.548 334.81 513.548L334.81 513.948C336.788 513.948 339.045 515.066 341.009 516.771C342.97 518.473 344.609 520.735 345.363 522.973L345.742 522.845C344.961 520.527 343.275 518.208 341.271 516.469Z" fill="black"/>
<path fill-rule="evenodd" clip-rule="evenodd" d="M335.275 561.385C343.229 560.742 351.385 562.257 361.346 565.554L361.472 565.175C351.485 561.869 343.272 560.338 335.242 560.986C327.211 561.634 319.381 564.461 310.158 569.842C302.684 574.201 300.349 576.556 298.673 578.246C298.564 578.356 298.457 578.464 298.352 578.569L298.635 578.852C298.741 578.746 298.848 578.638 298.958 578.527C300.616 576.855 302.928 574.522 310.359 570.187C319.55 564.826 327.321 562.027 335.275 561.385Z" fill="black"/>
<path fill-rule="evenodd" clip-rule="evenodd" d="M351.523 551.491L344.873 561.721L345.209 561.939L351.858 551.709L351.523 551.491Z" fill="black"/>
<path d="M339.926 400.658C341.873 401.288 344.87 403.728 346.064 405.262C346.064 402.193 349.133 398.659 343.506 395.078C337.257 391.101 335.322 399.17 339.926 400.658Z" fill="#FBAB7E"/>
<path fill-rule="evenodd" clip-rule="evenodd" d="M346.59 390.961C350.008 392.859 352.746 396.252 352.498 399.98C352.282 403.21 350.807 407.077 349.965 408.591L350.315 408.786C351.178 407.231 352.677 403.308 352.897 400.006C353.16 396.061 350.272 392.548 346.784 390.611C345.035 389.639 343.118 389.052 341.338 389.003C339.557 388.954 337.899 389.444 336.699 390.644C332.948 394.396 333.238 399.448 334.115 401.553L334.484 401.399C333.656 399.412 333.368 394.541 336.982 390.927C338.084 389.825 339.623 389.356 341.327 389.403C343.031 389.45 344.886 390.014 346.59 390.961Z" fill="#111111"/>
<path fill-rule="evenodd" clip-rule="evenodd" d="M326.177 398.026C327.652 398.492 329.051 399.611 330.028 401.565L330.386 401.387C329.365 399.346 327.887 398.146 326.297 397.645C324.711 397.144 323.03 397.345 321.61 398.076C320.191 398.807 319.028 400.07 318.481 401.7C317.932 403.332 318.005 405.318 319.03 407.484L319.392 407.313C318.406 405.229 318.348 403.35 318.86 401.827C319.372 400.302 320.461 399.117 321.793 398.431C323.126 397.745 324.699 397.56 326.177 398.026Z" fill="black"/>
<path d="M148.202 1H10V600H199C188.791 582.757 120.254 527.813 113.838 500.292C59.3043 266.389 62.2925 75.9687 148.202 1Z" fill="url(#paint2_linear)"/>
<path d="M490 169L219 1H251L490 128V169Z" fill="#FFEF9C" fill-opacity="0.14"/>
<path d="M490 361.5L11 31V3L490 320V361.5Z" fill="#FFEF9C" fill-opacity="0.14"/>
<path d="M422.283 600L10 170V125L490 482V600H422.283Z" fill="#FFEF9C" fill-opacity="0.14"/>
<path d="M10 74.3708V0H246C246 69.1123 114.471 136.722 10 74.3708Z" fill="#43606C"/>
<path d="M490 47.4118V0H220C220 47.4118 375.788 117.401 490 47.4118Z" fill="#43606C"/>
<path fill-rule="evenodd" clip-rule="evenodd" d="M472.917 514.845C472.364 512.758 471.827 510.731 471.326 508.625L473.615 508.081C474.104 510.139 474.634 512.137 475.183 514.206C477.255 522.018 479.593 530.833 480.996 547.667C482.255 562.776 481.774 575.509 481.357 586.564C481.187 591.052 481.028 595.262 481 599.244L478.647 599.227C478.676 595.132 478.838 590.855 479.009 586.328C479.425 575.316 479.898 562.822 478.651 547.863C477.267 531.249 474.983 522.636 472.917 514.845Z" fill="#43606C"/>
<path fill-rule="evenodd" clip-rule="evenodd" d="M490.798 527.602C490.798 527.602 490.798 527.602 491.882 528.059C492.966 528.516 492.966 528.516 492.966 528.516L492.966 528.517L492.964 528.521L492.956 528.542C492.948 528.561 492.936 528.59 492.919 528.63C492.887 528.71 492.838 528.831 492.774 528.993C492.647 529.316 492.46 529.802 492.227 530.442C491.761 531.723 491.107 533.623 490.368 536.082C488.888 541 487.063 548.152 485.692 557.061C485.426 558.79 485.169 560.448 484.921 562.046C482.591 577.065 481.088 586.756 481 599.244L478.647 599.227C478.736 586.558 480.267 576.695 482.592 561.708C482.842 560.102 483.1 558.437 483.367 556.704C484.756 547.672 486.608 540.412 488.114 535.404C488.868 532.899 489.535 530.957 490.016 529.637C490.257 528.977 490.45 528.472 490.585 528.131C490.652 527.96 490.705 527.83 490.741 527.741C490.759 527.697 490.773 527.663 490.783 527.64L490.794 527.613L490.797 527.605L490.798 527.602Z" fill="#43606C"/>
<path fill-rule="evenodd" clip-rule="evenodd" d="M465.545 541.545L466.588 541C467.631 540.455 467.631 540.455 467.631 540.455L467.636 540.466L467.652 540.495C467.665 540.521 467.685 540.559 467.71 540.608C467.762 540.708 467.837 540.854 467.933 541.044C468.126 541.423 468.404 541.976 468.747 542.673C469.432 544.066 470.375 546.037 471.412 548.35C473.479 552.965 475.935 558.987 477.43 564.516C480.411 575.546 481.098 585.274 481 599.243L478.647 599.227C478.744 585.353 478.06 575.866 475.158 565.13C473.712 559.778 471.314 553.887 469.264 549.312C468.242 547.029 467.31 545.084 466.635 543.711C466.298 543.024 466.024 542.481 465.836 542.11C465.741 541.925 465.668 541.783 465.619 541.687C465.595 541.639 465.576 541.603 465.563 541.579L465.55 541.553L465.545 541.545Z" fill="#43606C"/>
<ellipse cx="466.294" cy="541.294" rx="5.29412" ry="5.58824" fill="#FD39A1"/>
<circle cx="466.588" cy="541.294" r="2.64706" fill="#99155B"/>
<ellipse cx="493.059" cy="522.765" rx="7.94118" ry="8.23529" fill="#FD39A1"/>
<circle cx="493.353" cy="522.765" r="4.11765" fill="#99155B"/>
<ellipse cx="471" cy="501.294" rx="10" ry="10.2941" fill="#FD39A1"/>
<circle cx="471.294" cy="501.294" r="5" fill="#99155B"/>
<path fill-rule="evenodd" clip-rule="evenodd" d="M13.9173 514.845C13.3642 512.758 12.8266 510.731 12.3262 508.625L14.6154 508.081C15.1044 510.139 15.6344 512.137 16.183 514.206C18.2551 522.018 20.5933 530.833 21.9961 547.667C23.2552 562.776 22.7743 575.509 22.3567 586.564C22.1872 591.052 22.0282 595.262 22.0002 599.244L19.6473 599.227C19.6761 595.132 19.8379 590.855 20.0091 586.328C20.4255 575.316 20.898 562.822 19.6513 547.863C18.2669 531.249 15.9832 522.636 13.9173 514.845Z" fill="#43606C"/>
<path fill-rule="evenodd" clip-rule="evenodd" d="M31.7983 527.602C31.7984 527.602 31.7985 527.602 32.8824 528.059C33.9663 528.516 33.9663 528.516 33.9664 528.516L33.9661 528.517L33.9643 528.521L33.9557 528.542C33.9478 528.561 33.9357 528.59 33.9194 528.63C33.8869 528.71 33.838 528.831 33.7743 528.993C33.6469 529.316 33.4603 529.802 33.2271 530.442C32.7605 531.723 32.1073 533.623 31.3676 536.082C29.888 541 28.0629 548.152 26.6922 557.061C26.4263 558.79 26.1691 560.448 25.9212 562.046C23.5913 577.065 22.0878 586.756 21.9999 599.244L19.647 599.227C19.7362 586.558 21.2667 576.695 23.5924 561.708C23.8416 560.102 24.1 558.437 24.3666 556.704C25.7561 547.672 27.6076 540.412 29.1144 535.404C29.8679 532.899 30.5354 530.957 31.0162 529.637C31.2566 528.977 31.4504 528.472 31.585 528.131C31.6523 527.96 31.7048 527.83 31.7409 527.741C31.7589 527.697 31.7729 527.663 31.7825 527.64L31.7938 527.613L31.797 527.605L31.7983 527.602Z" fill="#43606C"/>
<path fill-rule="evenodd" clip-rule="evenodd" d="M6.54541 541.545L7.58804 541C8.63066 540.455 8.63073 540.455 8.63082 540.455L8.63629 540.466L8.6516 540.495C8.66498 540.521 8.68465 540.559 8.71029 540.608C8.76156 540.708 8.83672 540.854 8.93317 541.044C9.12605 541.423 9.40414 541.976 9.74673 542.673C10.4318 544.066 11.3754 546.037 12.4117 548.35C14.4794 552.965 16.9351 558.987 18.4296 564.516C21.4106 575.546 22.098 585.274 21.9996 599.243L19.6467 599.227C19.7445 585.353 19.0596 575.866 16.1582 565.13C14.7115 559.778 12.3143 553.887 10.2644 549.312C9.24182 547.029 8.3105 545.084 7.63523 543.711C7.29767 543.024 7.0243 542.481 6.83574 542.11C6.74147 541.925 6.66842 541.783 6.61917 541.687C6.59455 541.639 6.57587 541.603 6.56347 541.579L6.54962 541.553L6.54541 541.545Z" fill="#43606C"/>
<ellipse cx="7.29412" cy="541.294" rx="5.29412" ry="5.58824" fill="#FD39A1"/>
<circle cx="7.58846" cy="541.294" r="2.64706" fill="#99155B"/>
<ellipse cx="34.0589" cy="522.765" rx="7.94118" ry="8.23529" fill="#FD39A1"/>
<circle cx="34.353" cy="522.765" r="4.11765" fill="#99155B"/>
<ellipse cx="12" cy="501.294" rx="10" ry="10.2941" fill="#FD39A1"/>
<circle cx="12.2939" cy="501.294" r="5" fill="#99155B"/>
<path d="M436.393 541.005C457.867 555.157 470.742 590.762 472.001 599.573H469.862C456.671 592.443 432.912 575.554 418.988 563.899C398.92 547.101 395.292 531.015 392.146 521.857C397.948 522.343 414.92 526.852 436.393 541.005Z" fill="#43606C"/>
<path fill-rule="evenodd" clip-rule="evenodd" d="M450.377 586.786L467.488 593.559L467.243 594.178L450.132 587.405L450.377 586.786Z" fill="#173E4F"/>
<path fill-rule="evenodd" clip-rule="evenodd" d="M434.676 575.017L459.631 583.572L459.415 584.202L434.46 575.646L434.676 575.017Z" fill="#173E4F"/>
<path fill-rule="evenodd" clip-rule="evenodd" d="M420.043 563.603L450.344 572.159L450.164 572.799L419.862 564.243L420.043 563.603Z" fill="#173E4F"/>
<path fill-rule="evenodd" clip-rule="evenodd" d="M406.497 550.413L440.364 560.038L440.182 560.678L406.315 551.053L406.497 550.413Z" fill="#173E4F"/>
<path fill-rule="evenodd" clip-rule="evenodd" d="M400.083 539.719L427.889 547.919L427.701 548.557L399.895 540.358L400.083 539.719Z" fill="#173E4F"/>
<path fill-rule="evenodd" clip-rule="evenodd" d="M394.752 529.386L415.072 536.516L414.851 537.144L394.531 530.014L394.752 529.386Z" fill="#173E4F"/>
<path fill-rule="evenodd" clip-rule="evenodd" d="M458.122 567.159L459.548 584.271L460.211 584.216L458.785 567.104L458.122 567.159Z" fill="#173E4F"/>
<path fill-rule="evenodd" clip-rule="evenodd" d="M449.565 554.655V572.123H450.23V554.655H449.565Z" fill="#173E4F"/>
<path fill-rule="evenodd" clip-rule="evenodd" d="M439.584 543.981L440.654 560.736L441.318 560.694L440.248 543.938L439.584 543.981Z" fill="#173E4F"/>
<path fill-rule="evenodd" clip-rule="evenodd" d="M427.464 536.146L428.533 548.623L429.196 548.566L428.127 536.089L427.464 536.146Z" fill="#173E4F"/>
<path fill-rule="evenodd" clip-rule="evenodd" d="M411.093 528.412L414.658 536.255L415.264 535.98L411.699 528.137L411.093 528.412Z" fill="#173E4F"/>
<path fill-rule="evenodd" clip-rule="evenodd" d="M465.965 583.563L467.035 594.258L467.697 594.192L466.627 583.497L465.965 583.563Z" fill="#173E4F"/>
<path fill-rule="evenodd" clip-rule="evenodd" d="M439.316 559.873C424.359 543.847 407.992 530.331 392 522.513L392.292 521.915C408.384 529.782 424.815 543.36 439.803 559.419C449.208 569.495 465.73 590.459 471.562 599.029L471.012 599.403C465.199 590.861 448.697 569.924 439.316 559.873Z" fill="#173E4F"/>
<path d="M63.4106 511.721C31.2007 532.95 11.8873 586.356 9.99996 599.572H13.2084C32.9936 588.878 68.6322 563.544 89.5183 546.062C119.621 520.865 125.063 496.736 129.781 483C121.078 483.728 95.6206 490.492 63.4106 511.721Z" fill="#43606C"/>
<path fill-rule="evenodd" clip-rule="evenodd" d="M42.4358 580.393L16.7685 590.553L17.1359 591.481L42.8032 581.321L42.4358 580.393Z" fill="#173E4F"/>
<path fill-rule="evenodd" clip-rule="evenodd" d="M65.9863 562.738L28.5548 575.572L28.8786 576.516L66.3101 563.682L65.9863 562.738Z" fill="#173E4F"/>
<path fill-rule="evenodd" clip-rule="evenodd" d="M87.9363 545.619L42.4838 558.452L42.755 559.413L88.2075 546.579L87.9363 545.619Z" fill="#173E4F"/>
<path fill-rule="evenodd" clip-rule="evenodd" d="M108.255 525.833L57.4551 540.271L57.7279 541.232L108.528 526.794L108.255 525.833Z" fill="#173E4F"/>
<path fill-rule="evenodd" clip-rule="evenodd" d="M117.876 509.793L76.167 522.092L76.4493 523.049L118.159 510.75L117.876 509.793Z" fill="#173E4F"/>
<path fill-rule="evenodd" clip-rule="evenodd" d="M125.873 494.293L95.3932 504.988L95.7237 505.93L126.204 495.235L125.873 494.293Z" fill="#173E4F"/>
<path fill-rule="evenodd" clip-rule="evenodd" d="M30.8178 550.953L28.6788 576.62L27.6841 576.537L29.823 550.87L30.8178 550.953Z" fill="#173E4F"/>
<path fill-rule="evenodd" clip-rule="evenodd" d="M43.653 532.196V558.398H42.6548V532.196H43.653Z" fill="#173E4F"/>
<path fill-rule="evenodd" clip-rule="evenodd" d="M58.6243 516.186L57.0201 541.318L56.0239 541.255L57.6281 516.122L58.6243 516.186Z" fill="#173E4F"/>
<path fill-rule="evenodd" clip-rule="evenodd" d="M76.8053 504.432L75.2011 523.148L74.2065 523.062L75.8108 504.347L76.8053 504.432Z" fill="#173E4F"/>
<path fill-rule="evenodd" clip-rule="evenodd" d="M101.36 492.832L96.0127 504.596L95.104 504.183L100.451 492.419L101.36 492.832Z" fill="#173E4F"/>
<path fill-rule="evenodd" clip-rule="evenodd" d="M19.053 575.559L17.4488 591.601L16.4556 591.502L18.0598 575.459L19.053 575.559Z" fill="#173E4F"/>
<path fill-rule="evenodd" clip-rule="evenodd" d="M59.0263 540.023C81.4623 515.984 106.012 495.711 130 483.983L129.562 483.086C105.424 494.887 80.7784 515.254 58.2966 539.342C44.1891 554.457 19.4052 585.903 10.6574 598.757L11.4826 599.319C20.2027 586.505 44.9548 555.099 59.0263 540.023Z" fill="#173E4F"/>
<path d="M68.0233 587.216C70.722 594.795 52.5056 596.267 41.2201 600.464C30.4252 591.36 15.7422 585.612 21.1639 577.622C25.8253 570.752 32.94 578.848 38.3374 584.491C35.3934 577.622 20.012 562.576 25.8253 554.315C30.4868 547.691 36.3747 558.731 42.7535 565.355C40.5455 557.013 28.508 542.114 33.9214 536.16C39.3349 530.205 44.9616 538.368 49.8683 547.445C48.5801 538.613 46.0044 527.301 49.8683 522.911C55.5384 516.469 65.5698 521.439 63.791 530.762C69.7406 522.911 77.9594 522.911 79.7995 532.725C81.2715 540.576 70.1698 545.728 63.791 550.415C70.1698 550.415 77.7069 544.992 79.7994 552.107C82.2528 560.448 61.4607 564.102 57.7191 570.752C63.1165 570.752 75.874 563.883 75.874 570.752C75.874 577.622 58.3936 578.848 52.5056 587.216C58.3936 587.216 65.5456 580.258 68.0233 587.216Z" fill="#80886F"/>
<path d="M4.86487 600.162H71.3514C71.3514 600.162 72.4326 597.189 74.5947 595.027C77.2974 592.324 78.6488 590.162 80 588.541C75.4056 590.162 71.2614 593.315 70.5407 595.027C70.7209 592.775 70.0001 591.784 69.1893 588C66.7569 591.514 64.6847 592.324 64.3244 595.027C64.2343 592.324 63.2435 590.703 61.892 588C60.0002 590.432 57.7478 592.324 57.027 595.027C57.027 592.324 55.6759 592.054 53.7839 588C51.6219 591.243 49.6398 592.324 49.4596 595.027C49.3695 592.324 47.0273 593.405 45.9461 588.541C43.784 592.054 40.8109 593.135 40.0001 595.838C40.8109 592.595 40.0001 593.135 36.7569 589.351C34.0542 591.514 32.7028 593.766 31.3515 595.027C32.5227 592.775 30.8109 592.324 28.6488 588.541C24.5947 592.324 25.6758 593.586 23.5136 595.838C25.2254 593.135 22.1624 593.135 20.8109 589.351C15.6759 594.757 16.7568 593.495 16.4865 595.027C16.6667 592.865 14.5947 590.703 11.6216 588.541C10.8109 592.324 10.4506 593.495 10.5407 595.838C8.37863 593.676 9.45959 593.405 7.29743 591.243C5.13527 589.081 1.71172 591.423 0 592.324C0.900902 592.504 3.13514 593.297 4.86487 595.027C6.5946 596.757 5.58559 599.171 4.86487 600.162Z" fill="#59787D"/>
<path d="M508.135 600.162H441.649C441.649 600.162 440.567 597.189 438.405 595.027C435.703 592.324 434.351 590.162 433 588.541C437.594 590.162 441.739 593.315 442.459 595.027C442.279 592.775 443 591.784 443.811 588C446.243 591.514 448.315 592.324 448.676 595.027C448.766 592.324 449.757 590.703 451.108 588C453 590.432 455.252 592.324 455.973 595.027C455.973 592.324 457.324 592.054 459.216 588C461.378 591.243 463.36 592.324 463.54 595.027C463.63 592.324 465.973 593.405 467.054 588.541C469.216 592.054 472.189 593.135 473 595.838C472.189 592.595 473 593.135 476.243 589.351C478.946 591.514 480.297 593.766 481.649 595.027C480.477 592.775 482.189 592.324 484.351 588.541C488.405 592.324 487.324 593.586 489.486 595.838C487.775 593.135 490.838 593.135 492.189 589.351C497.324 594.757 496.243 593.495 496.513 595.027C496.333 592.865 498.405 590.703 501.378 588.541C502.189 592.324 502.549 593.495 502.459 595.838C504.621 593.676 503.54 593.405 505.703 591.243C507.865 589.081 511.288 591.423 513 592.324C512.099 592.504 509.865 593.297 508.135 595.027C506.405 596.757 507.414 599.171 508.135 600.162Z" fill="#59787D"/>
<path d="M453.921 590.095L459 600.66H399V570.491L412.83 596.551L411.283 553L431.244 596.551L424.748 555.113L438.567 596.551L434.079 557.93L446.48 596.551L445.654 569.669L453.921 598.429V590.095Z" fill="#80886F"/>
<path d="M67.0787 590.095L62 600.66H122V570.491L108.17 596.551L109.717 553L89.7559 596.551L96.252 555.113L82.4331 596.551L86.9213 557.93L74.5197 596.551L75.3465 569.669L67.0787 598.429V590.095Z" fill="#80886F"/>
<defs>
<linearGradient id="paint0_linear" x1="393.379" y1="0" x2="393.379" y2="600" gradientUnits="userSpaceOnUse">
<stop stop-color="#603156"/>
<stop offset="1" stop-color="#352F5C"/>
</linearGradient>
<linearGradient id="paint1_linear" x1="375.476" y1="400.613" x2="375.476" y2="600.109" gradientUnits="userSpaceOnUse">
<stop stop-color="#9A6721"/>
<stop offset="1" stop-color="#7E270B"/>
</linearGradient>
<linearGradient id="paint2_linear" x1="104.5" y1="1" x2="104.5" y2="600" gradientUnits="userSpaceOnUse">
<stop stop-color="#603156"/>
<stop offset="1" stop-color="#352F5C"/>
</linearGradient>
</defs>
</svg>
