<svg width="507" height="600" viewBox="0 0 507 600" fill="none" xmlns="http://www.w3.org/2000/svg">
<rect x="8" width="480" height="600" fill="url(#paint0_radial)"/>
<path d="M487 0V65.6C469.716 95.4182 444.917 123 372.775 123C256.616 123 238.761 35.0364 233 0H487Z" fill="#47559F"/>
<path d="M262 0V65.6C244.716 95.4182 219.917 123 147.775 123C31.6163 123 13.7613 35.0364 8 0H262Z" fill="#47559F"/>
<path d="M319.75 600H266L293.5 0H346L319.75 600Z" fill="#776CF2"/>
<path d="M488 253L92 0H112L488 231V253Z" fill="#9CE7FF" fill-opacity="0.14"/>
<path d="M107.372 600H60L107.372 0H157L107.372 600Z" fill="#776CF2"/>
<path d="M488 436L8 81V59L488 415V436Z" fill="#9CE7FF" fill-opacity="0.14"/>
<path d="M253 600H214L247 0H277L253 600Z" fill="#3B40B0"/>
<path d="M212 1H155.209L144 600H212V1Z" fill="#5D418A"/>
<path d="M386.871 1H333L370.41 599H437L386.871 1Z" fill="#5D418A"/>
<path d="M488 600H360.678C375.907 582.507 408.461 537.376 416.849 500.791C425.238 464.206 423.84 365.098 422.092 320.116L333.716 236.901L294.757 175.745L300 163L345.699 209.163L422.092 254.144L406.364 0H488V600Z" fill="url(#paint1_linear)"/>
<path d="M320.023 398.101C323.603 396.055 326.672 398.101 328.718 402.193C326.672 401.784 321.557 404.751 317.977 408.331C316.442 403.728 315.283 400.81 320.023 398.101Z" fill="#9A6721"/>
<path fill-rule="evenodd" clip-rule="evenodd" d="M473.476 600H273.476C274 596.767 274.468 593.596 274.945 590.255C277.504 572.321 280.309 552.663 293.342 529.513C289.658 527.69 286.647 523.934 284.729 517.794C282.171 509.61 289.235 501.472 296.493 494.265C303.474 487.333 309.801 479.584 318.92 465.352C316.78 450.784 309.474 439.79 306.212 435.441C295.087 420.607 330.765 389.405 345.087 404.751C346.335 406.088 348.364 408.604 351.061 411.949C361.853 425.333 383.359 452.003 408.514 469.712C472.453 514.725 473.476 563.171 473.476 600Z" fill="url(#paint2_linear)"/>
<path fill-rule="evenodd" clip-rule="evenodd" d="M373.792 477.664C368.32 476.325 362.056 475.849 356.279 477.706C349.024 480.038 343.616 488.043 342.714 496.282C342.263 500.409 342.939 504.609 345.091 508.203C347.245 511.799 350.868 514.771 356.281 516.451C360.638 517.803 371.132 520.362 382.002 522.646C392.869 524.93 404.138 526.944 410.04 527.201C421.604 527.704 430.503 523.218 434.962 516.19C439.422 509.158 439.407 499.627 433.234 490.11L432.898 490.328C439.002 499.737 438.986 509.098 434.624 515.976C430.258 522.857 421.511 527.299 410.057 526.801C404.194 526.547 392.957 524.54 382.085 522.255C371.216 519.971 360.738 517.415 356.399 516.069C351.071 514.415 347.532 511.5 345.434 507.997C343.335 504.492 342.668 500.382 343.112 496.326C344.001 488.201 349.334 480.359 356.401 478.087C362.082 476.261 368.265 476.723 373.697 478.052C379.127 479.381 383.789 481.573 386.415 483.182L386.624 482.841C383.964 481.211 379.265 479.003 373.792 477.664Z" fill="black"/>
<path d="M350.202 398.613C350.202 407.096 348.667 403.216 347.133 411.401C344.575 405.774 336.391 402.705 334.345 404.24C331.276 401.171 330.764 397.385 332.81 392.475C335.368 386.337 350.202 390.13 350.202 398.613Z" fill="#9A6721"/>
<path d="M317.465 416.515H308.769L305.189 422.142L308.769 425.211L317.465 416.515Z" fill="black"/>
<path fill-rule="evenodd" clip-rule="evenodd" d="M309.74 428.288C310.027 429.061 310.336 429.815 310.637 430.416C311.245 431.631 312.356 432.364 313.718 432.718C315.078 433.071 316.699 433.052 318.363 432.761C321.687 432.18 325.244 430.502 327.325 428.421L327.042 428.139C325.031 430.15 321.555 431.797 318.294 432.367C316.665 432.652 315.105 432.665 313.819 432.33C312.536 431.997 311.537 431.323 310.994 430.237C310.185 428.618 309.303 425.837 308.962 424.645L308.575 424.745C308.605 424.872 308.638 425.011 308.673 425.158C309.044 426.709 309.669 429.321 309.593 431.47C309.55 432.65 309.297 433.642 308.72 434.248C308.159 434.838 307.243 435.109 305.749 434.736L305.652 435.124C307.227 435.517 308.314 435.256 309.01 434.524C309.691 433.809 309.949 432.691 309.992 431.484C310.029 430.465 309.912 429.348 309.74 428.288Z" fill="black"/>
<path d="M316.953 416.515L322.58 404.797C322.58 404.797 319 406.291 315.419 409.912C311.838 413.533 309.281 416.515 309.281 416.515H316.953Z" fill="#C68731"/>
<path d="M324.115 406.797C324.115 407.644 324.802 408.331 325.649 408.331C326.497 408.331 327.184 407.644 327.184 406.797C327.184 405.949 326.497 405.262 325.649 405.262C324.802 405.262 324.115 405.949 324.115 406.797Z" fill="black"/>
<path fill-rule="evenodd" clip-rule="evenodd" d="M291.509 500.042C300.79 491.959 311.494 477.541 319.172 464.232L318.826 464.032C311.159 477.322 300.48 491.698 291.246 499.741C283.241 506.713 282.978 515.897 286.534 522.619C290.081 529.326 297.464 533.631 304.75 530.768C319.104 525.129 329.867 516.927 339.086 508.221C341.598 505.848 342.64 502.002 342.354 498.003C342.069 494 340.451 489.807 337.598 486.711C334.74 483.61 330.644 481.613 325.424 482.011C320.211 482.408 313.899 485.193 306.591 491.603L306.855 491.904C314.125 485.527 320.358 482.798 325.454 482.41C330.544 482.022 334.523 483.965 337.304 486.982C340.089 490.005 341.675 494.108 341.955 498.031C342.236 501.958 341.207 505.667 338.811 507.93C329.615 516.615 318.895 524.781 304.604 530.396C297.568 533.16 290.373 529.024 286.887 522.432C283.409 515.855 283.658 506.88 291.509 500.042Z" fill="black"/>
<path fill-rule="evenodd" clip-rule="evenodd" d="M447.566 599.543C442.952 590.657 429.122 570.646 410.676 557.529L410.444 557.855C428.626 570.785 442.318 590.449 447.058 599.436H342.729V579.687C342.729 577.072 344.068 574.403 346.527 572.063C348.985 569.724 352.552 567.723 356.971 566.452C365.807 563.909 378.033 564.285 391.549 570.66L391.719 570.299C378.125 563.886 365.799 563.495 356.86 566.067C352.392 567.353 348.765 569.381 346.252 571.773C343.739 574.164 342.329 576.931 342.329 579.687V599.836H447.718L447.566 599.543Z" fill="black"/>
<path fill-rule="evenodd" clip-rule="evenodd" d="M341.933 526.486C343.461 522.416 346.996 518.644 353.361 515.462L353.182 515.104C346.759 518.316 343.133 522.152 341.559 526.346C339.986 530.539 340.478 535.051 342.215 539.587C345.685 548.648 354.156 557.882 361.314 565.041L361.597 564.758C354.433 557.594 346.024 548.414 342.588 539.444C340.873 534.964 340.406 530.558 341.933 526.486Z" fill="black"/>
<path fill-rule="evenodd" clip-rule="evenodd" d="M339.271 516.469C337.272 514.733 334.925 513.548 332.81 513.548L332.81 513.948C334.788 513.948 337.045 515.066 339.009 516.771C340.97 518.473 342.609 520.735 343.363 522.973L343.742 522.845C342.961 520.527 341.275 518.208 339.271 516.469Z" fill="black"/>
<path fill-rule="evenodd" clip-rule="evenodd" d="M333.275 561.385C341.229 560.742 349.385 562.257 359.346 565.554L359.472 565.175C349.485 561.869 341.272 560.338 333.242 560.986C325.211 561.634 317.381 564.461 308.158 569.842C300.684 574.201 298.349 576.556 296.673 578.246C296.564 578.356 296.457 578.464 296.352 578.569L296.635 578.852C296.741 578.746 296.848 578.638 296.958 578.527C298.616 576.855 300.928 574.522 308.359 570.187C317.55 564.826 325.321 562.027 333.275 561.385Z" fill="black"/>
<path fill-rule="evenodd" clip-rule="evenodd" d="M349.523 551.491L342.873 561.721L343.209 561.939L349.858 551.709L349.523 551.491Z" fill="black"/>
<path d="M337.926 400.658C339.873 401.288 342.87 403.728 344.064 405.262C344.064 402.193 347.133 398.659 341.506 395.078C335.257 391.101 333.322 399.17 337.926 400.658Z" fill="#FBAB7E"/>
<path fill-rule="evenodd" clip-rule="evenodd" d="M344.59 390.961C348.008 392.859 350.746 396.252 350.498 399.98C350.282 403.21 348.807 407.077 347.965 408.591L348.315 408.786C349.178 407.231 350.677 403.308 350.897 400.006C351.16 396.061 348.272 392.548 344.784 390.611C343.035 389.639 341.118 389.052 339.338 389.003C337.557 388.954 335.899 389.444 334.699 390.644C330.948 394.396 331.238 399.448 332.115 401.553L332.484 401.399C331.656 399.412 331.368 394.541 334.982 390.927C336.084 389.825 337.623 389.356 339.327 389.403C341.031 389.45 342.886 390.014 344.59 390.961Z" fill="#111111"/>
<path fill-rule="evenodd" clip-rule="evenodd" d="M324.177 398.026C325.652 398.492 327.051 399.611 328.028 401.565L328.386 401.387C327.365 399.346 325.887 398.146 324.297 397.645C322.711 397.144 321.03 397.345 319.61 398.076C318.191 398.807 317.028 400.07 316.481 401.7C315.932 403.332 316.005 405.318 317.03 407.484L317.392 407.313C316.406 405.229 316.348 403.35 316.86 401.827C317.372 400.302 318.461 399.117 319.793 398.431C321.126 397.745 322.699 397.56 324.177 398.026Z" fill="black"/>
<path d="M146.202 1H8V600H197C186.791 582.757 118.254 527.813 111.838 500.292C57.3043 266.389 60.2925 75.9687 146.202 1Z" fill="url(#paint3_linear)"/>
<path d="M488 169L217 1H249L488 128V169Z" fill="#9CE7FF" fill-opacity="0.14"/>
<path d="M488 361.5L9 31V3L488 320V361.5Z" fill="#9CE7FF" fill-opacity="0.14"/>
<path d="M420.283 600L8 170V125L488 482V600H420.283Z" fill="#9CE7FF" fill-opacity="0.14"/>
<path d="M8 74.3708V0H244C244 69.1123 112.471 136.722 8 74.3708Z" fill="#43606C"/>
<path d="M488 47.4118V0H218C218 47.4118 373.788 117.401 488 47.4118Z" fill="#43606C"/>
<path d="M7.27953 584.926L0 600H86V556.956L66.1773 594.138L68.3937 532L39.7835 594.138L49.0945 535.015L29.2874 594.138L35.7205 539.034L17.9449 594.138L19.1299 555.783L7.27953 596.818V584.926Z" fill="#4D563B"/>
<path d="M499.563 584.926L506.842 600H420.842V556.956L440.665 594.138L438.449 532L467.059 594.138L457.748 535.015L477.555 594.138L471.122 539.034L488.897 594.138L487.712 555.783L499.563 596.818V584.926Z" fill="#4D563B"/>
<defs>
<radialGradient id="paint0_radial" cx="0" cy="0" r="1" gradientUnits="userSpaceOnUse" gradientTransform="translate(248) rotate(90) scale(245)">
<stop stop-color="#256C76"/>
<stop offset="1" stop-color="#1F3367"/>
</radialGradient>
<linearGradient id="paint1_linear" x1="391.379" y1="0" x2="391.379" y2="600" gradientUnits="userSpaceOnUse">
<stop stop-color="#603156"/>
<stop offset="1" stop-color="#352F5C"/>
</linearGradient>
<linearGradient id="paint2_linear" x1="373.476" y1="400.613" x2="373.476" y2="600.109" gradientUnits="userSpaceOnUse">
<stop stop-color="#9A6721"/>
<stop offset="1" stop-color="#6F134F"/>
</linearGradient>
<linearGradient id="paint3_linear" x1="102.5" y1="1" x2="102.5" y2="600" gradientUnits="userSpaceOnUse">
<stop stop-color="#603156"/>
<stop offset="1" stop-color="#352F5C"/>
</linearGradient>
</defs>
</svg>
