<svg width="297" height="402" viewBox="0 0 297 402" fill="none" xmlns="http://www.w3.org/2000/svg">
<rect x="8" width="279.681" height="399.888" fill="#FFD7AC"/>
<path d="M287.681 0V43.9877C276.194 63.9821 259.713 82.4769 211.768 82.4769C134.569 82.4769 122.703 23.4934 118.874 0H287.681Z" fill="#B56949"/>
<path d="M176.808 0V43.9877C165.321 63.9821 148.839 82.4769 100.894 82.4769C23.6953 82.4769 11.829 23.4934 8 0H176.808Z" fill="#B56949"/>
<path d="M187.296 399.888H156.83L169.816 0H204.776L187.296 399.888Z" fill="#F2946C"/>
<path d="M287.681 180.949L58.9419 0H68.9305L287.681 168.953V180.949Z" fill="#FFEF9C" fill-opacity="0.14"/>
<path d="M70.4287 399.888H38.9646L70.4287 0H103.391L70.4287 399.888Z" fill="#F2946C"/>
<path d="M288 291.418L8 68.9806V58.9834L288 280.921V291.418Z" fill="#FFEF9C" fill-opacity="0.14"/>
<path d="M145.343 399.888H127.863L146.342 0H162.823L145.343 399.888Z" fill="#DD756E"/>
<path d="M159.328 398.888L8 214.44V195.445L205.775 398.888H159.328Z" fill="#FFEF9C" fill-opacity="0.14"/>
<path d="M131.359 0.5H93.4026L85.9111 399.388H131.359V0.5Z" fill="#8A4152"/>
<path d="M224.753 0.5H188.794L213.765 399.388H258.215L224.753 0.5Z" fill="#8A4152"/>
<path d="M287.681 399.888L202.279 399.388C212.434 387.725 234.142 358.3 239.736 333.907C245.33 309.513 244.397 243.432 243.232 213.44L184.299 157.956L167.818 122.966L171.314 114.468L192.29 139.461L243.232 169.453L232.744 0H287.681V399.888Z" fill="url(#paint0_linear)"/>
<path d="M190.598 279.359C192.735 278.137 194.566 279.359 195.787 281.803C194.566 281.558 191.514 283.33 189.377 285.468C188.462 282.719 187.77 280.976 190.598 279.359Z" fill="#9A6721"/>
<path fill-rule="evenodd" clip-rule="evenodd" d="M282.163 400H162.824C163.136 398.069 163.416 396.11 163.7 394.115C165.227 383.404 166.901 371.664 174.678 357.839C172.479 356.751 170.683 354.507 169.538 350.841C168.012 345.953 172.227 341.093 176.558 336.789C180.723 332.649 184.499 328.021 189.94 319.522C188.663 310.821 184.304 304.256 182.357 301.658C175.719 292.8 197.008 274.165 205.554 283.33C206.299 284.129 207.509 285.631 209.119 287.629C215.558 295.622 228.391 311.549 243.401 322.125C281.553 349.008 282.163 378.006 282.163 400Z" fill="url(#paint1_linear)"/>
<path fill-rule="evenodd" clip-rule="evenodd" d="M222.682 326.874C219.417 326.075 215.679 325.791 212.232 326.9C207.903 328.292 204.676 333.073 204.138 337.994C203.869 340.458 204.272 342.967 205.556 345.113C206.842 347.26 209.003 349.035 212.233 350.038C214.833 350.846 221.095 352.374 227.581 353.738C234.066 355.102 240.79 356.305 244.311 356.459C251.211 356.759 256.522 354.08 259.182 349.883C261.844 345.683 261.834 339.991 258.151 334.308L257.951 334.438C261.593 340.057 261.584 345.647 258.98 349.755C256.376 353.864 251.156 356.517 244.322 356.22C240.823 356.068 234.118 354.869 227.63 353.505C221.145 352.141 214.893 350.614 212.304 349.81C209.124 348.822 207.013 347.082 205.761 344.99C204.508 342.896 204.111 340.442 204.375 338.02C204.906 333.167 208.088 328.484 212.305 327.127C215.695 326.037 219.384 326.313 222.625 327.106C225.866 327.9 228.647 329.209 230.214 330.17L230.339 329.966C228.752 328.993 225.948 327.674 222.682 326.874Z" fill="black"/>
<path d="M208.606 279.664C208.606 284.73 207.69 282.414 206.775 287.301C205.249 283.941 200.365 282.108 199.144 283.025C197.313 281.192 197.008 278.931 198.229 275.999C199.755 272.333 208.606 274.598 208.606 279.664Z" fill="#9A6721"/>
<path d="M189.072 290.356H183.883L181.747 293.716L183.883 295.549L189.072 290.356Z" fill="black"/>
<path fill-rule="evenodd" clip-rule="evenodd" d="M184.462 297.386C184.634 297.848 184.818 298.298 184.997 298.657C185.36 299.383 186.023 299.82 186.836 300.032C187.647 300.243 188.615 300.231 189.607 300.058C191.591 299.711 193.714 298.709 194.955 297.466L194.787 297.297C193.587 298.498 191.512 299.482 189.566 299.822C188.594 299.992 187.664 300 186.896 299.801C186.131 299.601 185.535 299.199 185.211 298.55C184.728 297.583 184.201 295.923 183.998 295.21L183.767 295.271C183.785 295.347 183.805 295.429 183.826 295.517C184.047 296.443 184.42 298.003 184.374 299.287C184.349 299.991 184.198 300.584 183.854 300.946C183.519 301.298 182.972 301.46 182.081 301.237L182.023 301.469C182.963 301.704 183.611 301.547 184.027 301.111C184.433 300.683 184.587 300.016 184.613 299.295C184.635 298.686 184.565 298.019 184.462 297.386Z" fill="black"/>
<path d="M188.767 290.356L192.124 283.357C192.124 283.357 189.988 284.25 187.851 286.412C185.715 288.575 184.189 290.356 184.189 290.356H188.767Z" fill="#C68731"/>
<path d="M193.04 284.552C193.04 285.058 193.45 285.469 193.955 285.469C194.461 285.469 194.871 285.058 194.871 284.552C194.871 284.046 194.461 283.635 193.955 283.635C193.45 283.635 193.04 284.046 193.04 284.552Z" fill="black"/>
<path fill-rule="evenodd" clip-rule="evenodd" d="M173.585 340.239C179.122 335.412 185.509 326.801 190.091 318.853L189.884 318.733C185.309 326.67 178.938 335.256 173.428 340.059C168.651 344.223 168.494 349.707 170.616 353.722C172.732 357.728 177.138 360.298 181.485 358.589C190.05 355.221 196.472 350.323 201.973 345.123C203.473 343.706 204.094 341.409 203.924 339.021C203.753 336.63 202.788 334.126 201.086 332.277C199.38 330.426 196.936 329.233 193.821 329.47C190.711 329.708 186.944 331.371 182.584 335.199L182.741 335.379C187.079 331.57 190.798 329.941 193.839 329.709C196.876 329.477 199.25 330.637 200.91 332.439C202.572 334.244 203.518 336.695 203.686 339.038C203.853 341.383 203.239 343.598 201.809 344.95C196.322 350.136 189.925 355.014 181.398 358.366C177.2 360.017 172.907 357.547 170.827 353.61C168.751 349.683 168.9 344.323 173.585 340.239Z" fill="black"/>
<path fill-rule="evenodd" clip-rule="evenodd" d="M266.703 399.662C263.95 394.355 255.698 382.404 244.691 374.57L244.552 374.765C255.402 382.487 263.571 394.231 266.4 399.597H204.147V387.803C204.147 386.242 204.946 384.648 206.413 383.25C207.88 381.853 210.008 380.659 212.645 379.899C217.917 378.381 225.213 378.605 233.278 382.413L233.379 382.197C225.268 378.367 217.913 378.133 212.579 379.67C209.913 380.438 207.748 381.649 206.249 383.077C204.75 384.505 203.908 386.157 203.908 387.803V399.836H266.793L266.703 399.662Z" fill="black"/>
<path fill-rule="evenodd" clip-rule="evenodd" d="M203.672 356.032C204.584 353.601 206.693 351.348 210.491 349.448L210.384 349.234C206.551 351.152 204.388 353.443 203.449 355.948C202.51 358.452 202.804 361.147 203.84 363.855C205.911 369.266 210.965 374.782 215.237 379.057L215.405 378.888C211.131 374.609 206.113 369.127 204.063 363.77C203.039 361.095 202.761 358.463 203.672 356.032Z" fill="black"/>
<path fill-rule="evenodd" clip-rule="evenodd" d="M202.084 350.049C200.891 349.013 199.49 348.305 198.229 348.305L198.229 348.544C199.409 348.544 200.756 349.211 201.928 350.23C203.098 351.246 204.076 352.597 204.525 353.934L204.751 353.857C204.286 352.473 203.28 351.088 202.084 350.049Z" fill="black"/>
<path fill-rule="evenodd" clip-rule="evenodd" d="M198.505 376.873C203.252 376.49 208.118 377.394 214.062 379.363L214.137 379.137C208.178 377.162 203.278 376.248 198.486 376.635C193.694 377.022 189.022 378.711 183.518 381.924C179.059 384.527 177.666 385.934 176.666 386.943C176.6 387.009 176.537 387.073 176.474 387.136L176.643 387.305C176.706 387.242 176.77 387.177 176.835 387.111C177.825 386.112 179.204 384.719 183.638 382.13C189.123 378.928 193.76 377.257 198.505 376.873Z" fill="black"/>
<path fill-rule="evenodd" clip-rule="evenodd" d="M208.201 370.965L204.233 377.074L204.433 377.205L208.401 371.095L208.201 370.965Z" fill="black"/>
<path d="M201.281 280.887C202.442 281.262 204.231 282.72 204.943 283.636C204.943 281.803 206.775 279.692 203.417 277.554C199.688 275.179 198.534 279.998 201.281 280.887Z" fill="#FBAB7E"/>
<path fill-rule="evenodd" clip-rule="evenodd" d="M205.257 275.094C207.297 276.228 208.931 278.254 208.783 280.48C208.654 282.41 207.774 284.719 207.271 285.624L207.48 285.74C207.995 284.811 208.889 282.468 209.021 280.496C209.178 278.14 207.454 276.042 205.373 274.885C204.33 274.305 203.186 273.955 202.124 273.925C201.061 273.896 200.072 274.189 199.356 274.905C197.117 277.146 197.29 280.163 197.813 281.42L198.034 281.328C197.54 280.141 197.368 277.233 199.524 275.074C200.182 274.416 201.1 274.136 202.117 274.164C203.134 274.192 204.241 274.529 205.257 275.094Z" fill="#111111"/>
<path fill-rule="evenodd" clip-rule="evenodd" d="M193.077 279.314C193.957 279.592 194.792 280.261 195.375 281.428L195.588 281.321C194.979 280.102 194.097 279.386 193.149 279.086C192.202 278.787 191.199 278.907 190.352 279.344C189.505 279.78 188.811 280.534 188.485 281.508C188.157 282.483 188.201 283.668 188.813 284.962L189.028 284.86C188.44 283.615 188.406 282.494 188.711 281.584C189.017 280.673 189.666 279.966 190.461 279.556C191.257 279.146 192.195 279.036 193.077 279.314Z" fill="black"/>
<path d="M100.395 0.5H8V399.888H134.356C127.53 388.391 81.7106 351.757 77.4209 333.407C40.9624 177.45 42.9602 50.486 100.395 0.5Z" fill="url(#paint2_linear)"/>
<path d="M220.36 399.888L8 127.964V94.9736L287.681 343.404V399.888H220.36Z" fill="#FFEF9C" fill-opacity="0.14"/>
<path d="M287.681 247.431L8 30.9912V9.99707L287.681 221.938V247.431Z" fill="#FFEF9C" fill-opacity="0.14"/>
<path d="M287.681 125.965L121.371 0.5H135.355L287.681 102.971V125.965Z" fill="#FFEF9C" fill-opacity="0.14"/>
<path d="M8 49.4861V0H164.821C164.821 45.9871 77.4209 90.9745 8 49.4861Z" fill="#43606C"/>
<path d="M287.681 31.4912V0H108.885C108.885 31.4912 211.768 77.9782 287.681 31.4912Z" fill="#43606C"/>
<path d="M264.755 356.572C281.097 367.343 290.896 394.439 291.854 401.144H290.226C280.188 395.718 262.106 382.865 251.509 373.995C236.237 361.211 233.476 348.969 231.082 342C235.497 342.37 248.413 345.801 264.755 356.572Z" fill="#43606C"/>
<path fill-rule="evenodd" clip-rule="evenodd" d="M275.398 391.413L288.42 396.568L288.234 397.039L275.211 391.884L275.398 391.413Z" fill="#173E4F"/>
<path fill-rule="evenodd" clip-rule="evenodd" d="M263.449 382.456L282.441 388.967L282.276 389.446L263.285 382.935L263.449 382.456Z" fill="#173E4F"/>
<path fill-rule="evenodd" clip-rule="evenodd" d="M252.312 373.77L275.373 380.281L275.236 380.769L252.175 374.257L252.312 373.77Z" fill="#173E4F"/>
<path fill-rule="evenodd" clip-rule="evenodd" d="M242.003 363.732L267.777 371.057L267.639 371.544L241.865 364.219L242.003 363.732Z" fill="#173E4F"/>
<path fill-rule="evenodd" clip-rule="evenodd" d="M237.122 355.594L258.284 361.834L258.14 362.319L236.979 356.08L237.122 355.594Z" fill="#173E4F"/>
<path fill-rule="evenodd" clip-rule="evenodd" d="M233.065 347.729L248.529 353.156L248.361 353.633L232.897 348.207L233.065 347.729Z" fill="#173E4F"/>
<path fill-rule="evenodd" clip-rule="evenodd" d="M281.292 376.477L282.377 389.499L282.882 389.457L281.797 376.435L281.292 376.477Z" fill="#173E4F"/>
<path fill-rule="evenodd" clip-rule="evenodd" d="M274.78 366.96V380.254H275.286V366.96H274.78Z" fill="#173E4F"/>
<path fill-rule="evenodd" clip-rule="evenodd" d="M267.184 358.837L267.998 371.588L268.503 371.556L267.689 358.805L267.184 358.837Z" fill="#173E4F"/>
<path fill-rule="evenodd" clip-rule="evenodd" d="M257.961 352.874L258.774 362.369L259.279 362.326L258.465 352.831L257.961 352.874Z" fill="#173E4F"/>
<path fill-rule="evenodd" clip-rule="evenodd" d="M245.502 346.988L248.215 352.957L248.676 352.747L245.963 346.779L245.502 346.988Z" fill="#173E4F"/>
<path fill-rule="evenodd" clip-rule="evenodd" d="M287.261 388.961L288.075 397.1L288.579 397.049L287.765 388.91L287.261 388.961Z" fill="#173E4F"/>
<path fill-rule="evenodd" clip-rule="evenodd" d="M266.98 370.931C255.597 358.735 243.141 348.449 230.971 342.499L231.193 342.044C243.44 348.031 255.944 358.364 267.35 370.585C274.508 378.254 287.082 394.209 291.52 400.73L291.102 401.015C286.678 394.514 274.119 378.58 266.98 370.931Z" fill="#173E4F"/>
<path fill-rule="evenodd" clip-rule="evenodd" d="M28.083 316.845C28.6361 314.758 29.1736 312.731 29.6741 310.625L27.3849 310.081C26.8958 312.139 26.3659 314.137 25.8172 316.206C23.7451 324.018 21.407 332.833 20.0041 349.667C18.745 364.776 19.2259 377.509 19.6435 388.564C19.813 393.052 19.9721 397.262 20.0001 401.244L22.353 401.227C22.3241 397.132 22.1624 392.855 21.9912 388.328C21.5748 377.316 21.1023 364.822 22.3489 349.863C23.7334 333.249 26.017 324.636 28.083 316.845Z" fill="#43606C"/>
<path fill-rule="evenodd" clip-rule="evenodd" d="M10.2017 329.602C10.2016 329.602 10.2015 329.602 9.11762 330.059C8.03372 330.516 8.03366 330.516 8.03361 330.516L8.03389 330.517L8.03572 330.521L8.0443 330.542C8.05218 330.561 8.06434 330.59 8.0806 330.63C8.11312 330.71 8.16201 330.831 8.2257 330.993C8.35308 331.316 8.53967 331.802 8.77294 332.442C9.23949 333.723 9.89269 335.623 10.6324 338.082C12.112 343 13.9371 350.152 15.3078 359.061C15.5737 360.79 15.8309 362.448 16.0788 364.046C18.4087 379.065 19.9122 388.756 20.0001 401.244L22.353 401.227C22.2638 388.558 20.7333 378.695 18.4076 363.708C18.1584 362.102 17.9 360.437 17.6334 358.704C16.2439 349.672 14.3924 342.412 12.8856 337.404C12.1321 334.899 11.4646 332.957 10.9838 331.637C10.7434 330.977 10.5496 330.472 10.415 330.131C10.3477 329.96 10.2952 329.83 10.2591 329.741C10.2411 329.697 10.2271 329.663 10.2175 329.64L10.2062 329.613L10.203 329.605L10.2017 329.602Z" fill="#43606C"/>
<path fill-rule="evenodd" clip-rule="evenodd" d="M35.4543 343.545L34.4117 343C33.3691 342.455 33.369 342.455 33.3689 342.455L33.3635 342.466L33.3482 342.495C33.3348 342.521 33.3151 342.559 33.2895 342.608C33.2382 342.708 33.163 342.854 33.0666 343.044C32.8737 343.423 32.5956 343.976 32.253 344.673C31.568 346.066 30.6243 348.037 29.5881 350.35C27.5203 354.965 25.0646 360.987 23.5701 366.516C20.5892 377.546 19.9017 387.274 20.0001 401.243L22.353 401.227C22.2553 387.353 22.9401 377.866 25.8416 367.13C27.2882 361.778 29.6854 355.887 31.7354 351.312C32.7579 349.029 33.6893 347.084 34.3645 345.711C34.7021 345.024 34.9755 344.481 35.164 344.11C35.2583 343.925 35.3313 343.783 35.3806 343.687C35.4052 343.639 35.4239 343.603 35.4363 343.579L35.4501 343.553L35.4543 343.545Z" fill="#43606C"/>
<ellipse rx="5.29412" ry="5.58824" transform="matrix(-1 0 0 1 34.7059 343.294)" fill="#FD39A1"/>
<circle r="2.64706" transform="matrix(-1 0 0 1 34.4118 343.294)" fill="#99155B"/>
<ellipse rx="7.94118" ry="8.23529" transform="matrix(-1 0 0 1 7.94115 324.765)" fill="#FD39A1"/>
<circle r="4.11765" transform="matrix(-1 0 0 1 7.647 324.765)" fill="#99155B"/>
<ellipse rx="10" ry="10.2941" transform="matrix(-1 0 0 1 30 303.294)" fill="#FD39A1"/>
<circle r="5" transform="matrix(-1 0 0 1 29.7058 303.294)" fill="#99155B"/>
<path d="M50.7058 355.361C34.6008 365.975 24.9441 392.678 24.0004 399.286H25.6046C35.4973 393.939 53.3166 381.272 63.7596 372.531C78.8109 359.932 81.5317 347.868 83.8909 341C79.5396 341.364 66.8108 344.746 50.7058 355.361Z" fill="#43606C"/>
<path fill-rule="evenodd" clip-rule="evenodd" d="M40.2177 389.696L27.384 394.776L27.5677 395.24L40.4014 390.16L40.2177 389.696Z" fill="#173E4F"/>
<path fill-rule="evenodd" clip-rule="evenodd" d="M51.9922 380.869L33.2764 387.286L33.4383 387.758L52.1541 381.341L51.9922 380.869Z" fill="#173E4F"/>
<path fill-rule="evenodd" clip-rule="evenodd" d="M62.9674 372.309L40.2411 378.726L40.3767 379.206L63.103 372.789L62.9674 372.309Z" fill="#173E4F"/>
<path fill-rule="evenodd" clip-rule="evenodd" d="M73.1272 362.417L47.7273 369.635L47.8637 370.116L73.2637 362.897L73.1272 362.417Z" fill="#173E4F"/>
<path fill-rule="evenodd" clip-rule="evenodd" d="M77.9379 354.396L57.0832 360.546L57.2244 361.025L78.0791 354.875L77.9379 354.396Z" fill="#173E4F"/>
<path fill-rule="evenodd" clip-rule="evenodd" d="M81.9366 346.646L66.6966 351.994L66.8618 352.465L82.1018 347.117L81.9366 346.646Z" fill="#173E4F"/>
<path fill-rule="evenodd" clip-rule="evenodd" d="M34.4089 374.977L33.3394 387.81L32.842 387.769L33.9115 374.935L34.4089 374.977Z" fill="#173E4F"/>
<path fill-rule="evenodd" clip-rule="evenodd" d="M40.8267 365.598V378.699H40.3276V365.598H40.8267Z" fill="#173E4F"/>
<path fill-rule="evenodd" clip-rule="evenodd" d="M48.3117 357.593L47.5095 370.159L47.0115 370.127L47.8136 357.561L48.3117 357.593Z" fill="#173E4F"/>
<path fill-rule="evenodd" clip-rule="evenodd" d="M57.4017 351.716L56.5996 361.074L56.1023 361.031L56.9044 351.673L57.4017 351.716Z" fill="#173E4F"/>
<path fill-rule="evenodd" clip-rule="evenodd" d="M69.6803 345.916L67.0066 351.798L66.5522 351.592L69.2259 345.709L69.6803 345.916Z" fill="#173E4F"/>
<path fill-rule="evenodd" clip-rule="evenodd" d="M28.526 387.28L27.7239 395.301L27.2273 395.251L28.0294 387.23L28.526 387.28Z" fill="#173E4F"/>
<path fill-rule="evenodd" clip-rule="evenodd" d="M48.5129 369.512C59.7309 357.492 72.0059 347.356 84 341.492L83.7808 341.043C71.7118 346.944 59.3889 357.127 48.148 369.171C41.0943 376.729 28.7024 392.452 24.3284 398.879L24.741 399.16C29.1011 392.753 41.4772 377.05 48.5129 369.512Z" fill="#173E4F"/>
<path fill-rule="evenodd" clip-rule="evenodd" d="M268.917 302.845C268.364 300.758 267.826 298.731 267.326 296.625L269.615 296.081C270.104 298.139 270.634 300.137 271.183 302.206C273.255 310.018 275.593 318.833 276.996 335.667C278.255 350.776 277.774 363.509 277.356 374.564C277.187 379.052 277.028 383.262 277 387.244L274.647 387.227C274.676 383.132 274.838 378.855 275.009 374.328C275.425 363.316 275.898 350.822 274.651 335.863C273.267 319.249 270.983 310.636 268.917 302.845Z" fill="#43606C"/>
<path fill-rule="evenodd" clip-rule="evenodd" d="M286.798 315.602C286.798 315.602 286.798 315.602 287.882 316.059C288.966 316.516 288.966 316.516 288.966 316.516L288.966 316.517L288.964 316.521L288.956 316.542C288.948 316.561 288.936 316.59 288.919 316.63C288.887 316.71 288.838 316.831 288.774 316.993C288.647 317.316 288.46 317.802 288.227 318.442C287.761 319.723 287.107 321.623 286.368 324.082C284.888 329 283.063 336.152 281.692 345.061C281.426 346.79 281.169 348.448 280.921 350.046C278.591 365.065 277.088 374.756 277 387.244L274.647 387.227C274.736 374.558 276.267 364.695 278.592 349.708C278.842 348.102 279.1 346.437 279.367 344.704C280.756 335.672 282.608 328.412 284.114 323.404C284.868 320.899 285.535 318.957 286.016 317.637C286.257 316.977 286.45 316.472 286.585 316.131C286.652 315.96 286.705 315.83 286.741 315.741C286.759 315.697 286.773 315.663 286.783 315.64L286.794 315.613L286.797 315.605L286.798 315.602Z" fill="#43606C"/>
<path fill-rule="evenodd" clip-rule="evenodd" d="M261.546 329.545L262.588 329C263.631 328.455 263.631 328.455 263.631 328.455L263.637 328.466L263.652 328.495C263.665 328.521 263.685 328.559 263.711 328.608C263.762 328.708 263.837 328.854 263.933 329.044C264.126 329.423 264.404 329.976 264.747 330.673C265.432 332.066 266.376 334.037 267.412 336.35C269.48 340.965 271.935 346.987 273.43 352.516C276.411 363.546 277.098 373.274 277 387.243L274.647 387.227C274.745 373.353 274.06 363.866 271.158 353.13C269.712 347.778 267.315 341.887 265.265 337.312C264.242 335.029 263.311 333.084 262.635 331.711C262.298 331.024 262.025 330.481 261.836 330.11C261.742 329.925 261.669 329.783 261.619 329.687C261.595 329.639 261.576 329.603 261.564 329.579L261.55 329.553L261.546 329.545Z" fill="#43606C"/>
<ellipse cx="262.294" cy="329.294" rx="5.29412" ry="5.58824" fill="#FD39A1"/>
<circle cx="262.588" cy="329.294" r="2.64706" fill="#99155B"/>
<ellipse cx="289.059" cy="310.765" rx="7.94118" ry="8.23529" fill="#FD39A1"/>
<circle cx="289.353" cy="310.765" r="4.11765" fill="#99155B"/>
<ellipse cx="267" cy="289.294" rx="10" ry="10.2941" fill="#FD39A1"/>
<circle cx="267.294" cy="289.294" r="5" fill="#99155B"/>
<path d="M60 338.534L47.6471 401.789H39.4118H30.5882H0V380.802L7.35294 400.04L13.5294 354.567L18.2353 400.04L28.8235 326L30.5882 401.789L44.4118 332.996L39.4118 401.789L60 338.534Z" fill="#59787D"/>
<path d="M237 338.534L249.353 401.789H257.588H266.412H297V380.802L289.647 400.04L283.471 354.567L278.765 400.04L268.176 326L266.412 401.789L252.588 332.996L257.588 401.789L237 338.534Z" fill="#59787D"/>
<path d="M84.9213 391.201L90 401.797H30V371.541L46.4173 397.676L42.2835 354L62.2441 397.676L55.748 356.119L69.5669 397.676L65.0787 358.944L77.4803 397.676L76.6535 370.717L84.9213 399.56V391.201Z" fill="#80886F"/>
<path d="M210.079 391.201L205 401.797H265V371.541L248.583 397.676L252.717 354L232.756 397.676L239.252 356.119L225.433 397.676L229.921 358.944L217.52 397.676L218.346 370.717L210.079 399.56V391.201Z" fill="#80886F"/>
<defs>
<linearGradient id="paint0_linear" x1="227.75" y1="0" x2="227.75" y2="399.888" gradientUnits="userSpaceOnUse">
<stop stop-color="#603156"/>
<stop offset="1" stop-color="#352F5C"/>
</linearGradient>
<linearGradient id="paint1_linear" x1="222.493" y1="280.859" x2="222.493" y2="400" gradientUnits="userSpaceOnUse">
<stop stop-color="#9A6721"/>
<stop offset="1" stop-color="#7E270B"/>
</linearGradient>
<linearGradient id="paint2_linear" x1="71.178" y1="0.5" x2="71.178" y2="399.888" gradientUnits="userSpaceOnUse">
<stop stop-color="#603156"/>
<stop offset="1" stop-color="#352F5C"/>
</linearGradient>
</defs>
</svg>
