<svg width="295" height="401" viewBox="0 0 295 401" fill="none" xmlns="http://www.w3.org/2000/svg">
<rect x="6" width="279.501" height="399.888" fill="url(#paint0_radial)"/>
<path d="M285.501 0V43.9877C274.021 63.9821 257.551 82.4769 209.636 82.4769C132.487 82.4769 120.629 23.4934 116.802 0H285.501Z" fill="#47559F"/>
<path d="M174.699 0V43.9877C163.219 63.9821 146.749 82.4769 98.8342 82.4769C21.6852 82.4769 9.8265 23.4934 6 0H174.699Z" fill="#47559F"/>
<path d="M185.18 399.888H154.734L167.711 0H202.649L185.18 399.888Z" fill="#776CF2"/>
<path d="M285.501 180.949L56.9092 0H66.8914L285.501 168.953V180.949Z" fill="#9CE7FF" fill-opacity="0.14"/>
<path d="M68.3887 399.888H36.9448L68.3887 0H101.33L68.3887 399.888Z" fill="#776CF2"/>
<path d="M285.819 291.418L6 68.9806V58.9834L285.819 280.921V291.418Z" fill="#9CE7FF" fill-opacity="0.14"/>
<path d="M143.255 399.888H125.786L144.253 0H160.724L143.255 399.888Z" fill="#3B40B0"/>
<path d="M157.23 398.888L6 214.44V195.445L203.647 398.888H157.23Z" fill="#9CE7FF" fill-opacity="0.14"/>
<path d="M129.28 0.5H91.3475L83.8608 399.388H129.28V0.5Z" fill="#5D418A"/>
<path d="M222.613 0.5H186.677L211.633 399.388H256.053L222.613 0.5Z" fill="#5D418A"/>
<path d="M286 399.888L200.153 399.388C210.302 387.725 231.996 358.3 237.587 333.907C243.177 309.513 242.245 243.432 241.08 213.44L182.185 157.956L165.715 122.966L169.209 114.468L190.171 139.461L241.08 169.453L230.599 0H285.002L286 399.888Z" fill="url(#paint1_linear)"/>
<path d="M188.48 279.358C190.616 278.136 192.446 279.358 193.666 281.802C192.446 281.558 189.395 283.33 187.26 285.468C186.345 282.719 185.654 280.976 188.48 279.358Z" fill="#9A6721"/>
<path fill-rule="evenodd" clip-rule="evenodd" d="M279.986 400H160.724C161.036 398.069 161.316 396.11 161.6 394.115C163.126 383.404 164.799 371.664 172.571 357.839C170.373 356.751 168.578 354.507 167.434 350.841C165.909 345.953 170.121 341.093 174.45 336.789C178.612 332.649 182.385 328.021 187.823 319.522C186.547 310.821 182.19 304.256 180.245 301.658C173.611 292.8 194.886 274.165 203.426 283.33C204.171 284.129 205.38 285.631 206.989 287.629C213.425 295.622 226.248 311.549 241.249 322.125C279.376 349.008 279.986 378.006 279.986 400Z" fill="url(#paint2_linear)"/>
<path fill-rule="evenodd" clip-rule="evenodd" d="M220.543 326.874C217.281 326.075 213.545 325.791 210.1 326.9C205.774 328.292 202.549 333.073 202.012 337.994C201.742 340.458 202.146 342.967 203.429 345.113C204.713 347.26 206.874 349.035 210.101 350.038C212.7 350.846 218.957 352.374 225.44 353.738C231.92 355.102 238.64 356.305 242.159 356.459C249.054 356.759 254.361 354.08 257.02 349.883C259.68 345.683 259.671 339.991 255.99 334.308L255.79 334.438C259.429 340.057 259.42 345.647 256.818 349.755C254.215 353.864 248.999 356.517 242.169 356.22C238.673 356.068 231.972 354.869 225.489 353.505C219.007 352.141 212.759 350.614 210.172 349.81C206.995 348.822 204.885 347.082 203.634 344.99C202.382 342.896 201.984 340.442 202.249 338.02C202.779 333.167 205.959 328.484 210.173 327.127C213.561 326.037 217.248 326.313 220.487 327.106C223.725 327.9 226.505 329.209 228.071 330.17L228.195 329.966C226.609 328.993 223.807 327.674 220.543 326.874Z" fill="black"/>
<path d="M206.477 279.664C206.477 284.73 205.562 282.414 204.646 287.301C203.121 283.941 198.241 282.108 197.021 283.025C195.191 281.192 194.886 278.931 196.106 275.999C197.631 272.333 206.477 274.598 206.477 279.664Z" fill="#9A6721"/>
<path d="M186.955 290.355H181.77L179.635 293.716L181.77 295.549L186.955 290.355Z" fill="black"/>
<path fill-rule="evenodd" clip-rule="evenodd" d="M182.348 297.387C182.52 297.849 182.704 298.299 182.883 298.657C183.246 299.384 183.909 299.821 184.721 300.032C185.532 300.243 186.498 300.232 187.491 300.058C189.473 299.711 191.594 298.709 192.835 297.467L192.666 297.298C191.467 298.499 189.394 299.482 187.449 299.823C186.478 299.993 185.548 300.001 184.781 299.801C184.016 299.602 183.42 299.199 183.097 298.551C182.614 297.584 182.088 295.923 181.885 295.211L181.654 295.271C181.672 295.347 181.691 295.43 181.712 295.518C181.934 296.444 182.307 298.004 182.261 299.287C182.236 299.992 182.085 300.584 181.741 300.946C181.406 301.299 180.86 301.46 179.969 301.237L179.911 301.469C180.85 301.704 181.498 301.548 181.914 301.111C182.319 300.684 182.473 300.017 182.499 299.296C182.521 298.687 182.451 298.02 182.348 297.387Z" fill="black"/>
<path d="M186.65 290.356L190.006 283.357C190.006 283.357 187.87 284.25 185.735 286.412C183.6 288.575 182.075 290.356 182.075 290.356H186.65Z" fill="#C68731"/>
<path d="M190.921 284.552C190.921 285.058 191.33 285.469 191.836 285.469C192.341 285.469 192.751 285.058 192.751 284.552C192.751 284.046 192.341 283.635 191.836 283.635C191.33 283.635 190.921 284.046 190.921 284.552Z" fill="black"/>
<path fill-rule="evenodd" clip-rule="evenodd" d="M171.478 340.239C177.012 335.412 183.395 326.801 187.974 318.853L187.767 318.733C183.195 326.67 176.828 335.256 171.321 340.059C166.547 344.223 166.391 349.707 168.511 353.722C170.626 357.728 175.029 360.298 179.374 358.589C187.933 355.221 194.351 350.323 199.848 345.123C201.347 343.706 201.968 341.409 201.798 339.021C201.627 336.63 200.663 334.126 198.961 332.277C197.257 330.426 194.815 329.233 191.702 329.47C188.593 329.708 184.829 331.371 180.471 335.199L180.629 335.379C184.964 331.57 188.681 329.941 191.72 329.709C194.755 329.477 197.127 330.637 198.786 332.439C200.447 334.244 201.393 336.695 201.56 339.038C201.727 341.383 201.113 343.598 199.684 344.95C194.201 350.136 187.808 355.014 179.286 358.366C175.091 360.017 170.801 357.547 168.722 353.61C166.648 349.683 166.796 344.323 171.478 340.239Z" fill="black"/>
<path fill-rule="evenodd" clip-rule="evenodd" d="M264.536 399.662C261.785 394.355 253.538 382.405 242.538 374.571L242.4 374.765C253.242 382.487 261.406 394.231 264.233 399.598H202.02V387.804C202.02 386.242 202.819 384.648 204.285 383.251C205.751 381.854 207.878 380.659 210.513 379.9C215.782 378.381 223.073 378.606 231.132 382.413L231.234 382.197C223.127 378.368 215.777 378.134 210.447 379.67C207.782 380.438 205.62 381.649 204.121 383.078C202.623 384.506 201.782 386.158 201.782 387.804V399.837H264.626L264.536 399.662Z" fill="black"/>
<path fill-rule="evenodd" clip-rule="evenodd" d="M201.546 356.032C202.457 353.601 204.565 351.349 208.36 349.448L208.254 349.234C204.423 351.152 202.261 353.444 201.323 355.948C200.385 358.452 200.678 361.147 201.714 363.856C203.783 369.267 208.834 374.782 213.103 379.057L213.271 378.888C209 374.61 203.985 369.128 201.937 363.771C200.914 361.095 200.635 358.464 201.546 356.032Z" fill="black"/>
<path fill-rule="evenodd" clip-rule="evenodd" d="M199.959 350.049C198.766 349.013 197.367 348.305 196.106 348.305L196.106 348.544C197.285 348.544 198.631 349.211 199.802 350.23C200.972 351.246 201.949 352.597 202.398 353.934L202.624 353.857C202.159 352.473 201.153 351.088 199.959 350.049Z" fill="black"/>
<path fill-rule="evenodd" clip-rule="evenodd" d="M196.382 376.873C201.126 376.49 205.989 377.394 211.929 379.363L212.004 379.137C206.049 377.162 201.152 376.248 196.363 376.635C191.574 377.022 186.905 378.711 181.405 381.924C176.948 384.527 175.556 385.934 174.557 386.943C174.491 387.009 174.428 387.073 174.365 387.136L174.534 387.305C174.597 387.242 174.661 387.177 174.726 387.111C175.715 386.112 177.094 384.719 181.525 382.13C187.006 378.928 191.64 377.257 196.382 376.873Z" fill="black"/>
<path fill-rule="evenodd" clip-rule="evenodd" d="M206.071 370.965L202.106 377.074L202.306 377.205L206.271 371.095L206.071 370.965Z" fill="black"/>
<path d="M199.156 280.887C200.317 281.263 202.105 282.72 202.816 283.636C202.816 281.804 204.646 279.693 201.291 277.555C197.564 275.179 196.411 279.998 199.156 280.887Z" fill="#FBAB7E"/>
<path fill-rule="evenodd" clip-rule="evenodd" d="M203.13 275.094C205.168 276.228 206.801 278.254 206.653 280.48C206.525 282.41 205.645 284.719 205.143 285.624L205.351 285.74C205.866 284.811 206.76 282.468 206.891 280.496C207.048 278.14 205.326 276.042 203.246 274.885C202.203 274.305 201.06 273.955 199.998 273.925C198.936 273.896 197.948 274.189 197.232 274.905C194.995 277.146 195.168 280.163 195.691 281.42L195.911 281.328C195.417 280.141 195.246 277.233 197.401 275.074C198.058 274.416 198.976 274.136 199.992 274.164C201.008 274.192 202.114 274.529 203.13 275.094Z" fill="#111111"/>
<path fill-rule="evenodd" clip-rule="evenodd" d="M190.958 279.314C191.838 279.592 192.671 280.261 193.254 281.428L193.468 281.321C192.859 280.102 191.977 279.386 191.029 279.086C190.083 278.787 189.081 278.907 188.235 279.344C187.388 279.78 186.695 280.534 186.368 281.508C186.041 282.483 186.085 283.668 186.696 284.962L186.912 284.86C186.324 283.615 186.289 282.494 186.594 281.584C186.9 280.673 187.549 279.966 188.344 279.556C189.138 279.146 190.076 279.036 190.958 279.314Z" fill="black"/>
<path d="M98.3351 0.5H6V399.888H132.275C125.453 388.391 79.6631 351.757 75.3761 333.407C38.9412 177.45 40.9376 50.486 98.3351 0.5Z" fill="url(#paint3_linear)"/>
<path d="M218.223 399.888L6 127.964V94.9736L285.819 343.404V399.888H218.223Z" fill="#9CE7FF" fill-opacity="0.14"/>
<path d="M285.501 247.431L6 30.9912V9.99707L285.501 221.938V247.431Z" fill="#9CE7FF" fill-opacity="0.14"/>
<path d="M285.501 125.965L119.298 0.5H133.273L285.501 102.971V125.965Z" fill="#9CE7FF" fill-opacity="0.14"/>
<path d="M6 49.4861V0H162.72C162.72 45.9871 75.3761 90.9745 6 49.4861Z" fill="#43606C"/>
<path d="M285.501 31.4912V0H106.82C106.82 31.4912 209.636 77.9782 285.501 31.4912Z" fill="#43606C"/>
<path d="M7.3937 387.7L0.999924 401H76.5356V363.02L59.1249 395.828L61.0716 341L35.9426 395.828L44.1207 343.66L26.7237 395.828L32.374 347.207L16.7613 395.828L17.8022 361.985L7.3937 398.192V387.7Z" fill="#4D563B"/>
<path d="M288.142 387.7L294.536 401H219V363.02L236.411 395.828L234.464 341L259.593 395.828L251.415 343.66L268.812 395.828L263.162 347.207L278.774 395.828L277.733 361.985L288.142 398.192V387.7Z" fill="#4D563B"/>
<path d="M46.9565 400.149H60C52.5466 394.186 50.3106 387.478 50.3106 378.162H43.9752C46.9565 386.36 45.0932 392.323 46.9565 400.149Z" fill="url(#paint4_linear)"/>
<path d="M33.913 378.161C36.3975 373.441 39.1304 364 46.5838 364C54.0372 364 57.1428 373.441 59.2546 378.161H33.913Z" fill="#67A4AE"/>
<path d="M30.1863 390.832H40.6211C40 389.342 38.0869 386.36 35.4037 386.36C32.7205 386.36 30.8074 389.342 30.1863 390.832Z" fill="#67A4AE"/>
<path d="M32.7951 399.777H38.7578L36.8945 390.833H34.2858L32.7951 399.777Z" fill="url(#paint5_linear)"/>
<path d="M15.6522 400.522H26.8323C26.8323 400.522 25.9436 396.795 24.2236 391.205C22.5036 385.615 22.3602 380.025 22.3602 380.025H18.2608C18.2608 380.025 20.4969 387.478 18.6335 391.95C16.7702 396.422 15.6522 400.522 15.6522 400.522Z" fill="url(#paint6_linear)"/>
<path d="M1.86321 400.208H9.31663C11.1054 396.928 8.57129 390.394 7.08061 387.537H4.09924C3.97502 388.158 3.5775 390.22 2.98123 393.5C2.38495 396.779 1.98744 399.338 1.86321 400.208Z" fill="url(#paint7_linear)"/>
<path d="M-8.01086e-05 387.537H10.8074C9.93781 385.425 7.52787 381.351 4.84464 381.947C2.16141 382.543 0.496815 385.922 -8.01086e-05 387.537Z" fill="#67A4AE"/>
<path d="M11.5528 380.025H29.0684C27.3292 377.541 25.7143 372.944 20.4969 372.944C15.2795 372.944 12.6708 377.789 11.5528 380.025Z" fill="#67A4AE"/>
<path d="M62.1852 390.741H57C57 389.012 57.5185 385.63 59.5926 385.926C61.6667 386.222 62.1852 389.259 62.1852 390.741Z" fill="#67A4AE"/>
<path d="M70.3334 390.018H65.1482C65.1482 388.29 65.6667 384.907 67.7408 385.203C69.8149 385.5 70.3334 388.537 70.3334 390.018Z" fill="#67A4AE"/>
<path d="M76.2592 387.796H71.074C71.074 386.068 71.5925 382.685 73.6666 382.981C75.7406 383.277 76.2592 386.314 76.2592 387.796Z" fill="#67A4AE"/>
<path d="M79.2223 391.852H75.5186C75.5186 390.527 75.8889 387.935 77.3704 388.162C78.8519 388.389 79.2223 390.716 79.2223 391.852Z" fill="#67A4AE"/>
<path d="M65.8888 384.833H60.7036C60.7036 383.105 61.2221 379.722 63.2962 380.018C65.3703 380.315 65.8888 383.352 65.8888 384.833Z" fill="#67A4AE"/>
<path fill-rule="evenodd" clip-rule="evenodd" d="M59.8084 392.578C59.3955 391.848 59.116 391.088 59.226 390.318L59.9593 390.423C59.8841 390.949 60.0675 391.531 60.4532 392.213C60.7855 392.801 61.2394 393.415 61.7346 394.085C61.8136 394.192 61.8936 394.3 61.9743 394.41C63.1234 395.973 64.4074 397.825 64.4074 400H63.6667C63.6667 398.101 62.5433 396.434 61.3776 394.849C61.2993 394.742 61.2207 394.636 61.1423 394.53C60.6498 393.864 60.165 393.208 59.8084 392.578Z" fill="#67A4AE"/>
<path fill-rule="evenodd" clip-rule="evenodd" d="M64.0995 393.488C63.3984 391.198 62.7381 388.56 62.9263 384.796L63.6661 384.833C63.4839 388.478 64.1199 391.024 64.8078 393.271C64.9058 393.591 65.0054 393.907 65.1042 394.22C65.6967 396.096 66.2593 397.877 66.2593 400L65.5186 400C65.5186 397.999 64.9942 396.336 64.4021 394.457C64.3024 394.141 64.2008 393.819 64.0995 393.488Z" fill="#67A4AE"/>
<path fill-rule="evenodd" clip-rule="evenodd" d="M67.3704 400V390H68.1111V400H67.3704Z" fill="#67A4AE"/>
<path fill-rule="evenodd" clip-rule="evenodd" d="M72.6304 391.524C73.0261 390.578 73.296 389.401 73.296 387.778L74.0367 387.778C74.0368 389.488 73.7512 390.764 73.3136 391.81C72.8777 392.851 72.2973 393.647 71.7405 394.389C71.7094 394.43 71.6784 394.472 71.6475 394.513C71.1208 395.214 70.6278 395.87 70.2527 396.683C69.8598 397.534 69.5923 398.569 69.5923 400L68.8516 400C68.8516 398.468 69.1397 397.327 69.5801 396.373C69.9894 395.486 70.5267 394.771 71.0454 394.081C71.0797 394.035 71.1139 393.99 71.1479 393.945C71.7023 393.205 72.2329 392.473 72.6304 391.524Z" fill="#67A4AE"/>
<path fill-rule="evenodd" clip-rule="evenodd" d="M75.8829 393.936C76.4251 393.257 76.7092 392.589 76.6318 391.893L77.368 391.811C77.4758 392.781 77.0655 393.642 76.4618 394.398C75.86 395.152 75.0309 395.846 74.222 396.493C74.083 396.604 73.9448 396.714 73.8082 396.822C73.1355 397.356 72.501 397.86 72.0026 398.363C71.3947 398.976 71.074 399.509 71.074 400H70.3333C70.3333 399.195 70.8459 398.478 71.4764 397.841C72.009 397.304 72.6864 396.766 73.3589 396.233C73.493 396.127 73.6268 396.021 73.7593 395.915C74.5708 395.265 75.3389 394.617 75.8829 393.936Z" fill="#67A4AE"/>
<path d="M214.185 390.741H209C209 389.012 209.519 385.63 211.593 385.926C213.667 386.222 214.185 389.259 214.185 390.741Z" fill="#67A4AE"/>
<path d="M222.333 390.018H217.148C217.148 388.29 217.667 384.907 219.741 385.203C221.815 385.5 222.333 388.537 222.333 390.018Z" fill="#67A4AE"/>
<path d="M228.259 387.796H223.074C223.074 386.068 223.592 382.685 225.667 382.981C227.741 383.277 228.259 386.314 228.259 387.796Z" fill="#67A4AE"/>
<path d="M231.222 391.852H227.519C227.519 390.527 227.889 387.935 229.37 388.162C230.852 388.389 231.222 390.716 231.222 391.852Z" fill="#67A4AE"/>
<path d="M217.889 384.833H212.704C212.704 383.105 213.222 379.722 215.296 380.018C217.37 380.315 217.889 383.352 217.889 384.833Z" fill="#67A4AE"/>
<path fill-rule="evenodd" clip-rule="evenodd" d="M211.808 392.578C211.395 391.848 211.116 391.088 211.226 390.318L211.959 390.423C211.884 390.949 212.067 391.531 212.453 392.213C212.786 392.801 213.239 393.415 213.735 394.085C213.814 394.192 213.894 394.3 213.974 394.41C215.123 395.973 216.407 397.825 216.407 400H215.667C215.667 398.101 214.543 396.434 213.378 394.849C213.299 394.742 213.221 394.636 213.142 394.53C212.65 393.864 212.165 393.208 211.808 392.578Z" fill="#67A4AE"/>
<path fill-rule="evenodd" clip-rule="evenodd" d="M216.099 393.488C215.398 391.198 214.738 388.56 214.926 384.796L215.666 384.833C215.484 388.478 216.12 391.024 216.808 393.271C216.906 393.591 217.005 393.907 217.104 394.22C217.697 396.096 218.259 397.877 218.259 400L217.519 400C217.519 397.999 216.994 396.336 216.402 394.457C216.302 394.141 216.201 393.819 216.099 393.488Z" fill="#67A4AE"/>
<path fill-rule="evenodd" clip-rule="evenodd" d="M219.37 400V390H220.111V400H219.37Z" fill="#67A4AE"/>
<path fill-rule="evenodd" clip-rule="evenodd" d="M224.63 391.524C225.026 390.578 225.296 389.401 225.296 387.778L226.037 387.778C226.037 389.488 225.751 390.764 225.314 391.81C224.878 392.851 224.297 393.647 223.741 394.389C223.709 394.43 223.678 394.472 223.648 394.513C223.121 395.214 222.628 395.87 222.253 396.683C221.86 397.534 221.592 398.569 221.592 400L220.852 400C220.852 398.468 221.14 397.327 221.58 396.373C221.989 395.486 222.527 394.771 223.045 394.081C223.08 394.035 223.114 393.99 223.148 393.945C223.702 393.205 224.233 392.473 224.63 391.524Z" fill="#67A4AE"/>
<path fill-rule="evenodd" clip-rule="evenodd" d="M227.883 393.936C228.425 393.257 228.709 392.589 228.632 391.893L229.368 391.811C229.476 392.781 229.066 393.642 228.462 394.398C227.86 395.152 227.031 395.846 226.222 396.493C226.083 396.604 225.945 396.714 225.808 396.822C225.135 397.356 224.501 397.86 224.003 398.363C223.395 398.976 223.074 399.509 223.074 400H222.333C222.333 399.195 222.846 398.478 223.476 397.841C224.009 397.304 224.686 396.766 225.359 396.233C225.493 396.127 225.627 396.021 225.759 395.915C226.571 395.265 227.339 394.617 227.883 393.936Z" fill="#67A4AE"/>
<path d="M246.043 400.149H233C240.453 394.186 242.689 387.478 242.689 378.162H249.025C246.043 386.36 247.907 392.323 246.043 400.149Z" fill="url(#paint8_linear)"/>
<path d="M259.087 378.161C256.603 373.441 253.87 364 246.416 364C238.963 364 235.857 373.441 233.745 378.161H259.087Z" fill="#67A4AE"/>
<path d="M262.814 390.832H252.379C253 389.342 254.913 386.36 257.596 386.36C260.28 386.36 262.193 389.342 262.814 390.832Z" fill="#67A4AE"/>
<path d="M260.205 399.777H254.242L256.106 390.833H258.714L260.205 399.777Z" fill="url(#paint9_linear)"/>
<path d="M277.348 400.522H266.168C266.168 400.522 267.056 396.795 268.776 391.205C270.496 385.615 270.64 380.025 270.64 380.025H274.739C274.739 380.025 272.503 387.478 274.366 391.95C276.23 396.422 277.348 400.522 277.348 400.522Z" fill="url(#paint10_linear)"/>
<path d="M291.137 400.208H283.683C281.895 396.928 284.429 390.394 285.919 387.537H288.901C289.025 388.158 289.423 390.22 290.019 393.5C290.615 396.779 291.013 399.338 291.137 400.208Z" fill="url(#paint11_linear)"/>
<path d="M293 387.537H282.193C283.062 385.425 285.472 381.351 288.155 381.947C290.839 382.543 292.503 385.922 293 387.537Z" fill="#67A4AE"/>
<path d="M281.447 380.025H263.932C265.671 377.541 267.286 372.944 272.503 372.944C277.72 372.944 280.329 377.789 281.447 380.025Z" fill="#67A4AE"/>
<defs>
<radialGradient id="paint0_radial" cx="0" cy="0" r="1" gradientUnits="userSpaceOnUse" gradientTransform="translate(145.75) rotate(90) scale(199.944 139.75)">
<stop stop-color="#256C76"/>
<stop offset="1" stop-color="#1F3367"/>
</radialGradient>
<linearGradient id="paint1_linear" x1="225.857" y1="0" x2="225.857" y2="399.888" gradientUnits="userSpaceOnUse">
<stop stop-color="#603156"/>
<stop offset="1" stop-color="#352F5C"/>
</linearGradient>
<linearGradient id="paint2_linear" x1="220.355" y1="280.859" x2="220.355" y2="400" gradientUnits="userSpaceOnUse">
<stop stop-color="#9A6721"/>
<stop offset="1" stop-color="#6F134F"/>
</linearGradient>
<linearGradient id="paint3_linear" x1="69.1373" y1="0.5" x2="69.1373" y2="399.888" gradientUnits="userSpaceOnUse">
<stop stop-color="#603156"/>
<stop offset="1" stop-color="#352F5C"/>
</linearGradient>
<linearGradient id="paint4_linear" x1="51.9876" y1="378.162" x2="51.9876" y2="400.149" gradientUnits="userSpaceOnUse">
<stop stop-color="#8AD6E2"/>
<stop offset="1" stop-color="#67A4AE"/>
</linearGradient>
<linearGradient id="paint5_linear" x1="35.7764" y1="390.833" x2="35.7764" y2="399.777" gradientUnits="userSpaceOnUse">
<stop stop-color="#80C6D1"/>
<stop offset="1" stop-color="#67A4AE"/>
</linearGradient>
<linearGradient id="paint6_linear" x1="21.2422" y1="380.025" x2="21.2422" y2="400.522" gradientUnits="userSpaceOnUse">
<stop stop-color="#80C6D1"/>
<stop offset="1" stop-color="#67A4AE"/>
</linearGradient>
<linearGradient id="paint7_linear" x1="5.89755" y1="387.537" x2="5.89755" y2="400.208" gradientUnits="userSpaceOnUse">
<stop stop-color="#67A4AE"/>
<stop offset="0.0001" stop-color="#80C6D1"/>
<stop offset="1" stop-color="#67A4AE"/>
</linearGradient>
<linearGradient id="paint8_linear" x1="241.012" y1="378.162" x2="241.012" y2="400.149" gradientUnits="userSpaceOnUse">
<stop stop-color="#8AD6E2"/>
<stop offset="1" stop-color="#67A4AE"/>
</linearGradient>
<linearGradient id="paint9_linear" x1="257.224" y1="390.833" x2="257.224" y2="399.777" gradientUnits="userSpaceOnUse">
<stop stop-color="#80C6D1"/>
<stop offset="1" stop-color="#67A4AE"/>
</linearGradient>
<linearGradient id="paint10_linear" x1="271.758" y1="380.025" x2="271.758" y2="400.522" gradientUnits="userSpaceOnUse">
<stop stop-color="#80C6D1"/>
<stop offset="1" stop-color="#67A4AE"/>
</linearGradient>
<linearGradient id="paint11_linear" x1="287.102" y1="387.537" x2="287.102" y2="400.208" gradientUnits="userSpaceOnUse">
<stop stop-color="#67A4AE"/>
<stop offset="0.0001" stop-color="#80C6D1"/>
<stop offset="1" stop-color="#67A4AE"/>
</linearGradient>
</defs>
</svg>
