<svg width="508" height="600" viewBox="0 0 508 600" fill="none" xmlns="http://www.w3.org/2000/svg">
<rect x="9" width="480" height="600" fill="url(#paint0_radial)"/>
<path d="M428 0V47.9172C425.75 77.8655 411.461 105.53 342.275 92.8396C285.127 82.3577 261.809 20.9638 276.098 0H428Z" fill="#47559F"/>
<path d="M184 1V14.4972C180.234 54.2389 142.889 92.8016 80.0519 84.9825C19.7922 77.484 10 36.9925 10 1H184Z" fill="#47559F"/>
<path d="M420 0H363L370.5 599H420V0Z" fill="#776CF2"/>
<path d="M487.987 346.423L81.9438 1H125.5L487.987 300V346.423Z" fill="#9CE7FF" fill-opacity="0.14"/>
<path d="M487.991 227.423L238.444 0.5H282L487.991 181V227.423Z" fill="#9CE7FF" fill-opacity="0.14"/>
<path d="M137 0H88L66 599H130L137 0Z" fill="#776CF2"/>
<path d="M489 450.75L9 35.5V4L489 383V450.75Z" fill="#9CE7FF" fill-opacity="0.14"/>
<path d="M174.394 599L9 279.282V232L241 599H174.394Z" fill="#9CE7FF" fill-opacity="0.14"/>
<path d="M189.096 599H140L155.862 0H211L189.096 599Z" fill="#3B40B0"/>
<path d="M52 599H9V0H75L52 599Z" fill="#5D418A"/>
<path d="M489 599H429L440.4 0H489V599Z" fill="#3B40B0"/>
<path fill-rule="evenodd" clip-rule="evenodd" d="M403.343 598.568H161.369C175.103 532.393 198.826 385.086 198.826 319.136C198.826 273.544 190.573 218.048 180.146 162.176L9.5 50.9744V28.5L114.921 98.8873L170.564 113.155C168.156 101.249 165.731 89.4562 163.347 77.8706C157.679 50.3127 152.252 23.9287 147.884 0H205.381H262.878H320.375H350.153L350.052 1.02212C346.875 33.0589 343.706 65.0106 341.339 97.671L365.885 80.9078L410.085 0.749146H431.061L386.112 101.884L337.83 167.207C336.861 205.399 337.598 245.18 341.164 287.672C346.482 351.048 382.616 523.404 403.343 598.568Z" fill="url(#paint1_linear)"/>
<path d="M428 67V260" stroke="#4D513E" stroke-width="2"/>
<path d="M212 40C212 130.877 180.532 171.912 115.348 169.932C41.173 167.679 21.6925 79.8057 25.4377 40" stroke="#4D563B" stroke-width="2"/>
<path d="M264.456 36C259.227 84.1468 299.566 118 352.604 118C405.642 118 425.097 72.4538 422.823 48.0367" stroke="#4D563B" stroke-width="2"/>
<path d="M186 26.5C186 51.3471 154 100 118 100C75.25 100 46.0003 68.3765 46 36" stroke="#4D563B" stroke-width="2"/>
<ellipse cx="278.5" cy="378" rx="67.5" ry="67" fill="url(#paint2_radial)"/>
<path d="M313.356 227.303L265.675 201.97C264.936 201.577 264.029 201.688 263.404 202.248L221.232 239.971C220.806 240.352 220.562 240.896 220.562 241.467L220.562 289.241C220.562 289.984 220.974 290.665 221.632 291.009L275.215 319.043C275.955 319.43 276.859 319.315 277.48 318.754L319.534 280.823C320.015 280.389 320.257 279.748 320.183 279.105L314.401 228.838C314.326 228.185 313.936 227.611 313.356 227.303Z" fill="#2F1E3A"/>
<path d="M489 73.9062V0H331C331 61.8611 422.79 96.8909 489 73.9062Z" fill="#43606C"/>
<path d="M9 37.3171V0H205C205 46.6464 62.687 82.2673 9 37.3171Z" fill="#43606C"/>
<path d="M168 0H355C355 18.7538 323.966 53 261.898 53C199.83 53 168 20.3846 168 0Z" fill="#43606C"/>
<path d="M248.382 386.686L263.459 342.08C263.936 340.668 265.735 340.255 266.78 341.318L301.126 376.242C301.661 376.786 301.84 377.586 301.588 378.306L285.609 423.878C285.111 425.297 283.284 425.68 282.259 424.579L248.814 388.69C248.312 388.152 248.147 387.383 248.382 386.686Z" fill="#D9E6E8"/>
<path d="M352.86 417.564L351.013 423.318L344.71 423.318L344.092 415.56L346.647 412.454L352.236 413.509L352.86 417.564Z" fill="#1C0E4C"/>
<path d="M372.446 416.948L373.266 423.104L379.28 424.216L381.437 416.739L379.555 413.184L373.868 413.101L372.446 416.948Z" fill="#1C0E4C"/>
<path d="M344.537 422.764L311.44 599.04H451.022L378.353 422.764H344.537Z" fill="#1C0E4C"/>
<path d="M355.689 432.117H352.451L348.134 441.111H355.689V432.117Z" fill="#1A2E75"/>
<path d="M313.598 493.994L338.781 458.379V509.463L331.945 528.89L304.964 532.847L284.818 509.463L313.598 493.994Z" fill="#1C0E4C"/>
<path d="M374.036 492.555V463.775L383.389 497.591L346.695 506.225L357.487 527.091H346.695L338.061 502.628L374.036 492.555Z" fill="#1A2E75"/>
<circle cx="360.725" cy="431.038" r="1.07925" fill="#00F3F3"/>
<circle cx="349.214" cy="431.038" r="1.07925" fill="#00F3F3"/>
<path d="M258.197 558.029L324.031 537.523L334.824 599.04H278.343L258.197 558.029Z" fill="#1C0E4C"/>
<path d="M362.165 599.041H351.732L341.299 562.346L372.597 544.359L348.135 564.145L362.165 599.041Z" fill="#1A2E75"/>
<path fill-rule="evenodd" clip-rule="evenodd" d="M274.075 507.271C271.597 500.479 264.607 495.072 255.641 496.838C245.369 498.862 230.539 501.253 213.709 501.265C209.744 506.01 205.068 512.239 203.467 517.532C202.662 520.194 202.652 522.561 203.831 524.381C205.01 526.202 207.431 527.558 211.679 528.075C221.899 529.318 231.972 530.145 241.177 529.973C250.385 529.801 258.706 528.628 265.433 525.883C269.991 524.022 272.761 521.058 274.09 517.727C275.42 514.392 275.314 510.665 274.075 507.271ZM274.603 517.932C273.214 521.415 270.326 524.482 265.641 526.394C258.826 529.176 250.427 530.353 241.187 530.526C231.945 530.699 221.843 529.868 211.612 528.623C207.292 528.098 204.676 526.701 203.367 524.682C202.06 522.663 202.112 520.102 202.938 517.372C204.587 511.92 209.391 505.561 213.368 500.811L213.451 500.712H213.58C230.413 500.712 245.253 498.321 255.534 496.296C264.809 494.469 272.037 500.075 274.595 507.081C275.874 510.586 275.991 514.454 274.603 517.932Z" fill="#111111"/>
<path d="M205.11 424.092C203.728 415.524 220.034 419.394 218.652 433.765C217.547 439.292 205.11 430.172 205.11 424.092Z" fill="#9A6721"/>
<path d="M207.101 425.137C206.154 419.475 217.331 422.032 216.384 431.529C215.626 435.182 207.101 429.155 207.101 425.137Z" fill="#FBAB7E"/>
<path d="M194.885 424.368C188.805 408.615 170.841 426.856 184.107 433.488C189.081 435.423 196.544 429.619 194.885 424.368Z" fill="#9A6721"/>
<path d="M191.972 424.996C188.14 415.04 176.818 426.568 185.179 430.76C188.314 431.983 193.017 428.315 191.972 424.996Z" fill="#FBAB7E"/>
<path fill-rule="evenodd" clip-rule="evenodd" d="M83.5518 599.033L257.896 599.033C263.424 575.265 247.714 553.635 233.852 534.639C232.703 533.064 231.608 531.537 230.567 530.056C243.966 530.73 256.247 529.93 265.537 526.139C284.024 518.593 273.828 492.974 255.588 496.567C252.635 497.149 249.305 497.761 245.659 498.338C242.984 488.078 231.053 480.837 213.576 487.796C214.13 485.107 215.182 482.629 216.607 480.194C233.723 450.959 225.178 440.638 217.517 431.384L217.517 431.383C217.211 431.014 216.908 430.647 216.607 430.281C208.758 420.717 188.076 422.61 185.331 430.281C183.325 435.886 180.628 440.305 177.004 446.24C175.669 448.428 174.208 450.822 172.609 453.557C163.931 466.929 135.189 505.344 104.491 528.676C77.3496 550.47 79.2227 584.662 83.5518 599.033Z" fill="url(#paint3_linear)"/>
<path fill-rule="evenodd" clip-rule="evenodd" d="M136.181 502.693C139.251 495.933 144.336 488.576 151.371 481.111L151.774 481.49C144.769 488.922 139.723 496.23 136.684 502.921C133.644 509.616 132.621 515.673 133.632 520.617C134.64 525.547 137.674 529.4 142.82 531.701C147.978 534.008 155.271 534.76 164.779 533.434C170.37 532.654 175.639 532.383 181.173 532.098C193.543 531.462 207.235 530.757 228.797 524.15C241.655 520.209 247.03 509.079 245.464 499.779C244.682 495.13 242.165 490.94 237.981 488.317C233.798 485.695 227.916 484.622 220.37 486.269C199.537 490.814 181.336 497.998 171.753 501.78C170.114 502.427 168.727 502.974 167.622 503.392L167.427 502.875C168.527 502.459 169.909 501.914 171.544 501.268C181.122 497.488 199.37 490.285 220.252 485.729C227.906 484.059 233.943 485.134 238.275 487.849C242.606 490.564 245.203 494.899 246.009 499.688C247.622 509.263 242.08 520.657 228.959 524.678C207.332 531.306 193.527 532.017 181.13 532.657C175.615 532.941 170.378 533.211 164.855 533.981C155.291 535.315 147.882 534.571 142.594 532.206C137.293 529.835 134.136 525.84 133.091 520.728C132.048 515.629 133.112 509.449 136.181 502.693Z" fill="black"/>
<path fill-rule="evenodd" clip-rule="evenodd" d="M190.847 534.339C177.038 532.736 146.781 531.422 119.883 552.389L119.543 551.953C146.615 530.85 177.055 532.181 190.91 533.79C201.337 535.001 209.951 542.196 213.656 551.57C217.366 560.954 216.155 572.516 206.955 582.446L206.549 582.071C215.604 572.297 216.774 560.961 213.142 551.773C209.506 542.575 201.056 535.525 190.847 534.339ZM176.51 572.615C171.033 577.416 155.957 589.462 139.431 599.271L139.149 598.795C155.64 589.007 170.688 576.983 176.146 572.199L176.51 572.615Z" fill="black"/>
<path fill-rule="evenodd" clip-rule="evenodd" d="M207.994 581.913C204.683 583.279 201.276 584.686 197.748 586.031L197.551 585.514C201.045 584.182 204.436 582.783 207.74 581.419C213.945 578.858 219.844 576.424 225.547 574.799C234.308 572.303 242.677 571.693 251.121 575.442C253.951 576.699 255.864 578.373 257.122 580.296C258.377 582.218 258.968 584.372 259.181 586.575C259.394 588.776 259.231 591.034 258.973 593.17C258.855 594.145 258.719 595.084 258.59 595.981C258.432 597.071 258.283 598.1 258.186 599.061L257.636 599.005C257.733 598.046 257.886 596.988 258.046 595.879C258.176 594.978 258.311 594.044 258.424 593.103C258.681 590.982 258.838 588.77 258.631 586.628C258.424 584.488 257.853 582.426 256.659 580.599C255.466 578.774 253.641 577.166 250.896 575.947C242.616 572.27 234.392 572.854 225.699 575.33C220.023 576.947 214.177 579.361 207.994 581.913Z" fill="black"/>
<path fill-rule="evenodd" clip-rule="evenodd" d="M172.013 501.019C173.655 499.103 176.13 495.255 178.623 491.376L179.088 491.675L179.073 491.698C176.596 495.551 174.103 499.43 172.432 501.379L172.013 501.019Z" fill="black"/>
<path fill-rule="evenodd" clip-rule="evenodd" d="M188.817 417.943C191.274 418.366 193.6 420.271 195.143 424.269L194.627 424.468C193.13 420.589 190.931 418.867 188.724 418.487C186.501 418.105 184.185 419.066 182.432 420.734C180.68 422.402 179.533 424.739 179.616 427.04C179.698 429.321 180.99 431.621 184.23 433.241L183.983 433.736C180.59 432.039 179.154 429.573 179.063 427.06C178.973 424.568 180.21 422.086 182.051 420.334C183.891 418.582 186.376 417.522 188.817 417.943Z" fill="black"/>
<path fill-rule="evenodd" clip-rule="evenodd" d="M206.822 419.725C205.369 420.516 204.551 422.182 204.836 424.676L205.385 424.613C205.117 422.271 205.888 420.863 207.086 420.211C208.309 419.546 210.068 419.615 211.87 420.44C215.456 422.082 219.057 426.666 218.377 433.738L218.927 433.791C219.629 426.492 215.907 421.68 212.1 419.937C210.205 419.069 208.251 418.948 206.822 419.725Z" fill="black"/>
<path d="M218.652 443.714L225.285 441.779C225.285 441.779 223.765 437.634 221.139 434.317C218.514 431.001 212.848 426.855 212.848 426.855L218.652 443.714Z" fill="#C68731"/>
<path d="M208.15 433.212C208.15 434.128 207.408 434.87 206.492 434.87C205.576 434.87 204.833 434.128 204.833 433.212C204.833 432.296 205.576 431.554 206.492 431.554C207.408 431.554 208.15 432.296 208.15 433.212Z" fill="#111111"/>
<path fill-rule="evenodd" clip-rule="evenodd" d="M165.257 464.609C152.822 481.005 130.102 508.761 112.971 521.87C97.1134 534.004 88.3107 546.328 84.2899 559.043C80.2685 571.761 81.0202 584.903 84.3298 598.693L83.7923 598.822C80.4691 584.975 79.7006 571.723 83.7629 558.877C87.8259 546.028 96.7108 533.616 112.635 521.431C129.699 508.374 152.379 480.675 164.817 464.275L165.257 464.609Z" fill="black"/>
<path fill-rule="evenodd" clip-rule="evenodd" d="M206.688 535.618C205.765 538.185 206.33 541.204 209.454 544.395L209.059 544.782C205.826 541.478 205.156 538.244 206.168 535.431C207.171 532.645 209.797 530.347 212.997 528.828C216.203 527.306 220.028 526.543 223.495 526.863C226.961 527.183 230.106 528.592 231.877 531.453C232.836 533.002 234.322 535.117 236.122 537.679C236.728 538.542 237.37 539.456 238.039 540.415C240.691 544.218 243.764 548.732 246.729 553.643C252.654 563.458 258.167 574.899 259.002 585.469L258.451 585.512C257.627 575.078 252.172 563.73 246.256 553.929C243.301 549.033 240.235 544.531 237.586 540.732C236.922 539.78 236.283 538.871 235.679 538.011C233.875 535.443 232.375 533.308 231.407 531.744C229.757 529.079 226.803 527.724 223.444 527.414C220.086 527.103 216.359 527.843 213.234 529.327C210.104 530.813 207.622 533.023 206.688 535.618Z" fill="black"/>
<path fill-rule="evenodd" clip-rule="evenodd" d="M212.869 575.293C212.68 574.874 212.435 574.565 212.154 574.397L212.438 573.923C212.848 574.169 213.156 574.586 213.373 575.065C213.591 575.547 213.726 576.113 213.78 576.69C213.887 577.83 213.681 579.089 213.065 579.86L212.633 579.515C213.122 578.903 213.33 577.813 213.23 576.742C213.18 576.214 213.057 575.709 212.869 575.293Z" fill="black"/>
<path d="M224.731 441.78L218.099 443.714L224.731 448.689C226.113 448.689 227.606 448.247 226.942 445.373C226.279 442.498 225.192 441.78 224.731 441.78Z" fill="black"/>
<path fill-rule="evenodd" clip-rule="evenodd" d="M216.944 456.683C215.486 456.157 213.806 455.21 211.864 453.892L212.175 453.435C214.102 454.742 215.738 455.66 217.131 456.163C218.524 456.665 219.644 456.741 220.562 456.409C221.475 456.078 222.242 455.323 222.888 454.044C223.535 452.762 224.048 450.979 224.46 448.641L225.005 448.737C224.201 453.293 224.141 456.217 224.468 457.68C224.549 458.043 224.65 458.297 224.756 458.459C224.86 458.62 224.952 458.666 225.015 458.676C225.081 458.686 225.188 458.668 225.346 458.549C225.504 458.43 225.686 458.229 225.884 457.932L226.344 458.238C226.128 458.563 225.905 458.82 225.679 458.99C225.453 459.16 225.197 459.264 224.93 459.222C224.66 459.18 224.449 459.001 224.292 458.761C224.137 458.521 224.017 458.197 223.928 457.8C223.713 456.836 223.659 455.333 223.833 453.268C223.691 453.637 223.54 453.978 223.381 454.293C222.697 455.648 221.84 456.534 220.75 456.929C219.664 457.322 218.4 457.208 216.944 456.683Z" fill="black"/>
<path d="M323.746 511.645C337.997 519.188 356.75 545.587 364.25 540.307C371.749 535.028 375.498 497.314 349.997 499.577C324.496 501.84 317.746 559.918 234.489 522.205C209.736 510.136 204.701 488.528 217.987 486" stroke="#FFD12D"/>
<path d="M244.826 511.335C295.903 517.31 328.999 481.891 333.46 450.838C335.714 435.153 327.451 417.228 311.677 412" stroke="#FFD12D"/>
<path d="M248.386 424C236.435 436.034 237.524 459.287 248.386 475.145C263.325 496.957 304.904 501.47 323.826 512" stroke="#FFD12D"/>
<path d="M400.5 599L9 138.964V103L489 514.335V599H400.5Z" fill="#9CE7FF" fill-opacity="0.14"/>
<path d="M8.27953 584.926L1 600H87V556.956L67.1773 594.138L69.3937 532L40.7835 594.138L50.0945 535.015L30.2874 594.138L36.7205 539.034L18.9449 594.138L20.1299 555.783L8.27953 596.818V584.926Z" fill="#4D563B"/>
<path d="M500.563 584.926L507.842 600H421.842V556.956L441.665 594.138L439.449 532L468.059 594.138L458.748 535.015L478.555 594.138L472.122 539.034L489.897 594.138L488.712 555.783L500.563 596.818V584.926Z" fill="#4D563B"/>
<path d="M53.058 599.038H67.7964C59.3745 592.301 56.8479 584.721 56.8479 574.194H49.6893C53.058 583.458 50.9526 590.195 53.058 599.038Z" fill="url(#paint4_linear)"/>
<path d="M38.3196 574.194C41.1269 568.86 44.2149 558.192 52.6368 558.192C61.0588 558.192 64.5679 568.86 66.9541 574.194H38.3196Z" fill="#67A4AE"/>
<path d="M34.1087 588.512H45.8994C45.1976 586.827 43.036 583.458 40.0041 583.458C36.9722 583.458 34.8106 586.827 34.1087 588.512Z" fill="#67A4AE"/>
<path d="M37.0559 598.618H43.7935L41.688 588.511H38.7403L37.0559 598.618Z" fill="url(#paint5_linear)"/>
<path d="M17.686 599.46H30.3188C30.3188 599.46 29.3147 595.249 27.3712 588.933C25.4277 582.616 25.2657 576.3 25.2657 576.3H20.6336C20.6336 576.3 23.1602 584.722 21.0547 589.775C18.9493 594.828 17.686 599.46 17.686 599.46Z" fill="url(#paint6_linear)"/>
<path d="M2.10554 599.105H10.5275C12.5487 595.399 9.68526 588.016 8.00088 584.788H4.63212C4.49175 585.489 4.04258 587.819 3.36883 591.525C2.69508 595.231 2.24591 598.122 2.10554 599.105Z" fill="url(#paint7_linear)"/>
<path d="M0.000139236 584.788H12.2119C11.2294 582.402 8.50627 577.798 5.47438 578.471C2.44249 579.145 0.561601 582.963 0.000139236 584.788Z" fill="#67A4AE"/>
<path d="M13.0537 576.3H32.8452C30.8801 573.492 29.0554 568.299 23.16 568.299C17.2647 568.299 14.317 573.773 13.0537 576.3Z" fill="#67A4AE"/>
<path d="M70.2657 588.408H64.4067C64.4067 586.455 64.9926 582.633 67.3362 582.967C69.6798 583.302 70.2657 586.734 70.2657 588.408Z" fill="#67A4AE"/>
<path d="M79.4722 587.591H73.6133C73.6133 585.638 74.1992 581.816 76.5428 582.151C78.8863 582.486 79.4722 585.917 79.4722 587.591Z" fill="#67A4AE"/>
<path d="M86.1685 585.08H80.3096C80.3096 583.127 80.8955 579.305 83.239 579.64C85.5826 579.975 86.1685 583.406 86.1685 585.08Z" fill="#67A4AE"/>
<path d="M89.5165 589.663H85.3315C85.3315 588.167 85.75 585.238 87.424 585.494C89.098 585.751 89.5165 588.381 89.5165 589.663Z" fill="#67A4AE"/>
<path d="M74.4503 581.733H68.5913C68.5913 579.78 69.1772 575.957 71.5208 576.292C73.8644 576.627 74.4503 580.059 74.4503 581.733Z" fill="#67A4AE"/>
<path fill-rule="evenodd" clip-rule="evenodd" d="M67.5803 590.484C67.1138 589.659 66.7979 588.8 66.9222 587.93L67.7508 588.049C67.6658 588.643 67.8731 589.301 68.3089 590.072C68.6844 590.736 69.1972 591.43 69.7568 592.187C69.846 592.308 69.9365 592.43 70.0277 592.554C71.3261 594.32 72.777 596.413 72.777 598.87H71.94C71.94 596.724 70.6706 594.841 69.3534 593.05C69.2649 592.93 69.1761 592.81 69.0876 592.69C68.531 591.937 67.9832 591.196 67.5803 590.484Z" fill="#67A4AE"/>
<path fill-rule="evenodd" clip-rule="evenodd" d="M72.4288 591.512C71.6366 588.924 70.8905 585.943 71.1031 581.691L71.9391 581.733C71.7332 585.851 72.4518 588.728 73.2291 591.267C73.3398 591.629 73.4524 591.985 73.564 592.339C74.2335 594.458 74.8692 596.471 74.8693 598.87L74.0323 598.87C74.0322 596.61 73.4397 594.73 72.7707 592.607C72.658 592.25 72.5433 591.886 72.4288 591.512Z" fill="#67A4AE"/>
<path fill-rule="evenodd" clip-rule="evenodd" d="M76.125 598.87V587.571H76.962V598.87H76.125Z" fill="#67A4AE"/>
<path fill-rule="evenodd" clip-rule="evenodd" d="M82.0682 589.293C82.5153 588.224 82.8203 586.894 82.8203 585.06L83.6573 585.06C83.6573 586.993 83.3347 588.435 82.8402 589.616C82.3477 590.793 81.6918 591.691 81.0627 592.53C81.0275 592.577 80.9925 592.624 80.9576 592.67C80.3625 593.462 79.8054 594.204 79.3815 595.122C78.9376 596.084 78.6354 597.253 78.6353 598.87L77.7983 598.87C77.7984 597.139 78.1239 595.85 78.6216 594.772C79.084 593.77 79.6912 592.962 80.2773 592.182C80.316 592.131 80.3546 592.079 80.3931 592.028C81.0195 591.193 81.6191 590.365 82.0682 589.293Z" fill="#67A4AE"/>
<path fill-rule="evenodd" clip-rule="evenodd" d="M85.7435 592.018C86.356 591.251 86.6771 590.496 86.5897 589.71L87.4215 589.617C87.5434 590.714 87.0797 591.686 86.3976 592.54C85.7176 593.392 84.7807 594.176 83.8667 594.908C83.7097 595.033 83.5535 595.157 83.3991 595.28C82.639 595.883 81.9221 596.452 81.3589 597.02C80.672 597.713 80.3096 598.315 80.3096 598.87H79.4727C79.4727 597.961 80.0519 597.15 80.7643 596.431C81.3662 595.824 82.1315 595.217 82.8915 594.614C83.0429 594.494 83.1942 594.374 83.3439 594.254C84.2608 593.52 85.1287 592.788 85.7435 592.018Z" fill="#67A4AE"/>
<path d="M416.859 588.408H411C411 586.455 411.586 582.633 413.929 582.967C416.273 583.302 416.859 586.734 416.859 588.408Z" fill="#67A4AE"/>
<path d="M426.065 587.591H420.207C420.207 585.638 420.792 581.816 423.136 582.151C425.48 582.486 426.065 585.917 426.065 587.591Z" fill="#67A4AE"/>
<path d="M432.762 585.08H426.903C426.903 583.127 427.489 579.305 429.832 579.64C432.176 579.975 432.762 583.406 432.762 585.08Z" fill="#67A4AE"/>
<path d="M436.11 589.663H431.925C431.925 588.167 432.343 585.238 434.017 585.494C435.691 585.751 436.11 588.381 436.11 589.663Z" fill="#67A4AE"/>
<path d="M421.044 581.733H415.185C415.185 579.78 415.77 575.957 418.114 576.292C420.458 576.627 421.044 580.059 421.044 581.733Z" fill="#67A4AE"/>
<path fill-rule="evenodd" clip-rule="evenodd" d="M414.174 590.484C413.707 589.659 413.391 588.8 413.515 587.93L414.344 588.049C414.259 588.643 414.466 589.301 414.902 590.072C415.278 590.736 415.79 591.43 416.35 592.187C416.439 592.308 416.53 592.43 416.621 592.554C417.919 594.32 419.37 596.413 419.37 598.87H418.533C418.533 596.724 417.264 594.841 415.947 593.05C415.858 592.93 415.769 592.81 415.681 592.69C415.124 591.937 414.576 591.196 414.174 590.484Z" fill="#67A4AE"/>
<path fill-rule="evenodd" clip-rule="evenodd" d="M419.022 591.512C418.23 588.924 417.484 585.943 417.696 581.691L418.532 581.733C418.326 585.851 419.045 588.728 419.822 591.267C419.933 591.629 420.046 591.985 420.157 592.339C420.827 594.458 421.462 596.471 421.463 598.87L420.626 598.87C420.625 596.61 420.033 594.73 419.364 592.607C419.251 592.25 419.137 591.886 419.022 591.512Z" fill="#67A4AE"/>
<path fill-rule="evenodd" clip-rule="evenodd" d="M422.718 598.87V587.571H423.555V598.87H422.718Z" fill="#67A4AE"/>
<path fill-rule="evenodd" clip-rule="evenodd" d="M428.661 589.293C429.109 588.224 429.414 586.894 429.414 585.06L430.251 585.06C430.251 586.993 429.928 588.435 429.433 589.616C428.941 590.793 428.285 591.691 427.656 592.53C427.621 592.577 427.586 592.624 427.551 592.67C426.956 593.462 426.399 594.204 425.975 595.122C425.531 596.084 425.229 597.253 425.229 598.87L424.392 598.87C424.392 597.139 424.717 595.85 425.215 594.772C425.677 593.77 426.284 592.962 426.871 592.182C426.909 592.131 426.948 592.079 426.986 592.028C427.613 591.193 428.212 590.365 428.661 589.293Z" fill="#67A4AE"/>
<path fill-rule="evenodd" clip-rule="evenodd" d="M432.337 592.018C432.949 591.251 433.27 590.496 433.183 589.71L434.015 589.617C434.137 590.714 433.673 591.686 432.991 592.54C432.311 593.392 431.374 594.176 430.46 594.908C430.303 595.033 430.147 595.157 429.992 595.28C429.232 595.883 428.515 596.452 427.952 597.02C427.265 597.713 426.903 598.315 426.903 598.87H426.066C426.066 597.961 426.645 597.15 427.358 596.431C427.959 595.824 428.725 595.217 429.485 594.614C429.636 594.494 429.787 594.374 429.937 594.254C430.854 593.52 431.722 592.788 432.337 592.018Z" fill="#67A4AE"/>
<path d="M452.856 599.038H438.118C446.54 592.301 449.066 584.721 449.066 574.194H456.225C452.856 583.458 454.962 590.195 452.856 599.038Z" fill="url(#paint8_linear)"/>
<path d="M467.594 574.194C464.787 568.86 461.699 558.192 453.277 558.192C444.855 558.192 441.346 568.86 438.96 574.194H467.594Z" fill="#67A4AE"/>
<path d="M471.805 588.512H460.015C460.716 586.827 462.878 583.458 465.91 583.458C468.942 583.458 471.104 586.827 471.805 588.512Z" fill="#67A4AE"/>
<path d="M468.858 598.618H462.121L464.226 588.511H467.174L468.858 598.618Z" fill="url(#paint9_linear)"/>
<path d="M488.228 599.46H475.595C475.595 599.46 476.599 595.249 478.543 588.933C480.486 582.616 480.648 576.3 480.648 576.3H485.28C485.28 576.3 482.754 584.722 484.859 589.775C486.965 594.828 488.228 599.46 488.228 599.46Z" fill="url(#paint10_linear)"/>
<path d="M503.809 599.105H495.387C493.365 595.399 496.229 588.016 497.913 584.788H501.282C501.422 585.489 501.871 587.819 502.545 591.525C503.219 595.231 503.668 598.122 503.809 599.105Z" fill="url(#paint11_linear)"/>
<path d="M505.914 584.788H493.702C494.685 582.402 497.408 577.798 500.44 578.471C503.472 579.145 505.352 582.963 505.914 584.788Z" fill="#67A4AE"/>
<path d="M492.86 576.3H473.069C475.034 573.492 476.859 568.299 482.754 568.299C488.649 568.299 491.597 573.773 492.86 576.3Z" fill="#67A4AE"/>
<defs>
<radialGradient id="paint0_radial" cx="0" cy="0" r="1" gradientUnits="userSpaceOnUse" gradientTransform="translate(249) rotate(90) scale(245)">
<stop stop-color="#256C76"/>
<stop offset="1" stop-color="#1F3367"/>
</radialGradient>
<linearGradient id="paint1_linear" x1="267.213" y1="0.74821" x2="267.213" y2="598.568" gradientUnits="userSpaceOnUse">
<stop stop-color="#5B3157"/>
<stop offset="1" stop-color="#36305D"/>
</linearGradient>
<radialGradient id="paint2_radial" cx="0" cy="0" r="1" gradientUnits="userSpaceOnUse" gradientTransform="translate(278.5 378) rotate(90) scale(67 67.5)">
<stop stop-color="#43606C" stop-opacity="0.65"/>
<stop offset="1" stop-color="#43606C" stop-opacity="0"/>
</radialGradient>
<linearGradient id="paint3_linear" x1="178.172" y1="423.799" x2="178.172" y2="599.033" gradientUnits="userSpaceOnUse">
<stop stop-color="#9A6721"/>
<stop offset="1" stop-color="#6F134F"/>
</linearGradient>
<linearGradient id="paint4_linear" x1="58.7428" y1="574.194" x2="58.7428" y2="599.038" gradientUnits="userSpaceOnUse">
<stop stop-color="#8AD6E2"/>
<stop offset="1" stop-color="#67A4AE"/>
</linearGradient>
<linearGradient id="paint5_linear" x1="40.4247" y1="588.511" x2="40.4247" y2="598.618" gradientUnits="userSpaceOnUse">
<stop stop-color="#80C6D1"/>
<stop offset="1" stop-color="#67A4AE"/>
</linearGradient>
<linearGradient id="paint6_linear" x1="24.0024" y1="576.3" x2="24.0024" y2="599.46" gradientUnits="userSpaceOnUse">
<stop stop-color="#80C6D1"/>
<stop offset="1" stop-color="#67A4AE"/>
</linearGradient>
<linearGradient id="paint7_linear" x1="6.6641" y1="584.788" x2="6.6641" y2="599.105" gradientUnits="userSpaceOnUse">
<stop stop-color="#67A4AE"/>
<stop offset="0.0001" stop-color="#80C6D1"/>
<stop offset="1" stop-color="#67A4AE"/>
</linearGradient>
<linearGradient id="paint8_linear" x1="447.171" y1="574.194" x2="447.171" y2="599.038" gradientUnits="userSpaceOnUse">
<stop stop-color="#8AD6E2"/>
<stop offset="1" stop-color="#67A4AE"/>
</linearGradient>
<linearGradient id="paint9_linear" x1="465.489" y1="588.511" x2="465.489" y2="598.618" gradientUnits="userSpaceOnUse">
<stop stop-color="#80C6D1"/>
<stop offset="1" stop-color="#67A4AE"/>
</linearGradient>
<linearGradient id="paint10_linear" x1="481.912" y1="576.3" x2="481.912" y2="599.46" gradientUnits="userSpaceOnUse">
<stop stop-color="#80C6D1"/>
<stop offset="1" stop-color="#67A4AE"/>
</linearGradient>
<linearGradient id="paint11_linear" x1="499.25" y1="584.788" x2="499.25" y2="599.105" gradientUnits="userSpaceOnUse">
<stop stop-color="#67A4AE"/>
<stop offset="0.0001" stop-color="#80C6D1"/>
<stop offset="1" stop-color="#67A4AE"/>
</linearGradient>
</defs>
</svg>
