<svg width="513" height="601" viewBox="0 0 513 601" fill="none" xmlns="http://www.w3.org/2000/svg">
<rect x="10" width="480" height="599.492" fill="#FFD7AC"/>
<path d="M429 0V47.8767C426.75 77.7996 412.461 105.44 343.275 92.761C286.127 82.288 262.809 20.946 277.098 0H429Z" fill="#B56949"/>
<path d="M185 1V14.4858C181.234 54.1938 143.889 92.7239 81.0519 84.9114C20.7922 77.4193 11 36.962 11 1H185Z" fill="#B56949"/>
<path d="M421 0H364L371.5 598.493H421V0Z" fill="#F2946C"/>
<path d="M488.987 346.131L82.9438 1H126.5L488.987 299.747V346.131Z" fill="#FFEF9C" fill-opacity="0.14"/>
<path d="M488.991 227.231L239.444 0.5H283L488.991 180.847V227.231Z" fill="#FFEF9C" fill-opacity="0.14"/>
<path d="M145 0H109L59 598.493H123L145 0Z" fill="#F2946C"/>
<path d="M175.394 598.493L10 279.046V231.804L242 598.493H175.394Z" fill="#FFEF9C" fill-opacity="0.14"/>
<path d="M190.096 598.493H141L156.862 0H212L190.096 598.493Z" fill="#DD756E"/>
<path d="M53 598.493H10V0H76L53 598.493Z" fill="#8A4152"/>
<path d="M490 598.493H430L441.4 0H490V598.493Z" fill="#DD756E"/>
<path d="M490 455.372L10 40.4733V9L490 387.679V455.372Z" fill="#FFEF9C" fill-opacity="0.14"/>
<path fill-rule="evenodd" clip-rule="evenodd" d="M404.343 599.492H162.369C176.103 533.374 199.826 384.76 199.826 318.866C199.826 273.312 191.573 217.863 181.146 162.039L10.5 50.9312V28.4759L115.921 98.8036L171.564 113.059C169.156 101.164 166.731 89.3805 164.347 77.8047C158.679 50.2702 153.252 23.9085 148.884 0H206.381H263.878H321.375H351.153L351.052 1.02187L351.052 1.02236C347.875 33.0319 344.706 64.9564 342.339 97.589L366.885 80.8399L411.085 0.749146H432.061L387.112 101.798L338.83 167.066C337.861 205.226 338.598 244.973 342.164 287.429C347.482 350.751 383.616 524.391 404.343 599.492Z" fill="url(#paint0_linear)"/>
<path d="M429 66.9434V259.78" stroke="#4D513E" stroke-width="2"/>
<path d="M213 39.9663C213 130.766 181.532 171.766 116.348 169.788C42.173 167.537 22.6925 79.7383 26.4377 39.9663" stroke="#4D563B" stroke-width="2"/>
<path d="M265.456 35.9697C260.227 84.0758 300.566 117.9 353.604 117.9C406.642 117.9 426.097 72.3927 423.823 47.9962" stroke="#4D563B" stroke-width="2"/>
<path d="M185 35.9697C185 60.7958 155 99.9156 119 99.9156C76.25 99.9156 47.0003 68.3188 47 35.9697" stroke="#4D563B" stroke-width="2"/>
<ellipse cx="279.5" cy="377.68" rx="67.5" ry="66.9433" fill="url(#paint1_radial)"/>
<path d="M314.355 227.111L266.674 201.799C265.935 201.407 265.03 201.517 264.405 202.076L222.232 239.768C221.806 240.148 221.562 240.693 221.562 241.263L221.562 288.994C221.562 289.738 221.975 290.419 222.633 290.764L276.215 318.773C276.955 319.16 277.858 319.045 278.48 318.484L320.533 280.586C321.015 280.152 321.257 279.511 321.183 278.867L315.401 228.645C315.326 227.992 314.935 227.419 314.355 227.111Z" fill="#2F1E3A"/>
<path d="M490 73.8436V0H332C332 61.8087 423.79 96.8088 490 73.8436Z" fill="#43606C"/>
<path d="M10 37.2855V0H206C206 46.6069 63.687 82.1976 10 37.2855Z" fill="#43606C"/>
<path d="M169 0H356C356 18.738 324.966 52.9551 262.898 52.9551C200.83 52.9551 169 20.3674 169 0Z" fill="#43606C"/>
<path d="M249.383 386.357L264.459 341.79C264.936 340.379 266.734 339.966 267.779 341.028L302.125 375.922C302.661 376.466 302.84 377.267 302.587 377.988L286.609 423.519C286.111 424.937 284.285 425.32 283.259 424.221L249.815 388.362C249.313 387.824 249.147 387.054 249.383 386.357Z" fill="#D9E6E8"/>
<path d="M353.859 418.68L352.014 424.431L345.713 424.43L345.094 416.676L347.647 413.572L353.235 414.628L353.859 418.68Z" fill="#1C0E4C"/>
<path d="M373.446 418.065L374.265 424.216L380.278 425.326L382.436 417.854L380.555 414.302L374.868 414.22L373.446 418.065Z" fill="#1C0E4C"/>
<path d="M345.537 423.873L312.44 600H452.022L379.353 423.873H345.537Z" fill="#1C0E4C"/>
<path d="M356.689 433.218H353.451L349.134 442.204H356.689V433.218Z" fill="#1A2E75"/>
<path d="M314.598 495.042L339.781 459.458V510.499L332.945 529.909L305.964 533.862L285.818 510.499L314.598 495.042Z" fill="#1C0E4C"/>
<path d="M375.036 493.605V464.849L384.389 498.637L347.695 507.264L358.487 528.111H347.695L339.061 503.669L375.036 493.605Z" fill="#1A2E75"/>
<ellipse cx="361.725" cy="432.14" rx="1.07925" ry="1.07833" fill="#00F3F3"/>
<ellipse cx="350.214" cy="432.14" rx="1.07925" ry="1.07833" fill="#00F3F3"/>
<path d="M259.197 559.023L325.031 538.535L335.824 600H279.343L259.197 559.023Z" fill="#1C0E4C"/>
<path d="M363.165 600H352.732L342.299 563.337L373.597 545.365L349.135 565.134L363.165 600Z" fill="#1A2E75"/>
<path fill-rule="evenodd" clip-rule="evenodd" d="M275.075 507.99C272.597 501.204 265.607 495.802 256.641 497.567C246.369 499.588 231.539 501.977 214.709 501.989C210.744 506.73 206.068 512.954 204.467 518.243C203.662 520.903 203.652 523.267 204.831 525.086C206.01 526.905 208.431 528.26 212.679 528.776C222.899 530.018 232.972 530.845 242.177 530.673C251.385 530.501 259.706 529.33 266.433 526.586C270.991 524.727 273.761 521.765 275.09 518.438C276.42 515.105 276.314 511.382 275.075 507.99ZM275.603 518.642C274.214 522.122 271.326 525.187 266.641 527.098C259.826 529.877 251.427 531.053 242.187 531.225C232.945 531.398 222.843 530.568 212.612 529.325C208.292 528.8 205.676 527.404 204.367 525.387C203.06 523.369 203.112 520.81 203.938 518.083C205.587 512.635 210.391 506.282 214.368 501.536L214.451 501.437H214.58C231.413 501.437 246.253 499.048 256.534 497.025C265.809 495.2 273.037 500.801 275.595 507.801C276.874 511.302 276.991 515.167 275.603 518.642Z" fill="#111111"/>
<path d="M206.11 424.882C204.728 416.321 221.034 420.187 219.652 434.546C218.547 440.069 206.11 430.957 206.11 424.882Z" fill="#9A6721"/>
<path d="M208.101 425.926C207.154 420.269 218.331 422.824 217.384 432.313C216.626 435.963 208.101 429.941 208.101 425.926Z" fill="#FBAB7E"/>
<path d="M195.885 425.158C189.805 409.418 171.841 427.643 185.107 434.27C190.081 436.203 197.544 430.405 195.885 425.158Z" fill="#9A6721"/>
<path d="M192.972 425.786C189.14 415.838 177.818 427.356 186.179 431.545C189.314 432.766 194.017 429.101 192.972 425.786Z" fill="#FBAB7E"/>
<path fill-rule="evenodd" clip-rule="evenodd" d="M84.5518 599.675L258.896 599.675C264.424 575.927 248.714 554.315 234.852 535.335C233.703 533.761 232.608 532.236 231.567 530.756C244.966 531.43 257.248 530.631 266.538 526.842C285.024 519.303 274.829 493.706 256.588 497.296C253.635 497.877 250.305 498.488 246.659 499.065C243.984 488.814 232.053 481.579 214.576 488.532C215.13 485.845 216.182 483.369 217.607 480.937C234.723 451.726 226.178 441.413 218.517 432.167L218.517 432.167C218.211 431.798 217.908 431.432 217.607 431.066C209.758 421.51 189.076 423.401 186.331 431.066C184.325 436.666 181.628 441.081 178.004 447.012C176.669 449.197 175.208 451.589 173.609 454.322C164.931 467.682 136.189 506.065 105.491 529.377C78.3496 551.153 80.2227 585.316 84.5518 599.675Z" fill="url(#paint2_linear)"/>
<path fill-rule="evenodd" clip-rule="evenodd" d="M137.181 503.416C140.251 496.662 145.336 489.311 152.371 481.852L152.774 482.231C145.769 489.657 140.723 496.958 137.684 503.644C134.644 510.333 133.621 516.385 134.632 521.325C135.64 526.251 138.674 530.1 143.82 532.4C148.978 534.705 156.271 535.456 165.779 534.131C171.37 533.352 176.639 533.081 182.173 532.796C194.543 532.16 208.235 531.457 229.797 524.854C242.655 520.918 248.03 509.797 246.464 500.505C245.682 495.859 243.165 491.673 238.981 489.053C234.798 486.433 228.916 485.36 221.37 487.006C200.537 491.547 182.336 498.725 172.753 502.504C171.114 503.15 169.727 503.697 168.622 504.114L168.427 503.598C169.527 503.182 170.909 502.637 172.544 501.992C182.122 498.215 200.37 491.018 221.252 486.466C228.906 484.797 234.943 485.872 239.275 488.585C243.606 491.297 246.203 495.629 247.009 500.413C248.622 509.981 243.08 521.365 229.959 525.382C208.332 532.004 194.527 532.716 182.13 533.354C176.615 533.638 171.378 533.908 165.855 534.678C156.291 536.011 148.882 535.267 143.594 532.904C138.293 530.535 135.136 526.543 134.091 521.435C133.048 516.341 134.112 510.166 137.181 503.416Z" fill="black"/>
<path fill-rule="evenodd" clip-rule="evenodd" d="M191.847 535.036C178.038 533.434 147.781 532.121 120.883 553.07L120.543 552.635C147.615 531.55 178.055 532.88 191.91 534.487C202.337 535.697 210.951 542.886 214.656 552.252C218.366 561.628 217.155 573.18 207.955 583.102L207.549 582.727C216.604 572.962 217.774 561.635 214.142 552.455C210.506 543.265 202.056 536.221 191.847 535.036ZM177.51 573.279C172.033 578.076 156.957 590.112 140.431 599.912L140.149 599.437C156.64 589.658 171.688 577.644 177.146 572.863L177.51 573.279Z" fill="black"/>
<path fill-rule="evenodd" clip-rule="evenodd" d="M208.994 582.569C205.683 583.934 202.276 585.339 198.748 586.683L198.551 586.167C202.045 584.836 205.436 583.438 208.74 582.075C214.945 579.517 220.844 577.084 226.547 575.461C235.308 572.967 243.677 572.357 252.121 576.103C254.951 577.359 256.864 579.031 258.122 580.954C259.377 582.874 259.968 585.026 260.181 587.227C260.394 589.426 260.231 591.682 259.973 593.816C259.855 594.79 259.719 595.728 259.59 596.625C259.432 597.714 259.283 598.742 259.186 599.703L258.636 599.647C258.733 598.688 258.886 597.631 259.046 596.523C259.176 595.623 259.311 594.69 259.424 593.75C259.681 591.63 259.838 589.42 259.631 587.28C259.424 585.141 258.853 583.081 257.659 581.256C256.466 579.432 254.641 577.825 251.896 576.608C243.616 572.934 235.392 573.517 226.699 575.992C221.023 577.607 215.177 580.019 208.994 582.569Z" fill="black"/>
<path fill-rule="evenodd" clip-rule="evenodd" d="M173.013 501.744C174.655 499.829 177.13 495.984 179.623 492.109L180.088 492.408L180.073 492.431C177.596 496.28 175.103 500.156 173.432 502.103L173.013 501.744Z" fill="black"/>
<path fill-rule="evenodd" clip-rule="evenodd" d="M189.817 418.737C192.274 419.16 194.6 421.064 196.143 425.058L195.627 425.257C194.13 421.382 191.931 419.661 189.724 419.282C187.501 418.899 185.185 419.859 183.432 421.526C181.68 423.193 180.533 425.528 180.616 427.827C180.698 430.106 181.99 432.405 185.23 434.023L184.983 434.517C181.59 432.822 180.154 430.358 180.063 427.847C179.973 425.357 181.21 422.877 183.051 421.126C184.891 419.376 187.376 418.317 189.817 418.737Z" fill="black"/>
<path fill-rule="evenodd" clip-rule="evenodd" d="M207.822 420.518C206.369 421.308 205.551 422.973 205.836 425.465L206.385 425.402C206.117 423.062 206.888 421.655 208.086 421.003C209.309 420.339 211.068 420.408 212.87 421.232C216.456 422.873 220.057 427.453 219.377 434.52L219.927 434.572C220.629 427.28 216.907 422.472 213.1 420.73C211.205 419.863 209.251 419.742 207.822 420.518Z" fill="black"/>
<path d="M219.652 444.487L226.285 442.554C226.285 442.554 224.765 438.412 222.139 435.099C219.514 431.785 213.848 427.643 213.848 427.643L219.652 444.487Z" fill="#C68731"/>
<path d="M209.15 433.994C209.15 434.909 208.408 435.651 207.492 435.651C206.576 435.651 205.833 434.909 205.833 433.994C205.833 433.079 206.576 432.337 207.492 432.337C208.408 432.337 209.15 433.079 209.15 433.994Z" fill="#111111"/>
<path fill-rule="evenodd" clip-rule="evenodd" d="M166.257 465.364C153.822 481.746 131.102 509.479 113.971 522.576C98.1134 534.701 89.3107 547.014 85.2899 559.718C81.2685 572.425 82.0202 585.556 85.3298 599.334L84.7923 599.463C81.4691 585.628 80.7006 572.388 84.7629 559.552C88.8259 546.714 97.7108 534.313 113.635 522.138C130.699 509.092 153.379 481.416 165.817 465.03L166.257 465.364Z" fill="black"/>
<path fill-rule="evenodd" clip-rule="evenodd" d="M207.688 536.313C206.765 538.878 207.33 541.894 210.454 545.083L210.059 545.469C206.826 542.169 206.156 538.937 207.168 536.126C208.171 533.343 210.797 531.046 213.997 529.528C217.203 528.008 221.028 527.246 224.495 527.566C227.961 527.886 231.106 529.293 232.877 532.152C233.836 533.699 235.322 535.813 237.122 538.373C237.728 539.235 238.37 540.148 239.039 541.107C241.691 544.906 244.764 549.416 247.729 554.323C253.654 564.13 259.167 575.561 260.002 586.122L259.451 586.165C258.627 575.74 253.172 564.402 247.256 554.609C244.301 549.717 241.235 545.219 238.586 541.423C237.922 540.471 237.283 539.563 236.679 538.704C234.875 536.138 233.375 534.005 232.407 532.443C230.757 529.779 227.803 528.426 224.444 528.116C221.086 527.806 217.359 528.545 214.234 530.027C211.104 531.512 208.622 533.72 207.688 536.313Z" fill="black"/>
<path fill-rule="evenodd" clip-rule="evenodd" d="M213.869 575.955C213.68 575.536 213.435 575.228 213.154 575.06L213.438 574.586C213.848 574.832 214.156 575.248 214.373 575.727C214.591 576.209 214.726 576.775 214.78 577.351C214.887 578.49 214.681 579.748 214.065 580.518L213.633 580.173C214.122 579.562 214.33 578.473 214.23 577.403C214.18 576.875 214.057 576.37 213.869 575.955Z" fill="black"/>
<path d="M225.731 442.554L219.099 444.487L225.731 449.458C227.113 449.458 228.606 449.016 227.942 446.144C227.279 443.272 226.192 442.554 225.731 442.554Z" fill="black"/>
<path fill-rule="evenodd" clip-rule="evenodd" d="M217.944 457.445C216.486 456.92 214.806 455.973 212.864 454.657L213.175 454.2C215.102 455.506 216.738 456.423 218.131 456.925C219.524 457.427 220.644 457.503 221.562 457.171C222.475 456.841 223.242 456.086 223.888 454.808C224.535 453.528 225.048 451.746 225.46 449.41L226.005 449.506C225.201 454.058 225.141 456.979 225.468 458.441C225.549 458.804 225.65 459.058 225.756 459.22C225.86 459.381 225.952 459.427 226.015 459.436C226.081 459.447 226.188 459.429 226.346 459.31C226.504 459.191 226.686 458.99 226.884 458.693L227.344 458.999C227.128 459.324 226.905 459.58 226.679 459.751C226.453 459.921 226.197 460.024 225.93 459.982C225.66 459.94 225.449 459.762 225.292 459.521C225.137 459.282 225.017 458.958 224.928 458.561C224.713 457.598 224.659 456.097 224.833 454.034C224.691 454.402 224.54 454.743 224.381 455.057C223.697 456.411 222.84 457.296 221.75 457.691C220.664 458.084 219.4 457.97 217.944 457.445Z" fill="black"/>
<path d="M324.746 511.212C338.997 518.749 357.75 545.126 365.25 539.85C372.749 534.575 376.498 496.894 350.997 499.154C325.496 501.415 318.746 559.444 235.489 521.763C210.736 509.705 205.701 488.114 218.987 485.589" stroke="#FFD12D"/>
<path d="M245.826 510.902C296.903 516.872 329.999 481.484 334.46 450.456C336.714 434.785 328.451 416.875 312.677 411.651" stroke="#FFD12D"/>
<path d="M249.386 423.641C237.435 435.665 238.524 458.898 249.386 474.743C264.325 496.537 305.904 501.046 324.826 511.567" stroke="#FFD12D"/>
<path d="M401.5 598.493L10 138.846V102.913L490 513.9V598.493H401.5Z" fill="#FFEF9C" fill-opacity="0.14"/>
<path fill-rule="evenodd" clip-rule="evenodd" d="M472.917 514.845C472.364 512.758 471.827 510.731 471.326 508.625L473.615 508.081C474.104 510.139 474.634 512.137 475.183 514.206C477.255 522.018 479.593 530.833 480.996 547.667C482.255 562.776 481.774 575.509 481.357 586.564C481.187 591.052 481.028 595.262 481 599.244L478.647 599.227C478.676 595.132 478.838 590.855 479.009 586.328C479.425 575.316 479.898 562.822 478.651 547.863C477.267 531.249 474.983 522.636 472.917 514.845Z" fill="#43606C"/>
<path fill-rule="evenodd" clip-rule="evenodd" d="M490.798 527.602C490.798 527.602 490.798 527.602 491.882 528.059C492.966 528.516 492.966 528.516 492.966 528.516L492.966 528.517L492.964 528.521L492.956 528.542C492.948 528.561 492.936 528.59 492.919 528.63C492.887 528.71 492.838 528.831 492.774 528.993C492.647 529.316 492.46 529.802 492.227 530.442C491.761 531.723 491.107 533.623 490.368 536.082C488.888 541 487.063 548.152 485.692 557.061C485.426 558.79 485.169 560.448 484.921 562.046C482.591 577.065 481.088 586.756 481 599.244L478.647 599.227C478.736 586.558 480.267 576.695 482.592 561.708C482.842 560.102 483.1 558.437 483.367 556.704C484.756 547.672 486.608 540.412 488.114 535.404C488.868 532.899 489.535 530.957 490.016 529.637C490.257 528.977 490.45 528.472 490.585 528.131C490.652 527.96 490.705 527.83 490.741 527.741C490.759 527.697 490.773 527.663 490.783 527.64L490.794 527.613L490.797 527.605L490.798 527.602Z" fill="#43606C"/>
<path fill-rule="evenodd" clip-rule="evenodd" d="M465.545 541.545L466.588 541C467.631 540.455 467.631 540.455 467.631 540.455L467.636 540.466L467.652 540.495C467.665 540.521 467.685 540.559 467.71 540.608C467.762 540.708 467.837 540.854 467.933 541.044C468.126 541.423 468.404 541.976 468.747 542.673C469.432 544.066 470.375 546.037 471.412 548.35C473.479 552.965 475.935 558.987 477.43 564.516C480.411 575.546 481.098 585.274 481 599.243L478.647 599.227C478.744 585.353 478.06 575.866 475.158 565.13C473.712 559.778 471.314 553.887 469.264 549.312C468.242 547.029 467.31 545.084 466.635 543.711C466.298 543.024 466.024 542.481 465.836 542.11C465.741 541.925 465.668 541.783 465.619 541.687C465.595 541.639 465.576 541.603 465.563 541.579L465.55 541.553L465.545 541.545Z" fill="#43606C"/>
<ellipse cx="466.294" cy="541.294" rx="5.29412" ry="5.58824" fill="#FD39A1"/>
<circle cx="466.588" cy="541.294" r="2.64706" fill="#99155B"/>
<ellipse cx="493.059" cy="522.765" rx="7.94118" ry="8.23529" fill="#FD39A1"/>
<circle cx="493.353" cy="522.765" r="4.11765" fill="#99155B"/>
<ellipse cx="471" cy="501.294" rx="10" ry="10.2941" fill="#FD39A1"/>
<circle cx="471.294" cy="501.294" r="5" fill="#99155B"/>
<path fill-rule="evenodd" clip-rule="evenodd" d="M13.9173 514.845C13.3642 512.758 12.8266 510.731 12.3262 508.625L14.6154 508.081C15.1044 510.139 15.6344 512.137 16.183 514.206C18.2551 522.018 20.5933 530.833 21.9961 547.667C23.2552 562.776 22.7743 575.509 22.3567 586.564C22.1872 591.052 22.0282 595.262 22.0002 599.244L19.6473 599.227C19.6761 595.132 19.8379 590.855 20.0091 586.328C20.4255 575.316 20.898 562.822 19.6513 547.863C18.2669 531.249 15.9832 522.636 13.9173 514.845Z" fill="#43606C"/>
<path fill-rule="evenodd" clip-rule="evenodd" d="M31.7983 527.602C31.7984 527.602 31.7985 527.602 32.8824 528.059C33.9663 528.516 33.9663 528.516 33.9664 528.516L33.9661 528.517L33.9643 528.521L33.9557 528.542C33.9478 528.561 33.9357 528.59 33.9194 528.63C33.8869 528.71 33.838 528.831 33.7743 528.993C33.6469 529.316 33.4603 529.802 33.2271 530.442C32.7605 531.723 32.1073 533.623 31.3676 536.082C29.888 541 28.0629 548.152 26.6922 557.061C26.4263 558.79 26.1691 560.448 25.9212 562.046C23.5913 577.065 22.0878 586.756 21.9999 599.244L19.647 599.227C19.7362 586.558 21.2667 576.695 23.5924 561.708C23.8416 560.102 24.1 558.437 24.3666 556.704C25.7561 547.672 27.6076 540.412 29.1144 535.404C29.8679 532.899 30.5354 530.957 31.0162 529.637C31.2566 528.977 31.4504 528.472 31.585 528.131C31.6523 527.96 31.7048 527.83 31.7409 527.741C31.7589 527.697 31.7729 527.663 31.7825 527.64L31.7938 527.613L31.797 527.605L31.7983 527.602Z" fill="#43606C"/>
<path fill-rule="evenodd" clip-rule="evenodd" d="M6.54541 541.545L7.58804 541C8.63066 540.455 8.63073 540.455 8.63082 540.455L8.63629 540.466L8.6516 540.495C8.66498 540.521 8.68465 540.559 8.71029 540.608C8.76156 540.708 8.83672 540.854 8.93317 541.044C9.12605 541.423 9.40414 541.976 9.74673 542.673C10.4318 544.066 11.3754 546.037 12.4117 548.35C14.4794 552.965 16.9351 558.987 18.4296 564.516C21.4106 575.546 22.098 585.274 21.9996 599.243L19.6467 599.227C19.7445 585.353 19.0596 575.866 16.1582 565.13C14.7115 559.778 12.3143 553.887 10.2644 549.312C9.24182 547.029 8.3105 545.084 7.63523 543.711C7.29767 543.024 7.0243 542.481 6.83574 542.11C6.74147 541.925 6.66842 541.783 6.61917 541.687C6.59455 541.639 6.57587 541.603 6.56347 541.579L6.54962 541.553L6.54541 541.545Z" fill="#43606C"/>
<ellipse cx="7.29412" cy="541.294" rx="5.29412" ry="5.58824" fill="#FD39A1"/>
<circle cx="7.58846" cy="541.294" r="2.64706" fill="#99155B"/>
<ellipse cx="34.0589" cy="522.765" rx="7.94118" ry="8.23529" fill="#FD39A1"/>
<circle cx="34.353" cy="522.765" r="4.11765" fill="#99155B"/>
<ellipse cx="12" cy="501.294" rx="10" ry="10.2941" fill="#FD39A1"/>
<circle cx="12.2939" cy="501.294" r="5" fill="#99155B"/>
<path d="M452.295 555.361C468.4 565.975 478.056 592.678 479 599.286H477.396C467.503 593.939 449.684 581.272 439.241 572.531C424.19 559.932 421.469 547.868 419.11 541C423.461 541.364 436.19 544.746 452.295 555.361Z" fill="#43606C"/>
<path fill-rule="evenodd" clip-rule="evenodd" d="M462.782 589.696L475.616 594.776L475.432 595.24L462.599 590.16L462.782 589.696Z" fill="#173E4F"/>
<path fill-rule="evenodd" clip-rule="evenodd" d="M451.007 580.869L469.723 587.286L469.561 587.758L450.845 581.341L451.007 580.869Z" fill="#173E4F"/>
<path fill-rule="evenodd" clip-rule="evenodd" d="M440.032 572.309L462.758 578.726L462.623 579.206L439.896 572.789L440.032 572.309Z" fill="#173E4F"/>
<path fill-rule="evenodd" clip-rule="evenodd" d="M429.873 562.417L455.273 569.635L455.136 570.115L429.736 562.897L429.873 562.417Z" fill="#173E4F"/>
<path fill-rule="evenodd" clip-rule="evenodd" d="M425.062 554.396L445.917 560.546L445.775 561.025L424.921 554.875L425.062 554.396Z" fill="#173E4F"/>
<path fill-rule="evenodd" clip-rule="evenodd" d="M421.064 546.646L436.304 551.994L436.138 552.465L420.898 547.117L421.064 546.646Z" fill="#173E4F"/>
<path fill-rule="evenodd" clip-rule="evenodd" d="M468.591 574.977L469.661 587.81L470.158 587.769L469.089 574.935L468.591 574.977Z" fill="#173E4F"/>
<path fill-rule="evenodd" clip-rule="evenodd" d="M462.174 565.598V578.699H462.673V565.598H462.174Z" fill="#173E4F"/>
<path fill-rule="evenodd" clip-rule="evenodd" d="M454.688 557.593L455.49 570.159L455.988 570.127L455.186 557.561L454.688 557.593Z" fill="#173E4F"/>
<path fill-rule="evenodd" clip-rule="evenodd" d="M445.598 551.716L446.4 561.074L446.897 561.031L446.095 551.673L445.598 551.716Z" fill="#173E4F"/>
<path fill-rule="evenodd" clip-rule="evenodd" d="M433.32 545.916L435.994 551.798L436.448 551.592L433.775 545.709L433.32 545.916Z" fill="#173E4F"/>
<path fill-rule="evenodd" clip-rule="evenodd" d="M474.473 587.279L475.275 595.3L475.772 595.25L474.97 587.229L474.473 587.279Z" fill="#173E4F"/>
<path fill-rule="evenodd" clip-rule="evenodd" d="M454.487 569.511C443.269 557.492 430.994 547.355 419 541.491L419.219 541.043C431.288 546.943 443.611 557.127 454.852 569.17C461.905 576.728 474.297 592.451 478.671 598.878L478.259 599.159C473.899 592.752 461.523 577.049 454.487 569.511Z" fill="#173E4F"/>
<path d="M63.4106 511.721C31.2007 532.95 11.8873 586.356 9.99996 599.572H13.2084C32.9936 588.878 68.6322 563.544 89.5183 546.062C119.621 520.865 125.063 496.736 129.781 483C121.078 483.728 95.6206 490.492 63.4106 511.721Z" fill="#43606C"/>
<path fill-rule="evenodd" clip-rule="evenodd" d="M42.4358 580.393L16.7685 590.553L17.1359 591.481L42.8032 581.321L42.4358 580.393Z" fill="#173E4F"/>
<path fill-rule="evenodd" clip-rule="evenodd" d="M65.9863 562.738L28.5548 575.572L28.8786 576.516L66.3101 563.682L65.9863 562.738Z" fill="#173E4F"/>
<path fill-rule="evenodd" clip-rule="evenodd" d="M87.9363 545.619L42.4838 558.452L42.755 559.413L88.2075 546.579L87.9363 545.619Z" fill="#173E4F"/>
<path fill-rule="evenodd" clip-rule="evenodd" d="M108.255 525.833L57.4551 540.271L57.7279 541.232L108.528 526.794L108.255 525.833Z" fill="#173E4F"/>
<path fill-rule="evenodd" clip-rule="evenodd" d="M117.876 509.793L76.167 522.092L76.4493 523.049L118.159 510.75L117.876 509.793Z" fill="#173E4F"/>
<path fill-rule="evenodd" clip-rule="evenodd" d="M125.873 494.293L95.3932 504.988L95.7237 505.93L126.204 495.235L125.873 494.293Z" fill="#173E4F"/>
<path fill-rule="evenodd" clip-rule="evenodd" d="M30.8178 550.953L28.6788 576.62L27.6841 576.537L29.823 550.87L30.8178 550.953Z" fill="#173E4F"/>
<path fill-rule="evenodd" clip-rule="evenodd" d="M43.653 532.196V558.398H42.6548V532.196H43.653Z" fill="#173E4F"/>
<path fill-rule="evenodd" clip-rule="evenodd" d="M58.6243 516.186L57.0201 541.318L56.0239 541.255L57.6281 516.122L58.6243 516.186Z" fill="#173E4F"/>
<path fill-rule="evenodd" clip-rule="evenodd" d="M76.8053 504.432L75.2011 523.148L74.2065 523.062L75.8108 504.347L76.8053 504.432Z" fill="#173E4F"/>
<path fill-rule="evenodd" clip-rule="evenodd" d="M101.36 492.832L96.0127 504.596L95.104 504.183L100.451 492.419L101.36 492.832Z" fill="#173E4F"/>
<path fill-rule="evenodd" clip-rule="evenodd" d="M19.053 575.559L17.4488 591.601L16.4556 591.502L18.0598 575.459L19.053 575.559Z" fill="#173E4F"/>
<path fill-rule="evenodd" clip-rule="evenodd" d="M59.0263 540.023C81.4623 515.984 106.012 495.711 130 483.983L129.562 483.086C105.424 494.887 80.7784 515.254 58.2966 539.342C44.1891 554.457 19.4052 585.903 10.6574 598.757L11.4826 599.319C20.2027 586.505 44.9548 555.099 59.0263 540.023Z" fill="#173E4F"/>
<path d="M68.0233 587.216C70.722 594.795 52.5056 596.267 41.2201 600.464C30.4252 591.36 15.7422 585.612 21.1639 577.622C25.8253 570.752 32.94 578.848 38.3374 584.491C35.3934 577.622 20.012 562.576 25.8253 554.315C30.4868 547.691 36.3747 558.731 42.7535 565.355C40.5455 557.013 28.508 542.114 33.9214 536.16C39.3349 530.205 44.9616 538.368 49.8683 547.445C48.5801 538.613 46.0044 527.301 49.8683 522.911C55.5384 516.469 65.5698 521.439 63.791 530.762C69.7406 522.911 77.9594 522.911 79.7995 532.725C81.2715 540.576 70.1698 545.728 63.791 550.415C70.1698 550.415 77.7069 544.992 79.7994 552.107C82.2528 560.448 61.4607 564.102 57.7191 570.752C63.1165 570.752 75.874 563.883 75.874 570.752C75.874 577.622 58.3936 578.848 52.5056 587.216C58.3936 587.216 65.5456 580.258 68.0233 587.216Z" fill="#80886F"/>
<path d="M4.86487 600.162H71.3514C71.3514 600.162 72.4326 597.189 74.5947 595.027C77.2974 592.324 78.6488 590.162 80 588.541C75.4056 590.162 71.2614 593.315 70.5407 595.027C70.7209 592.775 70.0001 591.784 69.1893 588C66.7569 591.514 64.6847 592.324 64.3244 595.027C64.2343 592.324 63.2435 590.703 61.892 588C60.0002 590.432 57.7478 592.324 57.027 595.027C57.027 592.324 55.6759 592.054 53.7839 588C51.6219 591.243 49.6398 592.324 49.4596 595.027C49.3695 592.324 47.0273 593.405 45.9461 588.541C43.784 592.054 40.8109 593.135 40.0001 595.838C40.8109 592.595 40.0001 593.135 36.7569 589.351C34.0542 591.514 32.7028 593.766 31.3515 595.027C32.5227 592.775 30.8109 592.324 28.6488 588.541C24.5947 592.324 25.6758 593.586 23.5136 595.838C25.2254 593.135 22.1624 593.135 20.8109 589.351C15.6759 594.757 16.7568 593.495 16.4865 595.027C16.6667 592.865 14.5947 590.703 11.6216 588.541C10.8109 592.324 10.4506 593.495 10.5407 595.838C8.37863 593.676 9.45959 593.405 7.29743 591.243C5.13527 589.081 1.71172 591.423 0 592.324C0.900902 592.504 3.13514 593.297 4.86487 595.027C6.5946 596.757 5.58559 599.171 4.86487 600.162Z" fill="#59787D"/>
<path d="M508.135 600.162H441.649C441.649 600.162 440.567 597.189 438.405 595.027C435.703 592.324 434.351 590.162 433 588.541C437.594 590.162 441.739 593.315 442.459 595.027C442.279 592.775 443 591.784 443.811 588C446.243 591.514 448.315 592.324 448.676 595.027C448.766 592.324 449.757 590.703 451.108 588C453 590.432 455.252 592.324 455.973 595.027C455.973 592.324 457.324 592.054 459.216 588C461.378 591.243 463.36 592.324 463.54 595.027C463.63 592.324 465.973 593.405 467.054 588.541C469.216 592.054 472.189 593.135 473 595.838C472.189 592.595 473 593.135 476.243 589.351C478.946 591.514 480.297 593.766 481.649 595.027C480.477 592.775 482.189 592.324 484.351 588.541C488.405 592.324 487.324 593.586 489.486 595.838C487.775 593.135 490.838 593.135 492.189 589.351C497.324 594.757 496.243 593.495 496.513 595.027C496.333 592.865 498.405 590.703 501.378 588.541C502.189 592.324 502.549 593.495 502.459 595.838C504.621 593.676 503.54 593.405 505.703 591.243C507.865 589.081 511.288 591.423 513 592.324C512.099 592.504 509.865 593.297 508.135 595.027C506.405 596.757 507.414 599.171 508.135 600.162Z" fill="#59787D"/>
<path d="M453.921 590.095L459 600.66H399V570.491L412.83 596.551L411.283 553L431.244 596.551L424.748 555.113L438.567 596.551L434.079 557.93L446.48 596.551L445.654 569.669L453.921 598.429V590.095Z" fill="#80886F"/>
<path d="M67.0787 590.095L62 600.66H122V570.491L108.17 596.551L109.717 553L89.7559 596.551L96.252 555.113L82.4331 596.551L86.9213 557.93L74.5197 596.551L75.3465 569.669L67.0787 598.429V590.095Z" fill="#80886F"/>
<defs>
<linearGradient id="paint0_linear" x1="268.213" y1="0.749365" x2="268.213" y2="599.492" gradientUnits="userSpaceOnUse">
<stop stop-color="#5B3157"/>
<stop offset="1" stop-color="#36305D"/>
</linearGradient>
<radialGradient id="paint1_radial" cx="0" cy="0" r="1" gradientUnits="userSpaceOnUse" gradientTransform="translate(279.5 377.68) rotate(90) scale(66.9433 67.5)">
<stop stop-color="#43606C" stop-opacity="0.65"/>
<stop offset="1" stop-color="#43606C" stop-opacity="0"/>
</radialGradient>
<linearGradient id="paint2_linear" x1="179.172" y1="424.589" x2="179.172" y2="599.675" gradientUnits="userSpaceOnUse">
<stop stop-color="#9A6721"/>
<stop offset="1" stop-color="#822D0E"/>
</linearGradient>
</defs>
</svg>
