<svg width="295" height="401" viewBox="0 0 295 401" fill="none" xmlns="http://www.w3.org/2000/svg">
<rect x="6" width="280" height="400" fill="url(#paint0_radial)"/>
<path d="M285.495 0V32C283.999 52 274.499 70.4747 228.499 62C190.503 55 175 14 184.5 0H285.495Z" fill="#47559F"/>
<path d="M122.5 1V10C120 36.5 95.2109 62.2139 53.5 57C13.5 52 7 25 7 1H122.5Z" fill="#47559F"/>
<path d="M255 0H217L222 400H255V0Z" fill="#776CF2"/>
<path d="M286 201L27 0H56L286 170V201Z" fill="#9CE7FF" fill-opacity="0.14"/>
<path d="M68.5 0H46.5L38 400H71L68.5 0Z" fill="#776CF2"/>
<path d="M116.5 399.5L6 186.5V155L161 399.5H116.5Z" fill="#9CE7FF" fill-opacity="0.14"/>
<path d="M109.5 400H77L87.5 0H124L109.5 400Z" fill="#3B40B0"/>
<path d="M21.5 400H6V0H42.5L21.5 400Z" fill="#5D418A"/>
<path d="M286 297L6 34V13L286 271.5V297Z" fill="#9CE7FF" fill-opacity="0.14"/>
<path d="M286 400H261L268.5 0H286V400Z" fill="#3B40B0"/>
<path fill-rule="evenodd" clip-rule="evenodd" d="M244.5 399.5H83C92.1667 355.333 108 257.016 108 213C108 182.595 102.5 145.59 95.5494 108.329L6 52V37L52 66L89.1374 75.5224C87.5308 67.5783 85.9121 59.7091 84.3219 51.9782L84.3208 51.9729C80.5375 33.5801 76.9153 15.9707 74 0H112.375H150.75H189.125H209L208.932 0.682331V0.682409V0.682487C206.812 22.0646 204.697 43.3899 203.117 65.1882L219.5 54L249 0.5H263L233 68L200.775 111.598C200.128 137.089 200.62 163.64 203 192C206.55 234.298 230.667 349.333 244.5 399.5Z" fill="url(#paint1_linear)"/>
<path fill-rule="evenodd" clip-rule="evenodd" d="M260 173.5V45H262V173.5H260Z" fill="#4D513E"/>
<path fill-rule="evenodd" clip-rule="evenodd" d="M28.3924 79.1755C37.4094 97.0854 52.7574 111.765 77.03 112.501C98.5477 113.153 114.32 106.732 124.763 92.8314C135.256 78.8621 140.5 57.1713 140.5 27.0001H142.5C142.5 57.329 137.243 79.5473 126.362 94.0326C115.429 108.586 98.952 115.166 76.9695 114.5C51.7417 113.735 35.8395 98.4148 26.6061 80.0748C17.39 61.7693 14.737 40.3289 16.0029 26.9062L17.9941 27.094C16.7607 40.1714 19.3582 61.231 28.3924 79.1755Z" fill="#4D563B"/>
<path fill-rule="evenodd" clip-rule="evenodd" d="M192.042 62.5048C181.523 53.0868 175.781 39.7758 177.494 24.1086L175.506 23.8911C173.72 40.2238 179.727 54.1629 190.708 63.9949C201.671 73.8106 217.547 79.4998 235.5 79.4998C253.572 79.4998 265.988 71.7789 273.671 61.9514C281.321 52.1664 284.282 40.2905 283.495 31.9065L281.504 32.0932C282.24 39.9377 279.451 51.3118 272.096 60.7196C264.773 70.085 252.928 77.4998 235.5 77.4998C217.953 77.4998 202.579 71.9391 192.042 62.5048Z" fill="#4D563B"/>
<path fill-rule="evenodd" clip-rule="evenodd" d="M31.5 24C31.5002 44.8911 50.4939 65.5 78.5 65.5C90.1361 65.5 100.89 59.1886 108.769 50.7548C116.666 42.3027 121.5 31.9099 121.5 24H123.5C123.5 32.5901 118.334 43.4474 110.231 52.1202C102.11 60.8114 90.8639 67.5 78.5 67.5C49.5061 67.5 29.5002 46.109 29.5 24L31.5 24Z" fill="#4D563B"/>
<path d="M204 257C204 281.853 183.853 302 159 302C134.147 302 114 281.853 114 257C114 232.147 134.147 212 159 212C183.853 212 204 232.147 204 257Z" fill="url(#paint2_radial)"/>
<path d="M184.133 151.545L153.026 135.018C152.287 134.625 151.381 134.736 150.755 135.295L123.177 159.964C122.751 160.345 122.508 160.889 122.508 161.46L122.508 192.645C122.508 193.388 122.92 194.069 123.577 194.413L158.575 212.723C159.315 213.111 160.219 212.995 160.84 212.434L188.308 187.659C188.79 187.225 189.032 186.584 188.958 185.941L185.178 153.079C185.103 152.426 184.713 151.853 184.133 151.545Z" fill="#2F1E3A"/>
<path d="M286 49.5806V0H181C181 41.5 242 65 286 49.5806Z" fill="#43606C"/>
<path d="M6 22V0H121C121 27.5 37.5 48.5 6 22Z" fill="#43606C"/>
<path d="M91.5 0H209C209 11.5 189.5 32.5 150.5 32.5C111.5 32.5 91.5 12.5 91.5 0Z" fill="#43606C"/>
<path d="M140.378 257.604L149.959 229.098C150.435 227.681 152.24 227.268 153.285 228.336L175.133 250.679C175.664 251.221 175.842 252.018 175.592 252.735L165.438 281.86C164.941 283.284 163.107 283.667 162.082 282.561L140.807 259.6C140.309 259.064 140.145 258.298 140.378 257.604Z" fill="#D9E6E8"/>
<path d="M208.92 278.693L207.687 282.534L203.481 282.534L203.068 277.356L204.773 275.282L208.504 275.987L208.92 278.693Z" fill="#1C0E4C"/>
<path d="M221.993 278.282L222.54 282.391L226.554 283.133L227.994 278.142L226.737 275.77L222.941 275.714L221.993 278.282Z" fill="#1C0E4C"/>
<path d="M203.365 282.164L181.276 399.815H274.437L225.935 282.164H203.365Z" fill="#1C0E4C"/>
<path d="M210.808 288.406H208.647L205.766 294.409H210.808V288.406Z" fill="#1A2E75"/>
<path d="M182.716 329.705L199.523 305.934V340.029L194.961 352.995L176.953 355.636L163.507 340.029L182.716 329.705Z" fill="#1C0E4C"/>
<path d="M223.054 328.744V309.536L229.296 332.106L204.806 337.868L212.009 351.794H204.806L199.043 335.467L223.054 328.744Z" fill="#1A2E75"/>
<path d="M214.89 287.686C214.89 288.084 214.567 288.406 214.17 288.406C213.772 288.406 213.449 288.084 213.449 287.686C213.449 287.288 213.772 286.966 214.17 286.966C214.567 286.966 214.89 287.288 214.89 287.686Z" fill="#00F3F3"/>
<path d="M207.207 287.686C207.207 288.084 206.884 288.406 206.486 288.406C206.089 288.406 205.766 288.084 205.766 287.686C205.766 287.288 206.089 286.966 206.486 286.966C206.884 286.966 207.207 287.288 207.207 287.686Z" fill="#00F3F3"/>
<path d="M145.74 372.443L189.679 358.757L196.882 399.815H159.186L145.74 372.443Z" fill="#1C0E4C"/>
<path d="M215.13 399.815H208.167L201.204 375.325L222.093 363.319L205.766 376.525L215.13 399.815Z" fill="#1A2E75"/>
<path fill-rule="evenodd" clip-rule="evenodd" d="M156.337 338.682C154.683 334.149 150.018 330.54 144.034 331.719C137.178 333.069 127.28 334.665 116.047 334.673C113.401 337.84 110.28 341.998 109.211 345.53C108.674 347.307 108.667 348.886 109.455 350.102C110.242 351.317 111.857 352.222 114.692 352.567C121.513 353.396 128.236 353.949 134.38 353.834C140.525 353.719 146.08 352.936 150.569 351.104C153.612 349.862 155.46 347.883 156.347 345.66C157.235 343.434 157.164 340.947 156.337 338.682ZM156.69 345.797C155.762 348.122 153.835 350.169 150.708 351.445C146.159 353.302 140.554 354.087 134.387 354.203C128.218 354.318 121.476 353.763 114.647 352.933C111.764 352.582 110.018 351.65 109.145 350.302C108.272 348.955 108.307 347.245 108.858 345.424C109.959 341.785 113.165 337.54 115.82 334.37L115.875 334.304H115.961C127.196 334.304 137.101 332.708 143.963 331.357C150.152 330.138 154.977 333.879 156.684 338.555C157.538 340.894 157.616 343.476 156.69 345.797Z" fill="#111111"/>
<path d="M110.308 283.166C109.386 277.447 120.269 280.03 119.346 289.622C118.608 293.311 110.308 287.224 110.308 283.166Z" fill="#9A6721"/>
<path d="M111.637 283.863C111.005 280.084 118.465 281.791 117.833 288.13C117.327 290.568 111.637 286.545 111.637 283.863Z" fill="#FBAB7E"/>
<path d="M103.484 283.35C99.4256 272.836 87.4359 285.01 96.2898 289.437C99.6099 290.728 104.59 286.855 103.484 283.35Z" fill="#9A6721"/>
<path d="M101.539 283.769C98.9817 277.125 91.425 284.819 97.0053 287.616C99.0979 288.433 102.237 285.984 101.539 283.769Z" fill="#FBAB7E"/>
<path fill-rule="evenodd" clip-rule="evenodd" d="M29.1768 399.926L145.539 399.926C149.228 384.063 138.743 369.626 129.491 356.948C128.724 355.897 127.994 354.878 127.299 353.889C136.241 354.339 144.438 353.805 150.639 351.274C162.977 346.238 156.172 329.14 143.998 331.538C142.027 331.926 139.804 332.335 137.371 332.72C135.586 325.872 127.623 321.039 115.958 325.684C116.328 323.889 117.03 322.235 117.981 320.61C129.405 301.098 123.702 294.209 118.589 288.033L118.586 288.029C118.383 287.784 118.181 287.54 117.981 287.297C112.743 280.914 98.9391 282.177 97.107 287.297C95.7682 291.038 93.9679 293.987 91.5494 297.948C90.6581 299.408 89.6828 301.006 88.6157 302.832C82.824 311.756 63.6406 337.396 43.152 352.968C25.0373 367.514 26.2874 390.334 29.1768 399.926Z" fill="url(#paint3_linear)"/>
<path fill-rule="evenodd" clip-rule="evenodd" d="M64.3024 335.626C66.3514 331.114 69.7457 326.204 74.441 321.222L74.7095 321.475C70.0347 326.435 66.6666 331.313 64.6383 335.779C62.609 340.247 61.9268 344.289 62.6014 347.589C63.274 350.88 65.2991 353.451 68.7335 354.987C72.1762 356.527 77.0435 357.029 83.3894 356.143C87.1211 355.623 90.638 355.442 94.3314 355.252C102.588 354.827 111.726 354.357 126.117 349.947C134.699 347.317 138.286 339.889 137.241 333.682C136.719 330.579 135.039 327.782 132.247 326.032C129.455 324.282 125.529 323.565 120.493 324.664C106.588 327.698 94.4403 332.492 88.0441 335.017C86.9503 335.449 86.0248 335.814 85.2874 336.093L85.1569 335.748C85.8909 335.47 86.8134 335.106 87.9046 334.675C94.2973 332.152 106.477 327.345 120.414 324.304C125.523 323.189 129.551 323.907 132.443 325.719C135.334 327.531 137.067 330.424 137.605 333.62C138.681 340.011 134.983 347.616 126.225 350.3C111.791 354.723 102.577 355.198 94.303 355.625C90.6217 355.814 87.1265 355.995 83.4404 356.509C77.0572 357.399 72.1124 356.902 68.5828 355.324C65.0449 353.742 62.9374 351.075 62.2399 347.663C61.5443 344.26 62.2543 340.135 64.3024 335.626Z" fill="black"/>
<path fill-rule="evenodd" clip-rule="evenodd" d="M100.788 356.748C91.5716 355.678 71.3771 354.801 53.4248 368.795L53.198 368.504C71.2664 354.419 91.5833 355.308 100.831 356.382C107.789 357.19 113.538 361.992 116.012 368.248C118.487 374.511 117.679 382.228 111.539 388.856L111.268 388.605C117.312 382.082 118.092 374.516 115.668 368.384C113.242 362.245 107.602 357.539 100.788 356.748ZM91.2194 382.294C87.5639 385.498 77.5019 393.538 66.4719 400.085L66.2836 399.768C77.2898 393.235 87.3335 385.21 90.9762 382.016L91.2194 382.294Z" fill="black"/>
<path fill-rule="evenodd" clip-rule="evenodd" d="M112.232 388.499C110.023 389.411 107.749 390.35 105.394 391.248L105.262 390.903C107.595 390.014 109.858 389.08 112.063 388.17C116.204 386.461 120.141 384.836 123.948 383.751C129.795 382.085 135.381 381.678 141.016 384.181C142.906 385.019 144.182 386.137 145.022 387.421C145.86 388.703 146.254 390.141 146.396 391.611C146.538 393.08 146.43 394.587 146.257 396.013C146.179 396.663 146.088 397.29 146.001 397.889C145.896 398.616 145.797 399.303 145.732 399.945L145.365 399.908C145.43 399.267 145.532 398.561 145.638 397.821C145.725 397.22 145.815 396.596 145.891 395.968C146.062 394.552 146.167 393.076 146.029 391.647C145.891 390.218 145.51 388.842 144.713 387.622C143.917 386.404 142.698 385.331 140.867 384.518C135.34 382.064 129.851 382.453 124.049 384.106C120.261 385.185 116.359 386.796 112.232 388.499Z" fill="black"/>
<path fill-rule="evenodd" clip-rule="evenodd" d="M88.218 334.509C89.3143 333.23 90.9658 330.662 92.6298 328.073L92.9402 328.273L92.9303 328.288C91.2774 330.859 89.6131 333.448 88.4981 334.749L88.218 334.509Z" fill="black"/>
<path fill-rule="evenodd" clip-rule="evenodd" d="M99.4337 279.061C101.073 279.344 102.626 280.615 103.656 283.284L103.311 283.417C102.312 280.828 100.844 279.679 99.3711 279.425C97.8879 279.17 96.3416 279.811 95.1718 280.924C94.0023 282.038 93.2368 283.598 93.2921 285.133C93.347 286.656 94.2096 288.191 96.3722 289.272L96.2072 289.602C93.9428 288.47 92.9839 286.824 92.9235 285.147C92.8635 283.483 93.689 281.827 94.9174 280.657C96.1456 279.488 97.8042 278.781 99.4337 279.061Z" fill="black"/>
<path fill-rule="evenodd" clip-rule="evenodd" d="M111.451 280.251C110.481 280.779 109.935 281.891 110.125 283.555L110.492 283.513C110.313 281.95 110.827 281.01 111.627 280.575C112.443 280.131 113.617 280.177 114.82 280.728C117.213 281.824 119.617 284.884 119.163 289.604L119.53 289.639C119.999 284.767 117.514 281.556 114.973 280.392C113.709 279.813 112.404 279.732 111.451 280.251Z" fill="black"/>
<path d="M119.346 296.262L123.773 294.971C123.773 294.971 122.759 292.204 121.006 289.991C119.254 287.777 115.473 285.01 115.473 285.01L119.346 296.262Z" fill="#C68731"/>
<path d="M112.337 289.253C112.337 289.864 111.842 290.359 111.23 290.359C110.619 290.359 110.124 289.864 110.124 289.253C110.124 288.641 110.619 288.146 111.23 288.146C111.842 288.146 112.337 288.641 112.337 289.253Z" fill="#111111"/>
<path fill-rule="evenodd" clip-rule="evenodd" d="M83.7092 310.208C75.4097 321.151 60.2454 339.676 48.8121 348.425C38.2281 356.524 32.353 364.749 29.6694 373.236C26.9854 381.724 27.4871 390.495 29.696 399.699L29.3373 399.785C27.1193 390.543 26.6064 381.699 29.3177 373.125C32.0294 364.549 37.9594 356.265 48.5879 348.132C59.9765 339.417 75.1137 320.931 83.4152 309.985L83.7092 310.208Z" fill="black"/>
<path fill-rule="evenodd" clip-rule="evenodd" d="M111.362 357.601C110.745 359.314 111.123 361.329 113.207 363.459L112.944 363.717C110.786 361.513 110.339 359.354 111.015 357.476C111.684 355.617 113.436 354.083 115.572 353.069C117.712 352.053 120.265 351.544 122.579 351.758C124.892 351.972 126.991 352.912 128.173 354.822C128.813 355.855 129.805 357.267 131.006 358.977C131.411 359.553 131.839 360.163 132.286 360.803C134.056 363.341 136.107 366.354 138.086 369.632C142.04 376.183 145.72 383.819 146.277 390.873L145.909 390.902C145.359 383.938 141.719 376.364 137.77 369.823C135.798 366.555 133.752 363.55 131.983 361.014C131.54 360.379 131.114 359.772 130.711 359.198C129.507 357.485 128.506 356.059 127.86 355.016C126.758 353.237 124.787 352.333 122.545 352.125C120.303 351.918 117.816 352.412 115.73 353.402C113.641 354.394 111.985 355.869 111.362 357.601Z" fill="black"/>
<path fill-rule="evenodd" clip-rule="evenodd" d="M115.487 384.081C115.36 383.802 115.197 383.596 115.009 383.483L115.199 383.167C115.473 383.331 115.678 383.609 115.823 383.929C115.968 384.251 116.059 384.629 116.095 385.014C116.166 385.775 116.029 386.615 115.617 387.13L115.329 386.899C115.655 386.491 115.795 385.764 115.728 385.049C115.694 384.696 115.612 384.359 115.487 384.081Z" fill="black"/>
<path d="M123.404 294.971L118.977 296.262L123.404 299.582C124.327 299.582 125.323 299.287 124.88 297.369C124.437 295.45 123.712 294.971 123.404 294.971Z" fill="black"/>
<path fill-rule="evenodd" clip-rule="evenodd" d="M118.206 304.918C117.233 304.567 116.112 303.935 114.816 303.055L115.023 302.75C116.309 303.623 117.401 304.235 118.331 304.571C119.261 304.906 120.009 304.957 120.621 304.735C121.231 304.514 121.742 304.01 122.173 303.157C122.605 302.301 122.947 301.111 123.223 299.55L123.586 299.614C123.049 302.655 123.01 304.607 123.228 305.583C123.282 305.826 123.349 305.995 123.42 306.103C123.49 306.211 123.551 306.241 123.593 306.248C123.637 306.255 123.709 306.243 123.814 306.163C123.92 306.084 124.041 305.95 124.173 305.752L124.48 305.956C124.336 306.173 124.187 306.344 124.036 306.458C123.886 306.571 123.715 306.64 123.536 306.613C123.356 306.584 123.215 306.465 123.111 306.305C123.007 306.145 122.927 305.928 122.868 305.663C122.724 305.02 122.688 304.017 122.804 302.639C122.709 302.885 122.609 303.113 122.503 303.323C122.046 304.227 121.474 304.818 120.747 305.082C120.022 305.344 119.178 305.268 118.206 304.918Z" fill="black"/>
<path fill-rule="evenodd" clip-rule="evenodd" d="M114.523 334.303C116.374 339.244 121.449 344.909 129.782 348.949L129.795 348.956L129.795 348.955C143.713 355.225 154.474 357.532 163.062 357.414C171.66 357.295 178.048 354.745 183.212 351.355C186.692 349.071 189.623 346.397 192.285 343.853C193.716 344.89 195.195 346.119 196.692 347.445C198.341 348.904 199.992 350.462 201.617 351.995C202.538 352.864 203.45 353.724 204.348 354.555C206.816 356.834 209.177 358.883 211.249 360.138C212.285 360.766 213.28 361.216 214.204 361.385C215.14 361.556 216.027 361.442 216.787 360.909C217.508 360.405 218.14 359.548 218.67 358.499C219.206 357.441 219.659 356.144 220.001 354.71C220.686 351.842 220.941 348.373 220.494 345.058C220.049 341.748 218.896 338.54 216.721 336.249C214.526 333.94 211.34 332.615 206.955 333.002C202.519 333.393 198.939 336.197 195.26 339.626C194.464 340.368 193.662 341.141 192.843 341.93C192.626 342.139 192.407 342.349 192.188 342.56C191.355 341.987 190.535 341.479 189.733 341.057L189.267 341.942C189.977 342.316 190.706 342.762 191.45 343.267C188.843 345.754 186.02 348.315 182.663 350.519C177.639 353.817 171.434 356.298 163.048 356.414C154.652 356.53 144.041 354.275 130.212 348.047C122.049 344.087 117.198 338.592 115.46 333.952C114.59 331.63 114.514 329.567 115.127 328.015C115.73 326.489 117.028 325.382 119.093 324.991L118.907 324.008C116.544 324.455 114.94 325.767 114.197 327.648C113.464 329.503 113.599 331.835 114.523 334.303ZM193.018 343.15C193.204 342.972 193.388 342.794 193.572 342.617C194.381 341.838 195.168 341.079 195.942 340.358C199.622 336.927 202.98 334.356 207.043 333.998C211.158 333.635 214.033 334.873 215.996 336.938C217.976 339.023 219.074 342.002 219.503 345.192C219.932 348.376 219.687 351.72 219.029 354.477C218.7 355.855 218.27 357.075 217.778 358.048C217.282 359.029 216.742 359.72 216.213 360.09C215.724 360.433 215.126 360.537 214.384 360.402C213.63 360.264 212.755 359.882 211.767 359.283C209.792 358.086 207.497 356.103 205.027 353.82C204.145 353.005 203.24 352.151 202.322 351.286C200.688 349.744 199.013 348.164 197.355 346.696C195.901 345.409 194.445 344.195 193.018 343.15Z" fill="#FFD12D"/>
<path fill-rule="evenodd" clip-rule="evenodd" d="M181.658 274.525C192.442 278.12 198.02 290.393 196.495 301.07C193.488 322.115 171.224 346.03 136.941 341.996L137.058 341.003C170.776 344.97 192.571 321.463 195.505 300.929C196.98 290.606 191.558 278.879 181.342 275.474L181.658 274.525Z" fill="#FFD12D"/>
<path fill-rule="evenodd" clip-rule="evenodd" d="M132.773 299.054C132.681 292.778 134.525 286.768 138.646 282.646L139.354 283.354C135.475 287.232 133.684 292.951 133.773 299.039C133.863 305.125 135.833 311.528 139.411 316.716C144.31 323.819 153.622 328.152 163.416 331.591C166.558 332.694 169.725 333.697 172.8 334.671C174.512 335.214 176.194 335.747 177.828 336.283C182.376 337.775 186.53 339.287 189.742 341.062L189.258 341.938C186.137 340.213 182.062 338.725 177.516 337.233C175.903 336.704 174.23 336.173 172.522 335.632C169.436 334.655 166.239 333.642 163.084 332.534C153.295 329.098 143.69 324.681 138.588 317.284C134.895 311.93 132.866 305.333 132.773 299.054Z" fill="#FFD12D"/>
<path d="M231 400L6 93V69L286 343.5V400H231Z" fill="#9CE7FF" fill-opacity="0.14"/>
<path d="M7.3937 387.7L0.999924 401H76.5356V363.02L59.1249 395.828L61.0716 341L35.9426 395.828L44.1207 343.66L26.7237 395.828L32.374 347.207L16.7613 395.828L17.8022 361.985L7.3937 398.192V387.7Z" fill="#4D563B"/>
<path d="M288.142 387.7L294.536 401H219V363.02L236.411 395.828L234.464 341L259.593 395.828L251.415 343.66L268.812 395.828L263.162 347.207L278.774 395.828L277.733 361.985L288.142 398.192V387.7Z" fill="#4D563B"/>
<path d="M46.9565 400.149H60C52.5466 394.186 50.3106 387.478 50.3106 378.162H43.9752C46.9565 386.36 45.0932 392.323 46.9565 400.149Z" fill="url(#paint4_linear)"/>
<path d="M33.913 378.161C36.3975 373.441 39.1304 364 46.5838 364C54.0372 364 57.1428 373.441 59.2546 378.161H33.913Z" fill="#67A4AE"/>
<path d="M30.1863 390.832H40.6211C40 389.342 38.0869 386.36 35.4037 386.36C32.7205 386.36 30.8074 389.342 30.1863 390.832Z" fill="#67A4AE"/>
<path d="M32.7951 399.777H38.7578L36.8945 390.833H34.2858L32.7951 399.777Z" fill="url(#paint5_linear)"/>
<path d="M15.6522 400.522H26.8323C26.8323 400.522 25.9436 396.795 24.2236 391.205C22.5036 385.615 22.3602 380.025 22.3602 380.025H18.2608C18.2608 380.025 20.4969 387.478 18.6335 391.95C16.7702 396.422 15.6522 400.522 15.6522 400.522Z" fill="url(#paint6_linear)"/>
<path d="M1.86321 400.208H9.31663C11.1054 396.928 8.57129 390.394 7.08061 387.537H4.09924C3.97502 388.158 3.5775 390.22 2.98123 393.5C2.38495 396.779 1.98744 399.338 1.86321 400.208Z" fill="url(#paint7_linear)"/>
<path d="M-8.01086e-05 387.537H10.8074C9.93781 385.425 7.52787 381.351 4.84464 381.947C2.16141 382.543 0.496815 385.922 -8.01086e-05 387.537Z" fill="#67A4AE"/>
<path d="M11.5528 380.025H29.0684C27.3292 377.541 25.7143 372.944 20.4969 372.944C15.2795 372.944 12.6708 377.789 11.5528 380.025Z" fill="#67A4AE"/>
<path d="M62.1852 390.741H57C57 389.012 57.5185 385.63 59.5926 385.926C61.6667 386.222 62.1852 389.259 62.1852 390.741Z" fill="#67A4AE"/>
<path d="M70.3334 390.018H65.1482C65.1482 388.29 65.6667 384.907 67.7408 385.203C69.8149 385.5 70.3334 388.537 70.3334 390.018Z" fill="#67A4AE"/>
<path d="M76.2592 387.796H71.074C71.074 386.068 71.5925 382.685 73.6666 382.981C75.7406 383.277 76.2592 386.314 76.2592 387.796Z" fill="#67A4AE"/>
<path d="M79.2223 391.852H75.5186C75.5186 390.527 75.8889 387.935 77.3704 388.162C78.8519 388.389 79.2223 390.716 79.2223 391.852Z" fill="#67A4AE"/>
<path d="M65.8888 384.833H60.7036C60.7036 383.105 61.2221 379.722 63.2962 380.018C65.3703 380.315 65.8888 383.352 65.8888 384.833Z" fill="#67A4AE"/>
<path fill-rule="evenodd" clip-rule="evenodd" d="M59.8084 392.578C59.3955 391.848 59.116 391.088 59.226 390.318L59.9593 390.423C59.8841 390.949 60.0675 391.531 60.4532 392.213C60.7855 392.801 61.2394 393.415 61.7346 394.085C61.8136 394.192 61.8936 394.3 61.9743 394.41C63.1234 395.973 64.4074 397.825 64.4074 400H63.6667C63.6667 398.101 62.5433 396.434 61.3776 394.849C61.2993 394.742 61.2207 394.636 61.1423 394.53C60.6498 393.864 60.165 393.208 59.8084 392.578Z" fill="#67A4AE"/>
<path fill-rule="evenodd" clip-rule="evenodd" d="M64.0995 393.488C63.3984 391.198 62.7381 388.56 62.9263 384.796L63.6661 384.833C63.4839 388.478 64.1199 391.024 64.8078 393.271C64.9058 393.591 65.0054 393.907 65.1042 394.22C65.6967 396.096 66.2593 397.877 66.2593 400L65.5186 400C65.5186 397.999 64.9942 396.336 64.4021 394.457C64.3024 394.141 64.2008 393.819 64.0995 393.488Z" fill="#67A4AE"/>
<path fill-rule="evenodd" clip-rule="evenodd" d="M67.3704 400V390H68.1111V400H67.3704Z" fill="#67A4AE"/>
<path fill-rule="evenodd" clip-rule="evenodd" d="M72.6304 391.524C73.0261 390.578 73.296 389.401 73.296 387.778L74.0367 387.778C74.0368 389.488 73.7512 390.764 73.3136 391.81C72.8777 392.851 72.2973 393.647 71.7405 394.389C71.7094 394.43 71.6784 394.472 71.6475 394.513C71.1208 395.214 70.6278 395.87 70.2527 396.683C69.8598 397.534 69.5923 398.569 69.5923 400L68.8516 400C68.8516 398.468 69.1397 397.327 69.5801 396.373C69.9894 395.486 70.5267 394.771 71.0454 394.081C71.0797 394.035 71.1139 393.99 71.1479 393.945C71.7023 393.205 72.2329 392.473 72.6304 391.524Z" fill="#67A4AE"/>
<path fill-rule="evenodd" clip-rule="evenodd" d="M75.8829 393.936C76.4251 393.257 76.7092 392.589 76.6318 391.893L77.368 391.811C77.4758 392.781 77.0655 393.642 76.4618 394.398C75.86 395.152 75.0309 395.846 74.222 396.493C74.083 396.604 73.9448 396.714 73.8082 396.822C73.1355 397.356 72.501 397.86 72.0026 398.363C71.3947 398.976 71.074 399.509 71.074 400H70.3333C70.3333 399.195 70.8459 398.478 71.4764 397.841C72.009 397.304 72.6864 396.766 73.3589 396.233C73.493 396.127 73.6268 396.021 73.7593 395.915C74.5708 395.265 75.3389 394.617 75.8829 393.936Z" fill="#67A4AE"/>
<path d="M214.185 390.741H209C209 389.012 209.519 385.63 211.593 385.926C213.667 386.222 214.185 389.259 214.185 390.741Z" fill="#67A4AE"/>
<path d="M222.333 390.018H217.148C217.148 388.29 217.667 384.907 219.741 385.203C221.815 385.5 222.333 388.537 222.333 390.018Z" fill="#67A4AE"/>
<path d="M228.259 387.796H223.074C223.074 386.068 223.592 382.685 225.667 382.981C227.741 383.277 228.259 386.314 228.259 387.796Z" fill="#67A4AE"/>
<path d="M231.222 391.852H227.519C227.519 390.527 227.889 387.935 229.37 388.162C230.852 388.389 231.222 390.716 231.222 391.852Z" fill="#67A4AE"/>
<path d="M217.889 384.833H212.704C212.704 383.105 213.222 379.722 215.296 380.018C217.37 380.315 217.889 383.352 217.889 384.833Z" fill="#67A4AE"/>
<path fill-rule="evenodd" clip-rule="evenodd" d="M211.808 392.578C211.395 391.848 211.116 391.088 211.226 390.318L211.959 390.423C211.884 390.949 212.067 391.531 212.453 392.213C212.786 392.801 213.239 393.415 213.735 394.085C213.814 394.192 213.894 394.3 213.974 394.41C215.123 395.973 216.407 397.825 216.407 400H215.667C215.667 398.101 214.543 396.434 213.378 394.849C213.299 394.742 213.221 394.636 213.142 394.53C212.65 393.864 212.165 393.208 211.808 392.578Z" fill="#67A4AE"/>
<path fill-rule="evenodd" clip-rule="evenodd" d="M216.099 393.488C215.398 391.198 214.738 388.56 214.926 384.796L215.666 384.833C215.484 388.478 216.12 391.024 216.808 393.271C216.906 393.591 217.005 393.907 217.104 394.22C217.697 396.096 218.259 397.877 218.259 400L217.519 400C217.519 397.999 216.994 396.336 216.402 394.457C216.302 394.141 216.201 393.819 216.099 393.488Z" fill="#67A4AE"/>
<path fill-rule="evenodd" clip-rule="evenodd" d="M219.37 400V390H220.111V400H219.37Z" fill="#67A4AE"/>
<path fill-rule="evenodd" clip-rule="evenodd" d="M224.63 391.524C225.026 390.578 225.296 389.401 225.296 387.778L226.037 387.778C226.037 389.488 225.751 390.764 225.314 391.81C224.878 392.851 224.297 393.647 223.741 394.389C223.709 394.43 223.678 394.472 223.648 394.513C223.121 395.214 222.628 395.87 222.253 396.683C221.86 397.534 221.592 398.569 221.592 400L220.852 400C220.852 398.468 221.14 397.327 221.58 396.373C221.989 395.486 222.527 394.771 223.045 394.081C223.08 394.035 223.114 393.99 223.148 393.945C223.702 393.205 224.233 392.473 224.63 391.524Z" fill="#67A4AE"/>
<path fill-rule="evenodd" clip-rule="evenodd" d="M227.883 393.936C228.425 393.257 228.709 392.589 228.632 391.893L229.368 391.811C229.476 392.781 229.066 393.642 228.462 394.398C227.86 395.152 227.031 395.846 226.222 396.493C226.083 396.604 225.945 396.714 225.808 396.822C225.135 397.356 224.501 397.86 224.003 398.363C223.395 398.976 223.074 399.509 223.074 400H222.333C222.333 399.195 222.846 398.478 223.476 397.841C224.009 397.304 224.686 396.766 225.359 396.233C225.493 396.127 225.627 396.021 225.759 395.915C226.571 395.265 227.339 394.617 227.883 393.936Z" fill="#67A4AE"/>
<path d="M246.043 400.149H233C240.453 394.186 242.689 387.478 242.689 378.162H249.025C246.043 386.36 247.907 392.323 246.043 400.149Z" fill="url(#paint8_linear)"/>
<path d="M259.087 378.161C256.603 373.441 253.87 364 246.416 364C238.963 364 235.857 373.441 233.745 378.161H259.087Z" fill="#67A4AE"/>
<path d="M262.814 390.832H252.379C253 389.342 254.913 386.36 257.596 386.36C260.28 386.36 262.193 389.342 262.814 390.832Z" fill="#67A4AE"/>
<path d="M260.205 399.777H254.242L256.106 390.833H258.714L260.205 399.777Z" fill="url(#paint9_linear)"/>
<path d="M277.348 400.522H266.168C266.168 400.522 267.056 396.795 268.776 391.205C270.496 385.615 270.64 380.025 270.64 380.025H274.739C274.739 380.025 272.503 387.478 274.366 391.95C276.23 396.422 277.348 400.522 277.348 400.522Z" fill="url(#paint10_linear)"/>
<path d="M291.137 400.208H283.683C281.895 396.928 284.429 390.394 285.919 387.537H288.901C289.025 388.158 289.423 390.22 290.019 393.5C290.615 396.779 291.013 399.338 291.137 400.208Z" fill="url(#paint11_linear)"/>
<path d="M293 387.537H282.193C283.062 385.425 285.472 381.351 288.155 381.947C290.839 382.543 292.503 385.922 293 387.537Z" fill="#67A4AE"/>
<path d="M281.447 380.025H263.932C265.671 377.541 267.286 372.944 272.503 372.944C277.72 372.944 280.329 377.789 281.447 380.025Z" fill="#67A4AE"/>
<defs>
<radialGradient id="paint0_radial" cx="0" cy="0" r="1" gradientUnits="userSpaceOnUse" gradientTransform="translate(146) rotate(90) scale(200 140)">
<stop stop-color="#256C76"/>
<stop offset="1" stop-color="#1F3367"/>
</radialGradient>
<linearGradient id="paint1_linear" x1="163.112" y1="0.499375" x2="163.112" y2="399.5" gradientUnits="userSpaceOnUse">
<stop stop-color="#5B3157"/>
<stop offset="1" stop-color="#36305D"/>
</linearGradient>
<radialGradient id="paint2_radial" cx="0" cy="0" r="1" gradientUnits="userSpaceOnUse" gradientTransform="translate(159 257) rotate(90) scale(45)">
<stop stop-color="#43606C" stop-opacity="0.65"/>
<stop offset="1" stop-color="#43606C" stop-opacity="0"/>
</radialGradient>
<linearGradient id="paint3_linear" x1="92.3287" y1="282.97" x2="92.3287" y2="399.926" gradientUnits="userSpaceOnUse">
<stop stop-color="#9A6721"/>
<stop offset="1" stop-color="#6F134F"/>
</linearGradient>
<linearGradient id="paint4_linear" x1="51.9876" y1="378.162" x2="51.9876" y2="400.149" gradientUnits="userSpaceOnUse">
<stop stop-color="#8AD6E2"/>
<stop offset="1" stop-color="#67A4AE"/>
</linearGradient>
<linearGradient id="paint5_linear" x1="35.7764" y1="390.833" x2="35.7764" y2="399.777" gradientUnits="userSpaceOnUse">
<stop stop-color="#80C6D1"/>
<stop offset="1" stop-color="#67A4AE"/>
</linearGradient>
<linearGradient id="paint6_linear" x1="21.2422" y1="380.025" x2="21.2422" y2="400.522" gradientUnits="userSpaceOnUse">
<stop stop-color="#80C6D1"/>
<stop offset="1" stop-color="#67A4AE"/>
</linearGradient>
<linearGradient id="paint7_linear" x1="5.89755" y1="387.537" x2="5.89755" y2="400.208" gradientUnits="userSpaceOnUse">
<stop stop-color="#67A4AE"/>
<stop offset="0.0001" stop-color="#80C6D1"/>
<stop offset="1" stop-color="#67A4AE"/>
</linearGradient>
<linearGradient id="paint8_linear" x1="241.012" y1="378.162" x2="241.012" y2="400.149" gradientUnits="userSpaceOnUse">
<stop stop-color="#8AD6E2"/>
<stop offset="1" stop-color="#67A4AE"/>
</linearGradient>
<linearGradient id="paint9_linear" x1="257.224" y1="390.833" x2="257.224" y2="399.777" gradientUnits="userSpaceOnUse">
<stop stop-color="#80C6D1"/>
<stop offset="1" stop-color="#67A4AE"/>
</linearGradient>
<linearGradient id="paint10_linear" x1="271.758" y1="380.025" x2="271.758" y2="400.522" gradientUnits="userSpaceOnUse">
<stop stop-color="#80C6D1"/>
<stop offset="1" stop-color="#67A4AE"/>
</linearGradient>
<linearGradient id="paint11_linear" x1="287.102" y1="387.537" x2="287.102" y2="400.208" gradientUnits="userSpaceOnUse">
<stop stop-color="#67A4AE"/>
<stop offset="0.0001" stop-color="#80C6D1"/>
<stop offset="1" stop-color="#67A4AE"/>
</linearGradient>
</defs>
</svg>
