<svg width="297" height="402" viewBox="0 0 297 402" fill="none" xmlns="http://www.w3.org/2000/svg">
<path d="M8 0H287.681V400H8V0Z" fill="#FFD7AC"/>
<path d="M287.177 0V32C285.682 52 276.193 70.4747 230.245 62C192.293 55 176.808 14 186.297 0H287.177Z" fill="#B56949"/>
<path d="M124.367 1V10C121.87 36.5 97.1093 62.2139 55.4458 57C15.4914 52 8.99878 25 8.99878 1H124.367Z" fill="#B56949"/>
<path d="M256.717 0H218.76L223.754 400H256.717V0Z" fill="#F2946C"/>
<path d="M287.681 201L28.9761 0H57.9431L287.681 170V201Z" fill="#FFEF9C" fill-opacity="0.14"/>
<path d="M75.9226 0H58.9419L34.9692 400H67.9317L75.9226 0Z" fill="#F2946C"/>
<path d="M118.374 399.5L8 186.5V155L162.824 399.5H118.374Z" fill="#FFEF9C" fill-opacity="0.14"/>
<path d="M111.382 400H78.9192L89.4072 0H125.866L111.382 400Z" fill="#DD756E"/>
<path d="M23.4824 400.5H8V0H44.4584L23.4824 400.5Z" fill="#8A4152"/>
<path d="M287.681 400H262.71L270.201 0H287.681V400Z" fill="#DD756E"/>
<path fill-rule="evenodd" clip-rule="evenodd" d="M246.229 400H84.9123C94.0686 355.833 109.884 257.016 109.884 213C109.884 182.595 104.391 145.59 97.4474 108.329L8 52V37L53.9476 66L91.0427 75.5224C89.4379 67.5783 87.8211 59.7091 86.2327 51.9782L86.2316 51.9729C82.4526 33.5801 78.8346 15.9707 75.9226 0H114.254H152.585H190.917H210.769L210.701 0.682331C208.583 22.0645 206.471 43.3899 204.893 65.1882L221.257 54L250.723 0.5H264.707L234.742 68L202.554 111.598C201.907 137.089 202.399 163.64 204.776 192C208.321 234.298 232.411 349.833 246.229 400Z" fill="url(#paint0_linear)"/>
<path d="M184.794 144.106L153.722 127.579C152.984 127.186 152.079 127.297 151.454 127.857L123.907 152.526C123.482 152.906 123.239 153.451 123.239 154.021L123.239 185.206C123.239 185.95 123.65 186.631 124.307 186.975L159.265 205.285C160.004 205.672 160.907 205.557 161.528 204.996L188.965 180.221C189.446 179.786 189.688 179.146 189.614 178.502L185.838 145.641C185.763 144.988 185.373 144.414 184.794 144.106Z" fill="#2F1E3A"/>
<path d="M287.681 287L8 24V3L287.681 261.5V287Z" fill="#FFEF9C" fill-opacity="0.14"/>
<path fill-rule="evenodd" clip-rule="evenodd" d="M261.711 173.5V45H263.709V173.5H261.711Z" fill="#4D513E"/>
<path fill-rule="evenodd" clip-rule="evenodd" d="M30.367 79.1755C39.3737 97.0854 54.7043 111.765 78.9492 112.501C100.442 113.153 116.197 106.732 126.628 92.8314C137.109 78.8621 142.347 57.1713 142.347 27.0001H144.344C144.344 57.329 139.094 79.5473 128.225 94.0326C117.305 108.586 100.846 115.166 78.8887 114.5C53.6897 113.735 37.8056 98.4148 28.5827 80.0748C19.3771 61.7693 16.7271 40.3289 17.9916 26.9062L19.9805 27.094C18.7485 40.1714 21.343 61.231 30.367 79.1755Z" fill="#4D563B"/>
<path fill-rule="evenodd" clip-rule="evenodd" d="M193.83 62.5048C183.324 53.0868 177.587 39.7758 179.299 24.1086L177.313 23.8911C175.529 40.2238 181.529 54.1629 192.498 63.9949C203.448 73.8106 219.306 79.4998 237.239 79.4998C255.29 79.4998 267.692 71.7789 275.367 61.9514C283.008 52.1664 285.965 40.2905 285.18 31.9065L283.191 32.0932C283.926 39.9377 281.14 51.3118 273.793 60.7196C266.479 70.085 254.647 77.4998 237.239 77.4998C219.712 77.4998 204.355 71.9391 193.83 62.5048Z" fill="#4D563B"/>
<path fill-rule="evenodd" clip-rule="evenodd" d="M33.4709 24C33.4711 44.8911 52.4431 65.5 80.4174 65.5C92.0402 65.5 102.781 59.1886 110.652 50.7548C118.54 42.3027 123.368 31.9099 123.368 24H125.366C125.366 32.5901 120.206 43.4474 112.112 52.1202C104.001 60.8114 92.7672 67.5 80.4174 67.5C51.4565 67.5 31.4734 46.109 31.4731 24L33.4709 24Z" fill="#4D563B"/>
<path d="M205.774 257C205.774 281.853 185.65 302 160.826 302C136.001 302 115.877 281.853 115.877 257C115.877 232.147 136.001 212 160.826 212C185.65 212 205.774 232.147 205.774 257Z" fill="url(#paint1_radial)"/>
<path d="M287.681 49.5806V0H182.801C182.801 41.5 243.731 65 287.681 49.5806Z" fill="#43606C"/>
<path d="M8 22V0H122.869C122.869 27.5 39.4641 48.5 8 22Z" fill="#43606C"/>
<path d="M93.4026 0H210.769C210.769 11.5 191.291 32.5 152.335 32.5C113.38 32.5 93.4026 12.5 93.4026 0Z" fill="#43606C"/>
<path d="M142.225 257.604L151.795 229.098C152.271 227.681 154.073 227.268 155.117 228.336L176.941 250.679C177.471 251.221 177.648 252.018 177.399 252.735L167.256 281.86C166.76 283.284 164.928 283.667 163.905 282.561L142.654 259.6C142.157 259.064 141.992 258.298 142.225 257.604Z" fill="#D9E6E8"/>
<path d="M210.689 278.693L209.458 282.534L205.256 282.534L204.844 277.356L206.547 275.282L210.273 275.987L210.689 278.693Z" fill="#1C0E4C"/>
<path d="M223.747 278.282L224.293 282.391L228.303 283.133L229.741 278.142L228.486 275.77L224.694 275.714L223.747 278.282Z" fill="#1C0E4C"/>
<path d="M205.141 282.164L183.076 399.815L276.131 400L227.685 282.164H205.141Z" fill="#1C0E4C"/>
<path d="M212.575 288.406H210.417L207.539 294.409H212.575V288.406Z" fill="#1A2E75"/>
<path d="M184.515 329.705L201.303 305.934V340.029L196.746 352.995L178.759 355.636L165.328 340.029L184.515 329.705Z" fill="#1C0E4C"/>
<path d="M224.806 328.744V309.536L231.042 332.106L206.579 337.868L213.774 351.794H206.579L200.823 335.467L224.806 328.744Z" fill="#1A2E75"/>
<path d="M216.652 287.686C216.652 288.084 216.33 288.406 215.933 288.406C215.535 288.406 215.213 288.084 215.213 287.686C215.213 287.288 215.535 286.966 215.933 286.966C216.33 286.966 216.652 287.288 216.652 287.686Z" fill="#00F3F3"/>
<path d="M208.978 287.686C208.978 288.084 208.655 288.406 208.258 288.406C207.861 288.406 207.539 288.084 207.539 287.686C207.539 287.288 207.861 286.966 208.258 286.966C208.655 286.966 208.978 287.288 208.978 287.686Z" fill="#00F3F3"/>
<path d="M147.581 372.443L191.47 358.757L198.665 399.815H161.011L147.581 372.443Z" fill="#1C0E4C"/>
<path d="M216.892 399.815H209.937L202.982 375.325L223.847 363.319L207.539 376.525L216.892 399.815Z" fill="#1A2E75"/>
<path fill-rule="evenodd" clip-rule="evenodd" d="M158.166 338.682C156.514 334.149 151.854 330.54 145.877 331.719C139.028 333.069 129.142 334.665 117.922 334.673C115.278 337.84 112.161 341.998 111.094 345.53C110.557 347.307 110.551 348.886 111.337 350.102C112.123 351.317 113.736 352.222 116.568 352.567C123.382 353.396 130.097 353.949 136.234 353.834C142.372 353.719 147.92 352.936 152.404 351.104C155.444 349.862 157.29 347.883 158.176 345.66C159.063 343.434 158.992 340.947 158.166 338.682ZM158.518 345.797C157.592 348.122 155.667 350.169 152.544 351.445C148 353.302 142.401 354.087 136.241 354.203C130.079 354.318 123.345 353.763 116.524 352.933C113.644 352.582 111.9 351.65 111.028 350.302C110.156 348.955 110.191 347.245 110.741 345.424C111.84 341.785 115.043 337.54 117.694 334.37L117.75 334.304H117.836C129.058 334.304 138.951 332.708 145.805 331.357C151.988 330.138 156.808 333.879 158.512 338.555C159.365 340.894 159.443 343.476 158.518 345.797Z" fill="#111111"/>
<path d="M112.189 283.166C111.268 277.447 122.139 280.03 121.217 289.622C120.48 293.311 112.189 287.224 112.189 283.166Z" fill="#9A6721"/>
<path d="M113.517 283.863C112.885 280.084 120.337 281.791 119.705 288.13C119.2 290.568 113.517 286.545 113.517 283.863Z" fill="#FBAB7E"/>
<path d="M105.373 283.35C101.319 272.836 89.3432 285.01 98.187 289.437C101.503 290.728 106.478 286.855 105.373 283.35Z" fill="#9A6721"/>
<path d="M103.431 283.769C100.876 277.125 93.3278 284.819 98.9017 287.616C100.992 288.433 104.127 285.984 103.431 283.769Z" fill="#FBAB7E"/>
<path fill-rule="evenodd" clip-rule="evenodd" d="M31.1504 399.926L147.38 399.926C151.065 384.063 140.592 369.626 131.351 356.948C130.584 355.897 129.855 354.878 129.161 353.889C138.093 354.339 146.281 353.805 152.474 351.274C164.799 346.238 158.001 329.14 145.841 331.538C143.872 331.926 141.652 332.335 139.222 332.72C137.439 325.872 129.485 321.039 117.833 325.684C118.203 323.889 118.904 322.235 119.854 320.61C131.264 301.098 125.568 294.209 120.461 288.033L120.458 288.029C120.255 287.784 120.054 287.54 119.854 287.297C114.621 280.914 100.833 282.177 99.0033 287.297C97.6661 291.038 95.8678 293.987 93.4521 297.948C92.5618 299.408 91.5876 301.006 90.5217 302.832C84.7366 311.756 65.5751 337.396 45.1097 352.968C27.0156 367.514 28.2643 390.334 31.1504 399.926Z" fill="url(#paint2_linear)"/>
<path fill-rule="evenodd" clip-rule="evenodd" d="M66.236 335.626C68.2827 331.114 71.6731 326.204 76.3631 321.222L76.6313 321.475C71.9618 326.435 68.5976 331.313 66.5715 335.779C64.5446 340.247 63.8631 344.289 64.5369 347.589C65.2088 350.88 67.2316 353.451 70.662 354.987C74.1008 356.527 78.9626 357.029 85.3013 356.143C89.0288 355.623 92.5417 355.442 96.2309 355.252C104.478 354.827 113.605 354.357 127.981 349.947C136.552 347.317 140.136 339.889 139.092 333.682C138.57 330.579 136.893 327.782 134.103 326.032C131.314 324.282 127.393 323.565 122.362 324.664C108.473 327.698 96.3396 332.492 89.9507 335.017C88.8582 335.449 87.9337 335.814 87.1971 336.093L87.0668 335.748C87.7999 335.47 88.7214 335.106 89.8113 334.675C96.1967 332.152 108.362 327.345 122.284 324.304C127.386 323.189 131.411 323.907 134.299 325.719C137.187 327.531 138.918 330.424 139.455 333.62C140.53 340.011 136.836 347.616 128.089 350.3C113.67 354.723 104.467 355.198 96.2025 355.625C92.5253 355.814 89.0341 355.995 85.3522 356.509C78.9763 357.399 74.0372 356.902 70.5116 355.324C66.9777 353.742 64.8726 351.075 64.1759 347.663C63.4811 344.26 64.1903 340.135 66.236 335.626Z" fill="black"/>
<path fill-rule="evenodd" clip-rule="evenodd" d="M102.68 356.748C93.4742 355.678 73.3027 354.801 55.3708 368.795L55.1443 368.504C73.1921 354.419 93.4859 355.308 102.723 356.382C109.673 357.19 115.416 361.992 117.886 368.248C120.359 374.511 119.552 382.228 113.419 388.856L113.148 388.605C119.185 382.082 119.965 374.516 117.544 368.384C115.12 362.245 109.486 357.539 102.68 356.748ZM93.1224 382.294C89.471 385.498 79.4205 393.538 68.4031 400.085L68.215 399.768C79.2087 393.235 89.2409 385.21 92.8795 382.016L93.1224 382.294Z" fill="black"/>
<path fill-rule="evenodd" clip-rule="evenodd" d="M114.111 388.499C111.904 389.411 109.633 390.35 107.281 391.248L107.149 390.903C109.479 390.014 111.739 389.08 113.942 388.17C118.079 386.461 122.011 384.836 125.814 383.751C131.654 382.085 137.233 381.678 142.863 384.181C144.75 385.019 146.025 386.137 146.863 387.421C147.701 388.703 148.094 390.141 148.236 391.611C148.378 393.08 148.27 394.587 148.098 396.013C148.019 396.663 147.929 397.29 147.842 397.889C147.737 398.616 147.638 399.303 147.573 399.945L147.206 399.908C147.271 399.267 147.373 398.561 147.479 397.821C147.566 397.22 147.656 396.596 147.732 395.968C147.903 394.552 148.008 393.076 147.87 391.647C147.732 390.218 147.351 388.842 146.555 387.622C145.76 386.404 144.543 385.331 142.713 384.518C137.193 382.064 131.71 382.453 125.915 384.106C122.131 385.185 118.233 386.796 114.111 388.499Z" fill="black"/>
<path fill-rule="evenodd" clip-rule="evenodd" d="M90.1245 334.509C91.2195 333.23 92.8692 330.662 94.5313 328.073L94.8413 328.273L94.8315 328.288C93.1804 330.859 91.518 333.448 90.4043 334.749L90.1245 334.509Z" fill="black"/>
<path fill-rule="evenodd" clip-rule="evenodd" d="M101.327 279.061C102.965 279.344 104.516 280.615 105.544 283.284L105.201 283.417C104.203 280.828 102.736 279.679 101.265 279.425C99.7834 279.17 98.2388 279.811 97.0704 280.924C95.9022 282.038 95.1376 283.598 95.1928 285.133C95.2476 286.656 96.1093 288.191 98.2694 289.272L98.1046 289.602C95.8427 288.47 94.8849 286.824 94.8246 285.147C94.7647 283.483 95.5893 281.827 96.8163 280.657C98.043 279.488 99.6997 278.781 101.327 279.061Z" fill="black"/>
<path fill-rule="evenodd" clip-rule="evenodd" d="M113.331 280.251C112.362 280.779 111.816 281.891 112.006 283.555L112.372 283.513C112.194 281.95 112.708 281.01 113.507 280.575C114.322 280.131 115.495 280.177 116.696 280.728C119.086 281.824 121.487 284.884 121.034 289.604L121.401 289.639C121.869 284.767 119.387 281.556 116.849 280.392C115.586 279.813 114.283 279.732 113.331 280.251Z" fill="black"/>
<path d="M121.217 296.262L125.639 294.971C125.639 294.971 124.626 292.204 122.876 289.991C121.125 287.777 117.348 285.01 117.348 285.01L121.217 296.262Z" fill="#C68731"/>
<path d="M114.216 289.253C114.216 289.864 113.721 290.359 113.11 290.359C112.5 290.359 112.005 289.864 112.005 289.253C112.005 288.641 112.5 288.146 113.11 288.146C113.721 288.146 114.216 288.641 114.216 289.253Z" fill="#111111"/>
<path fill-rule="evenodd" clip-rule="evenodd" d="M85.6207 310.208C77.3307 321.151 62.1837 339.676 50.7634 348.425C40.1915 356.524 34.323 364.749 31.6425 373.236C28.9615 381.724 29.4627 390.495 31.6691 399.699L31.3108 399.785C29.0953 390.543 28.583 381.699 31.2912 373.125C33.9998 364.549 39.9231 356.265 50.5395 348.132C61.9151 339.417 77.035 320.931 85.3271 309.985L85.6207 310.208Z" fill="black"/>
<path fill-rule="evenodd" clip-rule="evenodd" d="M113.242 357.601C112.626 359.314 113.003 361.329 115.085 363.459L114.822 363.717C112.667 361.513 112.22 359.354 112.895 357.476C113.563 355.617 115.314 354.083 117.448 353.069C119.585 352.053 122.135 351.544 124.446 351.758C126.757 351.972 128.853 352.912 130.034 354.822C130.673 355.855 131.664 357.267 132.864 358.977C133.268 359.553 133.696 360.163 134.142 360.803C135.91 363.341 137.959 366.354 139.936 369.632C143.885 376.183 147.561 383.819 148.117 390.873L147.75 390.902C147.201 383.938 143.564 376.364 139.62 369.823C137.65 366.555 135.606 363.55 133.84 361.014C133.397 360.379 132.972 359.772 132.569 359.198C131.366 357.485 130.366 356.059 129.721 355.016C128.621 353.237 126.652 352.333 124.412 352.125C122.173 351.918 119.689 352.412 117.606 353.402C115.519 354.394 113.864 355.869 113.242 357.601Z" fill="black"/>
<path fill-rule="evenodd" clip-rule="evenodd" d="M117.362 384.081C117.236 383.802 117.072 383.596 116.885 383.483L117.075 383.167C117.348 383.331 117.553 383.609 117.698 383.929C117.843 384.251 117.934 384.629 117.97 385.014C118.041 385.775 117.903 386.615 117.492 387.13L117.205 386.899C117.531 386.491 117.67 385.764 117.603 385.049C117.57 384.696 117.487 384.359 117.362 384.081Z" fill="black"/>
<path d="M125.271 294.971L120.849 296.262L125.271 299.582C126.192 299.582 127.187 299.287 126.744 297.369C126.302 295.45 125.578 294.971 125.271 294.971Z" fill="black"/>
<path fill-rule="evenodd" clip-rule="evenodd" d="M120.078 304.918C119.107 304.567 117.987 303.935 116.692 303.055L116.899 302.75C118.184 303.623 119.275 304.235 120.203 304.571C121.132 304.906 121.879 304.957 122.491 304.735C123.1 304.514 123.611 304.01 124.041 303.157C124.473 302.301 124.814 301.111 125.089 299.55L125.452 299.614C124.916 302.655 124.877 304.607 125.094 305.583C125.148 305.826 125.216 305.995 125.286 306.103C125.356 306.211 125.417 306.241 125.459 306.248C125.503 306.255 125.575 306.243 125.68 306.163C125.785 306.084 125.907 305.95 126.039 305.752L126.345 305.956C126.201 306.173 126.053 306.344 125.902 306.458C125.752 306.571 125.581 306.64 125.403 306.613C125.223 306.584 125.082 306.465 124.978 306.305C124.874 306.145 124.794 305.928 124.735 305.663C124.591 305.02 124.555 304.017 124.671 302.639C124.576 302.885 124.476 303.113 124.37 303.323C123.914 304.227 123.343 304.818 122.616 305.082C121.892 305.344 121.05 305.268 120.078 304.918Z" fill="black"/>
<path fill-rule="evenodd" clip-rule="evenodd" d="M116.4 334.303C118.248 339.244 123.317 344.909 131.641 348.949L131.654 348.956L131.654 348.955C145.556 355.225 156.305 357.532 164.883 357.414C173.471 357.295 179.852 354.745 185.01 351.355C188.486 349.071 191.414 346.397 194.073 343.853C195.502 344.89 196.979 346.119 198.475 347.445C200.122 348.904 201.771 350.462 203.394 351.995C204.314 352.864 205.225 353.724 206.123 354.555C208.587 356.834 210.946 358.883 213.015 360.138C214.05 360.766 215.044 361.216 215.967 361.385C216.902 361.556 217.788 361.442 218.547 360.909C219.267 360.405 219.898 359.548 220.428 358.499C220.963 357.441 221.416 356.144 221.758 354.71C222.442 351.842 222.696 348.373 222.25 345.058C221.805 341.748 220.654 338.54 218.481 336.249C216.289 333.94 213.106 332.615 208.726 333.002C204.295 333.393 200.719 336.197 197.045 339.626C196.249 340.368 195.448 341.141 194.63 341.93C194.413 342.139 194.195 342.349 193.976 342.56C193.144 341.987 192.325 341.479 191.524 341.057L191.059 341.942C191.767 342.316 192.496 342.762 193.239 343.267C190.635 345.754 187.816 348.315 184.462 350.519C179.444 353.817 173.246 356.298 164.869 356.414C156.483 356.53 145.884 354.275 132.071 348.047C123.917 344.087 119.071 338.592 117.335 333.952C116.466 331.63 116.391 329.567 117.003 328.015C117.605 326.489 118.902 325.382 120.964 324.991L120.779 324.008C118.418 324.455 116.816 325.767 116.074 327.648C115.342 329.503 115.476 331.835 116.4 334.303ZM194.805 343.15C194.991 342.972 195.175 342.794 195.358 342.617C196.166 341.838 196.953 341.079 197.726 340.358C201.402 336.927 204.755 334.356 208.814 333.998C212.924 333.635 215.797 334.873 217.757 336.938C219.735 339.023 220.831 342.002 221.26 345.192C221.689 348.376 221.444 351.72 220.786 354.477C220.458 355.855 220.028 357.075 219.537 358.048C219.041 359.029 218.502 359.72 217.974 360.09C217.485 360.433 216.888 360.537 216.147 360.402C215.394 360.264 214.519 359.882 213.533 359.283C211.56 358.086 209.268 356.103 206.801 353.82C205.919 353.005 205.016 352.151 204.099 351.286C202.466 349.744 200.794 348.164 199.137 346.696C197.685 345.409 196.231 344.195 194.805 343.15Z" fill="#FFD12D"/>
<path fill-rule="evenodd" clip-rule="evenodd" d="M183.458 274.525C194.229 278.12 199.801 290.393 198.278 301.07C195.275 322.115 173.036 346.03 138.792 341.996L138.909 341.003C172.588 344.97 194.359 321.463 197.289 300.929C198.762 290.606 193.347 278.879 183.142 275.474L183.458 274.525Z" fill="#FFD12D"/>
<path fill-rule="evenodd" clip-rule="evenodd" d="M134.629 299.054C134.537 292.778 136.379 286.768 140.495 282.646L141.202 283.354C137.327 287.232 135.538 292.951 135.628 299.039C135.717 305.125 137.686 311.528 141.259 316.716C146.153 323.819 155.454 328.152 165.237 331.591C168.375 332.694 171.539 333.697 174.61 334.671C176.32 335.214 178.001 335.747 179.632 336.283C184.175 337.775 188.325 339.287 191.533 341.062L191.05 341.938C187.932 340.213 183.862 338.725 179.321 337.233C177.71 336.704 176.038 336.173 174.332 335.632C171.25 334.655 168.056 333.642 164.906 332.534C155.128 329.098 145.533 324.681 140.437 317.284C136.749 311.93 134.721 305.333 134.629 299.054Z" fill="#FFD12D"/>
<path d="M232.744 400L8 93V69L288 343.5V400H232.744Z" fill="#FFEF9C" fill-opacity="0.14"/>
<path d="M258.537 346.344C278.629 359.586 290.677 392.9 291.854 401.144H289.852C277.511 394.473 255.28 378.67 242.252 367.765C223.474 352.048 220.08 336.997 217.137 328.428C222.565 328.883 238.445 333.102 258.537 346.344Z" fill="#43606C"/>
<path fill-rule="evenodd" clip-rule="evenodd" d="M271.621 389.18L287.632 395.518L287.403 396.097L271.392 389.759L271.621 389.18Z" fill="#173E4F"/>
<path fill-rule="evenodd" clip-rule="evenodd" d="M256.932 378.167L280.281 386.173L280.079 386.762L256.73 378.756L256.932 378.167Z" fill="#173E4F"/>
<path fill-rule="evenodd" clip-rule="evenodd" d="M243.239 367.488L271.591 375.494L271.422 376.093L243.07 368.087L243.239 367.488Z" fill="#173E4F"/>
<path fill-rule="evenodd" clip-rule="evenodd" d="M230.564 355.147L262.252 364.153L262.082 364.752L230.394 355.746L230.564 355.147Z" fill="#173E4F"/>
<path fill-rule="evenodd" clip-rule="evenodd" d="M224.563 345.141L250.581 352.813L250.405 353.41L224.387 345.738L224.563 345.141Z" fill="#173E4F"/>
<path fill-rule="evenodd" clip-rule="evenodd" d="M219.575 335.473L238.588 342.144L238.381 342.731L219.369 336.06L219.575 335.473Z" fill="#173E4F"/>
<path fill-rule="evenodd" clip-rule="evenodd" d="M278.868 370.816L280.203 386.827L280.823 386.775L279.489 370.764L278.868 370.816Z" fill="#173E4F"/>
<path fill-rule="evenodd" clip-rule="evenodd" d="M270.862 359.116V375.46H271.484V359.116H270.862Z" fill="#173E4F"/>
<path fill-rule="evenodd" clip-rule="evenodd" d="M261.523 349.129L262.524 364.806L263.145 364.766L262.144 349.089L261.523 349.129Z" fill="#173E4F"/>
<path fill-rule="evenodd" clip-rule="evenodd" d="M250.183 341.797L251.184 353.472L251.804 353.419L250.804 341.744L250.183 341.797Z" fill="#173E4F"/>
<path fill-rule="evenodd" clip-rule="evenodd" d="M234.865 334.561L238.201 341.9L238.768 341.642L235.432 334.304L234.865 334.561Z" fill="#173E4F"/>
<path fill-rule="evenodd" clip-rule="evenodd" d="M286.207 386.165L287.208 396.172L287.827 396.11L286.827 386.103L286.207 386.165Z" fill="#173E4F"/>
<path fill-rule="evenodd" clip-rule="evenodd" d="M261.272 363.998C247.277 349.003 231.963 336.357 217 329.042L217.273 328.482C232.33 335.844 247.704 348.548 261.728 363.573C270.528 373.002 285.987 392.617 291.444 400.636L290.929 400.986C285.49 392.993 270.05 373.403 261.272 363.998Z" fill="#173E4F"/>
<path fill-rule="evenodd" clip-rule="evenodd" d="M24.5726 327.394C25.0566 325.569 25.5269 323.795 25.9648 321.952L23.9618 321.476C23.5339 323.277 23.0702 325.025 22.5901 326.835C20.777 333.671 18.7311 341.384 17.5036 356.114C16.4019 369.334 16.8227 380.476 17.1881 390.149C17.3364 394.075 17.4756 397.76 17.5001 401.243L19.5589 401.229C19.5337 397.646 19.3921 393.904 19.2423 389.942C18.878 380.307 18.4645 369.375 19.5554 356.285C20.7667 341.748 22.7649 334.212 24.5726 327.394Z" fill="#43606C"/>
<path fill-rule="evenodd" clip-rule="evenodd" d="M8.92646 338.557C8.92635 338.557 8.92626 338.557 7.97786 338.957C7.02945 339.357 7.02939 339.357 7.02935 339.357L7.02959 339.358L7.03119 339.361L7.0387 339.379C7.04559 339.396 7.05624 339.422 7.07047 339.457C7.09892 339.526 7.1417 339.632 7.19742 339.774C7.30889 340.057 7.47215 340.482 7.67626 341.042C8.08449 342.163 8.65604 343.825 9.30332 345.977C10.598 350.28 12.1949 356.538 13.3942 364.334C13.6269 365.846 13.852 367.297 14.0689 368.695C16.1076 381.837 17.4231 390.317 17.5001 401.244L19.5588 401.229C19.4808 390.144 18.1416 381.513 16.1066 368.4C15.8885 366.995 15.6625 365.538 15.4291 364.021C14.2133 356.118 12.5933 349.766 11.2748 345.384C10.6156 343.192 10.0315 341.493 9.61076 340.338C9.40038 339.76 9.23082 339.319 9.11307 339.02C9.0542 338.87 9.00828 338.756 8.97669 338.679C8.96089 338.64 8.94868 338.61 8.94021 338.59L8.93036 338.566L8.92758 338.56L8.92646 338.557Z" fill="#43606C"/>
<path fill-rule="evenodd" clip-rule="evenodd" d="M31.0225 350.757L30.1102 350.28C29.1979 349.803 29.1978 349.804 29.1977 349.804L29.1929 349.813L29.1795 349.839C29.1678 349.861 29.1506 349.894 29.1282 349.938C29.0833 350.025 29.0176 350.153 28.9332 350.319C28.7644 350.651 28.5211 351.135 28.2213 351.744C27.6219 352.963 26.7962 354.688 25.8895 356.711C24.0802 360.75 21.9315 366.019 20.6238 370.857C18.0154 380.508 17.4139 389.02 17.5 401.243L19.5588 401.229C19.4733 389.09 20.0725 380.788 22.6113 371.394C23.8771 366.711 25.9747 361.557 27.7684 357.553C28.6631 355.556 29.478 353.854 30.0689 352.653C30.3642 352.052 30.6034 351.577 30.7684 351.252C30.8509 351.09 30.9148 350.965 30.9579 350.882C30.9795 350.84 30.9958 350.808 31.0067 350.788L31.0188 350.764L31.0225 350.757Z" fill="#43606C"/>
<ellipse rx="4.63235" ry="4.88971" transform="matrix(-1 0 0 1 30.3676 350.538)" fill="#FD39A1"/>
<circle r="2.31618" transform="matrix(-1 0 0 1 30.1103 350.537)" fill="#99155B"/>
<ellipse rx="6.94853" ry="7.20588" transform="matrix(-1 0 0 1 6.94844 334.325)" fill="#FD39A1"/>
<circle r="3.60294" transform="matrix(-1 0 0 1 6.691 334.324)" fill="#99155B"/>
<ellipse rx="8.75" ry="9.00735" transform="matrix(-1 0 0 1 26.25 315.538)" fill="#FD39A1"/>
<circle r="4.375" transform="matrix(-1 0 0 1 25.9927 315.538)" fill="#99155B"/>
<path d="M50.7058 355.361C34.6008 365.975 24.9441 392.678 24.0004 399.286H25.6046C35.4973 393.939 53.3166 381.272 63.7596 372.531C78.8109 359.932 81.5317 347.868 83.8909 341C79.5396 341.364 66.8108 344.746 50.7058 355.361Z" fill="#43606C"/>
<path fill-rule="evenodd" clip-rule="evenodd" d="M40.2177 389.696L27.384 394.776L27.5677 395.24L40.4014 390.16L40.2177 389.696Z" fill="#173E4F"/>
<path fill-rule="evenodd" clip-rule="evenodd" d="M51.9922 380.869L33.2764 387.286L33.4383 387.758L52.1541 381.341L51.9922 380.869Z" fill="#173E4F"/>
<path fill-rule="evenodd" clip-rule="evenodd" d="M62.9674 372.309L40.2411 378.726L40.3767 379.206L63.103 372.789L62.9674 372.309Z" fill="#173E4F"/>
<path fill-rule="evenodd" clip-rule="evenodd" d="M73.1272 362.417L47.7273 369.635L47.8637 370.116L73.2637 362.897L73.1272 362.417Z" fill="#173E4F"/>
<path fill-rule="evenodd" clip-rule="evenodd" d="M77.9379 354.396L57.0832 360.546L57.2244 361.025L78.0791 354.875L77.9379 354.396Z" fill="#173E4F"/>
<path fill-rule="evenodd" clip-rule="evenodd" d="M81.9366 346.646L66.6966 351.994L66.8618 352.465L82.1018 347.117L81.9366 346.646Z" fill="#173E4F"/>
<path fill-rule="evenodd" clip-rule="evenodd" d="M34.4089 374.977L33.3394 387.81L32.842 387.769L33.9115 374.935L34.4089 374.977Z" fill="#173E4F"/>
<path fill-rule="evenodd" clip-rule="evenodd" d="M40.8267 365.598V378.699H40.3276V365.598H40.8267Z" fill="#173E4F"/>
<path fill-rule="evenodd" clip-rule="evenodd" d="M48.3117 357.593L47.5095 370.159L47.0115 370.127L47.8136 357.561L48.3117 357.593Z" fill="#173E4F"/>
<path fill-rule="evenodd" clip-rule="evenodd" d="M57.4017 351.716L56.5996 361.074L56.1023 361.031L56.9044 351.673L57.4017 351.716Z" fill="#173E4F"/>
<path fill-rule="evenodd" clip-rule="evenodd" d="M69.6803 345.916L67.0066 351.798L66.5522 351.592L69.2259 345.709L69.6803 345.916Z" fill="#173E4F"/>
<path fill-rule="evenodd" clip-rule="evenodd" d="M28.526 387.28L27.7239 395.301L27.2273 395.251L28.0294 387.23L28.526 387.28Z" fill="#173E4F"/>
<path fill-rule="evenodd" clip-rule="evenodd" d="M48.5129 369.512C59.7309 357.492 72.0059 347.356 84 341.492L83.7808 341.043C71.7118 346.944 59.3889 357.127 48.148 369.171C41.0943 376.729 28.7024 392.452 24.3284 398.879L24.741 399.16C29.1011 392.753 41.4772 377.05 48.5129 369.512Z" fill="#173E4F"/>
<path fill-rule="evenodd" clip-rule="evenodd" d="M271.605 319.218C271.159 317.537 270.726 315.903 270.323 314.206L272.168 313.767C272.562 315.426 272.989 317.036 273.431 318.703C275.101 325 276.986 332.105 278.116 345.673C279.131 357.851 278.744 368.114 278.407 377.024C278.27 380.641 278.142 384.035 278.12 387.244L276.223 387.23C276.247 383.93 276.377 380.483 276.515 376.833C276.85 367.958 277.231 357.888 276.227 345.831C275.111 332.44 273.27 325.499 271.605 319.218Z" fill="#43606C"/>
<path fill-rule="evenodd" clip-rule="evenodd" d="M286.017 329.501C286.017 329.501 286.017 329.501 286.891 329.869C287.765 330.238 287.765 330.238 287.765 330.238L287.765 330.238L287.763 330.242L287.756 330.258C287.75 330.274 287.74 330.297 287.727 330.33C287.701 330.394 287.661 330.491 287.61 330.622C287.507 330.883 287.357 331.274 287.169 331.79C286.793 332.823 286.266 334.354 285.67 336.336C284.478 340.299 283.007 346.064 281.902 353.245C281.688 354.638 281.48 355.975 281.28 357.262C279.402 369.367 278.191 377.179 278.12 387.244L276.223 387.23C276.295 377.019 277.529 369.07 279.403 356.99C279.604 355.696 279.812 354.354 280.027 352.957C281.147 345.677 282.64 339.826 283.854 335.789C284.461 333.771 284.999 332.205 285.387 331.141C285.581 330.609 285.737 330.202 285.845 329.927C285.9 329.789 285.942 329.684 285.971 329.613C285.986 329.577 285.997 329.55 286.005 329.531L286.014 329.51L286.016 329.503L286.017 329.501Z" fill="#43606C"/>
<path fill-rule="evenodd" clip-rule="evenodd" d="M265.664 340.739L266.504 340.3C267.345 339.861 267.345 339.861 267.345 339.861L267.349 339.869L267.361 339.893C267.372 339.914 267.388 339.944 267.409 339.984C267.45 340.065 267.511 340.183 267.588 340.335C267.744 340.641 267.968 341.087 268.244 341.648C268.796 342.771 269.557 344.36 270.392 346.224C272.059 349.944 274.038 354.797 275.242 359.254C277.645 368.144 278.199 375.984 278.12 387.244L276.223 387.23C276.302 376.048 275.75 368.401 273.412 359.749C272.246 355.435 270.314 350.687 268.661 346.999C267.837 345.159 267.086 343.592 266.542 342.485C266.27 341.932 266.05 341.494 265.898 341.195C265.822 341.045 265.763 340.931 265.723 340.854C265.703 340.815 265.688 340.786 265.678 340.767L265.667 340.746L265.664 340.739Z" fill="#43606C"/>
<ellipse cx="266.267" cy="340.537" rx="4.26702" ry="4.50408" fill="#FD39A1"/>
<circle cx="266.504" cy="340.537" r="2.13351" fill="#99155B"/>
<ellipse cx="287.839" cy="325.602" rx="6.40053" ry="6.63759" fill="#FD39A1"/>
<circle cx="288.076" cy="325.602" r="3.3188" fill="#99155B"/>
<ellipse cx="270.06" cy="308.297" rx="8.05993" ry="8.29699" fill="#FD39A1"/>
<circle cx="270.297" cy="308.297" r="4.02997" fill="#99155B"/>
<path d="M60 338.534L47.6471 401.789H39.4118H30.5882H0V380.802L7.35294 400.04L13.5294 354.567L18.2353 400.04L28.8235 326L30.5882 401.789L44.4118 332.996L39.4118 401.789L60 338.534Z" fill="#59787D"/>
<path d="M237 338.534L249.353 401.789H257.588H266.412H297V380.802L289.647 400.04L283.471 354.567L278.765 400.04L268.176 326L266.412 401.789L252.588 332.996L257.588 401.789L237 338.534Z" fill="#59787D"/>
<path d="M84.9213 391.201L90 401.797H30V371.541L46.4173 397.676L42.2835 354L62.2441 397.676L55.748 356.119L69.5669 397.676L65.0787 358.944L77.4803 397.676L76.6535 370.717L84.9213 399.56V391.201Z" fill="#80886F"/>
<path d="M210.079 391.201L205 401.797H265V371.541L248.583 397.676L252.717 354L232.756 397.676L239.252 356.119L225.433 397.676L229.921 358.944L217.52 397.676L218.346 370.717L210.079 399.56V391.201Z" fill="#80886F"/>
<defs>
<linearGradient id="paint0_linear" x1="164.933" y1="0.499375" x2="164.933" y2="399.5" gradientUnits="userSpaceOnUse">
<stop stop-color="#5B3157"/>
<stop offset="1" stop-color="#36305D"/>
</linearGradient>
<radialGradient id="paint1_radial" cx="0" cy="0" r="1" gradientUnits="userSpaceOnUse" gradientTransform="translate(160.826 257) rotate(90) scale(45 44.9488)">
<stop stop-color="#43606C" stop-opacity="0.65"/>
<stop offset="1" stop-color="#43606C" stop-opacity="0"/>
</radialGradient>
<linearGradient id="paint2_linear" x1="94.2305" y1="282.97" x2="94.2305" y2="399.926" gradientUnits="userSpaceOnUse">
<stop stop-color="#9A6721"/>
<stop offset="1" stop-color="#822D0E"/>
</linearGradient>
</defs>
</svg>
