<svg width="499" height="601" viewBox="0 0 499 601" fill="none" xmlns="http://www.w3.org/2000/svg">
<rect x="8" width="480" height="599.874" fill="#FFD7AC"/>
<path d="M374 37.9922L396 599.874H308.615L295 37.9922H374Z" fill="#DD756E"/>
<path d="M339.017 292.923L303.047 308.657L299.823 428.53L295.783 599.848H473V502.271V428.53L339.017 292.923Z" fill="#1C0E4D"/>
<path d="M306.78 300.773C310.046 301.548 311.919 308.029 311.919 308.029L304.263 315.517C304.263 315.517 298.396 313.285 297.79 310.424C297.183 307.562 297.495 305.502 299.681 303.65C301.866 301.797 303.514 299.998 306.78 300.773Z" fill="#1C0E4C"/>
<path d="M332.533 318.807L339.9 321.78L321.04 328.832L323.567 322.583L332.533 318.807Z" fill="#301D70"/>
<path d="M330.718 291.631C329.352 293.994 332.291 300.823 332.291 300.823L341.957 300.298C341.957 300.298 343.514 293.206 342.632 291.631C341.749 290.055 340.816 288.479 337.012 288.216C333.207 287.954 332.083 289.267 330.718 291.631Z" fill="#1C0E4C"/>
<ellipse cx="314.673" cy="318.994" rx="1.56829" ry="2.37048" fill="#00F3F3"/>
<ellipse cx="335.845" cy="310.303" rx="2.35244" ry="1.58032" fill="#00F3F3"/>
<path d="M148.892 40.9912L99 597.874H156.123L193 40.9912H148.892Z" fill="#DD756E"/>
<path d="M488 597.875L8 190.008V165.965L488 563.528V597.875Z" fill="#FFEF9C" fill-opacity="0.14"/>
<path d="M488 379.265L8 14.9974V2.5L488 344.928V379.265Z" fill="#FFEF9C" fill-opacity="0.14"/>
<path d="M90.3158 64.9863L59 599.874H95.8421L129 64.9863H90.3158Z" fill="#F2946C"/>
<path d="M109.291 312.665L58.5455 416.263L47 600H244.133L185.125 396.287L143.415 313.826L109.291 312.665Z" fill="#1C0E4C"/>
<path d="M124.278 336.358L118.514 341.004L137.189 342.165L133.27 337.287L124.278 336.358Z" fill="#301D70"/>
<path d="M136.728 308.253L134.192 318.706L140.878 323.119L150.793 313.595L145.72 306.395L136.728 308.253Z" fill="#1C0E4C"/>
<path d="M115.517 307.322L118.053 317.775L111.366 322.188L101.452 312.665L106.525 305.464L115.517 307.322Z" fill="#1C0E4C"/>
<ellipse rx="1.84646" ry="1.85673" transform="matrix(0.928057 0.372438 -0.367692 0.929948 116.453 330.393)" fill="#00F3F3"/>
<ellipse rx="1.84646" ry="1.85673" transform="matrix(0.928057 0.372438 -0.367692 0.929948 137.176 330.708)" fill="#00F3F3"/>
<path d="M398.761 63.9868L374 599.874H414.783L441 63.9868H398.761Z" fill="#F2946C"/>
<path d="M177.506 445.513C175.375 466.362 148.211 570.472 127.572 599.874H335.594C311.626 528.373 281.999 404.706 281.999 355.925C281.999 332.252 287.78 36.5095 289.999 7.99817L239.77 7.9982L182 7.99805C180.003 61.0112 179.636 424.664 177.506 445.513Z" fill="#8A4152"/>
<path d="M217.039 371.851L123 599.615H343L257.588 371.851H217.039Z" fill="#1C0E4C"/>
<path d="M221.784 364.949L223.078 372.282L216.608 375.733L211.431 367.968L212.294 363.223L218.764 361.066L221.784 364.949Z" fill="#1C0E4C"/>
<path d="M252.843 364.949L251.549 372.282L258.019 375.733L263.196 367.968L262.333 363.223L255.862 361.066L252.843 364.949Z" fill="#1C0E4C"/>
<path d="M239.903 381.341H233.001L229.55 392.557H243.354L239.903 381.341Z" fill="#1A2E75"/>
<circle cx="247.235" cy="383.066" r="1.72549" fill="#00F3F3"/>
<circle cx="225.667" cy="383.066" r="1.72549" fill="#00F3F3"/>
<path d="M241.196 479.263C244.885 467.859 267.079 467.184 267.079 467.184C267.079 467.184 255.222 469.686 251.118 479.263C244.093 495.655 247.667 507.302 247.667 507.302C247.667 507.302 236.451 493.929 241.196 479.263Z" fill="#1A2E75"/>
<path d="M229.119 479.263C225.43 467.859 203.236 467.184 203.236 467.184C203.236 467.184 215.093 469.686 219.197 479.263C226.222 495.655 222.648 507.302 222.648 507.302C222.648 507.302 233.864 493.929 229.119 479.263Z" fill="#1A2E75"/>
<path d="M62.2286 480.099L94.9143 599.874H8V381.285V193.388V1H106.8L112 60.8874L62.2286 111.792V480.099Z" fill="url(#paint0_linear)"/>
<path d="M425.494 344.062L359.56 599.874H488V384.204V198.817V8.99805L328 18.5998L357.358 73.9944L440.294 90.2435L425.494 344.062Z" fill="url(#paint1_linear)"/>
<path d="M431.771 340.002L453.108 321.257L481.953 338.88L480.139 367.762L448.363 387.273L429.386 369.933L431.771 340.002Z" fill="#2F1E3A"/>
<path d="M487.5 487.99L8 99.0361V50.9893L487.5 409.914V487.99Z" fill="#FFEF9C" fill-opacity="0.14"/>
<path d="M488 290.94L96 8.2489L119.802 3L488 257.947V290.94Z" fill="#FFEF9C" fill-opacity="0.14"/>
<path d="M487 128.474L241 3H263.32L487 95.4806V128.474Z" fill="#FFEF9C" fill-opacity="0.14"/>
<path d="M338 599.874L8 231.112V159.966L488 564.881V599.874H338Z" fill="#FFEF9C" fill-opacity="0.14"/>
<path d="M345.161 74.9843C423.005 74.9843 467.594 42.083 488 22.9544V0H160C198.04 25.2498 267.318 74.9843 345.161 74.9843Z" fill="#43606C"/>
<path d="M141.174 68.4186C72.844 71.9093 30.312 58.6445 8 46.0778V0H312C276.905 23.0389 209.505 64.9278 141.174 68.4186Z" fill="#43606C"/>
<path fill-rule="evenodd" clip-rule="evenodd" d="M470.917 515.845C470.364 513.758 469.827 511.731 469.326 509.625L471.615 509.081C472.104 511.139 472.634 513.137 473.183 515.206C475.255 523.018 477.593 531.833 478.996 548.667C480.255 563.776 479.774 576.509 479.357 587.564C479.187 592.052 479.028 596.262 479 600.244L476.647 600.227C476.676 596.132 476.838 591.855 477.009 587.328C477.425 576.316 477.898 563.822 476.651 548.863C475.267 532.249 472.983 523.636 470.917 515.845Z" fill="#43606C"/>
<path fill-rule="evenodd" clip-rule="evenodd" d="M488.798 528.602C488.798 528.602 488.798 528.602 489.882 529.059C490.966 529.516 490.966 529.516 490.966 529.516L490.966 529.517L490.964 529.521L490.956 529.542C490.948 529.561 490.936 529.59 490.919 529.63C490.887 529.71 490.838 529.831 490.774 529.993C490.647 530.316 490.46 530.802 490.227 531.442C489.761 532.723 489.107 534.623 488.368 537.082C486.888 542 485.063 549.152 483.692 558.061C483.426 559.79 483.169 561.448 482.921 563.046C480.591 578.065 479.088 587.756 479 600.244L476.647 600.227C476.736 587.558 478.267 577.695 480.592 562.708C480.842 561.102 481.1 559.437 481.367 557.704C482.756 548.672 484.608 541.412 486.114 536.404C486.868 533.899 487.535 531.957 488.016 530.637C488.257 529.977 488.45 529.472 488.585 529.131C488.652 528.96 488.705 528.83 488.741 528.741C488.759 528.697 488.773 528.663 488.783 528.64L488.794 528.613L488.797 528.605L488.798 528.602Z" fill="#43606C"/>
<path fill-rule="evenodd" clip-rule="evenodd" d="M463.545 542.545L464.588 542C465.631 541.455 465.631 541.455 465.631 541.455L465.636 541.466L465.652 541.495C465.665 541.521 465.685 541.559 465.71 541.608C465.762 541.708 465.837 541.854 465.933 542.044C466.126 542.423 466.404 542.976 466.747 543.673C467.432 545.066 468.375 547.037 469.412 549.35C471.479 553.965 473.935 559.987 475.43 565.516C478.411 576.546 479.098 586.274 479 600.243L476.647 600.227C476.744 586.353 476.06 576.866 473.158 566.13C471.712 560.778 469.314 554.887 467.264 550.312C466.242 548.029 465.31 546.084 464.635 544.711C464.298 544.024 464.024 543.481 463.836 543.11C463.741 542.925 463.668 542.783 463.619 542.687C463.595 542.639 463.576 542.603 463.563 542.579L463.55 542.553L463.545 542.545Z" fill="#43606C"/>
<ellipse cx="464.294" cy="542.294" rx="5.29412" ry="5.58824" fill="#FD39A1"/>
<circle cx="464.588" cy="542.294" r="2.64706" fill="#99155B"/>
<ellipse cx="491.059" cy="523.765" rx="7.94118" ry="8.23529" fill="#FD39A1"/>
<circle cx="491.353" cy="523.765" r="4.11765" fill="#99155B"/>
<ellipse cx="469" cy="502.294" rx="10" ry="10.2941" fill="#FD39A1"/>
<circle cx="469.294" cy="502.294" r="5" fill="#99155B"/>
<path fill-rule="evenodd" clip-rule="evenodd" d="M11.9173 514.845C11.3642 512.758 10.8266 510.731 10.3262 508.625L12.6154 508.081C13.1044 510.139 13.6344 512.137 14.183 514.206C16.2551 522.018 18.5933 530.833 19.9961 547.667C21.2552 562.776 20.7743 575.509 20.3567 586.564C20.1872 591.052 20.0282 595.262 20.0002 599.244L17.6473 599.227C17.6761 595.132 17.8379 590.855 18.0091 586.328C18.4255 575.316 18.898 562.822 17.6513 547.863C16.2669 531.249 13.9832 522.636 11.9173 514.845Z" fill="#43606C"/>
<path fill-rule="evenodd" clip-rule="evenodd" d="M29.7983 527.602C29.7984 527.602 29.7985 527.602 30.8824 528.059C31.9663 528.516 31.9663 528.516 31.9664 528.516L31.9661 528.517L31.9643 528.521L31.9557 528.542C31.9478 528.561 31.9357 528.59 31.9194 528.63C31.8869 528.71 31.838 528.831 31.7743 528.993C31.6469 529.316 31.4603 529.802 31.2271 530.442C30.7605 531.723 30.1073 533.623 29.3676 536.082C27.888 541 26.0629 548.152 24.6922 557.061C24.4263 558.79 24.1691 560.448 23.9212 562.046C21.5913 577.065 20.0878 586.756 19.9999 599.244L17.647 599.227C17.7362 586.558 19.2667 576.695 21.5924 561.708C21.8416 560.102 22.1 558.437 22.3666 556.704C23.7561 547.672 25.6076 540.412 27.1144 535.404C27.8679 532.899 28.5354 530.957 29.0162 529.637C29.2566 528.977 29.4504 528.472 29.585 528.131C29.6523 527.96 29.7048 527.83 29.7409 527.741C29.7589 527.697 29.7729 527.663 29.7825 527.64L29.7938 527.613L29.797 527.605L29.7983 527.602Z" fill="#43606C"/>
<path fill-rule="evenodd" clip-rule="evenodd" d="M4.54541 541.545L5.58804 541C6.63066 540.455 6.63073 540.455 6.63082 540.455L6.63629 540.466L6.6516 540.495C6.66498 540.521 6.68465 540.559 6.71029 540.608C6.76156 540.708 6.83672 540.854 6.93317 541.044C7.12605 541.423 7.40414 541.976 7.74673 542.673C8.43176 544.066 9.37544 546.037 10.4117 548.35C12.4794 552.965 14.9351 558.987 16.4296 564.516C19.4106 575.546 20.098 585.274 19.9996 599.243L17.6467 599.227C17.7445 585.353 17.0596 575.866 14.1582 565.13C12.7115 559.778 10.3143 553.887 8.26439 549.312C7.24182 547.029 6.3105 545.084 5.63523 543.711C5.29767 543.024 5.0243 542.481 4.83574 542.11C4.74147 541.925 4.66842 541.783 4.61917 541.687C4.59455 541.639 4.57587 541.603 4.56347 541.579L4.54962 541.553L4.54541 541.545Z" fill="#43606C"/>
<ellipse cx="5.29412" cy="541.294" rx="5.29412" ry="5.58824" fill="#FD39A1"/>
<circle cx="5.58846" cy="541.294" r="2.64706" fill="#99155B"/>
<ellipse cx="32.0589" cy="522.765" rx="7.94118" ry="8.23529" fill="#FD39A1"/>
<circle cx="32.353" cy="522.765" r="4.11765" fill="#99155B"/>
<ellipse cx="10" cy="501.294" rx="10" ry="10.2941" fill="#FD39A1"/>
<circle cx="10.2939" cy="501.294" r="5" fill="#99155B"/>
<path d="M416.59 511.721C448.8 532.95 468.113 586.356 470.001 599.572H466.792C447.007 588.878 411.368 563.544 390.482 546.062C360.38 520.865 354.938 496.736 350.22 483C358.922 483.728 384.38 490.492 416.59 511.721Z" fill="#43606C"/>
<path fill-rule="evenodd" clip-rule="evenodd" d="M437.565 580.393L463.232 590.553L462.865 591.481L437.197 581.321L437.565 580.393Z" fill="#173E4F"/>
<path fill-rule="evenodd" clip-rule="evenodd" d="M414.014 562.738L451.446 575.572L451.122 576.516L413.69 563.682L414.014 562.738Z" fill="#173E4F"/>
<path fill-rule="evenodd" clip-rule="evenodd" d="M392.064 545.619L437.517 558.452L437.246 559.413L391.793 546.579L392.064 545.619Z" fill="#173E4F"/>
<path fill-rule="evenodd" clip-rule="evenodd" d="M371.746 525.833L422.545 540.271L422.273 541.232L371.473 526.794L371.746 525.833Z" fill="#173E4F"/>
<path fill-rule="evenodd" clip-rule="evenodd" d="M362.124 509.793L403.833 522.092L403.551 523.049L361.842 510.75L362.124 509.793Z" fill="#173E4F"/>
<path fill-rule="evenodd" clip-rule="evenodd" d="M354.127 494.293L384.607 504.988L384.277 505.93L353.797 495.235L354.127 494.293Z" fill="#173E4F"/>
<path fill-rule="evenodd" clip-rule="evenodd" d="M449.183 550.953L451.322 576.62L452.316 576.537L450.177 550.87L449.183 550.953Z" fill="#173E4F"/>
<path fill-rule="evenodd" clip-rule="evenodd" d="M436.348 532.196V558.398H437.346V532.196H436.348Z" fill="#173E4F"/>
<path fill-rule="evenodd" clip-rule="evenodd" d="M421.376 516.186L422.98 541.318L423.977 541.255L422.372 516.122L421.376 516.186Z" fill="#173E4F"/>
<path fill-rule="evenodd" clip-rule="evenodd" d="M403.195 504.432L404.799 523.148L405.794 523.062L404.19 504.347L403.195 504.432Z" fill="#173E4F"/>
<path fill-rule="evenodd" clip-rule="evenodd" d="M378.64 492.832L383.988 504.596L384.896 504.183L379.549 492.419L378.64 492.832Z" fill="#173E4F"/>
<path fill-rule="evenodd" clip-rule="evenodd" d="M460.947 575.559L462.552 591.601L463.545 591.502L461.941 575.459L460.947 575.559Z" fill="#173E4F"/>
<path fill-rule="evenodd" clip-rule="evenodd" d="M420.974 540.023C398.538 515.984 373.988 495.711 350 483.983L350.438 483.086C374.576 494.887 399.222 515.254 421.704 539.342C435.811 554.457 460.595 585.903 469.343 598.757L468.518 599.319C459.798 586.505 435.046 555.099 420.974 540.023Z" fill="#173E4F"/>
<path d="M61.4101 511.721C29.2002 532.95 9.88678 586.356 7.99947 599.572H11.2079C30.9931 588.878 66.6317 563.544 87.5178 546.062C117.62 520.865 123.062 496.736 127.78 483C119.078 483.728 93.6201 490.492 61.4101 511.721Z" fill="#43606C"/>
<path fill-rule="evenodd" clip-rule="evenodd" d="M40.4354 580.393L14.768 590.553L15.1354 591.481L40.8027 581.321L40.4354 580.393Z" fill="#173E4F"/>
<path fill-rule="evenodd" clip-rule="evenodd" d="M63.9858 562.738L26.5543 575.572L26.8781 576.516L64.3096 563.682L63.9858 562.738Z" fill="#173E4F"/>
<path fill-rule="evenodd" clip-rule="evenodd" d="M85.9358 545.619L40.4833 558.452L40.7545 559.413L86.207 546.579L85.9358 545.619Z" fill="#173E4F"/>
<path fill-rule="evenodd" clip-rule="evenodd" d="M106.254 525.833L55.4546 540.271L55.7275 541.232L106.527 526.794L106.254 525.833Z" fill="#173E4F"/>
<path fill-rule="evenodd" clip-rule="evenodd" d="M115.876 509.793L74.1665 522.092L74.4488 523.049L116.158 510.75L115.876 509.793Z" fill="#173E4F"/>
<path fill-rule="evenodd" clip-rule="evenodd" d="M123.873 494.293L93.3927 504.988L93.7232 505.93L124.203 495.235L123.873 494.293Z" fill="#173E4F"/>
<path fill-rule="evenodd" clip-rule="evenodd" d="M28.8173 550.953L26.6783 576.62L25.6836 576.537L27.8225 550.87L28.8173 550.953Z" fill="#173E4F"/>
<path fill-rule="evenodd" clip-rule="evenodd" d="M41.6525 532.196V558.398H40.6543V532.196H41.6525Z" fill="#173E4F"/>
<path fill-rule="evenodd" clip-rule="evenodd" d="M56.6238 516.186L55.0196 541.318L54.0234 541.255L55.6276 516.122L56.6238 516.186Z" fill="#173E4F"/>
<path fill-rule="evenodd" clip-rule="evenodd" d="M74.8048 504.432L73.2006 523.148L72.2061 523.062L73.8103 504.347L74.8048 504.432Z" fill="#173E4F"/>
<path fill-rule="evenodd" clip-rule="evenodd" d="M99.3596 492.832L94.0122 504.596L93.1035 504.183L98.4509 492.419L99.3596 492.832Z" fill="#173E4F"/>
<path fill-rule="evenodd" clip-rule="evenodd" d="M17.0525 575.559L15.4483 591.601L14.4551 591.502L16.0593 575.459L17.0525 575.559Z" fill="#173E4F"/>
<path fill-rule="evenodd" clip-rule="evenodd" d="M57.0258 540.023C79.4618 515.984 104.012 495.711 128 483.983L127.562 483.086C103.424 494.887 78.7779 515.254 56.2961 539.342C42.1886 554.457 17.4048 585.903 8.65687 598.757L9.48207 599.319C18.2022 586.505 42.9544 555.099 57.0258 540.023Z" fill="#173E4F"/>
<path d="M66.0233 587.216C68.722 594.795 50.5056 596.267 39.2201 600.464C28.4252 591.36 13.7422 585.612 19.1639 577.622C23.8253 570.752 30.94 578.848 36.3374 584.491C33.3934 577.622 18.012 562.576 23.8253 554.315C28.4868 547.691 34.3747 558.731 40.7535 565.355C38.5455 557.013 26.508 542.114 31.9214 536.16C37.3349 530.205 42.9616 538.368 47.8683 547.445C46.5801 538.613 44.0044 527.301 47.8683 522.911C53.5384 516.469 63.5698 521.439 61.791 530.762C67.7406 522.911 75.9594 522.911 77.7995 532.725C79.2715 540.576 68.1698 545.728 61.791 550.415C68.1698 550.415 75.7069 544.992 77.7994 552.107C80.2528 560.448 59.4607 564.102 55.7191 570.752C61.1165 570.752 73.874 563.883 73.874 570.752C73.874 577.622 56.3936 578.848 50.5056 587.216C56.3936 587.216 63.5456 580.258 66.0233 587.216Z" fill="#80886F"/>
<path d="M451.921 590.095L457 600.66H397V570.491L410.83 596.551L409.283 553L429.244 596.551L422.748 555.113L436.567 596.551L432.079 557.93L444.48 596.551L443.654 569.669L451.921 598.429V590.095Z" fill="#80886F"/>
<path d="M65.0787 590.095L60 600.66H120V570.491L106.17 596.551L107.717 553L87.7559 596.551L94.252 555.113L80.4331 596.551L84.9213 557.93L72.5197 596.551L73.3465 569.669L65.0787 598.429V590.095Z" fill="#80886F"/>
<defs>
<linearGradient id="paint0_linear" x1="141.172" y1="-72.3334" x2="-55.7971" y2="615.437" gradientUnits="userSpaceOnUse">
<stop stop-color="#6E3154"/>
<stop offset="0.992286" stop-color="#302E5C"/>
</linearGradient>
<linearGradient id="paint1_linear" x1="356.426" y1="-63.356" x2="550.537" y2="615.37" gradientUnits="userSpaceOnUse">
<stop stop-color="#6E3154"/>
<stop offset="0.992286" stop-color="#302E5C"/>
</linearGradient>
</defs>
</svg>
