<svg width="295" height="401" viewBox="0 0 295 401" fill="none" xmlns="http://www.w3.org/2000/svg">
<rect x="6" width="280" height="400" fill="url(#paint0_radial)"/>
<path d="M217.237 12.9839L228.139 398.003H182.92L173.504 12.9839H217.237Z" fill="#3B40B0"/>
<path d="M201.323 201.748L178.59 211.693L176.552 287.468L174 395.763H285.999V334.082V287.468L201.323 201.748Z" fill="#1C0E4D"/>
<path d="M180.95 206.71C183.014 207.2 184.197 211.297 184.197 211.297L179.359 216.03C179.359 216.03 175.651 214.619 175.267 212.81C174.884 211.002 175.082 209.699 176.463 208.528C177.844 207.357 178.885 206.22 180.95 206.71Z" fill="#1C0E4C"/>
<path d="M197.225 218.11L201.881 219.989L189.962 224.447L191.558 220.497L197.225 218.11Z" fill="#301D70"/>
<path d="M196.078 200.931C195.215 202.425 197.073 206.741 197.073 206.741L203.181 206.409C203.181 206.409 204.165 201.927 203.607 200.931C203.05 199.935 202.46 198.938 200.056 198.772C197.651 198.606 196.941 199.436 196.078 200.931Z" fill="#1C0E4C"/>
<ellipse cx="185.938" cy="218.227" rx="0.99115" ry="1.49813" fill="#00F3F3"/>
<ellipse cx="199.318" cy="212.734" rx="1.48673" ry="0.998751" fill="#00F3F3"/>
<path d="M91.2391 15.98L57.0444 398.002H96.1949L121.469 15.98H91.2391Z" fill="#3B40B0"/>
<path d="M285.504 352.06L6.49561 114.857V100.874L285.504 332.085V352.06Z" fill="#9CE7FF" fill-opacity="0.14"/>
<path d="M285.504 244.195L6.49561 6.99188V0.5L285.504 224.22V244.195Z" fill="#9CE7FF" fill-opacity="0.14"/>
<path d="M56.0532 31.7651L39.2036 399.001H59.0266L76.8673 31.7651H56.0532Z" fill="#776CF2"/>
<path d="M60.5691 216.326L28.2258 282.369L20.8672 399.5H146.512L108.903 269.634L82.3182 217.066L60.5691 216.326Z" fill="#1C0E4C"/>
<path d="M70.1211 231.43L66.4473 234.392L78.3505 235.132L75.8523 232.022L70.1211 231.43Z" fill="#301D70"/>
<path d="M78.0564 213.513L76.4399 220.177L80.7016 222.99L87.0205 216.919L83.7876 212.329L78.0564 213.513Z" fill="#1C0E4C"/>
<path d="M64.5368 212.92L66.1533 219.584L61.8917 222.397L55.5727 216.326L58.8057 211.735L64.5368 212.92Z" fill="#1C0E4C"/>
<ellipse rx="1.17686" ry="1.18341" transform="matrix(0.92803 0.372505 -0.367625 0.929974 65.1342 227.628)" fill="#00F3F3"/>
<ellipse rx="1.17686" ry="1.18341" transform="matrix(0.92803 0.372505 -0.367625 0.929974 78.3417 227.828)" fill="#00F3F3"/>
<path d="M230 31.7651L213.15 399.001H240.903L258.743 31.7651H230Z" fill="#776CF2"/>
<path d="M107.59 293.702C106.131 307.991 87.531 379.347 73.3982 399.499H200.761C184.349 350.493 169.54 265.644 169.54 232.21C169.54 215.985 168.02 19.5415 169.54 0.000102154H143.77L110.668 0C109.3 36.3348 109.049 279.412 107.59 293.702Z" fill="#5D418A"/>
<path d="M128.996 264L73 399.624H204L153.141 264H128.996Z" fill="#1C0E4C"/>
<path d="M131.821 259.413L132.592 263.78L128.739 265.835L125.657 261.211L126.17 258.386L130.023 257.102L131.821 259.413Z" fill="#1C0E4C"/>
<path d="M150.316 259.413L149.545 263.78L153.398 265.835L156.48 261.211L155.967 258.386L152.114 257.102L150.316 259.413Z" fill="#1C0E4C"/>
<path d="M142.61 269.174H138.5L136.445 275.852H144.665L142.61 269.174Z" fill="#1A2E75"/>
<circle cx="146.976" cy="270.201" r="1.02745" fill="#00F3F3"/>
<circle cx="134.133" cy="270.201" r="1.02745" fill="#00F3F3"/>
<path d="M143.381 327.482C145.578 320.692 158.793 320.29 158.793 320.29C158.793 320.29 151.733 321.78 149.289 327.482C145.106 337.243 147.234 344.178 147.234 344.178C147.234 344.178 140.555 336.216 143.381 327.482Z" fill="#1A2E75"/>
<path d="M136.189 327.482C133.992 320.692 120.777 320.29 120.777 320.29C120.777 320.29 127.837 321.78 130.281 327.482C134.464 337.243 132.335 344.178 132.335 344.178C132.335 344.178 139.014 336.216 136.189 327.482Z" fill="#1A2E75"/>
<path d="M243.794 226.542L199.274 399.5H286V253.683V128.34V0L177.965 6.49188L197.788 43.9451L253.788 54.9313L243.794 226.542Z" fill="url(#paint1_linear)"/>
<path d="M248.699 218.364L261.94 206.73L279.841 217.667L278.716 235.591L258.995 247.699L247.218 236.938L248.699 218.364Z" fill="#2F1E3A"/>
<path d="M42.1771 319.6L63.9824 399.5H6.00008V253.683V128.34V0H71.9116L75.3806 39.9501L42.1771 73.9076V319.6Z" fill="url(#paint2_linear)"/>
<path d="M286 313.608L6.49561 64.919V32.959L286 261.673V313.608Z" fill="#9CE7FF" fill-opacity="0.14"/>
<path d="M286 168.789L64.9736 4.49465L80.832 0.999023L286 146.817V168.789Z" fill="#9CE7FF" fill-opacity="0.14"/>
<path d="M286 78.9016L161.611 0.999023H176.478L286 56.9291V78.9016Z" fill="#9CE7FF" fill-opacity="0.14"/>
<path d="M219.097 400L6.49561 180.774V133.333L286 385.019V400H219.097Z" fill="#9CE7FF" fill-opacity="0.14"/>
<path d="M191.841 48.9388C242.885 48.9388 272.619 27.4657 286 14.9813V0H70.4248C95.3688 16.4794 140.796 48.9388 191.841 48.9388Z" fill="#43606C"/>
<path d="M100.655 48.9388C52.0885 51.4357 21.8584 41.9476 6 32.9588V0H222.071C197.127 16.4794 149.221 46.4419 100.655 48.9388Z" fill="#43606C"/>
<path d="M7.3937 387.7L0.999924 401H76.5356V363.02L59.1249 395.828L61.0716 341L35.9426 395.828L44.1207 343.66L26.7237 395.828L32.374 347.207L16.7613 395.828L17.8022 361.985L7.3937 398.192V387.7Z" fill="#4D563B"/>
<path d="M288.142 387.7L294.536 401H219V363.02L236.411 395.828L234.464 341L259.593 395.828L251.415 343.66L268.812 395.828L263.162 347.207L278.774 395.828L277.733 361.985L288.142 398.192V387.7Z" fill="#4D563B"/>
<path d="M46.9565 400.149H60C52.5466 394.186 50.3106 387.478 50.3106 378.162H43.9752C46.9565 386.36 45.0932 392.323 46.9565 400.149Z" fill="url(#paint3_linear)"/>
<path d="M33.913 378.161C36.3975 373.441 39.1304 364 46.5838 364C54.0372 364 57.1428 373.441 59.2546 378.161H33.913Z" fill="#67A4AE"/>
<path d="M30.1863 390.832H40.6211C40 389.342 38.0869 386.36 35.4037 386.36C32.7205 386.36 30.8074 389.342 30.1863 390.832Z" fill="#67A4AE"/>
<path d="M32.7951 399.777H38.7578L36.8945 390.833H34.2858L32.7951 399.777Z" fill="url(#paint4_linear)"/>
<path d="M15.6522 400.522H26.8323C26.8323 400.522 25.9436 396.795 24.2236 391.205C22.5036 385.615 22.3602 380.025 22.3602 380.025H18.2608C18.2608 380.025 20.4969 387.478 18.6335 391.95C16.7702 396.422 15.6522 400.522 15.6522 400.522Z" fill="url(#paint5_linear)"/>
<path d="M1.86321 400.208H9.31663C11.1054 396.928 8.57129 390.394 7.08061 387.537H4.09924C3.97502 388.158 3.5775 390.22 2.98123 393.5C2.38495 396.779 1.98744 399.338 1.86321 400.208Z" fill="url(#paint6_linear)"/>
<path d="M-8.01086e-05 387.537H10.8074C9.93781 385.425 7.52787 381.351 4.84464 381.947C2.16141 382.543 0.496815 385.922 -8.01086e-05 387.537Z" fill="#67A4AE"/>
<path d="M11.5528 380.025H29.0684C27.3292 377.541 25.7143 372.944 20.4969 372.944C15.2795 372.944 12.6708 377.789 11.5528 380.025Z" fill="#67A4AE"/>
<path d="M246.043 400.149H233C240.453 394.186 242.689 387.478 242.689 378.162H249.025C246.043 386.36 247.907 392.323 246.043 400.149Z" fill="url(#paint7_linear)"/>
<path d="M259.087 378.161C256.603 373.441 253.87 364 246.416 364C238.963 364 235.857 373.441 233.745 378.161H259.087Z" fill="#67A4AE"/>
<path d="M262.814 390.832H252.379C253 389.342 254.913 386.36 257.596 386.36C260.28 386.36 262.193 389.342 262.814 390.832Z" fill="#67A4AE"/>
<path d="M260.205 399.777H254.242L256.106 390.833H258.714L260.205 399.777Z" fill="url(#paint8_linear)"/>
<path d="M277.348 400.522H266.168C266.168 400.522 267.056 396.795 268.776 391.205C270.496 385.615 270.64 380.025 270.64 380.025H274.739C274.739 380.025 272.503 387.478 274.366 391.95C276.23 396.422 277.348 400.522 277.348 400.522Z" fill="url(#paint9_linear)"/>
<path d="M291.137 400.208H283.683C281.895 396.928 284.429 390.394 285.919 387.537H288.901C289.025 388.158 289.423 390.22 290.019 393.5C290.615 396.779 291.013 399.338 291.137 400.208Z" fill="url(#paint10_linear)"/>
<path d="M293 387.537H282.193C283.062 385.425 285.472 381.351 288.155 381.947C290.839 382.543 292.503 385.922 293 387.537Z" fill="#67A4AE"/>
<path d="M281.447 380.025H263.932C265.671 377.541 267.286 372.944 272.503 372.944C277.72 372.944 280.329 377.789 281.447 380.025Z" fill="#67A4AE"/>
<defs>
<radialGradient id="paint0_radial" cx="0" cy="0" r="1" gradientUnits="userSpaceOnUse" gradientTransform="translate(146) rotate(90) scale(200 140)">
<stop stop-color="#256C76"/>
<stop offset="1" stop-color="#1F3367"/>
</radialGradient>
<linearGradient id="paint1_linear" x1="197.158" y1="-48.9197" x2="328.548" y2="409.886" gradientUnits="userSpaceOnUse">
<stop stop-color="#6E3154"/>
<stop offset="0.992286" stop-color="#302E5C"/>
</linearGradient>
<linearGradient id="paint2_linear" x1="94.8419" y1="-48.9197" x2="-36.5476" y2="409.886" gradientUnits="userSpaceOnUse">
<stop stop-color="#6E3154"/>
<stop offset="0.992286" stop-color="#302E5C"/>
</linearGradient>
<linearGradient id="paint3_linear" x1="51.9876" y1="378.162" x2="51.9876" y2="400.149" gradientUnits="userSpaceOnUse">
<stop stop-color="#8AD6E2"/>
<stop offset="1" stop-color="#67A4AE"/>
</linearGradient>
<linearGradient id="paint4_linear" x1="35.7764" y1="390.833" x2="35.7764" y2="399.777" gradientUnits="userSpaceOnUse">
<stop stop-color="#80C6D1"/>
<stop offset="1" stop-color="#67A4AE"/>
</linearGradient>
<linearGradient id="paint5_linear" x1="21.2422" y1="380.025" x2="21.2422" y2="400.522" gradientUnits="userSpaceOnUse">
<stop stop-color="#80C6D1"/>
<stop offset="1" stop-color="#67A4AE"/>
</linearGradient>
<linearGradient id="paint6_linear" x1="5.89755" y1="387.537" x2="5.89755" y2="400.208" gradientUnits="userSpaceOnUse">
<stop stop-color="#67A4AE"/>
<stop offset="0.0001" stop-color="#80C6D1"/>
<stop offset="1" stop-color="#67A4AE"/>
</linearGradient>
<linearGradient id="paint7_linear" x1="241.012" y1="378.162" x2="241.012" y2="400.149" gradientUnits="userSpaceOnUse">
<stop stop-color="#8AD6E2"/>
<stop offset="1" stop-color="#67A4AE"/>
</linearGradient>
<linearGradient id="paint8_linear" x1="257.224" y1="390.833" x2="257.224" y2="399.777" gradientUnits="userSpaceOnUse">
<stop stop-color="#80C6D1"/>
<stop offset="1" stop-color="#67A4AE"/>
</linearGradient>
<linearGradient id="paint9_linear" x1="271.758" y1="380.025" x2="271.758" y2="400.522" gradientUnits="userSpaceOnUse">
<stop stop-color="#80C6D1"/>
<stop offset="1" stop-color="#67A4AE"/>
</linearGradient>
<linearGradient id="paint10_linear" x1="287.102" y1="387.537" x2="287.102" y2="400.208" gradientUnits="userSpaceOnUse">
<stop stop-color="#67A4AE"/>
<stop offset="0.0001" stop-color="#80C6D1"/>
<stop offset="1" stop-color="#67A4AE"/>
</linearGradient>
</defs>
</svg>
