<svg width="297" height="402" viewBox="0 0 297 402" fill="none" xmlns="http://www.w3.org/2000/svg">
<rect x="8" width="277.522" height="400" fill="#FFD7AC"/>
<path d="M219.237 13L230.139 398.5H184.92L175.504 13H219.237Z" fill="#DD756E"/>
<path d="M203.323 202L180.59 211.958L178.552 287.828L176 396.258H287.999V334.5V287.828L203.323 202Z" fill="#1C0E4D"/>
<path d="M182.95 206.968C185.014 207.459 186.197 211.561 186.197 211.561L181.359 216.3C181.359 216.3 177.651 214.887 177.267 213.076C176.884 211.265 177.082 209.961 178.463 208.789C179.844 207.617 180.885 206.478 182.95 206.968Z" fill="#1C0E4C"/>
<path d="M199.225 218.382L203.881 220.264L191.962 224.727L193.558 220.772L199.225 218.382Z" fill="#301D70"/>
<path d="M198.078 201.182C197.215 202.678 199.073 207 199.073 207L205.181 206.668C205.181 206.668 206.165 202.179 205.607 201.182C205.05 200.185 204.46 199.187 202.056 199.021C199.651 198.855 198.941 199.686 198.078 201.182Z" fill="#1C0E4C"/>
<ellipse cx="187.938" cy="218.5" rx="0.99115" ry="1.5" fill="#00F3F3"/>
<ellipse cx="201.318" cy="213" rx="1.48673" ry="1" fill="#00F3F3"/>
<path d="M93.2391 16L59.0444 398.5H98.1949L123.469 16H93.2391Z" fill="#DD756E"/>
<path d="M287.504 352.5L8.49561 115V101L287.504 332.5V352.5Z" fill="#FFEF9C" fill-opacity="0.14"/>
<path d="M287.504 244.5L8.49561 7V0.5L287.504 224.5V244.5Z" fill="#FFEF9C" fill-opacity="0.14"/>
<path d="M58.0532 31.8052L41.2036 399.5H61.0266L78.8673 31.8052H58.0532Z" fill="#F2946C"/>
<path d="M62.5691 216.596L30.2258 282.722L22.8672 400H148.512L110.903 269.972L84.3182 217.338L62.5691 216.596Z" fill="#1C0E4C"/>
<path d="M72.1211 231.719L68.4473 234.685L80.3505 235.426L77.8523 232.312L72.1211 231.719Z" fill="#301D70"/>
<path d="M80.0564 213.779L78.4399 220.451L82.7016 223.268L89.0205 217.189L85.7876 212.593L80.0564 213.779Z" fill="#1C0E4C"/>
<path d="M66.5368 213.186L68.1533 219.858L63.8917 222.675L57.5727 216.596L60.8057 212L66.5368 213.186Z" fill="#1C0E4C"/>
<ellipse rx="1.17707" ry="1.18469" transform="matrix(0.927869 0.372906 -0.367228 0.930131 67.1342 227.912)" fill="#00F3F3"/>
<ellipse rx="1.17707" ry="1.18469" transform="matrix(0.927869 0.372906 -0.367228 0.930131 80.3417 228.113)" fill="#00F3F3"/>
<path d="M232 31.8052L215.15 399.5H242.903L260.743 31.8052H232Z" fill="#F2946C"/>
<path d="M109.59 294.069C108.131 308.376 89.531 379.822 75.3982 399.999H202.761C186.349 350.931 171.54 265.976 171.54 232.5C171.54 216.255 170.02 19.5659 171.54 0.000102282H145.77L112.668 0C111.3 36.3802 111.049 279.761 109.59 294.069Z" fill="#8A4152"/>
<path d="M130.996 264L75 399.793H206L155.141 264H130.996Z" fill="#1C0E4C"/>
<path d="M133.821 260.315L134.592 264.687L130.739 266.744L127.657 262.115L128.17 259.286L132.023 258L133.821 260.315Z" fill="#1C0E4C"/>
<path d="M152.316 260.315L151.545 264.687L155.398 266.744L158.48 262.115L157.967 259.286L154.114 258L152.316 260.315Z" fill="#1C0E4C"/>
<path d="M144.61 270.087H140.5L138.445 276.774H146.665L144.61 270.087Z" fill="#1A2E75"/>
<ellipse cx="148.976" cy="271.116" rx="1.02745" ry="1.02874" fill="#00F3F3"/>
<ellipse cx="136.133" cy="271.116" rx="1.02745" ry="1.02874" fill="#00F3F3"/>
<path d="M145.381 328.468C147.578 321.669 160.793 321.267 160.793 321.267C160.793 321.267 153.733 322.759 151.289 328.468C147.106 338.241 149.234 345.185 149.234 345.185C149.234 345.185 142.555 337.213 145.381 328.468Z" fill="#1A2E75"/>
<path d="M138.189 328.468C135.992 321.669 122.777 321.267 122.777 321.267C122.777 321.267 129.837 322.759 132.281 328.468C136.464 338.241 134.335 345.185 134.335 345.185C134.335 345.185 141.014 337.213 138.189 328.468Z" fill="#1A2E75"/>
<path d="M245.794 226.825L201.274 400H288V254V128.5V0L179.965 6.5L199.788 44L255.788 55L245.794 226.825Z" fill="url(#paint0_linear)"/>
<path d="M250.699 218.637L263.94 206.989L281.841 217.939L280.716 235.886L260.995 248.009L249.218 237.234L250.699 218.637Z" fill="#2F1E3A"/>
<path d="M44.1771 320L65.9824 400H8.00008V254V128.5V0H73.9116L77.3806 40L44.1771 74V320Z" fill="url(#paint1_linear)"/>
<path d="M288 314L8 65V33L288 262V314Z" fill="#FFEF9C" fill-opacity="0.14"/>
<path d="M288 169L66.9736 4.5L82.832 1L288 147V169Z" fill="#FFEF9C" fill-opacity="0.14"/>
<path d="M288 79L163.611 1H178.478L288 57V79Z" fill="#FFEF9C" fill-opacity="0.14"/>
<path d="M221.097 400L8 181V133.5L288 385.5V400H221.097Z" fill="#FFEF9C" fill-opacity="0.14"/>
<path d="M193.841 49C244.885 49 274.619 27.5 288 15V0H72.4248C97.3688 16.5 142.796 49 193.841 49Z" fill="#43606C"/>
<path d="M102.655 49C54.0885 51.5 23.8584 42 8 33V0H224.071C199.127 16.5 151.221 46.5 102.655 49Z" fill="#43606C"/>
<path d="M257.647 344.88C278.276 358.476 290.645 392.68 291.854 401.144H289.799C277.128 394.295 254.303 378.07 240.926 366.873C221.647 350.736 218.162 335.283 215.14 326.485C220.714 326.952 237.018 331.284 257.647 344.88Z" fill="#43606C"/>
<path fill-rule="evenodd" clip-rule="evenodd" d="M271.081 388.86L287.52 395.367L287.284 395.962L270.846 389.455L271.081 388.86Z" fill="#173E4F"/>
<path fill-rule="evenodd" clip-rule="evenodd" d="M255.999 377.554L279.972 385.773L279.764 386.378L255.791 378.158L255.999 377.554Z" fill="#173E4F"/>
<path fill-rule="evenodd" clip-rule="evenodd" d="M241.94 366.589L271.05 374.809L270.876 375.424L241.766 367.205L241.94 366.589Z" fill="#173E4F"/>
<path fill-rule="evenodd" clip-rule="evenodd" d="M228.927 353.918L261.461 363.165L261.287 363.78L228.752 354.533L228.927 353.918Z" fill="#173E4F"/>
<path fill-rule="evenodd" clip-rule="evenodd" d="M222.765 343.645L249.478 351.521L249.297 352.135L222.584 344.258L222.765 343.645Z" fill="#173E4F"/>
<path fill-rule="evenodd" clip-rule="evenodd" d="M217.644 333.718L237.164 340.568L236.953 341.171L217.432 334.321L217.644 333.718Z" fill="#173E4F"/>
<path fill-rule="evenodd" clip-rule="evenodd" d="M278.521 370.006L279.891 386.444L280.528 386.391L279.158 369.953L278.521 370.006Z" fill="#173E4F"/>
<path fill-rule="evenodd" clip-rule="evenodd" d="M270.301 357.993V374.774H270.94V357.993H270.301Z" fill="#173E4F"/>
<path fill-rule="evenodd" clip-rule="evenodd" d="M260.713 347.739L261.74 363.835L262.378 363.794L261.351 347.698L260.713 347.739Z" fill="#173E4F"/>
<path fill-rule="evenodd" clip-rule="evenodd" d="M249.07 340.211L250.097 352.198L250.734 352.143L249.707 340.157L249.07 340.211Z" fill="#173E4F"/>
<path fill-rule="evenodd" clip-rule="evenodd" d="M233.343 332.782L236.767 340.316L237.349 340.052L233.925 332.518L233.343 332.782Z" fill="#173E4F"/>
<path fill-rule="evenodd" clip-rule="evenodd" d="M286.056 385.765L287.084 396.039L287.72 395.975L286.693 385.701L286.056 385.765Z" fill="#173E4F"/>
<path fill-rule="evenodd" clip-rule="evenodd" d="M260.455 363.006C246.086 347.61 230.363 334.626 215 327.115L215.281 326.541C230.74 334.099 246.524 347.143 260.923 362.57C269.958 372.25 285.831 392.39 291.433 400.622L290.905 400.982C285.32 392.775 269.467 372.661 260.455 363.006Z" fill="#173E4F"/>
<path fill-rule="evenodd" clip-rule="evenodd" d="M28.083 316.845C28.6361 314.758 29.1736 312.731 29.6741 310.625L27.3849 310.081C26.8958 312.139 26.3659 314.137 25.8172 316.206C23.7451 324.018 21.407 332.833 20.0041 349.667C18.745 364.776 19.2259 377.509 19.6435 388.564C19.813 393.052 19.9721 397.262 20.0001 401.244L22.353 401.227C22.3241 397.132 22.1624 392.855 21.9912 388.328C21.5748 377.316 21.1023 364.822 22.3489 349.863C23.7334 333.249 26.017 324.636 28.083 316.845Z" fill="#43606C"/>
<path fill-rule="evenodd" clip-rule="evenodd" d="M10.2017 329.602C10.2016 329.602 10.2015 329.602 9.11762 330.059C8.03372 330.516 8.03366 330.516 8.03361 330.516L8.03389 330.517L8.03572 330.521L8.0443 330.542C8.05218 330.561 8.06434 330.59 8.0806 330.63C8.11312 330.71 8.16201 330.831 8.2257 330.993C8.35308 331.316 8.53967 331.802 8.77294 332.442C9.23949 333.723 9.89269 335.623 10.6324 338.082C12.112 343 13.9371 350.152 15.3078 359.061C15.5737 360.79 15.8309 362.448 16.0788 364.046C18.4087 379.065 19.9122 388.756 20.0001 401.244L22.353 401.227C22.2638 388.558 20.7333 378.695 18.4076 363.708C18.1584 362.102 17.9 360.437 17.6334 358.704C16.2439 349.672 14.3924 342.412 12.8856 337.404C12.1321 334.899 11.4646 332.957 10.9838 331.637C10.7434 330.977 10.5496 330.472 10.415 330.131C10.3477 329.96 10.2952 329.83 10.2591 329.741C10.2411 329.697 10.2271 329.663 10.2175 329.64L10.2062 329.613L10.203 329.605L10.2017 329.602Z" fill="#43606C"/>
<path fill-rule="evenodd" clip-rule="evenodd" d="M35.4543 343.545L34.4117 343C33.3691 342.455 33.369 342.455 33.3689 342.455L33.3635 342.466L33.3482 342.495C33.3348 342.521 33.3151 342.559 33.2895 342.608C33.2382 342.708 33.163 342.854 33.0666 343.044C32.8737 343.423 32.5956 343.976 32.253 344.673C31.568 346.066 30.6243 348.037 29.5881 350.35C27.5203 354.965 25.0646 360.987 23.5701 366.516C20.5892 377.546 19.9017 387.274 20.0001 401.243L22.353 401.227C22.2553 387.353 22.9401 377.866 25.8416 367.13C27.2882 361.778 29.6854 355.887 31.7354 351.312C32.7579 349.029 33.6893 347.084 34.3645 345.711C34.7021 345.024 34.9755 344.481 35.164 344.11C35.2583 343.925 35.3313 343.783 35.3806 343.687C35.4052 343.639 35.4239 343.603 35.4363 343.579L35.4501 343.553L35.4543 343.545Z" fill="#43606C"/>
<ellipse rx="5.29412" ry="5.58824" transform="matrix(-1 0 0 1 34.7059 343.294)" fill="#FD39A1"/>
<circle r="2.64706" transform="matrix(-1 0 0 1 34.4118 343.294)" fill="#99155B"/>
<ellipse rx="7.94118" ry="8.23529" transform="matrix(-1 0 0 1 7.94115 324.765)" fill="#FD39A1"/>
<circle r="4.11765" transform="matrix(-1 0 0 1 7.647 324.765)" fill="#99155B"/>
<ellipse rx="10" ry="10.2941" transform="matrix(-1 0 0 1 30 303.294)" fill="#FD39A1"/>
<circle r="5" transform="matrix(-1 0 0 1 29.7058 303.294)" fill="#99155B"/>
<path d="M50.7058 355.361C34.6008 365.975 24.9441 392.678 24.0004 399.286H25.6046C35.4973 393.939 53.3166 381.272 63.7596 372.531C78.8109 359.932 81.5317 347.868 83.8909 341C79.5396 341.364 66.8108 344.746 50.7058 355.361Z" fill="#43606C"/>
<path fill-rule="evenodd" clip-rule="evenodd" d="M40.2177 389.696L27.384 394.776L27.5677 395.24L40.4014 390.16L40.2177 389.696Z" fill="#173E4F"/>
<path fill-rule="evenodd" clip-rule="evenodd" d="M51.9922 380.869L33.2764 387.286L33.4383 387.758L52.1541 381.341L51.9922 380.869Z" fill="#173E4F"/>
<path fill-rule="evenodd" clip-rule="evenodd" d="M62.9674 372.309L40.2411 378.726L40.3767 379.206L63.103 372.789L62.9674 372.309Z" fill="#173E4F"/>
<path fill-rule="evenodd" clip-rule="evenodd" d="M73.1272 362.417L47.7273 369.635L47.8637 370.116L73.2637 362.897L73.1272 362.417Z" fill="#173E4F"/>
<path fill-rule="evenodd" clip-rule="evenodd" d="M77.9379 354.396L57.0832 360.546L57.2244 361.025L78.0791 354.875L77.9379 354.396Z" fill="#173E4F"/>
<path fill-rule="evenodd" clip-rule="evenodd" d="M81.9366 346.646L66.6966 351.994L66.8618 352.465L82.1018 347.117L81.9366 346.646Z" fill="#173E4F"/>
<path fill-rule="evenodd" clip-rule="evenodd" d="M34.4089 374.977L33.3394 387.81L32.842 387.769L33.9115 374.935L34.4089 374.977Z" fill="#173E4F"/>
<path fill-rule="evenodd" clip-rule="evenodd" d="M40.8267 365.598V378.699H40.3276V365.598H40.8267Z" fill="#173E4F"/>
<path fill-rule="evenodd" clip-rule="evenodd" d="M48.3117 357.593L47.5095 370.159L47.0115 370.127L47.8136 357.561L48.3117 357.593Z" fill="#173E4F"/>
<path fill-rule="evenodd" clip-rule="evenodd" d="M57.4017 351.716L56.5996 361.074L56.1023 361.031L56.9044 351.673L57.4017 351.716Z" fill="#173E4F"/>
<path fill-rule="evenodd" clip-rule="evenodd" d="M69.6803 345.916L67.0066 351.798L66.5522 351.592L69.2259 345.709L69.6803 345.916Z" fill="#173E4F"/>
<path fill-rule="evenodd" clip-rule="evenodd" d="M28.526 387.28L27.7239 395.301L27.2273 395.251L28.0294 387.23L28.526 387.28Z" fill="#173E4F"/>
<path fill-rule="evenodd" clip-rule="evenodd" d="M48.5129 369.512C59.7309 357.492 72.0059 347.356 84 341.492L83.7808 341.043C71.7118 346.944 59.3889 357.127 48.148 369.171C41.0943 376.729 28.7024 392.452 24.3284 398.879L24.741 399.16C29.1011 392.753 41.4772 377.05 48.5129 369.512Z" fill="#173E4F"/>
<path fill-rule="evenodd" clip-rule="evenodd" d="M268.917 302.845C268.364 300.758 267.826 298.731 267.326 296.625L269.615 296.081C270.104 298.139 270.634 300.137 271.183 302.206C273.255 310.018 275.593 318.833 276.996 335.667C278.255 350.776 277.774 363.509 277.356 374.564C277.187 379.052 277.028 383.262 277 387.244L274.647 387.227C274.676 383.132 274.838 378.855 275.009 374.328C275.425 363.316 275.898 350.822 274.651 335.863C273.267 319.249 270.983 310.636 268.917 302.845Z" fill="#43606C"/>
<path fill-rule="evenodd" clip-rule="evenodd" d="M286.798 315.602C286.798 315.602 286.798 315.602 287.882 316.059C288.966 316.516 288.966 316.516 288.966 316.516L288.966 316.517L288.964 316.521L288.956 316.542C288.948 316.561 288.936 316.59 288.919 316.63C288.887 316.71 288.838 316.831 288.774 316.993C288.647 317.316 288.46 317.802 288.227 318.442C287.761 319.723 287.107 321.623 286.368 324.082C284.888 329 283.063 336.152 281.692 345.061C281.426 346.79 281.169 348.448 280.921 350.046C278.591 365.065 277.088 374.756 277 387.244L274.647 387.227C274.736 374.558 276.267 364.695 278.592 349.708C278.842 348.102 279.1 346.437 279.367 344.704C280.756 335.672 282.608 328.412 284.114 323.404C284.868 320.899 285.535 318.957 286.016 317.637C286.257 316.977 286.45 316.472 286.585 316.131C286.652 315.96 286.705 315.83 286.741 315.741C286.759 315.697 286.773 315.663 286.783 315.64L286.794 315.613L286.797 315.605L286.798 315.602Z" fill="#43606C"/>
<path fill-rule="evenodd" clip-rule="evenodd" d="M261.546 329.545L262.588 329C263.631 328.455 263.631 328.455 263.631 328.455L263.637 328.466L263.652 328.495C263.665 328.521 263.685 328.559 263.711 328.608C263.762 328.708 263.837 328.854 263.933 329.044C264.126 329.423 264.404 329.976 264.747 330.673C265.432 332.066 266.376 334.037 267.412 336.35C269.48 340.965 271.935 346.987 273.43 352.516C276.411 363.546 277.098 373.274 277 387.243L274.647 387.227C274.745 373.353 274.06 363.866 271.158 353.13C269.712 347.778 267.315 341.887 265.265 337.312C264.242 335.029 263.311 333.084 262.635 331.711C262.298 331.024 262.025 330.481 261.836 330.11C261.742 329.925 261.669 329.783 261.619 329.687C261.595 329.639 261.576 329.603 261.564 329.579L261.55 329.553L261.546 329.545Z" fill="#43606C"/>
<ellipse cx="262.294" cy="329.294" rx="5.29412" ry="5.58824" fill="#FD39A1"/>
<circle cx="262.588" cy="329.294" r="2.64706" fill="#99155B"/>
<ellipse cx="289.059" cy="310.765" rx="7.94118" ry="8.23529" fill="#FD39A1"/>
<circle cx="289.353" cy="310.765" r="4.11765" fill="#99155B"/>
<ellipse cx="267" cy="289.294" rx="10" ry="10.2941" fill="#FD39A1"/>
<circle cx="267.294" cy="289.294" r="5" fill="#99155B"/>
<path d="M60 338.534L47.6471 401.789H39.4118H30.5882H0V380.802L7.35294 400.04L13.5294 354.567L18.2353 400.04L28.8235 326L30.5882 401.789L44.4118 332.996L39.4118 401.789L60 338.534Z" fill="#59787D"/>
<path d="M237 338.534L249.353 401.789H257.588H266.412H297V380.802L289.647 400.04L283.471 354.567L278.765 400.04L268.176 326L266.412 401.789L252.588 332.996L257.588 401.789L237 338.534Z" fill="#59787D"/>
<path d="M84.9213 391.201L90 401.797H30V371.541L46.4173 397.676L42.2835 354L62.2441 397.676L55.748 356.119L69.5669 397.676L65.0787 358.944L77.4803 397.676L76.6535 370.717L84.9213 399.56V391.201Z" fill="#80886F"/>
<path d="M210.079 391.201L205 401.797H265V371.541L248.583 397.676L252.717 354L232.756 397.676L239.252 356.119L225.433 397.676L229.921 358.944L217.52 397.676L218.346 370.717L210.079 399.56V391.201Z" fill="#80886F"/>
<defs>
<linearGradient id="paint0_linear" x1="199.158" y1="-48.9809" x2="330.851" y2="410.311" gradientUnits="userSpaceOnUse">
<stop stop-color="#6E3154"/>
<stop offset="0.992286" stop-color="#302E5C"/>
</linearGradient>
<linearGradient id="paint1_linear" x1="96.8419" y1="-48.9808" x2="-34.8513" y2="410.311" gradientUnits="userSpaceOnUse">
<stop stop-color="#6E3154"/>
<stop offset="0.992286" stop-color="#302E5C"/>
</linearGradient>
</defs>
</svg>
