<svg width="508" height="600" viewBox="0 0 508 600" fill="none" xmlns="http://www.w3.org/2000/svg">
<rect x="9" width="480" height="600" fill="url(#paint0_radial)"/>
<path d="M375 37.9922L397 599.874H309.615L296 37.9922H375Z" fill="#3B40B0"/>
<path d="M340.017 292.923L304.047 308.657L300.823 428.53L296.783 599.848H474V502.271V428.53L340.017 292.923Z" fill="#1C0E4D"/>
<path d="M307.78 300.773C311.046 301.548 312.919 308.029 312.919 308.029L305.263 315.517C305.263 315.517 299.396 313.285 298.79 310.424C298.183 307.562 298.495 305.502 300.681 303.65C302.866 301.797 304.514 299.998 307.78 300.773Z" fill="#1C0E4C"/>
<path d="M333.533 318.807L340.9 321.78L322.04 328.832L324.567 322.583L333.533 318.807Z" fill="#301D70"/>
<path d="M331.718 291.631C330.352 293.994 333.291 300.823 333.291 300.823L342.957 300.298C342.957 300.298 344.514 293.206 343.632 291.631C342.749 290.055 341.816 288.479 338.012 288.216C334.207 287.954 333.083 289.267 331.718 291.631Z" fill="#1C0E4C"/>
<ellipse cx="315.673" cy="318.994" rx="1.56829" ry="2.37048" fill="#00F3F3"/>
<ellipse cx="336.845" cy="310.303" rx="2.35244" ry="1.58032" fill="#00F3F3"/>
<path d="M149.892 40.9912L100 597.874H157.123L194 40.9912H149.892Z" fill="#3B40B0"/>
<path d="M489 552.875L9 145.008V120.965L489 518.528V552.875Z" fill="#9CE7FF" fill-opacity="0.14"/>
<path d="M489 379.265L9 14.9974V2.5L489 344.928V379.265Z" fill="#9CE7FF" fill-opacity="0.14"/>
<path d="M91.3158 64.9863L60 599.874H96.8421L130 64.9863H91.3158Z" fill="#776CF2"/>
<path d="M110.291 312.665L59.5455 416.263L48 600H245.133L186.125 396.287L144.415 313.826L110.291 312.665Z" fill="#1C0E4C"/>
<path d="M125.278 336.358L119.514 341.004L138.189 342.165L134.27 337.287L125.278 336.358Z" fill="#301D70"/>
<path d="M137.728 308.253L135.192 318.706L141.878 323.119L151.793 313.595L146.72 306.395L137.728 308.253Z" fill="#1C0E4C"/>
<path d="M116.517 307.322L119.053 317.775L112.366 322.188L102.452 312.665L107.525 305.464L116.517 307.322Z" fill="#1C0E4C"/>
<ellipse rx="1.84646" ry="1.85673" transform="matrix(0.928057 0.372438 -0.367692 0.929948 117.453 330.393)" fill="#00F3F3"/>
<ellipse rx="1.84646" ry="1.85673" transform="matrix(0.928057 0.372438 -0.367692 0.929948 138.176 330.708)" fill="#00F3F3"/>
<path d="M399.761 63.9868L375 599.874H415.783L442 63.9868H399.761Z" fill="#776CF2"/>
<path d="M178.506 445.513C176.375 466.362 149.211 570.472 128.572 599.874H336.594C312.626 528.373 282.999 404.706 282.999 355.925C282.999 332.252 288.78 36.5095 290.999 7.99817L240.77 7.9982L183 7.99805C181.003 61.0112 180.636 424.664 178.506 445.513Z" fill="#5D418A"/>
<path d="M218.039 371.851L124 599.615H344L258.588 371.851H218.039Z" fill="#1C0E4C"/>
<path d="M222.784 364.949L224.078 372.282L217.608 375.733L212.431 367.968L213.294 363.223L219.764 361.066L222.784 364.949Z" fill="#1C0E4C"/>
<path d="M253.843 364.949L252.549 372.282L259.019 375.733L264.196 367.968L263.333 363.223L256.862 361.066L253.843 364.949Z" fill="#1C0E4C"/>
<path d="M240.903 381.341H234.001L230.55 392.557H244.354L240.903 381.341Z" fill="#1A2E75"/>
<circle cx="248.235" cy="383.066" r="1.72549" fill="#00F3F3"/>
<circle cx="226.667" cy="383.066" r="1.72549" fill="#00F3F3"/>
<path d="M242.196 479.263C245.885 467.859 268.079 467.184 268.079 467.184C268.079 467.184 256.222 469.686 252.118 479.263C245.093 495.655 248.667 507.302 248.667 507.302C248.667 507.302 237.451 493.929 242.196 479.263Z" fill="#1A2E75"/>
<path d="M230.119 479.263C226.43 467.859 204.236 467.184 204.236 467.184C204.236 467.184 216.093 469.686 220.197 479.263C227.222 495.655 223.648 507.302 223.648 507.302C223.648 507.302 234.864 493.929 230.119 479.263Z" fill="#1A2E75"/>
<path d="M63.2286 480.099L95.9143 599.874H9V381.285V193.388V1H107.8L113 60.8874L63.2286 111.792V480.099Z" fill="url(#paint1_linear)"/>
<path d="M426.494 344.062L360.56 599.874H489V384.204V198.817V8.99805L329 18.5998L358.358 73.9944L441.294 90.2435L426.494 344.062Z" fill="url(#paint2_linear)"/>
<path d="M432.771 340.002L454.108 321.257L482.953 338.88L481.139 367.762L449.363 387.273L430.386 369.933L432.771 340.002Z" fill="#2F1E3A"/>
<path d="M488.5 487.99L9 99.0361V50.9893L488.5 409.914V487.99Z" fill="#9CE7FF" fill-opacity="0.14"/>
<path d="M489 290.94L97 8.2489L120.802 3L489 257.947V290.94Z" fill="#9CE7FF" fill-opacity="0.14"/>
<path d="M489 128.474L234.68 0H257L489 95.4806V128.474Z" fill="#9CE7FF" fill-opacity="0.14"/>
<path d="M339 599.874L9 231.112V159.966L489 564.881V599.874H339Z" fill="#9CE7FF" fill-opacity="0.14"/>
<path d="M346.161 74.9843C424.005 74.9843 468.594 42.083 489 22.9544V0H161C199.04 25.2498 268.318 74.9843 346.161 74.9843Z" fill="#43606C"/>
<path d="M142.174 68.4186C73.844 71.9093 31.312 58.6445 9 46.0778V0H313C277.905 23.0389 210.505 64.9278 142.174 68.4186Z" fill="#43606C"/>
<path d="M8.27953 584.926L1 600H87V556.956L67.1773 594.138L69.3937 532L40.7835 594.138L50.0945 535.015L30.2874 594.138L36.7205 539.034L18.9449 594.138L20.1299 555.783L8.27953 596.818V584.926Z" fill="#4D563B"/>
<path d="M500.562 584.926L507.842 600H421.842V556.956L441.664 594.138L439.448 532L468.058 594.138L458.747 535.015L478.554 594.138L472.121 539.034L489.897 594.138L488.712 555.783L500.562 596.818V584.926Z" fill="#4D563B"/>
<path d="M53.058 599.038H67.7964C59.3745 592.301 56.8479 584.721 56.8479 574.194H49.6893C53.058 583.458 50.9526 590.195 53.058 599.038Z" fill="url(#paint3_linear)"/>
<path d="M38.3196 574.194C41.1269 568.86 44.2149 558.192 52.6368 558.192C61.0588 558.192 64.5679 568.86 66.9541 574.194H38.3196Z" fill="#67A4AE"/>
<path d="M34.1087 588.512H45.8994C45.1976 586.827 43.036 583.458 40.0041 583.458C36.9722 583.458 34.8106 586.827 34.1087 588.512Z" fill="#67A4AE"/>
<path d="M37.0559 598.618H43.7935L41.688 588.511H38.7403L37.0559 598.618Z" fill="url(#paint4_linear)"/>
<path d="M17.686 599.46H30.3188C30.3188 599.46 29.3147 595.249 27.3712 588.933C25.4277 582.616 25.2657 576.3 25.2657 576.3H20.6336C20.6336 576.3 23.1602 584.722 21.0547 589.775C18.9493 594.828 17.686 599.46 17.686 599.46Z" fill="url(#paint5_linear)"/>
<path d="M2.10554 599.105H10.5275C12.5487 595.399 9.68526 588.016 8.00088 584.788H4.63212C4.49175 585.489 4.04258 587.819 3.36883 591.525C2.69508 595.231 2.24591 598.122 2.10554 599.105Z" fill="url(#paint6_linear)"/>
<path d="M0.000139236 584.788H12.2119C11.2294 582.402 8.50627 577.798 5.47438 578.471C2.44249 579.145 0.561601 582.963 0.000139236 584.788Z" fill="#67A4AE"/>
<path d="M13.0537 576.3H32.8452C30.8801 573.492 29.0554 568.299 23.16 568.299C17.2647 568.299 14.317 573.773 13.0537 576.3Z" fill="#67A4AE"/>
<path d="M452.856 599.038H438.118C446.54 592.301 449.066 584.721 449.066 574.194H456.225C452.856 583.458 454.962 590.195 452.856 599.038Z" fill="url(#paint7_linear)"/>
<path d="M467.594 574.194C464.787 568.86 461.699 558.192 453.277 558.192C444.855 558.192 441.346 568.86 438.96 574.194H467.594Z" fill="#67A4AE"/>
<path d="M471.805 588.512H460.015C460.716 586.827 462.878 583.458 465.91 583.458C468.942 583.458 471.104 586.827 471.805 588.512Z" fill="#67A4AE"/>
<path d="M468.858 598.618H462.121L464.226 588.511H467.174L468.858 598.618Z" fill="url(#paint8_linear)"/>
<path d="M488.228 599.46H475.595C475.595 599.46 476.599 595.249 478.543 588.933C480.486 582.616 480.648 576.3 480.648 576.3H485.28C485.28 576.3 482.754 584.722 484.859 589.775C486.965 594.828 488.228 599.46 488.228 599.46Z" fill="url(#paint9_linear)"/>
<path d="M503.809 599.105H495.387C493.365 595.399 496.229 588.016 497.913 584.788H501.282C501.422 585.489 501.871 587.819 502.545 591.525C503.219 595.231 503.668 598.122 503.809 599.105Z" fill="url(#paint10_linear)"/>
<path d="M505.914 584.788H493.702C494.685 582.402 497.408 577.798 500.44 578.471C503.472 579.145 505.352 582.963 505.914 584.788Z" fill="#67A4AE"/>
<path d="M492.86 576.3H473.069C475.034 573.492 476.859 568.299 482.754 568.299C488.649 568.299 491.597 573.773 492.86 576.3Z" fill="#67A4AE"/>
<defs>
<radialGradient id="paint0_radial" cx="0" cy="0" r="1" gradientUnits="userSpaceOnUse" gradientTransform="translate(249) rotate(90) scale(245)">
<stop stop-color="#256C76"/>
<stop offset="1" stop-color="#1F3367"/>
</radialGradient>
<linearGradient id="paint1_linear" x1="142.172" y1="-72.3334" x2="-54.7971" y2="615.437" gradientUnits="userSpaceOnUse">
<stop stop-color="#6E3154"/>
<stop offset="0.992286" stop-color="#302E5C"/>
</linearGradient>
<linearGradient id="paint2_linear" x1="357.426" y1="-63.356" x2="551.537" y2="615.37" gradientUnits="userSpaceOnUse">
<stop stop-color="#6E3154"/>
<stop offset="0.992286" stop-color="#302E5C"/>
</linearGradient>
<linearGradient id="paint3_linear" x1="58.7428" y1="574.194" x2="58.7428" y2="599.038" gradientUnits="userSpaceOnUse">
<stop stop-color="#8AD6E2"/>
<stop offset="1" stop-color="#67A4AE"/>
</linearGradient>
<linearGradient id="paint4_linear" x1="40.4247" y1="588.511" x2="40.4247" y2="598.618" gradientUnits="userSpaceOnUse">
<stop stop-color="#80C6D1"/>
<stop offset="1" stop-color="#67A4AE"/>
</linearGradient>
<linearGradient id="paint5_linear" x1="24.0024" y1="576.3" x2="24.0024" y2="599.46" gradientUnits="userSpaceOnUse">
<stop stop-color="#80C6D1"/>
<stop offset="1" stop-color="#67A4AE"/>
</linearGradient>
<linearGradient id="paint6_linear" x1="6.6641" y1="584.788" x2="6.6641" y2="599.105" gradientUnits="userSpaceOnUse">
<stop stop-color="#67A4AE"/>
<stop offset="0.0001" stop-color="#80C6D1"/>
<stop offset="1" stop-color="#67A4AE"/>
</linearGradient>
<linearGradient id="paint7_linear" x1="447.171" y1="574.194" x2="447.171" y2="599.038" gradientUnits="userSpaceOnUse">
<stop stop-color="#8AD6E2"/>
<stop offset="1" stop-color="#67A4AE"/>
</linearGradient>
<linearGradient id="paint8_linear" x1="465.489" y1="588.511" x2="465.489" y2="598.618" gradientUnits="userSpaceOnUse">
<stop stop-color="#80C6D1"/>
<stop offset="1" stop-color="#67A4AE"/>
</linearGradient>
<linearGradient id="paint9_linear" x1="481.912" y1="576.3" x2="481.912" y2="599.46" gradientUnits="userSpaceOnUse">
<stop stop-color="#80C6D1"/>
<stop offset="1" stop-color="#67A4AE"/>
</linearGradient>
<linearGradient id="paint10_linear" x1="499.25" y1="584.788" x2="499.25" y2="599.105" gradientUnits="userSpaceOnUse">
<stop stop-color="#67A4AE"/>
<stop offset="0.0001" stop-color="#80C6D1"/>
<stop offset="1" stop-color="#67A4AE"/>
</linearGradient>
</defs>
</svg>
