<svg width="295" height="401" viewBox="0 0 295 401" fill="none" xmlns="http://www.w3.org/2000/svg">
<rect x="6" width="280" height="400" fill="url(#paint0_radial)"/>
<path d="M286 0V44C274.5 64 258 82.5 210 82.5C132.713 82.5 120.833 23.5 117 0H286Z" fill="#47559F"/>
<path d="M175 0V44C163.5 64 147 82.5 99 82.5C21.7132 82.5 9.83333 23.5 6 0H175Z" fill="#47559F"/>
<path d="M185.5 400H155L168 0H203L185.5 400Z" fill="#776CF2"/>
<path d="M165.277 270.963L112 400H236.638L188.249 270.963H165.277Z" fill="#1C0E4C"/>
<path d="M167.965 267.053L168.698 271.207L165.032 273.162L162.1 268.763L162.588 266.075L166.254 264.853L167.965 267.053Z" fill="#1C0E4C"/>
<path d="M185.561 267.053L184.828 271.207L188.494 273.162L191.426 268.763L190.937 266.075L187.272 264.853L185.561 267.053Z" fill="#1C0E4C"/>
<path d="M178.229 276.339H174.319L172.364 282.693H180.184L178.229 276.339Z" fill="#1A2E75"/>
<circle cx="182.384" cy="277.317" r="0.977554" fill="#00F3F3"/>
<circle cx="170.165" cy="277.317" r="0.977554" fill="#00F3F3"/>
<path d="M178.963 331.816C181.053 325.355 193.626 324.973 193.626 324.973C193.626 324.973 186.909 326.39 184.584 331.816C180.604 341.102 182.629 347.701 182.629 347.701C182.629 347.701 176.274 340.125 178.963 331.816Z" fill="#1A2E75"/>
<path d="M172.12 331.816C170.03 325.355 157.456 324.973 157.456 324.973C157.456 324.973 164.174 326.39 166.499 331.816C170.479 341.102 168.454 347.701 168.454 347.701C168.454 347.701 174.809 340.125 172.12 331.816Z" fill="#1A2E75"/>
<path d="M286 181L57 0H67L286 169V181Z" fill="#9CE7FF" fill-opacity="0.14"/>
<path d="M68.5 400H37L68.5 0H101.5L68.5 400Z" fill="#776CF2"/>
<path d="M286 291.5L6 69V59L286 281V291.5Z" fill="#9CE7FF" fill-opacity="0.14"/>
<path d="M143.5 400H126L144.5 0H161L143.5 400Z" fill="#3B40B0"/>
<path d="M157.5 399L6 214.5V195.5L204 399H157.5Z" fill="#9CE7FF" fill-opacity="0.14"/>
<path d="M129.5 0.5H91.5L84 399.5H129.5V0.5Z" fill="#5D418A"/>
<path d="M223 0.5H187L212 399.5H256.5L223 0.5Z" fill="#5D418A"/>
<path d="M286 400L200.5 399.5C210.667 387.833 232.4 358.4 238 334C243.6 309.6 242.667 243.5 241.5 213.5L182.5 158L166 123L169.5 114.5L190.5 139.5L241.5 169.5L231 0H286V400Z" fill="url(#paint1_linear)"/>
<path d="M98.5 0.5H6V400H132.5C125.667 388.5 79.7947 351.855 75.5 333.5C39 177.5 41 50.5 98.5 0.5Z" fill="url(#paint2_linear)"/>
<path d="M218.602 400L6 128V95L286 343.5V400H218.602Z" fill="#9CE7FF" fill-opacity="0.14"/>
<path d="M286 247.5L6 31V10L286 222V247.5Z" fill="#9CE7FF" fill-opacity="0.14"/>
<path d="M286 126L119.5 0.5H133.5L286 103V126Z" fill="#9CE7FF" fill-opacity="0.14"/>
<path d="M6 49.5V0H163C163 46 75.5 91 6 49.5Z" fill="#43606C"/>
<path d="M286 31.5V0H107C107 31.5 210 78 286 31.5Z" fill="#43606C"/>
<path d="M7.3937 387.7L0.999924 401H76.5356V363.02L59.1249 395.828L61.0716 341L35.9426 395.828L44.1207 343.66L26.7237 395.828L32.374 347.207L16.7613 395.828L17.8022 361.985L7.3937 398.192V387.7Z" fill="#4D563B"/>
<path d="M288.142 387.7L294.536 401H219V363.02L236.411 395.828L234.464 341L259.593 395.828L251.415 343.66L268.812 395.828L263.162 347.207L278.774 395.828L277.733 361.985L288.142 398.192V387.7Z" fill="#4D563B"/>
<path d="M46.9565 400.149H60C52.5466 394.186 50.3106 387.478 50.3106 378.162H43.9752C46.9565 386.36 45.0932 392.323 46.9565 400.149Z" fill="url(#paint3_linear)"/>
<path d="M33.913 378.161C36.3975 373.441 39.1304 364 46.5838 364C54.0372 364 57.1428 373.441 59.2546 378.161H33.913Z" fill="#67A4AE"/>
<path d="M30.1863 390.832H40.6211C40 389.342 38.0869 386.36 35.4037 386.36C32.7205 386.36 30.8074 389.342 30.1863 390.832Z" fill="#67A4AE"/>
<path d="M32.7951 399.777H38.7578L36.8945 390.833H34.2858L32.7951 399.777Z" fill="url(#paint4_linear)"/>
<path d="M15.6522 400.522H26.8323C26.8323 400.522 25.9436 396.795 24.2236 391.205C22.5036 385.615 22.3602 380.025 22.3602 380.025H18.2608C18.2608 380.025 20.4969 387.478 18.6335 391.95C16.7702 396.422 15.6522 400.522 15.6522 400.522Z" fill="url(#paint5_linear)"/>
<path d="M1.86321 400.208H9.31663C11.1054 396.928 8.57129 390.394 7.08061 387.537H4.09924C3.97502 388.158 3.5775 390.22 2.98123 393.5C2.38495 396.779 1.98744 399.338 1.86321 400.208Z" fill="url(#paint6_linear)"/>
<path d="M-8.01086e-05 387.537H10.8074C9.93781 385.425 7.52787 381.351 4.84464 381.947C2.16141 382.543 0.496815 385.922 -8.01086e-05 387.537Z" fill="#67A4AE"/>
<path d="M11.5528 380.025H29.0684C27.3292 377.541 25.7143 372.944 20.4969 372.944C15.2795 372.944 12.6708 377.789 11.5528 380.025Z" fill="#67A4AE"/>
<path d="M62.1852 390.741H57C57 389.012 57.5185 385.63 59.5926 385.926C61.6667 386.222 62.1852 389.259 62.1852 390.741Z" fill="#67A4AE"/>
<path d="M70.3334 390.018H65.1482C65.1482 388.29 65.6667 384.907 67.7408 385.203C69.8149 385.5 70.3334 388.537 70.3334 390.018Z" fill="#67A4AE"/>
<path d="M76.2592 387.796H71.074C71.074 386.068 71.5925 382.685 73.6666 382.981C75.7406 383.277 76.2592 386.314 76.2592 387.796Z" fill="#67A4AE"/>
<path d="M79.2223 391.852H75.5186C75.5186 390.527 75.8889 387.935 77.3704 388.162C78.8519 388.389 79.2223 390.716 79.2223 391.852Z" fill="#67A4AE"/>
<path d="M65.8888 384.833H60.7036C60.7036 383.105 61.2221 379.722 63.2962 380.018C65.3703 380.315 65.8888 383.352 65.8888 384.833Z" fill="#67A4AE"/>
<path fill-rule="evenodd" clip-rule="evenodd" d="M59.8084 392.578C59.3955 391.848 59.116 391.088 59.226 390.318L59.9593 390.423C59.8841 390.949 60.0675 391.531 60.4532 392.213C60.7855 392.801 61.2394 393.415 61.7346 394.085C61.8136 394.192 61.8936 394.3 61.9743 394.41C63.1234 395.973 64.4074 397.825 64.4074 400H63.6667C63.6667 398.101 62.5433 396.434 61.3776 394.849C61.2993 394.742 61.2207 394.636 61.1423 394.53C60.6498 393.864 60.165 393.208 59.8084 392.578Z" fill="#67A4AE"/>
<path fill-rule="evenodd" clip-rule="evenodd" d="M64.0995 393.488C63.3984 391.198 62.7381 388.56 62.9263 384.796L63.6661 384.833C63.4839 388.478 64.1199 391.024 64.8078 393.271C64.9058 393.591 65.0054 393.907 65.1042 394.22C65.6967 396.096 66.2593 397.877 66.2593 400L65.5186 400C65.5186 397.999 64.9942 396.336 64.4021 394.457C64.3024 394.141 64.2008 393.819 64.0995 393.488Z" fill="#67A4AE"/>
<path fill-rule="evenodd" clip-rule="evenodd" d="M67.3704 400V390H68.1111V400H67.3704Z" fill="#67A4AE"/>
<path fill-rule="evenodd" clip-rule="evenodd" d="M72.6304 391.524C73.0261 390.578 73.296 389.401 73.296 387.778L74.0367 387.778C74.0368 389.488 73.7512 390.764 73.3136 391.81C72.8777 392.851 72.2973 393.647 71.7405 394.389C71.7094 394.43 71.6784 394.472 71.6475 394.513C71.1208 395.214 70.6278 395.87 70.2527 396.683C69.8598 397.534 69.5923 398.569 69.5923 400L68.8516 400C68.8516 398.468 69.1397 397.327 69.5801 396.373C69.9894 395.486 70.5267 394.771 71.0454 394.081C71.0797 394.035 71.1139 393.99 71.1479 393.945C71.7023 393.205 72.2329 392.473 72.6304 391.524Z" fill="#67A4AE"/>
<path fill-rule="evenodd" clip-rule="evenodd" d="M75.8829 393.936C76.4251 393.257 76.7092 392.589 76.6318 391.893L77.368 391.811C77.4758 392.781 77.0655 393.642 76.4618 394.398C75.86 395.152 75.0309 395.846 74.222 396.493C74.083 396.604 73.9448 396.714 73.8082 396.822C73.1355 397.356 72.501 397.86 72.0026 398.363C71.3947 398.976 71.074 399.509 71.074 400H70.3333C70.3333 399.195 70.8459 398.478 71.4764 397.841C72.009 397.304 72.6864 396.766 73.3589 396.233C73.493 396.127 73.6268 396.021 73.7593 395.915C74.5708 395.265 75.3389 394.617 75.8829 393.936Z" fill="#67A4AE"/>
<path d="M214.185 390.741H209C209 389.012 209.519 385.63 211.593 385.926C213.667 386.222 214.185 389.259 214.185 390.741Z" fill="#67A4AE"/>
<path d="M222.333 390.018H217.148C217.148 388.29 217.667 384.907 219.741 385.203C221.815 385.5 222.333 388.537 222.333 390.018Z" fill="#67A4AE"/>
<path d="M228.259 387.796H223.074C223.074 386.068 223.592 382.685 225.667 382.981C227.741 383.277 228.259 386.314 228.259 387.796Z" fill="#67A4AE"/>
<path d="M231.222 391.852H227.519C227.519 390.527 227.889 387.935 229.37 388.162C230.852 388.389 231.222 390.716 231.222 391.852Z" fill="#67A4AE"/>
<path d="M217.889 384.833H212.704C212.704 383.105 213.222 379.722 215.296 380.018C217.37 380.315 217.889 383.352 217.889 384.833Z" fill="#67A4AE"/>
<path fill-rule="evenodd" clip-rule="evenodd" d="M211.808 392.578C211.395 391.848 211.116 391.088 211.226 390.318L211.959 390.423C211.884 390.949 212.067 391.531 212.453 392.213C212.786 392.801 213.239 393.415 213.735 394.085C213.814 394.192 213.894 394.3 213.974 394.41C215.123 395.973 216.407 397.825 216.407 400H215.667C215.667 398.101 214.543 396.434 213.378 394.849C213.299 394.742 213.221 394.636 213.142 394.53C212.65 393.864 212.165 393.208 211.808 392.578Z" fill="#67A4AE"/>
<path fill-rule="evenodd" clip-rule="evenodd" d="M216.099 393.488C215.398 391.198 214.738 388.56 214.926 384.796L215.666 384.833C215.484 388.478 216.12 391.024 216.808 393.271C216.906 393.591 217.005 393.907 217.104 394.22C217.697 396.096 218.259 397.877 218.259 400L217.519 400C217.519 397.999 216.994 396.336 216.402 394.457C216.302 394.141 216.201 393.819 216.099 393.488Z" fill="#67A4AE"/>
<path fill-rule="evenodd" clip-rule="evenodd" d="M219.37 400V390H220.111V400H219.37Z" fill="#67A4AE"/>
<path fill-rule="evenodd" clip-rule="evenodd" d="M224.63 391.524C225.026 390.578 225.296 389.401 225.296 387.778L226.037 387.778C226.037 389.488 225.751 390.764 225.314 391.81C224.878 392.851 224.297 393.647 223.741 394.389C223.709 394.43 223.678 394.472 223.648 394.513C223.121 395.214 222.628 395.87 222.253 396.683C221.86 397.534 221.592 398.569 221.592 400L220.852 400C220.852 398.468 221.14 397.327 221.58 396.373C221.989 395.486 222.527 394.771 223.045 394.081C223.08 394.035 223.114 393.99 223.148 393.945C223.702 393.205 224.233 392.473 224.63 391.524Z" fill="#67A4AE"/>
<path fill-rule="evenodd" clip-rule="evenodd" d="M227.883 393.936C228.425 393.257 228.709 392.589 228.632 391.893L229.368 391.811C229.476 392.781 229.066 393.642 228.462 394.398C227.86 395.152 227.031 395.846 226.222 396.493C226.083 396.604 225.945 396.714 225.808 396.822C225.135 397.356 224.501 397.86 224.003 398.363C223.395 398.976 223.074 399.509 223.074 400H222.333C222.333 399.195 222.846 398.478 223.476 397.841C224.009 397.304 224.686 396.766 225.359 396.233C225.493 396.127 225.627 396.021 225.759 395.915C226.571 395.265 227.339 394.617 227.883 393.936Z" fill="#67A4AE"/>
<path d="M246.043 400.149H233C240.453 394.186 242.689 387.478 242.689 378.162H249.025C246.043 386.36 247.907 392.323 246.043 400.149Z" fill="url(#paint7_linear)"/>
<path d="M259.087 378.161C256.603 373.441 253.87 364 246.416 364C238.963 364 235.857 373.441 233.745 378.161H259.087Z" fill="#67A4AE"/>
<path d="M262.814 390.832H252.379C253 389.342 254.913 386.36 257.596 386.36C260.28 386.36 262.193 389.342 262.814 390.832Z" fill="#67A4AE"/>
<path d="M260.205 399.777H254.242L256.106 390.833H258.714L260.205 399.777Z" fill="url(#paint8_linear)"/>
<path d="M277.348 400.522H266.168C266.168 400.522 267.056 396.795 268.776 391.205C270.496 385.615 270.64 380.025 270.64 380.025H274.739C274.739 380.025 272.503 387.478 274.366 391.95C276.23 396.422 277.348 400.522 277.348 400.522Z" fill="url(#paint9_linear)"/>
<path d="M291.137 400.208H283.683C281.895 396.928 284.429 390.394 285.919 387.537H288.901C289.025 388.158 289.423 390.22 290.019 393.5C290.615 396.779 291.013 399.338 291.137 400.208Z" fill="url(#paint10_linear)"/>
<path d="M293 387.537H282.193C283.062 385.425 285.472 381.351 288.155 381.947C290.839 382.543 292.503 385.922 293 387.537Z" fill="#67A4AE"/>
<path d="M281.447 380.025H263.932C265.671 377.541 267.286 372.944 272.503 372.944C277.72 372.944 280.329 377.789 281.447 380.025Z" fill="#67A4AE"/>
<defs>
<radialGradient id="paint0_radial" cx="0" cy="0" r="1" gradientUnits="userSpaceOnUse" gradientTransform="translate(146) rotate(90) scale(200 140)">
<stop stop-color="#256C76"/>
<stop offset="1" stop-color="#1F3367"/>
</radialGradient>
<linearGradient id="paint1_linear" x1="226" y1="0" x2="226" y2="400" gradientUnits="userSpaceOnUse">
<stop stop-color="#603156"/>
<stop offset="1" stop-color="#352F5C"/>
</linearGradient>
<linearGradient id="paint2_linear" x1="69.25" y1="0.5" x2="69.25" y2="400" gradientUnits="userSpaceOnUse">
<stop stop-color="#603156"/>
<stop offset="1" stop-color="#352F5C"/>
</linearGradient>
<linearGradient id="paint3_linear" x1="51.9876" y1="378.162" x2="51.9876" y2="400.149" gradientUnits="userSpaceOnUse">
<stop stop-color="#8AD6E2"/>
<stop offset="1" stop-color="#67A4AE"/>
</linearGradient>
<linearGradient id="paint4_linear" x1="35.7764" y1="390.833" x2="35.7764" y2="399.777" gradientUnits="userSpaceOnUse">
<stop stop-color="#80C6D1"/>
<stop offset="1" stop-color="#67A4AE"/>
</linearGradient>
<linearGradient id="paint5_linear" x1="21.2422" y1="380.025" x2="21.2422" y2="400.522" gradientUnits="userSpaceOnUse">
<stop stop-color="#80C6D1"/>
<stop offset="1" stop-color="#67A4AE"/>
</linearGradient>
<linearGradient id="paint6_linear" x1="5.89755" y1="387.537" x2="5.89755" y2="400.208" gradientUnits="userSpaceOnUse">
<stop stop-color="#67A4AE"/>
<stop offset="0.0001" stop-color="#80C6D1"/>
<stop offset="1" stop-color="#67A4AE"/>
</linearGradient>
<linearGradient id="paint7_linear" x1="241.012" y1="378.162" x2="241.012" y2="400.149" gradientUnits="userSpaceOnUse">
<stop stop-color="#8AD6E2"/>
<stop offset="1" stop-color="#67A4AE"/>
</linearGradient>
<linearGradient id="paint8_linear" x1="257.224" y1="390.833" x2="257.224" y2="399.777" gradientUnits="userSpaceOnUse">
<stop stop-color="#80C6D1"/>
<stop offset="1" stop-color="#67A4AE"/>
</linearGradient>
<linearGradient id="paint9_linear" x1="271.758" y1="380.025" x2="271.758" y2="400.522" gradientUnits="userSpaceOnUse">
<stop stop-color="#80C6D1"/>
<stop offset="1" stop-color="#67A4AE"/>
</linearGradient>
<linearGradient id="paint10_linear" x1="287.102" y1="387.537" x2="287.102" y2="400.208" gradientUnits="userSpaceOnUse">
<stop stop-color="#67A4AE"/>
<stop offset="0.0001" stop-color="#80C6D1"/>
<stop offset="1" stop-color="#67A4AE"/>
</linearGradient>
</defs>
</svg>
