<svg width="297" height="402" viewBox="0 0 297 402" fill="none" xmlns="http://www.w3.org/2000/svg">
<rect x="8" width="280" height="400" fill="#FFD7AC"/>
<path d="M288 0V44C276.5 64 260 82.5 212 82.5C134.713 82.5 122.833 23.5 119 0H288Z" fill="#B56949"/>
<path d="M177 0V44C165.5 64 149 82.5 101 82.5C23.7132 82.5 11.8333 23.5 8 0H177Z" fill="#B56949"/>
<path d="M187.5 400H157L170 0H205L187.5 400Z" fill="#F2946C"/>
<path d="M167.277 270.963L114 400H238.638L190.249 270.963H167.277Z" fill="#1C0E4C"/>
<path d="M169.965 267.053L170.698 271.207L167.032 273.162L164.1 268.763L164.588 266.075L168.254 264.853L169.965 267.053Z" fill="#1C0E4C"/>
<path d="M187.561 267.053L186.828 271.207L190.494 273.162L193.426 268.763L192.937 266.075L189.272 264.853L187.561 267.053Z" fill="#1C0E4C"/>
<path d="M180.229 276.339H176.319L174.364 282.693H182.184L180.229 276.339Z" fill="#1A2E75"/>
<circle cx="184.384" cy="277.317" r="0.977554" fill="#00F3F3"/>
<circle cx="172.165" cy="277.317" r="0.977554" fill="#00F3F3"/>
<path d="M180.963 331.816C183.053 325.355 195.626 324.973 195.626 324.973C195.626 324.973 188.909 326.39 186.584 331.816C182.604 341.102 184.629 347.701 184.629 347.701C184.629 347.701 178.274 340.125 180.963 331.816Z" fill="#1A2E75"/>
<path d="M174.12 331.816C172.03 325.355 159.456 324.973 159.456 324.973C159.456 324.973 166.174 326.39 168.499 331.816C172.479 341.102 170.454 347.701 170.454 347.701C170.454 347.701 176.809 340.125 174.12 331.816Z" fill="#1A2E75"/>
<path d="M288 181L59 0H69L288 169V181Z" fill="#FFEF9C" fill-opacity="0.14"/>
<path d="M70.5 400H39L70.5 0H103.5L70.5 400Z" fill="#F2946C"/>
<path d="M288.319 291.5L8 69V59L288.319 281V291.5Z" fill="#FFEF9C" fill-opacity="0.14"/>
<path d="M145.5 400H128L146.5 0H163L145.5 400Z" fill="#DD756E"/>
<path d="M159.5 400L8 214.5V195.5L206 400H159.5Z" fill="#FFEF9C" fill-opacity="0.14"/>
<path d="M131.5 0.5H93.5L86 399.5H131.5V0.5Z" fill="#8A4152"/>
<path d="M225 0.5H189L214 399.5H258.5L225 0.5Z" fill="#8A4152"/>
<path d="M288 400H202.5C212.667 388.333 234.4 358.4 240 334C245.6 309.6 244.667 243.5 243.5 213.5L184.5 158L168 123L171.5 114.5L192.5 139.5L243.5 169.5L233 0H288V400Z" fill="url(#paint0_linear)"/>
<path d="M100.5 0.5H8V400H134.5C127.667 388.5 81.7947 351.855 77.5 333.5C41 177.5 43 50.5 100.5 0.5Z" fill="url(#paint1_linear)"/>
<path d="M220.602 400L8 128V95L288 343.5V400H220.602Z" fill="#FFEF9C" fill-opacity="0.14"/>
<path d="M288 247.5L8 31V10L288 222V247.5Z" fill="#FFEF9C" fill-opacity="0.14"/>
<path d="M288 126L121.5 0.5H135.5L288 103V126Z" fill="#FFEF9C" fill-opacity="0.14"/>
<path d="M8 49.5V0H165C165 46 77.5 91 8 49.5Z" fill="#43606C"/>
<path d="M288 31.5V0H109C109 31.5 212 78 288 31.5Z" fill="#43606C"/>
<path d="M260.174 349.036C279.279 361.627 290.734 393.305 291.854 401.144H289.951C278.215 394.801 257.076 379.774 244.688 369.405C226.833 354.459 223.605 340.148 220.807 332C225.968 332.432 241.068 336.444 260.174 349.036Z" fill="#43606C"/>
<path fill-rule="evenodd" clip-rule="evenodd" d="M272.615 389.768L287.84 395.794L287.622 396.344L272.397 390.318L272.615 389.768Z" fill="#173E4F"/>
<path fill-rule="evenodd" clip-rule="evenodd" d="M258.647 379.296L280.849 386.908L280.657 387.468L258.455 379.856L258.647 379.296Z" fill="#173E4F"/>
<path fill-rule="evenodd" clip-rule="evenodd" d="M245.627 369.142L272.587 376.754L272.426 377.324L245.466 369.711L245.627 369.142Z" fill="#173E4F"/>
<path fill-rule="evenodd" clip-rule="evenodd" d="M233.575 357.406L263.707 365.97L263.545 366.539L233.413 357.976L233.575 357.406Z" fill="#173E4F"/>
<path fill-rule="evenodd" clip-rule="evenodd" d="M227.868 347.892L252.608 355.187L252.44 355.754L227.701 348.459L227.868 347.892Z" fill="#173E4F"/>
<path fill-rule="evenodd" clip-rule="evenodd" d="M223.125 338.698L241.204 345.042L241.008 345.6L222.929 339.257L223.125 338.698Z" fill="#173E4F"/>
<path fill-rule="evenodd" clip-rule="evenodd" d="M279.506 372.306L280.775 387.53L281.365 387.481L280.096 372.256L279.506 372.306Z" fill="#173E4F"/>
<path fill-rule="evenodd" clip-rule="evenodd" d="M271.893 361.18V376.721H272.485V361.18H271.893Z" fill="#173E4F"/>
<path fill-rule="evenodd" clip-rule="evenodd" d="M263.013 351.684L263.964 366.591L264.555 366.553L263.604 351.646L263.013 351.684Z" fill="#173E4F"/>
<path fill-rule="evenodd" clip-rule="evenodd" d="M252.23 344.712L253.182 355.813L253.771 355.763L252.82 344.662L252.23 344.712Z" fill="#173E4F"/>
<path fill-rule="evenodd" clip-rule="evenodd" d="M237.665 337.831L240.836 344.809L241.375 344.564L238.204 337.586L237.665 337.831Z" fill="#173E4F"/>
<path fill-rule="evenodd" clip-rule="evenodd" d="M286.485 386.901L287.436 396.416L288.025 396.357L287.074 386.842L286.485 386.901Z" fill="#173E4F"/>
<path fill-rule="evenodd" clip-rule="evenodd" d="M262.775 365.823C249.467 351.564 234.905 339.539 220.677 332.583L220.937 332.051C235.254 339.051 249.872 351.131 263.207 365.419C271.575 374.384 286.275 393.036 291.464 400.66L290.975 400.993C285.802 393.393 271.121 374.765 262.775 365.823Z" fill="#173E4F"/>
<path fill-rule="evenodd" clip-rule="evenodd" d="M28.083 316.845C28.6361 314.758 29.1736 312.731 29.6741 310.625L27.3849 310.081C26.8958 312.139 26.3659 314.137 25.8172 316.206C23.7451 324.018 21.407 332.833 20.0041 349.667C18.745 364.776 19.2259 377.509 19.6435 388.564C19.813 393.052 19.9721 397.262 20.0001 401.244L22.353 401.227C22.3241 397.132 22.1624 392.855 21.9912 388.328C21.5748 377.316 21.1023 364.822 22.3489 349.863C23.7334 333.249 26.017 324.636 28.083 316.845Z" fill="#43606C"/>
<path fill-rule="evenodd" clip-rule="evenodd" d="M10.2017 329.602C10.2016 329.602 10.2015 329.602 9.11762 330.059C8.03372 330.516 8.03366 330.516 8.03361 330.516L8.03389 330.517L8.03572 330.521L8.0443 330.542C8.05218 330.561 8.06434 330.59 8.0806 330.63C8.11312 330.71 8.16201 330.831 8.2257 330.993C8.35308 331.316 8.53967 331.802 8.77294 332.442C9.23949 333.723 9.89269 335.623 10.6324 338.082C12.112 343 13.9371 350.152 15.3078 359.061C15.5737 360.79 15.8309 362.448 16.0788 364.046C18.4087 379.065 19.9122 388.756 20.0001 401.244L22.353 401.227C22.2638 388.558 20.7333 378.695 18.4076 363.708C18.1584 362.102 17.9 360.437 17.6334 358.704C16.2439 349.672 14.3924 342.412 12.8856 337.404C12.1321 334.899 11.4646 332.957 10.9838 331.637C10.7434 330.977 10.5496 330.472 10.415 330.131C10.3477 329.96 10.2952 329.83 10.2591 329.741C10.2411 329.697 10.2271 329.663 10.2175 329.64L10.2062 329.613L10.203 329.605L10.2017 329.602Z" fill="#43606C"/>
<path fill-rule="evenodd" clip-rule="evenodd" d="M35.4543 343.545L34.4117 343C33.3691 342.455 33.369 342.455 33.3689 342.455L33.3635 342.466L33.3482 342.495C33.3348 342.521 33.3151 342.559 33.2895 342.608C33.2382 342.708 33.163 342.854 33.0666 343.044C32.8737 343.423 32.5956 343.976 32.253 344.673C31.568 346.066 30.6243 348.037 29.5881 350.35C27.5203 354.965 25.0646 360.987 23.5701 366.516C20.5892 377.546 19.9017 387.274 20.0001 401.243L22.353 401.227C22.2553 387.353 22.9401 377.866 25.8416 367.13C27.2882 361.778 29.6854 355.887 31.7354 351.312C32.7579 349.029 33.6893 347.084 34.3645 345.711C34.7021 345.024 34.9755 344.481 35.164 344.11C35.2583 343.925 35.3313 343.783 35.3806 343.687C35.4052 343.639 35.4239 343.603 35.4363 343.579L35.4501 343.553L35.4543 343.545Z" fill="#43606C"/>
<ellipse rx="5.29412" ry="5.58824" transform="matrix(-1 0 0 1 34.7059 343.294)" fill="#FD39A1"/>
<circle r="2.64706" transform="matrix(-1 0 0 1 34.4118 343.294)" fill="#99155B"/>
<ellipse rx="7.94118" ry="8.23529" transform="matrix(-1 0 0 1 7.94115 324.765)" fill="#FD39A1"/>
<circle r="4.11765" transform="matrix(-1 0 0 1 7.647 324.765)" fill="#99155B"/>
<ellipse rx="10" ry="10.2941" transform="matrix(-1 0 0 1 30 303.294)" fill="#FD39A1"/>
<circle r="5" transform="matrix(-1 0 0 1 29.7058 303.294)" fill="#99155B"/>
<path d="M50.7058 355.361C34.6008 365.975 24.9441 392.678 24.0004 399.286H25.6046C35.4973 393.939 53.3166 381.272 63.7596 372.531C78.8109 359.932 81.5317 347.868 83.8909 341C79.5396 341.364 66.8108 344.746 50.7058 355.361Z" fill="#43606C"/>
<path fill-rule="evenodd" clip-rule="evenodd" d="M40.2177 389.696L27.384 394.776L27.5677 395.24L40.4014 390.16L40.2177 389.696Z" fill="#173E4F"/>
<path fill-rule="evenodd" clip-rule="evenodd" d="M51.9922 380.869L33.2764 387.286L33.4383 387.758L52.1541 381.341L51.9922 380.869Z" fill="#173E4F"/>
<path fill-rule="evenodd" clip-rule="evenodd" d="M62.9674 372.309L40.2411 378.726L40.3767 379.206L63.103 372.789L62.9674 372.309Z" fill="#173E4F"/>
<path fill-rule="evenodd" clip-rule="evenodd" d="M73.1272 362.417L47.7273 369.635L47.8637 370.116L73.2637 362.897L73.1272 362.417Z" fill="#173E4F"/>
<path fill-rule="evenodd" clip-rule="evenodd" d="M77.9379 354.396L57.0832 360.546L57.2244 361.025L78.0791 354.875L77.9379 354.396Z" fill="#173E4F"/>
<path fill-rule="evenodd" clip-rule="evenodd" d="M81.9366 346.646L66.6966 351.994L66.8618 352.465L82.1018 347.117L81.9366 346.646Z" fill="#173E4F"/>
<path fill-rule="evenodd" clip-rule="evenodd" d="M34.4089 374.977L33.3394 387.81L32.842 387.769L33.9115 374.935L34.4089 374.977Z" fill="#173E4F"/>
<path fill-rule="evenodd" clip-rule="evenodd" d="M40.8267 365.598V378.699H40.3276V365.598H40.8267Z" fill="#173E4F"/>
<path fill-rule="evenodd" clip-rule="evenodd" d="M48.3117 357.593L47.5095 370.159L47.0115 370.127L47.8136 357.561L48.3117 357.593Z" fill="#173E4F"/>
<path fill-rule="evenodd" clip-rule="evenodd" d="M57.4017 351.716L56.5996 361.074L56.1023 361.031L56.9044 351.673L57.4017 351.716Z" fill="#173E4F"/>
<path fill-rule="evenodd" clip-rule="evenodd" d="M69.6803 345.916L67.0066 351.798L66.5522 351.592L69.2259 345.709L69.6803 345.916Z" fill="#173E4F"/>
<path fill-rule="evenodd" clip-rule="evenodd" d="M28.526 387.28L27.7239 395.301L27.2273 395.251L28.0294 387.23L28.526 387.28Z" fill="#173E4F"/>
<path fill-rule="evenodd" clip-rule="evenodd" d="M48.5129 369.512C59.7309 357.492 72.0059 347.356 84 341.492L83.7808 341.043C71.7118 346.944 59.3889 357.127 48.148 369.171C41.0943 376.729 28.7024 392.452 24.3284 398.879L24.741 399.16C29.1011 392.753 41.4772 377.05 48.5129 369.512Z" fill="#173E4F"/>
<path fill-rule="evenodd" clip-rule="evenodd" d="M268.917 302.845C268.364 300.758 267.826 298.731 267.326 296.625L269.615 296.081C270.104 298.139 270.634 300.137 271.183 302.206C273.255 310.018 275.593 318.833 276.996 335.667C278.255 350.776 277.774 363.509 277.356 374.564C277.187 379.052 277.028 383.262 277 387.244L274.647 387.227C274.676 383.132 274.838 378.855 275.009 374.328C275.425 363.316 275.898 350.822 274.651 335.863C273.267 319.249 270.983 310.636 268.917 302.845Z" fill="#43606C"/>
<path fill-rule="evenodd" clip-rule="evenodd" d="M286.798 315.602C286.798 315.602 286.798 315.602 287.882 316.059C288.966 316.516 288.966 316.516 288.966 316.516L288.966 316.517L288.964 316.521L288.956 316.542C288.948 316.561 288.936 316.59 288.919 316.63C288.887 316.71 288.838 316.831 288.774 316.993C288.647 317.316 288.46 317.802 288.227 318.442C287.761 319.723 287.107 321.623 286.368 324.082C284.888 329 283.063 336.152 281.692 345.061C281.426 346.79 281.169 348.448 280.921 350.046C278.591 365.065 277.088 374.756 277 387.244L274.647 387.227C274.736 374.558 276.267 364.695 278.592 349.708C278.842 348.102 279.1 346.437 279.367 344.704C280.756 335.672 282.608 328.412 284.114 323.404C284.868 320.899 285.535 318.957 286.016 317.637C286.257 316.977 286.45 316.472 286.585 316.131C286.652 315.96 286.705 315.83 286.741 315.741C286.759 315.697 286.773 315.663 286.783 315.64L286.794 315.613L286.797 315.605L286.798 315.602Z" fill="#43606C"/>
<path fill-rule="evenodd" clip-rule="evenodd" d="M261.546 329.545L262.588 329C263.631 328.455 263.631 328.455 263.631 328.455L263.637 328.466L263.652 328.495C263.665 328.521 263.685 328.559 263.711 328.608C263.762 328.708 263.837 328.854 263.933 329.044C264.126 329.423 264.404 329.976 264.747 330.673C265.432 332.066 266.376 334.037 267.412 336.35C269.48 340.965 271.935 346.987 273.43 352.516C276.411 363.546 277.098 373.274 277 387.243L274.647 387.227C274.745 373.353 274.06 363.866 271.158 353.13C269.712 347.778 267.315 341.887 265.265 337.312C264.242 335.029 263.311 333.084 262.635 331.711C262.298 331.024 262.025 330.481 261.836 330.11C261.742 329.925 261.669 329.783 261.619 329.687C261.595 329.639 261.576 329.603 261.564 329.579L261.55 329.553L261.546 329.545Z" fill="#43606C"/>
<ellipse cx="262.294" cy="329.294" rx="5.29412" ry="5.58824" fill="#FD39A1"/>
<circle cx="262.588" cy="329.294" r="2.64706" fill="#99155B"/>
<ellipse cx="289.059" cy="310.765" rx="7.94118" ry="8.23529" fill="#FD39A1"/>
<circle cx="289.353" cy="310.765" r="4.11765" fill="#99155B"/>
<ellipse cx="267" cy="289.294" rx="10" ry="10.2941" fill="#FD39A1"/>
<circle cx="267.294" cy="289.294" r="5" fill="#99155B"/>
<path d="M60 338.534L47.6471 401.789H39.4118H30.5882H0V380.802L7.35294 400.04L13.5294 354.567L18.2353 400.04L28.8235 326L30.5882 401.789L44.4118 332.996L39.4118 401.789L60 338.534Z" fill="#59787D"/>
<path d="M237 338.534L249.353 401.789H257.588H266.412H297V380.802L289.647 400.04L283.471 354.567L278.765 400.04L268.176 326L266.412 401.789L252.588 332.996L257.588 401.789L237 338.534Z" fill="#59787D"/>
<path d="M84.9213 391.201L90 401.797H30V371.541L46.4173 397.676L42.2835 354L62.2441 397.676L55.748 356.119L69.5669 397.676L65.0787 358.944L77.4803 397.676L76.6535 370.717L84.9213 399.56V391.201Z" fill="#80886F"/>
<path d="M210.079 391.201L205 401.797H265V371.541L248.583 397.676L252.717 354L232.756 397.676L239.252 356.119L225.433 397.676L229.921 358.944L217.52 397.676L218.346 370.717L210.079 399.56V391.201Z" fill="#80886F"/>
<defs>
<linearGradient id="paint0_linear" x1="228" y1="0" x2="228" y2="400" gradientUnits="userSpaceOnUse">
<stop stop-color="#603156"/>
<stop offset="1" stop-color="#352F5C"/>
</linearGradient>
<linearGradient id="paint1_linear" x1="71.25" y1="0.5" x2="71.25" y2="400" gradientUnits="userSpaceOnUse">
<stop stop-color="#603156"/>
<stop offset="1" stop-color="#352F5C"/>
</linearGradient>
</defs>
</svg>
