<svg width="513" height="602" viewBox="0 0 513 602" fill="none" xmlns="http://www.w3.org/2000/svg">
<rect x="10" width="480" height="600" fill="#FFD7AC"/>
<path d="M489 0V65.6C471.716 95.4182 446.917 123 374.775 123C258.616 123 240.761 35.0364 235 0H489Z" fill="#B56949"/>
<path d="M264 0V65.6C246.716 95.4182 221.917 123 149.775 123C33.6163 123 15.7613 35.0364 10 0H264Z" fill="#B56949"/>
<path d="M321.75 600H268L295.5 0H348L321.75 600Z" fill="#F2946C"/>
<path d="M290.555 354.646L189 600.616H426.584L334.345 354.646H290.555Z" fill="#1C0E4C"/>
<path d="M295.679 347.193L297.077 355.112L290.089 358.839L284.499 350.454L285.431 345.329L292.418 343L295.679 347.193Z" fill="#1C0E4C"/>
<path d="M329.221 347.193L327.823 355.112L334.811 358.839L340.401 350.454L339.47 345.329L332.482 343L329.221 347.193Z" fill="#1C0E4C"/>
<path d="M315.246 364.895H307.793L304.066 377.007H318.973L315.246 364.895Z" fill="#1A2E75"/>
<circle cx="323.165" cy="366.758" r="1.8634" fill="#00F3F3"/>
<circle cx="299.873" cy="366.758" r="1.8634" fill="#00F3F3"/>
<path d="M316.643 470.643C320.627 458.328 344.595 457.599 344.595 457.599C344.595 457.599 331.79 460.301 327.358 470.643C319.771 488.345 323.632 500.923 323.632 500.923C323.632 500.923 311.518 486.482 316.643 470.643Z" fill="#1A2E75"/>
<path d="M303.601 470.643C299.616 458.328 275.649 457.599 275.649 457.599C275.649 457.599 288.453 460.301 292.885 470.643C300.472 488.345 296.612 500.923 296.612 500.923C296.612 500.923 308.725 486.482 303.601 470.643Z" fill="#1A2E75"/>
<path d="M490 253L94 0H114L490 231V253Z" fill="#FFEF9C" fill-opacity="0.14"/>
<path d="M109.372 600H62L109.372 0H159L109.372 600Z" fill="#F2946C"/>
<path d="M490 436L10 81V59L490 415V436Z" fill="#FFEF9C" fill-opacity="0.14"/>
<path d="M255 600H216L249 0H279L255 600Z" fill="#DD756E"/>
<path d="M214 1H157.209L146 600H214V1Z" fill="#8A4152"/>
<path d="M388.871 1H335L372.41 599H439L388.871 1Z" fill="#8A4152"/>
<path d="M490 600H362.678C377.907 582.507 410.461 537.376 418.849 500.791C427.238 464.206 425.84 365.098 424.092 320.116L335.716 236.901L296.757 175.745L302 163L347.699 209.163L424.092 254.144L408.364 0H490V600Z" fill="url(#paint0_linear)"/>
<path d="M148.202 1H10V600H199C188.791 582.757 120.254 527.813 113.838 500.292C59.3043 266.389 62.2925 75.9687 148.202 1Z" fill="url(#paint1_linear)"/>
<path d="M490 169L219 1H251L490 128V169Z" fill="#FFEF9C" fill-opacity="0.14"/>
<path d="M490 361.5L11 31V3L490 320V361.5Z" fill="#FFEF9C" fill-opacity="0.14"/>
<path d="M422.283 600L10 170V125L490 482V600H422.283Z" fill="#FFEF9C" fill-opacity="0.14"/>
<path d="M10 74.3708V0H246C246 69.1123 114.471 136.722 10 74.3708Z" fill="#43606C"/>
<path d="M490 47.4118V0H220C220 47.4118 375.788 117.401 490 47.4118Z" fill="#43606C"/>
<path fill-rule="evenodd" clip-rule="evenodd" d="M472.917 516.845C472.364 514.758 471.827 512.731 471.326 510.625L473.615 510.081C474.104 512.139 474.634 514.137 475.183 516.206C477.255 524.018 479.593 532.833 480.996 549.667C482.255 564.776 481.774 577.509 481.357 588.564C481.187 593.052 481.028 597.262 481 601.244L478.647 601.227C478.676 597.132 478.838 592.855 479.009 588.328C479.425 577.316 479.898 564.822 478.651 549.863C477.267 533.249 474.983 524.636 472.917 516.845Z" fill="#43606C"/>
<path fill-rule="evenodd" clip-rule="evenodd" d="M490.798 529.602C490.798 529.602 490.798 529.602 491.882 530.059C492.966 530.516 492.966 530.516 492.966 530.516L492.966 530.517L492.964 530.521L492.956 530.542C492.948 530.561 492.936 530.59 492.919 530.63C492.887 530.71 492.838 530.831 492.774 530.993C492.647 531.316 492.46 531.802 492.227 532.442C491.761 533.723 491.107 535.623 490.368 538.082C488.888 543 487.063 550.152 485.692 559.061C485.426 560.79 485.169 562.448 484.921 564.046C482.591 579.065 481.088 588.756 481 601.244L478.647 601.227C478.736 588.558 480.267 578.695 482.592 563.708C482.842 562.102 483.1 560.437 483.367 558.704C484.756 549.672 486.608 542.412 488.114 537.404C488.868 534.899 489.535 532.957 490.016 531.637C490.257 530.977 490.45 530.472 490.585 530.131C490.652 529.96 490.705 529.83 490.741 529.741C490.759 529.697 490.773 529.663 490.783 529.64L490.794 529.613L490.797 529.605L490.798 529.602Z" fill="#43606C"/>
<path fill-rule="evenodd" clip-rule="evenodd" d="M465.545 543.545L466.588 543C467.631 542.455 467.631 542.455 467.631 542.455L467.636 542.466L467.652 542.495C467.665 542.521 467.685 542.559 467.71 542.608C467.762 542.708 467.837 542.854 467.933 543.044C468.126 543.423 468.404 543.976 468.747 544.673C469.432 546.066 470.375 548.037 471.412 550.35C473.479 554.965 475.935 560.987 477.43 566.516C480.411 577.546 481.098 587.274 481 601.243L478.647 601.227C478.744 587.353 478.06 577.866 475.158 567.13C473.712 561.778 471.314 555.887 469.264 551.312C468.242 549.029 467.31 547.084 466.635 545.711C466.298 545.024 466.024 544.481 465.836 544.11C465.741 543.925 465.668 543.783 465.619 543.687C465.595 543.639 465.576 543.603 465.563 543.579L465.55 543.553L465.545 543.545Z" fill="#43606C"/>
<ellipse cx="466.294" cy="543.294" rx="5.29412" ry="5.58824" fill="#FD39A1"/>
<circle cx="466.588" cy="543.294" r="2.64706" fill="#99155B"/>
<ellipse cx="493.059" cy="524.765" rx="7.94118" ry="8.23529" fill="#FD39A1"/>
<circle cx="493.353" cy="524.765" r="4.11765" fill="#99155B"/>
<ellipse cx="471" cy="503.294" rx="10" ry="10.2941" fill="#FD39A1"/>
<circle cx="471.294" cy="503.294" r="5" fill="#99155B"/>
<path fill-rule="evenodd" clip-rule="evenodd" d="M13.9173 516.845C13.3642 514.758 12.8266 512.731 12.3262 510.625L14.6154 510.081C15.1044 512.139 15.6344 514.137 16.183 516.206C18.2551 524.018 20.5933 532.833 21.9961 549.667C23.2552 564.776 22.7743 577.509 22.3567 588.564C22.1872 593.052 22.0282 597.262 22.0002 601.244L19.6473 601.227C19.6761 597.132 19.8379 592.855 20.0091 588.328C20.4255 577.316 20.898 564.822 19.6513 549.863C18.2669 533.249 15.9832 524.636 13.9173 516.845Z" fill="#43606C"/>
<path fill-rule="evenodd" clip-rule="evenodd" d="M31.7983 529.602C31.7984 529.602 31.7985 529.602 32.8824 530.059C33.9663 530.516 33.9663 530.516 33.9664 530.516L33.9661 530.517L33.9643 530.521L33.9557 530.542C33.9478 530.561 33.9357 530.59 33.9194 530.63C33.8869 530.71 33.838 530.831 33.7743 530.993C33.6469 531.316 33.4603 531.802 33.2271 532.442C32.7605 533.723 32.1073 535.623 31.3676 538.082C29.888 543 28.0629 550.152 26.6922 559.061C26.4263 560.79 26.1691 562.448 25.9212 564.046C23.5913 579.065 22.0878 588.756 21.9999 601.244L19.647 601.227C19.7362 588.558 21.2667 578.695 23.5924 563.708C23.8416 562.102 24.1 560.437 24.3666 558.704C25.7561 549.672 27.6076 542.412 29.1144 537.404C29.8679 534.899 30.5354 532.957 31.0162 531.637C31.2566 530.977 31.4504 530.472 31.585 530.131C31.6523 529.96 31.7048 529.83 31.7409 529.741C31.7589 529.697 31.7729 529.663 31.7825 529.64L31.7938 529.613L31.797 529.605L31.7983 529.602Z" fill="#43606C"/>
<path fill-rule="evenodd" clip-rule="evenodd" d="M6.54541 543.545L7.58804 543C8.63066 542.455 8.63073 542.455 8.63082 542.455L8.63629 542.466L8.6516 542.495C8.66498 542.521 8.68465 542.559 8.71029 542.608C8.76156 542.708 8.83672 542.854 8.93317 543.044C9.12605 543.423 9.40414 543.976 9.74673 544.673C10.4318 546.066 11.3754 548.037 12.4117 550.35C14.4794 554.965 16.9351 560.987 18.4296 566.516C21.4106 577.546 22.098 587.274 21.9996 601.243L19.6467 601.227C19.7445 587.353 19.0596 577.866 16.1582 567.13C14.7115 561.778 12.3143 555.887 10.2644 551.312C9.24182 549.029 8.3105 547.084 7.63523 545.711C7.29767 545.024 7.0243 544.481 6.83574 544.11C6.74147 543.925 6.66842 543.783 6.61917 543.687C6.59455 543.639 6.57587 543.603 6.56347 543.579L6.54962 543.553L6.54541 543.545Z" fill="#43606C"/>
<ellipse cx="7.29412" cy="543.294" rx="5.29412" ry="5.58824" fill="#FD39A1"/>
<circle cx="7.58846" cy="543.294" r="2.64706" fill="#99155B"/>
<ellipse cx="34.0589" cy="524.765" rx="7.94118" ry="8.23529" fill="#FD39A1"/>
<circle cx="34.353" cy="524.765" r="4.11765" fill="#99155B"/>
<ellipse cx="12" cy="503.294" rx="10" ry="10.2941" fill="#FD39A1"/>
<circle cx="12.2939" cy="503.294" r="5" fill="#99155B"/>
<path d="M418.59 511.721C450.8 532.95 470.113 586.356 472.001 599.572H468.792C449.007 588.878 413.368 563.544 392.482 546.062C362.38 520.865 356.938 496.736 352.22 483C360.922 483.728 386.38 490.492 418.59 511.721Z" fill="#43606C"/>
<path fill-rule="evenodd" clip-rule="evenodd" d="M439.565 580.393L465.232 590.553L464.865 591.481L439.197 581.321L439.565 580.393Z" fill="#173E4F"/>
<path fill-rule="evenodd" clip-rule="evenodd" d="M416.014 562.738L453.446 575.572L453.122 576.516L415.69 563.682L416.014 562.738Z" fill="#173E4F"/>
<path fill-rule="evenodd" clip-rule="evenodd" d="M394.064 545.619L439.517 558.452L439.246 559.413L393.793 546.579L394.064 545.619Z" fill="#173E4F"/>
<path fill-rule="evenodd" clip-rule="evenodd" d="M373.746 525.833L424.545 540.271L424.273 541.232L373.473 526.794L373.746 525.833Z" fill="#173E4F"/>
<path fill-rule="evenodd" clip-rule="evenodd" d="M364.124 509.793L405.833 522.092L405.551 523.049L363.842 510.75L364.124 509.793Z" fill="#173E4F"/>
<path fill-rule="evenodd" clip-rule="evenodd" d="M356.127 494.293L386.607 504.988L386.277 505.93L355.797 495.235L356.127 494.293Z" fill="#173E4F"/>
<path fill-rule="evenodd" clip-rule="evenodd" d="M451.183 550.953L453.322 576.62L454.316 576.537L452.177 550.87L451.183 550.953Z" fill="#173E4F"/>
<path fill-rule="evenodd" clip-rule="evenodd" d="M438.348 532.196V558.398H439.346V532.196H438.348Z" fill="#173E4F"/>
<path fill-rule="evenodd" clip-rule="evenodd" d="M423.376 516.186L424.98 541.318L425.977 541.255L424.372 516.122L423.376 516.186Z" fill="#173E4F"/>
<path fill-rule="evenodd" clip-rule="evenodd" d="M405.195 504.432L406.799 523.148L407.794 523.062L406.19 504.347L405.195 504.432Z" fill="#173E4F"/>
<path fill-rule="evenodd" clip-rule="evenodd" d="M380.64 492.832L385.988 504.596L386.896 504.183L381.549 492.419L380.64 492.832Z" fill="#173E4F"/>
<path fill-rule="evenodd" clip-rule="evenodd" d="M462.947 575.559L464.552 591.601L465.545 591.502L463.941 575.459L462.947 575.559Z" fill="#173E4F"/>
<path fill-rule="evenodd" clip-rule="evenodd" d="M422.974 540.023C400.538 515.984 375.988 495.711 352 483.983L352.438 483.086C376.576 494.887 401.222 515.254 423.704 539.342C437.811 554.457 462.595 585.903 471.343 598.757L470.518 599.319C461.798 586.505 437.046 555.099 422.974 540.023Z" fill="#173E4F"/>
<path d="M63.4106 511.721C31.2007 532.95 11.8873 586.356 9.99996 599.572H13.2084C32.9936 588.878 68.6322 563.544 89.5183 546.062C119.621 520.865 125.063 496.736 129.781 483C121.078 483.728 95.6206 490.492 63.4106 511.721Z" fill="#43606C"/>
<path fill-rule="evenodd" clip-rule="evenodd" d="M42.4358 580.393L16.7685 590.553L17.1359 591.481L42.8032 581.321L42.4358 580.393Z" fill="#173E4F"/>
<path fill-rule="evenodd" clip-rule="evenodd" d="M65.9863 562.738L28.5548 575.572L28.8786 576.516L66.3101 563.682L65.9863 562.738Z" fill="#173E4F"/>
<path fill-rule="evenodd" clip-rule="evenodd" d="M87.9363 545.619L42.4838 558.452L42.755 559.413L88.2075 546.579L87.9363 545.619Z" fill="#173E4F"/>
<path fill-rule="evenodd" clip-rule="evenodd" d="M108.255 525.833L57.4551 540.271L57.7279 541.232L108.528 526.794L108.255 525.833Z" fill="#173E4F"/>
<path fill-rule="evenodd" clip-rule="evenodd" d="M117.876 509.793L76.167 522.092L76.4493 523.049L118.159 510.75L117.876 509.793Z" fill="#173E4F"/>
<path fill-rule="evenodd" clip-rule="evenodd" d="M125.873 494.293L95.3932 504.988L95.7237 505.93L126.204 495.235L125.873 494.293Z" fill="#173E4F"/>
<path fill-rule="evenodd" clip-rule="evenodd" d="M30.8178 550.953L28.6788 576.62L27.6841 576.537L29.823 550.87L30.8178 550.953Z" fill="#173E4F"/>
<path fill-rule="evenodd" clip-rule="evenodd" d="M43.653 532.196V558.398H42.6548V532.196H43.653Z" fill="#173E4F"/>
<path fill-rule="evenodd" clip-rule="evenodd" d="M58.6243 516.186L57.0201 541.318L56.0239 541.255L57.6281 516.122L58.6243 516.186Z" fill="#173E4F"/>
<path fill-rule="evenodd" clip-rule="evenodd" d="M76.8053 504.432L75.2011 523.148L74.2065 523.062L75.8108 504.347L76.8053 504.432Z" fill="#173E4F"/>
<path fill-rule="evenodd" clip-rule="evenodd" d="M101.36 492.832L96.0127 504.596L95.104 504.183L100.451 492.419L101.36 492.832Z" fill="#173E4F"/>
<path fill-rule="evenodd" clip-rule="evenodd" d="M19.053 575.559L17.4488 591.601L16.4556 591.502L18.0598 575.459L19.053 575.559Z" fill="#173E4F"/>
<path fill-rule="evenodd" clip-rule="evenodd" d="M59.0263 540.023C81.4623 515.984 106.012 495.711 130 483.983L129.562 483.086C105.424 494.887 80.7784 515.254 58.2966 539.342C44.1891 554.457 19.4052 585.903 10.6574 598.757L11.4826 599.319C20.2027 586.505 44.9548 555.099 59.0263 540.023Z" fill="#173E4F"/>
<path d="M68.0233 587.216C70.722 594.795 52.5056 596.267 41.2201 600.464C30.4252 591.36 15.7422 585.612 21.1639 577.622C25.8253 570.752 32.94 578.848 38.3374 584.491C35.3934 577.622 20.012 562.576 25.8253 554.315C30.4868 547.691 36.3747 558.731 42.7535 565.355C40.5455 557.013 28.508 542.114 33.9214 536.16C39.3349 530.205 44.9616 538.368 49.8683 547.445C48.5801 538.613 46.0044 527.301 49.8683 522.911C55.5384 516.469 65.5698 521.439 63.791 530.762C69.7406 522.911 77.9594 522.911 79.7995 532.725C81.2715 540.576 70.1698 545.728 63.791 550.415C70.1698 550.415 77.7069 544.992 79.7994 552.107C82.2528 560.448 61.4607 564.102 57.7191 570.752C63.1165 570.752 75.874 563.883 75.874 570.752C75.874 577.622 58.3936 578.848 52.5056 587.216C58.3936 587.216 65.5456 580.258 68.0233 587.216Z" fill="#80886F"/>
<path d="M4.86487 600.162H71.3514C71.3514 600.162 72.4326 597.189 74.5947 595.027C77.2974 592.324 78.6488 590.162 80 588.541C75.4056 590.162 71.2614 593.315 70.5407 595.027C70.7209 592.775 70.0001 591.784 69.1893 588C66.7569 591.514 64.6847 592.324 64.3244 595.027C64.2343 592.324 63.2435 590.703 61.892 588C60.0002 590.432 57.7478 592.324 57.027 595.027C57.027 592.324 55.6759 592.054 53.7839 588C51.6219 591.243 49.6398 592.324 49.4596 595.027C49.3695 592.324 47.0273 593.405 45.9461 588.541C43.784 592.054 40.8109 593.135 40.0001 595.838C40.8109 592.595 40.0001 593.135 36.7569 589.351C34.0542 591.514 32.7028 593.766 31.3515 595.027C32.5227 592.775 30.8109 592.324 28.6488 588.541C24.5947 592.324 25.6758 593.586 23.5136 595.838C25.2254 593.135 22.1624 593.135 20.8109 589.351C15.6759 594.757 16.7568 593.495 16.4865 595.027C16.6667 592.865 14.5947 590.703 11.6216 588.541C10.8109 592.324 10.4506 593.495 10.5407 595.838C8.37863 593.676 9.45959 593.405 7.29743 591.243C5.13527 589.081 1.71172 591.423 0 592.324C0.900902 592.504 3.13514 593.297 4.86487 595.027C6.5946 596.757 5.58559 599.171 4.86487 600.162Z" fill="#59787D"/>
<path d="M508.135 600.162H441.649C441.649 600.162 440.567 597.189 438.405 595.027C435.703 592.324 434.351 590.162 433 588.541C437.594 590.162 441.739 593.315 442.459 595.027C442.279 592.775 443 591.784 443.811 588C446.243 591.514 448.315 592.324 448.676 595.027C448.766 592.324 449.757 590.703 451.108 588C453 590.432 455.252 592.324 455.973 595.027C455.973 592.324 457.324 592.054 459.216 588C461.378 591.243 463.36 592.324 463.54 595.027C463.63 592.324 465.973 593.405 467.054 588.541C469.216 592.054 472.189 593.135 473 595.838C472.189 592.595 473 593.135 476.243 589.351C478.946 591.514 480.297 593.766 481.649 595.027C480.477 592.775 482.189 592.324 484.351 588.541C488.405 592.324 487.324 593.586 489.486 595.838C487.775 593.135 490.838 593.135 492.189 589.351C497.324 594.757 496.243 593.495 496.513 595.027C496.333 592.865 498.405 590.703 501.378 588.541C502.189 592.324 502.549 593.495 502.459 595.838C504.621 593.676 503.54 593.405 505.703 591.243C507.865 589.081 511.288 591.423 513 592.324C512.099 592.504 509.865 593.297 508.135 595.027C506.405 596.757 507.414 599.171 508.135 600.162Z" fill="#59787D"/>
<path d="M453.921 590.095L459 600.66H399V570.491L412.83 596.551L411.283 553L431.244 596.551L424.748 555.113L438.567 596.551L434.079 557.93L446.48 596.551L445.654 569.669L453.921 598.429V590.095Z" fill="#80886F"/>
<path d="M67.0787 590.095L62 600.66H122V570.491L108.17 596.551L109.717 553L89.7559 596.551L96.252 555.113L82.4331 596.551L86.9213 557.93L74.5197 596.551L75.3465 569.669L67.0787 598.429V590.095Z" fill="#80886F"/>
<defs>
<linearGradient id="paint0_linear" x1="393.379" y1="0" x2="393.379" y2="600" gradientUnits="userSpaceOnUse">
<stop stop-color="#603156"/>
<stop offset="1" stop-color="#352F5C"/>
</linearGradient>
<linearGradient id="paint1_linear" x1="104.5" y1="1" x2="104.5" y2="600" gradientUnits="userSpaceOnUse">
<stop stop-color="#603156"/>
<stop offset="1" stop-color="#352F5C"/>
</linearGradient>
</defs>
</svg>
