<svg width="508" height="600" viewBox="0 0 508 600" fill="none" xmlns="http://www.w3.org/2000/svg">
<rect x="9.99805" width="479.002" height="600" fill="url(#paint0_radial)"/>
<path d="M489 0V65.6C471.752 95.4182 445.009 123 373.017 123C257.099 123 239.282 35.0364 233.532 0H489Z" fill="#47559F"/>
<path d="M262.472 0V65.6C245.224 95.4182 220.477 123 148.485 123C32.5672 123 14.7494 35.0364 9 0H262.472Z" fill="#47559F"/>
<path d="M320.102 600H266.464L293.907 0H346.298L320.102 600Z" fill="#776CF2"/>
<path d="M288.972 353.178L187.628 599.147H424.718L332.671 353.178H288.972Z" fill="#1C0E4C"/>
<path d="M294.086 345.724L295.481 353.643L288.507 357.37L282.929 348.985L283.858 343.861L290.832 341.531L294.086 345.724Z" fill="#1C0E4C"/>
<path d="M327.557 345.724L326.163 353.643L333.136 357.37L338.714 348.985L337.785 343.861L330.811 341.531L327.557 345.724Z" fill="#1C0E4C"/>
<path d="M313.611 363.426H306.173L302.454 375.538H317.33L313.611 363.426Z" fill="#1A2E75"/>
<ellipse cx="321.514" cy="365.29" rx="1.85953" ry="1.8634" fill="#00F3F3"/>
<ellipse cx="298.27" cy="365.29" rx="1.85953" ry="1.8634" fill="#00F3F3"/>
<path d="M315.006 469.174C318.982 456.859 342.899 456.13 342.899 456.13C342.899 456.13 330.122 458.832 325.698 469.174C318.128 486.877 321.98 499.454 321.98 499.454C321.98 499.454 309.892 485.013 315.006 469.174Z" fill="#1A2E75"/>
<path d="M301.99 469.174C298.014 456.859 274.096 456.13 274.096 456.13C274.096 456.13 286.874 458.832 291.297 469.174C298.868 486.877 295.016 499.454 295.016 499.454C295.016 499.454 307.104 485.013 301.99 469.174Z" fill="#1A2E75"/>
<path d="M489 253L92.8252 0H112.784L489 231V253Z" fill="#9CE7FF" fill-opacity="0.14"/>
<path d="M108.166 600H60.8921L108.166 0H157.69L108.166 600Z" fill="#776CF2"/>
<path d="M489 436L9 81V59L489 415V436Z" fill="#9CE7FF" fill-opacity="0.14"/>
<path d="M253.491 600H214.572L247.503 0H277.441L253.491 600Z" fill="#3B40B0"/>
<path d="M212.576 1H155.903L144.717 600H212.576V1Z" fill="#5D418A"/>
<path d="M387.083 1H333.324L370.657 599H437.108L387.083 1Z" fill="#5D418A"/>
<path d="M489 600H361.943C377.14 582.507 409.627 537.376 417.997 500.791C426.368 464.206 424.973 365.098 423.229 320.116L335.036 236.901L296.159 175.745L301.391 163L346.995 209.163L423.229 254.144L407.534 0H489V600Z" fill="url(#paint1_linear)"/>
<path d="M146.914 1H9V600H197.607C187.419 582.757 119.025 527.813 112.622 500.292C58.2018 266.389 61.1838 75.9687 146.914 1Z" fill="url(#paint2_linear)"/>
<path d="M489 168L212.576 0H244.509L489 127V168Z" fill="#9CE7FF" fill-opacity="0.14"/>
<path d="M489 361.5L9.99805 31V3L489 320V361.5Z" fill="#9CE7FF" fill-opacity="0.14"/>
<path d="M420.426 600L9 170V125L489 482V600H420.426Z" fill="#9CE7FF" fill-opacity="0.14"/>
<path d="M9 74.3708V0H244.509C244.509 69.1123 113.254 136.722 9 74.3708Z" fill="#43606C"/>
<path d="M489 47.4118V0H220.559C220.559 47.4118 375.025 117.401 489 47.4118Z" fill="#43606C"/>
<path d="M8.27953 584.926L1 600H87V556.956L67.1773 594.138L69.3937 532L40.7835 594.138L50.0945 535.015L30.2874 594.138L36.7205 539.034L18.9449 594.138L20.1299 555.783L8.27953 596.818V584.926Z" fill="#4D563B"/>
<path d="M500.563 584.926L507.842 600H421.842V556.956L441.665 594.138L439.449 532L468.059 594.138L458.748 535.015L478.555 594.138L472.122 539.034L489.897 594.138L488.712 555.783L500.563 596.818V584.926Z" fill="#4D563B"/>
<path d="M53.058 599.038H67.7964C59.3745 592.301 56.8479 584.721 56.8479 574.194H49.6893C53.058 583.458 50.9526 590.195 53.058 599.038Z" fill="url(#paint3_linear)"/>
<path d="M38.3196 574.194C41.1269 568.86 44.2149 558.192 52.6368 558.192C61.0588 558.192 64.5679 568.86 66.9541 574.194H38.3196Z" fill="#67A4AE"/>
<path d="M34.1087 588.512H45.8994C45.1976 586.827 43.036 583.458 40.0041 583.458C36.9722 583.458 34.8106 586.827 34.1087 588.512Z" fill="#67A4AE"/>
<path d="M37.0559 598.618H43.7935L41.688 588.511H38.7403L37.0559 598.618Z" fill="url(#paint4_linear)"/>
<path d="M17.686 599.46H30.3188C30.3188 599.46 29.3147 595.249 27.3712 588.933C25.4277 582.616 25.2657 576.3 25.2657 576.3H20.6336C20.6336 576.3 23.1602 584.722 21.0547 589.775C18.9493 594.828 17.686 599.46 17.686 599.46Z" fill="url(#paint5_linear)"/>
<path d="M2.10554 599.105H10.5275C12.5487 595.399 9.68526 588.016 8.00088 584.788H4.63212C4.49175 585.489 4.04258 587.819 3.36883 591.525C2.69508 595.231 2.24591 598.122 2.10554 599.105Z" fill="url(#paint6_linear)"/>
<path d="M0.000139236 584.788H12.2119C11.2294 582.402 8.50627 577.798 5.47438 578.471C2.44249 579.145 0.561601 582.963 0.000139236 584.788Z" fill="#67A4AE"/>
<path d="M13.0537 576.3H32.8452C30.8801 573.492 29.0554 568.299 23.16 568.299C17.2647 568.299 14.317 573.773 13.0537 576.3Z" fill="#67A4AE"/>
<path d="M70.2657 588.408H64.4067C64.4067 586.455 64.9926 582.633 67.3362 582.967C69.6798 583.302 70.2657 586.734 70.2657 588.408Z" fill="#67A4AE"/>
<path d="M79.4722 587.591H73.6133C73.6133 585.638 74.1992 581.816 76.5428 582.151C78.8863 582.486 79.4722 585.917 79.4722 587.591Z" fill="#67A4AE"/>
<path d="M86.1685 585.08H80.3096C80.3096 583.127 80.8955 579.305 83.239 579.64C85.5826 579.975 86.1685 583.406 86.1685 585.08Z" fill="#67A4AE"/>
<path d="M89.5165 589.663H85.3315C85.3315 588.167 85.75 585.238 87.424 585.494C89.098 585.751 89.5165 588.381 89.5165 589.663Z" fill="#67A4AE"/>
<path d="M74.4503 581.733H68.5913C68.5913 579.78 69.1772 575.957 71.5208 576.292C73.8644 576.627 74.4503 580.059 74.4503 581.733Z" fill="#67A4AE"/>
<path fill-rule="evenodd" clip-rule="evenodd" d="M67.5803 590.484C67.1138 589.659 66.7979 588.8 66.9222 587.93L67.7508 588.049C67.6658 588.643 67.8731 589.301 68.3089 590.072C68.6844 590.736 69.1972 591.43 69.7568 592.187C69.846 592.308 69.9365 592.43 70.0277 592.554C71.3261 594.32 72.777 596.413 72.777 598.87H71.94C71.94 596.724 70.6706 594.841 69.3534 593.05C69.2649 592.93 69.1761 592.81 69.0876 592.69C68.531 591.937 67.9832 591.196 67.5803 590.484Z" fill="#67A4AE"/>
<path fill-rule="evenodd" clip-rule="evenodd" d="M72.4288 591.512C71.6366 588.924 70.8905 585.943 71.1031 581.691L71.9391 581.733C71.7332 585.851 72.4518 588.728 73.2291 591.267C73.3398 591.629 73.4524 591.985 73.564 592.339C74.2335 594.458 74.8692 596.471 74.8693 598.87L74.0323 598.87C74.0322 596.61 73.4397 594.73 72.7707 592.607C72.658 592.25 72.5433 591.886 72.4288 591.512Z" fill="#67A4AE"/>
<path fill-rule="evenodd" clip-rule="evenodd" d="M76.125 598.87V587.571H76.962V598.87H76.125Z" fill="#67A4AE"/>
<path fill-rule="evenodd" clip-rule="evenodd" d="M82.0682 589.293C82.5153 588.224 82.8203 586.894 82.8203 585.06L83.6573 585.06C83.6573 586.993 83.3347 588.435 82.8402 589.616C82.3477 590.793 81.6918 591.691 81.0627 592.53C81.0275 592.577 80.9925 592.624 80.9576 592.67C80.3625 593.462 79.8054 594.204 79.3815 595.122C78.9376 596.084 78.6354 597.253 78.6353 598.87L77.7983 598.87C77.7984 597.139 78.1239 595.85 78.6216 594.772C79.084 593.77 79.6912 592.962 80.2773 592.182C80.316 592.131 80.3546 592.079 80.3931 592.028C81.0195 591.193 81.6191 590.365 82.0682 589.293Z" fill="#67A4AE"/>
<path fill-rule="evenodd" clip-rule="evenodd" d="M85.7435 592.018C86.356 591.251 86.6771 590.496 86.5897 589.71L87.4215 589.617C87.5434 590.714 87.0797 591.686 86.3976 592.54C85.7176 593.392 84.7807 594.176 83.8667 594.908C83.7097 595.033 83.5535 595.157 83.3991 595.28C82.639 595.883 81.9221 596.452 81.3589 597.02C80.672 597.713 80.3096 598.315 80.3096 598.87H79.4727C79.4727 597.961 80.0519 597.15 80.7643 596.431C81.3662 595.824 82.1315 595.217 82.8915 594.614C83.0429 594.494 83.1942 594.374 83.3439 594.254C84.2608 593.52 85.1287 592.788 85.7435 592.018Z" fill="#67A4AE"/>
<path d="M416.859 588.408H411C411 586.455 411.586 582.633 413.929 582.967C416.273 583.302 416.859 586.734 416.859 588.408Z" fill="#67A4AE"/>
<path d="M426.065 587.591H420.207C420.207 585.638 420.792 581.816 423.136 582.151C425.48 582.486 426.065 585.917 426.065 587.591Z" fill="#67A4AE"/>
<path d="M432.762 585.08H426.903C426.903 583.127 427.489 579.305 429.832 579.64C432.176 579.975 432.762 583.406 432.762 585.08Z" fill="#67A4AE"/>
<path d="M436.11 589.663H431.925C431.925 588.167 432.343 585.238 434.017 585.494C435.691 585.751 436.11 588.381 436.11 589.663Z" fill="#67A4AE"/>
<path d="M421.044 581.733H415.185C415.185 579.78 415.77 575.957 418.114 576.292C420.458 576.627 421.044 580.059 421.044 581.733Z" fill="#67A4AE"/>
<path fill-rule="evenodd" clip-rule="evenodd" d="M414.174 590.484C413.707 589.659 413.391 588.8 413.515 587.93L414.344 588.049C414.259 588.643 414.466 589.301 414.902 590.072C415.278 590.736 415.79 591.43 416.35 592.187C416.439 592.308 416.53 592.43 416.621 592.554C417.919 594.32 419.37 596.413 419.37 598.87H418.533C418.533 596.724 417.264 594.841 415.947 593.05C415.858 592.93 415.769 592.81 415.681 592.69C415.124 591.937 414.576 591.196 414.174 590.484Z" fill="#67A4AE"/>
<path fill-rule="evenodd" clip-rule="evenodd" d="M419.022 591.512C418.23 588.924 417.484 585.943 417.696 581.691L418.532 581.733C418.326 585.851 419.045 588.728 419.822 591.267C419.933 591.629 420.046 591.985 420.157 592.339C420.827 594.458 421.462 596.471 421.463 598.87L420.626 598.87C420.625 596.61 420.033 594.73 419.364 592.607C419.251 592.25 419.137 591.886 419.022 591.512Z" fill="#67A4AE"/>
<path fill-rule="evenodd" clip-rule="evenodd" d="M422.718 598.87V587.571H423.555V598.87H422.718Z" fill="#67A4AE"/>
<path fill-rule="evenodd" clip-rule="evenodd" d="M428.661 589.293C429.109 588.224 429.414 586.894 429.414 585.06L430.251 585.06C430.251 586.993 429.928 588.435 429.433 589.616C428.941 590.793 428.285 591.691 427.656 592.53C427.621 592.577 427.586 592.624 427.551 592.67C426.956 593.462 426.399 594.204 425.975 595.122C425.531 596.084 425.229 597.253 425.229 598.87L424.392 598.87C424.392 597.139 424.717 595.85 425.215 594.772C425.677 593.77 426.284 592.962 426.871 592.182C426.909 592.131 426.948 592.079 426.986 592.028C427.613 591.193 428.212 590.365 428.661 589.293Z" fill="#67A4AE"/>
<path fill-rule="evenodd" clip-rule="evenodd" d="M432.337 592.018C432.949 591.251 433.27 590.496 433.183 589.71L434.015 589.617C434.137 590.714 433.673 591.686 432.991 592.54C432.311 593.392 431.374 594.176 430.46 594.908C430.303 595.033 430.147 595.157 429.992 595.28C429.232 595.883 428.515 596.452 427.952 597.02C427.265 597.713 426.903 598.315 426.903 598.87H426.066C426.066 597.961 426.645 597.15 427.358 596.431C427.959 595.824 428.725 595.217 429.485 594.614C429.636 594.494 429.787 594.374 429.937 594.254C430.854 593.52 431.722 592.788 432.337 592.018Z" fill="#67A4AE"/>
<path d="M452.857 599.038H438.118C446.54 592.301 449.067 584.721 449.067 574.194H456.225C452.857 583.458 454.962 590.195 452.857 599.038Z" fill="url(#paint7_linear)"/>
<path d="M467.595 574.194C464.788 568.86 461.7 558.192 453.278 558.192C444.856 558.192 441.347 568.86 438.96 574.194H467.595Z" fill="#67A4AE"/>
<path d="M471.806 588.512H460.015C460.717 586.827 462.879 583.458 465.91 583.458C468.942 583.458 471.104 586.827 471.806 588.512Z" fill="#67A4AE"/>
<path d="M468.859 598.618H462.121L464.227 588.511H467.174L468.859 598.618Z" fill="url(#paint8_linear)"/>
<path d="M488.229 599.46H475.596C475.596 599.46 476.6 595.249 478.543 588.933C480.487 582.616 480.649 576.3 480.649 576.3H485.281C485.281 576.3 482.754 584.722 484.86 589.775C486.965 594.828 488.229 599.46 488.229 599.46Z" fill="url(#paint9_linear)"/>
<path d="M503.809 599.105H495.387C493.366 595.399 496.229 588.016 497.914 584.788H501.282C501.423 585.489 501.872 587.819 502.546 591.525C503.219 595.231 503.669 598.122 503.809 599.105Z" fill="url(#paint10_linear)"/>
<path d="M505.914 584.788H493.703C494.685 582.402 497.408 577.798 500.44 578.471C503.472 579.145 505.353 582.963 505.914 584.788Z" fill="#67A4AE"/>
<path d="M492.861 576.3H473.069C475.034 573.492 476.859 568.299 482.755 568.299C488.65 568.299 491.598 573.773 492.861 576.3Z" fill="#67A4AE"/>
<defs>
<radialGradient id="paint0_radial" cx="0" cy="0" r="1" gradientUnits="userSpaceOnUse" gradientTransform="translate(249.499) rotate(90) scale(245 244.491)">
<stop stop-color="#256C76"/>
<stop offset="1" stop-color="#1F3367"/>
</radialGradient>
<linearGradient id="paint1_linear" x1="392.58" y1="0" x2="392.58" y2="600" gradientUnits="userSpaceOnUse">
<stop stop-color="#603156"/>
<stop offset="1" stop-color="#352F5C"/>
</linearGradient>
<linearGradient id="paint2_linear" x1="103.304" y1="1" x2="103.304" y2="600" gradientUnits="userSpaceOnUse">
<stop stop-color="#603156"/>
<stop offset="1" stop-color="#352F5C"/>
</linearGradient>
<linearGradient id="paint3_linear" x1="58.7428" y1="574.194" x2="58.7428" y2="599.038" gradientUnits="userSpaceOnUse">
<stop stop-color="#8AD6E2"/>
<stop offset="1" stop-color="#67A4AE"/>
</linearGradient>
<linearGradient id="paint4_linear" x1="40.4247" y1="588.511" x2="40.4247" y2="598.618" gradientUnits="userSpaceOnUse">
<stop stop-color="#80C6D1"/>
<stop offset="1" stop-color="#67A4AE"/>
</linearGradient>
<linearGradient id="paint5_linear" x1="24.0024" y1="576.3" x2="24.0024" y2="599.46" gradientUnits="userSpaceOnUse">
<stop stop-color="#80C6D1"/>
<stop offset="1" stop-color="#67A4AE"/>
</linearGradient>
<linearGradient id="paint6_linear" x1="6.6641" y1="584.788" x2="6.6641" y2="599.105" gradientUnits="userSpaceOnUse">
<stop stop-color="#67A4AE"/>
<stop offset="0.0001" stop-color="#80C6D1"/>
<stop offset="1" stop-color="#67A4AE"/>
</linearGradient>
<linearGradient id="paint7_linear" x1="447.172" y1="574.194" x2="447.172" y2="599.038" gradientUnits="userSpaceOnUse">
<stop stop-color="#8AD6E2"/>
<stop offset="1" stop-color="#67A4AE"/>
</linearGradient>
<linearGradient id="paint8_linear" x1="465.49" y1="588.511" x2="465.49" y2="598.618" gradientUnits="userSpaceOnUse">
<stop stop-color="#80C6D1"/>
<stop offset="1" stop-color="#67A4AE"/>
</linearGradient>
<linearGradient id="paint9_linear" x1="481.912" y1="576.3" x2="481.912" y2="599.46" gradientUnits="userSpaceOnUse">
<stop stop-color="#80C6D1"/>
<stop offset="1" stop-color="#67A4AE"/>
</linearGradient>
<linearGradient id="paint10_linear" x1="499.25" y1="584.788" x2="499.25" y2="599.105" gradientUnits="userSpaceOnUse">
<stop stop-color="#67A4AE"/>
<stop offset="0.0001" stop-color="#80C6D1"/>
<stop offset="1" stop-color="#67A4AE"/>
</linearGradient>
</defs>
</svg>
