<svg width="513" height="601" viewBox="0 0 513 601" fill="none" xmlns="http://www.w3.org/2000/svg">
<rect x="10" width="480" height="599.874" fill="#FFD7AC"/>
<path d="M376 37.9922L398 599.874H310.615L297 37.9922H376Z" fill="#DD756E"/>
<path d="M341.017 292.923L305.047 308.657L301.823 428.53L297.783 599.848H475V502.271V428.53L341.017 292.923Z" fill="#1C0E4D"/>
<path d="M308.78 300.773C312.046 301.548 313.919 308.029 313.919 308.029L306.263 315.517C306.263 315.517 300.396 313.285 299.79 310.424C299.183 307.562 299.495 305.502 301.681 303.65C303.866 301.797 305.514 299.998 308.78 300.773Z" fill="#1C0E4C"/>
<path d="M334.533 318.807L341.9 321.78L323.04 328.832L325.567 322.583L334.533 318.807Z" fill="#301D70"/>
<path d="M332.718 291.631C331.352 293.994 334.291 300.823 334.291 300.823L343.957 300.298C343.957 300.298 345.514 293.206 344.632 291.631C343.749 290.055 342.816 288.479 339.012 288.216C335.207 287.954 334.083 289.267 332.718 291.631Z" fill="#1C0E4C"/>
<ellipse cx="316.673" cy="318.994" rx="1.56829" ry="2.37048" fill="#00F3F3"/>
<ellipse cx="337.845" cy="310.303" rx="2.35244" ry="1.58032" fill="#00F3F3"/>
<path d="M150.892 40.9912L101 597.874H158.123L195 40.9912H150.892Z" fill="#DD756E"/>
<path d="M490 597.875L10 190.008V165.965L490 563.528V597.875Z" fill="#FFEF9C" fill-opacity="0.14"/>
<path d="M490 379.265L10 14.9974V2.5L490 344.928V379.265Z" fill="#FFEF9C" fill-opacity="0.14"/>
<path d="M92.3158 64.9863L61 599.874H97.8421L131 64.9863H92.3158Z" fill="#F2946C"/>
<path d="M111.291 312.665L60.5455 416.263L49 600H246.133L187.125 396.287L145.415 313.826L111.291 312.665Z" fill="#1C0E4C"/>
<path d="M126.278 336.358L120.514 341.004L139.189 342.165L135.27 337.287L126.278 336.358Z" fill="#301D70"/>
<path d="M138.728 308.253L136.192 318.706L142.878 323.119L152.793 313.595L147.72 306.395L138.728 308.253Z" fill="#1C0E4C"/>
<path d="M117.517 307.322L120.053 317.775L113.366 322.188L103.452 312.665L108.525 305.464L117.517 307.322Z" fill="#1C0E4C"/>
<ellipse rx="1.84646" ry="1.85673" transform="matrix(0.928057 0.372438 -0.367692 0.929948 118.453 330.393)" fill="#00F3F3"/>
<ellipse rx="1.84646" ry="1.85673" transform="matrix(0.928057 0.372438 -0.367692 0.929948 139.176 330.708)" fill="#00F3F3"/>
<path d="M400.761 63.9868L376 599.874H416.783L443 63.9868H400.761Z" fill="#F2946C"/>
<path d="M189.506 445.513C187.376 466.362 160.212 570.472 139.572 599.874H347.595C323.627 528.373 294 404.706 294 355.925C294 332.252 299.78 36.5095 302 7.99817L251.77 7.9982L194 7.99805C192.003 61.0112 191.637 424.664 189.506 445.513Z" fill="#8A4152"/>
<path fill-rule="evenodd" clip-rule="evenodd" d="M214.186 365.855C212.639 366.668 211.472 367.624 210.785 368.722C209.386 370.957 208.862 373.564 208.297 377.208C208.221 377.7 208.144 378.209 208.065 378.739C207.553 382.131 206.918 386.339 205.557 391.76C202.41 404.295 195.381 423.304 177.015 453.78C158.673 484.214 148.631 520.19 144.567 548.558C142.535 562.742 141.998 575.016 142.663 583.738C142.995 588.101 143.627 591.563 144.516 593.928C144.961 595.111 145.465 596.007 146.018 596.604C146.569 597.198 147.159 597.489 147.787 597.489H341.563C341.561 597.47 341.559 597.451 341.557 597.43C341.537 597.246 341.507 596.972 341.465 596.612C341.383 595.893 341.257 594.83 341.084 593.458C340.737 590.714 340.199 586.733 339.437 581.787C337.913 571.894 335.49 558.138 331.896 542.69C324.706 511.787 312.834 474.133 294.104 447.064C275.344 419.952 267.725 402.525 264.134 390.83C262.482 385.451 261.684 381.286 261.046 377.96C260.99 377.67 260.936 377.387 260.883 377.111C260.213 373.642 259.665 371.159 258.364 369.119C257.727 368.121 256.603 367.213 255.09 366.411C253.58 365.611 251.696 364.923 249.557 364.357C245.281 363.224 240.008 362.582 234.718 362.484C229.428 362.385 224.131 362.829 219.807 363.863C217.645 364.38 215.732 365.043 214.186 365.855ZM341.782 597.687C341.977 597.666 341.977 597.666 341.977 597.665L341.977 597.662L341.97 597.596C341.965 597.549 341.957 597.479 341.947 597.387C341.927 597.202 341.897 596.927 341.856 596.567C341.773 595.846 341.647 594.782 341.473 593.408C341.126 590.661 340.588 586.677 339.825 581.726C338.3 571.825 335.875 558.06 332.278 542.599C325.086 511.685 313.2 473.971 294.426 446.838C275.683 419.749 268.085 402.36 264.509 390.713C262.864 385.355 262.069 381.209 261.431 377.884C261.376 377.595 261.322 377.312 261.268 377.035C260.601 373.58 260.043 371.019 258.694 368.905C258.006 367.826 256.816 366.879 255.273 366.061C253.728 365.242 251.814 364.545 249.657 363.974C245.343 362.832 240.038 362.187 234.725 362.088C229.412 361.989 224.081 362.435 219.717 363.478C217.534 364 215.588 364.672 214.005 365.504C212.423 366.336 211.19 367.333 210.453 368.511C209.005 370.825 208.474 373.509 207.909 377.147C207.833 377.64 207.756 378.151 207.676 378.681C207.165 382.072 206.533 386.262 205.176 391.663C202.041 404.151 195.031 423.123 176.679 453.574C158.303 484.067 148.248 520.096 144.178 548.501C142.143 562.704 141.603 575.008 142.271 583.768C142.605 588.146 143.241 591.651 144.149 594.068C144.603 595.276 145.13 596.224 145.731 596.874C146.335 597.526 147.023 597.885 147.787 597.885H342L341.977 597.666L341.782 597.687Z" fill="black"/>
<path d="M253.761 354.602C251.16 354.189 246.053 358.707 246.602 363.394C247.305 364.08 249.38 365.927 252.05 367.826C254.721 369.725 257.98 369.87 259.275 369.705C261.994 369.073 265.007 362.921 263.711 360.661C261.941 357.572 257.012 355.118 253.761 354.602Z" fill="#B57A29"/>
<path d="M253.802 358.725C251.917 359.041 249.417 362.352 249.286 363.868C250.699 363.868 255.765 366.638 258.121 368.022C258.841 367.297 259.967 365.688 260.281 363.472C260.674 360.703 256.158 358.329 253.802 358.725Z" fill="#FBAB7E"/>
<path d="M217.244 353.005C220.495 352.488 224.908 358.195 224.358 362.883C223.655 363.57 221.62 364.333 218.95 366.234C216.281 368.135 213.023 368.281 211.728 368.116C209.01 367.485 206 361.331 207.296 359.069C209.067 355.979 213.994 353.522 217.244 353.005Z" fill="#B57A29"/>
<path d="M218.458 357.934C220.343 358.25 221.469 362.154 221.6 363.671C220.186 363.671 215.928 365.099 213.572 366.484C212.852 365.758 212.489 363.314 212.175 361.099C211.783 358.329 216.102 357.538 218.458 357.934Z" fill="#FBAB7E"/>
<path d="M210.621 368.616C204.926 377.716 213.566 392.75 176.848 453.677C140.13 514.604 136.654 597.687 147.788 597.687H341.783C341.783 597.687 331.77 501.153 294.266 446.951C256.763 392.75 263.832 377.32 258.53 369.012C253.229 360.703 216.315 359.516 210.621 368.616Z" fill="url(#paint0_linear)"/>
<path d="M240.98 443.259C239.541 443.714 238.322 444.01 239.402 441.226C239.665 440.548 240.901 438.638 243.741 436.421C246.581 434.203 249.921 433.525 251.236 433.464C255.787 432.546 256.698 436.421 251.236 435.756C248.307 435.4 252.692 437.541 250.326 439.425C247.959 441.308 246.684 438.507 244.409 439.932C242.089 441.384 244.409 442.176 240.98 443.259Z" fill="#FBAB2E"/>
<path d="M231.664 444.469C232.575 447.678 234.552 446.303 233.485 443.551C233.222 442.874 231.452 439.494 228.691 437.338C225.851 435.12 223.897 434.373 222.106 433.922C218.465 433.005 220.65 435.831 224.382 436.673C225.776 436.988 223.017 438.966 224.837 440.8C227.113 443.093 228.337 440.753 229.844 441.259C231.209 441.717 231.146 442.642 231.664 444.469Z" fill="#FBAB2E"/>
<path fill-rule="evenodd" clip-rule="evenodd" d="M304.934 491.031C301.658 492.013 297.142 491.353 292.417 489.668L292.549 489.295C297.249 490.972 301.667 491.598 304.822 490.652C306.392 490.181 307.644 489.322 308.47 488.012C309.298 486.7 309.711 484.915 309.566 482.57L309.958 482.545C310.107 484.948 309.686 486.822 308.802 488.224C307.916 489.628 306.578 490.538 304.934 491.031Z" fill="black"/>
<path fill-rule="evenodd" clip-rule="evenodd" d="M178.626 493.285C181.717 492.876 185.086 491.641 188.352 489.651L188.149 489.312C184.921 491.279 181.603 492.492 178.575 492.893C175.544 493.294 172.817 492.88 170.754 491.612C168.697 490.349 167.278 488.222 166.879 485.144C166.48 482.059 167.106 478.016 169.161 472.94L168.797 472.791C166.728 477.902 166.078 482.018 166.49 485.196C166.902 488.38 168.381 490.618 170.549 491.95C172.711 493.279 175.536 493.694 178.626 493.285Z" fill="black"/>
<path d="M224.349 399.475C225.316 397.497 226.021 395.914 227.883 395.914C230.436 395.914 231.432 393.739 233.396 395.123C235.359 396.508 237.486 396.209 238.486 394.529C240.254 391.562 243.592 392.156 244.377 394.529C245.162 396.903 247.657 394.964 249.693 398.684C251.642 402.244 250.071 404.42 247.126 404.42C244.181 404.42 242.933 403.573 240.254 405.607C237.127 407.981 235.752 406.596 233.396 405.607C231.04 404.618 229.13 403.878 226.705 404.42C224.938 404.816 221.6 403.684 221.6 402.244C221.6 400.805 223.116 401.997 224.349 399.475Z" fill="url(#paint1_linear)"/>
<path fill-rule="evenodd" clip-rule="evenodd" d="M241.825 392.132C243.132 392.216 244.304 393.059 244.75 394.404C244.916 394.908 245.157 395.151 245.443 395.311C245.702 395.456 245.996 395.536 246.372 395.638C246.467 395.664 246.567 395.691 246.673 395.721C247.177 395.864 247.754 396.06 248.341 396.476C248.928 396.894 249.504 397.519 250.037 398.493C251.042 400.329 251.198 401.915 250.592 403.072C249.983 404.237 248.684 404.816 247.126 404.816C246.38 404.816 245.741 404.763 245.173 404.716L245.154 404.714C244.576 404.666 244.085 404.626 243.606 404.646C242.682 404.685 241.775 404.948 240.49 405.923C238.87 407.153 237.638 407.455 236.471 407.259C235.906 407.163 235.378 406.955 234.86 406.719C234.66 406.628 234.465 406.535 234.269 406.441C233.942 406.284 233.612 406.126 233.245 405.972C230.884 404.981 229.081 404.294 226.791 404.807C225.806 405.027 224.447 404.82 223.348 404.389C222.793 404.172 222.276 403.887 221.89 403.544C221.508 403.206 221.208 402.766 221.208 402.245C221.208 401.806 221.328 401.478 221.611 401.25C221.736 401.15 221.874 401.084 221.998 401.034C222.075 401.003 222.166 400.97 222.251 400.94C222.295 400.924 222.338 400.909 222.377 400.894C222.624 400.803 222.882 400.69 223.148 400.466C223.414 400.241 223.709 399.89 223.997 399.3C224.032 399.228 224.068 399.155 224.103 399.083C224.538 398.191 224.954 397.337 225.478 396.7C226.068 395.985 226.813 395.519 227.883 395.519C228.862 395.519 229.573 395.177 230.282 394.836C230.421 394.769 230.559 394.703 230.699 394.639C231.116 394.449 231.565 394.278 232.056 394.267C232.562 394.256 233.073 394.413 233.621 394.799C234.539 395.446 235.466 395.68 236.255 395.583C237.037 395.486 237.712 395.061 238.15 394.326C239.1 392.731 240.508 392.047 241.825 392.132ZM241.775 392.922C240.785 392.858 239.64 393.361 238.823 394.733C238.261 395.677 237.372 396.242 236.35 396.368C235.335 396.494 234.217 396.185 233.171 395.447C232.737 395.142 232.387 395.051 232.074 395.058C231.747 395.066 231.419 395.18 231.023 395.36C230.904 395.414 230.781 395.474 230.652 395.536C229.941 395.881 229.055 396.31 227.883 396.31C227.091 396.31 226.553 396.635 226.083 397.206C225.621 397.766 225.245 398.537 224.794 399.461C224.763 399.523 224.733 399.586 224.701 399.65C224.373 400.322 224.015 400.767 223.651 401.073C223.286 401.38 222.933 401.532 222.648 401.637C222.587 401.66 222.535 401.678 222.488 401.695C222.416 401.72 222.355 401.742 222.291 401.768C222.195 401.807 222.138 401.838 222.102 401.868C222.061 401.9 221.993 401.963 221.993 402.245C221.993 402.443 222.109 402.685 222.409 402.951C222.704 403.213 223.131 403.456 223.632 403.652C224.644 404.048 225.838 404.209 226.62 404.034C229.179 403.462 231.196 404.255 233.547 405.242C233.927 405.401 234.294 405.577 234.636 405.74C234.827 405.831 235.011 405.919 235.184 405.998C235.684 406.225 236.137 406.4 236.6 406.478C237.492 406.628 238.511 406.435 240.017 405.291C241.412 404.233 242.469 403.902 243.574 403.856C244.11 403.833 244.65 403.878 245.219 403.925L245.23 403.926C245.8 403.974 246.412 404.025 247.126 404.025C248.513 404.025 249.472 403.516 249.897 402.703C250.327 401.882 250.293 400.599 249.349 398.875C248.865 397.99 248.365 397.462 247.888 397.123C247.409 396.783 246.932 396.617 246.46 396.483C246.378 396.46 246.294 396.437 246.209 396.414C245.824 396.31 245.413 396.199 245.062 396.003C244.597 395.743 244.231 395.338 244.004 394.655C243.664 393.626 242.775 392.986 241.775 392.922Z" fill="#FFD12D"/>
<path d="M246.356 386.023H225.542L232.51 394.447C234.023 396.276 236.785 396.354 238.398 394.614L246.356 386.023Z" fill="black"/>
<path d="M225.346 385.826C226.851 381.935 229.076 372.77 235.163 372.77C242.232 372.77 245.112 381.54 246.159 385.826H225.346Z" fill="#C68731"/>
<path d="M226.312 374.551C226.312 376.08 225.082 377.32 223.563 377.32C222.045 377.32 220.814 376.08 220.814 374.551C220.814 373.021 222.045 371.781 223.563 371.781C225.082 371.781 226.312 373.021 226.312 374.551Z" fill="black"/>
<path d="M225.528 373.759C225.528 374.196 225.176 374.551 224.742 374.551C224.309 374.551 223.957 374.196 223.957 373.759C223.957 373.322 224.309 372.968 224.742 372.968C225.176 372.968 225.528 373.322 225.528 373.759Z" fill="white"/>
<path d="M250.661 374.551C250.661 376.08 249.43 377.32 247.912 377.32C246.394 377.32 245.163 376.08 245.163 374.551C245.163 373.021 246.394 371.781 247.912 371.781C249.43 371.781 250.661 373.021 250.661 374.551Z" fill="black"/>
<path d="M249.483 373.759C249.483 374.196 249.131 374.551 248.698 374.551C248.264 374.551 247.912 374.196 247.912 373.759C247.912 373.322 248.264 372.968 248.698 372.968C249.131 372.968 249.483 373.322 249.483 373.759Z" fill="white"/>
<path fill-rule="evenodd" clip-rule="evenodd" d="M232.494 401.308C230.476 402.213 227.868 402.208 225.469 401.241L225.615 400.874C227.929 401.807 230.426 401.802 232.335 400.946C234.234 400.095 235.556 398.401 235.556 395.915H235.949C235.949 398.404 237.225 400.018 238.976 400.829C240.739 401.644 242.989 401.647 244.908 400.874L245.054 401.241C243.046 402.051 240.682 402.054 238.812 401.188C237.348 400.511 236.192 399.302 235.75 397.549C235.291 399.332 234.076 400.599 232.494 401.308Z" fill="black"/>
<path fill-rule="evenodd" clip-rule="evenodd" d="M212.459 354.835C214.391 353.957 216.472 353.416 218.087 353.313C218.684 353.274 219.425 353.53 220.2 354.034C220.971 354.535 221.753 355.27 222.427 356.154C223.779 357.928 224.668 360.268 224.194 362.499L224.578 362.582C225.084 360.197 224.131 357.74 222.739 355.913C222.041 354.997 221.226 354.23 220.413 353.702C219.605 353.176 218.778 352.872 218.062 352.918C216.392 353.024 214.265 353.58 212.298 354.474C210.333 355.367 208.502 356.609 207.449 358.105C207.036 358.692 206.908 359.547 206.967 360.479C207.027 361.417 207.279 362.465 207.659 363.469C208.04 364.473 208.554 365.441 209.144 366.217C209.731 366.989 210.409 367.591 211.125 367.83L211.249 367.454C210.641 367.251 210.022 366.721 209.456 365.976C208.893 365.236 208.396 364.302 208.026 363.327C207.656 362.352 207.416 361.343 207.359 360.453C207.302 359.557 207.433 358.812 207.769 358.334C208.764 356.92 210.524 355.714 212.459 354.835Z" fill="black"/>
<path fill-rule="evenodd" clip-rule="evenodd" d="M219.016 481.959C210.064 479.803 198.539 483.523 184.801 491.827L184.599 491.488C198.35 483.176 209.995 479.379 219.107 481.575C228.247 483.776 234.758 491.98 238.299 507.439C241.14 519.84 237.916 535.249 232.755 549.448C227.794 563.098 221.031 575.661 216.09 583.419C221.131 579.732 225.434 578.247 228.873 578.128C232.512 578.002 235.176 579.41 236.691 581.344C237.458 582.322 237.973 583.656 238.284 585.139C238.595 586.624 238.706 588.271 238.655 589.889C238.604 591.507 238.392 593.101 238.056 594.48C237.72 595.855 237.257 597.032 236.695 597.804L236.379 597.57C236.897 596.859 237.344 595.739 237.674 594.386C238.004 593.036 238.213 591.47 238.263 589.877C238.313 588.283 238.203 586.668 237.899 585.221C237.595 583.771 237.098 582.502 236.383 581.589C234.953 579.764 232.413 578.402 228.886 578.523C225.356 578.645 220.829 580.255 215.45 584.393L215.167 584.127C220.134 576.489 227.235 563.486 232.386 549.312C237.54 535.132 240.731 519.813 237.916 507.528C234.389 492.127 227.941 484.109 219.016 481.959Z" fill="black"/>
<path fill-rule="evenodd" clip-rule="evenodd" d="M261.383 481.959C270.335 479.803 281.86 483.523 295.598 491.827L295.8 491.488C282.049 483.176 270.405 479.379 261.292 481.575C252.152 483.776 245.641 491.98 242.1 507.439C239.26 519.84 242.484 535.249 247.644 549.448C252.65 563.22 259.489 575.885 264.441 583.625C260.467 581.28 256.153 579.653 252.212 578.996C248.036 578.3 244.242 578.689 241.725 580.514C240.704 581.255 240.005 582.538 239.536 584.054C239.065 585.576 238.816 587.36 238.715 589.138C238.512 592.69 238.894 596.262 239.294 597.739L239.673 597.635C239.288 596.211 238.906 592.685 239.107 589.161C239.207 587.401 239.453 585.652 239.91 584.172C240.37 582.689 241.034 581.503 241.955 580.835C244.347 579.1 248.014 578.697 252.148 579.386C256.275 580.074 260.831 581.844 264.966 584.404L265.233 584.127C260.265 576.489 253.165 563.486 248.013 549.312C242.859 535.132 239.669 519.813 242.483 507.528C246.011 492.127 252.459 484.109 261.383 481.959Z" fill="black"/>
<path fill-rule="evenodd" clip-rule="evenodd" d="M202.254 442.811C196.066 448.531 190.322 455.645 187.222 460.51L186.892 460.296C190.01 455.402 195.776 448.262 201.988 442.52C205.094 439.649 208.317 437.121 211.382 435.398C214.441 433.679 217.369 432.745 219.875 433.106C227.523 434.207 232.484 439.563 234.565 446.1C236.643 452.631 235.853 460.359 231.989 466.248C225.84 475.62 218.765 479.758 216.576 480.76L216.414 480.4C218.545 479.424 225.558 475.332 231.661 466.03C235.455 460.249 236.236 452.646 234.191 446.22C232.147 439.8 227.291 434.573 219.82 433.498C217.442 433.156 214.606 434.039 211.573 435.744C208.545 437.446 205.347 439.952 202.254 442.811Z" fill="black"/>
<path fill-rule="evenodd" clip-rule="evenodd" d="M269.379 442.811C275.566 448.531 281.311 455.645 284.41 460.51L284.741 460.296C281.623 455.402 275.856 448.262 269.644 442.52C266.538 439.649 263.315 437.121 260.251 435.398C257.191 433.679 254.263 432.745 251.757 433.106C244.109 434.207 239.148 439.563 237.068 446.1C234.989 452.631 235.779 460.359 239.644 466.248C242.72 470.937 246.478 474.71 249.737 477.434C252.993 480.155 255.76 481.838 256.862 482.343L257.024 481.982C255.965 481.498 253.228 479.838 249.988 477.129C246.75 474.423 243.021 470.678 239.971 466.03C236.178 460.249 235.397 452.646 237.442 446.22C239.485 439.8 244.341 434.573 251.813 433.498C254.191 433.156 257.026 434.039 260.059 435.744C263.087 437.446 266.285 439.952 269.379 442.811Z" fill="black"/>
<path d="M240.866 411.542H231.694C230.592 411.542 229.57 412.125 229.002 413.077L223.197 422.806C222.644 423.734 222.599 424.883 223.08 425.852L228.067 435.904C228.599 436.977 229.687 437.654 230.877 437.654H240.825C241.984 437.654 243.048 437.011 243.595 435.982L248.987 425.824C249.492 424.872 249.481 423.727 248.957 422.785L243.607 413.161C243.051 412.161 242.003 411.542 240.866 411.542Z" fill="url(#paint2_linear)"/>
<path fill-rule="evenodd" clip-rule="evenodd" d="M228.833 412.975C229.436 411.963 230.522 411.344 231.694 411.344H240.866C242.074 411.344 243.187 412.002 243.778 413.064L249.128 422.688C249.685 423.688 249.696 424.906 249.159 425.917L243.768 436.075C243.187 437.169 242.056 437.852 240.824 437.852H230.877C229.612 437.852 228.456 437.132 227.891 435.992L222.904 425.94C222.393 424.911 222.44 423.69 223.029 422.704L228.833 412.975ZM231.694 411.74C230.66 411.74 229.702 412.286 229.169 413.179L223.365 422.908C222.846 423.778 222.805 424.855 223.255 425.763L228.242 435.815C228.741 436.821 229.761 437.456 230.877 437.456H240.824C241.911 437.456 242.909 436.853 243.421 435.888L248.813 425.73C249.287 424.838 249.276 423.764 248.786 422.881L243.435 413.257C242.914 412.32 241.931 411.74 240.866 411.74H231.694Z" fill="white"/>
<path d="M238.89 415.735L233.571 419.843C233.393 419.98 233.202 420.097 233 420.193L227.19 422.955C225.591 423.715 224.929 425.654 225.726 427.244L229.081 433.938C229.615 435.004 230.7 435.676 231.885 435.676H239.883C241.037 435.676 242.098 435.038 242.647 434.015L247.008 425.882C247.522 424.924 247.511 423.767 246.979 422.819L243.535 416.688C242.596 415.015 240.404 414.565 238.89 415.735Z" fill="url(#paint3_linear)"/>
<path fill-rule="evenodd" clip-rule="evenodd" d="M243.023 416.981C242.259 415.621 240.479 415.256 239.248 416.206L233.93 420.314C233.719 420.476 233.492 420.616 233.252 420.73L227.442 423.492C226.143 424.109 225.605 425.685 226.252 426.977L229.607 433.67C230.041 434.537 230.922 435.083 231.886 435.083H239.883C240.821 435.083 241.683 434.565 242.129 433.734L246.49 425.6C246.908 424.822 246.899 423.882 246.466 423.111L243.023 416.981ZM238.532 415.264C240.33 413.875 242.932 414.409 244.048 416.396L247.492 422.527C248.124 423.653 248.137 425.026 247.527 426.164L243.166 434.298C242.514 435.513 241.254 436.27 239.883 436.27H231.886C230.478 436.27 229.19 435.471 228.555 434.205L225.201 427.512C224.254 425.624 225.04 423.321 226.939 422.419L232.749 419.657C232.913 419.579 233.069 419.483 233.213 419.372L238.532 415.264Z" fill="url(#paint4_linear)"/>
<path d="M243.318 436.467L225.058 419.85L226.825 416.685L245.478 432.51L243.318 436.467Z" fill="#F9F6F1" fill-opacity="0.4"/>
<path d="M246.264 430.928L227.61 415.499L228.003 414.708L246.656 430.137L246.264 430.928Z" fill="#F9F6F1" fill-opacity="0.4"/>
<path d="M249.209 424.203L233.894 411.542L242.534 411.938L249.209 423.214V424.203Z" fill="#F9F6F1" fill-opacity="0.4"/>
<path fill-rule="evenodd" clip-rule="evenodd" d="M263.052 437.705L260.892 429.595L261.271 429.492L263.431 437.603L263.052 437.705Z" fill="black"/>
<path fill-rule="evenodd" clip-rule="evenodd" d="M207.276 438.496L209.436 430.386L209.056 430.283L206.896 438.394L207.276 438.496Z" fill="black"/>
<path fill-rule="evenodd" clip-rule="evenodd" d="M259.192 356.844C257.349 355.789 255.327 355.055 253.73 354.801C253.139 354.707 252.377 354.891 251.559 355.321C250.746 355.748 249.899 356.406 249.146 357.223C247.637 358.862 246.536 361.109 246.801 363.375L246.412 363.421C246.127 360.999 247.303 358.642 248.858 356.954C249.638 356.107 250.52 355.42 251.377 354.97C252.231 354.522 253.082 354.297 253.791 354.41C255.443 354.673 257.51 355.426 259.386 356.5C261.259 357.573 262.968 358.982 263.878 360.57C264.235 361.194 264.284 362.057 264.139 362.979C263.992 363.908 263.645 364.928 263.174 365.892C262.702 366.856 262.101 367.771 261.442 368.489C260.786 369.203 260.056 369.738 259.321 369.909L259.233 369.523C259.857 369.378 260.522 368.908 261.154 368.22C261.783 367.535 262.363 366.652 262.822 365.716C263.28 364.78 263.612 363.798 263.751 362.917C263.891 362.029 263.829 361.275 263.538 360.768C262.678 359.267 261.038 357.901 259.192 356.844Z" fill="black"/>
<path d="M64.2286 480.099L96.9143 599.874H10V381.285V193.388V1H108.8L114 60.8874L64.2286 111.792V480.099Z" fill="url(#paint5_linear)"/>
<path d="M427.494 344.062L361.56 599.874H490V384.204V198.817V8.99805L330 18.5998L359.358 73.9944L442.294 90.2435L427.494 344.062Z" fill="url(#paint6_linear)"/>
<path d="M490 487.99L10 99.0361V50.9893L490 409.914V487.99Z" fill="#FFEF9C" fill-opacity="0.14"/>
<path d="M490 290.94L98 8.2489L121.802 3L490 257.947V290.94Z" fill="#FFEF9C" fill-opacity="0.14"/>
<path d="M490 128.474L243 3H265.32L490 95.4806V128.474Z" fill="#FFEF9C" fill-opacity="0.14"/>
<path d="M340 599.874L10 231.112V159.966L490 564.881V599.874H340Z" fill="#FFEF9C" fill-opacity="0.14"/>
<path d="M347.161 74.9843C425.005 74.9843 469.594 42.083 490 22.9544V0H162C200.04 25.2498 269.318 74.9843 347.161 74.9843Z" fill="#43606C"/>
<path d="M143.174 68.4186C74.844 71.9093 32.312 58.6445 10 46.0778V0H314C278.905 23.0389 211.505 64.9278 143.174 68.4186Z" fill="#43606C"/>
<path fill-rule="evenodd" clip-rule="evenodd" d="M472.917 515.845C472.364 513.758 471.827 511.731 471.326 509.625L473.615 509.081C474.104 511.139 474.634 513.137 475.183 515.206C477.255 523.018 479.593 531.833 480.996 548.667C482.255 563.776 481.774 576.509 481.357 587.564C481.187 592.052 481.028 596.262 481 600.244L478.647 600.227C478.676 596.132 478.838 591.855 479.009 587.328C479.425 576.316 479.898 563.822 478.651 548.863C477.267 532.249 474.983 523.636 472.917 515.845Z" fill="#43606C"/>
<path fill-rule="evenodd" clip-rule="evenodd" d="M490.798 528.602C490.798 528.602 490.798 528.602 491.882 529.059C492.966 529.516 492.966 529.516 492.966 529.516L492.966 529.517L492.964 529.521L492.956 529.542C492.948 529.561 492.936 529.59 492.919 529.63C492.887 529.71 492.838 529.831 492.774 529.993C492.647 530.316 492.46 530.802 492.227 531.442C491.761 532.723 491.107 534.623 490.368 537.082C488.888 542 487.063 549.152 485.692 558.061C485.426 559.79 485.169 561.448 484.921 563.046C482.591 578.065 481.088 587.756 481 600.244L478.647 600.227C478.736 587.558 480.267 577.695 482.592 562.708C482.842 561.102 483.1 559.437 483.367 557.704C484.756 548.672 486.608 541.412 488.114 536.404C488.868 533.899 489.535 531.957 490.016 530.637C490.257 529.977 490.45 529.472 490.585 529.131C490.652 528.96 490.705 528.83 490.741 528.741C490.759 528.697 490.773 528.663 490.783 528.64L490.794 528.613L490.797 528.605L490.798 528.602Z" fill="#43606C"/>
<path fill-rule="evenodd" clip-rule="evenodd" d="M465.545 542.545L466.588 542C467.631 541.455 467.631 541.455 467.631 541.455L467.636 541.466L467.652 541.495C467.665 541.521 467.685 541.559 467.71 541.608C467.762 541.708 467.837 541.854 467.933 542.044C468.126 542.423 468.404 542.976 468.747 543.673C469.432 545.066 470.375 547.037 471.412 549.35C473.479 553.965 475.935 559.987 477.43 565.516C480.411 576.546 481.098 586.274 481 600.243L478.647 600.227C478.744 586.353 478.06 576.866 475.158 566.13C473.712 560.778 471.314 554.887 469.264 550.312C468.242 548.029 467.31 546.084 466.635 544.711C466.298 544.024 466.024 543.481 465.836 543.11C465.741 542.925 465.668 542.783 465.619 542.687C465.595 542.639 465.576 542.603 465.563 542.579L465.55 542.553L465.545 542.545Z" fill="#43606C"/>
<ellipse cx="466.294" cy="542.294" rx="5.29412" ry="5.58824" fill="#FD39A1"/>
<circle cx="466.588" cy="542.294" r="2.64706" fill="#99155B"/>
<ellipse cx="493.059" cy="523.765" rx="7.94118" ry="8.23529" fill="#FD39A1"/>
<circle cx="493.353" cy="523.765" r="4.11765" fill="#99155B"/>
<ellipse cx="471" cy="502.294" rx="10" ry="10.2941" fill="#FD39A1"/>
<circle cx="471.294" cy="502.294" r="5" fill="#99155B"/>
<path fill-rule="evenodd" clip-rule="evenodd" d="M13.9173 514.845C13.3642 512.758 12.8266 510.731 12.3262 508.625L14.6154 508.081C15.1044 510.139 15.6344 512.137 16.183 514.206C18.2551 522.018 20.5933 530.833 21.9961 547.667C23.2552 562.776 22.7743 575.509 22.3567 586.564C22.1872 591.052 22.0282 595.262 22.0002 599.244L19.6473 599.227C19.6761 595.132 19.8379 590.855 20.0091 586.328C20.4255 575.316 20.898 562.822 19.6513 547.863C18.2669 531.249 15.9832 522.636 13.9173 514.845Z" fill="#43606C"/>
<path fill-rule="evenodd" clip-rule="evenodd" d="M31.7983 527.602C31.7984 527.602 31.7985 527.602 32.8824 528.059C33.9663 528.516 33.9663 528.516 33.9664 528.516L33.9661 528.517L33.9643 528.521L33.9557 528.542C33.9478 528.561 33.9357 528.59 33.9194 528.63C33.8869 528.71 33.838 528.831 33.7743 528.993C33.6469 529.316 33.4603 529.802 33.2271 530.442C32.7605 531.723 32.1073 533.623 31.3676 536.082C29.888 541 28.0629 548.152 26.6922 557.061C26.4263 558.79 26.1691 560.448 25.9212 562.046C23.5913 577.065 22.0878 586.756 21.9999 599.244L19.647 599.227C19.7362 586.558 21.2667 576.695 23.5924 561.708C23.8416 560.102 24.1 558.437 24.3666 556.704C25.7561 547.672 27.6076 540.412 29.1144 535.404C29.8679 532.899 30.5354 530.957 31.0162 529.637C31.2566 528.977 31.4504 528.472 31.585 528.131C31.6523 527.96 31.7048 527.83 31.7409 527.741C31.7589 527.697 31.7729 527.663 31.7825 527.64L31.7938 527.613L31.797 527.605L31.7983 527.602Z" fill="#43606C"/>
<path fill-rule="evenodd" clip-rule="evenodd" d="M6.54541 541.545L7.58804 541C8.63066 540.455 8.63073 540.455 8.63082 540.455L8.63629 540.466L8.6516 540.495C8.66498 540.521 8.68465 540.559 8.71029 540.608C8.76156 540.708 8.83672 540.854 8.93317 541.044C9.12605 541.423 9.40414 541.976 9.74673 542.673C10.4318 544.066 11.3754 546.037 12.4117 548.35C14.4794 552.965 16.9351 558.987 18.4296 564.516C21.4106 575.546 22.098 585.274 21.9996 599.243L19.6467 599.227C19.7445 585.353 19.0596 575.866 16.1582 565.13C14.7115 559.778 12.3143 553.887 10.2644 549.312C9.24182 547.029 8.3105 545.084 7.63523 543.711C7.29767 543.024 7.0243 542.481 6.83574 542.11C6.74147 541.925 6.66842 541.783 6.61917 541.687C6.59455 541.639 6.57587 541.603 6.56347 541.579L6.54962 541.553L6.54541 541.545Z" fill="#43606C"/>
<ellipse cx="7.29412" cy="541.294" rx="5.29412" ry="5.58824" fill="#FD39A1"/>
<circle cx="7.58846" cy="541.294" r="2.64706" fill="#99155B"/>
<ellipse cx="34.0589" cy="522.765" rx="7.94118" ry="8.23529" fill="#FD39A1"/>
<circle cx="34.353" cy="522.765" r="4.11765" fill="#99155B"/>
<ellipse cx="12" cy="501.294" rx="10" ry="10.2941" fill="#FD39A1"/>
<circle cx="12.2939" cy="501.294" r="5" fill="#99155B"/>
<path d="M418.59 511.721C450.8 532.95 470.113 586.356 472.001 599.572H468.792C449.007 588.878 413.368 563.544 392.482 546.062C362.38 520.865 356.938 496.736 352.22 483C360.922 483.728 386.38 490.492 418.59 511.721Z" fill="#43606C"/>
<path fill-rule="evenodd" clip-rule="evenodd" d="M439.565 580.393L465.232 590.553L464.865 591.481L439.197 581.321L439.565 580.393Z" fill="#173E4F"/>
<path fill-rule="evenodd" clip-rule="evenodd" d="M416.014 562.738L453.446 575.572L453.122 576.516L415.69 563.682L416.014 562.738Z" fill="#173E4F"/>
<path fill-rule="evenodd" clip-rule="evenodd" d="M394.064 545.619L439.517 558.452L439.246 559.413L393.793 546.579L394.064 545.619Z" fill="#173E4F"/>
<path fill-rule="evenodd" clip-rule="evenodd" d="M373.746 525.833L424.545 540.271L424.273 541.232L373.473 526.794L373.746 525.833Z" fill="#173E4F"/>
<path fill-rule="evenodd" clip-rule="evenodd" d="M364.124 509.793L405.833 522.092L405.551 523.049L363.842 510.75L364.124 509.793Z" fill="#173E4F"/>
<path fill-rule="evenodd" clip-rule="evenodd" d="M356.127 494.293L386.607 504.988L386.277 505.93L355.797 495.235L356.127 494.293Z" fill="#173E4F"/>
<path fill-rule="evenodd" clip-rule="evenodd" d="M451.183 550.953L453.322 576.62L454.316 576.537L452.177 550.87L451.183 550.953Z" fill="#173E4F"/>
<path fill-rule="evenodd" clip-rule="evenodd" d="M438.348 532.196V558.398H439.346V532.196H438.348Z" fill="#173E4F"/>
<path fill-rule="evenodd" clip-rule="evenodd" d="M423.376 516.186L424.98 541.318L425.977 541.255L424.372 516.122L423.376 516.186Z" fill="#173E4F"/>
<path fill-rule="evenodd" clip-rule="evenodd" d="M405.195 504.432L406.799 523.148L407.794 523.062L406.19 504.347L405.195 504.432Z" fill="#173E4F"/>
<path fill-rule="evenodd" clip-rule="evenodd" d="M380.64 492.832L385.988 504.596L386.896 504.183L381.549 492.419L380.64 492.832Z" fill="#173E4F"/>
<path fill-rule="evenodd" clip-rule="evenodd" d="M462.947 575.559L464.552 591.601L465.545 591.502L463.941 575.459L462.947 575.559Z" fill="#173E4F"/>
<path fill-rule="evenodd" clip-rule="evenodd" d="M422.974 540.023C400.538 515.984 375.988 495.711 352 483.983L352.438 483.086C376.576 494.887 401.222 515.254 423.704 539.342C437.811 554.457 462.595 585.903 471.343 598.757L470.518 599.319C461.798 586.505 437.046 555.099 422.974 540.023Z" fill="#173E4F"/>
<path d="M63.4101 511.721C31.2002 532.95 11.8868 586.356 9.99947 599.572H13.2079C32.9931 588.878 68.6317 563.544 89.5178 546.062C119.62 520.865 125.062 496.736 129.78 483C121.078 483.728 95.6201 490.492 63.4101 511.721Z" fill="#43606C"/>
<path fill-rule="evenodd" clip-rule="evenodd" d="M42.4354 580.393L16.768 590.553L17.1354 591.481L42.8027 581.321L42.4354 580.393Z" fill="#173E4F"/>
<path fill-rule="evenodd" clip-rule="evenodd" d="M65.9858 562.738L28.5543 575.572L28.8781 576.516L66.3096 563.682L65.9858 562.738Z" fill="#173E4F"/>
<path fill-rule="evenodd" clip-rule="evenodd" d="M87.9358 545.619L42.4833 558.452L42.7545 559.413L88.207 546.579L87.9358 545.619Z" fill="#173E4F"/>
<path fill-rule="evenodd" clip-rule="evenodd" d="M108.254 525.833L57.4546 540.271L57.7275 541.232L108.527 526.794L108.254 525.833Z" fill="#173E4F"/>
<path fill-rule="evenodd" clip-rule="evenodd" d="M117.876 509.793L76.1665 522.092L76.4488 523.049L118.158 510.75L117.876 509.793Z" fill="#173E4F"/>
<path fill-rule="evenodd" clip-rule="evenodd" d="M125.873 494.293L95.3927 504.988L95.7232 505.93L126.203 495.235L125.873 494.293Z" fill="#173E4F"/>
<path fill-rule="evenodd" clip-rule="evenodd" d="M30.8173 550.953L28.6783 576.62L27.6836 576.537L29.8225 550.87L30.8173 550.953Z" fill="#173E4F"/>
<path fill-rule="evenodd" clip-rule="evenodd" d="M43.6525 532.196V558.398H42.6543V532.196H43.6525Z" fill="#173E4F"/>
<path fill-rule="evenodd" clip-rule="evenodd" d="M58.6238 516.186L57.0196 541.318L56.0234 541.255L57.6276 516.122L58.6238 516.186Z" fill="#173E4F"/>
<path fill-rule="evenodd" clip-rule="evenodd" d="M76.8048 504.432L75.2006 523.148L74.2061 523.062L75.8103 504.347L76.8048 504.432Z" fill="#173E4F"/>
<path fill-rule="evenodd" clip-rule="evenodd" d="M101.36 492.832L96.0122 504.596L95.1035 504.183L100.451 492.419L101.36 492.832Z" fill="#173E4F"/>
<path fill-rule="evenodd" clip-rule="evenodd" d="M19.0525 575.559L17.4483 591.601L16.4551 591.502L18.0593 575.459L19.0525 575.559Z" fill="#173E4F"/>
<path fill-rule="evenodd" clip-rule="evenodd" d="M59.0258 540.023C81.4618 515.984 106.012 495.711 130 483.983L129.562 483.086C105.424 494.887 80.7779 515.254 58.2961 539.342C44.1886 554.457 19.4048 585.903 10.6569 598.757L11.4821 599.319C20.2022 586.505 44.9544 555.099 59.0258 540.023Z" fill="#173E4F"/>
<path d="M68.0233 587.216C70.722 594.795 52.5056 596.267 41.2201 600.464C30.4252 591.36 15.7422 585.612 21.1639 577.622C25.8253 570.752 32.94 578.848 38.3374 584.491C35.3934 577.622 20.012 562.576 25.8253 554.315C30.4868 547.691 36.3747 558.731 42.7535 565.355C40.5455 557.013 28.508 542.114 33.9214 536.16C39.3349 530.205 44.9616 538.368 49.8683 547.445C48.5801 538.613 46.0044 527.301 49.8683 522.911C55.5384 516.469 65.5698 521.439 63.791 530.762C69.7406 522.911 77.9594 522.911 79.7995 532.725C81.2715 540.576 70.1698 545.728 63.791 550.415C70.1698 550.415 77.7069 544.992 79.7994 552.107C82.2528 560.448 61.4607 564.102 57.7191 570.752C63.1165 570.752 75.874 563.883 75.874 570.752C75.874 577.622 58.3936 578.848 52.5056 587.216C58.3936 587.216 65.5456 580.258 68.0233 587.216Z" fill="#80886F"/>
<path d="M4.86487 600.162H71.3514C71.3514 600.162 72.4326 597.189 74.5947 595.027C77.2974 592.324 78.6488 590.162 80 588.541C75.4056 590.162 71.2614 593.315 70.5407 595.027C70.7209 592.775 70.0001 591.784 69.1893 588C66.7569 591.514 64.6847 592.324 64.3244 595.027C64.2343 592.324 63.2435 590.703 61.892 588C60.0002 590.432 57.7478 592.324 57.027 595.027C57.027 592.324 55.6759 592.054 53.7839 588C51.6219 591.243 49.6398 592.324 49.4596 595.027C49.3695 592.324 47.0273 593.405 45.9461 588.541C43.784 592.054 40.8109 593.135 40.0001 595.838C40.8109 592.595 40.0001 593.135 36.7569 589.351C34.0542 591.514 32.7028 593.766 31.3515 595.027C32.5227 592.775 30.8109 592.324 28.6488 588.541C24.5947 592.324 25.6758 593.586 23.5136 595.838C25.2254 593.135 22.1624 593.135 20.8109 589.351C15.6759 594.757 16.7568 593.495 16.4865 595.027C16.6667 592.865 14.5947 590.703 11.6216 588.541C10.8109 592.324 10.4506 593.495 10.5407 595.838C8.37863 593.676 9.45959 593.405 7.29743 591.243C5.13527 589.081 1.71172 591.423 0 592.324C0.900902 592.504 3.13514 593.297 4.86487 595.027C6.5946 596.757 5.58559 599.171 4.86487 600.162Z" fill="#59787D"/>
<path d="M508.135 600.162H441.649C441.649 600.162 440.567 597.189 438.405 595.027C435.703 592.324 434.351 590.162 433 588.541C437.594 590.162 441.739 593.315 442.459 595.027C442.279 592.775 443 591.784 443.811 588C446.243 591.514 448.315 592.324 448.676 595.027C448.766 592.324 449.757 590.703 451.108 588C453 590.432 455.252 592.324 455.973 595.027C455.973 592.324 457.324 592.054 459.216 588C461.378 591.243 463.36 592.324 463.54 595.027C463.63 592.324 465.973 593.405 467.054 588.541C469.216 592.054 472.189 593.135 473 595.838C472.189 592.595 473 593.135 476.243 589.351C478.946 591.514 480.297 593.766 481.649 595.027C480.477 592.775 482.189 592.324 484.351 588.541C488.405 592.324 487.324 593.586 489.486 595.838C487.775 593.135 490.838 593.135 492.189 589.351C497.324 594.757 496.243 593.495 496.513 595.027C496.333 592.865 498.405 590.703 501.378 588.541C502.189 592.324 502.549 593.495 502.459 595.838C504.621 593.676 503.54 593.405 505.703 591.243C507.865 589.081 511.288 591.423 513 592.324C512.099 592.504 509.865 593.297 508.135 595.027C506.405 596.757 507.414 599.171 508.135 600.162Z" fill="#59787D"/>
<path d="M453.921 590.095L459 600.66H399V570.491L412.83 596.551L411.283 553L431.244 596.551L424.748 555.113L438.567 596.551L434.079 557.93L446.48 596.551L445.654 569.669L453.921 598.429V590.095Z" fill="#80886F"/>
<path d="M67.0787 590.095L62 600.66H122V570.491L108.17 596.551L109.717 553L89.7559 596.551L96.252 555.113L82.4331 596.551L86.9213 557.93L74.5197 596.551L75.3465 569.669L67.0787 598.429V590.095Z" fill="#80886F"/>
<defs>
<linearGradient id="paint0_linear" x1="241.991" y1="362.272" x2="241.991" y2="597.687" gradientUnits="userSpaceOnUse">
<stop stop-color="#B57A29"/>
<stop offset="0.586458" stop-color="#804E0A"/>
<stop offset="1" stop-color="#7D260A"/>
</linearGradient>
<linearGradient id="paint1_linear" x1="236.077" y1="392.521" x2="236.077" y2="406.918" gradientUnits="userSpaceOnUse">
<stop stop-color="#FDB646"/>
<stop offset="1" stop-color="#FAA929"/>
</linearGradient>
<linearGradient id="paint2_linear" x1="232.519" y1="411.542" x2="236.105" y2="433.294" gradientUnits="userSpaceOnUse">
<stop stop-color="white"/>
<stop offset="0.0001" stop-color="#DCE9EB" stop-opacity="0.88"/>
<stop offset="1" stop-color="#C4D2D3" stop-opacity="0.73"/>
</linearGradient>
<linearGradient id="paint3_linear" x1="238.213" y1="412.136" x2="236.021" y2="435.673" gradientUnits="userSpaceOnUse">
<stop offset="0.383333" stop-color="#FEBF5A"/>
<stop offset="1" stop-color="#E67315"/>
</linearGradient>
<linearGradient id="paint4_linear" x1="236.053" y1="413.521" x2="236.053" y2="435.676" gradientUnits="userSpaceOnUse">
<stop stop-color="#FFEEB0"/>
<stop offset="1" stop-color="#FFD12D"/>
</linearGradient>
<linearGradient id="paint5_linear" x1="143.172" y1="-72.3334" x2="-53.7971" y2="615.437" gradientUnits="userSpaceOnUse">
<stop stop-color="#6E3154"/>
<stop offset="0.992286" stop-color="#302E5C"/>
</linearGradient>
<linearGradient id="paint6_linear" x1="358.426" y1="-63.356" x2="552.537" y2="615.37" gradientUnits="userSpaceOnUse">
<stop stop-color="#6E3154"/>
<stop offset="0.992286" stop-color="#302E5C"/>
</linearGradient>
</defs>
</svg>
