<svg width="297" height="402" viewBox="0 0 297 402" fill="none" xmlns="http://www.w3.org/2000/svg">
<rect x="8" width="277.443" height="399.5" fill="#FFD7AC"/>
<path d="M219.176 12.9839L230.075 398.003H184.869L175.456 12.9839H219.176Z" fill="#DD756E"/>
<path d="M203.268 201.748L180.542 211.693L178.504 287.468L175.952 395.763H287.92V334.082V287.468L203.268 201.748Z" fill="#1C0E4D"/>
<path d="M182.9 206.71C184.963 207.2 186.147 211.297 186.147 211.297L181.309 216.03C181.309 216.03 177.603 214.619 177.219 212.81C176.836 211.002 177.033 209.699 178.414 208.528C179.795 207.357 180.836 206.22 182.9 206.71Z" fill="#1C0E4C"/>
<path d="M199.171 218.11L203.825 219.989L191.91 224.447L193.506 220.497L199.171 218.11Z" fill="#301D70"/>
<path d="M198.024 200.931C197.161 202.425 199.018 206.741 199.018 206.741L205.125 206.409C205.125 206.409 206.109 201.927 205.551 200.931C204.994 199.935 204.404 198.938 202.001 198.772C199.597 198.606 198.887 199.436 198.024 200.931Z" fill="#1C0E4C"/>
<ellipse cx="187.887" cy="218.227" rx="0.99115" ry="1.49813" fill="#00F3F3"/>
<ellipse cx="201.264" cy="212.734" rx="1.48673" ry="0.998751" fill="#00F3F3"/>
<path d="M93.215 15.98L59.03 398.002H98.1693L123.436 15.98H93.215Z" fill="#DD756E"/>
<path d="M287.425 352.06L8.49561 114.857V100.874L287.425 332.085V352.06Z" fill="#FFEF9C" fill-opacity="0.14"/>
<path d="M287.425 244.195L8.49561 6.99188V0.5L287.425 224.22V244.195Z" fill="#FFEF9C" fill-opacity="0.14"/>
<path d="M58.0389 31.7651L41.1941 399.001H61.0115L78.8471 31.7651H58.0389Z" fill="#F2946C"/>
<path d="M62.5537 216.326L30.2196 282.369L22.863 399.5H148.472L110.874 269.634L84.2965 217.066L62.5537 216.326Z" fill="#1C0E4C"/>
<path d="M72.103 231.43L68.4302 234.392L80.33 235.132L77.8325 232.022L72.103 231.43Z" fill="#301D70"/>
<path d="M80.0359 213.513L78.4199 220.177L82.6803 222.99L88.9975 216.919L85.7655 212.329L80.0359 213.513Z" fill="#1C0E4C"/>
<path d="M66.5202 212.92L68.1362 219.584L63.8758 222.397L57.5586 216.326L60.7907 211.735L66.5202 212.92Z" fill="#1C0E4C"/>
<ellipse rx="1.17686" ry="1.18341" transform="matrix(0.927994 0.372596 -0.367535 0.93001 67.1176 227.628)" fill="#00F3F3"/>
<ellipse rx="1.17686" ry="1.18341" transform="matrix(0.927994 0.372596 -0.367535 0.93001 80.3212 227.829)" fill="#00F3F3"/>
<path d="M231.936 31.7651L215.092 399.001H242.836L260.672 31.7651H231.936Z" fill="#F2946C"/>
<path d="M109.561 293.702C108.103 307.991 89.5076 379.347 75.3789 399.499H202.706C186.298 350.493 171.493 265.644 171.493 232.21C171.493 215.985 169.974 19.5415 171.493 0.000102154H145.731L112.638 0C111.27 36.3348 111.02 279.412 109.561 293.702Z" fill="#8A4152"/>
<path fill-rule="evenodd" clip-rule="evenodd" d="M127.213 261.564C126.293 262.048 125.599 262.617 125.191 263.269C124.359 264.599 124.048 266.15 123.712 268.317C123.667 268.609 123.621 268.913 123.573 269.228C123.269 271.245 122.892 273.748 122.083 276.972C120.211 284.429 116.033 295.736 105.114 313.863C94.2091 331.966 88.239 353.365 85.8226 370.238C84.6144 378.675 84.2954 385.976 84.6906 391.164C84.8882 393.759 85.2641 395.818 85.7927 397.225C86.057 397.929 86.3569 398.462 86.6857 398.817C87.0128 399.17 87.3636 399.343 87.737 399.343H202.941C202.94 399.332 202.939 399.321 202.937 399.308C202.926 399.199 202.908 399.036 202.883 398.822C202.834 398.394 202.759 397.762 202.656 396.946C202.45 395.314 202.13 392.946 201.677 390.003C200.771 384.119 199.331 375.937 197.194 366.748C192.919 348.367 185.861 325.97 174.726 309.869C163.572 293.741 159.043 283.376 156.908 276.419C155.926 273.22 155.451 270.743 155.072 268.764C155.039 268.592 155.007 268.424 154.975 268.259C154.577 266.196 154.251 264.719 153.477 263.505C153.099 262.912 152.431 262.372 151.531 261.895C150.633 261.419 149.513 261.01 148.242 260.673C145.699 259.999 142.564 259.617 139.419 259.559C136.274 259.5 133.125 259.764 130.555 260.379C129.269 260.687 128.132 261.081 127.213 261.564ZM203.071 399.461C203.187 399.449 203.187 399.449 203.187 399.448L203.187 399.446L203.183 399.407C203.18 399.379 203.176 399.337 203.17 399.283C203.158 399.173 203.14 399.009 203.115 398.795C203.066 398.366 202.991 397.733 202.888 396.916C202.681 395.282 202.361 392.912 201.908 389.967C201.001 384.078 199.56 375.89 197.421 366.694C193.145 348.306 186.078 325.873 174.917 309.734C163.774 293.621 159.257 283.278 157.131 276.35C156.153 273.163 155.68 270.697 155.301 268.719C155.268 268.547 155.236 268.379 155.204 268.214C154.807 266.159 154.476 264.636 153.674 263.378C153.264 262.736 152.557 262.173 151.64 261.687C150.721 261.199 149.583 260.785 148.301 260.445C145.736 259.766 142.582 259.382 139.424 259.323C136.265 259.264 133.096 259.53 130.501 260.15C129.203 260.461 128.046 260.861 127.105 261.355C126.164 261.85 125.432 262.443 124.993 263.144C124.133 264.52 123.817 266.117 123.481 268.281C123.436 268.574 123.39 268.878 123.342 269.193C123.038 271.21 122.663 273.702 121.856 276.915C119.992 284.343 115.824 295.628 104.914 313.741C93.9889 331.878 88.011 353.309 85.5915 370.205C84.3818 378.653 84.0609 385.972 84.4578 391.182C84.6561 393.786 85.0342 395.871 85.5743 397.308C85.8443 398.027 86.1575 398.591 86.515 398.977C86.8741 399.366 87.2829 399.579 87.737 399.579H203.201L203.187 399.449L203.071 399.461Z" fill="black"/>
<path d="M150.741 254.87C149.195 254.625 146.158 257.312 146.484 260.1C146.903 260.508 148.136 261.606 149.724 262.736C151.311 263.865 153.249 263.951 154.019 263.853C155.636 263.477 157.427 259.818 156.657 258.474C155.604 256.637 152.674 255.177 150.741 254.87Z" fill="#B57A29"/>
<path d="M150.765 257.323C149.645 257.511 148.158 259.48 148.08 260.382C148.921 260.382 151.933 262.03 153.333 262.853C153.761 262.422 154.431 261.465 154.617 260.147C154.851 258.5 152.166 257.088 150.765 257.323Z" fill="#FBAB7E"/>
<path d="M129.031 253.92C130.963 253.613 133.587 257.007 133.26 259.796C132.842 260.204 131.633 260.658 130.045 261.789C128.458 262.919 126.521 263.006 125.751 262.908C124.135 262.532 122.345 258.872 123.116 257.527C124.169 255.689 127.098 254.228 129.031 253.92Z" fill="#B57A29"/>
<path d="M129.753 256.852C130.874 257.04 131.543 259.363 131.621 260.265C130.78 260.265 128.249 261.114 126.848 261.938C126.42 261.506 126.204 260.053 126.017 258.735C125.784 257.088 128.352 256.617 129.753 256.852Z" fill="#FBAB7E"/>
<path d="M125.093 263.206C121.708 268.619 126.844 277.561 105.015 313.802C83.1852 350.042 81.1185 399.461 87.7379 399.461H203.072C203.072 399.461 197.119 342.041 174.822 309.801C152.526 277.561 156.728 268.384 153.577 263.442C150.425 258.5 128.479 257.794 125.093 263.206Z" fill="url(#paint0_linear)"/>
<path d="M143.142 307.605C142.287 307.875 141.562 308.052 142.204 306.396C142.361 305.992 143.095 304.856 144.784 303.537C146.472 302.218 148.458 301.815 149.24 301.778C151.946 301.233 152.487 303.537 149.24 303.142C147.499 302.93 150.106 304.204 148.698 305.324C147.291 306.444 146.534 304.779 145.181 305.626C143.802 306.49 145.181 306.961 143.142 307.605Z" fill="#FBAB2E"/>
<path d="M137.604 308.325C138.145 310.234 139.321 309.416 138.686 307.779C138.53 307.376 137.478 305.366 135.836 304.083C134.148 302.764 132.986 302.32 131.922 302.051C129.757 301.506 131.056 303.187 133.275 303.688C134.103 303.875 132.463 305.052 133.545 306.143C134.898 307.506 135.626 306.114 136.522 306.415C137.334 306.688 137.296 307.238 137.604 308.325Z" fill="#FBAB2E"/>
<path fill-rule="evenodd" clip-rule="evenodd" d="M181.164 336.02C179.217 336.605 176.532 336.212 173.723 335.21L173.801 334.988C176.595 335.985 179.222 336.358 181.097 335.795C182.031 335.515 182.775 335.004 183.267 334.225C183.759 333.444 184.005 332.383 183.918 330.988L184.151 330.973C184.24 332.402 183.989 333.517 183.464 334.351C182.937 335.186 182.142 335.727 181.164 336.02Z" fill="black"/>
<path fill-rule="evenodd" clip-rule="evenodd" d="M106.071 337.361C107.909 337.118 109.912 336.383 111.854 335.2L111.733 334.998C109.814 336.168 107.841 336.89 106.041 337.128C104.239 337.366 102.618 337.121 101.391 336.366C100.168 335.615 99.3246 334.35 99.0877 332.519C98.8502 330.684 99.2227 328.279 100.444 325.26L100.228 325.171C98.9979 328.211 98.6116 330.66 98.8562 332.55C99.1013 334.444 99.9804 335.775 101.27 336.567C102.555 337.358 104.235 337.604 106.071 337.361Z" fill="black"/>
<path d="M133.255 281.562C133.83 280.385 134.249 279.444 135.356 279.444C136.874 279.444 137.466 278.15 138.633 278.973C139.801 279.797 141.065 279.619 141.66 278.62C142.71 276.855 144.695 277.208 145.162 278.62C145.629 280.032 147.112 278.879 148.322 281.091C149.481 283.209 148.547 284.503 146.796 284.503C145.045 284.503 144.304 283.999 142.71 285.209C140.851 286.621 140.034 285.798 138.633 285.209C137.233 284.621 136.097 284.181 134.656 284.503C133.605 284.739 131.621 284.066 131.621 283.209C131.621 282.353 132.522 283.062 133.255 281.562Z" fill="url(#paint1_linear)"/>
<path fill-rule="evenodd" clip-rule="evenodd" d="M143.645 277.194C144.422 277.244 145.119 277.745 145.383 278.545C145.482 278.845 145.625 278.989 145.796 279.085C145.95 279.171 146.125 279.218 146.348 279.279C146.405 279.295 146.464 279.311 146.527 279.329C146.826 279.414 147.17 279.53 147.518 279.778C147.868 280.026 148.21 280.398 148.527 280.977C149.125 282.069 149.217 283.013 148.857 283.701C148.495 284.394 147.723 284.738 146.796 284.738C146.353 284.738 145.973 284.707 145.635 284.679L145.624 284.678C145.281 284.649 144.989 284.625 144.704 284.637C144.154 284.66 143.615 284.817 142.851 285.397C141.888 286.129 141.155 286.308 140.462 286.191C140.126 286.135 139.812 286.01 139.504 285.87C139.385 285.816 139.269 285.76 139.153 285.705C138.958 285.612 138.762 285.518 138.544 285.426C137.14 284.837 136.068 284.428 134.706 284.733C134.121 284.864 133.313 284.741 132.66 284.485C132.33 284.355 132.022 284.186 131.793 283.982C131.566 283.781 131.387 283.519 131.387 283.209C131.387 282.948 131.459 282.753 131.627 282.617C131.701 282.558 131.783 282.518 131.857 282.488C131.903 282.47 131.957 282.451 132.008 282.433C132.034 282.423 132.059 282.414 132.082 282.406C132.23 282.351 132.383 282.284 132.541 282.151C132.699 282.017 132.874 281.808 133.046 281.458C133.067 281.414 133.088 281.371 133.109 281.328C133.367 280.798 133.615 280.289 133.926 279.911C134.277 279.486 134.72 279.208 135.356 279.208C135.938 279.208 136.361 279.005 136.782 278.802C136.865 278.762 136.947 278.723 137.03 278.685C137.278 278.572 137.545 278.47 137.837 278.464C138.138 278.457 138.442 278.55 138.767 278.78C139.313 279.165 139.864 279.304 140.333 279.246C140.798 279.189 141.199 278.936 141.46 278.499C142.025 277.55 142.862 277.143 143.645 277.194ZM143.615 277.663C143.026 277.625 142.346 277.925 141.86 278.741C141.526 279.303 140.998 279.638 140.39 279.713C139.786 279.788 139.121 279.604 138.5 279.166C138.242 278.984 138.034 278.93 137.848 278.934C137.653 278.939 137.458 279.006 137.222 279.114C137.152 279.146 137.079 279.181 137.002 279.218C136.579 279.423 136.053 279.679 135.356 279.679C134.885 279.679 134.565 279.872 134.286 280.212C134.011 280.545 133.787 281.003 133.519 281.553C133.501 281.59 133.483 281.628 133.464 281.665C133.269 282.065 133.057 282.33 132.84 282.512C132.623 282.695 132.413 282.785 132.243 282.847C132.207 282.861 132.176 282.872 132.148 282.882C132.106 282.897 132.069 282.91 132.032 282.925C131.974 282.948 131.941 282.967 131.919 282.985C131.895 283.004 131.854 283.041 131.854 283.209C131.854 283.327 131.923 283.47 132.102 283.629C132.277 283.785 132.531 283.929 132.829 284.046C133.43 284.282 134.14 284.377 134.605 284.273C136.127 283.933 137.326 284.405 138.723 284.992C138.949 285.086 139.167 285.191 139.371 285.288C139.484 285.342 139.593 285.394 139.696 285.441C139.994 285.577 140.263 285.681 140.539 285.727C141.069 285.816 141.674 285.701 142.57 285.021C143.399 284.391 144.028 284.195 144.685 284.167C145.003 284.154 145.325 284.18 145.662 284.209L145.669 284.209C146.008 284.237 146.372 284.268 146.796 284.268C147.621 284.268 148.191 283.965 148.444 283.481C148.699 282.993 148.679 282.23 148.118 281.204C147.83 280.678 147.533 280.364 147.249 280.162C146.965 279.96 146.681 279.861 146.4 279.782C146.352 279.768 146.302 279.754 146.251 279.741C146.023 279.679 145.778 279.613 145.569 279.496C145.293 279.341 145.075 279.101 144.94 278.694C144.738 278.082 144.21 277.702 143.615 277.663Z" fill="#FFD12D"/>
<path d="M146.338 273.561H133.964L138.106 278.571C139.006 279.659 140.648 279.705 141.607 278.67L146.338 273.561Z" fill="black"/>
<path d="M133.847 273.443C134.742 271.129 136.065 265.677 139.684 265.677C143.887 265.677 145.599 270.894 146.221 273.443H133.847Z" fill="#C68731"/>
<path d="M134.423 266.736C134.423 267.646 133.691 268.383 132.788 268.383C131.885 268.383 131.153 267.646 131.153 266.736C131.153 265.826 131.885 265.089 132.788 265.089C133.691 265.089 134.423 265.826 134.423 266.736Z" fill="black"/>
<path d="M133.956 266.266C133.956 266.526 133.747 266.736 133.489 266.736C133.231 266.736 133.022 266.526 133.022 266.266C133.022 266.006 133.231 265.795 133.489 265.795C133.747 265.795 133.956 266.006 133.956 266.266Z" fill="white"/>
<path d="M148.899 266.736C148.899 267.646 148.167 268.383 147.264 268.383C146.361 268.383 145.629 267.646 145.629 266.736C145.629 265.826 146.361 265.089 147.264 265.089C148.167 265.089 148.899 265.826 148.899 266.736Z" fill="black"/>
<path d="M148.198 266.266C148.198 266.526 147.989 266.736 147.731 266.736C147.473 266.736 147.264 266.526 147.264 266.266C147.264 266.006 147.473 265.795 147.731 265.795C147.989 265.795 148.198 266.006 148.198 266.266Z" fill="white"/>
<path fill-rule="evenodd" clip-rule="evenodd" d="M138.097 282.652C136.897 283.19 135.346 283.187 133.921 282.612L134.007 282.394C135.383 282.949 136.868 282.946 138.002 282.437C139.131 281.93 139.918 280.923 139.918 279.444H140.151C140.151 280.925 140.91 281.885 141.951 282.367C142.999 282.852 144.337 282.854 145.477 282.394L145.564 282.612C144.37 283.094 142.965 283.095 141.853 282.581C140.983 282.178 140.295 281.459 140.033 280.416C139.76 281.476 139.037 282.23 138.097 282.652Z" fill="black"/>
<path fill-rule="evenodd" clip-rule="evenodd" d="M126.186 255.009C127.335 254.486 128.572 254.165 129.532 254.103C129.887 254.081 130.328 254.233 130.788 254.532C131.246 254.831 131.712 255.268 132.113 255.794C132.916 256.849 133.445 258.24 133.163 259.568L133.392 259.617C133.693 258.198 133.126 256.737 132.298 255.65C131.883 255.105 131.398 254.649 130.915 254.335C130.435 254.022 129.943 253.841 129.517 253.868C128.525 253.932 127.26 254.262 126.09 254.794C124.922 255.325 123.833 256.063 123.207 256.953C122.962 257.303 122.886 257.811 122.921 258.365C122.957 258.923 123.106 259.547 123.333 260.144C123.559 260.741 123.864 261.317 124.215 261.778C124.564 262.238 124.968 262.596 125.393 262.738L125.467 262.514C125.105 262.394 124.737 262.078 124.401 261.635C124.066 261.195 123.771 260.64 123.551 260.06C123.331 259.48 123.188 258.88 123.154 258.35C123.12 257.817 123.198 257.374 123.398 257.089C123.989 256.248 125.035 255.532 126.186 255.009Z" fill="black"/>
<path fill-rule="evenodd" clip-rule="evenodd" d="M130.085 330.625C124.763 329.342 117.911 331.555 109.743 336.494L109.623 336.292C117.798 331.348 124.721 329.09 130.139 330.396C135.573 331.705 139.444 336.585 141.549 345.78C143.238 353.157 141.321 362.322 138.253 370.768C135.303 378.887 131.283 386.36 128.345 390.974C131.342 388.781 133.9 387.898 135.945 387.827C138.108 387.752 139.692 388.59 140.593 389.74C141.049 390.322 141.355 391.115 141.54 391.997C141.725 392.88 141.791 393.86 141.76 394.823C141.73 395.785 141.604 396.733 141.404 397.554C141.205 398.371 140.929 399.071 140.595 399.531L140.407 399.392C140.715 398.968 140.981 398.302 141.177 397.497C141.373 396.695 141.497 395.763 141.527 394.815C141.557 393.868 141.492 392.907 141.311 392.046C141.13 391.183 140.835 390.429 140.41 389.886C139.559 388.8 138.05 387.99 135.953 388.062C133.854 388.135 131.162 389.092 127.965 391.553L127.796 391.395C130.749 386.852 134.971 379.118 138.034 370.687C141.098 362.252 142.994 353.141 141.321 345.833C139.224 336.673 135.39 331.903 130.085 330.625Z" fill="black"/>
<path fill-rule="evenodd" clip-rule="evenodd" d="M155.273 330.625C160.594 329.342 167.446 331.555 175.614 336.494L175.734 336.292C167.559 331.348 160.636 329.09 155.218 330.396C149.785 331.705 145.914 336.585 143.808 345.78C142.119 353.157 144.036 362.322 147.104 370.768C150.08 378.959 154.146 386.493 157.09 391.097C154.728 389.702 152.163 388.734 149.82 388.343C147.337 387.93 145.082 388.161 143.585 389.247C142.978 389.687 142.563 390.45 142.284 391.352C142.004 392.257 141.856 393.318 141.796 394.376C141.675 396.489 141.902 398.613 142.14 399.492L142.365 399.43C142.136 398.583 141.909 396.486 142.029 394.389C142.088 393.343 142.234 392.302 142.506 391.422C142.779 390.54 143.175 389.835 143.722 389.437C145.144 388.405 147.324 388.166 149.782 388.576C152.236 388.985 154.944 390.037 157.402 391.56L157.561 391.395C154.608 386.852 150.386 379.118 147.324 370.687C144.259 362.252 142.363 353.141 144.036 345.833C146.133 336.673 149.967 331.903 155.273 330.625Z" fill="black"/>
<path fill-rule="evenodd" clip-rule="evenodd" d="M120.119 307.339C116.44 310.741 113.025 314.972 111.182 317.866L110.986 317.739C112.84 314.828 116.268 310.581 119.961 307.165C121.808 305.457 123.724 303.954 125.546 302.929C127.365 301.906 129.106 301.351 130.595 301.566C135.142 302.22 138.092 305.406 139.328 309.294C140.564 313.179 140.094 317.776 137.797 321.279C134.141 326.854 129.935 329.315 128.634 329.911L128.537 329.697C129.804 329.116 133.974 326.682 137.602 321.15C139.858 317.71 140.322 313.188 139.106 309.366C137.891 305.547 135.004 302.438 130.562 301.799C129.148 301.595 127.463 302.12 125.66 303.135C123.859 304.147 121.958 305.637 120.119 307.339Z" fill="black"/>
<path fill-rule="evenodd" clip-rule="evenodd" d="M160.026 307.339C163.705 310.741 167.12 314.972 168.963 317.866L169.159 317.739C167.305 314.828 163.877 310.581 160.184 307.165C158.337 305.457 156.421 303.954 154.599 302.929C152.78 301.906 151.039 301.351 149.55 301.566C145.003 302.22 142.053 305.406 140.817 309.294C139.581 313.179 140.051 317.776 142.348 321.279C144.177 324.068 146.411 326.312 148.349 327.932C150.285 329.551 151.93 330.552 152.584 330.852L152.681 330.638C152.052 330.35 150.424 329.362 148.498 327.751C146.573 326.142 144.356 323.914 142.543 321.15C140.287 317.71 139.823 313.188 141.039 309.366C142.254 305.547 145.141 302.438 149.583 301.799C150.997 301.595 152.682 302.12 154.486 303.135C156.286 304.147 158.187 305.637 160.026 307.339Z" fill="black"/>
<path d="M143.075 288.739H137.622C136.967 288.739 136.359 289.086 136.021 289.652L132.571 295.439C132.241 295.991 132.215 296.674 132.501 297.251L135.466 303.23C135.782 303.868 136.429 304.271 137.136 304.271H143.05C143.739 304.271 144.372 303.889 144.697 303.276L147.903 297.234C148.203 296.668 148.197 295.987 147.885 295.426L144.704 289.702C144.374 289.107 143.751 288.739 143.075 288.739Z" fill="url(#paint2_linear)"/>
<path fill-rule="evenodd" clip-rule="evenodd" d="M135.921 289.591C136.279 288.99 136.925 288.622 137.621 288.622H143.074C143.792 288.622 144.455 289.013 144.806 289.644L147.987 295.369C148.317 295.964 148.324 296.688 148.005 297.29L144.8 303.332C144.454 303.982 143.782 304.389 143.05 304.389H137.136C136.384 304.389 135.697 303.96 135.361 303.283L132.396 297.303C132.092 296.691 132.12 295.965 132.47 295.378L135.921 289.591ZM137.621 288.857C137.007 288.857 136.437 289.182 136.121 289.713L132.67 295.5C132.361 296.017 132.337 296.658 132.604 297.198L135.569 303.177C135.866 303.775 136.472 304.153 137.136 304.153H143.05C143.696 304.153 144.289 303.795 144.594 303.221L147.799 297.179C148.081 296.648 148.075 296.009 147.783 295.484L144.602 289.759C144.292 289.202 143.708 288.857 143.074 288.857H137.621Z" fill="white"/>
<path d="M141.9 291.233L138.738 293.676C138.633 293.758 138.519 293.828 138.399 293.885L134.944 295.528C133.994 295.98 133.6 297.133 134.074 298.079L136.069 302.06C136.386 302.695 137.031 303.094 137.736 303.094H142.491C143.177 303.094 143.808 302.715 144.134 302.107L146.727 297.269C147.032 296.699 147.026 296.011 146.709 295.447L144.662 291.8C144.103 290.805 142.801 290.537 141.9 291.233Z" fill="url(#paint3_linear)"/>
<path fill-rule="evenodd" clip-rule="evenodd" d="M144.357 291.973C143.903 291.165 142.845 290.947 142.113 291.513L138.951 293.956C138.826 294.053 138.691 294.136 138.548 294.204L135.094 295.847C134.321 296.214 134.002 297.151 134.387 297.919L136.381 301.901C136.639 302.416 137.163 302.741 137.736 302.741H142.49C143.048 302.741 143.561 302.433 143.826 301.938L146.419 297.101C146.667 296.637 146.661 296.078 146.404 295.62L144.357 291.973ZM141.687 290.952C142.756 290.126 144.303 290.444 144.967 291.626L147.014 295.273C147.39 295.942 147.398 296.759 147.035 297.436L144.442 302.274C144.055 302.997 143.305 303.447 142.49 303.447H137.736C136.899 303.447 136.133 302.972 135.756 302.219L133.761 298.238C133.199 297.114 133.666 295.745 134.795 295.208L138.249 293.565C138.347 293.519 138.439 293.462 138.525 293.396L141.687 290.952Z" fill="url(#paint4_linear)"/>
<path d="M144.533 303.565L133.677 293.681L134.727 291.798L145.817 301.211L144.533 303.565Z" fill="#F9F6F1" fill-opacity="0.4"/>
<path d="M146.284 300.27L135.195 291.092L135.428 290.622L146.518 299.799L146.284 300.27Z" fill="#F9F6F1" fill-opacity="0.4"/>
<path d="M148.035 296.27L138.929 288.739L144.066 288.975L148.035 295.681V296.27Z" fill="#F9F6F1" fill-opacity="0.4"/>
<path fill-rule="evenodd" clip-rule="evenodd" d="M156.265 304.301L154.981 299.477L155.206 299.416L156.491 304.24L156.265 304.301Z" fill="black"/>
<path fill-rule="evenodd" clip-rule="evenodd" d="M123.104 304.772L124.388 299.948L124.163 299.887L122.878 304.711L123.104 304.772Z" fill="black"/>
<path fill-rule="evenodd" clip-rule="evenodd" d="M153.97 256.203C152.874 255.576 151.672 255.139 150.722 254.988C150.371 254.932 149.918 255.042 149.432 255.298C148.948 255.552 148.445 255.943 147.997 256.429C147.1 257.404 146.445 258.74 146.603 260.088L146.371 260.116C146.202 258.675 146.901 257.273 147.826 256.269C148.289 255.765 148.814 255.357 149.324 255.089C149.831 254.822 150.337 254.689 150.759 254.756C151.741 254.912 152.97 255.36 154.085 255.999C155.199 256.637 156.215 257.475 156.756 258.419C156.969 258.79 156.997 259.304 156.911 259.852C156.824 260.405 156.618 261.011 156.337 261.585C156.056 262.158 155.699 262.703 155.307 263.129C154.917 263.554 154.483 263.872 154.046 263.974L153.994 263.745C154.365 263.658 154.76 263.379 155.136 262.969C155.51 262.562 155.855 262.037 156.128 261.48C156.4 260.923 156.598 260.339 156.68 259.815C156.763 259.287 156.727 258.839 156.554 258.537C156.043 257.644 155.067 256.832 153.97 256.203Z" fill="black"/>
<path d="M245.727 226.542L201.219 399.5H287.92V253.683V128.34V0L179.916 6.49188L199.733 43.9451L255.717 54.9313L245.727 226.542Z" fill="url(#paint5_linear)"/>
<path d="M250.63 218.364L263.867 206.73L281.763 217.667L280.638 235.591L260.923 247.699L249.15 236.938L250.63 218.364Z" fill="#2F1E3A"/>
<path d="M44.1667 319.6L65.9659 399.5H8.00004V253.683V128.34V0H73.8928L77.3608 39.9501L44.1667 73.9076V319.6Z" fill="url(#paint6_linear)"/>
<path d="M287.425 313.608L8.49561 64.919V32.959L287.425 261.673V313.608Z" fill="#FFEF9C" fill-opacity="0.14"/>
<path d="M287.425 168.789L66.9568 4.49465L82.8107 0.999023L287.425 146.817V168.789Z" fill="#FFEF9C" fill-opacity="0.14"/>
<path d="M287.425 78.9016L163.567 0.999023H178.43L287.425 56.9291V78.9016Z" fill="#FFEF9C" fill-opacity="0.14"/>
<path d="M221.037 400L8.49561 180.774V133.333L287.921 385.019V400H221.037Z" fill="#FFEF9C" fill-opacity="0.14"/>
<path d="M194.363 48.9388C245.393 48.9388 274.623 27.4657 288 14.9813V0H72.9814C97.9183 16.4794 143.333 48.9388 194.363 48.9388Z" fill="#43606C"/>
<path d="M102.628 48.9388C54.0753 51.4357 23.8538 41.9476 7.99992 32.9588V0H224.009C199.072 16.4794 151.18 46.4419 102.628 48.9388Z" fill="#43606C"/>
<path d="M247.345 327.934C274.187 345.625 290.281 390.131 291.854 401.144H289.18C272.692 392.232 242.993 371.12 225.588 356.552C200.503 335.554 195.968 315.447 192.036 304C199.288 304.607 220.503 310.244 247.345 327.934Z" fill="#43606C"/>
<path fill-rule="evenodd" clip-rule="evenodd" d="M264.825 385.161L286.214 393.627L285.908 394.401L264.519 385.934L264.825 385.161Z" fill="#173E4F"/>
<path fill-rule="evenodd" clip-rule="evenodd" d="M245.2 370.449L276.393 381.143L276.123 381.93L244.93 371.236L245.2 370.449Z" fill="#173E4F"/>
<path fill-rule="evenodd" clip-rule="evenodd" d="M226.907 356.182L264.785 366.877L264.559 367.677L226.681 356.983L226.907 356.182Z" fill="#173E4F"/>
<path fill-rule="evenodd" clip-rule="evenodd" d="M209.975 339.695L252.308 351.726L252.081 352.527L209.747 340.495L209.975 339.695Z" fill="#173E4F"/>
<path fill-rule="evenodd" clip-rule="evenodd" d="M201.957 326.327L236.715 336.576L236.48 337.374L201.722 327.125L201.957 326.327Z" fill="#173E4F"/>
<path fill-rule="evenodd" clip-rule="evenodd" d="M195.293 313.411L220.693 322.323L220.418 323.108L195.018 314.196L195.293 313.411Z" fill="#173E4F"/>
<path fill-rule="evenodd" clip-rule="evenodd" d="M274.506 360.628L276.288 382.017L277.117 381.948L275.335 360.559L274.506 360.628Z" fill="#173E4F"/>
<path fill-rule="evenodd" clip-rule="evenodd" d="M263.81 344.997V366.832H264.642V344.997H263.81Z" fill="#173E4F"/>
<path fill-rule="evenodd" clip-rule="evenodd" d="M251.334 331.655L252.67 352.598L253.5 352.545L252.164 331.602L251.334 331.655Z" fill="#173E4F"/>
<path fill-rule="evenodd" clip-rule="evenodd" d="M236.184 321.86L237.521 337.457L238.35 337.386L237.013 321.789L236.184 321.86Z" fill="#173E4F"/>
<path fill-rule="evenodd" clip-rule="evenodd" d="M215.721 312.193L220.177 321.997L220.934 321.653L216.478 311.849L215.721 312.193Z" fill="#173E4F"/>
<path fill-rule="evenodd" clip-rule="evenodd" d="M284.31 381.133L285.647 394.502L286.475 394.419L285.138 381.05L284.31 381.133Z" fill="#173E4F"/>
<path fill-rule="evenodd" clip-rule="evenodd" d="M250.999 351.519C232.302 331.487 211.844 314.593 191.854 304.82L192.219 304.072C212.334 313.906 232.872 330.879 251.607 350.952C263.363 363.548 284.017 389.753 291.307 400.465L290.619 400.933C283.352 390.255 262.725 364.083 250.999 351.519Z" fill="#173E4F"/>
<path fill-rule="evenodd" clip-rule="evenodd" d="M28.083 316.845C28.6361 314.758 29.1736 312.731 29.6741 310.625L27.3849 310.081C26.8958 312.139 26.3659 314.137 25.8172 316.206C23.7451 324.018 21.407 332.833 20.0041 349.667C18.745 364.776 19.2259 377.509 19.6435 388.564C19.813 393.052 19.9721 397.262 20.0001 401.244L22.353 401.227C22.3241 397.132 22.1624 392.855 21.9912 388.328C21.5748 377.316 21.1023 364.822 22.3489 349.863C23.7334 333.249 26.017 324.636 28.083 316.845Z" fill="#43606C"/>
<path fill-rule="evenodd" clip-rule="evenodd" d="M10.2017 329.602C10.2016 329.602 10.2015 329.602 9.11762 330.059C8.03372 330.516 8.03366 330.516 8.03361 330.516L8.03389 330.517L8.03572 330.521L8.0443 330.542C8.05218 330.561 8.06434 330.59 8.0806 330.63C8.11312 330.71 8.16201 330.831 8.2257 330.993C8.35308 331.316 8.53967 331.802 8.77294 332.442C9.23949 333.723 9.89269 335.623 10.6324 338.082C12.112 343 13.9371 350.152 15.3078 359.061C15.5737 360.79 15.8309 362.448 16.0788 364.046C18.4087 379.065 19.9122 388.756 20.0001 401.244L22.353 401.227C22.2638 388.558 20.7333 378.695 18.4076 363.708C18.1584 362.102 17.9 360.437 17.6334 358.704C16.2439 349.672 14.3924 342.412 12.8856 337.404C12.1321 334.899 11.4646 332.957 10.9838 331.637C10.7434 330.977 10.5496 330.472 10.415 330.131C10.3477 329.96 10.2952 329.83 10.2591 329.741C10.2411 329.697 10.2271 329.663 10.2175 329.64L10.2062 329.613L10.203 329.605L10.2017 329.602Z" fill="#43606C"/>
<path fill-rule="evenodd" clip-rule="evenodd" d="M35.4543 343.545L34.4117 343C33.3691 342.455 33.369 342.455 33.3689 342.455L33.3635 342.466L33.3482 342.495C33.3348 342.521 33.3151 342.559 33.2895 342.608C33.2382 342.708 33.163 342.854 33.0666 343.044C32.8737 343.423 32.5956 343.976 32.253 344.673C31.568 346.066 30.6243 348.037 29.5881 350.35C27.5203 354.965 25.0646 360.987 23.5701 366.516C20.5892 377.546 19.9017 387.274 20.0001 401.243L22.353 401.227C22.2553 387.353 22.9401 377.866 25.8416 367.13C27.2882 361.778 29.6854 355.887 31.7354 351.312C32.7579 349.029 33.6893 347.084 34.3645 345.711C34.7021 345.024 34.9755 344.481 35.164 344.11C35.2583 343.925 35.3313 343.783 35.3806 343.687C35.4052 343.639 35.4239 343.603 35.4363 343.579L35.4501 343.553L35.4543 343.545Z" fill="#43606C"/>
<ellipse rx="5.29412" ry="5.58824" transform="matrix(-1 0 0 1 34.7059 343.294)" fill="#FD39A1"/>
<circle r="2.64706" transform="matrix(-1 0 0 1 34.4118 343.294)" fill="#99155B"/>
<ellipse rx="7.94118" ry="8.23529" transform="matrix(-1 0 0 1 7.94115 324.765)" fill="#FD39A1"/>
<circle r="4.11765" transform="matrix(-1 0 0 1 7.647 324.765)" fill="#99155B"/>
<ellipse rx="10" ry="10.2941" transform="matrix(-1 0 0 1 30 303.294)" fill="#FD39A1"/>
<circle r="5" transform="matrix(-1 0 0 1 29.7058 303.294)" fill="#99155B"/>
<path d="M50.7058 355.361C34.6008 365.975 24.9441 392.678 24.0004 399.286H25.6046C35.4973 393.939 53.3166 381.272 63.7596 372.531C78.8109 359.932 81.5317 347.868 83.8909 341C79.5396 341.364 66.8108 344.746 50.7058 355.361Z" fill="#43606C"/>
<path fill-rule="evenodd" clip-rule="evenodd" d="M40.2177 389.696L27.384 394.776L27.5677 395.24L40.4014 390.16L40.2177 389.696Z" fill="#173E4F"/>
<path fill-rule="evenodd" clip-rule="evenodd" d="M51.9922 380.869L33.2764 387.286L33.4383 387.758L52.1541 381.341L51.9922 380.869Z" fill="#173E4F"/>
<path fill-rule="evenodd" clip-rule="evenodd" d="M62.9674 372.309L40.2411 378.726L40.3767 379.206L63.103 372.789L62.9674 372.309Z" fill="#173E4F"/>
<path fill-rule="evenodd" clip-rule="evenodd" d="M73.1272 362.417L47.7273 369.635L47.8637 370.116L73.2637 362.897L73.1272 362.417Z" fill="#173E4F"/>
<path fill-rule="evenodd" clip-rule="evenodd" d="M77.9379 354.396L57.0832 360.546L57.2244 361.025L78.0791 354.875L77.9379 354.396Z" fill="#173E4F"/>
<path fill-rule="evenodd" clip-rule="evenodd" d="M81.9366 346.646L66.6966 351.994L66.8618 352.465L82.1018 347.117L81.9366 346.646Z" fill="#173E4F"/>
<path fill-rule="evenodd" clip-rule="evenodd" d="M34.4089 374.977L33.3394 387.81L32.842 387.769L33.9115 374.935L34.4089 374.977Z" fill="#173E4F"/>
<path fill-rule="evenodd" clip-rule="evenodd" d="M40.8267 365.598V378.699H40.3276V365.598H40.8267Z" fill="#173E4F"/>
<path fill-rule="evenodd" clip-rule="evenodd" d="M48.3117 357.593L47.5095 370.159L47.0115 370.127L47.8136 357.561L48.3117 357.593Z" fill="#173E4F"/>
<path fill-rule="evenodd" clip-rule="evenodd" d="M57.4017 351.716L56.5996 361.074L56.1023 361.031L56.9044 351.673L57.4017 351.716Z" fill="#173E4F"/>
<path fill-rule="evenodd" clip-rule="evenodd" d="M69.6803 345.916L67.0066 351.798L66.5522 351.592L69.2259 345.709L69.6803 345.916Z" fill="#173E4F"/>
<path fill-rule="evenodd" clip-rule="evenodd" d="M28.526 387.28L27.7239 395.301L27.2273 395.251L28.0294 387.23L28.526 387.28Z" fill="#173E4F"/>
<path fill-rule="evenodd" clip-rule="evenodd" d="M48.5129 369.512C59.7309 357.492 72.0059 347.356 84 341.492L83.7808 341.043C71.7118 346.944 59.3889 357.127 48.148 369.171C41.0943 376.729 28.7024 392.452 24.3284 398.879L24.741 399.16C29.1011 392.753 41.4772 377.05 48.5129 369.512Z" fill="#173E4F"/>
<path fill-rule="evenodd" clip-rule="evenodd" d="M268.917 302.845C268.364 300.758 267.826 298.731 267.326 296.625L269.615 296.081C270.104 298.139 270.634 300.137 271.183 302.206C273.255 310.018 275.593 318.833 276.996 335.667C278.255 350.776 277.774 363.509 277.356 374.564C277.187 379.052 277.028 383.262 277 387.244L274.647 387.227C274.676 383.132 274.838 378.855 275.009 374.328C275.425 363.316 275.898 350.822 274.651 335.863C273.267 319.249 270.983 310.636 268.917 302.845Z" fill="#43606C"/>
<path fill-rule="evenodd" clip-rule="evenodd" d="M286.798 315.602C286.798 315.602 286.798 315.602 287.882 316.059C288.966 316.516 288.966 316.516 288.966 316.516L288.966 316.517L288.964 316.521L288.956 316.542C288.948 316.561 288.936 316.59 288.919 316.63C288.887 316.71 288.838 316.831 288.774 316.993C288.647 317.316 288.46 317.802 288.227 318.442C287.761 319.723 287.107 321.623 286.368 324.082C284.888 329 283.063 336.152 281.692 345.061C281.426 346.79 281.169 348.448 280.921 350.046C278.591 365.065 277.088 374.756 277 387.244L274.647 387.227C274.736 374.558 276.267 364.695 278.592 349.708C278.842 348.102 279.1 346.437 279.367 344.704C280.756 335.672 282.608 328.412 284.114 323.404C284.868 320.899 285.535 318.957 286.016 317.637C286.257 316.977 286.45 316.472 286.585 316.131C286.652 315.96 286.705 315.83 286.741 315.741C286.759 315.697 286.773 315.663 286.783 315.64L286.794 315.613L286.797 315.605L286.798 315.602Z" fill="#43606C"/>
<path fill-rule="evenodd" clip-rule="evenodd" d="M261.546 329.545L262.588 329C263.631 328.455 263.631 328.455 263.631 328.455L263.637 328.466L263.652 328.495C263.665 328.521 263.685 328.559 263.711 328.608C263.762 328.708 263.837 328.854 263.933 329.044C264.126 329.423 264.404 329.976 264.747 330.673C265.432 332.066 266.376 334.037 267.412 336.35C269.48 340.965 271.935 346.987 273.43 352.516C276.411 363.546 277.098 373.274 277 387.243L274.647 387.227C274.745 373.353 274.06 363.866 271.158 353.13C269.712 347.778 267.315 341.887 265.265 337.312C264.242 335.029 263.311 333.084 262.635 331.711C262.298 331.024 262.025 330.481 261.836 330.11C261.742 329.925 261.669 329.783 261.619 329.687C261.595 329.639 261.576 329.603 261.564 329.579L261.55 329.553L261.546 329.545Z" fill="#43606C"/>
<ellipse cx="262.294" cy="329.294" rx="5.29412" ry="5.58824" fill="#FD39A1"/>
<circle cx="262.588" cy="329.294" r="2.64706" fill="#99155B"/>
<ellipse cx="289.059" cy="310.765" rx="7.94118" ry="8.23529" fill="#FD39A1"/>
<circle cx="289.353" cy="310.765" r="4.11765" fill="#99155B"/>
<ellipse cx="267" cy="289.294" rx="10" ry="10.2941" fill="#FD39A1"/>
<circle cx="267.294" cy="289.294" r="5" fill="#99155B"/>
<path d="M60 338.534L47.6471 401.789H39.4118H30.5882H0V380.802L7.35294 400.04L13.5294 354.567L18.2353 400.04L28.8235 326L30.5882 401.789L44.4118 332.996L39.4118 401.789L60 338.534Z" fill="#59787D"/>
<path d="M237 338.534L249.353 401.789H257.588H266.412H297V380.802L289.647 400.04L283.471 354.567L278.765 400.04L268.176 326L266.412 401.789L252.588 332.996L257.588 401.789L237 338.534Z" fill="#59787D"/>
<path d="M84.9213 391.201L90 401.797H30V371.541L46.4173 397.676L42.2835 354L62.2441 397.676L55.748 356.119L69.5669 397.676L65.0787 358.944L77.4803 397.676L76.6535 370.717L84.9213 399.56V391.201Z" fill="#80886F"/>
<path d="M210.079 391.201L205 401.797H265V371.541L248.583 397.676L252.717 354L232.756 397.676L239.252 356.119L225.433 397.676L229.921 358.944L217.52 397.676L218.346 370.717L210.079 399.56V391.201Z" fill="#80886F"/>
<defs>
<linearGradient id="paint0_linear" x1="143.743" y1="259.433" x2="143.743" y2="399.461" gradientUnits="userSpaceOnUse">
<stop stop-color="#B57A29"/>
<stop offset="0.586458" stop-color="#804E0A"/>
<stop offset="1" stop-color="#7D260A"/>
</linearGradient>
<linearGradient id="paint1_linear" x1="140.228" y1="277.425" x2="140.228" y2="285.989" gradientUnits="userSpaceOnUse">
<stop stop-color="#FDB646"/>
<stop offset="1" stop-color="#FAA929"/>
</linearGradient>
<linearGradient id="paint2_linear" x1="138.112" y1="288.739" x2="140.246" y2="301.677" gradientUnits="userSpaceOnUse">
<stop stop-color="white"/>
<stop offset="0.0001" stop-color="#DCE9EB" stop-opacity="0.88"/>
<stop offset="1" stop-color="#C4D2D3" stop-opacity="0.73"/>
</linearGradient>
<linearGradient id="paint3_linear" x1="141.498" y1="289.092" x2="140.193" y2="303.093" gradientUnits="userSpaceOnUse">
<stop offset="0.383333" stop-color="#FEBF5A"/>
<stop offset="1" stop-color="#E67315"/>
</linearGradient>
<linearGradient id="paint4_linear" x1="140.213" y1="289.916" x2="140.213" y2="303.094" gradientUnits="userSpaceOnUse">
<stop stop-color="#FFEEB0"/>
<stop offset="1" stop-color="#FFD12D"/>
</linearGradient>
<linearGradient id="paint5_linear" x1="199.104" y1="-48.9197" x2="330.525" y2="409.866" gradientUnits="userSpaceOnUse">
<stop stop-color="#6E3154"/>
<stop offset="0.992286" stop-color="#302E5C"/>
</linearGradient>
<linearGradient id="paint6_linear" x1="96.8165" y1="-48.9197" x2="-34.6046" y2="409.866" gradientUnits="userSpaceOnUse">
<stop stop-color="#6E3154"/>
<stop offset="0.992286" stop-color="#302E5C"/>
</linearGradient>
</defs>
</svg>
