<svg width="508" height="600" viewBox="0 0 508 600" fill="none" xmlns="http://www.w3.org/2000/svg">
<rect x="9" width="480" height="599.874" fill="url(#paint0_radial)"/>
<path d="M375 37.9922L397 599.874H309.615L296 37.9922H375Z" fill="#3B40B0"/>
<path d="M340.017 292.923L304.047 308.657L300.823 428.53L296.783 599.848H474V502.271V428.53L340.017 292.923Z" fill="#1C0E4D"/>
<path d="M307.78 300.773C311.046 301.548 312.919 308.029 312.919 308.029L305.263 315.517C305.263 315.517 299.396 313.285 298.79 310.424C298.183 307.562 298.495 305.502 300.681 303.65C302.866 301.797 304.514 299.998 307.78 300.773Z" fill="#1C0E4C"/>
<path d="M333.533 318.807L340.9 321.78L322.04 328.832L324.567 322.583L333.533 318.807Z" fill="#301D70"/>
<path d="M331.718 291.631C330.352 293.994 333.291 300.823 333.291 300.823L342.957 300.298C342.957 300.298 344.514 293.206 343.632 291.631C342.749 290.055 341.816 288.479 338.012 288.216C334.207 287.954 333.083 289.267 331.718 291.631Z" fill="#1C0E4C"/>
<ellipse cx="315.673" cy="318.994" rx="1.56829" ry="2.37048" fill="#00F3F3"/>
<ellipse cx="336.845" cy="310.303" rx="2.35244" ry="1.58032" fill="#00F3F3"/>
<path d="M149.892 40.9912L100 597.874H157.123L194 40.9912H149.892Z" fill="#3B40B0"/>
<path d="M489 511L9 158.5V140.5L489 485V511Z" fill="#9CE7FF" fill-opacity="0.14"/>
<path d="M489 379.265L9 14.9974V2.5L489 344.928V379.265Z" fill="#9CE7FF" fill-opacity="0.14"/>
<path d="M91.3158 64.9863L60 599.874H96.8421L130 64.9863H91.3158Z" fill="#776CF2"/>
<path d="M110.291 312.665L59.5455 416.263L48 600H245.133L186.125 396.287L144.415 313.826L110.291 312.665Z" fill="#1C0E4C"/>
<path d="M125.278 336.358L119.514 341.004L138.189 342.165L134.27 337.287L125.278 336.358Z" fill="#301D70"/>
<path d="M137.728 308.253L135.192 318.706L141.878 323.119L151.793 313.595L146.72 306.395L137.728 308.253Z" fill="#1C0E4C"/>
<path d="M116.517 307.322L119.053 317.775L112.366 322.188L102.452 312.665L107.525 305.464L116.517 307.322Z" fill="#1C0E4C"/>
<ellipse rx="1.84646" ry="1.85673" transform="matrix(0.928057 0.372438 -0.367692 0.929948 117.453 330.393)" fill="#00F3F3"/>
<ellipse rx="1.84646" ry="1.85673" transform="matrix(0.928057 0.372438 -0.367692 0.929948 138.176 330.708)" fill="#00F3F3"/>
<path d="M399.761 63.9868L375 599.874H415.783L442 63.9868H399.761Z" fill="#776CF2"/>
<path d="M188.506 445.513C186.376 466.362 159.212 570.472 138.572 599.874H346.595C322.627 528.373 293 404.706 293 355.925C293 332.252 298.78 36.5095 301 7.99817L250.77 7.9982L193 7.99805C191.003 61.0112 190.637 424.664 188.506 445.513Z" fill="#5D418A"/>
<path fill-rule="evenodd" clip-rule="evenodd" d="M213.186 367.855C211.639 368.668 210.472 369.624 209.785 370.722C208.386 372.957 207.862 375.564 207.297 379.208C207.221 379.7 207.144 380.209 207.065 380.739C206.553 384.131 205.918 388.339 204.557 393.76C201.41 406.295 194.381 425.304 176.015 455.78C157.673 486.214 147.631 522.19 143.567 550.558C141.535 564.742 140.998 577.016 141.663 585.738C141.995 590.101 142.627 593.563 143.516 595.928C143.961 597.111 144.465 598.007 145.018 598.604C145.569 599.198 146.159 599.489 146.787 599.489H340.563C340.561 599.47 340.559 599.451 340.557 599.43C340.537 599.246 340.507 598.972 340.465 598.612C340.383 597.893 340.257 596.83 340.084 595.458C339.737 592.714 339.199 588.733 338.437 583.787C336.913 573.894 334.49 560.138 330.896 544.69C323.706 513.787 311.834 476.133 293.104 449.064C274.344 421.952 266.725 404.525 263.134 392.83C261.482 387.451 260.684 383.286 260.046 379.96C259.99 379.67 259.936 379.387 259.883 379.111C259.213 375.642 258.665 373.159 257.364 371.119C256.727 370.121 255.603 369.213 254.09 368.411C252.58 367.611 250.696 366.923 248.557 366.357C244.281 365.224 239.008 364.582 233.718 364.484C228.428 364.385 223.131 364.829 218.807 365.863C216.645 366.38 214.732 367.043 213.186 367.855ZM340.782 599.687C340.977 599.666 340.977 599.666 340.977 599.665L340.977 599.662L340.97 599.596C340.965 599.549 340.957 599.479 340.947 599.387C340.927 599.202 340.897 598.927 340.856 598.567C340.773 597.846 340.647 596.782 340.473 595.408C340.126 592.661 339.588 588.677 338.825 583.726C337.3 573.825 334.875 560.06 331.278 544.599C324.086 513.685 312.2 475.971 293.426 448.838C274.683 421.749 267.085 404.36 263.509 392.713C261.864 387.355 261.069 383.209 260.431 379.884C260.376 379.595 260.322 379.312 260.268 379.035C259.601 375.58 259.043 373.019 257.694 370.905C257.006 369.826 255.816 368.879 254.273 368.061C252.728 367.242 250.814 366.545 248.657 365.974C244.343 364.832 239.038 364.187 233.725 364.088C228.412 363.989 223.081 364.435 218.717 365.478C216.534 366 214.588 366.672 213.005 367.504C211.423 368.336 210.19 369.333 209.453 370.511C208.005 372.825 207.474 375.509 206.909 379.147C206.833 379.64 206.756 380.151 206.676 380.681C206.165 384.072 205.533 388.262 204.176 393.663C201.041 406.151 194.031 425.123 175.679 455.574C157.303 486.067 147.248 522.096 143.178 550.501C141.143 564.704 140.603 577.008 141.271 585.768C141.605 590.146 142.241 593.651 143.149 596.068C143.603 597.276 144.13 598.224 144.731 598.874C145.335 599.526 146.023 599.885 146.787 599.885H341L340.977 599.666L340.782 599.687Z" fill="black"/>
<path d="M252.761 356.602C250.16 356.189 245.053 360.707 245.602 365.394C246.305 366.08 248.38 367.927 251.05 369.826C253.721 371.725 256.98 371.87 258.275 371.705C260.994 371.073 264.007 364.921 262.711 362.661C260.941 359.572 256.012 357.118 252.761 356.602Z" fill="#B57A29"/>
<path d="M252.802 360.725C250.917 361.041 248.417 364.352 248.286 365.868C249.699 365.868 254.765 368.638 257.121 370.022C257.841 369.297 258.967 367.688 259.281 365.472C259.674 362.703 255.158 360.329 252.802 360.725Z" fill="#FBAB7E"/>
<path d="M216.244 355.005C219.495 354.488 223.908 360.195 223.358 364.883C222.655 365.57 220.62 366.333 217.95 368.234C215.281 370.135 212.023 370.281 210.728 370.116C208.01 369.485 205 363.331 206.296 361.069C208.067 357.979 212.994 355.522 216.244 355.005Z" fill="#B57A29"/>
<path d="M217.458 359.934C219.343 360.25 220.469 364.154 220.6 365.671C219.186 365.671 214.928 367.099 212.572 368.484C211.852 367.758 211.489 365.314 211.175 363.099C210.783 360.329 215.102 359.538 217.458 359.934Z" fill="#FBAB7E"/>
<path d="M209.621 370.616C203.926 379.716 212.566 394.75 175.848 455.677C139.13 516.604 135.654 599.687 146.788 599.687H340.783C340.783 599.687 330.77 503.153 293.266 448.951C255.763 394.75 262.832 379.32 257.53 371.012C252.229 362.703 215.315 361.516 209.621 370.616Z" fill="url(#paint1_linear)"/>
<path d="M239.98 445.259C238.541 445.714 237.322 446.01 238.402 443.226C238.665 442.548 239.901 440.638 242.741 438.421C245.581 436.203 248.921 435.525 250.236 435.464C254.787 434.546 255.698 438.421 250.236 437.756C247.307 437.4 251.692 439.541 249.326 441.425C246.959 443.308 245.684 440.507 243.409 441.932C241.089 443.384 243.409 444.176 239.98 445.259Z" fill="#FBAB2E"/>
<path d="M230.664 446.469C231.575 449.678 233.552 448.303 232.485 445.551C232.222 444.874 230.452 441.494 227.691 439.338C224.851 437.12 222.897 436.373 221.106 435.922C217.465 435.005 219.65 437.831 223.382 438.673C224.776 438.988 222.017 440.966 223.837 442.8C226.113 445.093 227.337 442.753 228.844 443.259C230.209 443.717 230.146 444.642 230.664 446.469Z" fill="#FBAB2E"/>
<path fill-rule="evenodd" clip-rule="evenodd" d="M303.934 493.031C300.658 494.013 296.142 493.353 291.417 491.668L291.549 491.295C296.249 492.972 300.667 493.598 303.822 492.652C305.392 492.181 306.644 491.322 307.47 490.012C308.298 488.7 308.711 486.915 308.566 484.57L308.958 484.545C309.107 486.948 308.686 488.822 307.802 490.224C306.916 491.628 305.578 492.538 303.934 493.031Z" fill="black"/>
<path fill-rule="evenodd" clip-rule="evenodd" d="M177.626 495.285C180.717 494.876 184.086 493.641 187.352 491.651L187.149 491.312C183.921 493.279 180.603 494.492 177.575 494.893C174.544 495.294 171.817 494.88 169.754 493.612C167.697 492.349 166.278 490.222 165.879 487.144C165.48 484.059 166.106 480.016 168.161 474.94L167.797 474.791C165.728 479.902 165.078 484.018 165.49 487.196C165.902 490.38 167.381 492.618 169.549 493.95C171.711 495.279 174.536 495.694 177.626 495.285Z" fill="black"/>
<path d="M223.349 401.475C224.316 399.497 225.021 397.914 226.883 397.914C229.436 397.914 230.432 395.739 232.396 397.123C234.359 398.508 236.486 398.209 237.486 396.529C239.254 393.562 242.592 394.156 243.377 396.529C244.162 398.903 246.657 396.964 248.693 400.684C250.642 404.244 249.071 406.42 246.126 406.42C243.181 406.42 241.933 405.573 239.254 407.607C236.127 409.981 234.752 408.596 232.396 407.607C230.04 406.618 228.13 405.878 225.705 406.42C223.938 406.816 220.6 405.684 220.6 404.244C220.6 402.805 222.116 403.997 223.349 401.475Z" fill="url(#paint2_linear)"/>
<path fill-rule="evenodd" clip-rule="evenodd" d="M240.825 394.132C242.132 394.216 243.304 395.059 243.75 396.404C243.916 396.908 244.157 397.151 244.443 397.311C244.702 397.456 244.996 397.536 245.372 397.638C245.467 397.664 245.567 397.691 245.673 397.721C246.177 397.864 246.754 398.06 247.341 398.476C247.928 398.894 248.504 399.519 249.037 400.493C250.042 402.329 250.198 403.915 249.592 405.072C248.983 406.237 247.684 406.816 246.126 406.816C245.38 406.816 244.741 406.763 244.173 406.716L244.154 406.714C243.576 406.666 243.085 406.626 242.606 406.646C241.682 406.685 240.775 406.948 239.49 407.923C237.87 409.153 236.638 409.455 235.471 409.259C234.906 409.163 234.378 408.955 233.86 408.719C233.66 408.628 233.465 408.535 233.269 408.441C232.942 408.284 232.612 408.126 232.245 407.972C229.884 406.981 228.081 406.294 225.791 406.807C224.806 407.027 223.447 406.82 222.348 406.389C221.793 406.172 221.276 405.887 220.89 405.544C220.508 405.206 220.208 404.766 220.208 404.245C220.208 403.806 220.328 403.478 220.611 403.25C220.736 403.15 220.874 403.084 220.998 403.034C221.075 403.003 221.166 402.97 221.251 402.94C221.295 402.924 221.338 402.909 221.377 402.894C221.624 402.803 221.882 402.69 222.148 402.466C222.414 402.241 222.709 401.89 222.997 401.3C223.032 401.228 223.068 401.155 223.103 401.083C223.538 400.191 223.954 399.337 224.478 398.7C225.068 397.985 225.813 397.519 226.883 397.519C227.862 397.519 228.573 397.177 229.282 396.836C229.421 396.769 229.559 396.703 229.699 396.639C230.116 396.449 230.565 396.278 231.056 396.267C231.562 396.256 232.073 396.413 232.621 396.799C233.539 397.446 234.466 397.68 235.255 397.583C236.037 397.486 236.712 397.061 237.15 396.326C238.1 394.731 239.508 394.047 240.825 394.132ZM240.775 394.922C239.785 394.858 238.64 395.361 237.823 396.733C237.261 397.677 236.372 398.242 235.35 398.368C234.335 398.494 233.217 398.185 232.171 397.447C231.737 397.142 231.387 397.051 231.074 397.058C230.747 397.066 230.419 397.18 230.023 397.36C229.904 397.414 229.781 397.474 229.652 397.536C228.941 397.881 228.055 398.31 226.883 398.31C226.091 398.31 225.553 398.635 225.083 399.206C224.621 399.766 224.245 400.537 223.794 401.461C223.763 401.523 223.733 401.586 223.701 401.65C223.373 402.322 223.015 402.767 222.651 403.073C222.286 403.38 221.933 403.532 221.648 403.637C221.587 403.66 221.535 403.678 221.488 403.695C221.416 403.72 221.355 403.742 221.291 403.768C221.195 403.807 221.138 403.838 221.102 403.868C221.061 403.9 220.993 403.963 220.993 404.245C220.993 404.443 221.109 404.685 221.409 404.951C221.704 405.213 222.131 405.456 222.632 405.652C223.644 406.048 224.838 406.209 225.62 406.034C228.179 405.462 230.196 406.255 232.547 407.242C232.927 407.401 233.294 407.577 233.636 407.74C233.827 407.831 234.011 407.919 234.184 407.998C234.684 408.225 235.137 408.4 235.6 408.478C236.492 408.628 237.511 408.435 239.017 407.291C240.412 406.233 241.469 405.902 242.574 405.856C243.11 405.833 243.65 405.878 244.219 405.925L244.23 405.926C244.8 405.974 245.412 406.025 246.126 406.025C247.513 406.025 248.472 405.516 248.897 404.703C249.327 403.882 249.293 402.599 248.349 400.875C247.865 399.99 247.365 399.462 246.888 399.123C246.409 398.783 245.932 398.617 245.46 398.483C245.378 398.46 245.294 398.437 245.209 398.414C244.824 398.31 244.413 398.199 244.062 398.003C243.597 397.743 243.231 397.338 243.004 396.655C242.664 395.626 241.775 394.986 240.775 394.922Z" fill="#FFD12D"/>
<path d="M245.356 388.023H224.542L231.51 396.447C233.023 398.276 235.785 398.354 237.398 396.614L245.356 388.023Z" fill="black"/>
<path d="M224.346 387.826C225.851 383.935 228.076 374.77 234.163 374.77C241.232 374.77 244.112 383.54 245.159 387.826H224.346Z" fill="#C68731"/>
<path d="M225.312 376.551C225.312 378.08 224.082 379.32 222.563 379.32C221.045 379.32 219.814 378.08 219.814 376.551C219.814 375.021 221.045 373.781 222.563 373.781C224.082 373.781 225.312 375.021 225.312 376.551Z" fill="black"/>
<path d="M224.528 375.759C224.528 376.196 224.176 376.551 223.742 376.551C223.309 376.551 222.957 376.196 222.957 375.759C222.957 375.322 223.309 374.968 223.742 374.968C224.176 374.968 224.528 375.322 224.528 375.759Z" fill="white"/>
<path d="M249.661 376.551C249.661 378.08 248.43 379.32 246.912 379.32C245.394 379.32 244.163 378.08 244.163 376.551C244.163 375.021 245.394 373.781 246.912 373.781C248.43 373.781 249.661 375.021 249.661 376.551Z" fill="black"/>
<path d="M248.483 375.759C248.483 376.196 248.131 376.551 247.698 376.551C247.264 376.551 246.912 376.196 246.912 375.759C246.912 375.322 247.264 374.968 247.698 374.968C248.131 374.968 248.483 375.322 248.483 375.759Z" fill="white"/>
<path fill-rule="evenodd" clip-rule="evenodd" d="M231.494 403.308C229.476 404.213 226.868 404.208 224.469 403.241L224.615 402.874C226.929 403.807 229.426 403.802 231.335 402.946C233.234 402.095 234.556 400.401 234.556 397.915H234.949C234.949 400.404 236.225 402.018 237.976 402.829C239.739 403.644 241.989 403.647 243.908 402.874L244.054 403.241C242.046 404.051 239.682 404.054 237.812 403.188C236.348 402.511 235.192 401.302 234.75 399.549C234.291 401.332 233.076 402.599 231.494 403.308Z" fill="black"/>
<path fill-rule="evenodd" clip-rule="evenodd" d="M211.459 356.835C213.391 355.957 215.472 355.416 217.087 355.313C217.684 355.274 218.425 355.53 219.2 356.034C219.971 356.535 220.753 357.27 221.427 358.154C222.779 359.928 223.668 362.268 223.194 364.499L223.578 364.582C224.084 362.197 223.131 359.74 221.739 357.913C221.041 356.997 220.226 356.23 219.413 355.702C218.605 355.176 217.778 354.872 217.062 354.918C215.392 355.024 213.265 355.58 211.298 356.474C209.333 357.367 207.502 358.609 206.449 360.105C206.036 360.692 205.908 361.547 205.967 362.479C206.027 363.417 206.279 364.465 206.659 365.469C207.04 366.473 207.554 367.441 208.144 368.217C208.731 368.989 209.409 369.591 210.125 369.83L210.249 369.454C209.641 369.251 209.022 368.721 208.456 367.976C207.893 367.236 207.396 366.302 207.026 365.327C206.656 364.352 206.416 363.343 206.359 362.453C206.302 361.557 206.433 360.812 206.769 360.334C207.764 358.92 209.524 357.714 211.459 356.835Z" fill="black"/>
<path fill-rule="evenodd" clip-rule="evenodd" d="M218.016 483.959C209.064 481.803 197.539 485.523 183.801 493.827L183.599 493.488C197.35 485.176 208.995 481.379 218.107 483.575C227.247 485.776 233.758 493.98 237.299 509.439C240.14 521.84 236.916 537.249 231.755 551.448C226.794 565.098 220.031 577.661 215.09 585.419C220.131 581.732 224.434 580.247 227.873 580.128C231.512 580.002 234.176 581.41 235.691 583.344C236.458 584.322 236.973 585.656 237.284 587.139C237.595 588.624 237.706 590.271 237.655 591.889C237.604 593.507 237.392 595.101 237.056 596.48C236.72 597.855 236.257 599.032 235.695 599.804L235.379 599.57C235.897 598.859 236.344 597.739 236.674 596.386C237.004 595.036 237.213 593.47 237.263 591.877C237.313 590.283 237.203 588.668 236.899 587.221C236.595 585.771 236.098 584.502 235.383 583.589C233.953 581.764 231.413 580.402 227.886 580.523C224.356 580.645 219.829 582.255 214.45 586.393L214.167 586.127C219.134 578.489 226.235 565.486 231.386 551.312C236.54 537.132 239.731 521.813 236.916 509.528C233.389 494.127 226.941 486.109 218.016 483.959Z" fill="black"/>
<path fill-rule="evenodd" clip-rule="evenodd" d="M260.383 483.959C269.335 481.803 280.86 485.523 294.598 493.827L294.8 493.488C281.049 485.176 269.405 481.379 260.292 483.575C251.152 485.776 244.641 493.98 241.1 509.439C238.26 521.84 241.484 537.249 246.644 551.448C251.65 565.22 258.489 577.885 263.441 585.625C259.467 583.28 255.153 581.653 251.212 580.996C247.036 580.3 243.242 580.689 240.725 582.514C239.704 583.255 239.005 584.538 238.536 586.054C238.065 587.576 237.816 589.36 237.715 591.138C237.512 594.69 237.894 598.262 238.294 599.739L238.673 599.635C238.288 598.211 237.906 594.685 238.107 591.161C238.207 589.401 238.453 587.652 238.91 586.172C239.37 584.689 240.034 583.503 240.955 582.835C243.347 581.1 247.014 580.697 251.148 581.386C255.275 582.074 259.831 583.844 263.966 586.404L264.233 586.127C259.265 578.489 252.165 565.486 247.013 551.312C241.859 537.132 238.669 521.813 241.483 509.528C245.011 494.127 251.459 486.109 260.383 483.959Z" fill="black"/>
<path fill-rule="evenodd" clip-rule="evenodd" d="M201.254 444.811C195.066 450.531 189.322 457.645 186.222 462.51L185.892 462.296C189.01 457.402 194.776 450.262 200.988 444.52C204.094 441.649 207.317 439.121 210.382 437.398C213.441 435.679 216.369 434.745 218.875 435.106C226.523 436.207 231.484 441.563 233.565 448.1C235.643 454.631 234.853 462.359 230.989 468.248C224.84 477.62 217.765 481.758 215.576 482.76L215.414 482.4C217.545 481.424 224.558 477.332 230.661 468.03C234.455 462.249 235.236 454.646 233.191 448.22C231.147 441.8 226.291 436.573 218.82 435.498C216.442 435.156 213.606 436.039 210.573 437.744C207.545 439.446 204.347 441.952 201.254 444.811Z" fill="black"/>
<path fill-rule="evenodd" clip-rule="evenodd" d="M268.379 444.811C274.566 450.531 280.311 457.645 283.41 462.51L283.741 462.296C280.623 457.402 274.856 450.262 268.644 444.52C265.538 441.649 262.315 439.121 259.251 437.398C256.191 435.679 253.263 434.745 250.757 435.106C243.109 436.207 238.148 441.563 236.068 448.1C233.989 454.631 234.779 462.359 238.644 468.248C241.72 472.937 245.478 476.71 248.737 479.434C251.993 482.155 254.76 483.838 255.862 484.343L256.024 483.982C254.965 483.498 252.228 481.838 248.988 479.129C245.75 476.423 242.021 472.678 238.971 468.03C235.178 462.249 234.397 454.646 236.442 448.22C238.485 441.8 243.341 436.573 250.813 435.498C253.191 435.156 256.026 436.039 259.059 437.744C262.087 439.446 265.285 441.952 268.379 444.811Z" fill="black"/>
<path d="M239.866 413.542H230.694C229.592 413.542 228.57 414.125 228.002 415.077L222.197 424.806C221.644 425.734 221.599 426.883 222.08 427.852L227.067 437.904C227.599 438.977 228.687 439.654 229.877 439.654H239.825C240.984 439.654 242.048 439.011 242.595 437.982L247.987 427.824C248.492 426.872 248.481 425.727 247.957 424.785L242.607 415.161C242.051 414.161 241.003 413.542 239.866 413.542Z" fill="url(#paint3_linear)"/>
<path fill-rule="evenodd" clip-rule="evenodd" d="M227.833 414.975C228.436 413.963 229.522 413.344 230.694 413.344H239.866C241.074 413.344 242.187 414.002 242.778 415.064L248.128 424.688C248.685 425.688 248.696 426.906 248.159 427.917L242.768 438.075C242.187 439.169 241.056 439.852 239.824 439.852H229.877C228.612 439.852 227.456 439.132 226.891 437.992L221.904 427.94C221.393 426.911 221.44 425.69 222.029 424.704L227.833 414.975ZM230.694 413.74C229.66 413.74 228.702 414.286 228.169 415.179L222.365 424.908C221.846 425.778 221.805 426.855 222.255 427.763L227.242 437.815C227.741 438.821 228.761 439.456 229.877 439.456H239.824C240.911 439.456 241.909 438.853 242.421 437.888L247.813 427.73C248.287 426.838 248.276 425.764 247.786 424.881L242.435 415.257C241.914 414.32 240.931 413.74 239.866 413.74H230.694Z" fill="white"/>
<path d="M237.89 417.735L232.571 421.843C232.393 421.98 232.202 422.097 232 422.193L226.19 424.955C224.591 425.715 223.929 427.654 224.726 429.244L228.081 435.938C228.615 437.004 229.7 437.676 230.885 437.676H238.883C240.037 437.676 241.098 437.038 241.647 436.015L246.008 427.882C246.522 426.924 246.511 425.767 245.979 424.819L242.535 418.688C241.596 417.015 239.404 416.565 237.89 417.735Z" fill="url(#paint4_linear)"/>
<path fill-rule="evenodd" clip-rule="evenodd" d="M242.023 418.981C241.259 417.621 239.479 417.256 238.248 418.206L232.93 422.314C232.719 422.476 232.492 422.616 232.252 422.73L226.442 425.492C225.143 426.109 224.605 427.685 225.252 428.977L228.607 435.67C229.041 436.537 229.922 437.083 230.886 437.083H238.883C239.821 437.083 240.683 436.565 241.129 435.734L245.49 427.6C245.908 426.822 245.899 425.882 245.466 425.111L242.023 418.981ZM237.532 417.264C239.33 415.875 241.932 416.409 243.048 418.396L246.492 424.527C247.124 425.653 247.137 427.026 246.527 428.164L242.166 436.298C241.514 437.513 240.254 438.27 238.883 438.27H230.886C229.478 438.27 228.19 437.471 227.555 436.205L224.201 429.512C223.254 427.624 224.04 425.321 225.939 424.419L231.749 421.657C231.913 421.579 232.069 421.483 232.213 421.372L237.532 417.264Z" fill="url(#paint5_linear)"/>
<path d="M242.318 438.467L224.058 421.85L225.825 418.685L244.478 434.51L242.318 438.467Z" fill="#F9F6F1" fill-opacity="0.4"/>
<path d="M245.264 432.928L226.61 417.499L227.003 416.708L245.656 432.137L245.264 432.928Z" fill="#F9F6F1" fill-opacity="0.4"/>
<path d="M248.209 426.203L232.894 413.542L241.534 413.938L248.209 425.214V426.203Z" fill="#F9F6F1" fill-opacity="0.4"/>
<path fill-rule="evenodd" clip-rule="evenodd" d="M262.052 439.705L259.892 431.595L260.271 431.492L262.431 439.603L262.052 439.705Z" fill="black"/>
<path fill-rule="evenodd" clip-rule="evenodd" d="M206.276 440.496L208.436 432.386L208.056 432.283L205.896 440.394L206.276 440.496Z" fill="black"/>
<path fill-rule="evenodd" clip-rule="evenodd" d="M258.192 358.844C256.349 357.789 254.327 357.055 252.73 356.801C252.139 356.707 251.377 356.891 250.559 357.321C249.746 357.748 248.899 358.406 248.146 359.223C246.637 360.862 245.536 363.109 245.801 365.375L245.412 365.421C245.127 362.999 246.303 360.642 247.858 358.954C248.638 358.107 249.52 357.42 250.377 356.97C251.231 356.522 252.082 356.297 252.791 356.41C254.443 356.673 256.51 357.426 258.386 358.5C260.259 359.573 261.968 360.982 262.878 362.57C263.235 363.194 263.284 364.057 263.139 364.979C262.992 365.908 262.645 366.928 262.174 367.892C261.702 368.856 261.101 369.771 260.442 370.489C259.786 371.203 259.056 371.738 258.321 371.909L258.233 371.523C258.857 371.378 259.522 370.908 260.154 370.22C260.783 369.535 261.363 368.652 261.822 367.716C262.28 366.78 262.612 365.798 262.751 364.917C262.891 364.029 262.829 363.275 262.538 362.768C261.678 361.267 260.038 359.901 258.192 358.844Z" fill="black"/>
<path d="M63.2286 480.099L95.9143 599.874H9V381.285V193.388V1H107.8L113 60.8874L63.2286 111.792V480.099Z" fill="url(#paint6_linear)"/>
<path d="M426.494 344.062L360.56 599.874H489V384.204V198.817V8.99805L329 18.5998L358.358 73.9944L441.294 90.2435L426.494 344.062Z" fill="url(#paint7_linear)"/>
<path d="M489 290.94L97 8.2489L120.802 3L489 257.947V290.94Z" fill="#9CE7FF" fill-opacity="0.14"/>
<path d="M488 128.474L242 3H264.32L488 95.4806V128.474Z" fill="#9CE7FF" fill-opacity="0.14"/>
<path d="M357 599.874L9 244V188.119L489 544V599.874H357Z" fill="#9CE7FF" fill-opacity="0.14"/>
<path d="M346.161 74.9843C424.005 74.9843 468.594 42.083 489 22.9544V0H161C199.04 25.2498 268.318 74.9843 346.161 74.9843Z" fill="#43606C"/>
<path d="M142.174 68.4186C73.844 71.9093 31.312 58.6445 9 46.0778V0H313C277.905 23.0389 210.505 64.9278 142.174 68.4186Z" fill="#43606C"/>
<path d="M8.27953 584.926L1 600H87V556.956L67.1773 594.138L69.3937 532L40.7835 594.138L50.0945 535.015L30.2874 594.138L36.7205 539.034L18.9449 594.138L20.1299 555.783L8.27953 596.818V584.926Z" fill="#4D563B"/>
<path d="M500.562 584.926L507.842 600H421.842V556.956L441.664 594.138L439.448 532L468.058 594.138L458.747 535.015L478.554 594.138L472.121 539.034L489.897 594.138L488.712 555.783L500.562 596.818V584.926Z" fill="#4D563B"/>
<path d="M53.058 599.038H67.7964C59.3745 592.301 56.8479 584.721 56.8479 574.194H49.6893C53.058 583.458 50.9526 590.195 53.058 599.038Z" fill="url(#paint8_linear)"/>
<path d="M38.3196 574.194C41.1269 568.86 44.2149 558.192 52.6368 558.192C61.0588 558.192 64.5679 568.86 66.9541 574.194H38.3196Z" fill="#67A4AE"/>
<path d="M34.1087 588.512H45.8994C45.1976 586.827 43.036 583.458 40.0041 583.458C36.9722 583.458 34.8106 586.827 34.1087 588.512Z" fill="#67A4AE"/>
<path d="M37.0559 598.618H43.7935L41.688 588.511H38.7403L37.0559 598.618Z" fill="url(#paint9_linear)"/>
<path d="M17.686 599.46H30.3188C30.3188 599.46 29.3147 595.249 27.3712 588.933C25.4277 582.616 25.2657 576.3 25.2657 576.3H20.6336C20.6336 576.3 23.1602 584.722 21.0547 589.775C18.9493 594.828 17.686 599.46 17.686 599.46Z" fill="url(#paint10_linear)"/>
<path d="M2.10554 599.105H10.5275C12.5487 595.399 9.68526 588.016 8.00088 584.788H4.63212C4.49175 585.489 4.04258 587.819 3.36883 591.525C2.69508 595.231 2.24591 598.122 2.10554 599.105Z" fill="url(#paint11_linear)"/>
<path d="M0.000139236 584.788H12.2119C11.2294 582.402 8.50627 577.798 5.47438 578.471C2.44249 579.145 0.561601 582.963 0.000139236 584.788Z" fill="#67A4AE"/>
<path d="M13.0537 576.3H32.8452C30.8801 573.492 29.0554 568.299 23.16 568.299C17.2647 568.299 14.317 573.773 13.0537 576.3Z" fill="#67A4AE"/>
<path d="M70.2652 588.408H64.4062C64.4062 586.455 64.9921 582.633 67.3357 582.967C69.6793 583.302 70.2652 586.734 70.2652 588.408Z" fill="#67A4AE"/>
<path d="M79.4717 587.591H73.6128C73.6128 585.638 74.1987 581.816 76.5423 582.151C78.8858 582.486 79.4717 585.917 79.4717 587.591Z" fill="#67A4AE"/>
<path d="M86.168 585.08H80.3091C80.3091 583.127 80.895 579.305 83.2386 579.64C85.5821 579.975 86.168 583.406 86.168 585.08Z" fill="#67A4AE"/>
<path d="M89.516 589.663H85.3311C85.3311 588.167 85.7496 585.238 87.4235 585.494C89.0975 585.751 89.516 588.381 89.516 589.663Z" fill="#67A4AE"/>
<path d="M74.4498 581.733H68.5908C68.5908 579.78 69.1767 575.957 71.5203 576.292C73.8639 576.627 74.4498 580.059 74.4498 581.733Z" fill="#67A4AE"/>
<path fill-rule="evenodd" clip-rule="evenodd" d="M67.5799 590.484C67.1133 589.659 66.7974 588.8 66.9217 587.93L67.7503 588.049C67.6654 588.643 67.8726 589.301 68.3084 590.072C68.6839 590.736 69.1967 591.43 69.7563 592.187C69.8456 592.308 69.936 592.43 70.0272 592.554C71.3256 594.32 72.7765 596.413 72.7765 598.87H71.9395C71.9395 596.724 70.6701 594.841 69.3529 593.05C69.2644 592.93 69.1757 592.81 69.0871 592.69C68.5305 591.937 67.9827 591.196 67.5799 590.484Z" fill="#67A4AE"/>
<path fill-rule="evenodd" clip-rule="evenodd" d="M72.4283 591.512C71.6361 588.924 70.89 585.943 71.1026 581.691L71.9386 581.733C71.7327 585.851 72.4513 588.728 73.2286 591.267C73.3393 591.629 73.4519 591.985 73.5635 592.339C74.233 594.458 74.8687 596.471 74.8688 598.87L74.0318 598.87C74.0317 596.61 73.4392 594.73 72.7702 592.607C72.6576 592.25 72.5428 591.886 72.4283 591.512Z" fill="#67A4AE"/>
<path fill-rule="evenodd" clip-rule="evenodd" d="M76.1245 598.87V587.571H76.9615V598.87H76.1245Z" fill="#67A4AE"/>
<path fill-rule="evenodd" clip-rule="evenodd" d="M82.0677 589.293C82.5148 588.224 82.8198 586.894 82.8198 585.06L83.6568 585.06C83.6568 586.993 83.3342 588.435 82.8397 589.616C82.3472 590.793 81.6913 591.691 81.0622 592.53C81.0271 592.577 80.992 592.624 80.9571 592.67C80.362 593.462 79.8049 594.204 79.3811 595.122C78.9371 596.084 78.6349 597.253 78.6348 598.87L77.7979 598.87C77.7979 597.139 78.1235 595.85 78.6211 594.772C79.0835 593.77 79.6907 592.962 80.2768 592.182C80.3155 592.131 80.3541 592.079 80.3926 592.028C81.019 591.193 81.6186 590.365 82.0677 589.293Z" fill="#67A4AE"/>
<path fill-rule="evenodd" clip-rule="evenodd" d="M85.743 592.018C86.3555 591.251 86.6766 590.496 86.5892 589.71L87.421 589.617C87.5429 590.714 87.0792 591.686 86.3971 592.54C85.7171 593.392 84.7802 594.176 83.8663 594.908C83.7092 595.033 83.553 595.157 83.3986 595.28C82.6385 595.883 81.9216 596.452 81.3584 597.02C80.6716 597.713 80.3092 598.315 80.3092 598.87H79.4722C79.4722 597.961 80.0514 597.15 80.7639 596.431C81.3657 595.824 82.131 595.217 82.891 594.614C83.0425 594.494 83.1937 594.374 83.3434 594.254C84.2603 593.52 85.1282 592.788 85.743 592.018Z" fill="#67A4AE"/>
<path d="M416.859 588.408H411C411 586.455 411.586 582.633 413.929 582.967C416.273 583.302 416.859 586.734 416.859 588.408Z" fill="#67A4AE"/>
<path d="M426.065 587.591H420.207C420.207 585.638 420.792 581.816 423.136 582.151C425.48 582.486 426.065 585.917 426.065 587.591Z" fill="#67A4AE"/>
<path d="M432.762 585.08H426.903C426.903 583.127 427.489 579.305 429.832 579.64C432.176 579.975 432.762 583.406 432.762 585.08Z" fill="#67A4AE"/>
<path d="M436.11 589.663H431.925C431.925 588.167 432.343 585.238 434.017 585.494C435.691 585.751 436.11 588.381 436.11 589.663Z" fill="#67A4AE"/>
<path d="M421.044 581.733H415.185C415.185 579.78 415.77 575.957 418.114 576.292C420.458 576.627 421.044 580.059 421.044 581.733Z" fill="#67A4AE"/>
<path fill-rule="evenodd" clip-rule="evenodd" d="M414.174 590.484C413.707 589.659 413.391 588.8 413.515 587.93L414.344 588.049C414.259 588.643 414.466 589.301 414.902 590.072C415.278 590.736 415.79 591.43 416.35 592.187C416.439 592.308 416.53 592.43 416.621 592.554C417.919 594.32 419.37 596.413 419.37 598.87H418.533C418.533 596.724 417.264 594.841 415.947 593.05C415.858 592.93 415.769 592.81 415.681 592.69C415.124 591.937 414.576 591.196 414.174 590.484Z" fill="#67A4AE"/>
<path fill-rule="evenodd" clip-rule="evenodd" d="M419.022 591.512C418.23 588.924 417.484 585.943 417.696 581.691L418.532 581.733C418.326 585.851 419.045 588.728 419.822 591.267C419.933 591.629 420.046 591.985 420.157 592.339C420.827 594.458 421.462 596.471 421.463 598.87L420.626 598.87C420.625 596.61 420.033 594.73 419.364 592.607C419.251 592.25 419.137 591.886 419.022 591.512Z" fill="#67A4AE"/>
<path fill-rule="evenodd" clip-rule="evenodd" d="M422.718 598.87V587.571H423.555V598.87H422.718Z" fill="#67A4AE"/>
<path fill-rule="evenodd" clip-rule="evenodd" d="M428.661 589.293C429.109 588.224 429.414 586.894 429.414 585.06L430.251 585.06C430.251 586.993 429.928 588.435 429.433 589.616C428.941 590.793 428.285 591.691 427.656 592.53C427.621 592.577 427.586 592.624 427.551 592.67C426.956 593.462 426.399 594.204 425.975 595.122C425.531 596.084 425.229 597.253 425.229 598.87L424.392 598.87C424.392 597.139 424.717 595.85 425.215 594.772C425.677 593.77 426.284 592.962 426.871 592.182C426.909 592.131 426.948 592.079 426.986 592.028C427.613 591.193 428.212 590.365 428.661 589.293Z" fill="#67A4AE"/>
<path fill-rule="evenodd" clip-rule="evenodd" d="M432.337 592.018C432.949 591.251 433.27 590.496 433.183 589.71L434.015 589.617C434.137 590.714 433.673 591.686 432.991 592.54C432.311 593.392 431.374 594.176 430.46 594.908C430.303 595.033 430.147 595.157 429.992 595.28C429.232 595.883 428.515 596.452 427.952 597.02C427.265 597.713 426.903 598.315 426.903 598.87H426.066C426.066 597.961 426.645 597.15 427.358 596.431C427.959 595.824 428.725 595.217 429.485 594.614C429.636 594.494 429.787 594.374 429.937 594.254C430.854 593.52 431.722 592.788 432.337 592.018Z" fill="#67A4AE"/>
<path d="M452.856 599.038H438.118C446.54 592.301 449.066 584.721 449.066 574.194H456.225C452.856 583.458 454.962 590.195 452.856 599.038Z" fill="url(#paint12_linear)"/>
<path d="M467.594 574.194C464.787 568.86 461.699 558.192 453.277 558.192C444.855 558.192 441.346 568.86 438.96 574.194H467.594Z" fill="#67A4AE"/>
<path d="M471.805 588.512H460.015C460.716 586.827 462.878 583.458 465.91 583.458C468.942 583.458 471.104 586.827 471.805 588.512Z" fill="#67A4AE"/>
<path d="M468.858 598.618H462.121L464.226 588.511H467.174L468.858 598.618Z" fill="url(#paint13_linear)"/>
<path d="M488.228 599.46H475.595C475.595 599.46 476.599 595.249 478.543 588.933C480.486 582.616 480.648 576.3 480.648 576.3H485.28C485.28 576.3 482.754 584.722 484.859 589.775C486.965 594.828 488.228 599.46 488.228 599.46Z" fill="url(#paint14_linear)"/>
<path d="M503.809 599.105H495.387C493.365 595.399 496.229 588.016 497.913 584.788H501.282C501.422 585.489 501.871 587.819 502.545 591.525C503.219 595.231 503.668 598.122 503.809 599.105Z" fill="url(#paint15_linear)"/>
<path d="M505.914 584.788H493.702C494.685 582.402 497.408 577.798 500.44 578.471C503.472 579.145 505.352 582.963 505.914 584.788Z" fill="#67A4AE"/>
<path d="M492.86 576.3H473.069C475.034 573.492 476.859 568.299 482.754 568.299C488.649 568.299 491.597 573.773 492.86 576.3Z" fill="#67A4AE"/>
<defs>
<radialGradient id="paint0_radial" cx="0" cy="0" r="1" gradientUnits="userSpaceOnUse" gradientTransform="translate(249 30.5) rotate(90) scale(229.5)">
<stop stop-color="#256C76"/>
<stop offset="0.992708" stop-color="#1F3367"/>
</radialGradient>
<linearGradient id="paint1_linear" x1="240.991" y1="364.272" x2="240.991" y2="599.687" gradientUnits="userSpaceOnUse">
<stop stop-color="#B57A29"/>
<stop offset="0.586458" stop-color="#804E0A"/>
<stop offset="1" stop-color="#6F3030"/>
</linearGradient>
<linearGradient id="paint2_linear" x1="235.077" y1="394.521" x2="235.077" y2="408.918" gradientUnits="userSpaceOnUse">
<stop stop-color="#FDB646"/>
<stop offset="1" stop-color="#FAA929"/>
</linearGradient>
<linearGradient id="paint3_linear" x1="231.519" y1="413.542" x2="235.105" y2="435.294" gradientUnits="userSpaceOnUse">
<stop stop-color="white"/>
<stop offset="0.0001" stop-color="#DCE9EB" stop-opacity="0.88"/>
<stop offset="1" stop-color="#C4D2D3" stop-opacity="0.73"/>
</linearGradient>
<linearGradient id="paint4_linear" x1="237.213" y1="414.136" x2="235.021" y2="437.673" gradientUnits="userSpaceOnUse">
<stop offset="0.383333" stop-color="#FEBF5A"/>
<stop offset="1" stop-color="#E67315"/>
</linearGradient>
<linearGradient id="paint5_linear" x1="235.053" y1="415.521" x2="235.053" y2="437.676" gradientUnits="userSpaceOnUse">
<stop stop-color="#FFEEB0"/>
<stop offset="1" stop-color="#FFD12D"/>
</linearGradient>
<linearGradient id="paint6_linear" x1="142.172" y1="-72.3334" x2="-54.7971" y2="615.437" gradientUnits="userSpaceOnUse">
<stop stop-color="#6E3154"/>
<stop offset="0.992286" stop-color="#302E5C"/>
</linearGradient>
<linearGradient id="paint7_linear" x1="357.426" y1="-63.356" x2="551.537" y2="615.37" gradientUnits="userSpaceOnUse">
<stop stop-color="#6E3154"/>
<stop offset="0.992286" stop-color="#302E5C"/>
</linearGradient>
<linearGradient id="paint8_linear" x1="58.7428" y1="574.194" x2="58.7428" y2="599.038" gradientUnits="userSpaceOnUse">
<stop stop-color="#8AD6E2"/>
<stop offset="1" stop-color="#67A4AE"/>
</linearGradient>
<linearGradient id="paint9_linear" x1="40.4247" y1="588.511" x2="40.4247" y2="598.618" gradientUnits="userSpaceOnUse">
<stop stop-color="#80C6D1"/>
<stop offset="1" stop-color="#67A4AE"/>
</linearGradient>
<linearGradient id="paint10_linear" x1="24.0024" y1="576.3" x2="24.0024" y2="599.46" gradientUnits="userSpaceOnUse">
<stop stop-color="#80C6D1"/>
<stop offset="1" stop-color="#67A4AE"/>
</linearGradient>
<linearGradient id="paint11_linear" x1="6.6641" y1="584.788" x2="6.6641" y2="599.105" gradientUnits="userSpaceOnUse">
<stop stop-color="#67A4AE"/>
<stop offset="0.0001" stop-color="#80C6D1"/>
<stop offset="1" stop-color="#67A4AE"/>
</linearGradient>
<linearGradient id="paint12_linear" x1="447.171" y1="574.194" x2="447.171" y2="599.038" gradientUnits="userSpaceOnUse">
<stop stop-color="#8AD6E2"/>
<stop offset="1" stop-color="#67A4AE"/>
</linearGradient>
<linearGradient id="paint13_linear" x1="465.489" y1="588.511" x2="465.489" y2="598.618" gradientUnits="userSpaceOnUse">
<stop stop-color="#80C6D1"/>
<stop offset="1" stop-color="#67A4AE"/>
</linearGradient>
<linearGradient id="paint14_linear" x1="481.912" y1="576.3" x2="481.912" y2="599.46" gradientUnits="userSpaceOnUse">
<stop stop-color="#80C6D1"/>
<stop offset="1" stop-color="#67A4AE"/>
</linearGradient>
<linearGradient id="paint15_linear" x1="499.25" y1="584.788" x2="499.25" y2="599.105" gradientUnits="userSpaceOnUse">
<stop stop-color="#67A4AE"/>
<stop offset="0.0001" stop-color="#80C6D1"/>
<stop offset="1" stop-color="#67A4AE"/>
</linearGradient>
</defs>
</svg>
