<svg width="295" height="401" viewBox="0 0 295 401" fill="none" xmlns="http://www.w3.org/2000/svg">
<rect x="6" width="277.522" height="399.5" fill="url(#paint0_radial)"/>
<path d="M217.237 12.9839L228.139 398.003H182.92L173.504 12.9839H217.237Z" fill="#3B40B0"/>
<path d="M201.323 201.748L178.59 211.693L176.552 287.468L174 395.763H285.999V334.082V287.468L201.323 201.748Z" fill="#1C0E4D"/>
<path d="M180.95 206.71C183.014 207.2 184.197 211.297 184.197 211.297L179.359 216.03C179.359 216.03 175.651 214.619 175.267 212.81C174.884 211.002 175.082 209.699 176.463 208.528C177.844 207.357 178.885 206.22 180.95 206.71Z" fill="#1C0E4C"/>
<path d="M197.225 218.11L201.881 219.989L189.962 224.447L191.558 220.497L197.225 218.11Z" fill="#301D70"/>
<path d="M196.078 200.931C195.215 202.425 197.073 206.741 197.073 206.741L203.181 206.409C203.181 206.409 204.165 201.927 203.607 200.931C203.05 199.935 202.46 198.938 200.056 198.772C197.651 198.606 196.941 199.436 196.078 200.931Z" fill="#1C0E4C"/>
<ellipse cx="185.938" cy="218.227" rx="0.99115" ry="1.49813" fill="#00F3F3"/>
<ellipse cx="199.318" cy="212.734" rx="1.48673" ry="0.998751" fill="#00F3F3"/>
<path d="M91.2391 15.98L57.0444 398.002H96.1949L121.469 15.98H91.2391Z" fill="#3B40B0"/>
<path d="M285.504 352.06L6.49561 114.857V100.874L285.504 332.085V352.06Z" fill="#9CE7FF" fill-opacity="0.14"/>
<path d="M285.504 244.195L6.49561 6.99188V0.5L285.504 224.22V244.195Z" fill="#9CE7FF" fill-opacity="0.14"/>
<path d="M56.0532 31.7651L39.2036 399.001H59.0266L76.8673 31.7651H56.0532Z" fill="#776CF2"/>
<path d="M60.5691 216.326L28.2258 282.369L20.8672 399.5H146.512L108.903 269.634L82.3182 217.066L60.5691 216.326Z" fill="#1C0E4C"/>
<path d="M70.1211 231.43L66.4473 234.392L78.3505 235.132L75.8523 232.022L70.1211 231.43Z" fill="#301D70"/>
<path d="M78.0564 213.513L76.4399 220.177L80.7016 222.99L87.0205 216.919L83.7876 212.329L78.0564 213.513Z" fill="#1C0E4C"/>
<path d="M64.5368 212.92L66.1533 219.584L61.8917 222.397L55.5727 216.326L58.8057 211.735L64.5368 212.92Z" fill="#1C0E4C"/>
<ellipse rx="1.17686" ry="1.18341" transform="matrix(0.92803 0.372505 -0.367625 0.929974 65.1342 227.628)" fill="#00F3F3"/>
<ellipse rx="1.17686" ry="1.18341" transform="matrix(0.92803 0.372505 -0.367625 0.929974 78.3417 227.828)" fill="#00F3F3"/>
<path d="M230 31.7651L213.15 399.001H240.903L258.743 31.7651H230Z" fill="#776CF2"/>
<path d="M107.59 293.702C106.131 307.991 87.531 379.347 73.3982 399.499H200.761C184.349 350.493 169.54 265.644 169.54 232.21C169.54 215.985 168.02 19.5415 169.54 0.000102154H143.77L110.668 0C109.3 36.3348 109.049 279.412 107.59 293.702Z" fill="#5D418A"/>
<path fill-rule="evenodd" clip-rule="evenodd" d="M125.247 261.564C124.327 262.048 123.633 262.617 123.224 263.269C122.392 264.599 122.081 266.15 121.745 268.317C121.7 268.609 121.654 268.913 121.606 269.228C121.302 271.245 120.925 273.748 120.115 276.972C118.243 284.429 114.063 295.736 103.141 313.863C92.2337 331.966 86.2618 353.365 83.8448 370.238C82.6362 378.675 82.3171 385.976 82.7124 391.164C82.9101 393.759 83.2861 395.818 83.8148 397.225C84.0793 397.929 84.3792 398.462 84.7081 398.817C85.0353 399.17 85.3862 399.343 85.7597 399.343H200.997C200.996 399.332 200.994 399.321 200.993 399.308C200.981 399.199 200.963 399.036 200.938 398.822C200.889 398.394 200.815 397.762 200.712 396.946C200.505 395.314 200.186 392.946 199.732 390.003C198.826 384.119 197.385 375.937 195.248 366.748C190.972 348.367 183.911 325.97 172.773 309.869C161.617 293.741 157.086 283.376 154.95 276.419C153.968 273.22 153.493 270.743 153.114 268.764C153.081 268.592 153.049 268.424 153.017 268.259C152.618 266.196 152.293 264.719 151.519 263.505C151.14 262.912 150.472 262.372 149.572 261.895C148.674 261.419 147.553 261.01 146.282 260.673C143.738 259.999 140.603 259.617 137.457 259.559C134.311 259.5 131.161 259.764 128.59 260.379C127.304 260.687 126.166 261.081 125.247 261.564ZM201.127 399.461C201.243 399.449 201.243 399.449 201.243 399.448L201.243 399.446L201.239 399.407C201.236 399.379 201.231 399.337 201.225 399.283C201.213 399.173 201.195 399.009 201.17 398.795C201.121 398.366 201.046 397.733 200.943 396.916C200.737 395.282 200.417 392.912 199.963 389.967C199.056 384.078 197.614 375.89 195.475 366.694C191.198 348.306 184.129 325.873 172.965 309.734C161.818 293.621 157.3 283.278 155.173 276.35C154.195 273.163 153.722 270.697 153.343 268.719C153.31 268.547 153.278 268.379 153.246 268.214C152.849 266.159 152.518 264.636 151.715 263.378C151.306 262.736 150.598 262.173 149.681 261.687C148.762 261.199 147.624 260.785 146.341 260.445C143.776 259.766 140.621 259.382 137.461 259.323C134.301 259.264 131.131 259.53 128.536 260.15C127.238 260.461 126.08 260.861 125.139 261.355C124.198 261.85 123.465 262.443 123.027 263.144C122.166 264.52 121.85 266.117 121.514 268.281C121.469 268.574 121.423 268.878 121.375 269.193C121.071 271.21 120.695 273.702 119.889 276.915C118.024 284.343 113.855 295.628 102.942 313.741C92.0134 331.878 86.0338 353.309 83.6136 370.205C82.4035 378.653 82.0826 385.972 82.4795 391.182C82.6779 393.786 83.0562 395.871 83.5964 397.308C83.8665 398.027 84.1797 398.591 84.5373 398.977C84.8966 399.366 85.3055 399.579 85.7597 399.579H201.256L201.243 399.449L201.127 399.461Z" fill="black"/>
<path d="M148.782 254.87C147.235 254.625 144.197 257.312 144.524 260.099C144.942 260.507 146.176 261.606 147.764 262.735C149.352 263.865 151.29 263.951 152.061 263.853C153.678 263.477 155.47 259.817 154.699 258.473C153.646 256.636 150.715 255.177 148.782 254.87Z" fill="#B57A29"/>
<path d="M148.806 257.323C147.685 257.511 146.198 259.48 146.12 260.382C146.961 260.382 149.973 262.03 151.375 262.853C151.803 262.422 152.472 261.465 152.659 260.147C152.893 258.5 150.207 257.088 148.806 257.323Z" fill="#FBAB7E"/>
<path d="M127.065 253.92C128.998 253.613 131.623 257.007 131.296 259.796C130.878 260.204 129.668 260.658 128.08 261.789C126.492 262.919 124.555 263.006 123.785 262.908C122.168 262.532 120.378 258.872 121.149 257.527C122.202 255.689 125.132 254.228 127.065 253.92Z" fill="#B57A29"/>
<path d="M127.787 256.852C128.908 257.04 129.578 259.363 129.656 260.265C128.815 260.265 126.283 261.114 124.881 261.938C124.453 261.506 124.238 260.053 124.051 258.735C123.817 257.088 126.386 256.617 127.787 256.852Z" fill="#FBAB7E"/>
<path d="M123.126 263.206C119.74 268.619 124.878 277.561 103.042 313.802C81.2066 350.042 79.1393 399.461 85.7606 399.461H201.128C201.128 399.461 195.173 342.041 172.87 309.801C150.567 277.561 154.771 268.384 151.618 263.442C148.465 258.5 126.513 257.794 123.126 263.206Z" fill="url(#paint1_linear)"/>
<path d="M141.181 307.605C140.325 307.875 139.6 308.052 140.242 306.396C140.399 305.992 141.134 304.856 142.823 303.537C144.512 302.218 146.498 301.815 147.28 301.778C149.986 301.233 150.528 303.537 147.28 303.142C145.538 302.93 148.146 304.204 146.738 305.324C145.331 306.444 144.573 304.779 143.22 305.626C141.84 306.49 143.22 306.961 141.181 307.605Z" fill="#FBAB2E"/>
<path d="M135.641 308.325C136.182 310.234 137.358 309.416 136.724 307.779C136.567 307.376 135.515 305.366 133.872 304.083C132.183 302.764 131.022 302.32 129.957 302.051C127.791 301.506 129.091 303.187 131.31 303.688C132.139 303.875 130.498 305.052 131.581 306.143C132.934 307.506 133.662 306.114 134.558 306.415C135.37 306.688 135.333 307.238 135.641 308.325Z" fill="#FBAB2E"/>
<path fill-rule="evenodd" clip-rule="evenodd" d="M179.213 336.02C177.265 336.605 174.58 336.212 171.77 335.21L171.848 334.988C174.643 335.985 177.271 336.358 179.147 335.795C180.081 335.515 180.825 335.004 181.316 334.225C181.809 333.444 182.055 332.383 181.968 330.988L182.201 330.973C182.29 332.402 182.039 333.517 181.514 334.351C180.987 335.186 180.191 335.727 179.213 336.02Z" fill="black"/>
<path fill-rule="evenodd" clip-rule="evenodd" d="M104.099 337.361C105.937 337.117 107.941 336.383 109.883 335.199L109.762 334.998C107.843 336.168 105.87 336.889 104.069 337.127C102.267 337.366 100.645 337.12 99.4178 336.366C98.1947 335.614 97.3506 334.349 97.1136 332.519C96.8761 330.684 97.2487 328.278 98.4704 325.259L98.2541 325.17C97.0237 328.211 96.6374 330.659 96.882 332.549C97.1272 334.443 98.0066 335.774 99.2962 336.567C100.582 337.357 102.262 337.604 104.099 337.361Z" fill="black"/>
<path d="M131.291 281.562C131.866 280.385 132.285 279.444 133.392 279.444C134.91 279.444 135.503 278.15 136.671 278.973C137.838 279.797 139.103 279.619 139.698 278.62C140.749 276.855 142.734 277.208 143.201 278.62C143.668 280.032 145.152 278.879 146.362 281.091C147.521 283.209 146.587 284.503 144.836 284.503C143.084 284.503 142.342 283.999 140.749 285.209C138.889 286.621 138.072 285.798 136.671 285.209C135.269 284.621 134.134 284.181 132.692 284.503C131.641 284.739 129.656 284.066 129.656 283.209C129.656 282.353 130.557 283.062 131.291 281.562Z" fill="url(#paint2_linear)"/>
<path fill-rule="evenodd" clip-rule="evenodd" d="M141.683 277.194C142.461 277.244 143.158 277.745 143.423 278.545C143.522 278.845 143.665 278.989 143.835 279.085C143.989 279.171 144.164 279.218 144.388 279.279C144.444 279.295 144.503 279.311 144.566 279.329C144.866 279.414 145.209 279.53 145.558 279.778C145.908 280.026 146.25 280.398 146.567 280.977C147.165 282.069 147.257 283.013 146.897 283.701C146.535 284.394 145.763 284.738 144.836 284.738C144.392 284.738 144.012 284.707 143.675 284.679L143.663 284.678C143.32 284.649 143.028 284.625 142.743 284.637C142.193 284.66 141.654 284.817 140.889 285.397C139.926 286.129 139.193 286.308 138.499 286.191C138.163 286.135 137.85 286.01 137.541 285.87C137.422 285.816 137.307 285.76 137.19 285.705C136.996 285.612 136.799 285.518 136.581 285.426C135.177 284.837 134.104 284.428 132.743 284.733C132.157 284.864 131.349 284.741 130.695 284.485C130.365 284.355 130.058 284.186 129.828 283.982C129.601 283.781 129.422 283.519 129.422 283.209C129.422 282.948 129.494 282.753 129.662 282.617C129.736 282.558 129.819 282.518 129.893 282.488C129.938 282.47 129.992 282.451 130.043 282.433C130.069 282.423 130.095 282.414 130.118 282.406C130.265 282.351 130.418 282.284 130.576 282.151C130.735 282.017 130.91 281.808 131.081 281.458C131.102 281.414 131.123 281.371 131.144 281.328C131.403 280.798 131.65 280.289 131.962 279.911C132.313 279.486 132.756 279.208 133.392 279.208C133.974 279.208 134.398 279.005 134.819 278.802C134.901 278.762 134.983 278.723 135.067 278.685C135.315 278.572 135.582 278.47 135.874 278.464C136.175 278.457 136.479 278.55 136.805 278.78C137.35 279.165 137.902 279.304 138.371 279.246C138.836 279.189 139.237 278.936 139.498 278.499C140.063 277.55 140.9 277.143 141.683 277.194ZM141.654 277.663C141.065 277.625 140.384 277.925 139.898 278.741C139.564 279.303 139.035 279.638 138.428 279.713C137.824 279.788 137.159 279.604 136.537 279.166C136.279 278.984 136.071 278.93 135.885 278.934C135.69 278.939 135.495 279.006 135.259 279.114C135.189 279.146 135.116 279.181 135.039 279.218C134.616 279.423 134.089 279.679 133.392 279.679C132.921 279.679 132.601 279.872 132.321 280.212C132.047 280.545 131.823 281.003 131.555 281.553C131.537 281.59 131.519 281.628 131.5 281.665C131.305 282.065 131.092 282.33 130.876 282.512C130.658 282.695 130.449 282.785 130.279 282.847C130.243 282.861 130.212 282.872 130.184 282.882C130.141 282.897 130.105 282.91 130.067 282.925C130.01 282.948 129.976 282.967 129.954 282.985C129.93 283.004 129.889 283.041 129.889 283.209C129.889 283.327 129.959 283.47 130.137 283.629C130.312 283.785 130.567 283.929 130.864 284.046C131.466 284.282 132.176 284.377 132.641 284.273C134.163 283.933 135.362 284.405 136.761 284.992C136.986 285.086 137.205 285.191 137.408 285.288C137.522 285.342 137.631 285.394 137.734 285.441C138.031 285.577 138.301 285.681 138.576 285.727C139.107 285.816 139.712 285.701 140.608 285.021C141.438 284.391 142.066 284.195 142.723 284.167C143.042 284.154 143.364 284.18 143.702 284.209L143.708 284.209C144.047 284.237 144.411 284.268 144.836 284.268C145.66 284.268 146.231 283.965 146.484 283.481C146.739 282.993 146.719 282.23 146.158 281.204C145.87 280.678 145.573 280.364 145.289 280.162C145.004 279.96 144.721 279.861 144.44 279.782C144.391 279.768 144.341 279.754 144.291 279.741C144.062 279.679 143.817 279.613 143.609 279.496C143.332 279.341 143.114 279.101 142.98 278.694C142.777 278.082 142.248 277.702 141.654 277.663Z" fill="#FFD12D"/>
<path d="M144.377 273.561H132L136.144 278.571C137.043 279.659 138.686 279.705 139.645 278.67L144.377 273.561Z" fill="black"/>
<path d="M131.883 273.443C132.779 271.129 134.102 265.677 137.722 265.677C141.925 265.677 143.638 270.894 144.261 273.443H131.883Z" fill="#C68731"/>
<path d="M132.458 266.736C132.458 267.646 131.726 268.383 130.823 268.383C129.92 268.383 129.188 267.646 129.188 266.736C129.188 265.826 129.92 265.089 130.823 265.089C131.726 265.089 132.458 265.826 132.458 266.736Z" fill="black"/>
<path d="M131.992 266.266C131.992 266.526 131.783 266.736 131.525 266.736C131.267 266.736 131.058 266.526 131.058 266.266C131.058 266.006 131.267 265.795 131.525 265.795C131.783 265.795 131.992 266.006 131.992 266.266Z" fill="white"/>
<path d="M146.938 266.736C146.938 267.646 146.206 268.383 145.303 268.383C144.4 268.383 143.668 267.646 143.668 266.736C143.668 265.826 144.4 265.089 145.303 265.089C146.206 265.089 146.938 265.826 146.938 266.736Z" fill="black"/>
<path d="M146.237 266.266C146.237 266.526 146.028 266.736 145.77 266.736C145.512 266.736 145.303 266.526 145.303 266.266C145.303 266.006 145.512 265.795 145.77 265.795C146.028 265.795 146.237 266.006 146.237 266.266Z" fill="white"/>
<path fill-rule="evenodd" clip-rule="evenodd" d="M136.134 282.652C134.934 283.19 133.383 283.187 131.957 282.612L132.043 282.394C133.419 282.949 134.904 282.946 136.039 282.437C137.169 281.93 137.955 280.923 137.955 279.444H138.189C138.189 280.925 138.947 281.885 139.989 282.367C141.037 282.852 142.376 282.854 143.517 282.394L143.603 282.612C142.409 283.094 141.004 283.095 139.891 282.581C139.021 282.178 138.333 281.459 138.07 280.416C137.797 281.476 137.075 282.23 136.134 282.652Z" fill="black"/>
<path fill-rule="evenodd" clip-rule="evenodd" d="M124.22 255.009C125.369 254.486 126.606 254.165 127.566 254.103C127.922 254.081 128.363 254.233 128.823 254.532C129.282 254.831 129.747 255.268 130.148 255.794C130.952 256.849 131.481 258.24 131.199 259.568L131.427 259.617C131.728 258.198 131.161 256.737 130.333 255.65C129.918 255.105 129.433 254.649 128.95 254.335C128.469 254.022 127.978 253.841 127.552 253.868C126.559 253.932 125.294 254.262 124.124 254.794C122.955 255.325 121.866 256.063 121.24 256.953C120.994 257.303 120.918 257.811 120.954 258.365C120.989 258.923 121.139 259.547 121.365 260.144C121.592 260.741 121.897 261.317 122.248 261.778C122.598 262.238 123.001 262.596 123.427 262.738L123.5 262.514C123.138 262.394 122.771 262.078 122.434 261.635C122.099 261.195 121.804 260.64 121.584 260.06C121.363 259.48 121.221 258.88 121.187 258.35C121.153 257.817 121.231 257.374 121.431 257.089C122.022 256.248 123.069 255.532 124.22 255.009Z" fill="black"/>
<path fill-rule="evenodd" clip-rule="evenodd" d="M128.119 330.625C122.796 329.342 115.942 331.555 107.772 336.494L107.652 336.292C115.829 331.348 122.754 329.09 128.174 330.396C133.609 331.705 137.481 336.585 139.587 345.78C141.276 353.157 139.359 362.322 136.29 370.768C133.339 378.887 129.318 386.36 126.379 390.974C129.377 388.781 131.936 387.898 133.981 387.827C136.145 387.752 137.729 388.59 138.63 389.74C139.087 390.322 139.393 391.115 139.578 391.997C139.763 392.88 139.829 393.86 139.798 394.823C139.768 395.785 139.642 396.733 139.442 397.554C139.243 398.371 138.967 399.071 138.633 399.531L138.445 399.392C138.753 398.968 139.019 398.302 139.215 397.497C139.411 396.695 139.535 395.763 139.565 394.815C139.595 393.868 139.53 392.907 139.349 392.046C139.168 391.183 138.873 390.429 138.447 389.886C137.597 388.8 136.087 387.99 133.989 388.062C131.889 388.135 129.197 389.092 125.999 391.553L125.83 391.395C128.784 386.852 133.007 379.118 136.07 370.687C139.136 362.252 141.033 353.141 139.359 345.833C137.261 336.673 133.427 331.903 128.119 330.625Z" fill="black"/>
<path fill-rule="evenodd" clip-rule="evenodd" d="M153.314 330.625C158.638 329.342 165.492 331.555 173.662 336.494L173.782 336.292C165.604 331.348 158.679 329.09 153.26 330.396C147.825 331.705 143.953 336.585 141.847 345.78C140.158 353.157 142.075 362.322 145.144 370.768C148.12 378.959 152.188 386.493 155.132 391.097C152.769 389.702 150.204 388.734 147.86 388.343C145.377 387.93 143.12 388.161 141.624 389.247C141.016 389.687 140.601 390.45 140.322 391.352C140.042 392.257 139.894 393.318 139.834 394.376C139.713 396.489 139.94 398.613 140.178 399.492L140.403 399.43C140.174 398.583 139.947 396.486 140.067 394.389C140.127 393.343 140.272 392.302 140.545 391.422C140.818 390.54 141.213 389.835 141.76 389.437C143.183 388.405 145.364 388.166 147.822 388.576C150.277 388.985 152.986 390.037 155.445 391.56L155.603 391.395C152.65 386.852 148.427 379.118 145.363 370.687C142.298 362.252 140.401 353.141 142.074 345.833C144.172 336.673 148.007 331.903 153.314 330.625Z" fill="black"/>
<path fill-rule="evenodd" clip-rule="evenodd" d="M118.151 307.339C114.471 310.741 111.055 314.972 109.212 317.866L109.015 317.739C110.87 314.828 114.299 310.581 117.993 307.165C119.84 305.457 121.757 303.954 123.579 302.929C125.399 301.906 127.14 301.351 128.63 301.566C133.178 302.22 136.129 305.406 137.366 309.294C138.602 313.179 138.132 317.776 135.834 321.279C132.177 326.854 127.97 329.315 126.668 329.911L126.572 329.697C127.839 329.116 132.01 326.682 135.639 321.15C137.895 317.71 138.359 313.188 137.143 309.366C135.928 305.547 133.04 302.438 128.597 301.799C127.183 301.595 125.497 302.12 123.693 303.135C121.892 304.147 119.99 305.637 118.151 307.339Z" fill="black"/>
<path fill-rule="evenodd" clip-rule="evenodd" d="M158.069 307.339C161.749 310.741 165.165 314.972 167.009 317.866L167.205 317.739C165.351 314.828 161.921 310.581 158.227 307.165C156.38 305.457 154.463 303.954 152.641 302.929C150.822 301.906 149.08 301.351 147.59 301.566C143.042 302.22 140.091 305.406 138.854 309.294C137.618 313.179 138.088 317.776 140.386 321.279C142.216 324.068 144.451 326.312 146.389 327.932C148.325 329.551 149.971 330.552 150.626 330.852L150.722 330.638C150.093 330.35 148.465 329.362 146.538 327.751C144.613 326.142 142.395 323.914 140.581 321.15C138.325 317.71 137.861 313.188 139.077 309.366C140.292 305.547 143.18 302.438 147.623 301.799C149.037 301.595 150.723 302.12 152.527 303.135C154.328 304.147 156.23 305.637 158.069 307.339Z" fill="black"/>
<path d="M141.113 288.739H135.659C135.003 288.739 134.396 289.086 134.058 289.652L130.606 295.439C130.277 295.991 130.25 296.674 130.536 297.251L133.502 303.23C133.818 303.868 134.465 304.271 135.173 304.271H141.089C141.778 304.271 142.411 303.889 142.736 303.276L145.943 297.234C146.243 296.668 146.237 295.987 145.925 295.426L142.743 289.702C142.413 289.107 141.79 288.739 141.113 288.739Z" fill="url(#paint3_linear)"/>
<path fill-rule="evenodd" clip-rule="evenodd" d="M133.957 289.591C134.316 288.99 134.962 288.622 135.658 288.622H141.113C141.831 288.622 142.494 289.013 142.845 289.644L146.026 295.369C146.357 295.964 146.364 296.688 146.045 297.29L142.839 303.332C142.493 303.982 141.82 304.389 141.088 304.389H135.173C134.421 304.389 133.733 303.96 133.397 303.283L130.431 297.303C130.127 296.691 130.155 295.965 130.505 295.378L133.957 289.591ZM135.658 288.857C135.044 288.857 134.474 289.182 134.157 289.713L130.706 295.5C130.397 296.017 130.372 296.658 130.64 297.198L133.606 303.177C133.902 303.775 134.509 304.153 135.173 304.153H141.088C141.734 304.153 142.328 303.795 142.633 303.221L145.839 297.179C146.121 296.648 146.115 296.009 145.823 295.484L142.641 289.759C142.331 289.202 141.747 288.857 141.113 288.857H135.658Z" fill="white"/>
<path d="M139.938 291.233L136.775 293.676C136.669 293.758 136.556 293.828 136.435 293.885L132.98 295.528C132.029 295.98 131.636 297.133 132.11 298.079L134.105 302.06C134.422 302.695 135.067 303.094 135.772 303.094H140.529C141.215 303.094 141.846 302.715 142.172 302.107L144.766 297.269C145.072 296.699 145.065 296.011 144.748 295.447L142.701 291.8C142.142 290.805 140.839 290.537 139.938 291.233Z" fill="url(#paint4_linear)"/>
<path fill-rule="evenodd" clip-rule="evenodd" d="M142.396 291.973C141.941 291.165 140.883 290.947 140.151 291.513L136.988 293.956C136.863 294.053 136.727 294.136 136.585 294.204L133.129 295.847C132.357 296.214 132.037 297.151 132.422 297.919L134.417 301.901C134.675 302.416 135.199 302.741 135.772 302.741H140.528C141.086 302.741 141.599 302.433 141.864 301.938L144.458 297.101C144.706 296.637 144.7 296.078 144.443 295.62L142.396 291.973ZM139.725 290.952C140.794 290.126 142.342 290.444 143.005 291.626L145.053 295.273C145.429 295.942 145.437 296.759 145.074 297.436L142.48 302.274C142.093 302.997 141.343 303.447 140.528 303.447H135.772C134.935 303.447 134.169 302.972 133.792 302.219L131.797 298.238C131.234 297.114 131.701 295.745 132.831 295.208L136.286 293.565C136.383 293.519 136.476 293.462 136.561 293.396L139.725 290.952Z" fill="url(#paint5_linear)"/>
<path d="M142.571 303.565L131.712 293.681L132.763 291.798L143.856 301.211L142.571 303.565Z" fill="#F9F6F1" fill-opacity="0.4"/>
<path d="M144.323 300.27L133.23 291.092L133.464 290.622L144.557 299.799L144.323 300.27Z" fill="#F9F6F1" fill-opacity="0.4"/>
<path d="M146.075 296.27L136.967 288.739L142.105 288.975L146.075 295.681V296.27Z" fill="#F9F6F1" fill-opacity="0.4"/>
<path fill-rule="evenodd" clip-rule="evenodd" d="M154.307 304.301L153.022 299.477L153.248 299.416L154.532 304.24L154.307 304.301Z" fill="black"/>
<path fill-rule="evenodd" clip-rule="evenodd" d="M121.137 304.772L122.421 299.948L122.196 299.887L120.911 304.711L121.137 304.772Z" fill="black"/>
<path fill-rule="evenodd" clip-rule="evenodd" d="M152.012 256.203C150.916 255.576 149.713 255.139 148.763 254.988C148.411 254.932 147.958 255.042 147.472 255.298C146.988 255.552 146.484 255.943 146.037 256.429C145.139 257.404 144.484 258.74 144.642 260.088L144.41 260.116C144.241 258.675 144.941 257.273 145.866 256.269C146.329 255.765 146.854 255.357 147.364 255.089C147.871 254.822 148.377 254.689 148.799 254.756C149.782 254.912 151.011 255.36 152.127 255.999C153.241 256.637 154.257 257.475 154.798 258.419C155.011 258.79 155.04 259.304 154.953 259.852C154.866 260.405 154.66 261.011 154.379 261.585C154.099 262.158 153.741 262.703 153.349 263.129C152.959 263.554 152.525 263.872 152.088 263.974L152.035 263.745C152.406 263.658 152.802 263.379 153.178 262.969C153.552 262.562 153.897 262.037 154.17 261.48C154.443 260.923 154.64 260.339 154.723 259.815C154.806 259.287 154.769 258.839 154.596 258.537C154.085 257.644 153.109 256.832 152.012 256.203Z" fill="black"/>
<path d="M243.794 226.542L199.274 399.5H286V253.683V128.34V0L177.965 6.49188L197.788 43.9451L253.788 54.9313L243.794 226.542Z" fill="url(#paint6_linear)"/>
<path d="M248.699 218.364L261.94 206.73L279.841 217.667L278.716 235.591L258.995 247.699L247.218 236.938L248.699 218.364Z" fill="#2F1E3A"/>
<path d="M42.1771 319.6L63.9824 399.5H6.00008V253.683V128.34V0H71.9116L75.3806 39.9501L42.1771 73.9076V319.6Z" fill="url(#paint7_linear)"/>
<path d="M286 168.789L64.9736 4.49465L80.832 0.999023L286 146.817V168.789Z" fill="#9CE7FF" fill-opacity="0.14"/>
<path d="M286 78.9016L161.611 0.999023H176.478L286 56.9291V78.9016Z" fill="#9CE7FF" fill-opacity="0.14"/>
<path d="M219.097 400L6.49561 180.774V133.333L286 385.019V400H219.097Z" fill="#9CE7FF" fill-opacity="0.14"/>
<path d="M191.841 48.9388C242.885 48.9388 272.619 27.4657 286 14.9813V0H70.4248C95.3688 16.4794 140.796 48.9388 191.841 48.9388Z" fill="#43606C"/>
<path d="M100.655 48.9388C52.0885 51.4357 21.8584 41.9476 6 32.9588V0H222.071C197.127 16.4794 149.221 46.4419 100.655 48.9388Z" fill="#43606C"/>
<path d="M7.3937 387.7L0.999924 401H76.5356V363.02L59.1249 395.828L61.0716 341L35.9426 395.828L44.1207 343.66L26.7237 395.828L32.374 347.207L16.7613 395.828L17.8022 361.985L7.3937 398.192V387.7Z" fill="#4D563B"/>
<path d="M288.142 387.7L294.536 401H219V363.02L236.411 395.828L234.464 341L259.593 395.828L251.415 343.66L268.812 395.828L263.162 347.207L278.774 395.828L277.733 361.985L288.142 398.192V387.7Z" fill="#4D563B"/>
<path d="M46.9565 400.149H60C52.5466 394.186 50.3106 387.478 50.3106 378.162H43.9752C46.9565 386.36 45.0932 392.323 46.9565 400.149Z" fill="url(#paint8_linear)"/>
<path d="M33.913 378.161C36.3975 373.441 39.1304 364 46.5838 364C54.0372 364 57.1428 373.441 59.2546 378.161H33.913Z" fill="#67A4AE"/>
<path d="M30.1863 390.832H40.6211C40 389.342 38.0869 386.36 35.4037 386.36C32.7205 386.36 30.8074 389.342 30.1863 390.832Z" fill="#67A4AE"/>
<path d="M32.7951 399.777H38.7578L36.8945 390.833H34.2858L32.7951 399.777Z" fill="url(#paint9_linear)"/>
<path d="M15.6522 400.522H26.8323C26.8323 400.522 25.9436 396.795 24.2236 391.205C22.5036 385.615 22.3602 380.025 22.3602 380.025H18.2608C18.2608 380.025 20.4969 387.478 18.6335 391.95C16.7702 396.422 15.6522 400.522 15.6522 400.522Z" fill="url(#paint10_linear)"/>
<path d="M1.86321 400.208H9.31663C11.1054 396.928 8.57129 390.394 7.08061 387.537H4.09924C3.97502 388.158 3.5775 390.22 2.98123 393.5C2.38495 396.779 1.98744 399.338 1.86321 400.208Z" fill="url(#paint11_linear)"/>
<path d="M-8.01086e-05 387.537H10.8074C9.93781 385.425 7.52787 381.351 4.84464 381.947C2.16141 382.543 0.496815 385.922 -8.01086e-05 387.537Z" fill="#67A4AE"/>
<path d="M11.5528 380.025H29.0684C27.3292 377.541 25.7143 372.944 20.4969 372.944C15.2795 372.944 12.6708 377.789 11.5528 380.025Z" fill="#67A4AE"/>
<path d="M62.1852 390.741H57C57 389.012 57.5185 385.63 59.5926 385.926C61.6667 386.222 62.1852 389.259 62.1852 390.741Z" fill="#67A4AE"/>
<path d="M70.3334 390.018H65.1482C65.1482 388.29 65.6667 384.907 67.7408 385.203C69.8149 385.5 70.3334 388.537 70.3334 390.018Z" fill="#67A4AE"/>
<path d="M76.2592 387.796H71.074C71.074 386.068 71.5925 382.685 73.6666 382.981C75.7406 383.277 76.2592 386.314 76.2592 387.796Z" fill="#67A4AE"/>
<path d="M79.2223 391.852H75.5186C75.5186 390.527 75.8889 387.935 77.3704 388.162C78.8519 388.389 79.2223 390.716 79.2223 391.852Z" fill="#67A4AE"/>
<path d="M65.8888 384.833H60.7036C60.7036 383.105 61.2221 379.722 63.2962 380.018C65.3703 380.315 65.8888 383.352 65.8888 384.833Z" fill="#67A4AE"/>
<path fill-rule="evenodd" clip-rule="evenodd" d="M59.8084 392.578C59.3955 391.848 59.116 391.088 59.226 390.318L59.9593 390.423C59.8841 390.949 60.0675 391.531 60.4532 392.213C60.7855 392.801 61.2394 393.415 61.7346 394.085C61.8136 394.192 61.8936 394.3 61.9743 394.41C63.1234 395.973 64.4074 397.825 64.4074 400H63.6667C63.6667 398.101 62.5433 396.434 61.3776 394.849C61.2993 394.742 61.2207 394.636 61.1423 394.53C60.6498 393.864 60.165 393.208 59.8084 392.578Z" fill="#67A4AE"/>
<path fill-rule="evenodd" clip-rule="evenodd" d="M64.0995 393.488C63.3984 391.198 62.7381 388.56 62.9263 384.796L63.6661 384.833C63.4839 388.478 64.1199 391.024 64.8078 393.271C64.9058 393.591 65.0054 393.907 65.1042 394.22C65.6967 396.096 66.2593 397.877 66.2593 400L65.5186 400C65.5186 397.999 64.9942 396.336 64.4021 394.457C64.3024 394.141 64.2008 393.819 64.0995 393.488Z" fill="#67A4AE"/>
<path fill-rule="evenodd" clip-rule="evenodd" d="M67.3704 400V390H68.1111V400H67.3704Z" fill="#67A4AE"/>
<path fill-rule="evenodd" clip-rule="evenodd" d="M72.6304 391.524C73.0261 390.578 73.296 389.401 73.296 387.778L74.0367 387.778C74.0368 389.488 73.7512 390.764 73.3136 391.81C72.8777 392.851 72.2973 393.647 71.7405 394.389C71.7094 394.43 71.6784 394.472 71.6475 394.513C71.1208 395.214 70.6278 395.87 70.2527 396.683C69.8598 397.534 69.5923 398.569 69.5923 400L68.8516 400C68.8516 398.468 69.1397 397.327 69.5801 396.373C69.9894 395.486 70.5267 394.771 71.0454 394.081C71.0797 394.035 71.1139 393.99 71.1479 393.945C71.7023 393.205 72.2329 392.473 72.6304 391.524Z" fill="#67A4AE"/>
<path fill-rule="evenodd" clip-rule="evenodd" d="M75.8829 393.936C76.4251 393.257 76.7092 392.589 76.6318 391.893L77.368 391.811C77.4758 392.781 77.0655 393.642 76.4618 394.398C75.86 395.152 75.0309 395.846 74.222 396.493C74.083 396.604 73.9448 396.714 73.8082 396.822C73.1355 397.356 72.501 397.86 72.0026 398.363C71.3947 398.976 71.074 399.509 71.074 400H70.3333C70.3333 399.195 70.8459 398.478 71.4764 397.841C72.009 397.304 72.6864 396.766 73.3589 396.233C73.493 396.127 73.6268 396.021 73.7593 395.915C74.5708 395.265 75.3389 394.617 75.8829 393.936Z" fill="#67A4AE"/>
<path d="M214.185 390.741H209C209 389.012 209.519 385.63 211.593 385.926C213.667 386.222 214.185 389.259 214.185 390.741Z" fill="#67A4AE"/>
<path d="M222.333 390.018H217.148C217.148 388.29 217.667 384.907 219.741 385.203C221.815 385.5 222.333 388.537 222.333 390.018Z" fill="#67A4AE"/>
<path d="M228.259 387.796H223.074C223.074 386.068 223.592 382.685 225.667 382.981C227.741 383.277 228.259 386.314 228.259 387.796Z" fill="#67A4AE"/>
<path d="M231.222 391.852H227.519C227.519 390.527 227.889 387.935 229.37 388.162C230.852 388.389 231.222 390.716 231.222 391.852Z" fill="#67A4AE"/>
<path d="M217.889 384.833H212.704C212.704 383.105 213.222 379.722 215.296 380.018C217.37 380.315 217.889 383.352 217.889 384.833Z" fill="#67A4AE"/>
<path fill-rule="evenodd" clip-rule="evenodd" d="M211.808 392.578C211.395 391.848 211.116 391.088 211.226 390.318L211.959 390.423C211.884 390.949 212.067 391.531 212.453 392.213C212.786 392.801 213.239 393.415 213.735 394.085C213.814 394.192 213.894 394.3 213.974 394.41C215.123 395.973 216.407 397.825 216.407 400H215.667C215.667 398.101 214.543 396.434 213.378 394.849C213.299 394.742 213.221 394.636 213.142 394.53C212.65 393.864 212.165 393.208 211.808 392.578Z" fill="#67A4AE"/>
<path fill-rule="evenodd" clip-rule="evenodd" d="M216.099 393.488C215.398 391.198 214.738 388.56 214.926 384.796L215.666 384.833C215.484 388.478 216.12 391.024 216.808 393.271C216.906 393.591 217.005 393.907 217.104 394.22C217.697 396.096 218.259 397.877 218.259 400L217.519 400C217.519 397.999 216.994 396.336 216.402 394.457C216.302 394.141 216.201 393.819 216.099 393.488Z" fill="#67A4AE"/>
<path fill-rule="evenodd" clip-rule="evenodd" d="M219.37 400V390H220.111V400H219.37Z" fill="#67A4AE"/>
<path fill-rule="evenodd" clip-rule="evenodd" d="M224.63 391.524C225.026 390.578 225.296 389.401 225.296 387.778L226.037 387.778C226.037 389.488 225.751 390.764 225.314 391.81C224.878 392.851 224.297 393.647 223.741 394.389C223.709 394.43 223.678 394.472 223.648 394.513C223.121 395.214 222.628 395.87 222.253 396.683C221.86 397.534 221.592 398.569 221.592 400L220.852 400C220.852 398.468 221.14 397.327 221.58 396.373C221.989 395.486 222.527 394.771 223.045 394.081C223.08 394.035 223.114 393.99 223.148 393.945C223.702 393.205 224.233 392.473 224.63 391.524Z" fill="#67A4AE"/>
<path fill-rule="evenodd" clip-rule="evenodd" d="M227.883 393.936C228.425 393.257 228.709 392.589 228.632 391.893L229.368 391.811C229.476 392.781 229.066 393.642 228.462 394.398C227.86 395.152 227.031 395.846 226.222 396.493C226.083 396.604 225.945 396.714 225.808 396.822C225.135 397.356 224.501 397.86 224.003 398.363C223.395 398.976 223.074 399.509 223.074 400H222.333C222.333 399.195 222.846 398.478 223.476 397.841C224.009 397.304 224.686 396.766 225.359 396.233C225.493 396.127 225.627 396.021 225.759 395.915C226.571 395.265 227.339 394.617 227.883 393.936Z" fill="#67A4AE"/>
<path d="M246.043 400.149H233C240.453 394.186 242.689 387.478 242.689 378.162H249.025C246.043 386.36 247.907 392.323 246.043 400.149Z" fill="url(#paint12_linear)"/>
<path d="M259.087 378.161C256.603 373.441 253.87 364 246.416 364C238.963 364 235.857 373.441 233.745 378.161H259.087Z" fill="#67A4AE"/>
<path d="M262.814 390.832H252.379C253 389.342 254.913 386.36 257.596 386.36C260.28 386.36 262.193 389.342 262.814 390.832Z" fill="#67A4AE"/>
<path d="M260.205 399.777H254.242L256.106 390.833H258.714L260.205 399.777Z" fill="url(#paint13_linear)"/>
<path d="M277.348 400.522H266.168C266.168 400.522 267.056 396.795 268.776 391.205C270.496 385.615 270.64 380.025 270.64 380.025H274.739C274.739 380.025 272.503 387.478 274.366 391.95C276.23 396.422 277.348 400.522 277.348 400.522Z" fill="url(#paint14_linear)"/>
<path d="M291.137 400.208H283.683C281.895 396.928 284.429 390.394 285.919 387.537H288.901C289.025 388.158 289.423 390.22 290.019 393.5C290.615 396.779 291.013 399.338 291.137 400.208Z" fill="url(#paint15_linear)"/>
<path d="M293 387.537H282.193C283.062 385.425 285.472 381.351 288.155 381.947C290.839 382.543 292.503 385.922 293 387.537Z" fill="#67A4AE"/>
<path d="M281.447 380.025H263.932C265.671 377.541 267.286 372.944 272.503 372.944C277.72 372.944 280.329 377.789 281.447 380.025Z" fill="#67A4AE"/>
<defs>
<radialGradient id="paint0_radial" cx="0" cy="0" r="1" gradientUnits="userSpaceOnUse" gradientTransform="translate(144.761 19.4999) rotate(90) scale(119 82.6661)">
<stop stop-color="#256C76"/>
<stop offset="1" stop-color="#1F3367"/>
</radialGradient>
<linearGradient id="paint1_linear" x1="141.782" y1="259.433" x2="141.782" y2="399.461" gradientUnits="userSpaceOnUse">
<stop stop-color="#B57A29"/>
<stop offset="0.586458" stop-color="#804E0A"/>
<stop offset="1" stop-color="#7D260A"/>
</linearGradient>
<linearGradient id="paint2_linear" x1="138.265" y1="277.425" x2="138.265" y2="285.989" gradientUnits="userSpaceOnUse">
<stop stop-color="#FDB646"/>
<stop offset="1" stop-color="#FAA929"/>
</linearGradient>
<linearGradient id="paint3_linear" x1="136.149" y1="288.739" x2="138.283" y2="301.677" gradientUnits="userSpaceOnUse">
<stop stop-color="white"/>
<stop offset="0.0001" stop-color="#DCE9EB" stop-opacity="0.88"/>
<stop offset="1" stop-color="#C4D2D3" stop-opacity="0.73"/>
</linearGradient>
<linearGradient id="paint4_linear" x1="139.535" y1="289.092" x2="138.231" y2="303.093" gradientUnits="userSpaceOnUse">
<stop offset="0.383333" stop-color="#FEBF5A"/>
<stop offset="1" stop-color="#E67315"/>
</linearGradient>
<linearGradient id="paint5_linear" x1="138.251" y1="289.916" x2="138.251" y2="303.094" gradientUnits="userSpaceOnUse">
<stop stop-color="#FFEEB0"/>
<stop offset="1" stop-color="#FFD12D"/>
</linearGradient>
<linearGradient id="paint6_linear" x1="197.158" y1="-48.9197" x2="328.548" y2="409.886" gradientUnits="userSpaceOnUse">
<stop stop-color="#6E3154"/>
<stop offset="0.992286" stop-color="#302E5C"/>
</linearGradient>
<linearGradient id="paint7_linear" x1="94.8419" y1="-48.9197" x2="-36.5476" y2="409.886" gradientUnits="userSpaceOnUse">
<stop stop-color="#6E3154"/>
<stop offset="0.992286" stop-color="#302E5C"/>
</linearGradient>
<linearGradient id="paint8_linear" x1="51.9876" y1="378.162" x2="51.9876" y2="400.149" gradientUnits="userSpaceOnUse">
<stop stop-color="#8AD6E2"/>
<stop offset="1" stop-color="#67A4AE"/>
</linearGradient>
<linearGradient id="paint9_linear" x1="35.7764" y1="390.833" x2="35.7764" y2="399.777" gradientUnits="userSpaceOnUse">
<stop stop-color="#80C6D1"/>
<stop offset="1" stop-color="#67A4AE"/>
</linearGradient>
<linearGradient id="paint10_linear" x1="21.2422" y1="380.025" x2="21.2422" y2="400.522" gradientUnits="userSpaceOnUse">
<stop stop-color="#80C6D1"/>
<stop offset="1" stop-color="#67A4AE"/>
</linearGradient>
<linearGradient id="paint11_linear" x1="5.89755" y1="387.537" x2="5.89755" y2="400.208" gradientUnits="userSpaceOnUse">
<stop stop-color="#67A4AE"/>
<stop offset="0.0001" stop-color="#80C6D1"/>
<stop offset="1" stop-color="#67A4AE"/>
</linearGradient>
<linearGradient id="paint12_linear" x1="241.012" y1="378.162" x2="241.012" y2="400.149" gradientUnits="userSpaceOnUse">
<stop stop-color="#8AD6E2"/>
<stop offset="1" stop-color="#67A4AE"/>
</linearGradient>
<linearGradient id="paint13_linear" x1="257.224" y1="390.833" x2="257.224" y2="399.777" gradientUnits="userSpaceOnUse">
<stop stop-color="#80C6D1"/>
<stop offset="1" stop-color="#67A4AE"/>
</linearGradient>
<linearGradient id="paint14_linear" x1="271.758" y1="380.025" x2="271.758" y2="400.522" gradientUnits="userSpaceOnUse">
<stop stop-color="#80C6D1"/>
<stop offset="1" stop-color="#67A4AE"/>
</linearGradient>
<linearGradient id="paint15_linear" x1="287.102" y1="387.537" x2="287.102" y2="400.208" gradientUnits="userSpaceOnUse">
<stop stop-color="#67A4AE"/>
<stop offset="0.0001" stop-color="#80C6D1"/>
<stop offset="1" stop-color="#67A4AE"/>
</linearGradient>
</defs>
</svg>
