<svg id="ee565jatakdu1" xmlns="http://www.w3.org/2000/svg" xmlns:xlink="http://www.w3.org/1999/xlink" viewBox="0 0 480 601" shape-rendering="geometricPrecision" text-rendering="geometricPrecision"><style><![CDATA[#ee565jatakdu10 {animation: ee565jatakdu10_c_o 3000ms linear infinite normal forwards}@keyframes ee565jatakdu10_c_o { 0% {opacity: 1;animation-timing-function: cubic-bezier(0.420000,0,0.580000,1)} 33.333333% {opacity: 0;animation-timing-function: cubic-bezier(0.420000,0,0.580000,1)} 66.666667% {opacity: 0;animation-timing-function: cubic-bezier(0.420000,0,0.580000,1)} 100% {opacity: 1} }#ee565jatakdu11 {animation: ee565jatakdu11_c_o 3000ms linear infinite normal forwards}@keyframes ee565jatakdu11_c_o { 0% {opacity: 1;animation-timing-function: cubic-bezier(0.420000,0,0.580000,1)} 33.333333% {opacity: 0;animation-timing-function: cubic-bezier(0.420000,0,0.580000,1)} 66.666667% {opacity: 0;animation-timing-function: cubic-bezier(0.420000,0,0.580000,1)} 100% {opacity: 1} }#ee565jatakdu14 {animation: ee565jatakdu14_c_o 3000ms linear infinite normal forwards}@keyframes ee565jatakdu14_c_o { 0% {opacity: 1;animation-timing-function: cubic-bezier(0.420000,0,0.580000,1)} 33.333333% {opacity: 0.600000;animation-timing-function: cubic-bezier(0.420000,0,0.580000,1)} 100% {opacity: 1} }#ee565jatakdu16 {animation: ee565jatakdu16_c_o 3000ms linear infinite normal forwards}@keyframes ee565jatakdu16_c_o { 0% {opacity: 1;animation-timing-function: cubic-bezier(0.420000,0,0.580000,1)} 50% {opacity: 0.400000;animation-timing-function: cubic-bezier(0.420000,0,0.580000,1)} 100% {opacity: 1} }#ee565jatakdu22 {animation: ee565jatakdu22_c_o 3000ms linear infinite normal forwards}@keyframes ee565jatakdu22_c_o { 0% {opacity: 1;animation-timing-function: cubic-bezier(0.420000,0,0.580000,1)} 66.666667% {opacity: 0.600000;animation-timing-function: cubic-bezier(0.420000,0,0.580000,1)} 100% {opacity: 1} }#ee565jatakdu23 {animation: ee565jatakdu23_c_o 3000ms linear infinite normal forwards}@keyframes ee565jatakdu23_c_o { 0% {opacity: 1;animation-timing-function: cubic-bezier(0.420000,0,0.580000,1)} 33.333333% {opacity: 0.700000;animation-timing-function: cubic-bezier(0.420000,0,0.580000,1)} 100% {opacity: 1} }#ee565jatakdu24 {animation: ee565jatakdu24_c_o 3000ms linear infinite normal forwards}@keyframes ee565jatakdu24_c_o { 0% {opacity: 1;animation-timing-function: cubic-bezier(0.420000,0,0.580000,1)} 50% {opacity: 0.600000;animation-timing-function: cubic-bezier(0.420000,0,0.580000,1)} 100% {opacity: 1} }]]></style><defs><linearGradient id="ee565jatakdu20-fill" x1="383.379000" y1="0" x2="383.379000" y2="600" spreadMethod="pad" gradientUnits="userSpaceOnUse"><stop id="ee565jatakdu20-fill-0" offset="0%" stop-color="rgb(96,49,86)"/><stop id="ee565jatakdu20-fill-1" offset="100%" stop-color="rgb(53,47,92)"/></linearGradient><linearGradient id="ee565jatakdu21-fill" x1="94.500000" y1="1" x2="94.500000" y2="600" spreadMethod="pad" gradientUnits="userSpaceOnUse"><stop id="ee565jatakdu21-fill-0" offset="0%" stop-color="rgb(96,49,86)"/><stop id="ee565jatakdu21-fill-1" offset="100%" stop-color="rgb(53,47,92)"/></linearGradient></defs><rect id="ee565jatakdu2" width="480" height="600" rx="0" ry="0" fill="rgb(255,215,172)" stroke="none" stroke-width="1"/><path id="ee565jatakdu3" d="M479,0L479,65.600000C461.716000,95.418200,436.917000,123,364.775000,123C248.616000,123,230.761000,35.036400,225,0L479,0Z" fill="rgb(181,105,73)" stroke="none" stroke-width="1"/><path id="ee565jatakdu4" d="M254,0L254,65.600000C236.716000,95.418200,211.917000,123,139.775000,123C23.616300,123,5.761340,35.036400,0,0L254,0Z" fill="rgb(181,105,73)" stroke="none" stroke-width="1"/><path id="ee565jatakdu5" d="M311.750000,600L258,600L285.500000,0L338,0L311.750000,600Z" fill="rgb(242,148,108)" stroke="none" stroke-width="1"/><path id="ee565jatakdu6" d="M280.555000,354.646000L179,600.615000L416.584000,600.615000L324.345000,354.646000L280.555000,354.646000Z" fill="rgb(28,14,76)" stroke="none" stroke-width="1"/><path id="ee565jatakdu7" d="M285.679000,347.193000L287.077000,355.112000L280.089000,358.839000L274.499000,350.454000L275.431000,345.329000L282.418000,343L285.679000,347.193000Z" fill="rgb(28,14,76)" stroke="none" stroke-width="1"/><path id="ee565jatakdu8" d="M319.221000,347.193000L317.823000,355.112000L324.811000,358.839000L330.401000,350.454000L329.470000,345.329000L322.482000,343L319.221000,347.193000Z" fill="rgb(28,14,76)" stroke="none" stroke-width="1"/><path id="ee565jatakdu9" d="M305.246000,364.895000L297.793000,364.895000L294.066000,377.007000L308.973000,377.007000L305.246000,364.895000Z" fill="rgb(26,46,117)" stroke="none" stroke-width="1"/><circle id="ee565jatakdu10" r="1.863400" transform="matrix(1 0 0 1 313.16500000000002 366.75799999999998)" fill="rgb(0,243,243)" stroke="none" stroke-width="1"/><circle id="ee565jatakdu11" r="1.863400" transform="matrix(1 0 0 1 289.87299999999999 366.75799999999998)" fill="rgb(0,243,243)" stroke="none" stroke-width="1"/><path id="ee565jatakdu12" d="M306.643000,470.643000C310.627000,458.328000,334.595000,457.599000,334.595000,457.599000C334.595000,457.599000,321.790000,460.301000,317.358000,470.643000C309.771000,488.346000,313.632000,500.923000,313.632000,500.923000C313.632000,500.923000,301.518000,486.482000,306.643000,470.643000Z" fill="rgb(26,46,117)" stroke="none" stroke-width="1"/><path id="ee565jatakdu13" d="M293.601000,470.643000C289.616000,458.328000,265.649000,457.599000,265.649000,457.599000C265.649000,457.599000,278.453000,460.301000,282.885000,470.643000C290.472000,488.346000,286.612000,500.923000,286.612000,500.923000C286.612000,500.923000,298.725000,486.482000,293.601000,470.643000Z" fill="rgb(26,46,117)" stroke="none" stroke-width="1"/><path id="ee565jatakdu14" d="M480,253L84,0L104,0L480,231L480,253Z" fill="rgb(255,239,156)" fill-opacity="0.14" stroke="none" stroke-width="1"/><path id="ee565jatakdu15" d="M99.372100,600L52,600L99.372100,0L149,0L99.372100,600Z" fill="rgb(242,148,108)" stroke="none" stroke-width="1"/><path id="ee565jatakdu16" d="M480,436L0,81L0,59L480,415L480,436Z" fill="rgb(255,239,156)" fill-opacity="0.14" stroke="none" stroke-width="1"/><path id="ee565jatakdu17" d="M245,600L206,600L239,0L269,0L245,600Z" fill="rgb(221,117,110)" stroke="none" stroke-width="1"/><path id="ee565jatakdu18" d="M204,1L147.209000,1L136,600L204,600L204,1Z" fill="rgb(138,65,82)" stroke="none" stroke-width="1"/><path id="ee565jatakdu19" d="M378.871000,1L325,1L362.410000,599L429,599L378.871000,1Z" fill="rgb(138,65,82)" stroke="none" stroke-width="1"/><path id="ee565jatakdu20" d="M480,600L352.678000,600C367.907000,582.507000,400.461000,537.376000,408.849000,500.791000C417.238000,464.206000,415.840000,365.098000,414.092000,320.116000L325.716000,236.901000L286.757000,175.745000L292,163L337.699000,209.163000L414.092000,254.144000L398.364000,0L480,0L480,600Z" fill="url(#ee565jatakdu20-fill)" stroke="none" stroke-width="1"/><path id="ee565jatakdu21" d="M138.202000,1L0,1L0,600L189,600C178.791000,582.757000,110.254000,527.813000,103.838000,500.292000C49.304300,266.389000,52.292500,75.968700,138.202000,1Z" fill="url(#ee565jatakdu21-fill)" stroke="none" stroke-width="1"/><path id="ee565jatakdu22" d="M480,169L209,1L241,1L480,128L480,169Z" fill="rgb(255,239,156)" fill-opacity="0.14" stroke="none" stroke-width="1"/><path id="ee565jatakdu23" d="M480,361.500000L1,31L1,3L480,320L480,361.500000Z" fill="rgb(255,239,156)" fill-opacity="0.14" stroke="none" stroke-width="1"/><path id="ee565jatakdu24" d="M412.283000,600L0,170L0,125L480,482L480,600L412.283000,600Z" fill="rgb(255,239,156)" fill-opacity="0.14" stroke="none" stroke-width="1"/><path id="ee565jatakdu25" d="M0,74.370800L0,0L236,0C236,69.112300,104.471000,136.722000,0,74.370800Z" fill="rgb(67,96,108)" stroke="none" stroke-width="1"/><path id="ee565jatakdu26" d="M480,47.411800L480,0L210,0C210,47.411800,365.788000,117.401000,480,47.411800Z" fill="rgb(67,96,108)" stroke="none" stroke-width="1"/></svg>